<?xml version="1.0" encoding="UTF-8" standalone="no"?>
<svg
   xmlns:dc="http://purl.org/dc/elements/1.1/"
   xmlns:cc="http://creativecommons.org/ns#"
   xmlns:rdf="http://www.w3.org/1999/02/22-rdf-syntax-ns#"
   xmlns:svg="http://www.w3.org/2000/svg"
   xmlns="http://www.w3.org/2000/svg"
   xmlns:sodipodi="http://sodipodi.sourceforge.net/DTD/sodipodi-0.dtd"
   xmlns:inkscape="http://www.inkscape.org/namespaces/inkscape"
   height="100%"
   width="100%"
   version="1.1"
   viewBox="0 0 2048 2048"
   id="svg16"
   sodipodi:docname="br.svg"
   inkscape:version="1.0.2 (e86c870879, 2021-01-15)">
  <metadata
     id="metadata22">
    <rdf:RDF>
      <cc:Work
         rdf:about="">
        <dc:format>image/svg+xml</dc:format>
        <dc:type
           rdf:resource="http://purl.org/dc/dcmitype/StillImage" />
      </cc:Work>
    </rdf:RDF>
  </metadata>
  <defs
     id="defs20" />
  <sodipodi:namedview
     pagecolor="#ffffff"
     bordercolor="#666666"
     borderopacity="1"
     objecttolerance="10"
     gridtolerance="10"
     guidetolerance="10"
     inkscape:pageopacity="0"
     inkscape:pageshadow="2"
     inkscape:window-width="960"
     inkscape:window-height="1060"
     id="namedview18"
     showgrid="false"
     inkscape:zoom="0.43115234"
     inkscape:cx="1024"
     inkscape:cy="1024"
     inkscape:window-x="960"
     inkscape:window-y="20"
     inkscape:window-maximized="0"
     inkscape:current-layer="svg16" />
  <path
     style="color:black;"
     d="m1161 1706h170v137h274v-375l-222-171v-478l170-170v-205h153v-239h-1365v239h153v205l171 170v478l-222 171v375h273v-137h171v137h274v-137zm-597-1246v-102h920v102h-920zm460 1092h-512v-46l73-55h879l71 55v46h-511zm0-169h-350l60-47v-57h580v57l60 47h-350zm0-546h-290v-46l-60-58h700l-60 58v46h-290zm0-172h-414l-46-43v-58h920v58l-46 43h-414z"
     fill-rule="nonzero"
     transform="translate(0,2048) scale(1,-1)"
     display="block"
     fill="#000"
     id="path2" />
  <g
     fill-rule="nonzero"
     fill="#fff"
     id="g14">
    <path
       style="color:black;"
       d="m564 1588v102h920v-102h-920z"
       display="block"
       id="path4" />
    <path
       style="color:black;"
       d="m1024 496h-512v46l73 55h879l71-55v-46h-511z"
       display="block"
       id="path6" />
    <path
       style="color:black;"
       d="m1024 665h-350l60 47v57h580v-57l60-47h-350z"
       display="block"
       id="path8" />
    <path
       style="color:black;"
       d="m1024 1211h-290v46l-60 58h700l-60-58v-46h-290z"
       display="block"
       id="path10" />
    <path
       style="color:black;"
       d="m1024 1383h-414l-46 43v58h920v-58l-46-43h-414z"
       display="block"
       id="path12" />
  </g>
  <text
     x="479.73318"
     y="1578.7649"
     style="font-size:1027.77px;font-family:'DejaVu Sans', 'Bitstream Vera Sans';stroke-width:8.56471"
     xml:space="preserve"
     id="text4"
     transform="scale(1.3095952,0.76359476)"><tspan
       x="479.73318"
       y="1578.7649"
       fill="#808080"
       id="tspan2"
       style="stroke-width:25.0418">x</tspan></text>
</svg>
