<?xml version="1.0" encoding="utf-8"?>
<!-- Generator: Adobe Illustrator 25.2.0, SVG Export Plug-In . SVG Version: 6.00 Build 0)  -->
<svg version="1.1" id="Layer_1" xmlns="http://www.w3.org/2000/svg" xmlns:xlink="http://www.w3.org/1999/xlink" x="0px" y="0px"
	 viewBox="0 0 432 432" style="enable-background:new 0 0 432 432;" xml:space="preserve">
<style type="text/css">
	.st0{fill:#888787;stroke:#000000;stroke-miterlimit:10;}
</style>
<g>
	<g>
		<path class="st0" d="M216,114.65L115.39,77.87c7.54-20.72,21.3-38.46,39.02-50.95C171.82,14.65,193.07,7.44,216,7.44V114.65z
			 M154.41,26.93L216,114.65 M216,114.65L183.79,12.37 M131.22,49.13L216,114.65"/>
		<path class="st0" d="M216,7.44c22.93,0,44.18,7.21,61.59,19.49c17.72,12.49,31.48,30.22,39.02,50.95L216,114.65V7.44z M216,114.65
			l61.59-87.72 M248.21,12.37L216,114.65 M216,114.65l84.78-65.52"/>
	</g>
	<path d="M171.85,169.25c0,0,0,36.3-13.69,101.02c-8.23,38.9-30.86,65.15-38.54,92.58c-1.86,6.63-5.2,30.06-5.2,30.06l-14.97,17.11
		v14.54h233.1v-14.54l-14.97-17.11c0,0-3.34-23.43-5.2-30.06c-7.68-27.43-30.32-53.68-38.54-92.58
		c-13.69-64.72-13.69-101.02-13.69-101.02L171.85,169.25L171.85,169.25z"/>
	<circle cx="216" cy="113.13" r="71.33"/>
</g>
</svg>
