<?xml version="1.0" encoding="utf-8"?>
<!-- Generator: Adobe Illustrator 25.2.0, SVG Export Plug-In . SVG Version: 6.00 Build 0)  -->
<svg version="1.1" id="Layer_1" xmlns="http://www.w3.org/2000/svg" xmlns:xlink="http://www.w3.org/1999/xlink" x="0px" y="0px"
	 viewBox="0 0 432 432" style="enable-background:new 0 0 432 432;" xml:space="preserve">
<g>
	<path d="M216,48.58c-30.41,0-56.93-16.56-71.1-41.14c-6.94,12.04-10.93,26-10.93,40.9c0,45.31,36.73,82.03,82.03,82.03
		c45.31,0,82.03-36.73,82.03-82.03c0-14.9-3.99-28.85-10.93-40.9C272.93,32.02,246.41,48.58,216,48.58z"/>
	<path d="M166.72,112.85c0,0,0,44.32-15.28,123.33c-9.18,47.49-34.45,79.54-43.03,113.03c-2.07,8.1-5.81,36.7-5.81,36.7L85.9,406.8
		v17.75h260.2V406.8l-16.71-20.89c0,0-3.73-28.6-5.81-36.7c-8.58-33.49-33.84-65.54-43.03-113.03
		c-15.28-79.01-15.28-123.33-15.28-123.33H166.72z"/>
</g>
</svg>
