<?xml version="1.0" encoding="UTF-8"?><svg xmlns="http://www.w3.org/2000/svg" xmlns:xlink="http://www.w3.org/1999/xlink" viewBox="0 0 50 50" version="1.1"><path d="M45.906 2.969c-.043.008-.086.02-.125.031A1.002 1.002 0 0 0 45 4c0 7.152-4.719 10.906-4.719 10.906l-.031.031c-.324.04-.64.102-.938.25-1 .399-2.32 1.102-3.718 2-.899.5-1.899 1.118-3 1.72 0 0-.094-.009-.094.093-.602.398-5.79 2.805-12.188 5.406.801.7 1.583 1.489 2.282 2.188 2 2.101 2.699 4.718 2 7.218-.801 2.602-2.989 4.68-5.688 5.282-.5.101-1.093.218-1.593.218-1.899 0-3.7-.82-5-2.218l-.626-.594c0 1-.374 2.293-.874 3.594.5.101.8.21 1 .312.398.102 1.976.594 4.374.594 4.102 0 7.72-1.988 10.72-4.688L26 30.5c-.102-.5.313-1.094.813-1.094.5-.101 1.093.282 1.093.782l.688 4.5a42.763 42.763 0 0 0 3.093-3.626l.782.657 3.125 6.812a.997.997 0 0 0 1.343.469s.395-.18.844-.25c.45-.07.735-.055.938.188a1.01 1.01 0 0 0 1.562-1.282c-.797-.957-2.011-1.035-2.812-.906-.25.04-.239.094-.438.156l-2.812-6.218a1.022 1.022 0 0 0-.282-.375l-1.062-.844a71.725 71.725 0 0 0 1.625-2.375c.898 2.601 1.906 4.218 3.406 4.218 1.899 0 7.407-3.511 7.407-8.812 0-1.86-.442-3.777-1.25-5.219 1.593-1.047 5.18-3.914 5.937-9.125a1.003 1.003 0 0 0-.277-.879 1.003 1.003 0 0 0-.88-.277.994.994 0 0 0-.843.844c-.703 4.836-4.125 7.23-5.188 7.875-.097-.082-.21-.149-.312-.219C44.07 13.805 47 9.883 47 4a1 1 0 0 0-1.094-1.031zm-41 12.094a2.935 2.935 0 0 0-1.593.53c-1.2.802-1.626 2.305-1.126 3.907L7 43.406c-1.398-.398-3.605-.511-6.406.688-.5.199-.7.812-.5 1.312.101.399.508.594.906.594.102 0 .3-.008.5.094 4-1.7 6.305-.196 6.406-.094.301.2.793.2 1.094 0 .3-.2.508-.602.406-1L8.5 40.687c0-.101.094-.085.094-.187 1.5-3.398 1.613-7.2 1.312-10 .399.5.696 1 1.094 1.5 1 1.3 1.813 2.492 2.813 3.594 1.199 1.3 2.886 1.804 4.687 1.406 1.898-.398 3.688-2.008 4.188-3.906.5-1.801 0-3.688-1.5-5.188-2.602-2.699-6.301-5.71-9.5-8.312-1.5-1.301-2.899-2.508-4-3.407-.875-.75-1.844-1.152-2.782-1.125zM40.5 21c.8 0 1.5.7 1.5 1.5s-.7 1.5-1.5 1.5-1.5-.7-1.5-1.5.7-1.5 1.5-1.5zm-38 10.313c-.602.199-1.21.398-1.813.5-.3 0-.488.292-.687.593-.102.301-.012.7.188 1 .101.102 1.406 1.696 3.406 3.094zm26.188 3.375c-.602.601-1.18 1.117-1.782 1.718l.282 1.907c0 .199.117.398.218.5l4.188 5c.3.398.82.48 1.218.28.301-.1 1.383-.491 1.782-.093.199.2.511.406.812.406.2 0 .492-.117.594-.218.398-.399.492-.977.094-1.376-.899-1.101-2.399-1.113-3.5-.812L29 37.812z" id="surface1"/><metadata><rdf:RDF xmlns:rdf="http://www.w3.org/1999/02/22-rdf-syntax-ns#" xmlns:rdfs="http://www.w3.org/2000/01/rdf-schema#" xmlns:dc="http://purl.org/dc/elements/1.1/"><rdf:Description about="https://iconscout.com/legal#licenses" dc:title="grasshopper,filled" dc:description="grasshopper,filled" dc:publisher="Iconscout" dc:date="2017-12-07" dc:format="image/svg+xml" dc:language="en"><dc:creator><rdf:Bag><rdf:li>Icons8</rdf:li></rdf:Bag></dc:creator></rdf:Description></rdf:RDF></metadata></svg>