<?xml version="1.0" encoding="UTF-8"?><svg xmlns="http://www.w3.org/2000/svg" xmlns:xlink="http://www.w3.org/1999/xlink" viewBox="0 0 50 50" version="1.1"><path d="M45.906 2.969c-.043.008-.086.02-.125.031A1.002 1.002 0 0 0 45 4c0 6.996-4.46 10.684-4.656 10.844a3.304 3.304 0 0 0-1.094.219.466.466 0 0 0-.063.03c-1.738.762-3.89 2.145-6.656 3.626-.043.02-.086.039-.125.062.059-.043-.59.348-1.437.75-.848.403-1.989.926-3.344 1.532a391.07 391.07 0 0 1-9.281 3.968c-3.73-3.3-8.149-6.738-10.594-8.875-.672-.582-1.441-.945-2.188-1.062a3.158 3.158 0 0 0-2.093.375c-1.203.703-1.707 2.304-1.219 3.937h-.031l.031.125L4.5 30.688c-1.04.328-2.527.812-3.688 1.03a1.01 1.01 0 0 0-.765.641c-.121.336-.055.711.172.985 0 0 2.445 3.058 5.718 4.5l1.125 5.593c-.214-.066-.156-.105-.406-.156-1.445-.285-3.539-.261-6.062.813a1.002 1.002 0 0 0-.254 1.789c.32.21.734.222 1.066.023 2.176-.926 3.797-.902 4.875-.687 1.078.215 1.532.593 1.532.593a1.001 1.001 0 0 0 1.563-1L8.499 40.5a.842.842 0 0 0 .094-.188c1.644-3.593 1.625-7.207 1.281-10.03 1.316 1.796 2.727 3.816 3.969 5.187h.031c1.07 1.16 2.48 1.668 3.813 1.593 1.332-.074 2.597-.671 3.562-1.562.965-.89 1.645-2.11 1.75-3.5.105-1.39-.422-2.895-1.688-4.188v-.03c-.417-.419-.878-.848-1.343-1.282a383.223 383.223 0 0 0 8.468-3.625c1.368-.61 2.536-1.148 3.407-1.563.808-.382 1.234-.582 1.625-.843l.125-.063c2.746-1.476 4.941-2.836 6.375-3.468.422-.165.699-.153 1.031 0 .332.152.691.488 1.031 1 .676 1.027 1.157 2.746 1.157 4.468 0 2.047-1.075 3.746-2.376 4.969a9.44 9.44 0 0 1-1.937 1.406c-.582.313-1.121.407-1.063.407-.042 0-.097.011-.25-.125-.152-.137-.347-.426-.562-.844-.434-.836-.902-2.16-1.344-3.782a1.002 1.002 0 0 0-1.812-.28c-.817 1.273-2.73 4.655-5.563 7.905L28 30.157a1 1 0 0 0-1.063-.875 1.008 1.008 0 0 0-.726.367c-.18.223-.254.508-.211.79l.531 3.468C23.621 36.734 20.074 39 16.094 39c-2.34 0-3.75-.531-3.75-.531a.994.994 0 0 0-1.024.14.995.995 0 0 0-.355.97 1 1 0 0 0 .691.765s1.778.656 4.438.656c4.218 0 7.855-2.07 10.812-4.688l.313 1.938a.997.997 0 0 0 .218.5l4.188 5a1 1 0 0 0 1.219.25s.394-.18.843-.25c.45-.07.735-.055.938.188.223.3.59.449.957.394a1.002 1.002 0 0 0 .574-1.676c-.797-.957-1.98-1.035-2.781-.906-.367.059-.41.129-.656.219l-3.563-4.282-.468-3.093c.199-.207.402-.414.593-.625a38.145 38.145 0 0 0 2.375-2.907l.813.657 3.125 6.812a.997.997 0 0 0 1.343.469s.395-.18.844-.25c.45-.07.735-.055.938.188a1.01 1.01 0 0 0 1.562-1.282c-.797-.957-2.011-1.035-2.812-.906-.25.04-.239.094-.438.156l-2.812-6.218a1.022 1.022 0 0 0-.282-.375l-1.093-.875a65 65 0 0 0 1.593-2.47c.25.743.485 1.618.782 2.188.285.547.59.996 1 1.375.41.38.988.657 1.593.657.711 0 1.258-.258 2-.657.743-.398 1.59-.949 2.376-1.687 1.574-1.477 3-3.684 3-6.438 0-1.86-.407-3.676-1.188-5.093 1.54-.989 5.227-3.836 6-9.157a1.003 1.003 0 0 0-.277-.879 1.003 1.003 0 0 0-.88-.277.994.994 0 0 0-.843.844c-.719 4.945-4.281 7.332-5.25 7.906-.086-.074-.16-.152-.25-.219C44.07 13.844 47 9.902 47 4a1 1 0 0 0-1.094-1.031zM4.844 17.063a1.26 1.26 0 0 1 .437 0c.332.054.73.226 1.157.593 2.542 2.227 6.984 5.684 10.625 8.907.003.003-.004.027 0 .03.113.31.37.544.687.626.004.004.027-.004.031 0 .746.676 1.461 1.336 2.094 1.968l.031.032c.907.941 1.153 1.828 1.094 2.625-.063.808-.48 1.59-1.125 2.187-.645.598-1.504.985-2.313 1.032-.808.046-1.539-.2-2.218-.938-1.801-1.988-3.328-4.594-6.375-8.25a1.002 1.002 0 0 0-1.215-.223 1.003 1.003 0 0 0-.504 1.13s1.21 4.75.406 9.437l-1-4.907-.031-.187a.879.879 0 0 0-.031-.094L4.187 19a1.169 1.169 0 0 0-.03-.125c-.34-1.023-.048-1.46.343-1.688.098-.058.215-.101.344-.125zM40.5 21a1.5 1.5 0 1 0 0 3 1.5 1.5 0 0 0 0-3zM4.906 32.656l.5 2.625c-1.004-.648-1.855-1.414-2.5-2.062.801-.23 1.383-.387 2-.563z" id="surface1"/><metadata><rdf:RDF xmlns:rdf="http://www.w3.org/1999/02/22-rdf-syntax-ns#" xmlns:rdfs="http://www.w3.org/2000/01/rdf-schema#" xmlns:dc="http://purl.org/dc/elements/1.1/"><rdf:Description about="https://iconscout.com/legal#licenses" dc:title="grasshopper" dc:description="grasshopper" dc:publisher="Iconscout" dc:date="2017-12-07" dc:format="image/svg+xml" dc:language="en"><dc:creator><rdf:Bag><rdf:li>Icons8</rdf:li></rdf:Bag></dc:creator></rdf:Description></rdf:RDF></metadata></svg>