<?xml version="1.0" encoding="UTF-8" standalone="no"?>
<svg
   xmlns:dc="http://purl.org/dc/elements/1.1/"
   xmlns:cc="http://creativecommons.org/ns#"
   xmlns:rdf="http://www.w3.org/1999/02/22-rdf-syntax-ns#"
   xmlns:svg="http://www.w3.org/2000/svg"
   xmlns="http://www.w3.org/2000/svg"
   xmlns:sodipodi="http://sodipodi.sourceforge.net/DTD/sodipodi-0.dtd"
   xmlns:inkscape="http://www.inkscape.org/namespaces/inkscape"
   version="1.1"
   id="Capa_1"
   x="0px"
   y="0px"
   viewBox="0 0 380 380"
   style="enable-background:new 0 0 380 380;"
   xml:space="preserve"
   sodipodi:docname="castle.svg"
   inkscape:version="1.0.1 (3bc2e813f5, 2020-09-07)"><metadata
   id="metadata39"><rdf:RDF><cc:Work
       rdf:about=""><dc:format>image/svg+xml</dc:format><dc:type
         rdf:resource="http://purl.org/dc/dcmitype/StillImage" /></cc:Work></rdf:RDF></metadata><defs
   id="defs37" /><sodipodi:namedview
   pagecolor="#ffffff"
   bordercolor="#666666"
   borderopacity="1"
   objecttolerance="10"
   gridtolerance="10"
   guidetolerance="10"
   inkscape:pageopacity="0"
   inkscape:pageshadow="2"
   inkscape:window-width="1920"
   inkscape:window-height="1060"
   id="namedview35"
   showgrid="false"
   inkscape:zoom="2.3236842"
   inkscape:cx="190"
   inkscape:cy="155.57191"
   inkscape:window-x="0"
   inkscape:window-y="20"
   inkscape:window-maximized="0"
   inkscape:current-layer="Capa_1" />
<path
   d="m 358.93345,163.94827 v -15.2498 h -12.77326 v 15.2498 h -14.6918 v -15.2498 h -12.77325 v 15.2498 h -16.47997 v -15.2498 h -12.77884 v 15.2498 h -14.689 v -15.2498 h -12.77885 v 15.2498 h -2.97001 v 12.07211 h 10.63209 v 32.54831 h -41.16218 v -52.12205 h -3.54374 V 116.43308 L 193.23412,64.845953 V 40.25232 c 7.80739,-7.369721 14.39007,-7.266921 24.80611,-4.452218 10.88171,2.937517 17.56403,2.945705 25.85756,-5.475663 -19.46302,11.54538 -31.47073,-21.4787188 -50.66272,-11.522637 v -1.904974 h -4.83176 v 49.221837 l -30.91008,50.313515 v 40.01355 h -3.54557 v 52.12206 h -41.21901 v -32.54831 h 10.63211 v -12.07212 h -2.97002 v -15.2498 h -12.77046 v 15.2498 H 92.922885 v -15.2498 H 80.149634 v 15.2498 H 63.671532 v -15.2498 H 50.892691 v 15.2498 H 36.204615 v -15.2498 H 23.425774 v 15.2498 h -2.970957 v 12.07212 h 10.632114 v 186.57464 h 68.59838 13.042399 156.90285 13.04429 68.5965 V 176.02038 h 10.63212 V 163.94827 Z M 81.745009,341.22367 H 62.070568 v -30.14663 c 0,-5.30464 4.405212,-9.60765 9.837687,-9.60765 5.432473,0 9.837686,4.30301 9.837686,9.60765 v 30.14663 z M 99.900446,184.39718 h -55.9909 v -8.3768 h 55.9909 z m 91.278234,-72.36172 c 12.22935,4.89161 11.67986,12.79444 11.67986,12.79444 v 26.21204 H 191.17868 179.50254 V 124.8299 c 0,0 -0.55136,-7.90283 11.67614,-12.79444 z m 33.76274,154.32655 v 75.77957 h -33.76274 -33.76087 v -75.77957 c 0,0 -1.5842,-22.84604 33.76087,-36.98871 35.35066,14.14175 33.76274,36.98871 33.76274,36.98871 z m 95.34723,74.86166 H 300.6142 v -30.14663 c 0,-5.30464 4.40522,-9.60765 9.83582,-9.60765 5.43341,0 9.83863,4.30301 9.83863,9.60765 z m 18.16102,-156.82649 h -55.99089 v -8.3768 h 55.99089 z"
   id="path2"
   style="stroke-width:0.920469" />
<g
   id="g4"
   transform="matrix(0.93133451,0,0,0.90972973,14.226052,16.896828)">
</g>
<g
   id="g6"
   transform="matrix(0.93133451,0,0,0.90972973,14.226052,16.896828)">
</g>
<g
   id="g8"
   transform="matrix(0.93133451,0,0,0.90972973,14.226052,16.896828)">
</g>
<g
   id="g10"
   transform="matrix(0.93133451,0,0,0.90972973,14.226052,16.896828)">
</g>
<g
   id="g12"
   transform="matrix(0.93133451,0,0,0.90972973,14.226052,16.896828)">
</g>
<g
   id="g14"
   transform="matrix(0.93133451,0,0,0.90972973,14.226052,16.896828)">
</g>
<g
   id="g16"
   transform="matrix(0.93133451,0,0,0.90972973,14.226052,16.896828)">
</g>
<g
   id="g18"
   transform="matrix(0.93133451,0,0,0.90972973,14.226052,16.896828)">
</g>
<g
   id="g20"
   transform="matrix(0.93133451,0,0,0.90972973,14.226052,16.896828)">
</g>
<g
   id="g22"
   transform="matrix(0.93133451,0,0,0.90972973,14.226052,16.896828)">
</g>
<g
   id="g24"
   transform="matrix(0.93133451,0,0,0.90972973,14.226052,16.896828)">
</g>
<g
   id="g26"
   transform="matrix(0.93133451,0,0,0.90972973,14.226052,16.896828)">
</g>
<g
   id="g28"
   transform="matrix(0.93133451,0,0,0.90972973,14.226052,16.896828)">
</g>
<g
   id="g30"
   transform="matrix(0.93133451,0,0,0.90972973,14.226052,16.896828)">
</g>
<g
   id="g32"
   transform="matrix(0.93133451,0,0,0.90972973,14.226052,16.896828)">
</g>
</svg>
