<?xml version="1.0" encoding="UTF-8"?><svg xmlns="http://www.w3.org/2000/svg" xmlns:xlink="http://www.w3.org/1999/xlink" version="1.1" id="Layer_1" x="0px" y="0px" viewBox="0 0 52 52" xml:space="preserve"><path d="M47.751 21.077c-1.02-.79-2.14-.93-2.96-.88-.73-4.53-4.21-8.13-8.79-8.94-.1-2.4-1.67-4.42-3.99-5.03-1.71-.45-3.47-.11-4.84.94-1.3 1-2.08 2.49-2.15 4.11-3.55.82-6.55 4.43-8.02 8.39-.58-1.61-1.47-3.26-2.86-4.36-1.4-1.11-3.08-1.5-4.99-1.16-.48.08-.83.5-.83.98v3.3h-3.26a3.06 3.06 0 0 0-3.06 3.06c0 .82.32 1.59.89 2.16.57.58 1.34.9 2.17.9h3.01l-.05 4.47c-.02 1.25.46 2.42 1.33 3.31.88.89 2.05 1.38 3.3 1.38h4.98v8.68c0 1.98 1.61 3.58 3.59 3.58s3.59-1.6 3.59-3.58v-8.68h3.02v8.68c0 1.98 1.61 3.58 3.59 3.58 1.98 0 3.59-1.6 3.59-3.58v-8.68h2.75v8.68c0 1.98 1.61 3.58 3.59 3.58s3.58-1.6 3.58-3.58v-11.93l.01-.01v-8.27c.45-.01 1.06.07 1.59.48 1.13.87 1.63 2.96 1.43 6.03-.04.55.38 1.02.93 1.06h.07c.52 0 .96-.41.99-.93.25-3.82-.49-6.43-2.2-7.74zm-34.79-.09c-.19.18-.45.29-.71.29-.27 0-.52-.11-.71-.29-.18-.19-.29-.45-.29-.71 0-.27.11-.52.29-.71.37-.37 1.04-.37 1.42 0 .18.19.29.44.29.71 0 .26-.11.52-.29.71z"/><metadata><rdf:RDF xmlns:rdf="http://www.w3.org/1999/02/22-rdf-syntax-ns#" xmlns:rdfs="http://www.w3.org/2000/01/rdf-schema#" xmlns:dc="http://purl.org/dc/elements/1.1/"><rdf:Description about="https://iconscout.com/legal#licenses" dc:title="camel,animal,pet,desert" dc:description="camel,animal,pet,desert" dc:publisher="Iconscout" dc:date="2017-11-11" dc:format="image/svg+xml" dc:language="en"><dc:creator><rdf:Bag><rdf:li>Dinosoft Labs</rdf:li></rdf:Bag></dc:creator></rdf:Description></rdf:RDF></metadata></svg>