<?xml version="1.0" encoding="UTF-8"?><svg xmlns="http://www.w3.org/2000/svg" xmlns:xlink="http://www.w3.org/1999/xlink" version="1.1" id="Layer_1" x="0px" y="0px" viewBox="0 0 52 52" xml:space="preserve"><path fill="#231F20" d="M37.9 27.1c-.4 4.4-.8 9.2-.1 13.6.2 1.4.3 3 1.5 4 2.9 2.4 5.4-.7 5.9-3.4.6-2.9.4-6 .6-8.9.2-3.7.8-7.8.4-11.6-.6-5.9-5.2-8.2-10.3-9.9-1.5-.5-2.2 1.9-.7 2.4 5.5 1.8 8.6 4.2 8.6 10.3 0 3.6-.4 7.1-.6 10.7-.1 1.3.3 3.4-.2 4.6.1 1.3-.8 1.9-2.7 1.8 0-.6-.1-1.3-.1-1.9-.9-3.3 0-8.2.3-11.6.1-1.7-2.5-1.7-2.6-.1z"/><path fill="#231F20" d="M36.5 11.7c-.3-1.4-.2-3.5-1.4-4.6-1-.9-3-1.4-4.3-1.6-3.6-.4-5.2 2.2-5.9 5.4-.4 1.6 2.1 2.2 2.4.7.5-2.1 1.2-4 3.8-3.5.8.2 2 .5 2.4 1.2.4.7.4 2.2.6 3 .3 1.7 2.7 1 2.4-.6z"/><path fill="#231F20" d="M25.4 10.4c-5.4 2.8-8.7 7.9-9.5 13.9.8-.1 1.6-.2 2.5-.3-1-2.8-.3-6.2-2.3-8.6-1.6-1.9-4-2.4-6.3-2-1.6.3-.9 2.7.7 2.4 5.4-1 4.4 5.6 5.6 8.8.5 1.4 2.3 1.1 2.5-.3.7-5.1 3.7-9.3 8.2-11.7 1.3-.8 0-3-1.4-2.2z"/><path fill="#231F20" d="M8.5 14.5c.1 1.3 0 2.6-.2 3.8-.1.7.2 1.3.9 1.5.6.2 1.4-.2 1.5-.9.2-1.5.3-3 .3-4.5-.1-1.6-2.6-1.6-2.5.1z"/><path fill="#231F20" d="M9.4 17.4c-2.3 0-8.7 0-8 3.8.2 1.2 1 3.5 2.3 3.8.7.2 1.6-.1 2.3-.2 1.1-.2 2.1-.4 3.2-.6 1.6-.3.9-2.7-.7-2.4-1 .2-2 .3-3 .5-.3 0-.8.2-1 .1-.1 0-.5-1.1-.5-1.3 0-.6.3-.5.9-.7l1.5-.3c1-.1 2.1-.2 3.1-.2 1.5 0 1.5-2.5-.1-2.5z"/><path fill="#231F20" d="M8 22.8c-1 3.3-2.7 8.7 1.2 11.1 1.7 1.1 5.2.5 7.1.4 3.9-.2 7.9-.5 11.8-.7 1.6-.1 1.6-2.6 0-2.5-4.2.2-8.3.5-12.5.7-2.4.1-5.2.4-6.1-2.3-.7-1.9.3-4.2.9-6.1.4-1.5-2-2.1-2.4-.6z"/><path fill="#231F20" d="M12.8 21.4c1.6 0 1.6-2.5 0-2.5s-1.7 2.5 0 2.5z"/><path fill="#231F20" d="M27.8 27.2c-.2 4.9-.8 10-.4 14.9.2 2.3 1.4 4.5 4.1 4.4 7.5-.5 4.2-14.3 4.6-18.7.1-1.6-2.4-1.6-2.5 0-.2 2.4 0 4.8.1 7.3.1 1.1.2 2.2.1 3.3 0 .8-.1 1.5-.2 2.3 0 1.7-1.2 2.2-3.6 1.5-.7-.9.1-5.4.2-6.6.1-2.8.2-5.6.3-8.3-.1-1.7-2.6-1.7-2.7-.1z"/><path fill="#231F20" d="M35.1 33.6h3.6c1.6.1 1.6-2.4 0-2.5-1.2 0-2.4-.1-3.6 0-1.6.1-1.6 2.6 0 2.5z"/><path fill="#231F20" d="M22.9 32.9c-.1 1.7-.2 3.4-.2 5-.1 1.2.2 4-.5 4.9-1.2 1.5-2.2-.5-2.2-1.6 0-.8.1-1.7.1-2.6.1-1.7.2-3.5.3-5.2.1-1.6-2.4-1.6-2.5 0-.2 3.6-2.4 12.8 3.7 12.7 2.4 0 2.9-1.8 3.2-3.9.5-3.1.4-6.3.6-9.4.1-1.5-2.4-1.5-2.5.1z"/><path fill="#231F20" d="M45.7 21.8c3.1.8 2.5 6.9 2.3 9.3-.1 1.6 2.4 1.6 2.5 0 .3-3.7.5-10.4-4.1-11.7-1.6-.5-2.3 1.9-.7 2.4z"/><g><path fill="#231F20" d="M37.9 27.1c-.4 4.4-.8 9.2-.1 13.6.2 1.4.3 3 1.5 4 2.9 2.4 5.4-.7 5.9-3.4.6-2.9.4-6 .6-8.9.2-3.7.8-7.8.4-11.6-.6-5.9-5.2-8.2-10.3-9.9-1.5-.5-2.2 1.9-.7 2.4 5.5 1.8 8.6 4.2 8.6 10.3 0 3.6-.4 7.1-.6 10.7-.1 1.3.3 3.4-.2 4.6.1 1.3-.8 1.9-2.7 1.8 0-.6-.1-1.3-.1-1.9-.9-3.3 0-8.2.3-11.6.1-1.7-2.5-1.7-2.6-.1z"/><path fill="#231F20" d="M36.5 11.7c-.3-1.4-.2-3.5-1.4-4.6-1-.9-3-1.4-4.3-1.6-3.6-.4-5.2 2.2-5.9 5.4-.4 1.6 2.1 2.2 2.4.7.5-2.1 1.2-4 3.8-3.5.8.2 2 .5 2.4 1.2.4.7.4 2.2.6 3 .3 1.7 2.7 1 2.4-.6z"/><path fill="#231F20" d="M25.4 10.4c-5.4 2.8-8.7 7.9-9.5 13.9.8-.1 1.6-.2 2.5-.3-1-2.8-.3-6.2-2.3-8.6-1.6-1.9-4-2.4-6.3-2-1.6.3-.9 2.7.7 2.4 5.4-1 4.4 5.6 5.6 8.8.5 1.4 2.3 1.1 2.5-.3.7-5.1 3.7-9.3 8.2-11.7 1.3-.8 0-3-1.4-2.2z"/><path fill="#231F20" d="M8.5 14.5c.1 1.3 0 2.6-.2 3.8-.1.7.2 1.3.9 1.5.6.2 1.4-.2 1.5-.9.2-1.5.3-3 .3-4.5-.1-1.6-2.6-1.6-2.5.1z"/><path fill="#231F20" d="M9.4 17.4c-2.3 0-8.7 0-8 3.8.2 1.2 1 3.5 2.3 3.8.7.2 1.6-.1 2.3-.2 1.1-.2 2.1-.4 3.2-.6 1.6-.3.9-2.7-.7-2.4-1 .2-2 .3-3 .5-.3 0-.8.2-1 .1-.1 0-.5-1.1-.5-1.3 0-.6.3-.5.9-.7l1.5-.3c1-.1 2.1-.2 3.1-.2 1.5 0 1.5-2.5-.1-2.5z"/><path fill="#231F20" d="M8 22.8c-1 3.3-2.7 8.7 1.2 11.1 1.7 1.1 5.2.5 7.1.4 3.9-.2 7.9-.5 11.8-.7 1.6-.1 1.6-2.6 0-2.5-4.2.2-8.3.5-12.5.7-2.4.1-5.2.4-6.1-2.3-.7-1.9.3-4.2.9-6.1.4-1.5-2-2.1-2.4-.6z"/><path fill="#231F20" d="M12.8 21.4c1.6 0 1.6-2.5 0-2.5s-1.7 2.5 0 2.5z"/><path fill="#231F20" d="M27.8 27.2c-.2 4.9-.8 10-.4 14.9.2 2.3 1.4 4.5 4.1 4.4 7.5-.5 4.2-14.3 4.6-18.7.1-1.6-2.4-1.6-2.5 0-.2 2.4 0 4.8.1 7.3.1 1.1.2 2.2.1 3.3 0 .8-.1 1.5-.2 2.3 0 1.7-1.2 2.2-3.6 1.5-.7-.9.1-5.4.2-6.6.1-2.8.2-5.6.3-8.3-.1-1.7-2.6-1.7-2.7-.1z"/><path fill="#231F20" d="M35.1 33.6h3.6c1.6.1 1.6-2.4 0-2.5-1.2 0-2.4-.1-3.6 0-1.6.1-1.6 2.6 0 2.5z"/><path fill="#231F20" d="M22.9 32.9c-.1 1.7-.2 3.4-.2 5-.1 1.2.2 4-.5 4.9-1.2 1.5-2.2-.5-2.2-1.6 0-.8.1-1.7.1-2.6.1-1.7.2-3.5.3-5.2.1-1.6-2.4-1.6-2.5 0-.2 3.6-2.4 12.8 3.7 12.7 2.4 0 2.9-1.8 3.2-3.9.5-3.1.4-6.3.6-9.4.1-1.5-2.4-1.5-2.5.1z"/><path fill="#231F20" d="M45.7 21.8c3.1.8 2.5 6.9 2.3 9.3-.1 1.6 2.4 1.6 2.5 0 .3-3.7.5-10.4-4.1-11.7-1.6-.5-2.3 1.9-.7 2.4z"/></g><metadata><rdf:RDF xmlns:rdf="http://www.w3.org/1999/02/22-rdf-syntax-ns#" xmlns:rdfs="http://www.w3.org/2000/01/rdf-schema#" xmlns:dc="http://purl.org/dc/elements/1.1/"><rdf:Description about="https://iconscout.com/legal#licenses" dc:title="camel,animal,pet,desert" dc:description="camel,animal,pet,desert" dc:publisher="Iconscout" dc:date="2017-11-11" dc:format="image/svg+xml" dc:language="en"><dc:creator><rdf:Bag><rdf:li>Dinosoft Labs</rdf:li></rdf:Bag></dc:creator></rdf:Description></rdf:RDF></metadata></svg>