<svg xmlns:rdf="http://www.w3.org/1999/02/22-rdf-syntax-ns#" xmlns="http://www.w3.org/2000/svg" height="100%" width="100%" version="1.1" xmlns:cc="http://creativecommons.org/ns#" xmlns:dc="http://purl.org/dc/elements/1.1/" viewBox="0 0 2048 2048">
 <path style="color:black;" d="m490 683q4 9 13 27 17 42 17 50-2 28-29 28-20 0-47-57-4-8-12-14-27-28 8-47 32-19 50 13zm590 371q70 92 69 205-4 33-38 33-46 0-36-34 3-55-11-91-23-57-51-85-15-30 18-44 32-15 49 16zm-261 488q-5 36 2 78-60-12-113-56-32-17-15-47 17-31 47-10 21 11 38 20t41 15zm937-1268q-1 0 2 54t3 118q1 125 0 258t-36 267q-34 128-75 218t-89 157q-72 108-196 183t-259 98q4-23 3-47t0-46q97-33 183-82t126-106q48-66 89-156t75-219q34-133 35-266t1-259q0-63-3-117t0-55h141zm-677 1423q157-10 291-81t228-182q66-78 124-188t94-233q40-143 50-300t11-292v-218t-155 0-404 0h-671q-9 0-9 49t7 79q4 24 19 68t50 107q16 32 76 93t138 143q45 46 70 116t22 127q-37-30-81-49-212-76-307-220-7-9-45-81-20-38-34-52-19-19-55-21-56-3-87 54-42-12-75-10-56 21-81 45-51 51-66 102t-16 110q0 84 104 222 122 159 130 242 0 36 7 81 6 31 25 60 13 20 17 27t17 23q9 12 15 18t15 18q11 13 28 30-53 146-43 301 199-71 334-223 33 113 130 183 80-56 127-148zm-675-836q29 20 6 48-24 23-53 4-61-40-65-105 1-33 39-31 36 3 35 37 8 32 38 47zm252 498q22 11 22 11 30 12 19 44-12 30-46 20-118-43-163-158-7-33 24-45 31-10 42 22 8 17 12 22 11-9 29-12 61-10 71 54 3 22-10 42z" fill-rule="nonzero" transform="translate(0,2048) scale(1,-1)" display="block" fill="#000"/>
 <g fill-rule="nonzero" fill="#fff">
  <path style="color:black;" d="m490 1365q4-9 13-27 17-42 17-50-2-28-29-28-20 0-47 57-4 8-12 14-27 28 8 47 32 19 50-13z" display="block"/>
  <path style="color:black;" d="m1080 994q70-92 69-205-4-33-38-33-46 0-36 34 3 55-11 91-23 57-51 85-15 30 18 44 32 15 49-16z" display="block"/>
  <path style="color:black;" d="m819 506q-5-36 2-78-60 12-113 56-32 17-15 47 17 31 47 10 21-11 38-20t41-15z" display="block"/>
  <path style="color:black;" d="m1756 1774q-1 0 2-54t3-118q1-125 0-258t-36-267q-34-128-75-218t-89-157q-72-108-196-183t-259-98q4 23 3 47t0 46q97 33 183 82t126 106q48 66 89 156t75 219q34 133 35 266t1 259q0 63-3 117t0 55h141z" display="block"/>
  <path style="color:black;" d="m404 1187q29-20 6-48-24-23-53-4-61 40-65 105 1 33 39 31 36-3 35-37 8-32 38-47z" display="block"/>
  <path style="color:black;" d="m656 689q22-11 22-11 30-12 19-44-12-30-46-20-118 43-163 158-7 33 24 45 31 10 42-22 8-17 12-22 11 9 29 12 61 10 71-54 3-22-10-42z" display="block"/>
 </g>
</svg>
