<svg xmlns:rdf="http://www.w3.org/1999/02/22-rdf-syntax-ns#" xmlns="http://www.w3.org/2000/svg" height="100%" width="100%" version="1.1" xmlns:cc="http://creativecommons.org/ns#" xmlns:dc="http://purl.org/dc/elements/1.1/" viewBox="0 0 2048 2048">
 <path style="color:black;" d="m1756 1774q-1 0 2-54t3-118q1-125 0-258t-36-267q-34-128-75-218t-89-157q-72-108-196-183t-259-98q9 49 8 96-2 36-34 36-37 0-33-36 3-132-94-226-76 80-82 186-2 35-36 31-32-1-32-37 0 0 2-8-41 13-86 37-29 20-47-10t16-47q43-22 65-33-86-88-196-142 12 139 76 263 17 26-8 46-28 22-47-7-7-10-20-36-21 21-28 31-7 9-24 40t-26 51q-9 25-8 40t3 35q-9 59-40 111t-81 127q-47 72-72 108t-38 92q-9 34 0 82t39 76q46 47 89 43 14 0 37-11t37-42q26-57 43-57 25 0 27 28 0 6-16 50-9 20-24 42-19 26-17 22 16 57 53 20 11-11 25-41t44-81q35-59 75-96t71-60q18-13 44-30t70-35q35-14 77-34t76-53q46-45 71-111 13-37 10-91-9-34 34-34 32 0 36 33 0 113-64 206 21 64 11 140-9 61-42 130t-136 155q-207 172-196 354 0 0 170 0t321 0h547z" fill-rule="nonzero" display="block" fill="#fff"/>
 <path style="color:black;" d="m697 1359q13-20 10-42-10-64-71-54-18 3-29 12-4-5-12-22-11-32-42-22-31 12-24 45 45 115 163 158 34 10 45-20 12-32-18-44-6-3-11-5t-11-6zm-297-477q-29-18-35-48 1-33-31-36-35-4-36 30 4 66 59 105 26 21 48-4 22-27-5-47zm679 815q157-10 291-81t228-182q66-78 124-188t94-233q40-143 50-300t11-292v-218t-155 0-404 0h-671q-9 0-9 49t7 79q4 24 19 68t50 107q16 32 76 93t138 143q45 46 70 116t22 127q-37-30-81-49-212-76-307-220-7-9-45-81-20-38-34-52-19-19-55-21-56-3-87 54-42-12-75-10-56 21-81 45-51 51-66 102t-16 110q0 84 104 222 122 159 130 242 0 36 7 81 6 31 25 60 13 20 17 27t17 23q9 12 15 18t15 18q11 13 28 30-53 146-43 301 199-71 334-223 33 113 130 183 80-56 127-148zm677-1423q-1 0 2 54t3 118q1 125 0 258t-36 267q-34 128-75 218t-89 157q-72 108-196 183t-259 98q9-49 8-96-2-36-34-36-37 0-33 36 3 132-94 226-76-80-82-186-2-35-36-31-32 1-32 37 0 0 2 8-41-13-86-37-29-20-47 10t16 47q43 22 65 33-86 88-196 142 12-139 76-263 17-26-8-46-28-22-47 7-7 10-20 36-21-21-28-31-7-9-24-40t-26-51q-9-25-8-40t3-35q-9-59-40-111t-81-127q-47-72-72-108t-38-92q-9-34 0-82t39-76q46-47 89-43 14 0 37 11t37 42q26 57 43 57 25 0 27-28 0-6-16-50-9-20-24-42-19-26-17-22 16-57 53-20 11 11 25 41t44 81q35 59 75 96t71 60q18 13 44 30t70 35q35 14 77 34t76 53q46 45 71 111 13 37 10 91-9 34 34 34 32 0 36-33 0-113-64-206 21-64 11-140-9-61-42-130t-136-155q-207-172-196-354 0 0 170 0t321 0h547z" fill-rule="nonzero" transform="translate(0,2048) scale(1,-1)" display="block" fill="#000"/>
</svg>
