<svg xmlns:rdf="http://www.w3.org/1999/02/22-rdf-syntax-ns#" xmlns="http://www.w3.org/2000/svg" height="100%" width="100%" version="1.1" xmlns:cc="http://creativecommons.org/ns#" xmlns:dc="http://purl.org/dc/elements/1.1/" viewBox="0 0 2048 2048">
 <path style="color:black;" d="m1161 1706h170v137h274v-375l-222-171v-478l170-170v-205h153v-239h-1365v239h153v205l171 170v478l-222 171v375h273v-137h171v137h274v-137zm478-1330h-1230v-103h1230v103zm-155 204h-920v-136h920v136zm-170 717h-580v-478h580v478zm222 239v239h-137v-137h-308v137h-135v-137h-307v137h-137v-239h1024zm-77-887l-103 102h-663l-105-102h871zm-110 716l127 103h-904l128-103h649z" fill-rule="nonzero" transform="translate(0,2048) scale(1,-1)" display="block" fill="#000"/>
 <g fill-rule="nonzero" fill="#fff">
  <path style="color:black;" d="m1639 1672h-1230v103h1230v-103z" display="block"/>
  <path style="color:black;" d="m1484 1468h-920v136h920v-136z" display="block"/>
  <path style="color:black;" d="m1314 751h-580v478h580v-478z" display="block"/>
  <path style="color:black;" d="m1536 512v-239h-137v137h-308v-137h-135v137h-307v-137h-137v239h1024z" display="block"/>
 </g>
 <path style="color:black;" d="m1459 1399-103-102h-663l-105 102h871z" fill-rule="nonzero" display="block" fill="#fff"/>
 <path style="color:black;" d="m1349 683 127-103h-904l128 103h649z" fill-rule="nonzero" display="block" fill="#fff"/>
</svg>
