<?xml version="1.0" encoding="UTF-8" standalone="no"?>
<svg
   xmlns:dc="http://purl.org/dc/elements/1.1/"
   xmlns:cc="http://creativecommons.org/ns#"
   xmlns:rdf="http://www.w3.org/1999/02/22-rdf-syntax-ns#"
   xmlns:svg="http://www.w3.org/2000/svg"
   xmlns="http://www.w3.org/2000/svg"
   xmlns:sodipodi="http://sodipodi.sourceforge.net/DTD/sodipodi-0.dtd"
   xmlns:inkscape="http://www.inkscape.org/namespaces/inkscape"
   height="100%"
   width="100%"
   version="1.1"
   viewBox="0 0 2048 2048"
   id="svg12"
   sodipodi:docname="bg.svg"
   inkscape:version="0.92.4 5da689c313, 2019-01-14">
  <metadata
     id="metadata18">
    <rdf:RDF>
      <cc:Work
         rdf:about="">
        <dc:format>image/svg+xml</dc:format>
        <dc:type
           rdf:resource="http://purl.org/dc/dcmitype/StillImage" />
      </cc:Work>
    </rdf:RDF>
  </metadata>
  <defs
     id="defs16" />
  <sodipodi:namedview
     pagecolor="#ffffff"
     bordercolor="#666666"
     borderopacity="1"
     objecttolerance="10"
     gridtolerance="10"
     guidetolerance="10"
     inkscape:pageopacity="0"
     inkscape:pageshadow="2"
     inkscape:window-width="960"
     inkscape:window-height="1060"
     id="namedview14"
     showgrid="false"
     inkscape:zoom="0.11523438"
     inkscape:cx="1041.3559"
     inkscape:cy="1024"
     inkscape:window-x="0"
     inkscape:window-y="20"
     inkscape:window-maximized="0"
     inkscape:current-layer="svg12" />
  <path
     style="color:#000000;display:block;fill:#000000;fill-rule:nonzero"
     d="m 1588,765 q -83,30 -233,49 -150,19 -333,20 -178,0 -326,-18 -148,-18 -233,-49 l 50,-91 q 84,25 218,36 134,11 293,11 159,0 294,-11 135,-11 219,-37 z m 226,668 q -57,0 -97,39 -40,39 -40,97 0,56 40,96 40,40 97,41 56,0 96,-40 40,-40 40,-97 0,-57 -40,-96 -40,-39 -96,-40 z m -1578,0 q -57,0 -96,39 -39,39 -40,97 0,56 39,96 39,40 97,41 57,0 97,-40 40,-40 40,-97 0,-57 -40,-96 -40,-39 -97,-40 z m 1208,110 q -57,0 -96,39 -39,39 -40,97 0,56 39,96 39,40 97,40 57,0 97,-40 40,-40 40,-96 0,-57 -40,-96 -40,-39 -97,-40 z m -840,0 q -57,0 -97,39 -40,39 -40,97 0,56 40,96 40,40 97,40 56,0 96,-40 40,-40 40,-96 0,-57 -40,-96 -40,-39 -96,-40 z M 1640,255 q -49,-43 -220,-72 -171,-29 -394,-29 -227,0 -399,30 -172,30 -217,75 l 63,240 -28,157 -88,153 -85,622 49,19 274,-462 6,550 68,12 209,-553 112,595 h 69 l 112,-593 207,551 69,-12 6,-550 275,463 47,-22 -83,-619 -89,-153 -28,-159 z m -96,32 -30,118 q -195,45 -490,45 -292,0 -488,-45 L 504,286 q 190,58 521,58 159,0 295,-16 136,-16 224,-41 z m -26,299 q -184,51 -490,51 -308,0 -496,-52 l 15,-101 q 189,49 481,49 291,0 474,-48 z m -494,1007 q -57,0 -96,40 -39,40 -40,97 0,56 39,96 39,40 97,40 56,0 96,-40 40,-40 41,-96 0,-57 -40,-97 -40,-40 -97,-40 z"
     display="block"
     id="path2"
     inkscape:connector-curvature="0" />
  <g
     id="g10"
     transform="matrix(1,0,0,-1,0,2020)"
     style="fill:#ffffff;fill-rule:nonzero">
    <path
       style="color:#000000;display:block"
       d="m 1588,1255 q -83,-30 -233,-49 -150,-19 -333,-20 -178,0 -326,18 -148,18 -233,49 l 50,91 q 84,-25 218,-36 134,-11 293,-11 159,0 294,11 135,11 219,37 z"
       display="block"
       id="path4"
       inkscape:connector-curvature="0" />
    <path
       style="color:#000000;display:block"
       d="m 1544,1733 -30,-118 q -195,-45 -490,-45 -292,0 -488,45 l -32,119 q 190,-58 521,-58 159,0 295,16 136,16 224,41 z"
       display="block"
       id="path6"
       inkscape:connector-curvature="0" />
    <path
       style="color:#000000;display:block"
       d="m 1518,1434 q -184,-51 -490,-51 -308,0 -496,52 l 15,101 q 189,-49 481,-49 291,0 474,48 z"
       display="block"
       id="path8"
       inkscape:connector-curvature="0" />
  </g>
</svg>
