<?xml version="1.0" encoding="UTF-8" standalone="no"?>
<svg
   xmlns:dc="http://purl.org/dc/elements/1.1/"
   xmlns:cc="http://creativecommons.org/ns#"
   xmlns:rdf="http://www.w3.org/1999/02/22-rdf-syntax-ns#"
   xmlns:svg="http://www.w3.org/2000/svg"
   xmlns="http://www.w3.org/2000/svg"
   xmlns:sodipodi="http://sodipodi.sourceforge.net/DTD/sodipodi-0.dtd"
   xmlns:inkscape="http://www.inkscape.org/namespaces/inkscape"
   version="1.1"
   id="Capa_1"
   x="0px"
   y="0px"
   viewBox="0 0 434.136 434.136"
   style="enable-background:new 0 0 434.136 434.136;"
   xml:space="preserve"
   sodipodi:docname="ba.svg"
   inkscape:version="1.0.1 (3bc2e813f5, 2020-09-07, custom)"><metadata
   id="metadata39"><rdf:RDF><cc:Work
       rdf:about=""><dc:format>image/svg+xml</dc:format><dc:type
         rdf:resource="http://purl.org/dc/dcmitype/StillImage" /><dc:title /></cc:Work></rdf:RDF></metadata><defs
   id="defs37" /><sodipodi:namedview
   pagecolor="#ffffff"
   bordercolor="#666666"
   borderopacity="1"
   objecttolerance="10"
   gridtolerance="10"
   guidetolerance="10"
   inkscape:pageopacity="0"
   inkscape:pageshadow="2"
   inkscape:window-width="1920"
   inkscape:window-height="1060"
   id="namedview35"
   showgrid="false"
   inkscape:zoom="2.0339249"
   inkscape:cx="217.06799"
   inkscape:cy="216.57633"
   inkscape:window-x="0"
   inkscape:window-y="20"
   inkscape:window-maximized="0"
   inkscape:current-layer="Capa_1"
   inkscape:document-rotation="0" />
<path
   d="m 326.84958,110.75221 c 21.0888,6.4936 44.4056,1.1744 60.4088,-14.826402 3.124,-3.124 3.124,-8.1896 0,-11.3136 -3.124,-3.124 -8.1888,-3.1248 -11.3136,0 -14.3024,14.3016 -36.6168,16.963202 -54.2648,6.472 -31.7144,-18.8544 -69.4736,-26.8336 -106.3176,-22.464 -34.8152,4.1272 -66.62,18.5112 -92.56,41.747202 l -13.0592,-13.058402 c 3.8544,-6.7696 4.8648,-14.7944 2.644,-22.612 -2.8248,-9.9424 -10.4472,-17.5648 -20.389597,-20.3896 l -37.2776,-10.5888 c -2.7904,-0.7928 -5.7904,-0.0128 -7.8424,2.0384 -2.0512,2.0512 -2.8312,5.052 -2.0384,7.8424 l 10.5888,37.2784 c 2.8248,9.942402 10.4472,17.564802 20.3896,20.389602 2.7456,0.78 5.5168,1.1616 8.2504,1.1616 5.0488,0 9.9648,-1.3104 14.3568,-3.8096 l 12.959197,12.9592 c -24.493597,26.3584 -39.631997,59.0344 -43.884797,94.9056 -4.368,36.844 3.6096,74.6024 22.464,106.3184 10.491197,17.648 7.8296,39.9624 -6.472,54.2648 -3.124,3.124 -3.124,8.1896 0,11.3136 1.5624,1.5624 3.6096,2.3432 5.6568,2.3432 2.0472,0 4.0952,-0.7816 5.6568,-2.3432 16.000797,-16.0016 21.320797,-39.32 14.826397,-60.4088 l 104.0728,-104.0728 51.1848,51.1848 2.6072,33.9024 c 0.1472,1.904 0.9696,3.6928 2.3192,5.0432 l 45.3584,45.3584 c 1.5256,1.5256 3.5704,2.3432 5.6576,2.3432 0.8696,0 1.7464,-0.1416 2.5952,-0.4336 2.8896,-0.992 4.9632,-3.5424 5.3424,-6.5744 l 3.0088,-24.0648 24.0648,-3.008 c 3.032,-0.3792 5.5832,-2.452 6.5752,-5.3416 0.9912,-2.8904 0.2504,-6.0928 -1.9104,-8.2528 l -45.3584,-45.3584 c -1.3504,-1.3504 -3.1392,-2.1728 -5.044,-2.3192 l -33.9032,-2.608 -51.1848,-51.1848 z m -11.9272,225.7552 -31.7,-31.7 -0.9496,-12.3408 33.916,33.9152 z m 22.7056,-22.7048 -10.1256,1.2656 -33.9152,-33.9144 12.3408,0.9488 z m -26.2544,-210.2016 -97.6696,97.6688 -79.5688,-79.5688 c 48.9592,-43.241602 120.184,-50.799202 177.2384,-18.1 z M 80.189583,95.876208 c -4.5688,-1.2984 -8.072,-4.8008 -9.3704,-9.3704 l -6.668,-23.4752 23.4752,6.668 c 4.5688,1.2984 8.072,4.8008 9.3704,9.3704 1.3672,4.8144 0.0712,9.8008 -3.4672,13.3392 -3.5384,3.5384 -8.5256,4.8352 -13.34,3.468 z M 102.47918,312.49461 c -33.227197,-57.9784 -24.886397,-130.5872 20.2256,-179.596 l 79.6856,79.6856 z"
   id="path2"
   style="stroke-width:0.8" />
<g
   id="g4"
   transform="matrix(0.8,0,0,0.8,43.413583,43.413808)">
</g>
<g
   id="g6"
   transform="matrix(0.8,0,0,0.8,43.413583,43.413808)">
</g>
<g
   id="g8"
   transform="matrix(0.8,0,0,0.8,43.413583,43.413808)">
</g>
<g
   id="g10"
   transform="matrix(0.8,0,0,0.8,43.413583,43.413808)">
</g>
<g
   id="g12"
   transform="matrix(0.8,0,0,0.8,43.413583,43.413808)">
</g>
<g
   id="g14"
   transform="matrix(0.8,0,0,0.8,43.413583,43.413808)">
</g>
<g
   id="g16"
   transform="matrix(0.8,0,0,0.8,43.413583,43.413808)">
</g>
<g
   id="g18"
   transform="matrix(0.8,0,0,0.8,43.413583,43.413808)">
</g>
<g
   id="g20"
   transform="matrix(0.8,0,0,0.8,43.413583,43.413808)">
</g>
<g
   id="g22"
   transform="matrix(0.8,0,0,0.8,43.413583,43.413808)">
</g>
<g
   id="g24"
   transform="matrix(0.8,0,0,0.8,43.413583,43.413808)">
</g>
<g
   id="g26"
   transform="matrix(0.8,0,0,0.8,43.413583,43.413808)">
</g>
<g
   id="g28"
   transform="matrix(0.8,0,0,0.8,43.413583,43.413808)">
</g>
<g
   id="g30"
   transform="matrix(0.8,0,0,0.8,43.413583,43.413808)">
</g>
<g
   id="g32"
   transform="matrix(0.8,0,0,0.8,43.413583,43.413808)">
</g>
<path
   style="fill:#000000;stroke:#000000;stroke-width:0.393328"
   d="m 80.583097,95.68966 c -2.89528,-0.769584 -5.928473,-2.914707 -7.635326,-5.399829 -1.167169,-1.699362 -1.98116,-4.087707 -4.91562,-14.423015 -1.93425,-6.812524 -3.485774,-12.41188 -3.447832,-12.443013 0.316301,-0.259539 24.77434,7.16044 26.032012,7.897485 2.21435,1.297695 4.406032,3.804964 5.593682,6.399136 1.179607,2.5766 1.33785,6.794955 0.355261,9.470284 -1.505231,4.098342 -5.202566,7.423563 -9.476567,8.522808 -2.824469,0.726436 -3.69491,0.723244 -6.50561,-0.02386 z"
   id="path41" /><path
   style="fill:#000000;stroke:#000000;stroke-width:0.393328"
   d="M 99.145173,305.66538 C 90.75563,289.21457 85.673382,272.3218 83.258819,252.86106 c -0.799304,-6.44217 -0.675172,-27.12607 0.204184,-34.02288 3.736263,-29.30359 14.56003,-55.08584 32.694757,-77.87898 1.72117,-2.1633 3.9241,-4.7842 4.89541,-5.82422 l 1.76601,-1.89092 39.65124,39.64978 39.65124,39.64978 -49.65718,49.65833 c -27.31145,27.31209 -49.77032,49.65835 -49.90861,49.65835 -0.13828,0 -1.6731,-2.78772 -3.410697,-6.19492 z"
   id="path43" /><path
   style="fill:#000000;stroke:#000000;stroke-width:0.393328"
   d="m 174.07131,161.28838 -39.65204,-39.65351 4.67278,-3.74006 c 9.24566,-7.40017 16.95585,-12.43031 26.84326,-17.51258 16.12369,-8.287798 31.84786,-13.042422 52.70598,-15.93706 5.961,-0.827252 28.30417,-0.704806 35.00621,0.191842 15.37094,2.056436 28.8416,5.744215 42.46074,11.624208 6.22959,2.689592 14.57185,6.95588 14.57185,7.45214 0,0.1508 -21.81527,22.08891 -48.47836,48.75135 l -48.47837,48.47717 z"
   id="path45" /><path
   style="fill:#000000;stroke:#000000;stroke-width:0.393328"
   d="m 299.11946,320.16749 -15.69059,-15.699 -0.35634,-4.2536 c -0.68143,-8.13413 -2.43362,-9.16663 16.36992,9.64626 l 16.49199,16.50021 -0.5622,4.75257 -0.56221,4.75256 z"
   id="path47" /><path
   style="fill:#000000;stroke:#000000;stroke-width:0.393328"
   d="m 310.98969,298.16951 -16.63272,-16.67337 4.12994,0.25038 c 7.87777,0.4776 5.34741,-1.31914 22.97996,16.31754 l 15.62868,15.63235 -4.73657,0.57325 -4.73658,0.57324 z"
   id="path53" /></svg>
