<?xml version="1.0" encoding="UTF-8" standalone="no"?>
<svg
   xmlns:dc="http://purl.org/dc/elements/1.1/"
   xmlns:cc="http://creativecommons.org/ns#"
   xmlns:rdf="http://www.w3.org/1999/02/22-rdf-syntax-ns#"
   xmlns:svg="http://www.w3.org/2000/svg"
   xmlns="http://www.w3.org/2000/svg"
   xmlns:sodipodi="http://sodipodi.sourceforge.net/DTD/sodipodi-0.dtd"
   xmlns:inkscape="http://www.inkscape.org/namespaces/inkscape"
   height="512"
   viewBox="0 0 56 56"
   width="512"
   version="1.1"
   id="svg13"
   sodipodi:docname="bl.svg"
   inkscape:version="1.0.1 (3bc2e813f5, 2020-09-07, custom)">
  <metadata
     id="metadata19">
    <rdf:RDF>
      <cc:Work
         rdf:about="">
        <dc:format>image/svg+xml</dc:format>
        <dc:type
           rdf:resource="http://purl.org/dc/dcmitype/StillImage" />
      </cc:Work>
    </rdf:RDF>
  </metadata>
  <defs
     id="defs17" />
  <sodipodi:namedview
     pagecolor="#ffffff"
     bordercolor="#666666"
     borderopacity="1"
     objecttolerance="10"
     gridtolerance="10"
     guidetolerance="10"
     inkscape:pageopacity="0"
     inkscape:pageshadow="2"
     inkscape:window-width="1920"
     inkscape:window-height="1060"
     id="namedview15"
     showgrid="false"
     inkscape:zoom="1.7246094"
     inkscape:cx="256"
     inkscape:cy="256"
     inkscape:window-x="0"
     inkscape:window-y="20"
     inkscape:window-maximized="0"
     inkscape:current-layer="svg13" />
  <g
     id="010---Frog"
     transform="matrix(0.8,0,0,0.8,4.7993225,5.6)">
    <ellipse
       id="Oval"
       cx="20.5"
       cy="6"
       rx="1.5"
       ry="2" />
    <ellipse
       id="ellipse3"
       cx="37.5"
       cy="6"
       rx="1.5"
       ry="2" />
    <path
       id="Shape"
       d="m 29,30 c 10.477,0 19,-5.832 19,-13 0.0026,-1.444691 -1.028151,-2.684604 -2.449,-2.946 L 45.532,14.048 H 45.52 C 45.348773,14.014198 45.174521,13.998113 45,14 c -1.656854,0 -3,1.343146 -3,3 0,0.552285 -0.447715,1 -1,1 -0.552285,0 -1,-0.447715 -1,-1 0.0075,-2.506247 1.872859,-4.618088 4.359,-4.935 C 44.006731,11.161017 43.449039,10.351354 42.73,9.7 42.40212,9.4123323 42.298522,8.9453314 42.474,8.546 42.824437,7.7431334 43.003584,6.8760068 43,6 43.12826,2.827944 40.671218,0.14753425 37.5,0 35.264009,0.05296659 33.281962,1.4525697 32.484,3.542 32.314324,3.9593818 31.884905,4.2102184 31.438,4.153 29.819003,3.9500403 28.180997,3.9500403 26.562,4.153 26.115608,4.2077148 25.687605,3.9577055 25.516,3.542 24.718038,1.4525697 22.735991,0.05296659 20.5,0 17.328782,0.14753425 14.87174,2.827944 15,6 c -0.0039,0.8766801 0.175291,1.7445164 0.526,2.548 0.174491,0.3987898 0.07097,0.8646453 -0.256,1.152 -0.718895,0.650686 -1.276589,1.459668 -1.629,2.363 2.486894,0.317011 4.352496,2.429991 4.359,4.937 0,0.552285 -0.447715,1 -1,1 -0.552285,0 -1,-0.447715 -1,-1 0,-1.656854 -1.343146,-3 -3,-3 -0.174487,-0.0022 -0.348738,0.01353 -0.52,0.047 H 12.469 L 12.45,14.054 C 11.028753,14.314969 9.9975034,15.554994 10,17 c 0,7.168 8.523,13 19,13 z M 37.5,2 c 2.065628,0.1490338 3.626483,1.9328688 3.5,4 0.126483,2.0671312 -1.434372,3.8509662 -3.5,4 C 35.434372,9.8509663 33.873516,8.0671312 34,6 33.873516,3.9328688 35.434372,2.1490338 37.5,2 Z M 17,6 C 16.873516,3.9328688 18.434372,2.1490338 20.5,2 22.565628,2.1490338 24.126483,3.9328688 24,6 24.126483,8.0671312 22.565628,9.8509662 20.5,10 18.434372,9.8509663 16.873516,8.0671312 17,6 Z m 0,15 h 24 c 0.552285,0 1,0.447715 1,1 0,0.552285 -0.447715,1 -1,1 H 17 c -0.552285,0 -1,-0.447715 -1,-1 0,-0.552285 0.447715,-1 1,-1 z" />
    <path
       id="path6"
       d="m 39,42 v -5 c -0.001,-2.214142 -0.739971,-4.364789 -2.1,-6.112 -5.164354,1.482686 -10.641646,1.482686 -15.806,0 C 19.736119,32.635988 18.999322,34.786563 19,37 v 5 c 0,5.522847 4.477152,10 10,10 5.522847,0 10,-4.477153 10,-10 z M 22.2,37.6 C 22.041612,37.386965 21.97443,37.119694 22.013258,36.857086 22.052087,36.594477 22.193739,36.358084 22.407,36.2 c 3.909481,-2.929335 9.282519,-2.929335 13.192,0 0.426224,0.336012 0.506615,0.950668 0.181142,1.384994 C 35.45467,38.019319 34.842166,38.114738 34.4,37.8 c -3.201629,-2.404002 -7.606372,-2.404002 -10.808,0 -0.440434,0.32595 -1.061152,0.236766 -1.392,-0.2 z" />
    <path
       id="path8"
       d="M 40.855,35.212 C 40.94804,35.803528 40.99651,36.40121 41,37 v 0.891 c 0.972,-1.13 2,-2.142 2.532,-2.662 L 43.764,35 c 3.188,-3.172 6.337,-4.649 8.064,-4.951 0.354294,-0.06693 0.717182,0.06206 0.949759,0.337578 0.232577,0.275519 0.298825,0.654908 0.173387,0.992944 -0.125438,0.338036 -0.423138,0.58237 -0.779146,0.639478 -1.16,0.2 -3.941,1.357 -7,4.4 l -0.245,0.242 C 43.440822,38.035614 42.122644,39.581376 41,41.266 V 42 c -6.8e-4,2.914816 -1.067748,5.728673 -3,7.911 V 52 c 0,2.209139 1.790861,4 4,4 h 11 c 0.279456,-0.002 0.545586,-0.11973 0.735078,-0.325138 C 53.92457,55.469453 54.020483,55.194712 54,54.916 53.916544,54.372952 53.439017,53.978885 52.89,54 H 47 c -0.552285,0 -1,-0.447715 -1,-1 0,-0.552285 0.447715,-1 1,-1 h 9 c 0.260922,0.0026 0.511604,-0.101402 0.694,-0.288 0.217354,-0.206575 0.32793,-0.501444 0.3,-0.8 C 56.908066,50.372592 56.4339,49.981598 55.888,50 H 46 c -1.324923,0.01344 -2.484727,-0.887064 -2.8,-2.174 -0.359756,-1.295963 0.198178,-2.671709 1.359,-3.351 1.772096,-1.062917 3.404124,-2.343545 4.858,-3.812 4.992,-5 6.615,-10.353 4.948,-12.027 -1.667,-1.674 -7.022,-0.041 -12.025,4.952 -0.558,0.554 -1.04,1.096 -1.485,1.624 z" />
    <path
       id="path10"
       d="m 2,52 h 9 c 0.552285,0 1,0.447715 1,1 0,0.552285 -0.447715,1 -1,1 H 5.11 c -0.5418333,-0.01716 -1.0124305,0.370015 -1.1,0.905 -0.033332,0.292786 0.0708,0.584503 0.282,0.79 C 4.4762183,55.889413 4.7321706,55.999675 5,56 h 11 c 2.209139,0 4,-1.790861 4,-4 V 49.911 C 18.067748,47.728673 17.00068,44.914816 17,42 V 41.266 C 15.876237,39.580455 14.556704,38.034006 13.069,36.659 L 12.822,36.416 C 9.769,33.377 6.988,32.223 5.828,32.016 5.2906084,31.914488 4.9344452,31.400104 5.0285202,30.861361 5.1225951,30.322618 5.6320082,29.95938 6.172,30.046 c 1.727,0.3 4.876,1.779 8.062,4.95 l 0.234,0.229 C 15,35.745 16.028,36.757 17,37.887 V 37 c 0.0035,-0.59879 0.05196,-1.196472 0.145,-1.788 -0.44,-0.528 -0.927,-1.07 -1.482,-1.625 -5,-4.991 -10.35,-6.614 -12.028,-4.948 -1.663,1.671 -0.035,7.022 4.953,12.025 1.453604,1.468061 3.085294,2.748351 4.857,3.811 1.159299,0.680495 1.715482,2.055971 1.355,3.351 -0.304438,1.268302 -1.4347,2.165414 -2.739,2.174 H 2.112 C 1.565479,49.978155 1.0884505,50.367242 1,50.907 c -0.029854,0.291671 0.074235,0.581135 0.283,0.787 C 1.4692619,51.890962 1.7289198,52.001779 2,52 Z" />
  </g>
</svg>
