<?xml version="1.0" encoding="UTF-8" standalone="no"?>
<svg
   xmlns:dc="http://purl.org/dc/elements/1.1/"
   xmlns:cc="http://creativecommons.org/ns#"
   xmlns:rdf="http://www.w3.org/1999/02/22-rdf-syntax-ns#"
   xmlns:svg="http://www.w3.org/2000/svg"
   xmlns="http://www.w3.org/2000/svg"
   xmlns:sodipodi="http://sodipodi.sourceforge.net/DTD/sodipodi-0.dtd"
   xmlns:inkscape="http://www.inkscape.org/namespaces/inkscape"
   height="512"
   viewBox="0 0 60 60"
   width="512"
   version="1.1"
   id="svg12"
   sodipodi:docname="wl.svg"
   inkscape:version="1.0.1 (3bc2e813f5, 2020-09-07, custom)">
  <metadata
     id="metadata18">
    <rdf:RDF>
      <cc:Work
         rdf:about="">
        <dc:format>image/svg+xml</dc:format>
        <dc:type
           rdf:resource="http://purl.org/dc/dcmitype/StillImage" />
      </cc:Work>
    </rdf:RDF>
  </metadata>
  <defs
     id="defs16" />
  <sodipodi:namedview
     pagecolor="#ffffff"
     bordercolor="#666666"
     borderopacity="1"
     objecttolerance="10"
     gridtolerance="10"
     guidetolerance="10"
     inkscape:pageopacity="0"
     inkscape:pageshadow="2"
     inkscape:window-width="1920"
     inkscape:window-height="1060"
     id="namedview14"
     showgrid="false"
     inkscape:zoom="1.7246094"
     inkscape:cx="256"
     inkscape:cy="255.42016"
     inkscape:window-x="0"
     inkscape:window-y="20"
     inkscape:window-maximized="0"
     inkscape:current-layer="svg12" />
  <g
     id="010---Frog"
     transform="matrix(0.8,0,0,0.8,6.0000003,6)">
    <path
       id="Shape"
       d="M 21.5,12 C 23.565628,11.850966 25.126483,10.067131 25,8 25.126483,5.9328688 23.565628,4.1490337 21.5,4 19.434372,4.1490337 17.873516,5.9328688 18,8 c -0.126484,2.067131 1.434372,3.850966 3.5,4 z m 0,-6 C 22.313,6 23,6.916 23,8 23,9.084 22.313,10 21.5,10 20.687,10 20,9.084 20,8 20,6.916 20.687,6 21.5,6 Z" />
    <path
       id="path3"
       d="M 38.5,12 C 40.565628,11.850966 42.126483,10.067131 42,8 42.126483,5.9328688 40.565628,4.1490337 38.5,4 36.434372,4.1490337 34.873516,5.9328688 35,8 c -0.126484,2.067131 1.434372,3.850966 3.5,4 z m 0,-6 C 39.313,6 40,6.916 40,8 40,9.084 39.313,10 38.5,10 37.687,10 37,9.084 37,8 37,6.916 37.687,6 38.5,6 Z" />
    <path
       id="path5"
       d="m 43,24 c 0,-0.552285 -0.447715,-1 -1,-1 H 18 c -0.552285,0 -1,0.447715 -1,1 0,0.552285 0.447715,1 1,1 h 24 c 0.552285,0 1,-0.447715 1,-1 z" />
    <path
       id="path7"
       d="m 3,56 h 0.179 c -0.08662,0.234746 -0.1420924,0.479834 -0.165,0.729 -0.072973,0.838311 0.2083017,1.668893 0.7756279,2.290368 C 4.3569542,59.640843 5.1585265,59.996461 6,60 h 11 c 3.312338,-0.0033 5.996693,-2.687662 6,-6 v -0.273 c 4.174595,3.030732 9.825405,3.030732 14,0 V 54 c 0.0033,3.312338 2.687662,5.996693 6,6 h 11 c 0.841473,-0.0035 1.643046,-0.359157 2.210372,-0.980632 C 56.777698,58.397893 57.058973,57.567311 56.986,56.729 56.959646,56.479114 56.899775,56.233912 56.808,56 H 57 c 0.839927,-0.0032 1.640308,-0.357231 2.207743,-0.976509 C 59.775178,54.404212 60.058047,53.576007 59.988,52.739 59.814527,51.163749 58.472623,49.978112 56.888,50 h -9.919 c -0.40666,-6.53e-4 -0.757005,-0.286691 -0.839,-0.685 -0.131424,-0.427826 0.04922,-0.889806 0.436,-1.115 1.919321,-1.149161 3.68709,-2.534283 5.262,-4.123 5.541,-5.552 7.716,-12.077 4.947,-14.855 -2.769,-2.778 -9.3,-0.593 -14.852,4.95 -0.233,0.233 -0.444,0.463 -0.66,0.694 C 40.917754,33.931824 40.456831,33.044582 39.891,32.225 46.5,29.694 51,24.717 51,19 51.001617,16.833068 49.605612,14.912349 47.544,14.245 47.165808,12.924116 46.487495,11.708492 45.562,10.693 45.854627,9.8254103 46.002601,8.9156067 46,8 46.128619,3.7233619 42.776036,0.14727404 38.5,0 35.727217,0.03744579 33.205359,1.6138479 31.957,4.09 30.655093,3.9700004 29.344907,3.9700004 28.043,4.09 26.794641,1.6138479 24.272783,0.03744579 21.5,0 17.223964,0.14727404 13.871381,3.7233619 14,8 c -0.0026,0.9156067 0.145373,1.8254103 0.438,2.693 -0.925495,1.015492 -1.603808,2.231116 -1.982,3.552 C 10.394388,14.912349 8.9983829,16.833068 9,19 c 0,5.717 4.5,10.694 11.109,13.225 -0.565831,0.819582 -1.026754,1.706824 -1.372,2.641 C 18.521,34.635 18.31,34.405 18.077,34.172 12.526,28.628 6.006,26.455 3.221,29.225 0.456,32 2.631,38.525 8.173,44.077 c 1.5743616,1.588918 3.341827,2.974065 5.261,4.123 0.386776,0.225194 0.567424,0.687174 0.436,1.115 -0.08017,0.395286 -0.425687,0.680783 -0.829,0.685 H 3.112 c -1.5842792,-0.02194 -2.92604992,1.163147 -3.1,2.738 -0.07003256,0.8371 0.21281046,1.665399 0.78021221,2.284831 C 1.359614,55.642264 2.1599826,55.996508 3,56 Z M 43.337,35.587 c 5,-5 10.353,-6.618 12.024,-4.951 1.671,1.667 0.044,7.025 -4.948,12.027 -1.453876,1.468455 -3.085904,2.749083 -4.858,3.812 -1.159299,0.680495 -1.715482,2.055971 -1.355,3.351 0.30057,1.263264 1.42255,2.159693 2.721,2.174 h 9.967 c 0.546846,-0.02178 1.024,0.367842 1.112,0.908 0.0219,0.279822 -0.07328,0.556188 -0.262833,0.763186 C 57.547609,53.878183 57.280664,53.997254 57,54 h -9 c -0.552285,0 -1,0.447715 -1,1 0,0.552285 0.447715,1 1,1 h 5.89 c 0.542713,-0.01363 1.012271,0.375251 1.1,0.911 0.02214,0.277898 -0.07169,0.552571 -0.259214,0.758851 C 54.543259,57.87613 54.278744,57.995631 54,58 H 43 c -2.209139,0 -4,-1.790861 -4,-4 V 51.911 C 40.932252,49.728673 41.99932,46.914816 42,44 v -0.734 c 1.123763,-1.685545 2.443296,-3.231994 3.931,-4.607 l 0.245,-0.242 c 3.055,-3.04 5.836,-4.194 7,-4.4 0.356008,-0.05711 0.653708,-0.301442 0.779146,-0.639478 0.125438,-0.338036 0.05919,-0.717425 -0.173387,-0.992944 C 53.549182,32.109058 53.186294,31.980075 52.832,32.047 c -1.727,0.3 -4.876,1.779 -8.064,4.951 l -0.232,0.228 c -0.532,0.52 -1.56,1.532 -2.532,2.662 V 39 c -0.0035,-0.59879 -0.05196,-1.196472 -0.145,-1.788 0.441,-0.529 0.924,-1.072 1.478,-1.625 z M 11,19 c -0.0026,-1.444691 1.028151,-2.684604 2.449,-2.946 l 0.019,-0.006 h 0.012 c 0.171227,-0.0338 0.345479,-0.04989 0.52,-0.048 1.656854,0 3,1.343146 3,3 0,0.552285 0.447715,1 1,1 0.552285,0 1,-0.447715 1,-1 -0.0075,-2.506247 -1.872859,-4.618088 -4.359,-4.935 0.352269,-0.903983 0.909961,-1.713646 1.629,-2.365 0.32788,-0.287668 0.431478,-0.754669 0.256,-1.154 C 16.175563,9.7431334 15.996416,8.8760068 16,8 15.87174,4.827944 18.328782,2.1475343 21.5,2 c 2.235991,0.052967 4.218038,1.4525697 5.016,3.542 0.171605,0.4157055 0.599608,0.6657148 1.046,0.611 1.618997,-0.2029597 3.257003,-0.2029597 4.876,0 0.446905,0.057218 0.876324,-0.1936182 1.046,-0.611 C 34.281962,3.4525697 36.264009,2.0529666 38.5,2 c 3.171218,0.1475343 5.62826,2.827944 5.5,6 0.0039,0.8766801 -0.175291,1.7445164 -0.526,2.548 -0.174491,0.39879 -0.07097,0.864645 0.256,1.152 0.718785,0.650783 1.276459,1.459737 1.629,2.363 C 42.872106,14.380011 41.006504,16.492991 41,19 c 0,0.552285 0.447715,1 1,1 0.552285,0 1,-0.447715 1,-1 0,-1.656854 1.343146,-3 3,-3 0.174487,-0.0022 0.348738,0.01353 0.52,0.047 h 0.012 l 0.019,0.006 C 47.972221,16.314463 49.003069,17.554932 49,19 49,26.168 40.477,32 30,32 19.523,32 11,26.168 11,19 Z m 26.9,13.888 c 1.360029,1.747211 2.098962,3.897858 2.1,6.112 v 5 C 40,49.522848 35.522847,54 30,54 24.477153,54 20,49.522848 20,44 v -5 c 0.001,-2.214142 0.739971,-4.364789 2.1,-6.112 5.16243,1.481861 10.63757,1.481861 15.8,0 z M 3.112,52 h 9.949 c 1.3043,-0.0086 2.434562,-0.905698 2.739,-2.174 0.359756,-1.295963 -0.198178,-2.671709 -1.359,-3.351 -1.771706,-1.062649 -3.403396,-2.342939 -4.857,-3.811 -4.993,-5 -6.616,-10.354 -4.953,-12.025 1.663,-1.671 7.028,-0.048 12.028,4.948 0.554,0.553 1.041,1.1 1.482,1.625 C 18.049299,37.803629 18.002167,38.40131 18,39 v 0.891 c -0.972,-1.13 -2,-2.142 -2.532,-2.662 L 15.234,37 C 12.048,33.829 8.899,32.352 7.172,32.05 6.6320082,31.96338 6.1225951,32.326618 6.0285202,32.865361 5.9344453,33.404104 6.2906084,33.918489 6.828,34.02 c 1.16,0.2 3.941,1.357 6.994,4.4 l 0.247,0.243 c 1.487459,1.373762 2.806982,2.918856 3.931,4.603 V 44 c 6.8e-4,2.914816 1.067748,5.728673 3,7.911 V 54 c 0,2.209139 -1.790861,4 -4,4 H 6 C 5.7205556,57.996727 5.4549847,57.877702 5.2665825,57.671293 5.0781802,57.464885 4.9838232,57.189582 5.006,56.911 5.0939269,56.373707 5.5657852,55.984338 6.11,56 H 12 c 0.552285,0 1,-0.447715 1,-1 0,-0.552285 -0.447715,-1 -1,-1 H 3 C 2.7191475,53.997274 2.452033,53.878067 2.2624427,53.670844 2.0728524,53.463622 1.9778059,53.186987 2,52.907 2.0884505,52.367242 2.565479,51.978155 3.112,52 Z" />
    <path
       id="path9"
       d="m 24.6,39.8 c 3.201628,-2.404002 7.606372,-2.404002 10.808,0 0.283597,0.243521 0.679335,0.30854 1.025941,0.168559 0.346605,-0.13998 0.586201,-0.461585 0.621146,-0.833753 C 37.090031,38.762639 36.91449,38.402054 36.6,38.2 c -3.909481,-2.929335 -9.282519,-2.929335 -13.192,0 -0.398641,0.342307 -0.46437,0.934746 -0.150454,1.356109 C 23.571461,39.977471 24.157934,40.084019 24.6,39.8 Z" />
  </g>
  <path
     style="fill:#ffffff;stroke:#000000;stroke-width:0.579841"
     d="m 243.82333,268.99918 c -1.1162,-0.1273 -4.89966,-0.51727 -8.4077,-0.86661 -22.73834,-2.26434 -47.58042,-10.38276 -65.64939,-21.45429 -16.5089,-10.11561 -30.45486,-24.79166 -36.90947,-38.84173 -6.14553,-13.37729 -7.88651,-28.00155 -4.22454,-35.48634 1.84787,-3.77691 6.30984,-8.13664 10.11384,-9.88207 4.21193,-1.9326 12.03067,-1.80749 16.44731,0.26318 6.52415,3.05874 10.49601,8.76111 11.54425,16.57395 0.71022,5.29353 1.81068,7.09601 5.02618,8.23257 2.04198,0.72176 2.63351,0.7191 4.57698,-0.0206 1.29397,-0.49249 2.80952,-1.6937 3.60631,-2.85833 1.23923,-1.81133 1.3423,-2.43647 1.04821,-6.35767 -1.10602,-14.74686 -11.84609,-27.28139 -26.30771,-30.7032 l -3.02928,-0.71677 0.82768,-1.9809 c 1.27738,-3.05722 4.72664,-7.99431 8.47442,-12.12982 1.87115,-2.06475 3.57385,-4.43839 3.78376,-5.27476 0.25291,-1.00768 -0.2614,-3.50192 -1.52461,-7.39385 -1.64726,-5.07515 -1.94266,-6.90281 -2.17401,-13.4507 -0.31192,-8.828306 0.72965,-13.803465 4.35637,-20.808584 3.1354,-6.056121 10.56587,-13.319781 16.79186,-16.414889 14.6112,-7.263621 29.05209,-4.85221 40.79834,6.812708 3.97697,3.949441 5.51239,5.996396 7.67385,10.230493 3.5864,7.025377 4.5362,7.524281 12.64521,6.642116 7.37904,-0.802753 17.99858,-0.802753 25.37762,0 8.04003,0.874661 9.06407,0.353002 12.54772,-6.391992 6.56137,-12.704007 17.39214,-20.272915 30.48063,-21.300878 5.77567,-0.453618 11.83472,0.893299 18.07998,4.019155 6.72726,3.367098 13.81649,10.445379 17.107,17.080575 3.38304,6.821779 4.39089,11.961138 4.0499,20.651866 -0.23206,5.91424 -0.5848,8.00797 -2.17839,12.93013 -1.25892,3.88846 -1.77252,6.38706 -1.51983,7.39385 0.20991,0.83637 1.91261,3.21001 3.78377,5.27476 3.74292,4.13017 7.19675,9.07194 8.46969,12.11851 l 0.82295,1.96961 -3.81293,0.95777 c -14.53192,3.6503 -25.65435,17.61669 -25.70969,32.28353 -0.0201,5.31645 4.47552,8.98292 9.25754,7.55019 3.14648,-0.94271 4.43269,-3.02184 5.17615,-8.36709 1.08624,-7.80976 5.06516,-13.5052 11.56332,-16.55176 2.78893,-1.30755 4.04934,-1.53412 8.49349,-1.52681 6.27853,0.0103 9.21906,1.14366 13.60022,5.24173 5.68263,5.31543 7.42546,12.16201 5.84584,22.96505 -3.16754,21.66295 -18.2971,42.19499 -41.88435,56.84046 -17.67325,10.97343 -40.14288,18.60834 -63.74991,21.66147 -6.71645,0.86865 -30.71763,1.60725 -35.28858,1.08596 z m 97.90139,-47.88148 c 2.20271,-1.55995 3.08766,-3.26997 3.08766,-5.9664 0,-3.14667 -0.80243,-4.69895 -3.17781,-6.14732 -1.80683,-1.1017 -3.69103,-1.12648 -85.63457,-1.12648 -81.94354,0 -83.82774,0.0248 -85.63457,1.12648 -2.67365,1.63025 -3.32917,3.22815 -3.14536,7.66716 0.0745,1.79921 2.93325,4.91748 4.8528,5.29334 0.71485,0.13998 38.87345,0.22307 84.79689,0.18465 76.76181,-0.0642 83.6067,-0.14742 84.85496,-1.03143 z M 204.17509,132.15689 c 6.31088,-1.72564 12.95699,-7.71797 15.8741,-14.31257 0.65928,-1.49041 1.50411,-4.80536 1.87741,-7.36655 2.23226,-15.315513 -6.2937,-28.701316 -20.12415,-31.595023 -11.99431,-2.509538 -25.0235,7.184637 -27.54809,20.496756 -3.03187,15.986977 5.5087,30.346707 19.84824,33.371957 3.82046,0.80602 5.26146,0.72096 10.07249,-0.59457 z m 115.92452,0.0127 c 3.70477,-1.01207 9.33527,-4.62965 11.7716,-7.56321 9.11194,-10.97158 8.53544,-28.968451 -1.24112,-38.745011 -5.80317,-5.803165 -13.49477,-8.430192 -20.43254,-6.978622 -13.88306,2.904714 -22.35118,16.263165 -20.10905,31.722013 1.634,11.26601 9.44563,19.92373 19.98239,22.1467 3.81204,0.80424 5.263,0.72006 10.02872,-0.58184 z"
     id="path20"
     transform="scale(0.1171875)" />
  <path
     style="fill:#ffffff;stroke:#000000;stroke-width:0.579841"
     d="M 246.48176,418.91373 C 218.84261,414.55942 197.57025,395.3547 189.98613,367.9094 l -1.5222,-5.50849 v -27.83239 -27.83239 l 1.5416,-5.6068 c 0.84788,-3.08374 2.47149,-7.7526 3.60803,-10.37524 2.09654,-4.83793 6.64435,-12.61257 8.06978,-13.79557 0.58716,-0.4873 2.92685,-0.15175 9.42876,1.35225 29.51905,6.82823 60.38859,6.82093 89.82561,-0.0213 l 8.69762,-2.02163 1.2838,1.47098 c 3.7984,4.35223 8.71104,14.7614 11.07173,23.45944 1.49093,5.49333 1.5047,5.74126 1.71485,30.86417 0.17759,21.23035 0.0626,26.19127 -0.71104,30.67429 -2.38773,13.83609 -8.74151,26.24483 -18.52415,36.17701 -9.44326,9.58763 -19.27595,15.19042 -32.7721,18.67399 -6.25683,1.61498 -19.09655,2.29012 -25.21666,1.32596 z m 53.77622,-94.70325 c 2.52481,-1.05494 4.06214,-3.52954 4.06214,-6.53874 0,-3.26804 -1.13609,-4.80841 -5.8652,-7.95231 -8.51638,-5.66168 -17.4164,-9.3551 -28.2488,-11.72295 -6.45532,-1.41107 -21.95848,-1.41172 -28.39535,-0.001 -13.01038,2.85101 -28.0214,9.94099 -32.14423,15.18231 -2.58175,3.28217 -1.14428,8.3108 2.9863,10.44681 2.47404,1.27937 4.96814,0.72788 8.96282,-1.98186 20.82936,-14.12933 47.93956,-14.13678 68.78539,-0.0189 5.28155,3.57694 6.63632,3.93248 9.85693,2.58683 z"
     id="path22"
     transform="scale(0.1171875)" />
  <path
     style="fill:#ffffff;stroke:#000000;stroke-width:0.579841"
     d="m 88.863985,445.75034 c -2.098712,-1.30127 -3.523684,-4.35217 -3.046818,-6.52332 0.203915,-0.92842 1.274755,-2.48177 2.379643,-3.45187 l 2.008888,-1.76382 21.288992,-0.003 c 12.73195,-0.002 22.14802,-0.24182 23.42614,-0.59681 4.43196,-1.23094 6.42216,-6.19928 4.2026,-10.49142 -1.76064,-3.40448 -1.75907,-3.40433 -36.79159,-3.40433 -35.038377,0 -34.399256,0.0611 -36.2201,-3.46007 -1.598851,-3.09184 -0.653804,-6.39891 2.424875,-8.48553 1.542967,-1.04578 3.523733,-1.11534 39.603815,-1.39075 l 37.97962,-0.28993 2.72108,-1.34031 c 7.7304,-3.80774 12.34478,-13.00813 10.91871,-21.77029 -1.21938,-7.49213 -3.67208,-10.51609 -14.10981,-17.39609 -11.90323,-7.84598 -19.16945,-13.78891 -29.1019,-23.80198 -12.9836,-13.08899 -22.231561,-25.50177 -29.105829,-39.06637 -6.369284,-12.56815 -9.559335,-25.164 -8.309298,-32.8091 1.536239,-9.39549 6.387539,-13.12915 17.048619,-13.12097 16.598318,0.0127 38.812248,11.2638 61.325038,31.0603 7.04819,6.19779 17.46973,17.56384 17.06687,18.61366 -0.15816,0.41216 -0.46396,4.09075 -0.67956,8.17464 l -0.392,7.42527 -12.8212,-12.8435 C 143.0232,291.326 132.67793,283.33568 118.28766,276.27139 c -15.84016,-7.77607 -23.701863,-8.37274 -25.818414,-1.95952 -1.552841,4.70515 0.893643,8.25687 6.717592,9.75235 15.451712,3.96771 32.556832,15.76052 52.765052,36.37789 8.90582,9.08613 12.68377,13.50373 18.45564,21.58032 3.16459,4.42823 3.25526,4.66171 3.26503,8.4077 0.0492,18.84587 6.76302,38.37418 17.92163,52.12772 l 2.94262,3.62692 -0.0179,6.23038 c -0.01,3.42671 -0.268,8.18734 -0.57367,10.57919 -1.06311,8.31855 -6.61624,16.6068 -13.68164,20.42033 -6.2288,3.36197 -6.11837,3.35456 -49.77613,3.33774 -36.665415,-0.0141 -40.166025,-0.0984 -41.623476,-1.00207 z"
     id="path24"
     transform="scale(0.1171875)" />
  <path
     style="fill:#ffffff;stroke:#000000;stroke-width:0.579841"
     d="m 337.81831,445.85023 c -10.4388,-2.80716 -18.34008,-11.95076 -19.75585,-22.86208 -0.3099,-2.38844 -0.57152,-7.14629 -0.58136,-10.573 l -0.0179,-6.23038 2.94262,-3.62692 c 3.89557,-4.80148 8.76783,-12.99552 11.31926,-19.03639 3.94316,-9.33604 6.61242,-22.77207 6.61242,-33.28449 0,-3.51978 0.11123,-3.78972 3.5586,-8.63619 5.97066,-8.39384 12.04985,-15.26538 22.90012,-25.88492 18.58016,-18.18504 33.22365,-27.66968 49.66778,-32.16997 2.66295,-0.72877 3.59096,-1.30322 4.49161,-2.78035 2.51574,-4.12599 0.70172,-9.36723 -3.75061,-10.83664 -4.93204,-1.62772 -21.05317,4.81069 -34.44901,13.75814 -9.69646,6.47653 -16.23253,12.10004 -29.43403,25.32449 l -12.81849,12.84076 -0.37277,-7.36534 c -0.20502,-4.05093 -0.51019,-7.72345 -0.67815,-8.16114 -0.67475,-1.75837 15.29792,-17.9046 26.1136,-26.39736 18.48353,-14.51375 38.21698,-23.34861 52.15124,-23.34861 6.54713,0 10.13163,1.11515 13.08827,4.07179 2.89575,2.89576 4.15016,6.83571 4.13303,12.98141 -0.0522,18.7298 -14.70341,45.11564 -38.04471,68.51594 -9.49806,9.52206 -16.97344,15.60664 -28.544,23.23334 -8.35929,5.51 -10.87871,7.93729 -12.7369,12.2711 -4.26923,9.95703 0.0894,22.23736 9.5458,26.89528 l 2.72108,1.34031 37.97962,0.28993 c 36.08008,0.27541 38.06085,0.34497 39.60381,1.39075 3.07868,2.08662 4.02373,5.39369 2.42488,8.48553 -1.82084,3.52113 -1.18172,3.46007 -36.22011,3.46007 -35.03251,0 -35.03094,-1.5e-4 -36.79159,3.40457 -2.21954,4.29214 -0.22935,9.26049 4.20261,10.49143 1.27878,0.35517 10.71904,0.59487 23.5043,0.5968 l 21.36715,0.003 1.93729,1.93728 c 2.46615,2.46616 2.95099,4.36523 1.75687,6.88163 -1.96428,4.13942 0.28881,3.94194 -44.48849,3.89944 -33.22344,-0.0315 -40.75306,-0.18432 -43.33798,-0.87945 z"
     id="path26"
     transform="scale(0.1171875)" />
</svg>
