<?xml version="1.0" encoding="UTF-8" standalone="no"?>
<svg
   xmlns:dc="http://purl.org/dc/elements/1.1/"
   xmlns:cc="http://creativecommons.org/ns#"
   xmlns:rdf="http://www.w3.org/1999/02/22-rdf-syntax-ns#"
   xmlns:svg="http://www.w3.org/2000/svg"
   xmlns="http://www.w3.org/2000/svg"
   xmlns:sodipodi="http://sodipodi.sourceforge.net/DTD/sodipodi-0.dtd"
   xmlns:inkscape="http://www.inkscape.org/namespaces/inkscape"
   version="1.1"
   x="0px"
   y="0px"
   viewBox="0 0 1000 1000"
   enable-background="new 0 0 1000 1000"
   xml:space="preserve"
   id="svg10"
   sodipodi:docname="ws.svg"
   inkscape:version="1.0.1 (3bc2e813f5, 2020-09-07, custom)"><defs
   id="defs14" /><sodipodi:namedview
   pagecolor="#ffffff"
   bordercolor="#666666"
   borderopacity="1"
   objecttolerance="10"
   gridtolerance="10"
   guidetolerance="10"
   inkscape:pageopacity="0"
   inkscape:pageshadow="2"
   inkscape:window-width="960"
   inkscape:window-height="1060"
   id="namedview12"
   showgrid="false"
   inkscape:zoom="0.883"
   inkscape:cx="500"
   inkscape:cy="498.8675"
   inkscape:window-x="0"
   inkscape:window-y="20"
   inkscape:window-maximized="0"
   inkscape:current-layer="svg10" />
<metadata
   id="metadata2"> Svg Vector Icons : http://www.onlinewebfonts.com/icon <rdf:RDF><cc:Work
     rdf:about=""><dc:format>image/svg+xml</dc:format><dc:type
       rdf:resource="http://purl.org/dc/dcmitype/StillImage" /></cc:Work></rdf:RDF></metadata>
<g
   id="g8"
   transform="matrix(0.8,0,0,0.8,99.998,100.00014)"><g
     transform="matrix(0.1,0,0,-0.1,0,511)"
     id="g6"><path
       d="M 4750.2,4985.1 C 4535,4940.9 4356.4,4864.1 3674.3,4524 2967.3,4168.6 2886.6,4132.1 2588.8,4011 2098.9,3813.1 1547.5,3640.2 980.7,3507.6 l -303.5,-73 V 3110 c 0,-854.9 124.9,-1811.7 345.8,-2658.9 413.1,-1592.7 1254.5,-3045.1 2363.1,-4080.7 497.6,-463 1027.8,-854.9 1450.5,-1072 l 172.9,-88.4 172.9,101.8 c 511,299.7 937.5,637.8 1477.4,1170 1233.4,1218 2067.2,2772.3 2439.9,4551.3 138.3,653.2 222.9,1456.3 222.9,2092.2 v 309.3 l -301.6,73 c -568.7,132.6 -1120.1,305.5 -1610,503.4 -297.8,121 -378.5,157.5 -1085.5,513 -365,182.5 -728.1,355.4 -806.9,384.2 -284.2,101.9 -522.4,126.8 -768.4,76.9 z m 624.4,-440 c 74.9,-28.8 459.2,-213.3 854.9,-413.1 1027.9,-513 1696.4,-768.5 2551.4,-972.1 76.8,-17.3 142.2,-38.4 146,-46.1 13.4,-23.1 -26.9,-739.7 -55.7,-1010.6 C 8752.1,1014 8475.5,14.9 8031.7,-922.6 7707,-1610.4 7188.3,-2378.9 6663.8,-2957.2 6277.6,-3381.8 5701.3,-3879.4 5245.9,-4182.9 l -245.9,-163.3 -138.3,82.6 c -1139.3,670.5 -2167.1,1804 -2814.6,3100.8 -491.8,979.8 -785.8,2015.3 -918.3,3227.6 -28.8,267 -69.2,1025.9 -55.7,1049 3.8,7.7 69.2,28.8 146,46.1 854.9,203.6 1523.5,459.2 2551.4,972.1 964.5,482.2 958.7,480.3 1268,470.7 163.2,-5.7 228.6,-15.3 336.1,-57.6 z"
       id="path4" /></g></g>
<path
   style="fill:#ffffff;stroke:#000000;stroke-width:0.906"
   d="M 483.71528,845.99808 C 444.30672,821.92754 410.32799,794.32584 374.45954,757.24713 337.9697,719.52606 306.40799,677.34324 280.27709,631.37047 236.70234,554.70833 208.34194,469.50581 194.78178,374.51883 c -4.65617,-32.6159 -8.26056,-77.92597 -8.26056,-103.84203 v -10.8121 l 2.36763,-0.90018 c 1.3022,-0.4951 9.762,-2.75241 18.79955,-5.01625 66.3591,-16.62245 109.62204,-33.59864 203.36083,-79.79788 68.08239,-33.55446 65.12885,-32.47637 88.94877,-32.46774 14.34632,0.005 18.64937,0.30889 22.89325,1.61567 7.33428,2.25838 21.64465,8.92389 63.99254,29.80655 95.79134,47.23679 138.83907,64.17857 205.42381,80.8462 23.68226,5.9282 21.16802,4.01203 21.16269,16.12858 -0.009,20.39053 -3.02371,61.74191 -6.39218,87.67814 -18.70846,144.04931 -73.23777,269.07098 -163.45567,374.76175 -25.31786,29.66003 -65.31156,66.82339 -100.40902,93.30311 -14.57472,10.99609 -41.74931,29.33933 -43.42211,29.31057 -0.63377,-0.0109 -7.86798,-4.12172 -16.07603,-9.13514 z"
   id="path16" /></svg>
