<?xml version="1.0" encoding="UTF-8" standalone="no"?>
<svg
   xmlns:dc="http://purl.org/dc/elements/1.1/"
   xmlns:cc="http://creativecommons.org/ns#"
   xmlns:rdf="http://www.w3.org/1999/02/22-rdf-syntax-ns#"
   xmlns:svg="http://www.w3.org/2000/svg"
   xmlns="http://www.w3.org/2000/svg"
   xmlns:sodipodi="http://sodipodi.sourceforge.net/DTD/sodipodi-0.dtd"
   xmlns:inkscape="http://www.inkscape.org/namespaces/inkscape"
   height="48"
   viewBox="0 0 48 48"
   width="48"
   version="1.1"
   id="svg6"
   sodipodi:docname="ww.svg"
   inkscape:version="1.0.1 (3bc2e813f5, 2020-09-07, custom)">
  <metadata
     id="metadata12">
    <rdf:RDF>
      <cc:Work
         rdf:about="">
        <dc:format>image/svg+xml</dc:format>
        <dc:type
           rdf:resource="http://purl.org/dc/dcmitype/StillImage" />
        <dc:title></dc:title>
      </cc:Work>
    </rdf:RDF>
  </metadata>
  <defs
     id="defs10" />
  <sodipodi:namedview
     pagecolor="#ffffff"
     bordercolor="#666666"
     borderopacity="1"
     objecttolerance="10"
     gridtolerance="10"
     guidetolerance="10"
     inkscape:pageopacity="0"
     inkscape:pageshadow="2"
     inkscape:window-width="960"
     inkscape:window-height="1060"
     id="namedview8"
     showgrid="false"
     inkscape:zoom="18.395833"
     inkscape:cx="24"
     inkscape:cy="23.94564"
     inkscape:window-x="0"
     inkscape:window-y="20"
     inkscape:window-maximized="0"
     inkscape:current-layer="svg6" />
  <path
     d="M0 0h48v48h-48z"
     fill="none"
     id="path2" />
  <path
     d="M24 4c-11.05 0-20 8.95-20 20s8.95 20 20 20 20-8.95 20-20-8.95-20-20-20zm-11 14l7-7 7 7h-5v8h-4v-8h-5zm22 12l-7 7-7-7h5v-8h4v8h5z"
     id="path4" />
  <path
     style="fill:#ff0000;stroke:#000000;stroke-width:0.0543601"
     d="m 18.020385,21.961495 v -3.99547 h -2.459636 -2.459635 l 3.451548,-3.451869 3.451548,-3.45187 3.438617,3.43828 3.438616,3.438279 -2.446384,0.01414 -2.446384,0.01414 v 3.994916 3.994916 H 20.00453 18.020385 Z"
     id="path14" />
  <path
     style="fill:#ff0000;stroke:#000000;stroke-width:0.0543601"
     d="m 24.543602,33.485844 -3.451548,-3.451869 h 2.459635 2.459636 v -3.99547 -3.99547 h 1.984145 1.984145 v 3.994916 3.994916 l 2.446384,0.01414 2.446384,0.01414 -3.438616,3.438279 -3.438617,3.438279 z"
     id="path16" />
  <path
     style="fill:#ffffff;stroke:#000000;stroke-width:0.0543601"
     d="M 21.907135,43.865867 C 15.788604,43.184466 10.444503,39.856986 7.1133501,34.654587 5.8263196,32.644578 4.8416061,30.154796 4.3829086,27.750849 4.1165292,26.354806 4.0801919,25.904564 4.0801919,24 c 0,-1.904564 0.036337,-2.354806 0.3027167,-3.750849 1.0309637,-5.403086 4.2467291,-10.116238 8.9625044,-13.1358009 2.379241,-1.5234534 5.102126,-2.5055894 8.126841,-2.9313253 0.837415,-0.1178683 3.248434,-0.1638528 4.225545,-0.080592 4.689522,0.3995981 9.040951,2.4245202 12.384564,5.7631138 3.200062,3.1952554 5.080494,7.0065014 5.740542,11.6348874 0.07751,0.543535 0.0969,1.04389 0.0969,2.500566 0,1.904564 -0.03634,2.354806 -0.302717,3.750849 -0.945768,4.956592 -3.814695,9.463947 -7.903503,12.41715 -2.73442,1.974977 -5.702637,3.154726 -9.185842,3.651009 -0.862281,0.122856 -3.68148,0.151447 -4.620611,0.04686 z m 10.62758,-13.873205 -2.50074,-0.01413 v -3.99493 -3.994927 H 27.99547 25.956965 v 3.99547 3.99547 h -2.514 -2.513999 l 3.533096,3.533409 3.533095,3.53341 3.520149,-3.51982 3.520148,-3.519819 z m -10.49168,-7.976264 v -3.994927 l 2.50074,-0.01413 2.500739,-0.01413 -3.520148,-3.519819 -3.520149,-3.51982 -3.533095,3.53341 -3.533096,3.533409 h 2.513999 2.514 v 3.99547 3.99547 h 2.038505 2.038505 z"
     id="path18" />
  <path
     style="fill:#000000;stroke:#000000;stroke-width:0.0543601"
     d="m 18.074745,21.9077 v -3.994905 l -2.392028,-0.01415 -2.392028,-0.01415 3.364627,-3.364282 3.364627,-3.364281 3.389802,3.376113 3.389802,3.376112 -2.432616,0.0018 -2.432616,0.0018 v 3.99547 3.99547 H 20.00453 18.074745 Z"
     id="path20" />
  <path
     style="fill:#000000;stroke:#000000;stroke-width:0.0543601"
     d="m 24.621004,33.454526 -3.365862,-3.366191 h 2.405272 2.405271 v -3.99547 -3.99547 h 1.929785 1.929785 v 3.99547 3.99547 l 2.432616,1.63e-4 2.432616,1.63e-4 -1.729329,1.725774 c -0.95113,0.949176 -2.481945,2.46389 -3.40181,3.366031 l -1.672482,1.640256 -3.365862,-3.366191 z"
     id="path22" />
</svg>
