<?xml version="1.0" encoding="UTF-8" standalone="no"?>
<svg
   xmlns:dc="http://purl.org/dc/elements/1.1/"
   xmlns:cc="http://creativecommons.org/ns#"
   xmlns:rdf="http://www.w3.org/1999/02/22-rdf-syntax-ns#"
   xmlns:svg="http://www.w3.org/2000/svg"
   xmlns="http://www.w3.org/2000/svg"
   xmlns:sodipodi="http://sodipodi.sourceforge.net/DTD/sodipodi-0.dtd"
   xmlns:inkscape="http://www.inkscape.org/namespaces/inkscape"
   height="100%"
   width="100%"
   version="1.1"
   viewBox="0 0 2048 2048"
   id="svg18"
   sodipodi:docname="bo.svg"
   inkscape:version="0.92.4 5da689c313, 2019-01-14">
  <metadata
     id="metadata24">
    <rdf:RDF>
      <cc:Work
         rdf:about="">
        <dc:format>image/svg+xml</dc:format>
        <dc:type
           rdf:resource="http://purl.org/dc/dcmitype/StillImage" />
        <dc:title></dc:title>
      </cc:Work>
    </rdf:RDF>
  </metadata>
  <defs
     id="defs22" />
  <sodipodi:namedview
     pagecolor="#ffffff"
     bordercolor="#666666"
     borderopacity="1"
     objecttolerance="10"
     gridtolerance="10"
     guidetolerance="10"
     inkscape:pageopacity="0"
     inkscape:pageshadow="2"
     inkscape:window-width="1920"
     inkscape:window-height="1060"
     id="namedview20"
     showgrid="false"
     inkscape:zoom="0.11523438"
     inkscape:cx="1041.3559"
     inkscape:cy="1024"
     inkscape:window-x="0"
     inkscape:window-y="20"
     inkscape:window-maximized="0"
     inkscape:current-layer="svg18" />
  <path
     style="color:black;"
     d="m490 683q4 9 13 27 17 42 17 50-2 28-29 28-20 0-47-57-4-8-12-14-27-28 8-47 32-19 50 13zm590 371q70 92 69 205-4 33-38 33-46 0-36-34 3-55-11-91-23-57-51-85-15-30 18-44 32-15 49 16zm-261 488q-5 36 2 78-60-12-113-56-32-17-15-47 17-31 47-10 21 11 38 20t41 15zm937-1268q-1 0 2 54t3 118q1 125 0 258t-36 267q-34 128-75 218t-89 157q-72 108-196 183t-259 98q4-23 3-47t0-46q97-33 183-82t126-106q48-66 89-156t75-219q34-133 35-266t1-259q0-63-3-117t0-55h141zm-677 1423q157-10 291-81t228-182q66-78 124-188t94-233q40-143 50-300t11-292v-218t-155 0-404 0h-671q-9 0-9 49t7 79q4 24 19 68t50 107q16 32 76 93t138 143q45 46 70 116t22 127q-37-30-81-49-212-76-307-220-7-9-45-81-20-38-34-52-19-19-55-21-56-3-87 54-42-12-75-10-56 21-81 45-51 51-66 102t-16 110q0 84 104 222 122 159 130 242 0 36 7 81 6 31 25 60 13 20 17 27t17 23q9 12 15 18t15 18q11 13 28 30-53 146-43 301 199-71 334-223 33 113 130 183 80-56 127-148zm-675-836q29 20 6 48-24 23-53 4-61-40-65-105 1-33 39-31 36 3 35 37 8 32 38 47zm252 498q22 11 22 11 30 12 19 44-12 30-46 20-118-43-163-158-7-33 24-45 31-10 42 22 8 17 12 22 11-9 29-12 61-10 71 54 3 22-10 42z"
     fill-rule="nonzero"
     transform="translate(0,2048) scale(1,-1)"
     display="block"
     fill="#000"
     id="path2" />
  <g
     fill-rule="nonzero"
     fill="#fff"
     id="g16">
    <path
       style="color:black;"
       d="m490 1365q4-9 13-27 17-42 17-50-2-28-29-28-20 0-47 57-4 8-12 14-27 28 8 47 32 19 50-13z"
       display="block"
       id="path4" />
    <path
       style="color:black;"
       d="m1080 994q70-92 69-205-4-33-38-33-46 0-36 34 3 55-11 91-23 57-51 85-15 30 18 44 32 15 49-16z"
       display="block"
       id="path6" />
    <path
       style="color:black;"
       d="m819 506q-5-36 2-78-60 12-113 56-32 17-15 47 17 31 47 10 21-11 38-20t41-15z"
       display="block"
       id="path8" />
    <path
       style="color:black;"
       d="m1756 1774q-1 0 2-54t3-118q1-125 0-258t-36-267q-34-128-75-218t-89-157q-72-108-196-183t-259-98q4 23 3 47t0 46q97 33 183 82t126 106q48 66 89 156t75 219q34 133 35 266t1 259q0 63-3 117t0 55h141z"
       display="block"
       id="path10" />
    <path
       style="color:black;"
       d="m404 1187q29-20 6-48-24-23-53-4-61 40-65 105 1 33 39 31 36-3 35-37 8-32 38-47z"
       display="block"
       id="path12" />
    <path
       style="color:black;"
       d="m656 689q22-11 22-11 30-12 19-44-12-30-46-20-118 43-163 158-7 33 24 45 31 10 42-22 8-17 12-22 11 9 29 12 61 10 71-54 3-22-10-42z"
       display="block"
       id="path14" />
  </g>
  <path
     style="fill:#aa0000;fill-opacity:1;stroke-width:8.67796612"
     d="m 646.21921,1832.2079 c -10.00828,-10.0082 -6.30707,-75.2883 7.31789,-129.0694 27.57329,-108.8385 73.24924,-181.1348 197.493,-312.5933 128.44638,-135.9053 160.6095,-189.813 169.0975,-283.4197 l 4.725,-52.1083 -33.83647,22.2525 c -18.61006,12.2389 -63.1246,34.6632 -98.92121,49.8319 -77.93743,33.0257 -143.03789,73.5851 -195.02734,121.5072 -36.95402,34.0631 -55.25152,59.8891 -117.30029,165.5634 -43.42063,73.9489 -89.96943,87.6211 -142.19631,41.7652 -26.00964,-22.8367 -34.35014,-25.5487 -63.99469,-20.8083 -67.1276,10.7341 -154.55105,-60.6648 -180.25316,-147.2132 -33.0723,-111.3665 -11.69934,-184.2653 99.51191,-339.41421 86.82291,-121.12518 111.75745,-175.12012 121.88812,-263.94475 8.87757,-77.83762 21.35225,-103.80076 88.01133,-183.17507 l 32.96696,-39.25542 -17.81128,-56.20221 C 507.24622,372.33801 498.11422,313.52758 495.19655,259.7764 l -4.88234,-89.94563 20.82256,6.45933 c 69.74805,21.63642 181.04741,92.41254 256.8937,163.36069 l 54.17301,50.67454 20.73439,-46.33555 c 24.62032,-55.01949 87.52909,-128.77622 109.83614,-128.77622 16.95035,0 88.96959,74.96611 108.73049,113.17959 10.4458,20.19979 20.4378,24.51428 78.4435,33.87162 281.7725,45.45478 487.1035,222.21278 620.3091,533.98952 78.1472,182.90861 102.0903,333.07871 109.6803,687.90841 l 5.4296,253.8305 h -611.6812 c -336.42473,0 -614.28467,-2.6034 -617.46659,-5.7853 z M 1762.8767,1692.6373 c 13.654,-206.1902 2.6158,-460.2011 -25.2131,-580.1967 C 1703.1619,963.67214 1649.8798,831.23499 1582.828,727.58348 1506.5698,609.70041 1422.9542,537.98321 1289.9234,476.35885 1224.8518,446.21546 1110.396,410.5622 1102.8677,418.0905 c -1.6178,1.61781 -0.2907,25.49356 2.9486,53.05722 4.6832,39.84656 9.4128,51.03695 23.0817,54.61142 34.386,8.99216 175.7428,81.92122 215.8462,111.35983 97.5639,71.61851 192.5346,263.62226 246.305,497.95903 11.9645,52.1423 15.7265,122.4629 18.9182,353.6271 l 3.984,288.5424 h 71.6612 71.6612 z M 507.37237,1334.9712 c 20.55826,-51.706 15.68732,-78.4017 -14.30534,-78.4017 -16.11508,0 -78.26025,81.3404 -78.26025,102.4331 0,14.353 27.61574,27.8896 52.04043,25.5092 17.46106,-1.7019 25.32851,-11.3195 40.52516,-49.5406 z M 360.47983,1263.078 c 4.69917,-5.9661 10.98909,-21.1073 13.97759,-33.647 2.98851,-12.5399 15.24222,-29.2265 27.23049,-37.0815 37.59148,-24.6308 23.39389,-65.9495 -22.66105,-65.9495 -48.06383,0 -106.80373,90.7585 -85.04876,131.408 9.9471,18.5863 53.30676,22.0223 66.50173,5.27 z m 719.12927,-262.6575 c 49.0435,-49.04358 91.0188,-201.77738 64.301,-233.97025 -12.9227,-15.57092 -57.148,-17.61614 -66.1449,-3.05888 -3.4481,5.57915 -7.1601,30.25614 -8.2488,54.83776 -1.8989,42.86996 -35.3883,126.25508 -55.7649,138.84855 -15.31299,9.46392 -9.6222,37.62295 10.4438,51.67772 25.5672,17.9079 29.8089,17.2699 55.4138,-8.3349 z M 554.32803,802.96295 c 7.59653,-16.67257 14.31795,-19.19914 43.63712,-16.40311 47.48399,4.52833 68.50265,-15.24546 68.50265,-64.44545 0,-29.49959 3.56342,-38.25207 17.35593,-42.62964 21.36617,-6.78136 23.78917,-48.94253 3.76768,-65.5589 -11.14905,-9.25288 -19.32737,-9.24006 -45.55933,0.0712 -94.58155,33.57321 -185.04038,152.37994 -149.04466,195.75213 16.50526,19.88762 50.92201,16.07993 61.34061,-6.78641 z m 220.42209,-272.8114 47.92107,-23.5027 v -42.16684 c 0,-39.72789 -1.12936,-41.81846 -19.52543,-36.1437 -51.63915,15.92948 -119.32203,61.18842 -119.32203,79.78958 0,19.88352 17.17128,45.52635 30.48595,45.52635 6.88566,0 34.08385,-10.57621 60.44044,-23.50269 z"
     id="path26"
     inkscape:connector-curvature="0" />
</svg>
