<?xml version="1.0" encoding="UTF-8" standalone="no"?>
<!-- Created with Inkscape (http://www.inkscape.org/) -->

<svg
   xmlns:dc="http://purl.org/dc/elements/1.1/"
   xmlns:cc="http://creativecommons.org/ns#"
   xmlns:rdf="http://www.w3.org/1999/02/22-rdf-syntax-ns#"
   xmlns:svg="http://www.w3.org/2000/svg"
   xmlns="http://www.w3.org/2000/svg"
   xmlns:sodipodi="http://sodipodi.sourceforge.net/DTD/sodipodi-0.dtd"
   xmlns:inkscape="http://www.inkscape.org/namespaces/inkscape"
   width="353"
   height="353"
   viewBox="0 0 93.397917 93.397917"
   version="1.1"
   id="svg8022"
   sodipodi:docname="wB.svg"
   inkscape:version="0.92.4 5da689c313, 2019-01-14">
  <defs
     id="defs8016" />
  <sodipodi:namedview
     id="base"
     pagecolor="#ffffff"
     bordercolor="#666666"
     borderopacity="1.0"
     inkscape:pageopacity="0.0"
     inkscape:pageshadow="2"
     inkscape:zoom="1.979899"
     inkscape:cx="180.82486"
     inkscape:cy="220.33084"
     inkscape:document-units="mm"
     inkscape:current-layer="layer1"
     showgrid="false"
     units="px"
     inkscape:window-width="960"
     inkscape:window-height="1060"
     inkscape:window-x="0"
     inkscape:window-y="20"
     inkscape:window-maximized="0" />
  <metadata
     id="metadata8019">
    <rdf:RDF>
      <cc:Work
         rdf:about="">
        <dc:format>image/svg+xml</dc:format>
        <dc:type
           rdf:resource="http://purl.org/dc/dcmitype/StillImage" />
        <dc:title />
      </cc:Work>
    </rdf:RDF>
  </metadata>
  <g
     inkscape:label="Layer 1"
     inkscape:groupmode="layer"
     id="layer1"
     transform="translate(0,-203.60208)">
    <path
       style="fill:#de8787;stroke:#000000;stroke-width:7.99999952;stroke-linecap:butt;stroke-linejoin:miter;stroke-miterlimit:4;stroke-dasharray:none;stroke-opacity:1"
       d="m 160.78711,75.074219 c -13.61072,0.02268 -28.29243,0.631382 -44.11523,1.863281 H 93.927734 c -61.957525,32.52896 -50.245363,92.03045 -53.207031,143.78125 5.280117,13.40338 11.396403,26.23375 16.414063,38.20117 -7.30774,4.51922 -13.669476,0.79904 -16.007813,2.82422 -3.586049,15.3501 -2.384555,31.89406 -3.251953,47.92383 1.014127,2.68566 1.195136,5.64823 5.279297,7.31055 91.021133,-0.52831 197.185763,6.19461 273.632813,0.80859 1.89895,-0.1338 3.5397,-0.35191 6.21289,-2.42773 0.65089,-16.64697 -0.13764,-34.0014 -2.43359,-50.7754 -3.11495,-2.62798 -8.99343,-2.21226 -21.52735,-3.65234 -3.68027,-9.99579 16.75612,-70.49644 2.03125,-113.32226 7.60028,12.09297 6.89999,32.79534 7.3125,60.11328 3.79041,1.33088 5.57091,-0.72675 9.36133,-4.75391 C 332.77435,131.02227 292.37539,74.84979 160.78711,75.074219 Z M 106.51953,183.96289 c 3.24931,0.004 6.49484,2.60804 9.74414,9.13672 l -0.20312,48.53906 c -2.31709,8.39437 -7.20558,8.42338 -11.57422,10.15039 -29.340285,-15.36412 -16.752206,-40.41877 -1.21875,-67.01172 1.0831,-0.52622 2.16884,-0.8166 3.25195,-0.81445 z m 144.78906,19.54883 -6.89257,11.48633 c 14.48376,18.6915 22.68257,36.31179 6.03125,49.6875 -7.51628,1.07361 -10.46899,-3.33235 -14.36133,-6.60743 -5.81674,5.46877 -40.84528,-0.30904 -65.32255,2.67383 -0.8115,-0.0755 -8.99492,2.46565 -4.37324,-0.38141 7.30174,-4.49804 10.62172,-43.58862 16.56493,-48.81781 22.77241,-2.50998 44.88361,4.23399 68.35351,-8.04101 z"
       transform="matrix(0.26458333,0,0,0.26458333,0,203.60208)"
       id="path4029"
       inkscape:connector-curvature="0"
       sodipodi:nodetypes="cccccccccccccccccccccccccccscc" />
    <path
       style="fill:none;stroke:#000000;stroke-width:2.11666656;stroke-linecap:butt;stroke-linejoin:miter;stroke-miterlimit:4;stroke-dasharray:none;stroke-opacity:1"
       d="m 10.564456,274.08916 c 0.569486,1.16686 1.36383,1.43428 2.127678,1.82371 l 69.605473,0.30395 c 1.122839,-0.44536 1.783034,-1.58472 2.519071,-2.6103"
       id="path7742"
       inkscape:connector-curvature="0"
       sodipodi:nodetypes="cccc" />
    <path
       style="fill:none;stroke:#000000;stroke-width:2.11666656;stroke-linecap:butt;stroke-linejoin:miter;stroke-miterlimit:4;stroke-dasharray:none;stroke-opacity:1"
       d="m 29.257629,269.0739 c 0.407479,1.48411 0.414359,3.11845 2.355642,4.02739 -1.905521,0.55226 -4.046841,0.33405 -5.547159,-0.53191 l 0.683897,-2.6596"
       id="path7744"
       inkscape:connector-curvature="0"
       sodipodi:nodetypes="cccc" />
    <path
       style="fill:none;stroke:#000000;stroke-width:2.11666656;stroke-linecap:butt;stroke-linejoin:miter;stroke-miterlimit:4;stroke-dasharray:none;stroke-opacity:1"
       d="m 26.370065,271.80951 c -12.720926,0.78515 -9.138212,-21.9071 5.319197,-24.01238 1.329317,1.85466 1.065059,1.31897 1.595757,1.97571 17.874254,-11.20425 8.497252,-18.66512 4.939252,-22.34063 8.48081,2.90228 12.956281,23.67286 -10.901487,25.05868"
       id="path7746"
       inkscape:connector-curvature="0"
       sodipodi:nodetypes="ccccc" />
    <path
       style="fill:none;stroke:#000000;stroke-width:2.11666656;stroke-linecap:butt;stroke-linejoin:miter;stroke-miterlimit:4;stroke-dasharray:none;stroke-opacity:1"
       d="m 36.85648,271.65751 c 2.342707,-10.33147 2.401858,-21.39371 14.361828,-28.64767 18.349395,-3.27954 24.688225,4.9954 27.127895,17.02143"
       id="path7748"
       inkscape:connector-curvature="0"
       sodipodi:nodetypes="ccc" />
    <path
       style="fill:#de8787;stroke:#000000;stroke-width:2.11666656;stroke-linecap:butt;stroke-linejoin:miter;stroke-miterlimit:4;stroke-dasharray:none;stroke-opacity:1"
       d="m 62.464608,271.88547 c 2.120717,2.4741 2.878124,1.92943 3.799565,1.74799 5.342883,-6.45169 0.294876,-9.24296 -1.595769,-13.14648 l 1.977213,-3.03909 c -2.966188,1.1293 -6.037485,1.83816 -9.424215,1.8995 4.874102,3.31157 8.279541,7.41211 5.243206,12.53808 z"
       id="path7752"
       inkscape:connector-curvature="0"
       sodipodi:nodetypes="cccccc" />
    <path
       style="fill:none;stroke:#000000;stroke-width:0.26458332px;stroke-linecap:butt;stroke-linejoin:miter;stroke-opacity:1"
       d="m 62.464608,271.88547 3.799565,1.74799 c 3.4886,-4.47354 2.754463,-8.8511 -1.595769,-13.14648 l 1.82366,-3.03909 -9.270662,1.8995"
       id="path2635"
       inkscape:connector-curvature="0"
       sodipodi:nodetypes="ccccc" />
    <path
       style="fill:#e3434b;fill-opacity:1;stroke-width:0.71428573"
       d="m 269.84002,269.66916 c -11.58929,-0.21432 -20.23413,-0.46271 -19.21076,-0.55198 2.49274,-0.21744 8.75436,-6.89251 10.98794,-11.71345 4.71273,-10.17196 2.39078,-21.04816 -7.84648,-36.7535 l -3.94425,-6.05101 5.92288,-9.07217 c 3.25759,-4.9897 5.97223,-9.78777 6.03254,-10.66238 0.10237,-1.48467 -0.42029,-1.32443 -7.87494,2.41422 -8.94765,4.48741 -20.48938,7.79801 -29.61761,8.49542 -3.03642,0.23199 -14.00349,0.66098 -24.37129,0.95331 l -18.85055,0.53153 -1.62072,1.88419 c -2.42627,2.82071 -4.39809,8.71638 -7.91532,23.6665 -4.07406,17.31695 -5.53142,21.54994 -8.58183,24.92638 -2.87708,3.18458 -2.9096,5.07005 -0.12323,7.14249 1.79768,1.33706 2.19142,1.36448 6.42858,0.44783 3.47362,-0.75147 10.86617,-0.93327 32.08396,-0.789 16.07796,0.10931 28.8631,-0.10302 30.67167,-0.50937 2.90659,-0.65308 3.25749,-0.55971 5.58842,1.48687 1.36791,1.20104 3.47637,2.64229 4.68547,3.20278 1.9111,0.8859 -10.58106,0.96246 -95.59735,0.58582 -83.946212,-0.37189 -98.082587,-0.58159 -99.821422,-1.48077 -1.11414,-0.57615 -2.025709,-1.32444 -2.025709,-1.66288 0,-0.33843 2.169643,-0.74099 4.821428,-0.89456 5.017319,-0.29057 11.370932,-2.72101 12.103448,-4.62993 0.20965,-0.54633 -0.978179,-4.12119 -2.639619,-7.94413 -1.66144,-3.82293 -5.50059,-12.7365 -8.531443,-19.80792 L 45.08319,220.0263 45.623274,194.65886 c 0.297047,-13.9521 0.901457,-29.38067 1.343134,-34.28571 3.168387,-35.18653 14.904879,-57.36313 38.91742,-73.536105 8.552185,-5.760087 7.194247,-5.477422 29.670472,-6.176118 11.19643,-0.348053 32.73215,-0.618404 47.85715,-0.600782 28.69677,0.03343 37.15547,0.626799 56.0643,3.93282 48.88344,8.546791 80.18892,29.407375 91.73351,61.127165 3.66487,10.06954 4.65738,16.48644 4.68087,30.26332 0.0206,12.0856 -1.29031,25.33697 -2.5857,26.13756 -0.334,0.20643 -0.61734,-2.61686 -0.62966,-6.27398 -0.0364,-10.80951 -1.26266,-28.3899 -2.38197,-34.1493 -1.09873,-5.65348 -3.40755,-12.45505 -4.93875,-14.54909 -0.8645,-1.18228 -1.10337,-1.16799 -4.44915,0.26618 -1.94458,0.83355 -3.61863,1.59856 -3.72009,1.70002 -0.10146,0.10146 0.59018,3.23827 1.53699,6.97068 2.74606,10.8253 3.51247,19.95329 3.02007,35.96935 -0.24155,7.85715 -0.65177,15.66578 -0.9116,17.35252 -0.46453,3.01569 -0.50616,2.93572 -2.49792,-4.79886 -8.54732,-33.19156 -25.3334,-52.31002 -51.8298,-59.03138 -13.6983,-3.47487 -29.10814,-3.91656 -46.50723,-1.33304 -8.671,1.28752 -9.24242,1.53467 -17.35407,7.50605 -12.36111,9.09962 -23.50967,22.70846 -29.83551,36.41966 -5.73702,12.43493 -8.96837,24.41575 -15.32859,56.8336 l -2.4003,12.23427 3.90218,0.87327 c 2.93929,0.65778 4.0279,0.66986 4.41166,0.0489 0.28021,-0.45339 1.70364,-6.99464 3.16318,-14.53611 5.79563,-29.94617 8.83941,-40.85144 14.85197,-53.21172 6.35728,-13.06894 16.47573,-24.93361 28.14164,-32.99824 4.91847,-3.40013 6.00218,-3.83413 11.95773,-4.78871 8.66071,-1.38818 29.22865,-1.55869 36.19195,-0.30002 29.31106,5.29816 45.36154,23.44987 53.84402,60.89295 l 0.42532,1.87746 4.25679,-0.88832 4.25678,-0.88831 -0.32722,1.868 c -0.84278,4.81119 -5.28113,35.22689 -5.71885,39.19087 -0.56872,5.15038 0.64573,10.67134 2.4574,11.17146 0.6396,0.17657 3.73433,0.52117 6.87719,0.76577 3.14286,0.2446 6.62477,0.62287 7.73758,0.8406 l 2.0233,0.39587 -1.61209,1.716 c -1.82027,1.9376 2.70517,1.82986 -42.07736,1.00172 z M 123.0543,266.06979 c 8.4881,-2.3175 8.48779,-2.31683 2.45423,-5.33 -2.92125,-1.45889 -6.02966,-3.31229 -6.90758,-4.11867 -2.1524,-1.97703 -2.86096,-5.89823 -1.36459,-7.5517 3.01709,-3.33385 3.31794,-6.28492 3.31794,-32.54542 0,-21.87304 -0.14745,-25.31891 -1.14428,-26.7421 -0.62936,-0.89853 -1.01087,-1.7671 -0.84781,-1.93017 0.16306,-0.16306 4.06504,-1.24823 8.67107,-2.41151 29.77229,-7.51908 46.92439,-26.72461 46.88005,-52.49246 -0.0262,-15.24861 -4.95488,-27.99775 -14.63045,-37.845288 -3.5147,-3.577157 -11.65695,-9.00474 -13.50858,-9.00474 -0.2483,0 -1.3988,1.49381 -2.55667,3.319578 l -2.10522,3.319577 5.82042,6.144708 c 12.92901,13.649355 16.70515,24.227175 12.70831,35.598885 -3.48977,9.92904 -14.30942,21.50264 -30.08216,32.17838 l -3.29532,2.23043 -2.33304,-3.2487 c -2.3182,-3.22804 -2.35372,-3.2456 -5.58385,-2.76122 -8.55414,1.28278 -18.792795,5.70475 -26.333465,11.37318 -22.284724,16.75172 -32.722173,51.13092 -21.920472,72.20232 3.790504,7.39432 12.438488,13.91777 19.942195,15.04302 1.74703,0.26198 3.176419,0.71737 3.176419,1.01197 0,0.78338 8.051413,4.26736 11.597043,5.01822 4.3489,0.92098 11.42619,0.34906 18.04581,-1.45829 z"
       id="path14"
       inkscape:connector-curvature="0"
       transform="matrix(0.26458333,0,0,0.26458333,0,203.60208)" />
    <path
       style="fill:#e3434b;fill-opacity:1;stroke-width:0.71428573"
       d="m 171.62573,314.60894 c -48.8758,-1.12921 -101.193536,-2.0819 -114.349629,-2.08226 -13.458186,-3.7e-4 -13.644372,-0.0213 -14.329971,-1.60752 -0.756691,-1.75074 -0.209977,-33.66994 0.590409,-34.47033 0.256763,-0.25676 1.106582,-0.12446 1.888487,0.294 1.534089,0.82102 264.938854,2.48947 267.156204,1.69221 0.65305,-0.2348 2.04125,-1.01797 3.0849,-1.74037 l 1.89754,-1.31345 0.49261,6.60825 c 0.27093,3.63455 0.54204,12.05476 0.60246,18.71159 l 0.10985,12.10334 -2.5,0.51731 c -8.98825,1.85988 -89.0265,2.57217 -144.64286,1.28723 z"
       id="path16"
       inkscape:connector-curvature="0"
       transform="matrix(0.26458333,0,0,0.26458333,0,203.60208)" />
    <path
       style="fill:#e3434b;fill-opacity:1;stroke-width:0.71428573"
       d="m 243.53653,259.30766 -2.12738,-1.79008 1.49589,-3.74564 c 1.14074,-2.85637 1.48966,-5.27188 1.46964,-10.17421 -0.0393,-9.61606 -2.94238,-15.76405 -11.85181,-25.09886 l -4.18478,-4.38457 4.50097,-0.82125 c 2.47552,-0.45169 5.46524,-1.02151 6.64381,-1.26628 1.92825,-0.40046 2.04545,-0.32713 1.17024,0.73226 -1.50441,1.82099 -0.55226,4.08508 5.39119,12.81966 2.99923,4.40771 6.20209,9.6223 7.11746,11.58796 1.96357,4.21658 2.17899,9.37169 0.58429,13.98241 -1.32388,3.82771 -5.67523,9.94867 -7.07245,9.94867 -0.55533,0 -1.96701,-0.80553 -3.13707,-1.79007 z"
       id="path18"
       inkscape:connector-curvature="0"
       transform="matrix(0.26458333,0,0,0.26458333,0,203.60208)" />
    <path
       style="fill:#e3434b;fill-opacity:1;stroke-width:0.71428573"
       d="m 89.835394,252.5732 c -5.62877,-1.71219 -9.702355,-5.53396 -12.612279,-11.83261 -1.680428,-3.63736 -2.022263,-5.44304 -2.259571,-11.93579 -0.919095,-25.14639 15.258981,-48.63415 38.526266,-55.93346 l 4.00693,-1.25704 2.55451,2.77743 c 1.40498,1.52759 2.33401,2.99249 2.0645,3.25535 -0.8266,0.80619 -8.73023,2.02208 -13.14414,2.02208 -7.08904,0 -8.30335,0.90155 -13.380192,9.93397 -9.6207,17.11659 -13.263906,28.13223 -12.763783,38.59273 0.393143,8.22294 3.003524,13.93099 9.082845,19.86122 2.396961,2.33818 4.35811,4.46099 4.35811,4.71737 0,0.61691 -4.172664,0.48637 -6.433196,-0.20125 z"
       id="path20"
       inkscape:connector-curvature="0"
       transform="matrix(0.26458333,0,0,0.26458333,0,203.60208)" />
    <path
       style="fill:#e3434b;fill-opacity:1;stroke-width:0.50507629"
       d="m 134.79524,173.79683 c 0.11575,-0.10317 3.00434,-2.2827 6.41911,-4.8434 7.52466,-5.6427 14.03969,-11.75995 18.34232,-17.22241 1.7642,-2.23977 3.28203,-3.84912 3.37296,-3.57635 0.0909,0.27278 -0.44299,1.7072 -1.18649,3.18759 -4.317,8.59571 -11.52064,15.38699 -21.80175,20.55372 -3.45244,1.73501 -6.02708,2.68602 -5.14615,1.90085 z"
       id="path22"
       inkscape:connector-curvature="0"
       transform="matrix(0.26458333,0,0,0.26458333,0,203.60208)" />
    <path
       style="fill:#e3434b;fill-opacity:1;stroke-width:0.35714287"
       d="m 106.7415,259.19912 c -2.99265,-0.5419 -3.38518,-0.79611 -3.08235,-1.99616 0.16498,-0.65375 0.68155,-1.00941 2.19271,-1.50967 1.08729,-0.35995 2.06679,-0.56454 2.17668,-0.45466 0.17293,0.17294 1.87675,4.1694 1.88125,4.41267 0.002,0.11796 -0.10114,0.10321 -3.16829,-0.45218 z"
       id="path24"
       inkscape:connector-curvature="0"
       transform="matrix(0.26458333,0,0,0.26458333,0,203.60208)" />
  </g>
</svg>
