<?xml version="1.0" encoding="UTF-8" standalone="no"?>
<!-- Created with Inkscape (http://www.inkscape.org/) -->

<svg
   xmlns:dc="http://purl.org/dc/elements/1.1/"
   xmlns:cc="http://creativecommons.org/ns#"
   xmlns:rdf="http://www.w3.org/1999/02/22-rdf-syntax-ns#"
   xmlns:svg="http://www.w3.org/2000/svg"
   xmlns="http://www.w3.org/2000/svg"
   xmlns:sodipodi="http://sodipodi.sourceforge.net/DTD/sodipodi-0.dtd"
   xmlns:inkscape="http://www.inkscape.org/namespaces/inkscape"
   width="353"
   height="353"
   viewBox="0 0 93.397917 93.397917"
   version="1.1"
   id="svg8022"
   sodipodi:docname="wk.svg"
   inkscape:version="0.92.4 5da689c313, 2019-01-14">
  <defs
     id="defs8016" />
  <sodipodi:namedview
     id="base"
     pagecolor="#ffffff"
     bordercolor="#666666"
     borderopacity="1.0"
     inkscape:pageopacity="0.0"
     inkscape:pageshadow="2"
     inkscape:zoom="2.8"
     inkscape:cx="157.38617"
     inkscape:cy="175.35258"
     inkscape:document-units="mm"
     inkscape:current-layer="layer1"
     showgrid="false"
     units="px"
     inkscape:window-width="960"
     inkscape:window-height="1060"
     inkscape:window-x="0"
     inkscape:window-y="20"
     inkscape:window-maximized="0"
     showguides="false"
     inkscape:snap-nodes="false" />
  <metadata
     id="metadata8019">
    <rdf:RDF>
      <cc:Work
         rdf:about="">
        <dc:format>image/svg+xml</dc:format>
        <dc:type
           rdf:resource="http://purl.org/dc/dcmitype/StillImage" />
        <dc:title />
      </cc:Work>
    </rdf:RDF>
  </metadata>
  <g
     inkscape:groupmode="layer"
     id="layer2"
     inkscape:label="Outer"
     style="display:inline">
    <path
       style="fill:#de8787;stroke:#000000;stroke-width:2.11666656;stroke-linecap:butt;stroke-linejoin:miter;stroke-miterlimit:4;stroke-dasharray:none;stroke-opacity:1"
       d="m 47.363328,6.2760721 c -2.478718,0.297824 -3.971526,0.810079 -6.547886,4.3652529 -2.65695,1.811004 -3.88891,4.436283 -5.28054,6.970327 -4.1111,1.314269 -3.20629,2.628541 -0.21124,3.942811 -0.78759,6.147315 1.21125,7.650562 3.16835,9.223358 -3.41608,1.507239 -7.30431,2.672777 -8.5193,5.280552 -3.37414,-0.622231 -4.15938,0.199835 -4.7173,2.041812 l -6.266248,3.027513 -0.281618,32.739407 1.971406,2.182629 c -0.979751,0.73582 -2.599027,1.087906 -2.745902,2.323444 l -0.07041,5.139732 c 0.528209,0.797358 1.262864,0.768951 1.971407,0.844883 l 22.671185,0.140822 c 3.718636,-0.381577 5.879546,-0.02026 7.744796,0.140822 l 21.96709,-0.07041 c 0.93855,-0.25838 2.30771,-0.08611 2.74588,-0.844883 l 0.35203,-6.26626 -2.67546,-1.478552 2.1122,-1.971404 -0.28162,-33.16185 c -2.30761,-1.087214 -4.25546,-1.814676 -6.19584,-2.534664 -1.62989,-2.887631 -3.11515,-2.481099 -5.56219,-2.534664 -1.32785,-3.158042 -5.24164,-4.041612 -8.16724,-5.069326 2.3831,-1.968468 3.30577,-4.629824 3.72806,-9.236907 1.37514,-1.294025 2.77186,-2.082863 -0.0669,-3.718042 -0.56521,-1.619377 -0.48437,-3.238744 -3.16834,-4.858113 -1.24012,-4.9619382 -4.95342,-6.6510909 -7.6744,-6.6182889 z"
       id="path861-9"
       inkscape:connector-curvature="0"
       sodipodi:nodetypes="cccccccccccccccccccccccccccc" />
    <path
       style="fill:#e3434b;fill-opacity:1;stroke-width:0.35714287"
       d="m 197.50275,42.472319 c -4.83898,-1.940768 -10.55076,-3.542708 -15.54516,-4.359836 -4.389,-0.71808 -13.24775,-1.048087 -17.23214,-0.641935 -1.71875,0.175202 -3.125,0.207738 -3.125,0.0723 0,-0.135436 1.36901,-1.54213 3.04224,-3.125987 6.41755,-6.074742 14.01446,-7.879089 21.99024,-5.222912 6.00457,1.999705 11.49499,6.880146 14.58237,12.962289 0.43121,0.849495 0.73446,1.654026 0.67387,1.787848 -0.0606,0.133822 -2.03447,-0.528475 -4.38642,-1.471769 z"
       id="path39"
       inkscape:connector-curvature="0"
       transform="scale(0.26458333)" />
    <path
       style="fill:#e3434b;fill-opacity:1;stroke-width:0.35714287"
       d="m 173.68366,65.093417 c -18.20244,-0.107799 -33.19245,-0.293151 -33.31113,-0.411893 -0.26286,-0.263001 2.45036,-5.174523 5.01034,-9.06982 2.65845,-4.045128 5.49361,-7.360291 8.2127,-9.603119 1.97307,-1.627484 2.69241,-1.995958 4.54927,-2.330327 15.99292,-2.879892 31.56839,-0.212439 46.28926,7.927492 3.79257,2.097107 6.76413,4.621 8.07578,6.859155 0.68881,1.175368 2.662,6.25452 2.662,6.852211 0,0.06381 -1.8884,0.08368 -4.19643,0.04416 -2.30804,-0.03952 -19.08934,-0.160058 -37.29179,-0.267857 z"
       id="path41"
       inkscape:connector-curvature="0"
       transform="scale(0.26458333)" />
    <path
       style="fill:#e3434b;fill-opacity:1;stroke-width:0.35714287"
       d="m 133.56473,76.878731 c -1.96428,-0.992885 -3.95226,-2.101123 -4.41771,-2.462751 l -0.84629,-0.657504 1.20343,-0.735188 c 0.66189,-0.404353 2.59242,-1.2223 4.29007,-1.817659 l 3.08664,-1.082472 40.49547,0.279462 40.49548,0.279462 1.41788,0.90063 c 0.77984,0.495347 1.70571,1.222644 2.0575,1.616216 0.62489,0.69912 0.58466,0.765932 -1.74809,2.903468 l -2.38768,2.187881 -23.78763,4.28e-4 c -13.0832,2.31e-4 -31.10014,0.08881 -40.03764,0.196848 l -16.25,0.196425 z"
       id="path43"
       inkscape:connector-curvature="0"
       transform="scale(0.26458333)" />
    <path
       style="fill:#e3434b;fill-opacity:1;stroke-width:0.35714287"
       d="m 170.35045,121.84782 c -7.56164,-1.17741 -19.17017,-6.25017 -24.71455,-10.7999 -4.22873,-3.4701 -6.43881,-6.85963 -7.85268,-12.043359 -0.49012,-1.796919 -0.63436,-3.707056 -0.63842,-8.45408 -0.003,-3.372959 0.11724,-6.255136 0.26694,-6.404837 0.14971,-0.149701 17.87897,-0.344351 39.39837,-0.432556 l 39.12618,-0.160372 -0.19916,1.208065 c -0.10954,0.664436 -0.45988,2.815209 -0.77854,4.779495 -1.70733,10.524314 -4.75336,17.112654 -10.23691,22.141624 -2.87507,2.63674 -5.36738,4.14975 -10.74482,6.52289 -5.6022,2.47231 -10.8385,3.67979 -16.66213,3.84222 -2.65178,0.074 -5.78571,-0.0157 -6.96428,-0.19919 z m 8.47666,-5.18765 c 2.0096,-0.68474 3.9235,-2.48709 5.09413,-4.79721 0.87039,-1.71764 1.96492,-6.81739 1.96492,-9.15518 v -1.20322 h 6.78572 6.78571 v -2.499999 -2.5 l -5.98214,-0.04105 -5.98215,-0.04105 8.75,-1.265313 c 4.8125,-0.695921 8.78219,-1.285525 8.82153,-1.31023 0.19947,-0.125279 -0.73112,-5.199493 -0.95357,-5.199493 -0.3373,0 -19.83857,2.778026 -21.31373,3.036217 -1.4184,0.248257 -1.43266,0.30594 -2.097,8.479248 -0.59141,7.27605 -1.14398,9.46583 -2.72412,10.79542 -3.71107,3.12266 -5.99544,-2.40347 -6.01175,-14.543027 -0.004,-2.897322 -0.0832,-5.267858 -0.1762,-5.267858 -0.093,0 -5.49914,-0.813526 -12.01359,-1.807837 -6.51446,-0.994311 -11.96894,-1.677346 -12.12107,-1.517857 -0.15214,0.159489 -0.38546,1.334749 -0.51849,2.611688 l -0.24187,2.321708 9.2285,1.391334 c 5.07568,0.765234 9.54994,1.518314 9.94279,1.673511 0.39286,0.155198 -3.10268,0.292365 -7.76785,0.304816 l -8.48215,0.02264 v 2.5 2.500002 h 8.36147 8.36146 l 0.20041,1.33928 c 0.11022,0.73661 0.30502,2.14286 0.43288,3.125 1.12886,8.67103 5.75749,13.05835 11.65616,11.04847 z"
       id="path45"
       inkscape:connector-curvature="0"
       transform="scale(0.26458333)" />
    <path
       style="fill:#e3434b;fill-opacity:1;stroke-width:0.35714287"
       d="m 174.27902,146.47029 c -11.52166,-0.87551 -24.15386,-6.00305 -39.74629,-16.13343 -2.41403,-1.56839 -4.34261,-2.89792 -4.28572,-2.95451 0.22515,-0.22394 14.50028,-6.23493 14.80697,-6.23493 0.18033,0 2.19401,0.94651 4.47485,2.10337 7.28488,3.69493 13.991,5.96555 20.23835,6.85249 3.7643,0.53442 12.46698,0.22934 16.11898,-0.56506 5.90708,-1.28495 14.5134,-4.70615 19.39553,-7.71015 l 1.76901,-1.08848 4.86416,1.65511 c 2.67529,0.9103 6.3772,2.31687 8.22647,3.1257 l 3.36231,1.4706 -1.21945,1.04794 c -0.6707,0.57636 -2.98731,2.3719 -5.14803,3.99008 -14.6089,10.94073 -28.28383,15.54868 -42.85714,14.44127 z"
       id="path47"
       inkscape:connector-curvature="0"
       transform="scale(0.26458333)" />
    <path
       style="fill:#e3434b;fill-opacity:1;stroke-width:0.35714287"
       d="m 169.45759,153.0405 c -15.31354,-1.19091 -32.28561,-7.23704 -47.43395,-16.89787 l -2.61252,-1.66613 1.30026,-1.14164 c 0.71514,-0.62791 1.92519,-1.55521 2.68899,-2.06067 l 1.38874,-0.91902 6.3521,4.09676 c 7.97807,5.14544 10.78125,6.74973 17.26938,9.88347 5.76078,2.78244 12.93356,5.30619 18.36843,6.46294 5.19769,1.10628 15.06318,1.36717 20.34645,0.53806 9.45903,-1.48441 18.67217,-5.23236 28.04641,-11.40943 4.23459,-2.79035 11.43491,-8.28015 11.94715,-9.10897 0.48265,-0.78095 1.60281,-0.34492 2.84645,1.10799 0.7028,0.82107 1.27782,1.59285 1.27782,1.71506 0,0.33024 -5.81642,4.00835 -10.75,6.79794 -16.67291,9.42735 -34.67964,13.87349 -51.03571,12.60151 z"
       id="path49"
       inkscape:connector-curvature="0"
       transform="scale(0.26458333)" />
    <path
       style="fill:#e3434b;fill-opacity:1;stroke-width:0.35714287"
       d="m 138.8008,173.92929 -37.87125,-32.24616 0.82762,-0.8412 c 1.07552,-1.09316 4.46439,-1.40073 8.62056,-0.78239 2.69845,0.40146 3.32608,0.65876 6.48027,2.65664 6.41749,4.06487 12.33247,7.25171 18.29473,9.8567 1.46268,0.63906 11.02518,6.31196 21.25,12.60643 10.22482,6.29447 19.11296,11.755 19.75144,12.13453 l 1.16087,0.69003 19.19627,-12.84031 c 12.18822,-8.15264 20.76088,-13.63721 23.48199,-15.02317 4.68976,-2.38867 10.05589,-5.54997 14.91779,-8.78837 l 3.13206,-2.08621 4.40571,0.16973 c 4.88452,0.18816 6.68872,0.77179 8.62114,2.78881 1.02247,1.06722 1.02605,1.08581 0.33555,1.74055 -0.5962,0.56531 -72.51674,60.45788 -74.15114,61.75011 -0.50757,0.40131 -5.44623,-3.68098 -38.45361,-31.78572 z"
       id="path51"
       inkscape:connector-curvature="0"
       transform="scale(0.26458333)" />
    <path
       style="fill:#e3434b;fill-opacity:1;stroke-width:0.35714287"
       d="m 167.74791,165.91141 c -4.9671,-3.06396 -8.97149,-5.63044 -8.89863,-5.7033 0.0729,-0.0729 1.72614,0.116 3.67396,0.41968 8.1847,1.27608 19.80403,1.0436 28.72006,-0.57463 2.0625,-0.37433 3.91072,-0.68293 4.10715,-0.68577 0.19643,-0.003 -3.74107,2.72675 -8.75,6.06574 -5.00893,3.339 -9.26786,6.066 -9.46429,6.06001 -0.19643,-0.006 -4.42114,-2.51777 -9.38825,-5.58173 z"
       id="path53"
       inkscape:connector-curvature="0"
       transform="scale(0.26458333)" />
    <path
       style="fill:#e3434b;fill-opacity:1;stroke-width:0.35714287"
       d="m 166.2433,237.90804 c -4.02678,-0.14739 -9.0398,-0.52868 -11.14002,-0.84731 -9.14244,-1.38703 -16.96327,-4.51529 -24.84586,-9.93812 -2.36563,-1.62743 -2.63897,-1.94416 -3.11689,-3.61167 -0.57613,-2.01016 -1.08163,-7.0944 -1.44231,-14.50638 -0.44664,-9.17836 -1.52141,-15.69796 -3.20874,-19.46428 -1.68693,-3.76544 -4.39227,-6.38017 -7.59366,-7.33933 l -1.50966,-0.45231 v -3.82158 -3.82158 l -2.6313,-2.99689 c -5.79318,-6.59807 -14.97374,-13.49932 -22.62833,-17.01028 l -2.061798,-0.94569 4.975753,-2.38666 4.975753,-2.38667 4.667102,3.99503 c 20.68012,17.70213 74.93897,63.82531 75.48353,64.16539 0.61003,0.38097 5.01218,-3.18247 41.27753,-33.41315 l 40.59467,-33.83959 2.82571,1.004 2.82571,1.004 -3.6172,1.92033 c -7.18563,3.81476 -13.6406,8.86578 -18.64444,14.58929 l -2.68555,3.07179 v 5.0543 5.05431 l -1.25281,0.67468 c -1.60487,0.86428 -4.40267,3.82426 -5.68389,6.01338 -2.52132,4.30796 -3.5366,9.25448 -4.33381,21.11481 -0.97916,14.56734 -1.70009,16.43291 -7.79458,20.17034 -8.45433,5.18459 -17.88066,8.03575 -29.64748,8.96743 -5.05102,0.39992 -12.53192,0.3944 -23.78743,-0.0176 z"
       id="path55"
       inkscape:connector-curvature="0"
       transform="scale(0.26458333)" />
    <path
       style="fill:#e3434b;fill-opacity:1;stroke-width:0.35714287"
       d="m 75.296072,228.0581 c 0.129595,-17.45266 0.34019,-40.2931 0.46799,-50.75654 l 0.232363,-19.02442 0.748439,0.22003 c 0.411642,0.12102 2.32945,0.84602 4.261795,1.61112 7.19229,2.84775 14.882324,7.9025 20.664531,13.58305 l 3.04533,2.99179 0.22659,6.25 c 0.12462,3.4375 0.22707,14.16518 0.22767,23.83929 l 0.001,17.58928 h -8.928566 -8.928572 v 2.14286 2.14286 h 8.877694 8.877694 l 0.22945,2.19524 c 0.1262,1.20739 0.22945,7.49244 0.22945,13.96679 0,10.42665 -0.0625,11.74754 -0.5472,11.56155 -1.45531,-0.55845 -4.93738,-1.29797 -7.728773,-1.64142 -6.115481,-0.75245 -14.042249,0.90528 -20.797601,4.34941 l -1.395,0.71122 z"
       id="path57"
       inkscape:connector-curvature="0"
       transform="scale(0.26458333)" />
    <path
       style="fill:#e3434b;fill-opacity:1;stroke-width:0.35714287"
       d="m 113.74297,244.45099 c -1.9e-4,-6.82589 -0.0933,-21.73214 -0.20699,-33.125 l -0.20664,-20.71429 0.73237,0.89286 c 1.81941,2.21808 2.66404,7.05099 3.43292,19.64286 1.03454,16.94282 1.61645,18.49228 8.74867,23.29532 3.69786,2.49024 9.50429,5.65339 12.30807,6.70502 1.03319,0.38753 0.98349,0.42191 -2.11475,1.46304 -6.09154,2.04699 -12.4434,5.88831 -19.20158,11.61226 -1.71347,1.45126 -3.20007,2.63864 -3.30357,2.63864 -0.10349,0 -0.18832,-5.58482 -0.1885,-12.41071 z"
       id="path59"
       inkscape:connector-curvature="0"
       transform="scale(0.26458333)" />
    <path
       style="fill:#e3434b;fill-opacity:1;stroke-width:0.35714287"
       d="m 274.60057,257.39346 c -9.21139,-3.87865 -17.85565,-4.41758 -25.98656,-1.62014 l -2.01356,0.69277 V 242.9139 229.3617 h 9.64285 9.64286 v -2.14285 -2.14286 h -9.46428 -9.46429 v -20.30036 c 0,-11.1652 0.10709,-22.77451 0.23798,-25.79848 l 0.23797,-5.49811 1.8156,-1.92196 c 5.81581,-6.15652 14.01247,-11.35691 22.61727,-14.34959 2.85481,-0.99287 3.43962,-1.09116 4.32077,-0.72618 l 1.01907,0.42212 0.23165,16.67556 c 0.47132,33.92795 0.69899,85.06827 0.37864,85.05047 -0.17778,-0.01 -1.62497,-0.56607 -3.21597,-1.236 z"
       id="path61"
       inkscape:connector-curvature="0"
       transform="scale(0.26458333)" />
    <path
       style="fill:#e3434b;fill-opacity:1;stroke-width:0.35714287"
       d="m 234.81473,252.54479 c -6.28268,-4.53187 -14.939,-8.33188 -21.89032,-9.60955 l -2.42603,-0.44591 3.33435,-1.34181 c 4.13539,-1.66417 6.33939,-2.7736 10.44629,-5.25836 5.30406,-3.20906 7.59368,-5.88855 9.23984,-10.81317 1.22506,-3.66487 1.55801,-6.00609 2.20935,-15.53571 0.56086,-8.20564 1.36938,-13.53481 2.41121,-15.89286 0.50169,-1.13551 0.53375,1.6123 0.35002,30 -0.11125,17.1875 -0.22017,31.27131 -0.24206,31.29737 -0.0219,0.026 -1.56658,-1.05395 -3.43265,-2.4 z"
       id="path63"
       inkscape:connector-curvature="0"
       transform="scale(0.26458333)" />
    <path
       style="fill:#e3434b;fill-opacity:1;stroke-width:0.35714287"
       d="m 259.81473,277.21885 v -6.78572 h -2.14285 -2.14286 v 6.29465 6.29464 l -1.13089,-0.22618 c -2.27008,-0.45401 -5.52624,-3.90564 -7.05828,-7.482 -0.63279,-1.47716 -0.7394,-2.46213 -0.7394,-6.83102 v -5.10498 l 1.81256,-0.77975 c 3.39434,-1.46021 6.99102,-2.16536 11.04458,-2.16536 5.44067,0 9.70254,1.14709 16.16071,4.34969 l 2.76786,1.37257 v 5.85666 5.85666 l -3.125,2.92438 -3.125,2.92438 -0.0979,-5.92788 -0.0979,-5.92789 h -2.13422 -2.13422 v 6.07143 6.07143 h -3.92858 -3.92857 z"
       id="path65"
       inkscape:connector-curvature="0"
       transform="scale(0.26458333)" />
    <path
       style="fill:#e3434b;fill-opacity:1;stroke-width:0.35714287"
       d="m 162.85045,276.23027 c -8.64286,-1.47805 -15.73983,-2.70402 -15.77105,-2.72439 -0.0312,-0.0204 0.0306,-1.73656 0.13739,-3.81377 l 0.19414,-3.77674 15.75547,-2.42908 15.75548,-2.42909 28.75,2.91171 c 15.8125,1.60143 29.1116,2.99087 29.55357,3.08762 0.73228,0.16032 0.80357,0.38067 0.80357,2.48375 0,2.10321 -0.0712,2.32337 -0.80357,2.48328 -2.07876,0.45389 -55.78425,6.9757 -57.12898,6.93754 -0.84246,-0.0239 -8.60317,-1.25278 -17.24602,-2.73083 z"
       id="path67"
       inkscape:connector-curvature="0"
       transform="scale(0.26458333)" />
    <path
       style="fill:#e3434b;fill-opacity:1;stroke-width:0.35714287"
       d="m 206.42188,258.56144 -27.5,-2.85837 -16.52492,2.53277 -16.52492,2.53278 -1.83634,-1.38987 c -2.11836,-1.60333 -3.96613,-2.1599 -7.17067,-2.1599 -4.21456,0 -7.62373,0.92586 -9.40918,2.55533 -0.65314,0.59609 -1.21066,0.67258 -4.25101,0.58323 l -3.49928,-0.10285 3.72017,-2.91161 c 9.05525,-7.08716 14.41906,-9.41788 24.60329,-10.69079 5.93322,-0.74158 7.94882,-0.75897 29.82143,-0.25726 17.99259,0.41272 23.88404,0.89596 33.97459,2.78676 3.42035,0.64092 9.32226,2.61787 12.29463,4.11832 2.2801,1.15099 8.78601,5.47874 10.69506,7.11439 l 1.25,1.07098 -1.07143,-0.0328 c -0.58928,-0.018 -13.44642,-1.31904 -28.57142,-2.89114 z"
       id="path69"
       inkscape:connector-curvature="0"
       transform="scale(0.26458333)" />
    <path
       style="fill:#e3434b;fill-opacity:1;stroke-width:0.35714287"
       d="m 134.27902,278.83688 c -0.78572,-0.28423 -1.9509,-1.08363 -2.58929,-1.77645 -1.1372,-1.23415 -1.16071,-1.32741 -1.16071,-4.60388 0,-1.83932 0.10455,-4.58112 0.23235,-6.09289 0.28522,-3.37424 0.44348,-3.48868 5.12129,-3.70332 3.13432,-0.14382 3.4928,-0.0898 4.64636,0.69982 l 1.25,0.85567 v 6.30794 c 0,5.89022 -0.0473,6.34362 -0.71429,6.8468 -2.19811,1.65828 -4.73791,2.2071 -6.78571,1.46631 z"
       id="path71"
       inkscape:connector-curvature="0"
       transform="scale(0.26458333)" />
    <path
       style="fill:#e3434b;fill-opacity:1;stroke-width:0.35714287"
       d="m 114.10045,269.59841 v -4.04902 l 5.625,0.16404 c 3.09375,0.0902 5.67693,0.20975 5.74041,0.26562 0.0635,0.0559 10e-4,1.8041 -0.13803,3.88497 l -0.25343,3.7834 h -5.48698 -5.48697 z"
       id="path73"
       inkscape:connector-curvature="0"
       transform="scale(0.26458333)" />
    <path
       style="fill:#e3434b;fill-opacity:1;stroke-width:0.35714287"
       d="m 88.207589,286.32903 c -0.196428,-0.0655 -0.799107,-0.21661 -1.339285,-0.33575 l -0.982143,-0.21661 v -6.77891 -6.77891 h -2.142857 -2.142858 v 6.06022 c 0,4.97452 -0.08736,6.02669 -0.487627,5.8731 -0.268195,-0.10292 -1.794981,-1.63053 -3.392857,-3.39468 l -2.90523,-3.20756 0.01,-5.4334 0.01,-5.4334 3.689868,-1.68365 c 7.130803,-3.25373 12.177084,-4.46055 17.086056,-4.08613 2.868999,0.21882 6.167884,0.95382 8.538684,1.90242 l 1.37973,0.55206 v 6.75478 c 0,6.69767 -0.009,6.77418 -1.04062,9.04982 -1.02912,2.26967 -4.756713,6.61785 -5.673332,6.61785 -0.319832,0 -0.428906,-1.86191 -0.428906,-7.32143 v -7.32143 h -2.321429 -2.321428 v 7.67857 7.67857 l -2.589286,-0.0282 c -1.424107,-0.0155 -2.75,-0.0818 -2.946429,-0.14734 z"
       id="path75"
       inkscape:connector-curvature="0"
       transform="scale(0.26458333)" />
    <path
       style="fill:#e3434b;fill-opacity:1;stroke-width:0.35714287"
       d="m 112.4118,288.39799 c -2.30266,-1.81671 -2.52411,-2.09638 -2.06317,-2.60571 0.28399,-0.31381 1.16263,-1.96942 1.95252,-3.67914 l 1.43617,-3.10858 h 6.28772 6.28772 l 1.52918,1.70082 c 3.32757,3.70106 8.45739,4.77759 13.24122,2.77878 1.57276,-0.65714 5.75489,-3.58526 5.94796,-4.16447 0.0945,-0.2836 5.1816,0.44463 16.72759,2.39463 l 16.59174,2.80217 28.03571,-3.49204 c 15.41964,-1.92062 28.6318,-3.58208 29.36035,-3.69213 1.32233,-0.19973 1.32623,-0.19648 2.23467,1.85765 0.50051,1.13176 1.48563,2.85894 2.18916,3.83819 l 1.27912,1.78045 -1.72808,1.78234 c -0.95044,0.98029 -2.35487,2.24581 -3.12095,2.81226 l -1.39287,1.02992 h -61.10811 -61.10812 z"
       id="path77"
       inkscape:connector-curvature="0"
       transform="scale(0.26458333)" />
    <path
       style="fill:#e3434b;fill-opacity:1;stroke-width:0.35714287"
       d="m 186.60045,315.40965 c -1.27679,-0.17611 -27.07143,-0.40178 -57.32143,-0.50149 -30.250002,-0.0997 -55.562502,-0.31127 -56.250002,-0.47014 l -1.25,-0.28884 0.127306,-8.9116 c 0.146022,-10.22181 -0.17356,-9.28384 3.955616,-11.60974 l 2.65435,-1.49515 2.167078,0.74176 c 3.257857,1.11512 4.693446,1.42859 8.465778,1.84857 5.852518,0.65156 13.047364,-0.58849 15.214884,-2.62232 l 1.15644,-1.08511 1.34356,1.12609 c 0.73896,0.61936 2.44636,1.89455 3.79423,2.83378 l 2.45068,1.70767 62.85809,-0.0772 62.8581,-0.0772 1.65007,-0.79879 c 0.90754,-0.43933 2.93944,-2.03663 4.51534,-3.54956 l 2.86528,-2.75078 2.49731,0.82744 c 4.2287,1.4011 9.13007,2.07887 14.99732,2.07386 2.94643,-0.003 6.06718,-0.17844 6.93499,-0.39094 1.52835,-0.37425 1.67963,-0.33067 4.82143,1.38885 l 3.24358,1.77523 -0.50604,9.53958 c -0.27832,5.24676 -0.65456,9.63846 -0.83609,9.75932 -0.18153,0.12086 -1.96275,0.39634 -3.95825,0.61218 -4.57717,0.49506 -85.11622,0.85437 -88.44962,0.39459 z"
       id="path79"
       inkscape:connector-curvature="0"
       transform="scale(0.26458333)" />
  </g>
  <g
     inkscape:label="Inner"
     inkscape:groupmode="layer"
     id="layer1"
     transform="translate(0,-203.60208)"
     style="display:inline">
    <path
       style="fill:none;stroke:#000000;stroke-width:2.11666656;stroke-linecap:butt;stroke-linejoin:miter;stroke-miterlimit:4;stroke-dasharray:none;stroke-opacity:1"
       d="m 38.735941,234.52356 c 4.318698,2.44406 8.896955,4.20215 15.756581,-0.0691"
       id="path873"
       inkscape:connector-curvature="0"
       sodipodi:nodetypes="cc" />
    <path
       style="fill:none;stroke:#000000;stroke-width:1.32291663;stroke-linecap:butt;stroke-linejoin:miter;stroke-miterlimit:4;stroke-dasharray:none;stroke-opacity:1"
       d="m 32.930882,237.14965 c 8.038091,5.56901 16.279611,10.14346 27.574021,-0.20734"
       id="path875"
       inkscape:connector-curvature="0"
       sodipodi:nodetypes="cc" />
    <path
       style="fill:none;stroke:#000000;stroke-width:2.11666656;stroke-linecap:butt;stroke-linejoin:miter;stroke-miterlimit:4;stroke-dasharray:none;stroke-opacity:1"
       d="m 30.373894,239.70665 c 12.479214,8.43345 22.777161,6.34549 32.135136,-0.27643"
       id="path877"
       inkscape:connector-curvature="0"
       sodipodi:nodetypes="cc" />
    <path
       style="fill:none;stroke:#000000;stroke-width:1.32291663;stroke-linecap:butt;stroke-linejoin:miter;stroke-miterlimit:4;stroke-dasharray:none;stroke-opacity:1"
       d="M 30.373894,239.70665 46.890664,249.8655 62.50903,239.43022"
       id="path881"
       inkscape:connector-curvature="0" />
    <path
       style="fill:none;stroke:#000000;stroke-width:2.11666656;stroke-linecap:butt;stroke-linejoin:miter;stroke-miterlimit:4;stroke-dasharray:none;stroke-opacity:1"
       d="m 72.736989,243.78402 c -3.149768,0.86349 -6.0176,2.50231 -8.431154,5.39039 l -0.207334,26.95207 c 0.530741,1.08293 0.521573,1.74506 2.280558,3.17894 2.058275,0.66354 5.002131,0.86137 6.876425,0.0531"
       id="path887"
       inkscape:connector-curvature="0"
       sodipodi:nodetypes="ccccc" />
    <path
       style="fill:none;stroke:#000000;stroke-width:2.11666656;stroke-linecap:butt;stroke-linejoin:miter;stroke-miterlimit:4;stroke-dasharray:none;stroke-opacity:1"
       d="m 29.613705,252.76803 c 3.79726,0.19839 1.680415,9.93253 3.524502,11.33368 5.006008,3.80356 9.246825,3.49423 13.060853,3.61079 4.913211,0.15016 9.118188,-0.22324 13.338336,-3.12704 3.328905,-2.29049 -0.151375,-10.71803 4.768439,-12.43941"
       id="path889"
       inkscape:connector-curvature="0"
       sodipodi:nodetypes="csssc" />
    <path
       style="fill:none;stroke:#000000;stroke-width:1.05833328;stroke-linecap:butt;stroke-linejoin:miter;stroke-miterlimit:4;stroke-dasharray:none;stroke-opacity:1"
       d="m 23.117573,263.54885 h 6.565241"
       id="path891"
       inkscape:connector-curvature="0" />
    <path
       style="fill:none;stroke:#000000;stroke-width:1.05833328;stroke-linecap:butt;stroke-linejoin:miter;stroke-miterlimit:4;stroke-dasharray:none;stroke-opacity:1"
       d="M 70.318215,263.68706 H 64.098511"
       id="path893"
       inkscape:connector-curvature="0" />
    <path
       style="fill:none;stroke:#000000;stroke-width:1.58749998;stroke-linecap:butt;stroke-linejoin:miter;stroke-miterlimit:4;stroke-dasharray:none;stroke-opacity:1"
       d="m 19.523964,273.43126 c 3.754859,-2.03283 6.334883,-2.27591 10.089741,-0.27643"
       id="path895"
       inkscape:connector-curvature="0"
       sodipodi:nodetypes="cc" />
    <path
       style="fill:none;stroke:#000000;stroke-width:1.13759148;stroke-linecap:butt;stroke-linejoin:miter;stroke-miterlimit:4;stroke-dasharray:none;stroke-opacity:1"
       d="m 25.39813,275.36628 v 4.4714"
       id="path899"
       inkscape:connector-curvature="0" />
    <path
       style="fill:none;stroke:#000000;stroke-width:1.05833328;stroke-linecap:butt;stroke-linejoin:miter;stroke-miterlimit:4;stroke-dasharray:none;stroke-opacity:1"
       d="m 22.184615,275.69456 v 3.48992"
       id="path901"
       inkscape:connector-curvature="0" />
    <path
       style="fill:none;stroke:#000000;stroke-width:1.58749998;stroke-linecap:butt;stroke-linejoin:miter;stroke-miterlimit:4;stroke-dasharray:none;stroke-opacity:1"
       d="m 74.013487,273.27577 c -3.754859,-2.03284 -6.334886,-2.27593 -10.089744,-0.27644"
       id="path895-3"
       inkscape:connector-curvature="0"
       sodipodi:nodetypes="cc" />
    <path
       style="fill:none;stroke:#000000;stroke-width:1.05833328;stroke-linecap:butt;stroke-linejoin:miter;stroke-miterlimit:4;stroke-dasharray:none;stroke-opacity:1"
       d="m 68.139321,275.2108 v 4.35377"
       id="path899-9"
       inkscape:connector-curvature="0"
       sodipodi:nodetypes="cc" />
    <path
       style="fill:none;stroke:#000000;stroke-width:1.05833328;stroke-linecap:butt;stroke-linejoin:miter;stroke-miterlimit:4;stroke-dasharray:none;stroke-opacity:1"
       d="m 71.352834,275.53905 v 3.48996"
       id="path901-6"
       inkscape:connector-curvature="0" />
    <path
       style="fill:none;stroke:#000000;stroke-width:1.58749998;stroke-linecap:butt;stroke-linejoin:miter;stroke-miterlimit:4;stroke-dasharray:none;stroke-opacity:1"
       d="m 29.613705,273.15483 c 2.158674,-1.82705 4.809216,-4.43034 8.214843,-4.95253 6.016828,-0.92259 11.739639,-0.46431 17.503899,0.35453 4.413926,0.62702 6.471649,2.64469 8.772704,4.46843"
       id="path924"
       inkscape:connector-curvature="0"
       sodipodi:nodetypes="cssc" />
    <path
       style="fill:none;stroke:#000000;stroke-width:1.58749998;stroke-linecap:butt;stroke-linejoin:miter;stroke-miterlimit:4;stroke-dasharray:none;stroke-opacity:1"
       d="m 27.333148,278.9599 c 1.407134,1.24236 2.72115,2.37608 3.040746,2.34965 l 32.480676,-0.0691 c 0.931177,-0.12828 2.05998,-1.71771 2.971637,-2.48788"
       id="path926"
       inkscape:connector-curvature="0"
       sodipodi:nodetypes="cccc" />
    <path
       style="fill:none;stroke:#000000;stroke-width:1.32291663;stroke-linecap:butt;stroke-linejoin:miter;stroke-miterlimit:4;stroke-dasharray:none;stroke-opacity:1"
       d="m 29.613705,273.15483 4.284687,0.0691"
       id="path928"
       inkscape:connector-curvature="0" />
    <path
       style="fill:none;stroke:#000000;stroke-width:1.32291663;stroke-linecap:butt;stroke-linejoin:miter;stroke-miterlimit:4;stroke-dasharray:none;stroke-opacity:1"
       d="m 29.682814,276.67934 4.154854,0.0199"
       id="path930"
       inkscape:connector-curvature="0"
       sodipodi:nodetypes="cc" />
    <path
       style="fill:none;stroke:#000000;stroke-width:1.32291663;stroke-linecap:butt;stroke-linejoin:miter;stroke-miterlimit:4;stroke-dasharray:none;stroke-opacity:1"
       d="m 35.90252,272.32554 c -0.689857,0.16856 -1.434192,0.0103 -2.004128,0.89841 l -0.06073,3.47563 c 0.547927,1.05861 1.333743,1.48286 2.272175,1.50011 1.164624,-0.14295 1.548203,-0.59838 2.096947,-0.98774 l 0.0454,-3.84979 c -0.874749,-1.16929 -1.599022,-0.98429 -2.349664,-1.03662 z"
       id="path934"
       inkscape:connector-curvature="0"
       sodipodi:nodetypes="ccccccc" />
    <path
       style="fill:none;stroke:#000000;stroke-width:1.32291663;stroke-linecap:butt;stroke-linejoin:miter;stroke-miterlimit:4;stroke-dasharray:none;stroke-opacity:1"
       d="m 38.252183,273.36216 9.039523,-1.3956 16.761249,1.71033"
       id="path936"
       inkscape:connector-curvature="0" />
    <path
       style="fill:none;stroke:#000000;stroke-width:1.32291663;stroke-linecap:butt;stroke-linejoin:miter;stroke-miterlimit:4;stroke-dasharray:none;stroke-opacity:1"
       d="m 38.202518,276.56001 9.528988,1.6126 16.367005,-2.04613"
       id="path938"
       inkscape:connector-curvature="0"
       sodipodi:nodetypes="ccc" />
    <path
       style="fill:none;stroke:#000000;stroke-width:1.32291663;stroke-linecap:butt;stroke-linejoin:miter;stroke-miterlimit:4;stroke-dasharray:none;stroke-opacity:1"
       d="m 40.827511,214.61696 c 6.069984,-1.22447 10.266623,0.14493 13.959778,2.21147"
       id="path864"
       inkscape:connector-curvature="0"
       sodipodi:nodetypes="cc" />
    <path
       style="fill:none;stroke:#000000;stroke-width:1.32291663;stroke-linecap:butt;stroke-linejoin:miter;stroke-miterlimit:4;stroke-dasharray:none;stroke-opacity:1"
       d="m 35.786164,221.45865 22.25272,0.13823"
       id="path866"
       inkscape:connector-curvature="0" />
    <path
       style="fill:none;stroke:#000000;stroke-width:1.32291663;stroke-linecap:butt;stroke-linejoin:miter;stroke-miterlimit:4;stroke-dasharray:none;stroke-opacity:1"
       d="m 35.626088,225.09245 22.525678,-0.0826"
       id="path868"
       inkscape:connector-curvature="0"
       sodipodi:nodetypes="cc" />
    <g
       transform="matrix(0.65776009,0,0,0.65776009,12.889614,206.24098)"
       id="g1052"
       style="stroke-width:2.01124501;stroke-miterlimit:4;stroke-dasharray:none">
      <path
         sodipodi:nodetypes="ccccc"
         inkscape:connector-curvature="0"
         id="path835"
         d="m 39.67217,32.242925 8.766509,1.337264 c -0.06418,6.848023 1.209155,8.732417 3.120283,8.469339 3.052215,-0.662408 2.307628,-4.973032 2.823113,-8.17217 l 8.320755,-1.188679"
         style="display:inline;fill:none;stroke:#000000;stroke-width:2.01124501;stroke-linecap:butt;stroke-linejoin:miter;stroke-miterlimit:4;stroke-dasharray:none;stroke-opacity:1" />
      <path
         inkscape:connector-curvature="0"
         id="path837"
         d="m 40.712264,35.660377 h 7.726415"
         style="display:inline;fill:none;stroke:#000000;stroke-width:2.01124501;stroke-linecap:butt;stroke-linejoin:miter;stroke-miterlimit:4;stroke-dasharray:none;stroke-opacity:1" />
      <path
         inkscape:connector-curvature="0"
         id="path839"
         d="M 60.622642,35.808962 H 54.233491"
         style="display:inline;fill:none;stroke:#000000;stroke-width:2.01124501;stroke-linecap:butt;stroke-linejoin:miter;stroke-miterlimit:4;stroke-dasharray:none;stroke-opacity:1" />
    </g>
    <path
       sodipodi:nodetypes="ccccc"
       inkscape:connector-curvature="0"
       id="path2065"
       d="m 20.028352,244.31184 c 3.149768,0.86349 6.418504,2.8364 8.832058,5.72448 l 0.207334,26.95207 c -0.530741,1.08293 -0.521573,1.74506 -2.280558,3.17894 -2.058275,0.66354 -3.99987,0.39365 -5.874164,-0.41464"
       style="fill:none;stroke:#000000;stroke-width:2.11666656;stroke-linecap:butt;stroke-linejoin:miter;stroke-miterlimit:4;stroke-dasharray:none;stroke-opacity:1" />
    <path
       style="fill:#e3434b;fill-opacity:1;stroke-width:0.35714287"
       d="m 166.77902,208.54733 c -5.10714,-4.35 -22.78199,-19.40613 -39.27744,-33.45807 -16.49544,-14.05194 -30.309626,-25.81017 -30.698179,-26.12939 -0.687815,-0.56509 -0.668973,-0.59953 0.713974,-1.30506 1.278035,-0.652 1.502925,-0.98078 2.243296,-3.27955 0.452569,-1.4052 0.966319,-2.50542 1.141669,-2.44495 0.17534,0.0605 3.89968,3.16053 8.27631,6.88899 56.72234,48.32191 67.03172,56.97098 67.90733,56.97098 0.13313,0 17.09643,-14.032 37.69622,-31.18222 l 37.45416,-31.18222 1.05782,1.62865 c 0.5818,0.89575 1.24045,1.97624 1.46367,2.40109 0.22321,0.42484 1.05254,0.98801 1.84295,1.25148 l 1.43712,0.47904 -34.37945,28.62704 c -41.76767,34.77906 -46.62594,38.7452 -47.36517,38.66735 -0.12571,-0.0132 -4.40713,-3.58316 -9.51428,-7.93316 z"
       id="path76"
       inkscape:connector-curvature="0"
       transform="matrix(0.26458333,0,0,0.26458333,0,203.60208)" />
  </g>
</svg>
