<?xml version="1.0" encoding="UTF-8" standalone="no"?>
<!-- Created with Inkscape (http://www.inkscape.org/) -->

<svg
   xmlns:dc="http://purl.org/dc/elements/1.1/"
   xmlns:cc="http://creativecommons.org/ns#"
   xmlns:rdf="http://www.w3.org/1999/02/22-rdf-syntax-ns#"
   xmlns:svg="http://www.w3.org/2000/svg"
   xmlns="http://www.w3.org/2000/svg"
   xmlns:sodipodi="http://sodipodi.sourceforge.net/DTD/sodipodi-0.dtd"
   xmlns:inkscape="http://www.inkscape.org/namespaces/inkscape"
   width="353"
   height="353"
   viewBox="0 0 93.397917 93.397917"
   version="1.1"
   id="svg8022"
   sodipodi:docname="wN.svg"
   inkscape:version="0.92.4 5da689c313, 2019-01-14">
  <defs
     id="defs8016" />
  <sodipodi:namedview
     id="base"
     pagecolor="#ffffff"
     bordercolor="#666666"
     borderopacity="1.0"
     inkscape:pageopacity="0.0"
     inkscape:pageshadow="2"
     inkscape:zoom="1.979899"
     inkscape:cx="150.55086"
     inkscape:cy="155.49963"
     inkscape:document-units="mm"
     inkscape:current-layer="layer1"
     showgrid="false"
     units="px"
     inkscape:window-width="960"
     inkscape:window-height="1060"
     inkscape:window-x="0"
     inkscape:window-y="20"
     inkscape:window-maximized="0" />
  <metadata
     id="metadata8019">
    <rdf:RDF>
      <cc:Work
         rdf:about="">
        <dc:format>image/svg+xml</dc:format>
        <dc:type
           rdf:resource="http://purl.org/dc/dcmitype/StillImage" />
        <dc:title />
      </cc:Work>
    </rdf:RDF>
  </metadata>
  <g
     inkscape:label="Layer 1"
     inkscape:groupmode="layer"
     id="layer1"
     transform="translate(0,-203.60208)">
    <path
       style="fill:#de8787;stroke:#000000;stroke-width:2.11666656;stroke-linecap:butt;stroke-linejoin:miter;stroke-miterlimit:4;stroke-dasharray:none;stroke-opacity:1"
       d="m 21.976798,213.36813 c -2.079648,-0.0877 -4.344132,0.83962 -6.794869,2.79309 1.312196,2.54845 3.666987,5.00934 2.296978,7.78134 -2.588523,0.2844 -3.19546,0.89944 -4.464913,1.4037 -1.558694,7.34242 -1.451989,14.01846 -1.914149,20.92228 0.778379,0.70627 1.228226,0.75475 1.786538,1.02089 3.388372,-2.98077 6.860792,-5.45594 10.025265,-9.78009 1.935219,-1.13589 4.957697,-0.23945 4.900795,-4.2527 1.765677,-0.67509 2.283228,0.2081 2.401647,0.94487 -26.2014623,18.95205 -18.240839,24.49331 -8.39788,34.23388 -1.43095,2.0159 -3.892322,4.29027 -6.251452,6.53821 -1.024938,4.16746 -0.779877,8.33403 -0.382829,12.50147 0.209844,0.34205 0.483824,0.64177 1.403709,0.51044 l 61.873607,0.25527 c 0.425253,-0.18007 0.850847,-0.0505 1.276098,-0.89326 l 0.382827,-10.71638 c -0.680401,-1.47406 -1.361357,-1.73604 -2.041758,-2.0403 -1.94802,-0.0669 -3.821237,-0.35449 -5.994797,0.25526 0.37452,-1.55284 0.74715,-3.10739 2.295546,-3.9559 0.04908,-2.22277 -1.051815,-2.43089 -1.912716,-3.0612 9.266963,-6.88719 5.284522,-14.89766 0.636618,-22.96405 4.108953,6.27619 8.153423,12.46787 2.169367,22.83645 2.814453,0.77567 4.694554,0.30554 6.506674,-0.25526 0.821741,-7.44023 0.581122,-14.43494 0.1276,-21.56033 -2.916394,-5.12748 -6.623742,-8.89962 -12.885733,-8.29179 -7.40031,3.03279 -14.365407,8.15952 -24.111105,7.3985 -2.979254,-1.16761 -4.553778,-3.9746 -6.123844,-6.78625 4.50979,-9.72323 5.364197,-15.46715 -9.695485,-19.49421 -2.068444,-3.44218 -4.43791,-5.23131 -7.111744,-5.34385 z m 11.488758,51.79292 1.337583,1.27824 c 1.477836,1.61307 5.549731,3.26928 7.222404,3.34914 1.499763,-0.17923 8.714977,-1.81382 10.495908,-2.26064 0.793258,3.85768 4.887366,4.16932 8.029387,5.503 l -5.322337,3.24759 -24.807941,-0.3599 5.864321,-5.05278 -2.406386,-4.44897 c -0.185343,-0.5446 -0.567358,-1.01338 -0.412939,-1.25568 z"
       id="path3446"
       inkscape:connector-curvature="0"
       sodipodi:nodetypes="scccccccccccccccccccccccccccscccccccccc" />
    <path
       style="fill:none;stroke:#000000;stroke-width:2.11666656;stroke-linecap:butt;stroke-linejoin:miter;stroke-miterlimit:4;stroke-dasharray:none;stroke-opacity:1"
       d="m 15.182592,279.31053 64.680494,0.25527"
       id="path3467"
       inkscape:connector-curvature="0" />
    <path
       style="fill:none;stroke:#000000;stroke-width:1.32291663;stroke-linecap:butt;stroke-linejoin:miter;stroke-miterlimit:4;stroke-dasharray:none;stroke-opacity:1"
       d="m 22.482474,216.83099 c 2.465162,0.83115 3.507939,2.90689 4.05941,5.41254 l 4.781084,0.18035"
       id="path3453"
       inkscape:connector-curvature="0"
       sodipodi:nodetypes="ccc" />
    <path
       style="fill:none;stroke:#000000;stroke-width:1.32291663;stroke-linecap:butt;stroke-linejoin:miter;stroke-miterlimit:4;stroke-dasharray:none;stroke-opacity:1"
       d="m 26.812512,225.58124 c 1.319948,1.37371 2.780088,2.72405 2.706273,4.33005"
       id="path3455"
       inkscape:connector-curvature="0"
       sodipodi:nodetypes="cc" />
    <path
       style="fill:#de8787;stroke:#000000;stroke-width:1.58749998;stroke-linecap:butt;stroke-linejoin:miter;stroke-miterlimit:4;stroke-dasharray:none;stroke-opacity:1"
       d="m 55.814741,271.45259 -1.217824,0.90208 -1.668869,0.36084 -18.086926,-0.27053 -4.420562,3.47362 24.807941,0.3599 5.322337,-3.2476 z"
       id="path3465"
       inkscape:connector-curvature="0"
       sodipodi:nodetypes="cccccccc" />
    <path
       style="display:inline;fill:none;stroke:#000000;stroke-width:1.58749998;stroke-linecap:butt;stroke-linejoin:miter;stroke-miterlimit:4;stroke-dasharray:none;stroke-opacity:1"
       d="m 12.514369,253.36565 c 1.071696,4.8531 5.932558,10.88738 11.621838,12.56152 2.002823,0.58939 2.782536,1.78541 3.172455,2.81914 -1.452052,3.91745 -3.414635,5.14785 -6.269533,6.81079 -2.477694,-0.33271 -2.964865,-1.79215 -3.247529,-2.79648"
       id="path3457"
       inkscape:connector-curvature="0"
       sodipodi:nodetypes="csccc" />
    <path
       style="display:inline;fill:none;stroke:#000000;stroke-width:1.32291663;stroke-linecap:butt;stroke-linejoin:miter;stroke-miterlimit:4;stroke-dasharray:none;stroke-opacity:1"
       d="m 77.555138,262.27382 c -0.248078,0.0677 -9.517064,3.42795 -9.674928,3.5407 -0.157875,0.11265 -1.736526,2.02968 -1.826734,2.21012 -0.0902,0.18035 8.276686,2.36799 8.276686,2.36799"
       id="path3461"
       inkscape:connector-curvature="0" />
    <path
       style="fill:#e3434b;fill-opacity:1;stroke-width:0.50507629"
       d="m 125.06976,282.28266 c -60.52956,-0.12306 -64.018475,-0.17821 -64.019447,-1.0121 -5.65e-4,-0.48507 0.369037,-2.81387 0.821339,-5.1751 0.747337,-3.90145 0.998877,-4.44645 2.757011,-5.97341 l 1.934646,-1.68028 1.872291,1.8723 c 2.275877,2.27588 6.335297,4.20824 9.623085,4.58079 2.266111,0.25678 2.740929,0.0918 6.731241,-2.33885 10.85144,-6.60999 16.471864,-12.88639 20.459544,-22.84745 1.57223,-3.92735 1.36738,-5.1967 -1.48635,-9.21054 -3.05338,-4.29465 -5.738938,-5.97037 -14.565586,-9.08859 -12.921463,-4.56481 -27.139937,-18.00582 -34.45484,-32.57085 -3.215902,-6.40333 -3.388098,-7.16984 -2.540721,-11.30965 1.039747,-5.07962 5.429886,-13.60575 10.440921,-20.2774 8.525834,-11.35123 25.684615,-27.05386 46.013716,-42.10882 l 9.97708,-7.38866 -0.29934,-2.27284 c -0.91996,-6.98527 -6.35511,-9.98494 -13.77119,-7.60034 l -3.48345,1.12007 -0.23477,3.61895 c -0.40436,6.23322 -1.438137,7.2406 -9.659367,9.41271 -2.177129,0.57521 -4.702146,1.43884 -5.611149,1.91918 -0.909002,0.48034 -3.48505,3.14618 -5.724551,5.9241 -2.2395,2.77792 -6.760297,7.69717 -10.046215,10.93166 -6.998376,6.88884 -21.217223,19.12038 -22.226946,19.12038 -0.384566,0 -0.818799,-0.31164 -0.964963,-0.69254 -0.28086,-0.73191 0.95327,-27.319 1.84344,-39.71356 1.134724,-15.7997 3.661107,-32.986288 5.053587,-34.378768 1.205824,-1.205824 5.84474,-2.857178 9.912992,-3.528812 1.890873,-0.312167 3.917518,-0.657456 4.503656,-0.76731 1.702502,-0.319081 3.316887,-4.720787 3.598842,-9.812434 0.304025,-5.490209 -0.721155,-8.731138 -5.257575,-16.620906 l -3.312872,-5.761767 1.195335,-0.937048 c 2.325314,-1.822863 10.004393,-5.391828 12.890232,-5.990926 4.545287,-0.943597 9.543841,-0.421572 13.445365,1.404171 4.33858,2.030267 10.380969,7.798471 13.991779,13.356874 l 2.74377,4.223705 6.58875,1.897854 c 8.52074,2.454352 19.00215,6.698752 24.1505,9.779638 6.88511,4.1202 12.02293,9.484313 13.8179,14.426491 3.15252,8.68003 1.09022,19.550858 -7.2227,38.072468 l -2.74717,6.12084 2.87864,4.99083 c 7.02493,12.17942 13.02123,18.99728 19.91662,22.6454 3.65449,1.93346 3.96198,2.00386 9.63653,2.20618 10.2089,0.36398 22.62375,-1.37746 33.64694,-4.71971 7.60282,-2.30518 17.82335,-6.5874 33.6388,-14.09405 21.93432,-10.41091 19.51676,-9.56773 26.49637,-9.24134 4.59735,0.21498 6.79616,0.57974 9.84439,1.63312 9.37481,3.23963 18.37465,11.53293 25.75579,23.73383 l 1.83333,3.03046 0.62627,11.11168 c 1.11575,19.79638 0.57482,59.95945 -0.8752,64.98288 -0.39152,1.35638 -8.57396,2.82595 -12.26374,2.20256 l -1.97891,-0.33433 2.16178,-4.63621 c 4.56895,-9.79867 6.82723,-19.60959 6.82723,-29.66033 0,-10.80606 -2.31496,-19.70476 -8.07477,-31.03934 -3.65493,-7.19243 -11.56018,-19.95052 -12.36188,-19.95052 -0.38384,0 -5.71975,3.02708 -6.76158,3.83588 -0.0971,0.0754 1.42544,3.05022 3.38354,6.61066 13.69224,24.89676 17.27363,39.438 12.94153,52.54558 l -1.3076,3.95638 -6.91534,2.46013 c -14.48271,5.15221 -25.62583,9.47554 -26.54078,10.29732 -2.204,1.97958 -7.39613,8.9813 -7.39613,9.97388 0,0.59254 0.39775,1.43617 0.88388,1.87474 0.96757,0.8729 8.56554,3.27291 19.57171,6.18223 3.88909,1.02803 7.15084,1.94402 7.24834,2.03555 0.0975,0.0915 -0.38793,0.92001 -1.07873,1.84108 -2.2479,2.9972 -3.49817,6.07809 -5.1833,12.77265 -0.91092,3.61883 -1.58285,6.65385 -1.49318,6.7445 0.0897,0.0906 2.39961,-0.44334 5.13318,-1.18664 5.66006,-1.53904 12.09111,-2.06073 18.65895,-1.51364 4.24769,0.35384 4.56394,0.46333 6.12788,2.12159 1.50969,1.60073 1.64905,2.0229 1.64905,4.99553 v 3.24703 l -54.67451,-0.12431 c -30.07098,-0.0684 -83.48279,-0.18289 -118.69292,-0.25448 z m 98.67005,-11.80284 c 7.77533,-4.75536 14.0623,-8.72078 13.97103,-8.81204 -0.52007,-0.52007 -11.60905,-4.88346 -16.55413,-6.51386 -7.58215,-2.49985 -13.19827,-5.41128 -15.39993,-7.98343 -1.71562,-2.00432 -2.92093,-4.90163 -3.56808,-8.57694 -0.18343,-1.04172 -0.62328,-1.89404 -0.97747,-1.89404 -0.35418,0 -4.36318,0.89717 -8.90888,1.9937 -12.42251,2.99659 -31.93531,7.09768 -33.77051,7.09768 -2.4987,0 -10.31562,-2.81249 -15.88248,-5.71442 -4.22099,-2.20036 -5.97384,-3.53329 -10.95822,-8.33306 l -5.93349,-5.71372 -1.55085,2.68326 c -0.85296,1.47579 -1.68829,3.20451 -1.85629,3.84159 -0.40939,1.55249 0.85104,4.7502 4.62004,11.72112 1.72725,3.19461 3.50919,6.53047 3.95988,7.41303 l 0.81942,1.60465 -13.63098,11.7329 c -7.49703,6.4531 -13.63097,11.89377 -13.63097,12.09036 0,0.1966 13.58024,0.53423 30.17831,0.75029 32.87247,0.42791 70.60954,1.03105 73.2656,1.17099 1.35439,0.0714 4.34986,-1.55032 15.808,-8.55806 z M 114.08435,98.146051 c 0,-3.896482 -3.40823,-9.721816 -8.70235,-14.874027 l -2.21657,-2.157145 -1.97397,1.706362 -1.97397,1.706362 3.30187,3.733779 c 4.11707,4.655634 5.19498,6.232371 6.00537,8.784542 0.90006,2.834569 0.83242,2.777919 3.31659,2.777919 2.20384,0 2.24303,-0.02929 2.24303,-1.677792 z m 4.44323,-26.950546 0.15008,-2.53751 -3.12836,-0.326979 c -1.72059,-0.179838 -5.3591,-0.326978 -8.08557,-0.326978 h -4.9572 l -0.56499,-2.146574 c -1.18773,-4.512593 -4.10115,-9.645383 -7.255991,-12.783445 -2.667695,-2.653505 -6.04677,-4.843069 -8.286615,-5.369538 -0.391582,-0.09204 -1.044311,0.826668 -1.591548,2.240085 l -0.927713,2.396117 3.0189,1.609057 c 5.067653,2.70103 8.522408,7.870795 10.350817,15.489167 l 0.867817,3.615894 2.048923,0.06521 c 1.12691,0.03586 5.45819,0.220759 9.62507,0.41088 4.16688,0.190121 7.80343,0.313377 8.08122,0.273901 0.27779,-0.03948 0.57262,-1.213653 0.65516,-2.609283 z"
       id="path14"
       inkscape:connector-curvature="0"
       transform="matrix(0.26458333,0,0,0.26458333,0,203.60208)" />
    <path
       style="fill:#e3434b;fill-opacity:1;stroke-width:0.50507629"
       d="m 76.203629,267.71407 c -1.878121,-0.8135 -4.545686,-3.10408 -4.545686,-3.90327 0,-0.2634 2.350817,-2.91216 5.224038,-5.88612 2.873221,-2.97397 6.533441,-7.17779 8.133823,-9.34183 l 2.909784,-3.93461 -6.239786,-6.30408 c -3.431883,-3.46724 -6.012503,-6.21961 -5.734711,-6.11638 0.277792,0.10323 2.405902,1.16708 4.729134,2.3641 2.323231,1.19702 6.187065,2.8691 8.586296,3.71573 4.82285,1.70187 7.491653,3.38355 9.104083,5.73674 1.377602,2.01048 1.344623,2.7455 -0.266077,5.93021 -2.218332,4.38612 -5.03286,8.18283 -8.115745,10.94789 -2.921668,2.62046 -10.495485,7.61451 -11.491194,7.5771 -0.289406,-0.0109 -1.321687,-0.36434 -2.293959,-0.78548 z"
       id="path16"
       inkscape:connector-curvature="0"
       transform="matrix(0.26458333,0,0,0.26458333,0,203.60208)" />
    <path
       style="fill:#e3434b;fill-opacity:1;stroke-width:0.50507629"
       d="m 162.48734,270.83385 c -20.46408,-0.30072 -37.3286,-0.668 -37.4767,-0.81618 -0.1481,-0.14818 1.54628,-1.70526 3.76528,-3.46017 l 4.03456,-3.19075 33.77414,0.57267 c 30.87784,0.52356 34.08888,0.50108 37.44433,-0.2621 2.16305,-0.49197 4.47258,-1.41602 5.62418,-2.25023 l 1.95399,-1.41546 4.14536,1.39647 c 2.27994,0.76807 4.462,1.4999 4.84902,1.62631 0.38703,0.1264 -2.3677,2.09407 -6.12159,4.3726 l -6.82527,4.14277 -3.97993,-0.0846 c -2.18896,-0.0465 -20.72328,-0.33062 -41.18737,-0.63134 z"
       id="path18"
       inkscape:connector-curvature="0"
       transform="matrix(0.26458333,0,0,0.26458333,0,203.60208)" />
    <path
       style="fill:#e3434b;fill-opacity:1;stroke-width:0.50507629"
       d="m 263.12228,244.84901 c -4.56132,-1.29308 -8.35799,-2.5761 -8.43703,-2.85116 -0.079,-0.27506 0.69826,-1.44817 1.72734,-2.60691 1.74095,-1.96032 2.6937,-2.40767 13.70359,-6.43437 6.5079,-2.38017 11.94973,-4.2104 12.09295,-4.06718 0.45237,0.45237 -5.56218,6.25983 -10.28844,9.93418 -2.50013,1.94369 -4.60767,3.69693 -4.68343,3.8961 -0.0758,0.19917 1.11748,1.22664 2.65165,2.28326 1.53416,1.05662 2.78939,2.00709 2.78939,2.11215 0,0.37844 -1.39138,0.0485 -9.55602,-2.26607 z"
       id="path20"
       inkscape:connector-curvature="0"
       transform="matrix(0.26458333,0,0,0.26458333,0,203.60208)" />
    <path
       style="fill:#e3434b;fill-opacity:1;stroke-width:0.50507629"
       d="m 194.34141,315.27299 c -0.12013,-0.12014 -30.028,-0.26669 -66.46193,-0.32568 l -66.243501,-0.10725 -0.306578,-1.06329 c -0.168619,-0.5848 -0.449426,-6.14021 -0.624017,-12.34536 l -0.317437,-11.28208 34.550615,0.30149 c 19.002838,0.16582 72.467308,0.44103 118.809938,0.61157 l 84.25932,0.31008 -0.35492,11.68066 c -0.1952,6.42437 -0.45294,11.85113 -0.57274,12.05948 -0.22473,0.39083 -102.34887,0.55025 -102.73875,0.16038 z"
       id="path22"
       inkscape:connector-curvature="0"
       transform="matrix(0.26458333,0,0,0.26458333,0,203.60208)" />
  </g>
</svg>
