<?xml version="1.0" encoding="UTF-8" standalone="no"?>
<!-- Created with Inkscape (http://www.inkscape.org/) -->

<svg
   xmlns:dc="http://purl.org/dc/elements/1.1/"
   xmlns:cc="http://creativecommons.org/ns#"
   xmlns:rdf="http://www.w3.org/1999/02/22-rdf-syntax-ns#"
   xmlns:svg="http://www.w3.org/2000/svg"
   xmlns="http://www.w3.org/2000/svg"
   xmlns:sodipodi="http://sodipodi.sourceforge.net/DTD/sodipodi-0.dtd"
   xmlns:inkscape="http://www.inkscape.org/namespaces/inkscape"
   width="353"
   height="353"
   viewBox="0 0 93.397917 93.397917"
   version="1.1"
   id="svg8022"
   sodipodi:docname="wP.svg"
   inkscape:version="0.92.4 5da689c313, 2019-01-14">
  <defs
     id="defs8016" />
  <sodipodi:namedview
     id="base"
     pagecolor="#ffffff"
     bordercolor="#666666"
     borderopacity="1.0"
     inkscape:pageopacity="0.0"
     inkscape:pageshadow="2"
     inkscape:zoom="1.979899"
     inkscape:cx="208.44883"
     inkscape:cy="172.56243"
     inkscape:document-units="mm"
     inkscape:current-layer="layer1"
     showgrid="false"
     units="px"
     inkscape:window-width="960"
     inkscape:window-height="1060"
     inkscape:window-x="0"
     inkscape:window-y="20"
     inkscape:window-maximized="0" />
  <metadata
     id="metadata8019">
    <rdf:RDF>
      <cc:Work
         rdf:about="">
        <dc:format>image/svg+xml</dc:format>
        <dc:type
           rdf:resource="http://purl.org/dc/dcmitype/StillImage" />
        <dc:title />
      </cc:Work>
    </rdf:RDF>
  </metadata>
  <g
     inkscape:label="Layer 1"
     inkscape:groupmode="layer"
     id="layer1"
     transform="translate(0,-203.60208)">
    <path
       style="fill:#de8787;stroke:#24221c;stroke-width:2.11666667;stroke-linecap:butt;stroke-linejoin:miter;stroke-opacity:1;stroke-miterlimit:4;stroke-dasharray:none"
       d="m 53.586772,223.42317 c 1.125422,-4.8631 0.579205,-10.39744 -8.454212,-10.37229 -6.679097,1.7156 -8.910751,7.32203 -8.756888,9.14637 0.288705,1.09755 0.915916,1.51805 1.529544,1.96574 -0.645112,0.85678 -1.320989,1.60012 -1.629849,2.13134 -0.421217,0.72448 1.821797,9.59549 2.695519,11.22088 -4.21272,1.95334 -6.819786,5.04698 -8.023869,9.84179 v 15.79699 c 0.607988,3.57311 1.08265,7.14627 4.450742,10.71939 -2.248269,6.47851 -2.803978,10.52398 -2.382087,13.16415 3.423248,3.01307 15.60172,1.41809 24.823845,1.3791 1.121921,-0.30695 2.176689,-0.93328 3.071635,-2.31939 l -0.814923,-11.47162 c 0.647761,-0.60149 1.295521,-1.40492 1.943279,-2.50748 0.931428,-9.02684 0.271178,-18.0537 0.313427,-27.08056 -2.235801,-3.81034 -3.731561,-8.27371 -8.65073,-9.71639 0.481911,-3.89168 0.569907,-7.83961 -0.115449,-11.89802 z"
       id="path2214"
       inkscape:connector-curvature="0"
       sodipodi:nodetypes="ccccscccccccccccc" />
    <path
       style="display:inline;fill:none;stroke:#24221c;stroke-width:2.11666667;stroke-linecap:butt;stroke-linejoin:miter;stroke-opacity:1;stroke-miterlimit:4;stroke-dasharray:none"
       d="m 37.905216,224.16299 c 4.388902,0.59167 9.406334,0.55481 15.681556,-0.73982"
       id="path2225"
       inkscape:connector-curvature="0"
       sodipodi:nodetypes="cc" />
    <path
       style="display:inline;fill:none;stroke:#24221c;stroke-width:1.32291667;stroke-linecap:butt;stroke-linejoin:miter;stroke-opacity:1;stroke-miterlimit:4;stroke-dasharray:none"
       d="m 48.944601,216.24234 c 1.64138,2.36068 1.818585,4.91232 -1.950348,7.97868"
       id="path2227"
       inkscape:connector-curvature="0"
       sodipodi:nodetypes="cc" />
    <path
       style="display:inline;fill:none;stroke:#24221c;stroke-width:1.5875;stroke-linecap:butt;stroke-linejoin:miter;stroke-opacity:1;stroke-miterlimit:4;stroke-dasharray:none"
       d="m 39.990743,229.00824 c 1.427474,0.66642 2.956324,0.52183 4.166644,2.92551 l -0.08867,4.69857 c 0.709218,0.44039 1.418435,0.41654 2.127653,-0.0887 0.06884,-2.11278 -0.310329,-3.88958 0.620563,-6.64891 1.184222,-1.60992 2.674269,-1.07906 4.077993,-1.15246"
       id="path2229"
       inkscape:connector-curvature="0"
       sodipodi:nodetypes="cccccc" />
    <path
       style="display:inline;fill:none;stroke:#24221c;stroke-width:1.32291667;stroke-linecap:butt;stroke-linejoin:miter;stroke-opacity:1;stroke-miterlimit:4;stroke-dasharray:none"
       d="M 40.434,232.37702 43.935757,232.51"
       id="path2231"
       inkscape:connector-curvature="0"
       sodipodi:nodetypes="cc" />
    <path
       style="display:inline;fill:none;stroke:#24221c;stroke-width:1.5875;stroke-linecap:butt;stroke-linejoin:miter;stroke-opacity:1;stroke-miterlimit:4;stroke-dasharray:none"
       d="m 46.285036,232.51 3.989345,-0.84219"
       id="path2233"
       inkscape:connector-curvature="0" />
    <path
       style="display:inline;fill:none;stroke:#24221c;stroke-width:1.5875;stroke-linecap:butt;stroke-linejoin:miter;stroke-opacity:1;stroke-miterlimit:4;stroke-dasharray:none"
       d="m 38.970886,237.51521 c 3.233007,4.7148 9.388715,8.90848 14.731322,-2.19402"
       id="path2235"
       inkscape:connector-curvature="0"
       sodipodi:nodetypes="cc" />
    <path
       style="display:inline;fill:none;stroke:#24221c;stroke-width:1.05833333;stroke-linecap:butt;stroke-linejoin:miter;stroke-opacity:1;stroke-miterlimit:4;stroke-dasharray:none"
       d="m 36.400741,258.64055 -2.69552,-0.12522 -0.125357,-16.54924"
       id="path2237"
       inkscape:connector-curvature="0"
       sodipodi:nodetypes="ccc" />
    <path
       style="display:inline;fill:none;stroke:#24221c;stroke-width:1.05833333;stroke-linecap:butt;stroke-linejoin:miter;stroke-opacity:1;stroke-miterlimit:4;stroke-dasharray:none"
       d="m 43.985804,241.96596 c 1.152649,0.68954 2.351175,1.44178 4.576113,2.13134 3.799965,-1.56365 8.071114,-4.97242 8.964167,-4.95225 1.893612,0.87502 2.255437,2.0564 2.507456,3.25973 -1.235691,2.40843 -3.198445,3.54449 -5.077602,4.82685 l -13.916399,0.18817"
       id="path2239"
       inkscape:connector-curvature="0"
       sodipodi:nodetypes="cccccc" />
    <path
       style="display:inline;fill:none;stroke:#24221c;stroke-width:1.32291667;stroke-linecap:butt;stroke-linejoin:miter;stroke-opacity:1;stroke-miterlimit:4;stroke-dasharray:none"
       d="m 36.087311,273.68531 3.698502,-0.0627 c 0.955369,-0.97318 1.119183,-1.68252 1.629845,-2.50745 -0.06068,-2.94026 0.02098,-5.45345 0.125358,-7.89851 3.086711,-1.16315 4.897002,-1.14566 7.208947,-1.3791 l -5.767158,-0.43882 c -0.946839,-0.37478 -1.559285,-1.52979 -2.005964,-3.07162 l 0.06268,-10.90746 -2.382085,-5.70446 c -0.880145,0.01 -1.730181,0.16687 -2.444776,1.003 l 2.319401,6.26863 c 0.117451,7.39702 0.289511,14.794 0.250748,22.19102 z"
       id="path2241"
       inkscape:connector-curvature="0"
       sodipodi:nodetypes="ccccccccccccc" />
    <path
       style="display:inline;fill:none;stroke:#24221c;stroke-width:1.05833333;stroke-linecap:butt;stroke-linejoin:miter;stroke-opacity:1;stroke-miterlimit:4;stroke-dasharray:none"
       d="m 39.785813,273.62263 1.379101,1.31641 c 0.125744,2.56903 0.0394,5.2101 0.438803,8.21194 l 10.468642,-0.0627 2.444772,-1.50446 -0.438805,-25.76414 c -0.288381,-1.96319 1.106932,-2.45309 2.068657,-3.3224 l 6.205958,-0.18817"
       id="path2243"
       inkscape:connector-curvature="0"
       sodipodi:nodetypes="cccccccc" />
    <path
       style="display:inline;fill:none;stroke:#24221c;stroke-width:1.05833333;stroke-linecap:butt;stroke-linejoin:miter;stroke-opacity:1;stroke-miterlimit:4;stroke-dasharray:none"
       d="m 56.146983,252.49727 c -1.653042,0.12169 -3.437294,0.0259 -3.635817,2.57016 l -0.752241,18.80595 c 0.51674,1.2498 1.735387,1.08339 2.570147,1.3791"
       id="path2245"
       inkscape:connector-curvature="0"
       sodipodi:nodetypes="cccc" />
    <path
       style="display:inline;fill:none;stroke:#24221c;stroke-width:1.05833333;stroke-linecap:butt;stroke-linejoin:miter;stroke-opacity:1;stroke-miterlimit:4;stroke-dasharray:none"
       d="m 52.135047,263.21667 -7.208947,0.12522 -1.817904,2.13135 2.256712,9.77907 9.653716,-0.43879"
       id="path2247"
       inkscape:connector-curvature="0" />
    <path
       style="display:inline;fill:none;stroke:#24221c;stroke-width:1.05833333;stroke-linecap:butt;stroke-linejoin:miter;stroke-opacity:1;stroke-miterlimit:4;stroke-dasharray:none"
       d="m 41.603717,283.15098 c 1.054604,-3.42933 2.209349,-6.45812 3.761191,-7.8985"
       id="path2249"
       inkscape:connector-curvature="0"
       sodipodi:nodetypes="cc" />
    <path
       style="fill:#e3434b;fill-opacity:1;stroke-width:0.50507629"
       d="m 149.50642,74.218715 c -4.26877,-0.443624 -4.64568,-0.579053 -6.18718,-2.223178 -1.96554,-2.096391 -2.02901,-3.177465 -0.44304,-7.546745 3.514,-9.680984 11.73431,-17.979281 22.33929,-22.55123 3.70924,-1.599106 4.34302,-1.715398 9.03967,-1.658687 11.9553,0.144359 20.27935,4.321347 23.79944,11.942499 1.4017,3.034764 1.45438,3.428429 1.45438,10.86979 0,5.611498 -0.17164,7.827024 -0.62821,8.109091 -0.77503,0.478802 -11.75479,2.259862 -12.05859,1.95606 -0.12075,-0.120746 0.58252,-1.41139 1.56281,-2.868097 4.52488,-6.723949 4.3218,-15.689367 -0.52354,-23.112796 l -0.73344,-1.123688 -2.16543,1.526332 -2.16542,1.526331 1.75835,3.542359 c 3.30066,6.649488 2.15987,12.076628 -3.93046,18.698543 l -2.95946,3.217776 -11.80674,0.08402 c -6.49371,0.04621 -13.8523,-0.12856 -16.35243,-0.38838 z"
       id="path21"
       inkscape:connector-curvature="0"
       transform="matrix(0.26458333,0,0,0.26458333,0,203.60208)" />
    <path
       style="fill:#e3434b;fill-opacity:1;stroke-width:0.50507629"
       d="m 171.2247,143.1596 c -7.39952,-1.78525 -15.47539,-8.06636 -19.08792,-14.8459 -3.06063,-5.74379 -8.03489,-23.09706 -10.22892,-35.68475 l -0.89375,-5.127633 1.93566,-2.636894 1.93565,-2.636894 3.06812,0.308048 c 7.50416,0.753439 19.75562,0.919163 27.31177,0.369443 7.20766,-0.524368 20.84532,-2.222425 23.05871,-2.871095 0.71778,-0.210358 0.8955,0.450898 1.26269,4.698312 0.6227,7.202941 0.47887,22.091093 -0.28929,29.944403 -0.65593,6.70594 -0.7054,6.88372 -2.99579,10.76669 -4.98315,8.4481 -11.49914,14.97527 -16.73448,16.76317 -2.48303,0.84797 -6.75517,1.33605 -8.34245,0.9531 z m 4.14299,-15.41425 c 2.46037,-1.52059 2.81375,-2.85862 2.45112,-9.28064 -0.17255,-3.05571 -0.13582,-5.8053 0.0816,-6.1102 0.21744,-0.3049 3.00911,-1.07937 6.20372,-1.72104 3.19461,-0.64168 6,-1.33387 6.2342,-1.53822 0.60427,-0.52722 -0.62644,-6.03763 -1.34552,-6.02443 -0.32754,0.006 -2.62958,0.46058 -5.11563,1.01015 -2.48606,0.54957 -4.68376,0.99922 -4.88378,0.99922 -0.58321,0 0.58553,-3.69667 1.49912,-4.74166 1.4212,-1.625603 3.88855,-2.329408 8.16628,-2.329408 h 4.08204 l -0.15148,-2.904189 -0.15147,-2.904188 -4.54569,-0.152001 c -5.83085,-0.194974 -8.28367,0.508698 -11.33453,3.251688 -3.54527,3.187503 -4.67326,7.494768 -4.97505,18.997398 -0.17744,6.76308 -0.36224,8.46003 -0.92129,8.46003 -0.56799,0 -0.69934,-1.59414 -0.69934,-8.48741 v -8.48742 l -1.48068,-2.24545 c -3.20056,-4.853652 -5.48449,-6.578511 -11.68241,-8.822718 l -4.57199,-1.655477 -1.24566,2.816652 c -1.41074,3.189928 -1.43311,3.151043 2.56576,4.460083 3.71129,1.2149 7.06399,3.13464 8.23089,4.71295 l 1.02655,1.38848 -4.9544,-0.23857 -4.95439,-0.23858 -0.1794,2.63269 c -0.0987,1.44798 -0.0847,2.72728 0.031,2.84289 0.11575,0.11561 2.55905,0.2102 5.42957,0.2102 h 5.21912 v 7.56317 7.56318 l 1.63823,0.84716 c 3.81642,1.97355 7.27544,2.01561 10.33344,0.12566 z"
       id="path23"
       inkscape:connector-curvature="0"
       transform="matrix(0.26458333,0,0,0.26458333,0,203.60208)" />
    <path
       style="fill:#e3434b;fill-opacity:1;stroke-width:0.50507629"
       d="m 183.22027,222.90628 c 1.31899,-0.19982 1.38895,-0.34865 1.38895,-2.95479 0,-2.65633 -0.0445,-2.74447 -1.38895,-2.74771 -0.76393,-0.002 -5.68775,-0.3412 -10.94181,-0.75415 -10.84477,-0.85234 -10.55866,-0.73141 -12.92249,-5.46188 l -1.51579,-3.03334 v -20.04054 -20.04054 l 17.80394,-0.33361 c 9.79217,-0.18348 21.17497,-0.33394 25.29511,-0.33437 l 7.49118,-7.8e-4 5.74356,-4.09656 c 5.3953,-3.84816 9.76621,-7.89238 12.16723,-11.25782 l 1.04504,-1.46479 2.09754,3.79981 2.09754,3.79981 v 11.86473 11.86473 l -2.34334,0.32119 c -1.28884,0.17665 -5.43678,0.32305 -9.21764,0.32533 -8.6684,0.005 -15.24641,0.74737 -17.69459,1.99634 -2.89958,1.47926 -4.91934,4.09327 -5.55192,7.18538 -0.46506,2.27332 -1.558,23.07281 -1.558,29.65008 v 2.07524 l -6.69226,-0.0757 c -3.68075,-0.0416 -6.06723,-0.17036 -5.3033,-0.28608 z"
       id="path25"
       inkscape:connector-curvature="0"
       transform="matrix(0.26458333,0,0,0.26458333,0,203.60208)" />
    <path
       style="fill:#e3434b;fill-opacity:1;stroke-width:0.50507629"
       d="m 133.11549,258.25487 c -5.44863,-7.17385 -8.79917,-15.87998 -11.11746,-28.88798 -0.95461,-5.35633 -1.02842,-7.82688 -1.02842,-34.42591 v -28.65547 l 1.51468,-4.6351 c 0.83308,-2.5493 1.7353,-5.0131 2.00495,-5.47511 0.32145,-0.55078 0.49556,8.48225 0.50563,26.23372 l 0.0153,27.07373 3.86428,0.32665 c 2.12535,0.17966 4.96641,0.32665 6.31345,0.32665 h 2.44918 v -2.27284 -2.27284 h -3.95792 -3.95791 l -0.33686,-28.63359 -0.33685,-28.63359 1.34551,-1.94157 c 2.02154,-2.91708 7.50906,-7.84723 11.78085,-10.58425 2.08832,-1.33803 3.99866,-2.4328 4.24521,-2.43284 0.24654,-4e-5 2.24896,1.92455 4.4498,4.27686 4.29511,4.59072 9.91927,8.69679 13.86907,10.1255 1.34533,0.48663 4.60526,1.87018 7.24429,3.07454 5.40325,2.46587 10.30244,4.24131 11.70359,4.24131 1.65268,0 12.4942,-5.79324 22.608,-12.08075 5.39847,-3.3561 10.14462,-6.102 10.54699,-6.102 1.69804,0 4.20679,2.23919 5.89901,5.26518 0.97369,1.74111 1.77034,3.45588 1.77034,3.8106 0,0.35471 -1.01646,2.06937 -2.25879,3.81034 -2.42436,3.39744 -6.02158,6.63097 -11.66883,10.48909 l -3.53425,2.41454 -24.98291,0.31424 -24.9829,0.31424 -4.54569,-10.98144 -4.54568,-10.98144 -3.53554,0.21627 c -1.94454,0.11894 -4.27114,0.59809 -5.17021,1.06476 -2.33031,1.20958 -5.18385,3.82622 -5.18385,4.75348 0,0.43383 1.97637,6.03557 4.39194,12.44832 l 4.39194,11.65955 0.35049,18.43528 c 0.19277,10.13941 0.3756,28.80946 0.40628,41.48901 l 0.0558,23.05374 -3.99268,3.59934 -3.99267,3.59934 z"
       id="path27"
       inkscape:connector-curvature="0"
       transform="matrix(0.26458333,0,0,0.26458333,0,203.60208)" />
    <path
       style="fill:#e3434b;fill-opacity:1;stroke-width:0.50507629"
       d="m 180.8764,149.92634 c -1.45552,-0.52934 -1.44893,-0.53609 2.15288,-2.20441 6.87895,-3.18627 12.13878,-8.33529 17.91799,-17.5405 1.53171,-2.43973 2.87309,-4.70038 2.98085,-5.02365 0.28278,-0.84833 5.05638,1.62549 8.58657,4.4498 3.12076,2.49676 3.41646,3.00003 1.98295,3.3749 -0.50668,0.1325 -5.17529,2.89596 -10.37469,6.14102 -10.30236,6.42992 -19.5026,11.43657 -20.90034,11.37368 -0.48743,-0.0219 -1.54322,-0.27881 -2.34621,-0.57084 z"
       id="path29"
       inkscape:connector-curvature="0"
       transform="matrix(0.26458333,0,0,0.26458333,0,203.60208)" />
    <path
       style="fill:#e3434b;fill-opacity:1;stroke-width:0.50507629"
       d="m 146.3497,259.34718 2.90419,-2.82948 -0.0132,-18.26633 c -0.007,-10.04648 -0.22568,-29.3176 -0.48535,-42.82472 l -0.47213,-24.55839 -4.06033,-10.96518 c -2.23319,-6.03085 -4.06034,-11.1371 -4.06034,-11.34722 0,-0.50151 2.33577,-1.5557 3.43303,-1.54941 0.63871,0.004 1.86894,2.44143 4.77916,9.47018 l 3.91905,9.46525 -0.005,21.12205 -0.005,21.12205 1.51367,3.63597 c 1.6388,3.93658 3.89686,7.0248 6.12896,8.38222 l 1.40972,0.8573 -3.43863,1.10749 -3.43863,1.10748 -0.32993,6.13601 c -0.18146,3.37481 -0.33552,10.47555 -0.34236,15.77943 l -0.0124,9.64342 -2.14048,3.53554 -2.14049,3.53553 -3.02411,0.13515 -3.02411,0.13513 2.90419,-2.82947 z"
       id="path31"
       inkscape:connector-curvature="0"
       transform="matrix(0.26458333,0,0,0.26458333,0,203.60208)" />
    <path
       style="fill:#e3434b;fill-opacity:1;stroke-width:0.50507629"
       d="m 169.26705,251.50316 -3.93553,-17.12415 2.882,-3.28264 2.88201,-3.28265 h 11.80761 11.80761 l -0.0368,4.41942 c -0.0203,2.43068 -0.32293,11.01066 -0.67263,19.06663 -0.3497,8.05597 -0.45175,15.02074 -0.22677,15.47727 0.36886,0.7485 -0.47062,0.86125 -8.54502,1.14763 -4.92473,0.17467 -9.64546,0.40422 -10.49051,0.51011 l -1.53644,0.19252 z"
       id="path33"
       inkscape:connector-curvature="0"
       transform="matrix(0.26458333,0,0,0.26458333,0,203.60208)" />
    <path
       style="fill:#e3434b;fill-opacity:1;stroke-width:0.50507629"
       d="m 149.19452,317.70634 c -7.55281,-0.52862 -14.92082,-1.94815 -18.24965,-3.51601 l -2.39911,-1.12996 v -4.29898 c 0,-8.33131 2.45677,-20.78278 6.73171,-34.1178 l 2.14029,-6.6763 6.21708,-0.45019 6.21707,-0.45018 1.75061,1.75061 1.75061,1.75061 0.46545,12.08409 c 0.3964,10.29147 1.15996,19.80163 1.62051,20.18354 0.0705,0.0585 9.62061,-0.0105 21.22239,-0.15316 l 21.09413,-0.25951 5.27299,-3.23611 5.273,-3.23612 -0.2535,-16.26464 c -0.13942,-8.94554 -0.54841,-31.8336 -0.90886,-50.86235 -0.74246,-39.19635 -0.97432,-36.48131 3.39995,-39.81184 l 2.60684,-1.98483 9.17168,-0.34549 9.17168,-0.3455 0.36048,3.84679 c 0.53015,5.6575 -0.0616,51.87503 -0.76959,60.10661 -0.68431,7.95644 -1.04076,8.81152 -5.74774,13.78846 l -2.53225,2.67748 1.57397,21.81907 c 1.77676,24.63029 1.94628,22.70151 -2.26306,25.74884 -2.0323,1.47128 -2.48912,1.57465 -8.58629,1.94295 -21.02544,1.27004 -55.67605,2.04562 -64.33039,1.43992 z"
       id="path35"
       inkscape:connector-curvature="0"
       transform="matrix(0.26458333,0,0,0.26458333,0,203.60208)" />
    <path
       style="fill:#e3434b;fill-opacity:1;stroke-width:0.50507629"
       d="m 160.36556,298.39679 c 0,-0.15384 0.8078,-2.63136 1.7951,-5.50561 2.34449,-6.82532 6.76136,-15.85678 8.89072,-18.17943 l 1.68855,-1.84183 13.63706,-0.52788 c 7.50038,-0.29033 14.35415,-0.40484 15.2306,-0.25445 l 1.59354,0.27342 0.33796,6.1369 c 0.18588,3.37529 0.26428,8.16586 0.17423,10.6457 l -0.16373,4.50881 -3.63082,2.2369 -3.63082,2.2369 -17.96119,0.27513 c -9.87866,0.15132 -17.9612,0.14927 -17.9612,-0.005 z"
       id="path37"
       inkscape:connector-curvature="0"
       transform="matrix(0.26458333,0,0,0.26458333,0,203.60208)" />
    <path
       style="fill:#e3434b;fill-opacity:1;stroke-width:0.50507629"
       d="m 198.74184,266.19 c -0.92267,-0.92266 -0.99268,-1.46328 -0.73588,-5.68211 0.15608,-2.56434 0.83988,-18.78993 1.51955,-36.05687 0.70952,-18.02544 1.46802,-32.00534 1.78119,-32.82903 0.60348,-1.58727 1.90742,-3.20422 2.58397,-3.20422 0.24038,0 -0.0562,0.96596 -0.65899,2.14658 -1.09107,2.13683 -1.09454,2.24632 -0.76324,24.11739 0.18304,12.08395 0.47967,28.84617 0.65918,37.24938 l 0.32637,15.27855 h -1.84624 c -1.17855,0 -2.215,-0.36876 -2.86591,-1.01967 z"
       id="path39"
       inkscape:connector-curvature="0"
       transform="matrix(0.26458333,0,0,0.26458333,0,203.60208)" />
    <path
       style="fill:#e3434b;fill-opacity:1;stroke-width:0.50507629"
       d="m 158.10552,279.15201 -0.38026,-10.53357 -1.95831,-1.76921 -1.9583,-1.76921 0.91879,-1.33428 c 0.50534,-0.73386 1.75336,-2.84857 2.77339,-4.69935 l 1.85458,-3.36507 V 242.0966 c 0,-10.10588 0.16168,-13.78889 0.63135,-14.38195 0.69198,-0.87379 5.59795,-2.62272 6.50703,-2.31969 0.31234,0.10411 -0.90548,1.92299 -2.70626,4.04196 l -3.27415,3.85266 4.22984,18.29955 c 3.91364,16.93155 4.17128,18.37877 3.44648,19.35916 -3.50985,4.74759 -6.07203,9.63092 -9.30104,17.72713 -0.23506,0.58936 -0.56128,-3.37767 -0.78314,-9.52341 z"
       id="path41"
       inkscape:connector-curvature="0"
       transform="matrix(0.26458333,0,0,0.26458333,0,203.60208)" />
  </g>
</svg>
