<?xml version="1.0" encoding="UTF-8" standalone="no"?>
<!-- Created with Inkscape (http://www.inkscape.org/) -->

<svg
   xmlns:dc="http://purl.org/dc/elements/1.1/"
   xmlns:cc="http://creativecommons.org/ns#"
   xmlns:rdf="http://www.w3.org/1999/02/22-rdf-syntax-ns#"
   xmlns:svg="http://www.w3.org/2000/svg"
   xmlns="http://www.w3.org/2000/svg"
   xmlns:sodipodi="http://sodipodi.sourceforge.net/DTD/sodipodi-0.dtd"
   xmlns:inkscape="http://www.inkscape.org/namespaces/inkscape"
   width="353"
   height="353"
   viewBox="0 0 93.397917 93.397917"
   version="1.1"
   id="svg8022"
   sodipodi:docname="wF.svg"
   inkscape:version="0.92.4 5da689c313, 2019-01-14">
  <defs
     id="defs8016" />
  <sodipodi:namedview
     id="base"
     pagecolor="#ffffff"
     bordercolor="#666666"
     borderopacity="1.0"
     inkscape:pageopacity="0.0"
     inkscape:pageshadow="2"
     inkscape:zoom="2.8"
     inkscape:cx="160.92076"
     inkscape:cy="171.09003"
     inkscape:document-units="mm"
     inkscape:current-layer="layer1"
     showgrid="false"
     units="px"
     inkscape:window-width="960"
     inkscape:window-height="1060"
     inkscape:window-x="0"
     inkscape:window-y="20"
     inkscape:window-maximized="0" />
  <metadata
     id="metadata8019">
    <rdf:RDF>
      <cc:Work
         rdf:about="">
        <dc:format>image/svg+xml</dc:format>
        <dc:type
           rdf:resource="http://purl.org/dc/dcmitype/StillImage" />
        <dc:title />
      </cc:Work>
    </rdf:RDF>
  </metadata>
  <g
     inkscape:label="Layer 1"
     inkscape:groupmode="layer"
     id="layer1"
     transform="translate(0,-203.60208)">
    <path
       style="fill:#de8787;stroke:#000000;stroke-width:2.11666667;stroke-linecap:butt;stroke-linejoin:miter;stroke-opacity:1;stroke-miterlimit:4;stroke-dasharray:none"
       d="m 37.83656,212.4299 -3.015681,7.22401 c -0.840836,1.61225 -2.097179,3.0168 0.09147,6.14382 -0.850656,4.46078 -1.589463,8.92859 1.670981,13.64632 -5.903745,1.36941 -7.712284,1.48434 -10.165128,3.20272 -1.423467,14.4697 -4.210754,29.91848 -1.531732,39.54651 -1.659493,1.72154 -3.193482,3.45203 -1.253235,5.4307 15.209637,1.47291 30.790156,1.70957 46.787438,0.55699 2.373175,-2.22799 0.2757,-4.45594 -1.113986,-6.68393 3.028983,-4.31951 0.433272,-25.14627 -0.974739,-38.01478 -1.245713,-1.38774 -6.616206,-2.54634 -11.000618,-3.7597 2.263889,-3.70822 3.722671,-8.58788 2.088724,-13.85521 0.801539,-2.42992 1.799925,-3.97634 0.556993,-5.63957 l -2.924213,-8.07639 c -6.063793,-3.43736 -12.367562,-4.39495 -19.216269,0.27839 z"
       id="path1610"
       inkscape:connector-curvature="0"
       sodipodi:nodetypes="ccccccccccccccc" />
    <path
       style="fill:none;stroke:#000000;stroke-width:2.11666667;stroke-linecap:butt;stroke-linejoin:miter;stroke-opacity:1;stroke-miterlimit:4;stroke-dasharray:none"
       d="m 34.820879,219.65391 c 8.528242,4.04839 16.890046,3.60282 25.156164,0.57387"
       id="path1612"
       inkscape:connector-curvature="0"
       sodipodi:nodetypes="cc" />
    <path
       style="fill:none;stroke:#000000;stroke-width:2.11666667;stroke-linecap:butt;stroke-linejoin:miter;stroke-opacity:1;stroke-miterlimit:4;stroke-dasharray:none"
       d="m 34.912345,225.79773 c 9.364922,2.34037 15.632226,1.60326 24.507705,0.0697"
       id="path1614"
       inkscape:connector-curvature="0"
       sodipodi:nodetypes="cc" />
    <g
       style="stroke:#000000;stroke-width:1.69368434;stroke-miterlimit:4;stroke-dasharray:none"
       transform="matrix(0.78108809,0,0,0.78108809,7.2557064,205.82341)"
       id="g1052">
      <path
         sodipodi:nodetypes="ccccc"
         inkscape:connector-curvature="0"
         id="path835"
         d="m 39.67217,32.242925 8.766509,1.337264 c -0.06418,6.848023 1.209155,8.732417 3.120283,8.469339 3.052215,-0.662408 2.307628,-4.973032 2.823113,-8.17217 l 8.320755,-1.188679"
         style="display:inline;fill:none;stroke:#000000;stroke-width:1.69368434;stroke-linecap:butt;stroke-linejoin:miter;stroke-opacity:1;stroke-miterlimit:4;stroke-dasharray:none" />
      <path
         inkscape:connector-curvature="0"
         id="path837"
         d="m 39.553478,35.482102 8.885201,0.178275"
         style="display:inline;fill:none;stroke:#000000;stroke-width:1.69368434;stroke-linecap:butt;stroke-linejoin:miter;stroke-opacity:1;stroke-miterlimit:4;stroke-dasharray:none"
         sodipodi:nodetypes="cc" />
      <path
         inkscape:connector-curvature="0"
         id="path839"
         d="M 62.316253,35.808962 H 54.233491"
         style="display:inline;fill:none;stroke:#000000;stroke-width:1.69368434;stroke-linecap:butt;stroke-linejoin:miter;stroke-opacity:1;stroke-miterlimit:4;stroke-dasharray:none"
         sodipodi:nodetypes="cc" />
    </g>
    <path
       style="fill:none;stroke:#000000;stroke-width:2.11666667;stroke-linecap:butt;stroke-linejoin:miter;stroke-opacity:1;stroke-miterlimit:4;stroke-dasharray:none"
       d="m 29.246144,244.46562 c -4.048826,1.0243 -2.555582,11.66273 -2.763974,18.51112 -4.620733,18.08658 -1.371651,17.4155 0.393854,20.48038 l 40.468472,0.29539 c 6.232463,-7.2861 1.395729,-14.01876 0.984634,-20.97271 1.435451,-10.86979 -0.02332,-15.92681 -2.47353,-18.28534"
       id="path1645"
       inkscape:connector-curvature="0"
       sodipodi:nodetypes="cccccc" />
    <path
       style="fill:none;stroke:#000000;stroke-width:1.5875;stroke-linecap:butt;stroke-linejoin:miter;stroke-opacity:1;stroke-miterlimit:4;stroke-dasharray:none"
       d="m 35.245416,244.07175 c 6.009918,3.79317 0.483512,12.7578 -0.295391,19.59423 -1.342317,7.00907 1.3772,11.1237 0.393854,14.08028 -0.458768,2.3696 -2.66217,3.4704 -6.006268,3.7416 l 36.234542,0.0983 c -3.01416,-0.58249 -5.94708,-1.64181 -6.400122,-4.52934 2.626441,-17.68131 -6.334483,-26.51946 -0.196937,-33.57603"
       id="path1647"
       inkscape:connector-curvature="0"
       sodipodi:nodetypes="ccccccc" />
    <path
       style="fill:none;stroke:#000000;stroke-width:2.11666667;stroke-linecap:butt;stroke-linejoin:miter;stroke-opacity:1;stroke-miterlimit:4;stroke-dasharray:none"
       d="m 36.583325,239.44405 c 9.73126,7.37938 15.402976,4.25174 20.748001,0.27838"
       id="path1649"
       inkscape:connector-curvature="0"
       sodipodi:nodetypes="cc" />
    <path
       style="fill:none;stroke:#000000;stroke-width:2.11666667;stroke-linecap:butt;stroke-linejoin:miter;stroke-opacity:1;stroke-miterlimit:4;stroke-dasharray:none"
       d="M 37.707002,247.61644 H 57.005834"
       id="path1651"
       inkscape:connector-curvature="0" />
    <path
       style="fill:none;stroke:#000000;stroke-width:2.11666667;stroke-linecap:butt;stroke-linejoin:miter;stroke-opacity:1;stroke-miterlimit:4;stroke-dasharray:none"
       d="m 35.245416,244.07175 c 2.207515,1.80517 2.640548,3.61032 3.643146,5.41549 -2.644158,10.03411 -0.468326,16.48126 8.172467,18.11729 12.349267,-1.51835 8.90642,-10.77158 9.157099,-18.21574 0.328269,-2.26465 0.872908,-4.4211 2.756975,-5.90783"
       id="path1653"
       inkscape:connector-curvature="0"
       sodipodi:nodetypes="ccccc" />
    <path
       style="fill:none;stroke:#000000;stroke-width:2.11666667;stroke-linecap:butt;stroke-linejoin:miter;stroke-opacity:1;stroke-miterlimit:4;stroke-dasharray:none"
       d="m 29.337611,281.48786 c 4.443355,0.51081 7.918808,-3.08953 7.975538,-4.23393 -0.155012,-6.76566 2.291916,-9.184 9.649417,-8.56633 5.290753,-0.10128 8.360454,0.62356 9.381279,2.69505 1.02776,2.08554 0.620057,5.17327 1.449698,6.46206 1.038706,1.71136 2.658573,2.91559 7.77861,3.74161"
       id="path1655"
       inkscape:connector-curvature="0"
       sodipodi:nodetypes="cccscc" />
    <path
       style="fill:none;stroke:#000000;stroke-width:2.11666667;stroke-linecap:butt;stroke-linejoin:miter;stroke-opacity:1;stroke-miterlimit:4;stroke-dasharray:none"
       d="m 26.48217,262.97674 c 2.889807,-0.50934 5.709319,-0.24532 8.467855,0.68924 v 0"
       id="path1657"
       inkscape:connector-curvature="0"
       sodipodi:nodetypes="ccc" />
    <path
       style="fill:none;stroke:#000000;stroke-width:2.11666667;stroke-linecap:butt;stroke-linejoin:miter;stroke-opacity:1;stroke-miterlimit:4;stroke-dasharray:none"
       d="m 59.221261,263.91213 c 3.968972,-1.76134 6.693355,-1.07636 9.107869,-1.13233"
       id="path1659"
       inkscape:connector-curvature="0"
       sodipodi:nodetypes="cc" />
    <path
       style="fill:#e3434b;fill-opacity:1;stroke-width:0.35714287"
       d="m 171.0279,67.273847 c -10.79145,-1.022268 -22.8626,-3.972614 -31.72873,-7.754911 l -2.30511,-0.983362 4.68529,-11.212173 4.68529,-11.212173 2.15306,-1.376068 c 3.14515,-2.010136 9.52575,-5.051574 13.2783,-6.32936 12.67888,-4.317309 25.99706,-3.734008 39.73816,1.740426 6.27943,2.501718 10.58352,4.829446 11.03983,5.97054 0.86833,2.171457 8.63248,23.803503 8.63248,24.051356 0,0.145021 -0.28125,0.346862 -0.625,0.448537 -12.45544,3.684074 -18.76961,5.129724 -26.875,6.153113 -5.45583,0.688857 -17.82557,0.963796 -22.67857,0.504075 z"
       id="path22"
       inkscape:connector-curvature="0"
       transform="matrix(0.26458333,0,0,0.26458333,0,203.60208)" />
    <path
       style="fill:#e3434b;fill-opacity:1;stroke-width:0.35714287"
       d="m 167.09541,85.164405 c -6.09657,-0.328328 -13.52777,-1.171443 -19.28179,-2.187634 -5.3194,-0.939433 -12.37231,-2.471859 -13.06684,-2.8391 -0.31176,-0.164848 -1.11517,-1.392899 -1.78537,-2.729002 -1.08532,-2.163701 -1.2179,-2.741633 -1.2127,-5.286422 0.005,-2.2692 0.17142,-3.169488 0.81049,-4.375 0.44256,-0.834821 0.87851,-1.517857 0.96878,-1.517857 0.0903,0 1.73433,0.620774 3.65346,1.379497 15.30881,6.052315 29.788,8.60662 46.16789,8.144576 9.89627,-0.279153 16.53761,-1.156114 26.42857,-3.489778 3.86813,-0.912641 12.55884,-3.388238 14.47241,-4.122546 0.58196,-0.22332 0.62117,-0.06447 0.43332,1.755647 -0.16552,1.603743 -2.75236,10.012573 -3.22588,10.486086 -0.22669,0.226695 -13.32466,2.258883 -20.25128,3.142044 -12.61232,1.608102 -24.28047,2.168912 -34.11106,1.639489 z"
       id="path24"
       inkscape:connector-curvature="0"
       transform="matrix(0.26458333,0,0,0.26458333,0,203.60208)" />
    <path
       style="fill:#e3434b;fill-opacity:1;stroke-width:0.35714287"
       d="m 171.05604,147.29363 c -7.66589,-1.61494 -15.73711,-5.26359 -24.31385,-10.99125 -5.23192,-3.49394 -5.39665,-3.64305 -7.04696,-6.37885 -4.57571,-7.58533 -6.67176,-16.4875 -6.20959,-26.37271 0.19784,-4.231548 1.412,-13.988788 1.78744,-14.364225 0.0858,-0.08584 2.21936,0.250488 4.74116,0.747387 14.65552,2.887746 21.53434,3.592275 35.1208,3.597078 13.25232,0.0047 21.36195,-0.711861 38.87058,-3.434506 6.09826,-0.948297 7.3127,-1.049782 7.57051,-0.632631 0.7809,1.263526 1.23602,5.88755 1.21074,12.301177 -0.022,5.59011 -0.16718,7.44645 -0.82378,10.53572 -1.19343,5.61502 -2.9823,10.68013 -5.74112,16.25576 l -2.47685,5.00576 -3.47017,2.43274 c -9.52084,6.67454 -16.61206,10.04861 -24.10715,11.4704 -4.01609,0.76184 -11.05992,0.68174 -15.11176,-0.17185 z m 11.40043,-12.98933 c 4.32055,-2.04853 6.60895,-6.56488 7.18362,-14.17746 l 0.23952,-3.17284 10.75272,-0.0944 10.75271,-0.0944 0.10494,-2.58928 0.10493,-2.58929 h -10.72993 c -6.39832,0 -10.72994,-0.13446 -10.72994,-0.33307 0,-0.49383 0.32996,-0.55401 12.08444,-2.20389 l 10.83445,-1.52074 -0.22297,-1.63186 c -0.51403,-3.76208 -0.44827,-3.6555 -2.10304,-3.40866 -0.81715,0.12189 -6.78559,0.97764 -13.2632,1.90166 l -11.77747,1.68005 -0.27481,1.59754 c -0.15115,0.87865 -0.51575,4.67204 -0.81022,8.42976 -0.64191,8.19124 -1.34825,10.94323 -3.23361,12.5986 -1.7548,1.54073 -3.65734,1.54446 -4.94875,0.01 -1.94088,-2.3066 -2.94898,-7.55432 -3.30577,-17.20838 -0.12886,-3.48661 -0.33243,-6.33929 -0.45238,-6.33929 -0.27393,0 -25.57733,-3.84253 -26.87191,-4.08072 -0.92842,-0.17082 -0.96303,-0.11212 -1.37548,2.33321 -0.23271,1.37964 -0.35511,2.57644 -0.272,2.65955 0.0831,0.0831 4.88065,0.8715 10.6612,1.75197 13.67479,2.0829 12.83152,1.91332 12.83152,2.58039 0,0.5146 -1.13015,0.54408 -11.78571,0.30742 l -11.78571,-0.26176 v 2.66813 2.66812 l 11.91389,0.26279 11.9139,0.2628 0.42876,3.53765 c 1.26047,10.40007 4.5776,15.28624 10.3863,15.29912 1.33365,0.003 2.5376,-0.26748 3.75,-0.84233 z"
       id="path26"
       inkscape:connector-curvature="0"
       transform="matrix(0.26458333,0,0,0.26458333,0,203.60208)" />
    <path
       style="fill:#e3434b;fill-opacity:1;stroke-width:0.35714287"
       d="m 226.04206,221.49725 c -0.0979,-0.44197 -0.51489,-2.65179 -0.92663,-4.91072 -0.41174,-2.25893 -1.78728,-8.98881 -3.05676,-14.9553 -1.26948,-5.96649 -2.61382,-12.63614 -2.98741,-14.82143 -2.5898,-15.14876 -1.15163,-25.02739 4.50731,-30.96019 1.73939,-1.82357 1.89704,-2.11732 1.58159,-2.94702 -0.19271,-0.50686 -0.73295,-1.17223 -1.20054,-1.47861 -0.46759,-0.30637 -1.36868,-1.27906 -2.00242,-2.16153 -0.63374,-0.88247 -1.35786,-1.60449 -1.60917,-1.60449 -0.68689,0 -4.57607,4.19362 -6.13725,6.61767 -0.75531,1.17278 -1.89514,3.41805 -2.53294,4.98947 l -1.15963,2.85715 -32.33444,0.0912 c -17.78394,0.0501 -32.33444,-0.0422 -32.33444,-0.20513 0,-0.16297 -0.94934,-1.73079 -2.10965,-3.48403 -2.33376,-3.52637 -7.20092,-8.58098 -8.16656,-8.48107 -0.33916,0.0351 -0.85772,0.40216 -1.15236,0.81571 -0.29464,0.41356 -1.29194,1.75092 -2.21622,2.97192 l -1.68051,2.22 2.01215,1.96428 c 2.73548,2.67041 4.92405,5.6956 6.57492,9.08826 1.30489,2.68166 1.38109,3.02395 1.38109,6.20416 0,6.60733 -1.28485,12.91651 -6.03964,29.65728 -1.58218,5.57055 -3.30463,12.07948 -3.82769,14.46429 -0.52305,2.38481 -0.9739,4.36893 -1.00188,4.40915 -0.028,0.0402 -1.25011,-0.2379 -2.71584,-0.61806 -4.56001,-1.1827 -10.05084,-1.7765 -16.42723,-1.7765 h -6.05915 l -0.0126,-1.33929 c -0.007,-0.73661 -0.15823,-7.6831 -0.33625,-15.43665 -0.34483,-15.01881 -0.0519,-25.49661 0.87379,-31.24888 1.05551,-6.55943 2.97112,-10.96551 5.38716,-12.39101 0.67691,-0.39939 1.23075,-0.79553 1.23075,-0.88032 0,-1.00731 -1.97725,-7.63041 -2.27623,-7.62458 -0.70915,0.0138 -3.55671,1.42645 -4.82416,2.39318 l -1.22784,0.93651 0.23554,-1.17769 c 0.12955,-0.64774 0.23554,-1.55655 0.23554,-2.01958 0,-0.71406 0.55579,-1.11169 3.66072,-2.61907 4.16583,-2.02243 6.99892,-2.89332 16.33928,-5.02272 3.63393,-0.82845 8.16901,-1.86617 10.07795,-2.30604 l 3.47081,-0.79976 2.60062,1.83806 c 9.11937,6.44537 18.86508,11.14452 27.39793,13.21065 10.47601,2.53663 19.96463,1.83286 30.39737,-2.25459 5.30322,-2.07775 9.86809,-4.72594 19.44053,-11.27793 0.57058,-0.39054 0.5877,-0.38659 13.29076,3.06478 9.99689,2.71611 14.66192,4.14622 18.74381,5.74611 l 2.74121,1.07441 -2.74121,2.84629 c -1.50766,1.56547 -2.79485,2.99414 -2.86042,3.17484 -0.0656,0.18069 0.54837,1.08694 1.36429,2.01387 1.89512,2.15297 4.74295,7.95109 5.8839,11.97949 2.08181,7.35029 2.87496,15.7117 2.58271,27.22706 -0.17188,6.77299 -1.04035,18.93966 -1.4531,20.35714 -0.0647,0.22217 -2.99467,0.37171 -7.75272,0.39569 -8.14759,0.0411 -11.24124,0.42161 -17.18021,2.11331 -1.70661,0.48612 -3.19016,0.88386 -3.29677,0.88386 -0.10662,0 -0.27396,-0.36161 -0.37187,-0.80357 z"
       id="path28"
       inkscape:connector-curvature="0"
       transform="matrix(0.26458333,0,0,0.26458333,0,203.60208)" />
    <path
       style="fill:#e3434b;fill-opacity:1;stroke-width:0.35714287"
       d="m 174.06362,236.77039 c -15.81796,-4.35211 -24.36205,-13.72589 -26.43593,-29.00302 -1.02039,-7.51668 0.097,-20.25338 2.66599,-30.3879 1.07093,-4.22479 1.10391,-4.81211 0.336,-5.98407 l -0.57679,-0.8803 29.23751,2.9e-4 29.2375,2.8e-4 0.006,7.94615 c 0.003,4.37038 0.21186,11.80328 0.46376,16.51757 0.85209,15.94693 -0.63157,24.42138 -5.37544,30.70371 -4.34839,5.75862 -10.97106,9.27686 -21.16597,11.24428 -4.58795,0.88538 -4.60499,0.88506 -8.39239,-0.15699 z"
       id="path30"
       inkscape:connector-curvature="0"
       transform="matrix(0.26458333,0,0,0.26458333,0,203.60208)" />
    <path
       style="fill:#e3434b;fill-opacity:1;stroke-width:0.35714287"
       d="m 101.28544,294.35082 c -4.826926,-6.1274 -5.890689,-9.47557 -5.870912,-18.47857 0.02251,-10.24638 1.96354,-22.32767 7.038862,-43.811 l 0.94252,-3.98957 2.74457,-0.25751 c 5.88242,-0.55191 14.45533,0.26217 20.72809,1.96836 1.44308,0.39251 1.53823,0.49189 1.32258,1.38133 -0.12779,0.52711 -0.32577,4.34252 -0.43995,8.47869 -0.2362,8.55691 -0.0286,10.94165 2.04659,23.51379 0.77478,4.69375 1.40868,9.68677 1.40868,11.09558 0,3.05431 -0.97898,7.0404 -2.27027,9.24383 -2.29047,3.90839 -8.3922,6.75443 -14.60424,6.81188 -2.24583,0.0208 -3.12466,0.15445 -3.125,0.47533 -2.7e-4,0.24554 -0.1612,0.44643 -0.35763,0.44643 -0.21164,0 -0.35714,1.30953 -0.35714,3.21429 v 3.21428 l -3.30357,-0.004 -3.30358,-0.004 -2.5996,-3.3 z"
       id="path32"
       inkscape:connector-curvature="0"
       transform="matrix(0.26458333,0,0,0.26458333,0,203.60208)" />
    <path
       style="fill:#e3434b;fill-opacity:1;stroke-width:0.35714287"
       d="m 135.74661,260.39834 c -2.34633,-14.36279 -2.4744,-19.65867 -0.76129,-31.47923 0.89386,-6.16765 1.99179,-11.5265 3.47706,-16.97098 l 0.82694,-3.03126 0.62504,3.14727 c 2.59152,13.04909 9.4583,22.45466 20.65351,28.28952 l 2.77382,1.44569 -2.87371,0.41885 c -3.54457,0.51663 -8.24619,2.10671 -10.94672,3.70217 -2.72751,1.6114 -6.40587,5.34291 -8.04167,8.15789 -1.66423,2.8639 -3.02147,6.8912 -3.78969,11.24501 l -0.5913,3.35117 z"
       id="path34"
       inkscape:connector-curvature="0"
       transform="matrix(0.26458333,0,0,0.26458333,0,203.60208)" />
    <path
       style="fill:#e3434b;fill-opacity:1;stroke-width:0.35714287"
       d="m 160.759,291.31872 -24.91175,-0.0942 2.23318,-1.8883 c 2.70028,-2.28326 5.77439,-6.26254 6.5133,-8.43113 0.33413,-0.98061 0.54244,-2.8971 0.54424,-5.00719 0.008,-9.47177 1.98404,-16.65213 5.63763,-20.48675 2.5629,-2.68989 7.29412,-4.60366 13.06322,-5.28404 4.42394,-0.52175 26.84756,0.12376 31.54604,0.90812 6.73517,1.12435 11.22275,3.13745 13.13042,5.89022 1.34218,1.93676 2.24061,5.07309 2.90564,10.14322 1.11977,8.53699 1.84054,12.29731 2.72286,14.20553 1.34636,2.91176 3.99793,6.18051 6.77834,8.35602 l 2.50024,1.9563 -18.8758,-0.0868 c -10.38169,-0.0478 -30.08609,-0.1292 -43.78756,-0.181 z"
       id="path36"
       inkscape:connector-curvature="0"
       transform="matrix(0.26458333,0,0,0.26458333,0,203.60208)" />
    <path
       style="fill:#e3434b;fill-opacity:1;stroke-width:0.35714287"
       d="m 220.00997,268.42993 c -1.20001,-10.41966 -2.84117,-14.8181 -6.98889,-18.73085 -3.7603,-3.54728 -8.37622,-5.51753 -15.92175,-6.79601 l -2.85714,-0.4841 2.73575,-1.271 c 10.43358,-4.84734 16.88373,-12.83992 19.22792,-23.82594 0.35876,-1.68131 0.77513,-3.94085 0.92527,-5.02121 l 0.27298,-1.96429 0.46089,1.96429 c 0.79802,3.40119 2.93661,16.74016 3.5787,22.32143 0.7975,6.93201 0.88795,26.18979 0.15816,33.67118 -0.27361,2.80486 -0.60728,5.16762 -0.7415,5.25058 -0.13422,0.0829 -0.5169,-2.21839 -0.85039,-5.11408 z"
       id="path38"
       inkscape:connector-curvature="0"
       transform="matrix(0.26458333,0,0,0.26458333,0,203.60208)" />
    <path
       style="fill:#e3434b;fill-opacity:1;stroke-width:0.35714287"
       d="m 247.2779,298.37225 c 0,-0.19643 0.14792,-0.35714 0.32872,-0.35714 0.18079,0 0.42555,-1.08483 0.54391,-2.41072 0.11836,-1.32589 0.27397,-2.994 0.34581,-3.70691 0.13008,-1.29098 0.12414,-1.29707 -1.47746,-1.5166 -3.83985,-0.52631 -10.09225,-2.1283 -12.12134,-3.10573 -3.1331,-1.50926 -5.58579,-3.84694 -6.95564,-6.62949 l -1.14356,-2.32289 0.60269,-5.24312 c 1.59367,-13.86425 1.61622,-29.67639 0.0583,-40.85088 l -0.18432,-1.32205 3.39117,-1.08629 c 5.40447,-1.7312 8.72672,-2.16247 16.65854,-2.16247 3.97065,0 7.09608,0.14167 7.09608,0.32165 0,1.3374 1.82916,10.42542 3.74505,18.60692 3.57797,15.27918 3.89411,17.30346 3.90424,25 0.007,5.60284 -0.10833,7.07147 -0.76119,9.66184 -1.4853,5.8933 -3.81884,10.87359 -7.31225,15.60602 l -1.3841,1.875 h -2.6673 c -1.54011,0 -2.66731,-0.15093 -2.66731,-0.35714 z"
       id="path40"
       inkscape:connector-curvature="0"
       transform="matrix(0.26458333,0,0,0.26458333,0,203.60208)" />
    <path
       style="fill:#e3434b;fill-opacity:1;stroke-width:0.35714287"
       d="m 167.63504,317.99433 c -23.47456,-0.49626 -45.16814,-1.69986 -71.299746,-3.95584 -4.920598,-0.4248 -5.064464,-0.46086 -5.625,-1.40977 -1.377605,-2.3321 -0.201616,-5.53669 3.485431,-9.49786 l 1.929656,-2.07312 1.508491,2.36615 1.508492,2.36615 13.978486,0.21495 c 16.50949,0.25388 113.59874,0.95287 131.18826,0.9445 l 12.20977,-0.006 1.96793,-2.31969 c 1.08236,-1.27582 2.1351,-2.60171 2.33942,-2.94642 0.34185,-0.57675 0.42697,-0.55582 1.06698,0.26244 1.24981,1.59787 3.54928,6.22398 3.92331,7.89295 0.41581,1.85543 0.0453,3.71797 -0.99524,5.00298 -0.60977,0.75304 -1.10102,0.83599 -7.40182,1.24994 -12.56808,0.82568 -30.96782,1.58185 -46.92727,1.92857 -17.35033,0.37693 -24.22843,0.3737 -42.85715,-0.0201 z"
       id="path42"
       inkscape:connector-curvature="0"
       transform="matrix(0.26458333,0,0,0.26458333,0,203.60208)" />
    <path
       style="fill:#e3434b;fill-opacity:1;stroke-width:0.17857143"
       d="m 223.74219,298.64071 c -39.02063,-0.31466 -91.01343,-0.6978 -96.60715,-0.71189 -5.02113,-0.0126 -5.85305,-0.0497 -5.17857,-0.23097 0.62605,-0.16821 13.92044,-0.18276 60.17857,-0.0659 l 59.37501,0.15006 2.5,0.43066 c 1.375,0.23687 3.01393,0.43272 3.64208,0.43522 0.62815,0.002 1.18395,0.0464 1.23512,0.0976 0.0512,0.0512 -1.70831,0.0798 -3.90994,0.0636 -2.20164,-0.0162 -11.75744,-0.092 -21.23512,-0.1684 z"
       id="path44"
       inkscape:connector-curvature="0"
       transform="matrix(0.26458333,0,0,0.26458333,0,203.60208)" />
  </g>
</svg>
