<?xml version="1.0" encoding="UTF-8" standalone="no"?>
<!-- Created with Inkscape (http://www.inkscape.org/) -->

<svg
   xmlns:dc="http://purl.org/dc/elements/1.1/"
   xmlns:cc="http://creativecommons.org/ns#"
   xmlns:rdf="http://www.w3.org/1999/02/22-rdf-syntax-ns#"
   xmlns:svg="http://www.w3.org/2000/svg"
   xmlns="http://www.w3.org/2000/svg"
   xmlns:sodipodi="http://sodipodi.sourceforge.net/DTD/sodipodi-0.dtd"
   xmlns:inkscape="http://www.inkscape.org/namespaces/inkscape"
   width="353"
   height="353"
   viewBox="0 0 93.397917 93.397917"
   version="1.1"
   id="svg8022"
   sodipodi:docname="wR.svg"
   inkscape:version="0.92.4 5da689c313, 2019-01-14">
  <defs
     id="defs8016" />
  <sodipodi:namedview
     id="base"
     pagecolor="#ffffff"
     bordercolor="#666666"
     borderopacity="1.0"
     inkscape:pageopacity="0.0"
     inkscape:pageshadow="2"
     inkscape:zoom="3.959798"
     inkscape:cx="210.0353"
     inkscape:cy="235.13772"
     inkscape:document-units="mm"
     inkscape:current-layer="layer1"
     showgrid="false"
     units="px"
     inkscape:window-width="960"
     inkscape:window-height="1060"
     inkscape:window-x="0"
     inkscape:window-y="20"
     inkscape:window-maximized="0" />
  <metadata
     id="metadata8019">
    <rdf:RDF>
      <cc:Work
         rdf:about="">
        <dc:format>image/svg+xml</dc:format>
        <dc:type
           rdf:resource="http://purl.org/dc/dcmitype/StillImage" />
        <dc:title />
      </cc:Work>
    </rdf:RDF>
  </metadata>
  <g
     inkscape:label="Layer 1"
     inkscape:groupmode="layer"
     id="layer1"
     transform="translate(0,-203.60208)">
    <path
       inkscape:connector-curvature="0"
       style="display:inline;opacity:1;fill:#de8787;fill-opacity:1;stroke:#000000;stroke-width:1.5875;stroke-linecap:square;stroke-linejoin:miter;stroke-miterlimit:4;stroke-dasharray:none;stroke-opacity:1;paint-order:normal"
       d="m 46.699698,254.95245 -1.664657,0.082 -1.649739,0.24478 -1.616926,0.40572 -1.570686,0.56084 -1.506543,0.71302 -1.43047,0.85766 -1.337989,0.99345 -1.236562,1.1187 -1.11872,1.23507 -0.993423,1.3395 -0.857687,1.43047 -0.712998,1.50654 -0.560855,1.57068 -0.405721,1.61691 -0.24463,1.64827 -0.08203,1.66613 0.08203,1.66466 0.24463,1.64974 0.405721,1.61695 0.560855,1.56917 0.712998,1.50804 0.857687,1.42899 0.993423,1.33948 1.11872,1.23505 1.236562,1.12023 1.337989,0.99341 1.43047,0.85619 1.506543,0.71301 1.570686,0.56235 1.616926,0.40422 1.649739,0.24449 1.664657,0.082 1.664657,-0.082 1.649739,-0.24449 1.616926,-0.40422 1.570685,-0.56235 1.506544,-0.71301 1.43047,-0.85619 1.337989,-0.99341 1.236559,-1.12023 1.118723,-1.23505 0.993422,-1.33948 0.857686,-1.42899 0.712998,-1.50804 0.560854,-1.56917 0.405722,-1.61695 0.244629,-1.64974 0.08057,-1.66466 -0.08057,-1.66613 -0.244629,-1.64827 -0.405722,-1.61691 -0.560854,-1.57068 -0.712998,-1.50654 -0.857686,-1.43047 -0.993422,-1.3395 -1.118723,-1.23507 -1.236559,-1.1187 -1.337989,-0.99345 -1.43047,-0.85766 -1.506544,-0.71302 -1.570685,-0.56084 -1.616926,-0.40572 -1.649739,-0.24478 z m 1.725813,4.89252 1.156009,0.21937 1.181372,0.34754 1.141097,0.46241 1.091869,0.57128 1.029226,0.67573 0.959116,0.77266 0.01789,0.0174 -6.537805,5.56527 z m -3.581399,0.006 -0.0388,8.62755 -6.53333,-5.5608 0.801005,-0.66825 1.018782,-0.69358 1.081431,-0.58922 1.133637,-0.48179 1.175402,-0.36692 1.205237,-0.25055 z m 12.301455,5.57865 0.199888,0.29238 0.589192,1.08142 0.481797,1.13513 0.36694,1.1754 0.250605,1.20525 0.04328,0.40423 -8.024957,-0.026 z m -21.018529,0.002 6.091811,5.26546 -8.032417,0.026 0.0179,-0.19252 0.229705,-1.21119 0.347548,-1.18138 0.462406,-1.14108 0.571294,-1.09189 z m -1.93464,8.3785 8.026451,0.026 -6.094792,5.26842 -0.199889,-0.29385 -0.589196,-1.08141 -0.480303,-1.13514 -0.36843,-1.17539 -0.250604,-1.20526 z m 24.890794,0 -0.0179,0.19253 -0.229705,1.21119 -0.34755,1.18138 -0.462401,1.14111 -0.571294,1.09187 -0.311751,0.47433 -6.090318,-5.26545 z m -14.277863,2.24484 0.0388,8.63203 -1.154521,-0.21937 -1.182861,-0.34756 -1.141093,-0.46241 -1.091873,-0.5713 -1.029223,-0.67569 -0.959114,-0.77268 -0.01789,-0.0174 z m 3.658963,0 6.533331,5.56078 -0.801006,0.66823 -1.017288,0.69363 -1.08143,0.58918 -1.133637,0.48182 -1.176895,0.36693 -1.205236,0.25054 -0.15662,0.0174 z"
       id="path2858" />
    <path
       style="display:inline;fill:#de8787;stroke:#000000;stroke-width:1.5875;stroke-linecap:butt;stroke-linejoin:miter;stroke-opacity:1;stroke-miterlimit:4;stroke-dasharray:none"
       d="m 31.249977,260.50003 -0.129287,-30.89938 1.810007,-2.19788 c -0.508301,-1.15698 0.507293,-6.51584 4.783586,-9.30861 l 1.422149,-1.6807 c 2.370441,-2.79751 4.705479,-6.2676 7.240021,-5.94717 3.258419,0.52106 5.701859,3.02139 7.757168,6.46432 l 2.197864,1.42214 c 3.502685,3.58491 3.615239,6.15326 4.525013,8.92073 l 1.228219,2.52108 -0.193943,30.57618 c -10.073272,-9.63136 -20.40229,-8.85406 -30.64081,0.12932 z"
       id="path2861"
       inkscape:connector-curvature="0"
       sodipodi:nodetypes="cccccccccccc" />
    <path
       style="fill:none;stroke:#000000;stroke-width:1.5875;stroke-linecap:butt;stroke-linejoin:miter;stroke-opacity:1;stroke-miterlimit:4;stroke-dasharray:none"
       d="m 38.942502,216.67203 15.126476,0.0646"
       id="path2864"
       inkscape:connector-curvature="0"
       sodipodi:nodetypes="cc" />
    <path
       style="fill:none;stroke:#000000;stroke-width:1.5875;stroke-linecap:butt;stroke-linejoin:miter;stroke-opacity:1;stroke-miterlimit:4;stroke-dasharray:none"
       d="m 36.679995,219.12846 4.2018,4.78357 6.076448,-5.30072 5.430015,5.43001 4.525013,-5.23606"
       id="path2866"
       inkscape:connector-curvature="0"
       sodipodi:nodetypes="ccccc" />
    <path
       style="fill:none;stroke:#000000;stroke-width:1.5875;stroke-linecap:butt;stroke-linejoin:miter;stroke-opacity:1;stroke-miterlimit:4;stroke-dasharray:none"
       d="m 32.930697,227.40277 27.925801,0.12931"
       id="path2872"
       inkscape:connector-curvature="0" />
    <path
       style="fill:none;stroke:#000000;stroke-width:1.5875;stroke-linecap:butt;stroke-linejoin:miter;stroke-opacity:1;stroke-miterlimit:4;stroke-dasharray:none"
       d="m 31.056048,230.69956 30.964026,-0.25862"
       id="path2874"
       inkscape:connector-curvature="0"
       sodipodi:nodetypes="cc" />
    <path
       style="display:inline;fill:none;stroke:#000000;stroke-width:1.5875;stroke-linecap:butt;stroke-linejoin:miter;stroke-opacity:1;stroke-miterlimit:4;stroke-dasharray:none"
       d="m 41.916083,233.54386 c -0.990414,0.6143 -1.223509,1.41793 -1.551432,2.19785 L 40.493936,251.45 c 0.246447,0.70488 1.160606,1.27619 2.262506,1.81 l 8.597525,-0.25863 c 1.609188,-0.28345 2.026606,-1.16302 2.650365,-1.93932 l -0.129284,-15.3204 c -0.546301,-1.44976 -1.417258,-2.05543 -2.391793,-2.39179 z"
       id="path2876"
       inkscape:connector-curvature="0"
       sodipodi:nodetypes="ccccccccc" />
    <path
       style="display:inline;fill:none;stroke:#000000;stroke-width:1.5875;stroke-linecap:butt;stroke-linejoin:miter;stroke-opacity:1;stroke-miterlimit:4;stroke-dasharray:none"
       d="m 44.307878,233.44691 0.4525,14.25379 4.525014,-0.2263 0.161613,-13.99523"
       id="path2878"
       inkscape:connector-curvature="0"
       sodipodi:nodetypes="cccc" />
    <path
       style="display:inline;fill:none;stroke:#000000;stroke-width:1.5875;stroke-linecap:butt;stroke-linejoin:miter;stroke-opacity:1;stroke-miterlimit:4;stroke-dasharray:none"
       d="m 40.752507,251.99945 4.040192,-4.39573"
       id="path2880"
       inkscape:connector-curvature="0" />
    <path
       style="display:inline;fill:none;stroke:#000000;stroke-width:1.5875;stroke-linecap:butt;stroke-linejoin:miter;stroke-opacity:1;stroke-miterlimit:4;stroke-dasharray:none"
       d="m 53.357904,252.16106 -4.137155,-4.62197"
       id="path2882"
       inkscape:connector-curvature="0" />
    <path
       style="display:inline;fill:none;stroke:#000000;stroke-width:1.5875;stroke-linecap:butt;stroke-linejoin:miter;stroke-opacity:1;stroke-miterlimit:4;stroke-dasharray:none"
       d="m 38.296072,217.8356 3.943227,4.84822"
       id="path2868"
       inkscape:connector-curvature="0" />
    <path
       style="display:inline;fill:none;stroke:#000000;stroke-width:1.5875;stroke-linecap:butt;stroke-linejoin:miter;stroke-opacity:1;stroke-miterlimit:4;stroke-dasharray:none"
       d="m 47.022885,218.54668 c 2.36622,-0.4997 4.707025,2.55835 6.593592,4.13714"
       id="path2870"
       inkscape:connector-curvature="0"
       sodipodi:nodetypes="cc" />
    <path
       style="fill:#e3434b;fill-opacity:1;stroke-width:0.35714287"
       d="m 168.7732,46.298853 -14.94067,-0.09725 1.53783,-1.871057 c 8.82117,-10.732597 14.26137,-15.263915 18.32551,-15.263915 4.9187,0 11.65067,3.383719 17.17824,8.634367 2.29888,2.183716 6.92007,7.626882 7.24452,8.533115 0.0716,0.200036 -2.77425,0.298549 -7.14286,0.247258 -3.99405,-0.04689 -13.98521,-0.129024 -22.20257,-0.182514 z"
       id="path19"
       inkscape:connector-curvature="0"
       transform="matrix(0.26458333,0,0,0.26458333,0,203.60208)" />
    <path
       style="fill:#e3434b;fill-opacity:1;stroke-width:0.35714287"
       d="m 154.08642,60.277166 c -3.28182,-4.038292 -5.89832,-7.410965 -5.81445,-7.494829 0.0839,-0.08386 6.62123,-0.110457 14.52748,-0.05909 l 14.375,0.09338 -7.78863,6.785714 c -4.28375,3.732143 -8.13599,7.062793 -8.56055,7.401445 -0.76431,0.609656 -0.83078,0.543304 -6.73885,-6.72662 z"
       id="path21"
       inkscape:connector-curvature="0"
       transform="matrix(0.26458333,0,0,0.26458333,0,203.60208)" />
    <path
       style="fill:#e3434b;fill-opacity:1;stroke-width:0.35714287"
       d="M 159.66275,87.013073 127.04021,86.92 l 0.24424,-1.873115 c 0.92081,-7.062114 4.74244,-15.630072 9.22943,-20.692064 l 1.4857,-1.676092 7.5,8.556366 c 4.125,4.706002 7.77306,8.883107 8.10679,9.282456 0.59477,0.711705 0.83402,0.527656 12.07755,-9.290989 6.30892,-5.509393 11.58156,-10.017078 11.71699,-10.017078 0.13542,0 4.82447,4.580357 10.4201,10.178572 5.59563,5.598214 10.28133,10.178571 10.41266,10.178571 0.13134,0 3.90918,-4.257961 8.39521,-9.462136 l 8.15642,-9.462136 0.94747,1.147476 c 3.46453,4.195833 6.66865,10.809493 8.73477,18.029499 0.71907,2.512799 1.38318,4.769619 1.47579,5.015154 0.13352,0.353989 -3.33375,0.428335 -16.74482,0.359046 -9.30227,-0.04806 -31.59336,-0.129266 -49.53576,-0.180457 z"
       id="path23"
       inkscape:connector-curvature="0"
       transform="matrix(0.26458333,0,0,0.26458333,0,203.60208)" />
    <path
       style="fill:#e3434b;fill-opacity:1;stroke-width:0.35714287"
       d="m 198.51945,63.970657 c -7.43702,-7.039652 -12.16656,-9.945682 -17.55712,-10.787844 -2.76124,-0.431385 -2.13842,-0.465653 9.15694,-0.503813 l 12.11968,-0.04094 4.04103,2.588608 c 2.22257,1.423735 4.04011,2.669271 4.03899,2.767857 -0.001,0.09859 -1.81629,2.278841 -4.0337,4.845009 l -4.03166,4.665761 z"
       id="path25"
       inkscape:connector-curvature="0"
       transform="matrix(0.26458333,0,0,0.26458333,0,203.60208)" />
    <path
       style="fill:#e3434b;fill-opacity:1;stroke-width:0.25253814"
       d="m 148.65357,65.366399 -6.07166,-6.907072 0.64085,-0.419903 c 0.35247,-0.230947 0.66964,-0.382413 0.70483,-0.336591 0.0352,0.04582 2.55857,3.151652 5.60754,6.901843 3.04897,3.750191 5.62344,6.948675 5.72105,7.10774 0.0976,0.159066 0.0181,0.350376 -0.17674,0.425133 -0.23174,0.08893 -2.45348,-2.252195 -6.42587,-6.77115 z"
       id="path27"
       inkscape:connector-curvature="0"
       transform="matrix(0.26458333,0,0,0.26458333,0,203.60208)" />
    <path
       style="fill:#e3434b;fill-opacity:1;stroke-width:0.12626907"
       d="m 193.52754,68.427684 c -2.35805,-2.358815 -4.23086,-4.288314 -4.1618,-4.287776 0.14095,0.0011 2.93603,2.483764 4.67126,4.149136 4.5295,4.347139 4.22423,4.023469 3.99253,4.233157 -0.19759,0.178814 -0.55508,-0.146327 -4.50199,-4.094517 z"
       id="path31"
       inkscape:connector-curvature="0"
       transform="matrix(0.26458333,0,0,0.26458333,0,203.60208)" />
    <path
       style="fill:#e3434b;fill-opacity:1;stroke-width:0.25253814"
       d="m 122.88699,96.786147 c 1.16529,-1.417956 2.346,-2.842317 2.62379,-3.165248 l 0.50508,-0.587146 36.99683,0.216295 c 20.34826,0.118963 43.42813,0.223015 51.28859,0.231228 l 14.29175,0.01493 1.05304,2.311838 c 0.57917,1.271512 1.02228,2.342597 0.98468,2.38019 -0.14481,0.14481 -20.07704,0.379693 -51.96069,0.612309 -18.26482,0.133256 -38.7647,0.314604 -45.55528,0.402994 l -12.34651,0.16071 z"
       id="path33"
       inkscape:connector-curvature="0"
       transform="matrix(0.26458333,0,0,0.26458333,0,203.60208)" />
    <path
       style="fill:#e3434b;fill-opacity:1;stroke-width:0.25253814"
       d="m 121.09136,193.438 c 0,-8.25285 -0.0756,-31.37746 -0.16795,-51.38801 l -0.16796,-36.38282 1.62005,-0.1359 c 2.15559,-0.18083 108.85244,-0.97761 109.01595,-0.81411 0.07,0.07 -0.003,19.64896 -0.16297,43.50872 -0.15966,23.85977 -0.28866,46.99243 -0.28666,51.40593 l 0.004,8.02454 -1.57836,-1.33558 c -4.15972,-3.51986 -9.98462,-7.66709 -14.4241,-10.2697 -4.52255,-2.65131 -11.05361,-5.67996 -15.02995,-6.96983 l -1.35918,-0.4409 1.47748,-0.78938 c 1.74259,-0.93101 3.71346,-2.81926 5.75354,-5.51233 l 1.47342,-1.94504 -0.27923,-29.87477 -0.27922,-29.87476 -0.9731,-2.02031 c -1.89269,-3.92953 -4.4662,-6.56358 -8.11633,-8.30723 -1.53803,-0.73471 -1.84844,-0.7887 -4.92449,-0.85652 -1.80565,-0.0398 -10.46172,0.0845 -19.23571,0.2763 l -15.95271,0.34868 -1.27992,0.82133 c -2.11112,1.3547 -3.70002,3.32753 -5.28265,6.55908 l -1.43304,2.92613 v 3.78807 c 0,2.08344 0.0942,15.81733 0.20943,30.51976 0.19943,25.45503 0.23238,26.78522 0.68992,27.85262 0.60061,1.40116 2.67944,3.62645 4.62433,4.95011 l 1.48306,1.00935 -3.28546,1.19874 c -10.7328,3.91599 -19.89308,9.22289 -31.53597,18.27001 l -0.59585,0.46301 z"
       id="path35"
       inkscape:connector-curvature="0"
       transform="matrix(0.26458333,0,0,0.26458333,0,203.60208)" />
    <path
       style="fill:#e3434b;fill-opacity:1;stroke-width:0.25253814"
       d="m 156.10232,169.72861 c -0.0827,-3.38419 -0.21458,-15.52855 -0.29306,-26.98747 l -0.14269,-20.83439 0.87339,-1.80611 c 0.48037,-0.99335 1.29416,-2.27183 1.80842,-2.84105 l 0.93501,-1.03495 h 2.62227 2.62226 l 0.004,1.45209 c 0.002,0.79866 0.33922,11.83911 0.74911,24.53434 l 0.74525,23.08224 -4.19769,4.57068 c -2.30873,2.51388 -4.50775,4.89627 -4.88672,5.29419 l -0.68904,0.72349 -0.15036,-6.15306 z"
       id="path37"
       inkscape:connector-curvature="0"
       transform="matrix(0.26458333,0,0,0.26458333,0,203.60208)" />
    <path
       style="fill:#e3434b;fill-opacity:1;stroke-width:0.25253814"
       d="m 172.09188,161.39846 c -0.007,-1.16384 -0.33053,-11.83247 -0.71963,-23.70808 -0.38909,-11.8756 -0.69612,-21.60526 -0.68229,-21.62146 0.0138,-0.0162 2.96714,-0.0918 6.56292,-0.16791 l 6.53777,-0.13846 -0.1618,11.91093 c -0.089,6.55102 -0.23375,17.15174 -0.32169,23.55717 l -0.15988,11.64623 -3.81698,0.16633 c -2.09933,0.0915 -4.58405,0.23495 -5.5216,0.31883 l -1.70463,0.15249 z"
       id="path39"
       inkscape:connector-curvature="0"
       transform="matrix(0.26458333,0,0,0.26458333,0,203.60208)" />
    <path
       style="fill:#e3434b;fill-opacity:1;stroke-width:0.25253814"
       d="m 195.10268,171.51643 -5.65148,-6.32751 0.0383,-4.97357 c 0.1654,-21.48915 0.32463,-35.50554 0.44989,-39.60198 l 0.14764,-4.82892 1.90061,-0.17223 c 1.74735,-0.15834 2.01478,-0.11637 3.31653,0.52052 1.79124,0.87637 3.47352,2.56695 4.48916,4.51132 l 0.79149,1.51523 0.18105,27.84233 c 0.0996,15.31328 0.13769,27.84233 0.0847,27.84233 -0.053,0 -2.63954,-2.84738 -5.74785,-6.32752 z"
       id="path41"
       inkscape:connector-curvature="0"
       transform="matrix(0.26458333,0,0,0.26458333,0,203.60208)" />
    <path
       style="fill:#e3434b;fill-opacity:1;stroke-width:0.25253814"
       d="m 160.43279,183.5716 c -1.55146,-0.85718 -1.70892,-1.01186 -1.4139,-1.38896 0.36493,-0.46645 11.33411,-12.41808 11.40172,-12.42291 0.0231,-0.002 3.16712,-0.16976 6.98676,-0.37357 l 6.9448,-0.37057 0.93187,0.94178 c 2.29086,2.31521 11.26713,12.55994 11.15863,12.73549 -0.0664,0.10737 -0.71149,0.36017 -1.43362,0.56179 -0.98398,0.27473 -4.91984,0.46704 -15.70765,0.76753 -7.91707,0.22052 -15.00848,0.42639 -15.75869,0.45748 -1.16635,0.0483 -1.61702,-0.0832 -3.10992,-0.90806 z"
       id="path43"
       inkscape:connector-curvature="0"
       transform="matrix(0.26458333,0,0,0.26458333,0,203.60208)" />
    <path
       style="fill:#e3434b;fill-opacity:1;stroke-width:0.25253814"
       d="m 172.48287,319.23147 c -4.75633,-0.29569 -11.87444,-1.79682 -16.66751,-3.51501 -16.8903,-6.0547 -30.64792,-19.84543 -36.77357,-36.86205 -2.3391,-6.49787 -3.25386,-11.61561 -3.43057,-19.1929 -0.11183,-4.79538 -0.0549,-6.09161 0.41629,-9.47018 1.89389,-13.58115 7.84156,-25.54637 17.45932,-35.12381 9.37513,-9.33583 20.69152,-15.00474 34.32409,-17.19458 4.5063,-0.72386 12.66788,-0.72118 17.42997,0.006 26.91392,4.10825 47.47538,24.62132 51.67664,51.55505 0.63663,4.08131 0.63663,13.59635 0,17.67767 -2.07569,13.30696 -7.95038,24.94973 -17.31352,34.31288 -9.30132,9.30133 -21.18986,15.30265 -34.1075,17.21744 -3.09927,0.4594 -10.04627,0.77423 -13.01364,0.58976 z m -0.0661,-42.75087 -0.18639,-9.19233 -16.111,13.71394 -16.11099,13.71394 0.83244,0.87256 c 2.32361,2.43561 7.75139,6.39639 11.56827,8.44164 4.82736,2.58672 9.32895,4.10437 15.90693,5.3628 l 4.16688,0.79716 0.0601,-12.25869 c 0.0331,-6.74227 -0.0238,-16.39523 -0.12627,-21.45102 z m 14.33907,32.41364 c 6.477,-1.36518 12.92599,-4.14634 18.30449,-7.89388 2.22797,-1.55237 7.44988,-5.83735 7.44988,-6.11321 0,-0.096 -7.24469,-6.34094 -16.09931,-13.87766 l -16.0993,-13.70311 -0.15521,4.00625 c -0.0854,2.20343 -0.17059,11.778 -0.1894,21.27681 l -0.0342,17.27056 1.95717,-0.17634 c 1.07644,-0.097 3.26609,-0.45222 4.86588,-0.78942 z m -34.97823,-32.58377 c 8.61,-7.44114 15.69242,-13.63464 15.73872,-13.76333 0.0512,-0.1424 -8.09089,-0.23398 -20.80387,-0.23398 h -20.88805 l 0.17344,2.08344 c 0.50942,6.11948 2.78238,13.53677 5.90085,19.25603 1.17214,2.14972 3.83319,6.18719 4.0779,6.18719 0.0806,0 7.19101,-6.08821 15.80101,-13.52935 z m 66.73599,10.81456 c 4.48106,-6.89202 7.35394,-15.04103 8.01276,-22.72843 l 0.17855,-2.08344 h -20.88172 c -13.12451,0 -20.85046,0.0894 -20.79755,0.24066 0.1052,0.30075 31.30342,27.286 31.54592,27.286 0.0973,0 0.97124,-1.22165 1.94204,-2.71479 z m -50.99727,-30.61664 c -0.11295,-0.334 -31.3042,-27.27772 -31.57791,-27.27772 -0.34036,0 -3.28644,4.67965 -4.69027,7.45019 -2.8975,5.71839 -4.73913,12.03445 -5.24638,17.99302 l -0.17736,2.08344 h 20.88805 c 13.61211,0 20.85873,-0.0867 20.80387,-0.24893 z m 59.13601,-0.3259 c 0,-1.14463 -0.53211,-4.90745 -1.0258,-7.25385 -0.92293,-4.38656 -2.84229,-9.59188 -4.98185,-13.51079 -1.23438,-2.26095 -3.8398,-6.18718 -4.10576,-6.18718 -0.25043,0 -31.41072,26.96641 -31.51225,27.271 -0.057,0.17114 6.80924,0.25565 20.77022,0.25565 h 20.85544 z m -54.07826,-32.98591 0.0351,-13.98904 -2.02185,0.16861 c -7.3133,0.60991 -15.77483,3.72628 -22.60062,8.32377 -2.72666,1.83654 -8.00596,6.20066 -7.89688,6.52793 0.0427,0.12812 7.2918,6.3733 16.1091,13.87818 l 16.03145,13.64523 0.15429,-7.28282 c 0.0849,-4.00555 0.1701,-13.57789 0.18941,-21.27186 z m 23.88955,14.78745 c 8.47838,-7.20016 15.52507,-13.24649 15.65932,-13.43631 0.31068,-0.43928 -0.29582,-1.10958 -3.22057,-3.55935 -7.1681,-6.00399 -14.71364,-9.48524 -24.55017,-11.32661 -1.94455,-0.36402 -3.73441,-0.72009 -3.97748,-0.79128 -0.41764,-0.12232 -0.44194,0.75812 -0.44194,16.0093 0,8.87631 0.0749,18.54249 0.16635,21.48041 0.14881,4.77811 0.20766,5.30862 0.55781,5.02835 0.2153,-0.17233 7.3283,-6.20436 15.80668,-13.40451 z"
       id="path45"
       inkscape:connector-curvature="0"
       transform="matrix(0.26458333,0,0,0.26458333,0,203.60208)" />
  </g>
</svg>
