<?xml version="1.0" encoding="UTF-8" standalone="no"?>
<svg
   xmlns:dc="http://purl.org/dc/elements/1.1/"
   xmlns:cc="http://creativecommons.org/ns#"
   xmlns:rdf="http://www.w3.org/1999/02/22-rdf-syntax-ns#"
   xmlns:svg="http://www.w3.org/2000/svg"
   xmlns="http://www.w3.org/2000/svg"
   xmlns:sodipodi="http://sodipodi.sourceforge.net/DTD/sodipodi-0.dtd"
   xmlns:inkscape="http://www.inkscape.org/namespaces/inkscape"
   height="100%"
   width="100%"
   version="1.1"
   viewBox="0 0 2048 2048"
   id="svg6"
   sodipodi:docname="ws.svg"
   inkscape:version="0.92.2 2405546, 2018-03-11">
  <metadata
     id="metadata12">
    <rdf:RDF>
      <cc:Work
         rdf:about="">
        <dc:format>image/svg+xml</dc:format>
        <dc:type
           rdf:resource="http://purl.org/dc/dcmitype/StillImage" />
      </cc:Work>
    </rdf:RDF>
  </metadata>
  <defs
     id="defs10" />
  <sodipodi:namedview
     pagecolor="#ffffff"
     bordercolor="#666666"
     borderopacity="1"
     objecttolerance="10"
     gridtolerance="10"
     guidetolerance="10"
     inkscape:pageopacity="0"
     inkscape:pageshadow="2"
     inkscape:window-width="1920"
     inkscape:window-height="1060"
     id="namedview8"
     showgrid="false"
     inkscape:zoom="0.11523438"
     inkscape:cx="1041.3559"
     inkscape:cy="1024"
     inkscape:window-x="0"
     inkscape:window-y="20"
     inkscape:window-maximized="0"
     inkscape:current-layer="svg6" />
  <path
     style="color:#000000;display:block;fill:#000000;fill-rule:nonzero"
     d="m 1024,274 h 491 q 21,72 21,141 0,156 -86,283 -86,127 -223,187 -66,5 -66,72 0,53 67,78 93,65 93,172 0,77 -52,135 -52,58 -126,67 -60,5 -60,68 0,28 22,52 54,42 54,110 0,56 -40,96 -40,40 -95,40 -57,0 -96,-40 -39,-40 -40,-96 0,-67 54,-110 22,-22 22,-52 0,-63 -59,-68 -75,-9 -126,-67 -51,-58 -52,-135 0,-107 93,-172 67,-26 67,-78 0,-67 -67,-72 Q 684,825 598,698 512,571 512,415 q 0,-74 21,-141 z m 0,-68 H 484 q -40,100 -40,209 0,185 105,332 105,147 270,210 -71,33 -115,99 -44,66 -45,151 0,105 70,182 70,77 172,89 -81,61 -81,161 0,84 59,144 59,60 145,60 84,0 144,-60 60,-60 60,-144 0,-100 -81,-161 102,-12 172,-89 70,-77 70,-182 0,-84 -45,-150 -45,-66 -116,-100 165,-63 270,-210 105,-147 105,-332 0,-108 -39,-209 z"
     display="block"
     id="path2"
     inkscape:connector-curvature="0" />
  <path
     style="color:#000000;display:block;fill:#ffffff;fill-rule:nonzero"
     d="m 1024,274 h 491 q 21,72 21,141 0,156 -86,283 -86,127 -223,187 -66,5 -66,72 0,53 67,78 93,65 93,172 0,77 -52,135 -52,58 -126,67 -60,5 -60,68 0,28 22,52 54,42 54,110 0,56 -40,96 -40,40 -95,40 -57,0 -96,-40 -39,-40 -40,-96 0,-67 54,-110 22,-22 22,-52 0,-63 -59,-68 -75,-9 -126,-67 -51,-58 -52,-135 0,-107 93,-172 67,-26 67,-78 0,-67 -67,-72 Q 684,825 598,698 512,571 512,415 q 0,-74 21,-141 z"
     display="block"
     id="path4"
     inkscape:connector-curvature="0" />
</svg>
