<?xml version="1.0" encoding="UTF-8" standalone="no"?>
<!-- Generator: Adobe Illustrator 19.0.0, SVG Export Plug-In . SVG Version: 6.00 Build 0)  -->

<svg
   xmlns:dc="http://purl.org/dc/elements/1.1/"
   xmlns:cc="http://creativecommons.org/ns#"
   xmlns:rdf="http://www.w3.org/1999/02/22-rdf-syntax-ns#"
   xmlns:svg="http://www.w3.org/2000/svg"
   xmlns="http://www.w3.org/2000/svg"
   xmlns:sodipodi="http://sodipodi.sourceforge.net/DTD/sodipodi-0.dtd"
   xmlns:inkscape="http://www.inkscape.org/namespaces/inkscape"
   version="1.1"
   id="Layer_1"
   x="0px"
   y="0px"
   viewBox="0 0 512 512"
   style="enable-background:new 0 0 512 512;"
   xml:space="preserve"
   sodipodi:docname="ae.svg"
   inkscape:version="0.92.5 (2060ec1f9f, 2020-04-08)"><metadata
   id="metadata85"><rdf:RDF><cc:Work
       rdf:about=""><dc:format>image/svg+xml</dc:format><dc:type
         rdf:resource="http://purl.org/dc/dcmitype/StillImage" /></cc:Work></rdf:RDF></metadata><defs
   id="defs83" /><sodipodi:namedview
   pagecolor="#ffffff"
   bordercolor="#666666"
   borderopacity="1"
   objecttolerance="10"
   gridtolerance="10"
   guidetolerance="10"
   inkscape:pageopacity="0"
   inkscape:pageshadow="2"
   inkscape:window-width="960"
   inkscape:window-height="1060"
   id="namedview81"
   showgrid="false"
   inkscape:zoom="0.4609375"
   inkscape:cx="260.33898"
   inkscape:cy="256"
   inkscape:window-x="0"
   inkscape:window-y="20"
   inkscape:window-maximized="0"
   inkscape:current-layer="Layer_1" />
<path
   style="fill:#73d8d0;stroke-width:0.90124917"
   d="m 448.75595,290.86006 c 0,6.07477 -0.228,11.99821 -0.6726,17.79255 C 439.93995,416.79044 357.05625,474.88 256,474.88 154.9561,474.88 72.06005,416.79044 63.91665,308.65261 c -0.4446,-5.79348 -0.6726,-11.71777 -0.6726,-17.79255 0,-13.89033 1.1647,-27.96363 3.38675,-42.01641 C 83.5655,141.96095 161.9101,37.12 256,37.12 c 94.10225,0 172.4345,104.84095 189.3692,211.7245 2.22205,14.05193 3.38675,28.12608 3.38675,42.01556 z"
   id="path2"
   inkscape:connector-curvature="0" />
<path
   style="fill:#69ccc2;stroke-width:0.90124917"
   d="m 256,37.124275 c -72.20665,0 -130.73425,134.199085 -130.73425,253.740055 0,118.60133 57.61465,183.00335 129.0404,184.00883 C 148.63765,474.19258 63.24405,409.75721 63.24405,290.86433 63.24405,171.32336 149.55155,37.124275 256,37.124275 Z"
   id="path4"
   inkscape:connector-curvature="0" />
<path
   style="fill:#e8564f;stroke-width:0.90124917"
   d="m 448.75595,290.86006 c 0,6.07477 -0.228,11.99821 -0.6726,17.79255 H 63.91665 c -0.4446,-5.79348 -0.6726,-11.71778 -0.6726,-17.79255 0,-13.89033 1.1647,-27.96363 3.38675,-42.01641 h 378.7384 c 2.22205,14.05278 3.38675,28.12693 3.38675,42.01641 z"
   id="path6"
   inkscape:connector-curvature="0" />
<g
   id="g12"
   transform="matrix(0.95,0,0,0.855,12.8,37.12)">
	<path
   style="fill:#fc675b"
   d="m 225,322.841 -60.533,30.266 c -22.39,11.189 -48.737,-5.095 -48.737,-30.127 v -80.748 c 0,-25.032 26.347,-41.316 48.737,-30.127 L 225,242.371"
   id="path8"
   inkscape:connector-curvature="0" />
	<path
   style="fill:#fc675b"
   d="m 287.012,322.854 60.533,30.254 c 22.39,11.189 48.737,-5.095 48.737,-30.127 v -80.748 c 0,-25.032 -26.347,-41.316 -48.737,-30.127 l -60.533,30.254"
   id="path10"
   inkscape:connector-curvature="0" />
</g>
<g
   id="g22"
   transform="matrix(0.95,0,0,0.855,12.8,37.12)">
	<polygon
   style="fill:#e8564f"
   points="299.192,279.103 290.184,282.777 286.428,259.769 296.136,260.387 362.035,263.084 "
   id="polygon14" />
	<polygon
   style="fill:#e8564f"
   points="295.885,307.373 286.113,308.711 289.58,284.568 298.58,288.601 351.198,302.698 "
   id="polygon16" />
	<polygon
   style="fill:#e8564f"
   points="215.87,260.387 225.578,259.769 221.822,282.777 212.814,279.103 149.972,263.084 "
   id="polygon18" />
	<polygon
   style="fill:#e8564f"
   points="213.426,288.601 222.426,284.568 225.893,308.711 216.121,307.373 160.809,302.698 "
   id="polygon20" />
</g>
<path
   style="fill:#fc675b;stroke-width:0.90124917"
   d="m 296.0368,278.7524 c 0,28.05084 -17.91985,50.80411 -40.0311,50.80411 -1.8981,0 -3.7715,-0.17272 -5.6088,-0.49762 -19.45695,-3.45932 -34.4337,-24.66674 -34.4337,-50.30734 0,-25.65086 14.97675,-46.85913 34.44605,-50.30735 1.8259,-0.32404 3.6993,-0.49761 5.59645,-0.49761 22.11125,0.002 40.0311,22.74471 40.0311,50.80581 z"
   id="path24"
   inkscape:connector-curvature="0" />
<path
   style="fill:#e8564f;stroke-width:0.90124917"
   d="m 260.807,329.05975 c -19.45695,-3.45933 -34.4337,-24.66675 -34.4337,-50.30735 0,-25.65085 14.97675,-46.85913 34.44605,-50.30734 0.12445,-0.0231 0.2508,-0.0376 0.3762,-0.0581 -1.69955,-0.27873 -3.4276,-0.43862 -5.187,-0.43862 -1.8981,0 -3.7715,0.17271 -5.59645,0.49761 -19.4693,3.44822 -34.44605,24.65649 -34.44605,50.30735 0,25.63974 14.97675,46.84801 34.4337,50.30734 1.8373,0.32405 3.71165,0.49761 5.6088,0.49761 1.7575,0 3.4846,-0.15903 5.18225,-0.43776 -0.1292,-0.0214 -0.2565,-0.0376 -0.3838,-0.0607 z"
   id="path26"
   inkscape:connector-curvature="0" />
<g
   id="g48"
   transform="matrix(0.95,0,0,0.855,12.8,37.12)">
	<circle
   style="fill:#69ccc2"
   cx="304.25699"
   cy="163.00101"
   r="7.7969999"
   id="circle28" />
	<circle
   style="fill:#69ccc2"
   cx="223.142"
   cy="97.044998"
   r="7.7969999"
   id="circle30" />
	<circle
   style="fill:#69ccc2"
   cx="211.58701"
   cy="197.57899"
   r="7.7969999"
   id="circle32" />
	<circle
   style="fill:#69ccc2"
   cx="351.022"
   cy="86.753998"
   r="7.7969999"
   id="circle34" />
	<circle
   style="fill:#69ccc2"
   cx="423.552"
   cy="214.153"
   r="7.7969999"
   id="circle36" />
	<circle
   style="fill:#69ccc2"
   cx="380.745"
   cy="378.216"
   r="7.7969999"
   id="circle38" />
	<circle
   style="fill:#69ccc2"
   cx="248.465"
   cy="447.422"
   r="7.7969999"
   id="circle40" />
	<circle
   style="fill:#69ccc2"
   cx="294.43399"
   cy="363.92999"
   r="7.7969999"
   id="circle42" />
	<circle
   style="fill:#69ccc2"
   cx="164.189"
   cy="395.17001"
   r="7.7969999"
   id="circle44" />
	<circle
   style="fill:#69ccc2"
   cx="133.05099"
   cy="184.291"
   r="7.7969999"
   id="circle46" />
</g>
<g
   id="g50"
   transform="matrix(0.95,0,0,0.855,12.8,37.12)">
</g>
<g
   id="g52"
   transform="matrix(0.95,0,0,0.855,12.8,37.12)">
</g>
<g
   id="g54"
   transform="matrix(0.95,0,0,0.855,12.8,37.12)">
</g>
<g
   id="g56"
   transform="matrix(0.95,0,0,0.855,12.8,37.12)">
</g>
<g
   id="g58"
   transform="matrix(0.95,0,0,0.855,12.8,37.12)">
</g>
<g
   id="g60"
   transform="matrix(0.95,0,0,0.855,12.8,37.12)">
</g>
<g
   id="g62"
   transform="matrix(0.95,0,0,0.855,12.8,37.12)">
</g>
<g
   id="g64"
   transform="matrix(0.95,0,0,0.855,12.8,37.12)">
</g>
<g
   id="g66"
   transform="matrix(0.95,0,0,0.855,12.8,37.12)">
</g>
<g
   id="g68"
   transform="matrix(0.95,0,0,0.855,12.8,37.12)">
</g>
<g
   id="g70"
   transform="matrix(0.95,0,0,0.855,12.8,37.12)">
</g>
<g
   id="g72"
   transform="matrix(0.95,0,0,0.855,12.8,37.12)">
</g>
<g
   id="g74"
   transform="matrix(0.95,0,0,0.855,12.8,37.12)">
</g>
<g
   id="g76"
   transform="matrix(0.95,0,0,0.855,12.8,37.12)">
</g>
<g
   id="g78"
   transform="matrix(0.95,0,0,0.855,12.8,37.12)">
</g>
</svg>