<?xml version="1.0" encoding="UTF-8" standalone="no"?>
<!-- Svg Vector Icons : http://www.onlinewebfonts.com/icon -->

<svg
   xmlns:dc="http://purl.org/dc/elements/1.1/"
   xmlns:cc="http://creativecommons.org/ns#"
   xmlns:rdf="http://www.w3.org/1999/02/22-rdf-syntax-ns#"
   xmlns:svg="http://www.w3.org/2000/svg"
   xmlns="http://www.w3.org/2000/svg"
   xmlns:sodipodi="http://sodipodi.sourceforge.net/DTD/sodipodi-0.dtd"
   xmlns:inkscape="http://www.inkscape.org/namespaces/inkscape"
   version="1.1"
   x="0px"
   y="0px"
   viewBox="0 0 1000 1000"
   enable-background="new 0 0 1000 1000"
   xml:space="preserve"
   id="svg10"
   sodipodi:docname="aw.svg"
   inkscape:version="0.92.5 (2060ec1f9f, 2020-04-08)"><defs
   id="defs14" /><sodipodi:namedview
   pagecolor="#ffffff"
   bordercolor="#666666"
   borderopacity="1"
   objecttolerance="10"
   gridtolerance="10"
   guidetolerance="10"
   inkscape:pageopacity="0"
   inkscape:pageshadow="2"
   inkscape:window-width="1920"
   inkscape:window-height="1060"
   id="namedview12"
   showgrid="false"
   inkscape:zoom="0.236"
   inkscape:cx="-254.23729"
   inkscape:cy="500"
   inkscape:window-x="0"
   inkscape:window-y="20"
   inkscape:window-maximized="0"
   inkscape:current-layer="svg10" />
<metadata
   id="metadata2"> Svg Vector Icons : http://www.onlinewebfonts.com/icon <rdf:RDF><cc:Work
     rdf:about=""><dc:format>image/svg+xml</dc:format><dc:type
       rdf:resource="http://purl.org/dc/dcmitype/StillImage" /></cc:Work></rdf:RDF></metadata>
<g
   id="g8"
   transform="matrix(0.9,0,0,0.9,49.985,50.015)"><g
     transform="matrix(1,0,0,-1,0,1920)"
     id="g6"><path
       d="m 349.2,950.7 c -30.7,0 -60.7,4.1 -90.1,12.3 -29.4,8.2 -56.5,19.5 -81.2,34.1 -24.8,14.6 -47.6,32.3 -68.4,53.1 -20.9,20.9 -38.6,43.7 -53.1,68.4 -14.6,24.8 -25.9,51.8 -34.1,81.2 -8.2,29.4 -12.3,59.5 -12.3,90.2 0,28.6 4.2,57.1 12.6,85.4 8.4,28.3 19.9,54.2 34.5,77.8 14.6,23.6 31.5,45.7 50.7,66.1 19.2,20.5 39.7,38.3 61.4,53.3 21.7,15.1 44,27.4 66.9,36.9 v 91.2 h 94.2 c 0,37.7 9.1,69.5 27.3,95.5 18.2,26 42.7,42.2 73.3,48.4 8.8,1.8 17.5,2.6 26,2.6 28.4,0 54.8,-8.7 79.3,-26.2 24.5,-17.5 43.3,-41.3 56.3,-71.4 13.3,-30.9 31.7,-49.6 55,-56.2 6.5,-1.8 13.6,-2.6 21.1,-2.6 15.3,0 32.3,3.8 50.9,11.3 l -65.2,19.2 98,29 -49,89.7 89.7,-49 29,98 28.6,-98 90.1,49 -49,-89.7 98,-29 -98,-28.6 49,-90.1 -90.1,49 -28.6,-98 -29,98 -89.7,-49 36.9,67.1 c -25.4,-11.3 -49.3,-17 -71.6,-17 -11.6,0 -22,1.3 -31.3,3.8 -35.2,10.1 -61.7,35.8 -79.5,77.3 -10.8,25.4 -25.4,44.4 -43.9,56.9 -18.5,12.6 -37.6,18.8 -57.5,18.8 -6.3,0 -12.2,-0.6 -17.7,-1.9 -9.5,-1.8 -18.2,-4.8 -25.8,-9.2 -7.7,-4.4 -15.1,-10.6 -22.2,-18.5 -7.2,-7.9 -12.8,-18.6 -16.8,-32 -4,-13.4 -6,-29.2 -6,-47.3 h 94.2 v -91.2 c 36.9,-11.6 69.9,-27.8 98.8,-48.8 28.9,-21 52.6,-45.4 71,-73.3 18.5,-27.9 32.5,-58.5 42,-91.8 9.5,-33.3 14.3,-68.5 14.3,-105.7 0,-30.7 -4.1,-60.7 -12.3,-90.1 -8.2,-29.4 -19.5,-56.5 -34.1,-81.2 -14.6,-24.8 -32.3,-47.6 -53.1,-68.4 -20.9,-20.9 -43.7,-38.6 -68.4,-53.1 -24.8,-14.6 -51.8,-25.9 -81.2,-34.1 -29.2,-8.1 -59.2,-12.2 -89.9,-12.2 z"
       id="path4"
       inkscape:connector-curvature="0" /></g></g>
<path
   style="fill:#483e37;fill-opacity:1;stroke-width:3.81355929"
   d="M 289.55515,910.8568 C 204.13872,888.49569 132.74726,830.84844 93.628906,752.65003 54.974192,675.37851 51.151601,586.83975 83.170924,510.42255 110.89217,444.26314 176.7069,374.55038 242.76043,341.38101 l 20.02118,-10.05382 v -41.88491 -41.8849 h 43.32627 43.32627 l 2.02758,-22.36049 c 2.53828,-27.99263 13.0488,-52.11172 31.71057,-72.76807 23.06851,-25.53409 39.83988,-32.53552 77.91439,-32.52643 28.11708,0.007 35.12349,1.42686 52.8398,10.71017 27.25265,14.28035 50.387,38.83267 65.9435,69.98538 23.8381,47.73712 49.37843,63.20909 90.65746,54.91907 30.35666,-6.09649 31.40085,-10.14374 4.5601,-17.67487 -12.82759,-3.59924 -23.32289,-7.61614 -23.32289,-8.92646 0,-1.31031 17.16101,-7.33829 38.1356,-13.3955 20.97457,-6.0572 38.13559,-11.84002 38.13559,-12.8507 0,-1.01067 -8.69762,-17.92393 -19.32808,-37.58502 -10.63045,-19.66108 -18.5736,-35.74743 -17.65144,-35.74743 0.92216,0 17.4867,8.72209 36.81008,19.38242 19.32338,10.66033 35.66327,18.81182 36.31084,18.11441 0.64763,-0.69741 6.72392,-19.28708 13.50294,-41.31039 l 12.3255,-40.042368 11.58392,40.042368 c 6.37112,22.02331 12.05344,40.6478 12.62738,41.38776 0.57393,0.73995 17.45611,-7.52865 37.51593,-18.37469 20.05981,-10.84603 36.47242,-18.63269 36.47242,-17.30368 0,1.32901 -8.60373,18.01189 -19.11943,37.07306 -10.51567,19.06118 -18.66715,35.0375 -18.11441,35.50292 0.55277,0.46542 17.30799,5.54526 37.23384,11.28853 19.92584,5.74326 37.4294,11.53506 38.89682,12.87064 1.46738,1.33559 -14.83558,7.40789 -36.22882,13.49401 -21.39327,6.08611 -39.34907,11.40066 -39.90184,11.8101 -0.55273,0.40942 7.74034,16.59656 18.42907,35.9714 10.68871,19.37484 18.69719,35.96382 17.79658,36.86441 -0.90058,0.90058 -17.48956,-7.1079 -36.86438,-17.79661 -19.37487,-10.68872 -35.67685,-18.86343 -36.22665,-18.16602 -0.5498,0.6974 -5.858,18.89692 -11.79602,40.44338 -5.93802,21.54645 -11.91169,37.84941 -13.27477,36.2288 -1.36312,-1.6206 -7.30499,-19.67854 -13.20415,-40.12875 -5.89915,-20.45021 -11.12327,-37.18221 -11.60911,-37.18221 -0.48585,0 -16.43675,8.58051 -35.44647,19.06781 -19.00975,10.48728 -35.68107,19.06779 -37.04747,19.06779 -1.36635,0 3.82619,-11.28423 11.53903,-25.07607 7.71285,-13.79183 13.27652,-25.82287 12.36375,-26.73563 -0.91273,-0.91276 -8.86893,0.88405 -17.68042,3.99293 -41.98321,14.81253 -81.13126,9.59082 -109.38067,-14.58961 -8.97994,-7.68648 -22.35309,-26.21943 -32.31285,-44.78019 -26.04505,-48.5368 -49.48974,-67.50164 -88.05196,-71.22676 -46.8725,-4.52791 -81.70923,26.06124 -86.2102,75.69876 l -2.05218,22.63183 h 42.47881 42.47882 v 41.54361 41.54361 l 25.2106,10.0925 c 82.60166,33.0677 140.77422,98.66952 166.11777,187.33269 11.78294,41.2221 12.62204,128.0017 1.60195,165.67403 -17.66521,60.38877 -43.39826,102.32229 -89.27649,145.48122 -35.69171,33.57618 -84.10442,59.98698 -131.91216,71.96255 -40.83805,10.22972 -107.31816,10.08023 -147.08678,-0.33064 z"
   id="path16"
   inkscape:connector-curvature="0" /><path
   style="fill:#800080;fill-opacity:1;stroke-width:4.237288"
   d="m 339.43336,917.31585 c -1.1845,-1.91653 -8.15809,-3.0911 -15.49689,-2.61009 -7.33878,0.48098 -16.20342,-0.28445 -19.69918,-1.70093 -3.49576,-1.41648 -11.12288,-3.38619 -16.94915,-4.37708 -5.82628,-0.99089 -14.82905,-3.16432 -20.00616,-4.82978 -5.17711,-1.66551 -10.68427,-2.65716 -12.23812,-2.20373 -1.55385,0.45347 -3.99176,-0.86555 -5.41758,-2.93119 -1.42581,-2.06563 -13.07967,-9.11555 -25.89747,-15.66657 -12.81779,-6.55097 -26.64195,-14.85317 -30.72034,-18.44936 -4.07839,-3.59619 -7.41525,-5.03246 -7.41525,-3.19174 0,1.84076 -3.9232,-1.64072 -8.71823,-7.73661 -4.79503,-6.09589 -10.03867,-10.69568 -11.65255,-10.22174 -1.61386,0.4739 -8.98466,-5.28296 -16.37955,-12.79309 -7.39488,-7.51013 -12.51086,-13.65479 -11.36885,-13.65479 1.14201,0 -4.50353,-8.10381 -12.54565,-18.00847 -8.04211,-9.90466 -19.99003,-28.49576 -26.550928,-41.31356 -6.560897,-12.8178 -13.618959,-24.47165 -15.684582,-25.89746 -2.065623,-1.42585 -3.495088,-4.28602 -3.176589,-6.35593 0.3185,-2.06996 -0.633807,-7.57712 -2.116235,-12.23814 -1.482429,-4.66101 -3.385303,-13.03161 -4.228608,-18.60127 -0.843305,-5.5697 -2.796895,-13.19682 -4.341311,-16.94915 C 60.78461,658.03758 60.27664,586.3136 68.01657,562.71186 c 6.897063,-21.03156 16.843405,-57.45439 16.070275,-58.84829 -0.501795,-0.90469 1.0044,-2.82951 3.3471,-4.27738 2.342701,-1.44787 4.889034,-5.40016 5.658517,-8.78287 0.769487,-3.38271 4.669991,-9.85047 8.667788,-14.3728 3.9978,-4.52233 6.39223,-9.64063 5.32095,-11.37399 -1.07128,-1.73336 1.17435,-4.34965 4.99029,-5.81396 3.81594,-1.46432 5.99998,-3.60047 4.85344,-4.74702 -3.51257,-3.51256 51.0336,-59.74638 76.47001,-78.83598 13.18787,-9.89728 26.36142,-20.84672 29.27455,-24.3321 2.91314,-3.48537 5.29661,-4.97025 5.29661,-3.29971 0,3.99936 26.64297,-9.7152 30.65546,-15.78001 1.71219,-2.58796 3.14227,-22.34309 3.17796,-43.90029 l 0.0649,-39.19492 h 44.94487 c 39.1304,0 44.61409,-0.86197 42.38807,-6.66289 -1.40624,-3.66459 -0.66706,-10.19388 1.64261,-14.50953 2.30966,-4.31565 4.6863,-14.66099 5.28141,-22.98963 0.59511,-8.32865 2.28077,-15.14682 3.74592,-15.15149 1.46514,-0.005 5.00321,-5.65611 7.86238,-12.55876 6.85854,-16.55796 43.98492,-51.00905 54.97016,-51.00905 4.76086,0 8.65517,-1.43009 8.65403,-3.17797 -0.003,-4.77961 55.42915,-2.47016 69.32673,2.88834 22.59818,8.71315 49.17441,31.23495 64.90492,55.0031 8.61839,13.022 20.52237,31.09379 26.45335,40.15954 5.93093,9.06576 17.93406,21.21518 26.6736,26.99872 13.85754,9.1705 19.20165,10.23646 41.78042,8.33366 28.77568,-2.42504 39.16098,-8.2736 26.61458,-14.98822 -4.3286,-2.31659 -8.82356,-4.45387 -9.98882,-4.74951 -20.55957,-5.21618 -21.26017,-5.69693 -16.55834,-11.36229 2.64368,-3.18545 6.33741,-4.84569 8.2083,-3.68942 1.87089,1.15626 8.80526,-0.13505 15.40971,-2.86956 14.0597,-5.8213 16.49953,-6.56324 23.91012,-7.27097 3.05034,-0.29131 8.91165,-2.99065 13.02521,-5.99853 6.4289,-4.70093 6.74462,-7.08097 2.24835,-16.94916 -2.87691,-6.31415 -6.83148,-11.48028 -8.78792,-11.48028 -1.9564,0 -3.1717,-1.43008 -2.7006,-3.17796 0.47111,-1.74788 -3.32826,-11.17801 -8.44305,-20.95585 -5.63665,-10.77553 -7.643,-18.8017 -5.09381,-20.37719 2.31318,-1.42962 4.20576,-0.95995 4.20576,1.0437 0,3.27017 34.91988,22.34653 40.42721,22.08498 1.23661,-0.0587 5.29919,2.94407 9.028,6.67288 6.43081,6.43083 15.50289,3.35011 16.5778,-5.62954 0.19534,-1.63135 2.50373,-8.13651 5.12987,-14.45589 2.62615,-6.31938 5.60208,-15.85328 6.61322,-21.18644 3.38183,-17.83697 7.92204,-28.764449 11.95123,-28.764449 2.19623,0 2.91361,1.746771 1.59411,3.881712 -1.31945,2.134941 -0.18728,9.285367 2.51627,15.889827 2.70339,6.60447 5.59941,15.82168 6.43556,20.4827 0.83614,4.66102 2.76347,11.33474 4.28296,14.83051 3.22729,7.42479 4.35538,11.16262 5.0836,16.84427 0.54543,4.25538 21.57331,-1.90286 25.86716,-7.57546 2.21852,-2.93088 40.95056,-21.98068 44.69111,-21.98068 2.703,0 0.54991,10.05457 -2.72212,12.71187 -4.36047,3.54126 -22.46907,40.03281 -21.55284,43.4322 0.4711,1.74788 -0.73246,3.17797 -2.67454,3.17797 -5.94398,0 -3.91584,12.67579 2.11865,13.24152 7.4833,0.70157 9.94453,1.44258 23.49542,7.0739 6.31937,2.62614 15.85327,5.37481 21.18644,6.10817 5.33318,0.73335 12.40615,3.02918 15.71771,5.10184 4.78022,2.99186 3.907,4.627 -4.23728,7.93436 -5.64208,2.29124 -14.07191,4.85959 -18.73293,5.70744 -4.66101,0.84786 -11.33474,2.76593 -14.83051,4.26237 -3.49576,1.49645 -11.08843,3.50549 -16.87262,4.46455 -5.78416,0.95905 -11.20191,2.42897 -12.03941,3.26649 -2.42733,2.42732 3.56729,18.55549 9.0625,24.38207 8.47335,8.98434 24.24606,45.57593 19.64538,45.57593 -2.3822,0 -9.03114,-3.07947 -14.77542,-6.84326 -5.74428,-3.76379 -10.47335,-5.19388 -10.50903,-3.17797 -0.0339,2.01592 -1.46576,1.53797 -3.17796,-1.0621 -1.71221,-2.60007 -11.17606,-8.81503 -21.03085,-13.81102 l -17.91775,-9.08362 -2.46539,9.82295 c -1.35597,5.40263 -3.01059,12.57098 -3.67695,15.92967 -0.66631,3.35869 -3.42491,11.51036 -6.13021,18.11483 -2.70525,6.60446 -4.12072,13.29922 -3.14546,14.87724 0.97525,1.57801 -0.91788,6.54939 -4.20699,11.04751 -3.28907,4.49812 -5.98017,6.0313 -5.98017,3.40708 0,-2.62422 -2.19822,-10.13909 -4.88496,-16.6997 -2.68674,-6.56061 -5.58305,-15.74195 -6.43627,-20.40297 -0.85322,-4.66101 -3.53873,-14.5775 -5.96784,-22.03664 -4.05894,-12.46395 -5.25326,-13.18083 -14.75017,-8.85375 -5.68352,2.58958 -10.33365,6.42156 -10.33365,8.51553 0,2.09397 -1.90678,2.62876 -4.23728,1.18842 -2.33051,-1.44033 -4.23729,-0.59947 -4.23729,1.86858 0,2.46804 -1.43009,4.09532 -3.17797,3.61616 -1.74788,-0.47916 -9.28029,2.38101 -16.73873,6.35593 -17.07881,9.10205 -17.82932,9.04715 -17.05385,-1.24745 0.35127,-4.66101 2.4572,-8.47457 4.68017,-8.47457 2.22301,0 2.86139,-1.18039 1.41873,-2.62309 -1.44272,-1.44269 0.14618,-5.39245 3.53105,-8.77723 6.46263,-6.46262 8.41297,-18.34839 2.97619,-18.13732 -1.74788,0.0679 -16.1478,3.66499 -31.99979,7.99363 -25.63237,6.9993 -30.95745,7.22753 -48.12025,2.06229 -29.97276,-9.02049 -46.0978,-21.13061 -63.12776,-47.40978 -30.73661,-47.43023 -36.39928,-55.14293 -48.21622,-65.67187 -18.26335,-16.2727 -27.28356,-19.87326 -54.88041,-21.90638 -47.48977,-3.49867 -77.49573,24.17029 -83.78315,77.25772 l -2.62065,22.12728 h 42.9631 42.9631 v 41.95837 41.95837 l 12.71186,4.43138 c 6.99153,2.43726 12.74106,3.10048 12.77674,1.47383 0.0339,-1.62665 1.46576,-0.83021 3.17797,1.76986 3.97902,6.04236 39.13004,23.98398 39.13004,19.97257 0,-1.65804 2.79953,0.68668 6.22118,5.2105 3.42161,4.52382 6.28178,6.5838 6.35594,4.57773 0.0742,-2.00606 3.88487,0.85411 8.46834,6.35593 4.58348,5.50183 8.39704,8.55306 8.47458,6.7805 0.0775,-1.77255 9.19818,6.99795 20.26809,19.49 30.19009,34.06858 42.87263,49.41079 40.84513,49.41079 -3.17894,0 16.22716,35.87852 21.16475,39.13003 2.60008,1.7122 3.49728,3.14228 1.99377,3.17797 -1.50352,0.0356 1.11826,11.98226 5.82618,26.54794 4.70788,14.56567 8.28221,31.84516 7.94288,38.39885 -0.3394,6.55369 0.55839,13.8175 1.99488,16.14178 4.07224,6.58907 2.28517,75.49373 -2.56924,99.06106 -2.40017,11.65254 -4.83758,24.04661 -5.41644,27.54237 -0.5789,3.49577 -2.53996,8.73941 -4.35797,11.65255 -1.81796,2.91313 -1.76284,5.3258 0.12246,5.36148 1.88543,0.0339 0.94907,1.63733 -2.0808,3.55924 -3.02992,1.9219 -5.81916,7.613 -6.19835,12.64699 -0.37924,5.03394 -2.06195,9.15262 -3.73949,9.15262 -3.09288,0 -7.94932,11.8703 -7.52555,18.39437 0.12712,1.96008 -2.38272,5.77364 -5.57784,8.47457 -3.19517,2.70089 -14.2567,16.1539 -24.58123,29.8956 -31.34708,41.72207 -101.84119,91.4239 -145.05273,102.26932 -6.40299,1.60703 -12.63823,4.53415 -13.8561,6.50475 -1.21787,1.97055 -4.9221,2.54372 -8.23163,1.27372 -3.30952,-1.26995 -8.49096,-0.78025 -11.5143,1.08827 -3.02333,1.86851 -10.69864,2.85169 -17.05623,2.18483 -6.35759,-0.66687 -13.89339,0.23008 -16.74621,1.99322 -7.09047,4.38216 -46.12317,4.6397 -48.79169,0.32203 z"
   id="path18"
   inkscape:connector-curvature="0" /></svg>