<?xml version="1.0" encoding="UTF-8" standalone="no"?>
<svg
   xmlns:dc="http://purl.org/dc/elements/1.1/"
   xmlns:cc="http://creativecommons.org/ns#"
   xmlns:rdf="http://www.w3.org/1999/02/22-rdf-syntax-ns#"
   xmlns:svg="http://www.w3.org/2000/svg"
   xmlns="http://www.w3.org/2000/svg"
   xmlns:sodipodi="http://sodipodi.sourceforge.net/DTD/sodipodi-0.dtd"
   xmlns:inkscape="http://www.inkscape.org/namespaces/inkscape"
   height="100%"
   width="100%"
   version="1.1"
   viewBox="0 0 2048 2048"
   id="svg6"
   sodipodi:docname="wo.svg"
   inkscape:version="0.92.4 5da689c313, 2019-01-14">
  <metadata
     id="metadata12">
    <rdf:RDF>
      <cc:Work
         rdf:about="">
        <dc:format>image/svg+xml</dc:format>
        <dc:type
           rdf:resource="http://purl.org/dc/dcmitype/StillImage" />
        <dc:title></dc:title>
      </cc:Work>
    </rdf:RDF>
  </metadata>
  <defs
     id="defs10" />
  <sodipodi:namedview
     pagecolor="#ffffff"
     bordercolor="#666666"
     borderopacity="1"
     objecttolerance="10"
     gridtolerance="10"
     guidetolerance="10"
     inkscape:pageopacity="0"
     inkscape:pageshadow="2"
     inkscape:window-width="1920"
     inkscape:window-height="1060"
     id="namedview8"
     showgrid="false"
     inkscape:zoom="0.11523438"
     inkscape:cx="1041.3559"
     inkscape:cy="1024"
     inkscape:window-x="0"
     inkscape:window-y="20"
     inkscape:window-maximized="0"
     inkscape:current-layer="svg6" />
  <path
     style="color:black;"
     d="m1756 1774q-1 0 2-54t3-118q1-125 0-258t-36-267q-34-128-75-218t-89-157q-72-108-196-183t-259-98q9 49 8 96-2 36-34 36-37 0-33-36 3-132-94-226-76 80-82 186-2 35-36 31-32-1-32-37 0 0 2-8-41 13-86 37-29 20-47-10t16-47q43-22 65-33-86-88-196-142 12 139 76 263 17 26-8 46-28 22-47-7-7-10-20-36-21 21-28 31-7 9-24 40t-26 51q-9 25-8 40t3 35q-9 59-40 111t-81 127q-47 72-72 108t-38 92q-9 34 0 82t39 76q46 47 89 43 14 0 37-11t37-42q26-57 43-57 25 0 27 28 0 6-16 50-9 20-24 42-19 26-17 22 16 57 53 20 11-11 25-41t44-81q35-59 75-96t71-60q18-13 44-30t70-35q35-14 77-34t76-53q46-45 71-111 13-37 10-91-9-34 34-34 32 0 36 33 0 113-64 206 21 64 11 140-9 61-42 130t-136 155q-207 172-196 354 0 0 170 0t321 0h547z"
     fill-rule="nonzero"
     display="block"
     fill="#fff"
     id="path2" />
  <path
     style="color:black;"
     d="m697 1359q13-20 10-42-10-64-71-54-18 3-29 12-4-5-12-22-11-32-42-22-31 12-24 45 45 115 163 158 34 10 45-20 12-32-18-44-6-3-11-5t-11-6zm-297-477q-29-18-35-48 1-33-31-36-35-4-36 30 4 66 59 105 26 21 48-4 22-27-5-47zm679 815q157-10 291-81t228-182q66-78 124-188t94-233q40-143 50-300t11-292v-218t-155 0-404 0h-671q-9 0-9 49t7 79q4 24 19 68t50 107q16 32 76 93t138 143q45 46 70 116t22 127q-37-30-81-49-212-76-307-220-7-9-45-81-20-38-34-52-19-19-55-21-56-3-87 54-42-12-75-10-56 21-81 45-51 51-66 102t-16 110q0 84 104 222 122 159 130 242 0 36 7 81 6 31 25 60 13 20 17 27t17 23q9 12 15 18t15 18q11 13 28 30-53 146-43 301 199-71 334-223 33 113 130 183 80-56 127-148zm677-1423q-1 0 2 54t3 118q1 125 0 258t-36 267q-34 128-75 218t-89 157q-72 108-196 183t-259 98q9-49 8-96-2-36-34-36-37 0-33 36 3 132-94 226-76-80-82-186-2-35-36-31-32 1-32 37 0 0 2 8-41-13-86-37-29-20-47 10t16 47q43 22 65 33-86 88-196 142 12-139 76-263 17-26-8-46-28-22-47 7-7 10-20 36-21-21-28-31-7-9-24-40t-26-51q-9-25-8-40t3-35q-9-59-40-111t-81-127q-47-72-72-108t-38-92q-9-34 0-82t39-76q46-47 89-43 14 0 37 11t37 42q26 57 43 57 25 0 27-28 0-6-16-50-9-20-24-42-19-26-17-22 16-57 53-20 11 11 25 41t44 81q35 59 75 96t71 60q18 13 44 30t70 35q35 14 77 34t76 53q46 45 71 111 13 37 10 91-9 34 34 34 32 0 36-33 0-113-64-206 21-64 11-140-9-61-42-130t-136-155q-207-172-196-354 0 0 170 0t321 0h547z"
     fill-rule="nonzero"
     transform="translate(0,2048) scale(1,-1)"
     display="block"
     fill="#000"
     id="path4" />
  <path
     style="fill:#ffcc00;fill-opacity:1;stroke-width:8.67796612"
     d="m 722.74458,1727.3607 c 16.40726,-109.4115 63.67577,-182.6701 199.96743,-309.9175 83.23649,-77.713 104.10369,-102.5993 129.91119,-154.9325 38.7086,-78.4943 53.3173,-152.8139 42.3597,-215.499 -7.3451,-42.0189 -5.7974,-51.49462 16.2498,-99.49011 29.0323,-63.20179 43.8935,-142.67319 32.3551,-173.02155 -6.0672,-15.95776 -14.4923,-21.25258 -33.8168,-21.25258 -32.2052,0 -37.9061,9.2458 -39.6909,64.37136 -0.7855,24.25677 -9.4727,62.15409 -19.3051,84.21629 -32.5474,73.0306 -72.41612,106.88849 -197.95463,168.10979 -150.88953,73.5842 -228.01818,143.0876 -298.61096,269.089 -47.61765,84.9931 -63.27682,101.2682 -80.68573,83.8592 -6.93497,-6.9349 -1.83237,-24.7258 18.68537,-65.149 31.8715,-62.792 32.79204,-95.3592 2.8157,-99.6156 -14.60744,-2.0742 -23.42111,4.3334 -34.71186,25.2359 -8.32328,15.4087 -25.37742,39.895 -37.8981,54.4138 -56.20367,65.1735 -161.78391,2.1435 -176.57684,-105.4139 -8.3618,-60.7976 10.55309,-105.8294 105.67285,-251.58186 102.82608,-157.56091 123.8202,-201.21193 124.04174,-257.90786 0.18267,-46.74605 30.82423,-124.20952 62.51052,-158.02983 l 17.97199,-19.18236 16.79537,21.35185 c 18.20256,23.14081 40.68698,27.44124 57.18992,10.9383 15.47223,-15.47223 13.27433,-27.96929 -19.34645,-110.00203 -27.52833,-69.22653 -54.37982,-180.16774 -45.706,-188.84156 5.77615,-5.77615 128.94222,79.11386 155.9892,107.51277 l 24.11642,25.32186 -35.49115,16.00428 c -44.41077,20.02646 -55.43387,38.54413 -37.87079,63.61895 16.49659,23.55217 27.89964,23.4312 78.03159,-0.82779 l 40.34981,-19.52543 13.0086,19.52543 c 8.43604,12.66218 21.72941,19.52542 37.81868,19.52542 20.06687,0 25.767,-4.56242 29.81528,-23.86441 17.49782,-83.42855 25.29925,-106.27688 48.89022,-143.18644 14.49044,-22.67122 29.64551,-41.22037 33.67793,-41.22037 13.11696,0 52.47762,58.6544 69.59962,103.71595 9.1944,24.19761 16.717,62.69816 16.717,85.5568 0,47.54783 10.6948,62.38827 44.9601,62.38827 29.3042,0 37.8281,-24.23251 30.4467,-86.5564 -5.6719,-47.89102 -10.5631,-47.04037 89.4746,-15.56102 145.9368,45.92263 280.8633,145.66447 363.2466,268.52305 69.6749,103.90646 133.4153,263.42643 166.6274,417.01043 20.2898,93.8263 32.0005,386.0828 21.5662,538.2111 l -6.3985,93.2881 H 1233.0542 716.56493 Z m -364.96444,-484.428 c 7.50025,-7.5002 13.63681,-20.4873 13.63681,-28.8602 0,-8.3729 9.94031,-24.5618 22.08958,-35.9755 24.88653,-23.3797 25.9875,-57.3133 2.33977,-72.1159 -31.07515,-19.4519 -86.83428,35.2232 -99.25463,97.3249 -9.16803,45.8402 29.76275,71.0525 61.18847,39.6267 z M 594.24473,803.14576 c 12.64983,-15.61639 23.03712,-18.99915 51.88393,-16.89673 29.40919,2.14342 38.62092,-1.01662 49.8983,-17.11734 7.60686,-10.86031 13.83067,-32.89524 13.83067,-48.9665 0,-19.4332 6.25147,-34.28259 18.66417,-44.33377 22.50576,-18.22407 16.93304,-57.22656 -9.36938,-65.57463 -55.67266,-17.66981 -191.53208,102.04858 -191.53208,168.77677 0,44.25275 38.9045,58.33278 66.62439,24.1122 z"
     id="path14"
     inkscape:connector-curvature="0" />
</svg>
