<?xml version="1.0" encoding="UTF-8" standalone="no"?>
<svg
   xmlns:dc="http://purl.org/dc/elements/1.1/"
   xmlns:cc="http://creativecommons.org/ns#"
   xmlns:rdf="http://www.w3.org/1999/02/22-rdf-syntax-ns#"
   xmlns:svg="http://www.w3.org/2000/svg"
   xmlns="http://www.w3.org/2000/svg"
   xmlns:sodipodi="http://sodipodi.sourceforge.net/DTD/sodipodi-0.dtd"
   xmlns:inkscape="http://www.inkscape.org/namespaces/inkscape"
   version="1.1"
   id="Capa_1"
   x="0px"
   y="0px"
   viewBox="0 0 434.136 434.136"
   style="enable-background:new 0 0 434.136 434.136;"
   xml:space="preserve"
   sodipodi:docname="wa.svg"
   inkscape:version="1.0.1 (3bc2e813f5, 2020-09-07, custom)"><metadata
   id="metadata39"><rdf:RDF><cc:Work
       rdf:about=""><dc:format>image/svg+xml</dc:format><dc:type
         rdf:resource="http://purl.org/dc/dcmitype/StillImage" /></cc:Work></rdf:RDF></metadata><defs
   id="defs37" /><sodipodi:namedview
   pagecolor="#ffffff"
   bordercolor="#666666"
   borderopacity="1"
   objecttolerance="10"
   gridtolerance="10"
   guidetolerance="10"
   inkscape:pageopacity="0"
   inkscape:pageshadow="2"
   inkscape:window-width="1920"
   inkscape:window-height="1060"
   id="namedview35"
   showgrid="false"
   inkscape:zoom="2.0339249"
   inkscape:cx="217.06799"
   inkscape:cy="216.57633"
   inkscape:window-x="0"
   inkscape:window-y="20"
   inkscape:window-maximized="0"
   inkscape:current-layer="Capa_1" />
<path
   d="m 326.84958,110.75221 c 21.0888,6.4936 44.4056,1.1744 60.4088,-14.826402 3.124,-3.124 3.124,-8.1896 0,-11.3136 -3.124,-3.124 -8.1888,-3.1248 -11.3136,0 -14.3024,14.3016 -36.6168,16.963202 -54.2648,6.472 -31.7144,-18.8544 -69.4736,-26.8336 -106.3176,-22.464 -34.8152,4.1272 -66.62,18.5112 -92.56,41.747202 l -13.0592,-13.058402 c 3.8544,-6.7696 4.8648,-14.7944 2.644,-22.612 -2.8248,-9.9424 -10.4472,-17.5648 -20.389597,-20.3896 l -37.2776,-10.5888 c -2.7904,-0.7928 -5.7904,-0.0128 -7.8424,2.0384 -2.0512,2.0512 -2.8312,5.052 -2.0384,7.8424 l 10.5888,37.2784 c 2.8248,9.942402 10.4472,17.564802 20.3896,20.389602 2.7456,0.78 5.5168,1.1616 8.2504,1.1616 5.0488,0 9.9648,-1.3104 14.3568,-3.8096 l 12.959197,12.9592 c -24.493597,26.3584 -39.631997,59.0344 -43.884797,94.9056 -4.368,36.844 3.6096,74.6024 22.464,106.3184 10.491197,17.648 7.8296,39.9624 -6.472,54.2648 -3.124,3.124 -3.124,8.1896 0,11.3136 1.5624,1.5624 3.6096,2.3432 5.6568,2.3432 2.0472,0 4.0952,-0.7816 5.6568,-2.3432 16.000797,-16.0016 21.320797,-39.32 14.826397,-60.4088 l 104.0728,-104.0728 51.1848,51.1848 2.6072,33.9024 c 0.1472,1.904 0.9696,3.6928 2.3192,5.0432 l 45.3584,45.3584 c 1.5256,1.5256 3.5704,2.3432 5.6576,2.3432 0.8696,0 1.7464,-0.1416 2.5952,-0.4336 2.8896,-0.992 4.9632,-3.5424 5.3424,-6.5744 l 3.0088,-24.0648 24.0648,-3.008 c 3.032,-0.3792 5.5832,-2.452 6.5752,-5.3416 0.9912,-2.8904 0.2504,-6.0928 -1.9104,-8.2528 l -45.3584,-45.3584 c -1.3504,-1.3504 -3.1392,-2.1728 -5.044,-2.3192 l -33.9032,-2.608 -51.1848,-51.1848 z m -11.9272,225.7552 -31.7,-31.7 -0.9496,-12.3408 33.916,33.9152 z m 22.7056,-22.7048 -10.1256,1.2656 -33.9152,-33.9144 12.3408,0.9488 z m -26.2544,-210.2016 -97.6696,97.6688 -79.5688,-79.5688 c 48.9592,-43.241602 120.184,-50.799202 177.2384,-18.1 z M 80.189583,95.876208 c -4.5688,-1.2984 -8.072,-4.8008 -9.3704,-9.3704 l -6.668,-23.4752 23.4752,6.668 c 4.5688,1.2984 8.072,4.8008 9.3704,9.3704 1.3672,4.8144 0.0712,9.8008 -3.4672,13.3392 -3.5384,3.5384 -8.5256,4.8352 -13.34,3.468 z M 102.47918,312.49461 c -33.227197,-57.9784 -24.886397,-130.5872 20.2256,-179.596 l 79.6856,79.6856 z"
   id="path2"
   style="stroke-width:0.8" />
<g
   id="g4"
   transform="matrix(0.8,0,0,0.8,43.413583,43.413808)">
</g>
<g
   id="g6"
   transform="matrix(0.8,0,0,0.8,43.413583,43.413808)">
</g>
<g
   id="g8"
   transform="matrix(0.8,0,0,0.8,43.413583,43.413808)">
</g>
<g
   id="g10"
   transform="matrix(0.8,0,0,0.8,43.413583,43.413808)">
</g>
<g
   id="g12"
   transform="matrix(0.8,0,0,0.8,43.413583,43.413808)">
</g>
<g
   id="g14"
   transform="matrix(0.8,0,0,0.8,43.413583,43.413808)">
</g>
<g
   id="g16"
   transform="matrix(0.8,0,0,0.8,43.413583,43.413808)">
</g>
<g
   id="g18"
   transform="matrix(0.8,0,0,0.8,43.413583,43.413808)">
</g>
<g
   id="g20"
   transform="matrix(0.8,0,0,0.8,43.413583,43.413808)">
</g>
<g
   id="g22"
   transform="matrix(0.8,0,0,0.8,43.413583,43.413808)">
</g>
<g
   id="g24"
   transform="matrix(0.8,0,0,0.8,43.413583,43.413808)">
</g>
<g
   id="g26"
   transform="matrix(0.8,0,0,0.8,43.413583,43.413808)">
</g>
<g
   id="g28"
   transform="matrix(0.8,0,0,0.8,43.413583,43.413808)">
</g>
<g
   id="g30"
   transform="matrix(0.8,0,0,0.8,43.413583,43.413808)">
</g>
<g
   id="g32"
   transform="matrix(0.8,0,0,0.8,43.413583,43.413808)">
</g>
<path
   style="fill:#ffffff;stroke:#000000;stroke-width:0.49166"
   d="M 100.87727,308.94874 C 95.526148,299.37405 90.255569,285.84002 87.222929,273.8865 76.613204,232.06697 84.176982,188.19189 108.25426,151.89039 c 3.56319,-5.37224 8.929,-12.35636 12.62873,-16.43752 l 1.90121,-2.09721 39.64374,39.64373 39.64373,39.64374 -49.72084,49.72085 -49.72086,49.72084 z"
   id="path41" /><path
   style="fill:#ffffff;stroke:#000000;stroke-width:0.49166"
   d="m 174.41543,161.38644 c -21.70008,-21.70134 -39.4547,-39.60396 -39.4547,-39.78361 0,-0.60956 9.37489,-7.87058 15.3951,-11.92379 18.87493,-12.707854 39.86509,-20.86145 63.02471,-24.481847 5.91261,-0.924281 8.96317,-1.079348 21.63305,-1.099654 15.73262,-0.02521 18.37037,0.204783 30.75117,2.681333 7.65416,1.531071 16.03326,3.923268 23.57729,6.731207 4.71411,1.754626 17.10475,7.523541 20.00849,9.315681 l 1.57123,0.96974 -48.52582,48.52396 -48.52582,48.52396 z"
   id="path43" /><path
   style="fill:#ffffff;stroke:#000000;stroke-width:0.49166"
   d="m 80.357736,95.682853 c -3.143182,-1.027441 -6.765472,-3.956214 -8.145301,-6.585816 -0.846806,-1.613795 -7.647117,-25.01126 -7.35442,-25.303957 0.489785,-0.489786 24.57295,6.758296 26.338963,7.926987 3.818645,2.52706 5.847499,6.410552 5.884338,11.263389 0.05253,6.920337 -5.348528,12.533944 -12.448726,12.938615 -1.659345,0.09457 -3.58303,-0.01308 -4.274854,-0.239218 z"
   id="path45" /><path
   style="fill:#ffffff;stroke:#000000;stroke-width:0.49166"
   d="m 311.21712,298.18812 c -9.18897,-9.19195 -16.37657,-16.70474 -15.97244,-16.6951 0.40413,0.01 2.9285,0.21345 5.60971,0.45289 l 4.87493,0.43534 15.40605,15.40023 c 8.47333,8.47013 15.40606,15.5389 15.40606,15.70838 0,0.16948 -1.60404,0.45845 -3.56454,0.64216 -1.96049,0.18371 -3.89934,0.43183 -4.30854,0.55138 -0.47674,0.13927 -6.74586,-5.78644 -17.45123,-16.49528 z"
   id="path47" /><path
   style="fill:#ffffff;stroke:#000000;stroke-width:0.49166"
   d="m 299.08341,320.24042 -15.57915,-15.63039 -0.46489,-5.54444 c -0.25569,-3.04944 -0.42577,-5.59113 -0.37797,-5.64821 0.0478,-0.0571 7.55662,7.36835 16.68626,16.50095 l 16.59935,16.60474 -0.64223,4.67387 -0.64223,4.67387 z"
   id="path49" /></svg>
