<?xml version="1.0" encoding="UTF-8" standalone="no"?>
<svg
   xmlns:dc="http://purl.org/dc/elements/1.1/"
   xmlns:cc="http://creativecommons.org/ns#"
   xmlns:rdf="http://www.w3.org/1999/02/22-rdf-syntax-ns#"
   xmlns:svg="http://www.w3.org/2000/svg"
   xmlns="http://www.w3.org/2000/svg"
   xmlns:sodipodi="http://sodipodi.sourceforge.net/DTD/sodipodi-0.dtd"
   xmlns:inkscape="http://www.inkscape.org/namespaces/inkscape"
   width="60px"
   height="60px"
   viewBox="0 0 60 60"
   version="1.1"
   id="svg16"
   sodipodi:docname="bc.svg"
   inkscape:version="1.0.1 (3bc2e813f5, 2020-09-07, custom)">
  <sodipodi:namedview
     pagecolor="#ffffff"
     bordercolor="#666666"
     borderopacity="1"
     objecttolerance="10"
     gridtolerance="10"
     guidetolerance="10"
     inkscape:pageopacity="0"
     inkscape:pageshadow="2"
     inkscape:window-width="960"
     inkscape:window-height="1060"
     id="namedview18"
     showgrid="false"
     inkscape:zoom="15.733333"
     inkscape:cx="30.508475"
     inkscape:cy="30"
     inkscape:window-x="0"
     inkscape:window-y="20"
     inkscape:window-maximized="0"
     inkscape:current-layer="svg16"
     inkscape:document-rotation="0" />
  <title
     id="title2">20 -Camel- (Solid)</title>
  <desc
     id="desc4">Created with Sketch.</desc>
  <defs
     id="defs6" />
  <g
     id="Page-1"
     transform="matrix(0.82576223,0,0,0.85423354,5.6085758,4.8825124)"
     style="fill:none;fill-rule:evenodd;stroke:none;stroke-width:1">
    <g
       id="Icons"
       transform="translate(-1200,-491)"
       style="fill:#000000">
      <g
         id="20--Camel--(Solid)"
         transform="translate(1200,491)">
        <path
           d="m 38,16.0061 c -0.553,0 -1,-0.448 -1,-1 0,-0.552 0.447,-1 1,-1 0.553,0 1,0.448 1,1 0,0.552 -0.447,1 -1,1 m 0,-4 c -1.654,0 -3,1.346 -3,3 0,1.654 1.346,3 3,3 1.654,0 3,-1.346 3,-3 0,-1.654 -1.346,-3 -3,-3"
           id="Fill-129"
           inkscape:connector-curvature="0" />
        <path
           d="m 38,20.0061 c -2.757,0 -5,-2.243 -5,-5 0,-2.757 2.243,-5 5,-5 2.757,0 5,2.243 5,5 0,2.757 -2.243,5 -5,5 z m -2,5 c -1.103,0 -2,0.897 -2,2 0,0.552 -0.447,1 -1,1 -0.553,0 -1,-0.448 -1,-1 0,-2.206 1.794,-4 4,-4 0.553,0 1,0.448 1,1 0,0.552 -0.447,1 -1,1 z m -4,31 c 0,1.103 -0.897,2 -2,2 -1.103,0 -2,-0.897 -2,-2 v -1.402 -2.896 c 0.017,0.005 0.033,0.006 0.05,0.011 0.283,0.081 0.564,0.141 0.844,0.186 0.071,0.013 0.143,0.024 0.214,0.033 0.3,0.04 0.598,0.068 0.892,0.068 0.306,0 0.613,-0.029 0.921,-0.07 0.049,-0.007 0.097,-0.014 0.145,-0.022 0.31,-0.049 0.621,-0.112 0.934,-0.203 v 2.902 z m -9,-32 c 0,-0.552 0.447,-1 1,-1 2.206,0 4,1.794 4,4 0,0.552 -0.447,1 -1,1 -0.553,0 -1,-0.448 -1,-1 0,-1.103 -0.897,-2 -2,-2 -0.553,0 -1,-0.448 -1,-1 z m -1,-4 c -2.757,0 -5,-2.243 -5,-5 0,-2.757 2.243,-5 5,-5 2.757,0 5,2.243 5,5 0,2.757 -2.243,5 -5,5 z m 7.999,18.586 3.288,-3.293 c 0.391,-0.391 1.025,-0.39 1.415,-0.001 0.391,0.391 0.391,1.024 0.001,1.415 L 31,40.4201 v 2.586 c 0,0.552 -0.447,1 -1,1 -0.553,0 -1,-0.448 -1,-1 v -2.585 l -3.712,-3.707 c -0.391,-0.391 -0.391,-1.024 -0.001,-1.415 0.391,-0.391 1.025,-0.39 1.415,-0.001 z m 28.637,-34.03 c -4.956,-2.982 -10.835,-1.168 -15.124,1.07 -0.813,-0.874 -1.718,-1.656 -2.7,-2.333 -6.372,-4.388 -15.268,-4.388 -21.635,10e-4 -0.982,0.677 -1.884,1.457 -2.693,2.325 -4.288,-2.235 -10.166,-4.043 -15.121,-1.061 -0.872,0.525 -1.393,1.473 -1.361,2.475 0.067,2.141 0.775,7.202 5.867,7.956 0.037,0.006 0.074,0.009 0.112,0.011 0.152,0.004 3.268,0.105 6.233,-0.326 -0.172,1.08 -0.263,2.204 -0.273,3.357 -0.031,3.825 0.882,7.683 2.713,11.467 1.394,2.881 2.374,5.313 2.899,7.142 1.59,-2.21 3.447,-5.64 3.447,-9.64 0,-0.552 0.447,-1 1,-1 0.553,0 1,0.448 1,1 0,5.663 -3.149,10.168 -5.006,12.335 l 0.001,1.709 c 0.122,2.762 1.08,11.7 8.005,14.253 v 0.703 c 0,2.206 1.794,4 4,4 2.206,0 4,-1.794 4,-4 v -0.689 c 7.035,-2.534 7.903,-11.507 7.994,-14.311 v -1.146 c -2.137,-2.959 -4.999,-7.851 -4.999,-12.854 0,-0.552 0.447,-1 1,-1 0.553,0 1,0.448 1,1 0,3.538 1.698,7.13 3.39,9.833 0.509,-1.854 1.507,-4.353 2.951,-7.335 1.831,-3.783 2.743,-7.642 2.712,-11.469 -0.01,-1.154 -0.101,-2.278 -0.273,-3.359 2.973,0.435 6.101,0.333 6.253,0.33 0.038,-0.002 0.076,-0.005 0.113,-0.011 5.084,-0.753 5.791,-5.816 5.858,-7.957 0.032,-1.002 -0.49,-1.95 -1.363,-2.476 z"
           id="Fill-131"
           inkscape:connector-curvature="0" />
        <path
           d="m 22,16.0061 c -0.553,0 -1,-0.448 -1,-1 0,-0.552 0.447,-1 1,-1 0.553,0 1,0.448 1,1 0,0.552 -0.447,1 -1,1 m 0,-4 c -1.654,0 -3,1.346 -3,3 0,1.654 1.346,3 3,3 1.654,0 3,-1.346 3,-3 0,-1.654 -1.346,-3 -3,-3"
           id="Fill-134"
           inkscape:connector-curvature="0" />
      </g>
    </g>
  </g>
  <metadata
     id="metadata14">
    <rdf:RDF>
      <rdf:Description
         about="https://iconscout.com/legal#licenses"
         dc:title="camel,animal,wildlife"
         dc:description="camel,animal,wildlife"
         dc:publisher="Iconscout"
         dc:date="2017-07-28"
         dc:format="image/svg+xml"
         dc:language="en">
        <dc:creator>
          <rdf:Bag>
            <rdf:li>Smashicons .</rdf:li>
          </rdf:Bag>
        </dc:creator>
      </rdf:Description>
      <cc:Work
         rdf:about="">
        <dc:format>image/svg+xml</dc:format>
        <dc:type
           rdf:resource="http://purl.org/dc/dcmitype/StillImage" />
      </cc:Work>
    </rdf:RDF>
  </metadata>
  <path
     style="fill:none;stroke:#000000;stroke-width:0.96px;stroke-linecap:butt;stroke-linejoin:miter;stroke-opacity:1"
     d="m 20.10318,36.18684 0.271416,2.620226"
     id="path155"
     inkscape:connector-curvature="0" />
  <path
     style="fill:none;stroke:#000000;stroke-width:0.96px;stroke-linecap:butt;stroke-linejoin:miter;stroke-opacity:1"
     d="m 40.608508,36.351707 -0.403403,2.760444"
     id="path157"
     inkscape:connector-curvature="0" />
  <path
     style="fill:#f9f9f9;fill-opacity:1;stroke-width:0.061017"
     d="m 20.734092,37.319073 c -0.136847,-1.310491 -0.112093,-1.227445 -0.354163,-1.188162 -0.205202,0.0333 -0.208403,0.0307 -0.123394,-0.100084 1.72941,-2.660701 2.566862,-5.00463 2.706416,-7.57494 0.04435,-0.816794 0.112095,-1.015585 0.407489,-1.195697 0.402881,-0.245651 0.940994,-0.07559 1.122244,0.354653 0.0772,0.183274 0.08871,0.370364 0.05923,0.962793 -0.138513,2.782844 -1.104201,5.546762 -2.866287,8.203668 -0.362751,0.546961 -0.671412,0.981216 -0.837621,1.178447 -0.023,0.0273 -0.07427,-0.261007 -0.113913,-0.640678 z"
     id="path159"
     inkscape:connector-curvature="0" />
  <path
     style="fill:#f9f9f9;fill-opacity:1;stroke-width:0.061017"
     d="m 29.99684,42.317376 c -0.381201,-0.254659 -0.420429,-0.417269 -0.422894,-1.753022 l -0.0022,-1.18983 -1.611641,-1.660358 c -1.366251,-1.407549 -1.618162,-1.695116 -1.654467,-1.88864 -0.130927,-0.697896 0.59123,-1.243604 1.165226,-0.880518 0.100678,0.06369 0.787119,0.747163 1.525423,1.518842 0.738306,0.771679 1.362843,1.399047 1.387862,1.394151 0.02502,-0.0049 0.653122,-0.640426 1.395786,-1.41229 0.742664,-0.771865 1.422364,-1.45126 1.510444,-1.509768 0.327046,-0.217242 0.826504,-0.08508 1.047362,0.277136 0.133986,0.219745 0.153911,0.614692 0.04113,0.8153 -0.04076,0.0725 -0.781142,0.862626 -1.645295,1.755831 l -1.571187,1.624009 v 1.226798 c 0,1.123499 -0.01036,1.243554 -0.122995,1.425808 -0.132787,0.214855 -0.445552,0.395055 -0.685677,0.395055 -0.08225,0 -0.242849,-0.06232 -0.35688,-0.138504 z"
     id="path161"
     inkscape:connector-curvature="0" />
  <path
     style="fill:#f9f9f9;fill-opacity:1;stroke-width:0.061017"
     d="m 39.443228,37.592669 c -1.889632,-3.008877 -2.999585,-6.030958 -3.217532,-8.760404 -0.07516,-0.941251 -0.03371,-1.213073 0.224372,-1.471148 0.441551,-0.441551 1.182743,-0.181276 1.306374,0.458744 0.02832,0.14659 0.05268,0.458731 0.05415,0.693646 0.0082,1.31183 0.592623,3.492417 1.419576,5.296684 0.302843,0.66075 1.013716,2.021973 1.184285,2.267741 0.126686,0.182538 0.102385,0.226332 -0.113525,0.204581 l -0.197055,-0.01985 -0.127085,0.898715 c -0.0699,0.494295 -0.142692,0.914324 -0.161767,0.9334 -0.01908,0.01908 -0.186384,-0.206872 -0.371796,-0.502106 z"
     id="path163"
     inkscape:connector-curvature="0" />
  <path
     style="fill:#f9f9f9;fill-opacity:1;stroke-width:0.061017"
     d="m 27.578849,28.700529 c -0.268848,-0.120843 -0.418609,-0.392716 -0.493214,-0.895373 -0.03454,-0.232724 -0.12246,-0.546373 -0.195376,-0.696997 -0.232062,-0.479374 -0.863894,-0.882788 -1.382635,-0.882788 -0.412886,0 -0.802797,-0.325283 -0.854819,-0.713133 -0.07057,-0.526124 0.299084,-0.933661 0.847263,-0.934096 1.373493,-0.0011 2.650855,1.0232 3.068774,2.460791 0.144406,0.49674 0.15138,1.130406 0.01474,1.339046 -0.224756,0.343174 -0.652989,0.480651 -1.004729,0.32255 z"
     id="path165"
     inkscape:connector-curvature="0" />
  <path
     style="fill:#f9f9f9;fill-opacity:1;stroke-width:0.061017"
     d="m 32.5204,28.687732 c -0.108858,-0.05366 -0.256732,-0.192726 -0.328607,-0.309022 -0.114511,-0.185283 -0.126693,-0.273083 -0.09845,-0.709512 0.03849,-0.59468 0.237445,-1.162152 0.588896,-1.679688 0.602693,-0.887503 1.73168,-1.475846 2.680981,-1.397122 0.289851,0.02404 0.361709,0.0574 0.538036,0.249805 0.171236,0.186852 0.20347,0.268165 0.203278,0.512791 -4.15e-4,0.532429 -0.346573,0.868527 -0.897812,0.871727 -0.741606,0.0043 -1.542406,0.852042 -1.542733,1.633153 -1.28e-4,0.304766 -0.168845,0.621402 -0.420793,0.789715 -0.242978,0.16232 -0.448882,0.173188 -0.7228,0.03815 z"
     id="path167"
     inkscape:connector-curvature="0" />
  <path
     style="fill:#f9f9f9;fill-opacity:1;stroke-width:0.061017"
     d="m 22.955614,21.858177 c -1.381545,-0.305298 -2.582127,-1.406236 -3.055923,-2.802297 -0.220919,-0.650947 -0.269637,-1.575265 -0.119454,-2.266385 0.348288,-1.602775 1.574637,-2.866827 3.137446,-3.233904 0.559747,-0.131475 1.547385,-0.08607 2.081998,0.09571 0.908565,0.308941 1.76816,1.001878 2.245736,1.810331 0.778795,1.318364 0.823223,2.89991 0.119589,4.257052 -0.323376,0.623714 -1.052915,1.384106 -1.633121,1.702187 -0.838774,0.459834 -1.910432,0.628633 -2.776271,0.4373 z m 1.696322,-1.737394 c 1.658513,-0.632029 2.164511,-2.860697 0.94891,-4.17947 -1.207765,-1.310269 -3.256751,-1.001401 -4.05367,0.611056 -0.740846,1.498998 0.137688,3.355417 1.746795,3.691134 0.371542,0.07752 0.975823,0.0229 1.357965,-0.12272 z"
     id="path169"
     inkscape:connector-curvature="0" />
  <path
     style="fill:#f9f9f9;fill-opacity:1;stroke-width:0.061017"
     d="m 23.533222,18.487185 c -0.494696,-0.219252 -0.692061,-0.779254 -0.427536,-1.213088 0.422227,-0.692476 1.467753,-0.369758 1.466648,0.452704 -6.51e-4,0.484924 -0.626805,0.94312 -1.039112,0.760384 z"
     id="path171"
     inkscape:connector-curvature="0" />
  <path
     style="fill:#f9f9f9;fill-opacity:1;stroke-width:0.061017"
     d="m 36.684427,18.454568 c -0.250587,-0.114595 -0.398115,-0.294143 -0.457299,-0.556554 -0.07088,-0.314257 0.02812,-0.600897 0.285613,-0.826979 0.201439,-0.176865 0.250316,-0.19216 0.528632,-0.165417 0.946734,0.09097 0.973348,1.474433 0.03086,1.604418 -0.112618,0.01553 -0.287132,-0.0094 -0.38781,-0.05547 z"
     id="path173"
     inkscape:connector-curvature="0" />
  <path
     style="fill:#f9f9f9;fill-opacity:1;stroke-width:0.061017"
     d="m 36.440359,21.915712 c -1.327225,-0.205691 -2.550512,-1.128529 -3.134571,-2.36469 -0.301614,-0.63837 -0.395175,-1.084418 -0.391825,-1.868024 0.0053,-1.240123 0.385392,-2.149644 1.263404,-3.023199 1.277452,-1.27097 3.098806,-1.549209 4.691496,-0.716698 0.522914,0.273332 1.311738,1.030563 1.618188,1.553379 1.405308,2.397513 0.203976,5.512408 -2.429844,6.300266 -0.339854,0.101661 -1.281466,0.170943 -1.616848,0.118966 z m 1.019031,-1.677591 c 0.868525,-0.184282 1.589259,-0.829089 1.885271,-1.686664 0.138694,-0.401813 0.163625,-1.136315 0.05257,-1.548748 -0.195142,-0.724702 -0.70549,-1.3347 -1.386248,-1.656925 -0.376999,-0.178446 -0.462187,-0.194695 -1.02147,-0.194836 -0.559785,-1.4e-4 -0.644133,0.01594 -1.02147,0.194683 -1.026256,0.486143 -1.607357,1.590098 -1.444038,2.743337 0.147119,1.038843 0.90359,1.880307 1.916355,2.131663 0.394489,0.09791 0.621648,0.101806 1.019031,0.01749 z"
     id="path175"
     inkscape:connector-curvature="0" />
  <path
     style="fill:#f9f9f9;fill-opacity:1;stroke-width:0.061017"
     d="m 29.934871,54.330964 c -0.528637,-0.188909 -0.909962,-0.565822 -1.081444,-1.068935 -0.06745,-0.197904 -0.109333,-4.155302 -0.04398,-4.155302 0.0147,0 0.200036,0.0398 0.411865,0.08845 0.665055,0.152717 1.24929,0.174298 1.910566,0.07057 0.335593,-0.05264 0.67365,-0.113599 0.751238,-0.135466 l 0.141069,-0.03975 -0.01904,2.036919 -0.01904,2.036918 -0.165357,0.313497 c -0.380543,0.721462 -1.207485,1.095541 -1.885893,0.853113 z"
     id="path177"
     inkscape:connector-curvature="0" />
</svg>
