<?xml version="1.0" encoding="UTF-8" standalone="no"?>
<svg
   xmlns:dc="http://purl.org/dc/elements/1.1/"
   xmlns:cc="http://creativecommons.org/ns#"
   xmlns:rdf="http://www.w3.org/1999/02/22-rdf-syntax-ns#"
   xmlns:svg="http://www.w3.org/2000/svg"
   xmlns="http://www.w3.org/2000/svg"
   xmlns:sodipodi="http://sodipodi.sourceforge.net/DTD/sodipodi-0.dtd"
   xmlns:inkscape="http://www.inkscape.org/namespaces/inkscape"
   version="1.1"
   id="Layer_1"
   x="0px"
   y="0px"
   viewBox="0 0 62 64"
   xml:space="preserve"
   sodipodi:docname="bw.svg"
   inkscape:version="1.0.1 (3bc2e813f5, 2020-09-07, custom)"><defs
     id="defs28" /><sodipodi:namedview
     pagecolor="#ffffff"
     bordercolor="#666666"
     borderopacity="1"
     objecttolerance="10"
     gridtolerance="10"
     guidetolerance="10"
     inkscape:pageopacity="0"
     inkscape:pageshadow="2"
     inkscape:window-width="960"
     inkscape:window-height="1060"
     id="namedview26"
     showgrid="false"
     inkscape:zoom="14.75"
     inkscape:cx="32.220339"
     inkscape:cy="32"
     inkscape:window-x="0"
     inkscape:window-y="20"
     inkscape:window-maximized="0"
     inkscape:current-layer="Layer_1"
     inkscape:document-rotation="0" /><g
     id="wildebeest__x5F_glyphs"
     transform="matrix(0.80041006,0,0,0.85338983,6.1872881,4.9627118)"><path
       d="m 25,49 c -0.6,0 -1,0.4 -1,1 0,0.6 0.4,1 1,1 h 3 c 0.6,0 1,-0.4 1,-1 0,-0.6 -0.4,-1 -1,-1 z"
       id="path2"
       inkscape:connector-curvature="0" /><path
       d="m 34,49 c -0.6,0 -1,0.4 -1,1 0,0.6 0.4,1 1,1 h 3 c 0.6,0 1,-0.4 1,-1 0,-0.6 -0.4,-1 -1,-1 z"
       id="path4"
       inkscape:connector-curvature="0" /><path
       d="M 11,36 V 24.7 c -0.1,0.2 -0.2,0.3 -0.4,0.5 -1.3,1.4 -3.1,2.3 -5,2.4 H 5 V 42.5 C 5,43.8 3.9,45 2.5,45 1.1,45 0,43.4 0,42 v 2.5 c 0,3.6 3,6.9 9,6.5 6.9,-0.5 7,-4.4 7,-6.4 C 12.9,43.2 11,39 11,36 Z"
       id="path6"
       inkscape:connector-curvature="0" /><path
       d="M 11,12 C 11,8.1 14.1,5 18,5 H 28.8 C 26.6,2 22.9,0 17.5,0 10.6,0 5,5.6 5,12.5 V 19 h 6 z"
       id="path8"
       inkscape:connector-curvature="0" /><path
       d="M 5.5,25.6 C 6.9,25.5 8.2,24.9 9.1,23.9 9.8,23 10.3,22 10.4,21 H 0.2 c 0.3,1.1 0.8,2.1 1.6,3 1.1,1.1 2.4,1.6 3.7,1.6 z"
       id="path10"
       inkscape:connector-curvature="0" /><path
       d="m 51,12 v 7 h 6 V 12.5 C 57,5.6 51.4,0 44.5,0 39.1,0 35.5,2 33.2,5 H 44 c 3.9,0 7,3.1 7,7 z"
       id="path12"
       inkscape:connector-curvature="0" /><path
       d="m 61.8,43 c -0.5,1.6 -2.3,2.9 -4,1.2 C 57.3,43.6 57,42.8 57,42 V 27.6 h -0.6 c -1.9,-0.1 -3.7,-1 -5,-2.4 C 51.3,25 51.1,24.9 51,24.7 V 36 c 0,3 -1.9,7.2 -5,8.6 0,2 0.1,5.9 7,6.4 6,0.4 9,-2.9 9,-6.5 V 43 Z"
       id="path14"
       inkscape:connector-curvature="0" /><path
       d="m 52.9,23.8 c 0.9,1 2.2,1.7 3.6,1.7 1.3,0.1 2.6,-0.5 3.7,-1.6 0.8,-0.8 1.4,-1.9 1.6,-3 H 51.6 c 0.1,1.1 0.6,2.1 1.3,2.9 z"
       id="path16"
       inkscape:connector-curvature="0" /><path
       d="M 49,36 V 21 h -6 c -2.2,0 -4,1.8 -4,4 V 52.6 L 37.4,57 h -13 L 23,53.6 V 25 c 0,-2.2 -1.8,-4 -4,-4 h -6 v 15 c 0,2.2 1.5,5.4 3.5,6.6 l 6.4,16.1 c 0.1,3 2.7,5.3 6.1,5.3 h 4 c 3.3,0 5.8,-2.2 5.9,-5.3 L 44.8,42.9 C 47.1,42.2 49,38.5 49,36 Z M 18,29 c -1.1,0 -2,-0.9 -2,-2 0,-1.1 0.9,-2 2,-2 1.1,0 2,0.9 2,2 0,1.1 -0.9,2 -2,2 z m 15,33 h -4 c -1.9,0 -3.8,-1 -4.1,-3 h 11.9 c -0.2,1.8 -1.7,3 -3.8,3 z M 44,29 c -1.1,0 -2,-0.9 -2,-2 0,-1.1 0.9,-2 2,-2 1.1,0 2,0.9 2,2 0,1.1 -0.9,2 -2,2 z"
       id="path18"
       inkscape:connector-curvature="0" /><path
       d="m 43,19 h 6 V 12 C 49,9.2 46.8,7 44,7 H 18 c -2.8,0 -5,2.2 -5,5 v 7 h 6 c 3.3,0 6,2.7 6,6 v 20 h 1 c 2.1,0 3.9,1.1 5,2.7 1.1,-1.6 2.9,-2.7 5,-2.7 h 1 V 25 c 0,-3.3 2.7,-6 6,-6 z m -7,-1 h -9 c -0.6,0 -1,-0.4 -1,-1 0,-0.6 0.4,-1 1,-1 h 9 c 0.6,0 1,0.4 1,1 0,0.6 -0.4,1 -1,1 z m 0,-4 h -9 c -0.6,0 -1,-0.4 -1,-1 0,-0.6 0.4,-1 1,-1 h 9 c 0.6,0 1,0.4 1,1 0,0.6 -0.4,1 -1,1 z"
       id="path20"
       inkscape:connector-curvature="0" /></g><metadata
     id="metadata23"><rdf:RDF><rdf:Description
         about="https://iconscout.com/legal#licenses"
         dc:title="wildebeest"
         dc:description="wildebeest"
         dc:publisher="Iconscout"
         dc:date="2017-09-07"
         dc:format="image/svg+xml"
         dc:language="en"><dc:creator><rdf:Bag><rdf:li>Madeby Grids</rdf:li></rdf:Bag></dc:creator></rdf:Description><cc:Work
         rdf:about=""><dc:format>image/svg+xml</dc:format><dc:type
           rdf:resource="http://purl.org/dc/dcmitype/StillImage" /></cc:Work></rdf:RDF></metadata><path
     style="fill:none;stroke:#000000;stroke-width:0.95px;stroke-linecap:butt;stroke-linejoin:miter;stroke-opacity:1"
     d="m 14.366949,20.935593 0.06441,6.505085"
     id="path19"
     inkscape:connector-curvature="0" /><path
     style="fill:none;stroke:#000000;stroke-width:0.95px;stroke-linecap:butt;stroke-linejoin:miter;stroke-opacity:1"
     d="m 47.328365,26.468136 0.01486,-5.403729"
     id="path25"
     inkscape:connector-curvature="0" /><path
     style="fill:none;stroke:#000000;stroke-width:0.95px;stroke-linecap:butt;stroke-linejoin:miter;stroke-opacity:1"
     d="m 18.993849,43.023898 0.97649,-0.898474"
     id="path27"
     inkscape:connector-curvature="0" /><path
     style="fill:none;stroke:#000000;stroke-width:0.95px;stroke-linecap:butt;stroke-linejoin:miter;stroke-opacity:1"
     d="M 43.00615,43.023898 41.54661,42.125424"
     id="path29"
     inkscape:connector-curvature="0" /><path
     style="fill:#ffffff;stroke:#000000;stroke-width:0.95px;stroke-linecap:butt;stroke-linejoin:miter;stroke-opacity:1"
     d="M 29.239098,9.229661 33.173729,9.213559"
     id="path31"
     inkscape:connector-curvature="0" /><path
     style="fill:#ffffff;fill-opacity:1;stroke-width:0.0644068"
     d="m 25.173933,52.110897 -0.563086,-1.466053 -9.5e-4,-12.397506 c -0.001,-13.622437 0.0233,-12.779225 -0.392786,-13.603483 -0.258064,-0.511223 -0.860963,-1.139181 -1.337654,-1.393254 -0.710533,-0.378712 -0.870306,-0.395686 -3.724514,-0.395686 H 16.56 v 6.590345 c 0,7.324773 -0.0072,7.184145 0.431581,8.444694 0.476363,1.368554 1.277647,2.616049 2.059479,3.206338 0.228149,0.172255 0.36118,0.329216 0.413574,0.487968 l 0.07723,0.234031 -0.456698,0.427804 c -0.342347,0.320688 -0.43828,0.446221 -0.383139,0.501363 0.164167,0.164167 -0.05612,0.05667 -0.4287,-0.209195 -1.457531,-1.040073 -2.652645,-3.142677 -3.143088,-5.52974 -0.04365,-0.212469 -0.09049,-2.375167 -0.125889,-5.81293 -0.03101,-3.011016 -0.07152,-6.496229 -0.09003,-7.744915 -0.02292,-1.546149 -0.01235,-2.270339 0.03313,-2.270339 0.04521,0 0.06687,-1.03513 0.06704,-3.204237 2.85e-4,-3.539167 0.03219,-3.944732 0.387658,-4.927102 0.318196,-0.879378 0.711107,-1.485475 1.409159,-2.173746 0.803676,-0.792415 1.385318,-1.1337584 2.489935,-1.4612504 0.347086,-0.1029024 0.822039,-0.1152576 5.13248,-0.1335146 l 4.75,-0.020119 v 0.2277809 0.227781 h 1.996611 1.99661 V 9.4880773 9.2602225 l 4.588983,0.020369 c 4.567255,0.020272 4.591258,0.021065 5.069543,0.167446 1.903661,0.5826225 3.282778,2.0063105 3.909346,4.0356915 l 0.17897,0.579661 0.02166,3.494068 c 0.01501,2.421933 8.05e-4,3.494067 -0.0463,3.494067 -0.04661,0 -0.06796,0.859941 -0.06796,2.737289 0,1.85076 0.02168,2.737288 0.06693,2.737288 0.04593,0 0.05994,1.621517 0.04461,5.168644 -0.0216,5.004021 -0.02666,5.186264 -0.158474,5.721853 -0.572023,2.32414 -1.741073,4.238516 -3.18863,5.221533 -0.369222,0.250734 -0.540806,0.290611 -0.371221,0.08628 0.04551,-0.05484 0.07138,-0.109764 0.05748,-0.122035 -0.0139,-0.01227 -0.300618,-0.190145 -0.637144,-0.395273 -0.336525,-0.205129 -0.619792,-0.378629 -0.629482,-0.385557 -0.08054,-0.05759 0.123532,-0.244664 0.425074,-0.389667 0.490098,-0.235675 1.361573,-1.127272 1.769656,-1.810518 0.405352,-0.678674 0.791166,-1.579593 1.001804,-2.339322 l 0.16964,-0.611865 0.01808,-6.907627 0.01807,-6.907627 h -2.542571 c -1.607394,0 -2.668107,0.02618 -2.883878,0.07117 -1.234633,0.257467 -2.257785,1.317787 -2.535413,2.627519 -0.07532,0.355307 -0.09028,2.385025 -0.09118,12.372493 l -0.0011,11.947453 -0.627996,1.850941 -0.627994,1.85094 -5.185219,7.55e-4 -5.18522,7.53e-4 -0.563086,-1.466052 z m 3.978953,-3.835986 c 0.40436,-0.40436 0.357572,-1.076453 -0.09616,-1.381277 -0.220598,-0.148201 -0.243793,-0.149966 -1.721765,-0.130912 l -1.498157,0.01931 -0.203213,0.203338 c -0.376305,0.376535 -0.322573,1.124782 0.09924,1.382004 0.179074,0.1092 0.344528,0.12098 1.702252,0.121196 l 1.503899,2.59e-4 0.213902,-0.213904 z m 7.173837,0.04818 c 0.458921,-0.386156 0.365952,-1.263196 -0.157068,-1.481729 -0.165883,-0.06931 -0.549528,-0.09153 -1.580055,-0.09153 -1.499549,0 -1.678606,0.03627 -1.88243,0.381318 -0.135778,0.229853 -0.142681,0.720976 -0.01364,0.970514 0.195502,0.378061 0.240345,0.387151 1.909756,0.387151 h 1.526491 z m -5.051298,-2.988138 c 0.321906,-0.438523 0.96579,-1.015788 1.458904,-1.307961 0.686043,-0.406484 1.312774,-0.575908 2.260387,-0.611051 l 0.819461,-0.03039 0.01842,-8.961082 0.01842,-8.961082 0.144848,-0.511518 c 0.500624,-1.767925 1.762142,-3.086506 3.429589,-3.584722 0.458947,-0.137129 0.61381,-0.145298 3.238007,-0.170796 l 2.756008,-0.02678 -0.01872,-3.456482 -0.01872,-3.456482 -0.198713,-0.555043 c -0.482658,-1.348159 -1.482526,-2.305013 -2.796198,-2.67591 -0.398655,-0.112555 -0.94144,-0.118198 -11.367797,-0.118198 -10.266473,0 -10.975255,0.0071 -11.367797,0.113792 -1.155222,0.314004 -2.089562,1.080111 -2.610473,2.140445 -0.446529,0.908926 -0.441371,0.857713 -0.465551,4.621186 l -0.02183,3.397458 h 2.404006 c 1.322204,0 2.644857,0.0302 2.939229,0.06711 1.903918,0.238731 3.464583,1.618981 4.077983,3.606565 l 0.148308,0.480561 0.01801,9.03305 0.01801,9.033051 0.658867,0.0011 c 1.34324,0.0023 2.346845,0.39627 3.294556,1.293358 0.301407,0.285307 0.609341,0.61797 0.684296,0.739251 0.07496,0.121282 0.160434,0.220511 0.189952,0.220511 0.02952,0 0.159361,-0.143982 0.288539,-0.319958 z"
     id="path33"
     inkscape:connector-curvature="0" /><path
     style="fill:#ffffff;fill-opacity:1;stroke-width:0.0644068"
     d="m 20.116224,29.601089 c -0.298663,-0.0957 -0.752598,-0.515472 -0.905744,-0.837578 -0.33409,-0.702676 -0.213194,-1.409462 0.334751,-1.957043 0.374675,-0.374426 0.720181,-0.505253 1.210038,-0.458184 0.832778,0.08002 1.479931,0.935635 1.387811,1.834855 -0.106003,1.034737 -1.085123,1.71971 -2.026856,1.41795 z"
     id="path35"
     inkscape:connector-curvature="0" /><path
     style="fill:#ffffff;fill-opacity:1;stroke-width:0.0644068"
     d="m 40.808683,29.534681 c -0.609082,-0.291355 -0.947952,-0.833232 -0.955434,-1.527802 -0.0056,-0.524214 0.17439,-0.926345 0.571045,-1.275494 0.487904,-0.429471 1.066203,-0.511753 1.628246,-0.231675 1.469161,0.732114 1.068373,3.030453 -0.550989,3.159684 -0.298797,0.02385 -0.432683,-2.51e-4 -0.692868,-0.124713 z"
     id="path37"
     inkscape:connector-curvature="0" /><path
     style="fill:#ffffff;fill-opacity:1;stroke-width:0.0644068"
     d="m 25.171818,52.111695 -0.56396,-1.465255 3.23e-4,-12.140678 c 1.92e-4,-7.170718 -0.02456,-12.377484 -0.06049,-12.719152 -0.04793,-0.455758 -0.10995,-0.677843 -0.292341,-1.046887 -0.431808,-0.873704 -1.219063,-1.540226 -2.086759,-1.766732 -0.36547,-0.0954 -0.78144,-0.111162 -3.018982,-0.114363 l -2.59508,-0.0037 0.0203,6.84322 0.0203,6.843221 0.17147,0.62608 c 0.44973,1.642081 1.333453,3.17472 2.24223,3.888696 0.254786,0.200172 0.404528,0.372744 0.454306,0.523574 0.07396,0.224096 0.07253,0.22672 -0.359586,0.662177 -0.24362,0.245501 -0.414607,0.468307 -0.389975,0.508161 0.09112,0.14744 -0.09296,0.06107 -0.463496,-0.217466 -1.3972,-1.050293 -2.551696,-3.0166 -3.055401,-5.20388 -0.130866,-0.568268 -0.139083,-0.822548 -0.188824,-5.843274 -0.0286,-2.887034 -0.07022,-6.386738 -0.0925,-7.777119 -0.02911,-1.816834 -0.02061,-2.527967 0.0302,-2.527967 0.05037,0 0.07069,-0.915372 0.07069,-3.183474 0,-1.881062 0.02791,-3.389595 0.06823,-3.687288 0.09006,-0.665085 0.421995,-1.628245 0.774506,-2.247366 0.534365,-0.938513 1.535182,-1.857011 2.516709,-2.3097052 1.018042,-0.4695357 0.719248,-0.4462018 6.027848,-0.4707334 l 4.782204,-0.022099 v 0.228122 0.2281296 h 1.99661 1.99661 V 9.4905084 9.2650847 h 4.373995 c 4.727525,0 4.859313,0.00803 5.769282,0.3512525 1.07646,0.4060268 2.159472,1.3311208 2.777549,2.3725448 0.181116,0.305169 0.441938,0.882284 0.579603,1.282477 l 0.250301,0.727624 0.02013,3.526272 c 0.01403,2.457171 -5.8e-4,3.52627 -0.04825,3.52627 -0.09431,0 -0.0957,5.357087 -0.0014,5.451369 0.0456,0.0456 0.05985,1.708686 0.04467,5.213729 -0.02008,4.636597 -0.0335,5.193691 -0.135372,5.620161 -0.571875,2.394033 -1.740818,4.299566 -3.281634,5.349505 -0.308272,0.210062 -0.460036,0.229256 -0.301406,0.03811 0.04552,-0.05484 0.07138,-0.108304 0.05748,-0.118793 -0.0139,-0.01049 -0.300618,-0.188896 -0.637144,-0.396462 -0.336525,-0.207564 -0.619793,-0.382524 -0.629483,-0.388799 -0.08271,-0.05355 0.124788,-0.244597 0.425074,-0.391382 0.440622,-0.215385 1.217474,-0.972824 1.610919,-1.570666 0.352918,-0.536261 0.787632,-1.439971 0.999093,-2.076978 0.370731,-1.1168 0.363886,-0.961905 0.363886,-8.235221 v -6.691191 h -2.540897 c -1.616302,0 -2.665094,0.02605 -2.882204,0.07159 -1.122988,0.235558 -2.061124,1.135588 -2.476457,2.375866 -0.113085,0.3377 -0.120137,0.922507 -0.151057,12.527119 l -0.03243,12.172881 -0.611865,1.786764 -0.611864,1.786764 -5.185841,5.15e-4 -5.18584,5.16e-4 -0.563959,-1.465254 z m 3.938263,-3.786007 c 0.482739,-0.406197 0.389593,-1.257199 -0.162871,-1.488034 -0.286053,-0.119521 -2.876292,-0.12404 -3.1107,-0.0054 -0.403007,0.203924 -0.565706,0.787282 -0.347702,1.24669 0.182606,0.384816 0.27588,0.404452 1.934894,0.407318 l 1.492517,0.0026 z m 7.225204,-0.01399 c 0.50798,-0.455199 0.297544,-1.411184 -0.336833,-1.530195 -0.121006,-0.02269 -0.83383,-0.03186 -1.584054,-0.02037 l -1.364044,0.0209 -0.203209,0.203338 c -0.376298,0.376538 -0.322563,1.124785 0.09925,1.382004 0.178998,0.109154 0.344366,0.12098 1.694795,0.121196 l 1.496441,2.59e-4 0.197656,-0.177119 z M 31.266974,45.34647 c 0.124531,-0.169644 0.380601,-0.453608 0.569045,-0.631029 0.961094,-0.904875 2.000006,-1.314763 3.332429,-1.314763 h 0.645731 l 0.01889,-9.000848 0.01889,-9.000847 0.147874,-0.48305 c 0.456111,-1.489955 1.36419,-2.607501 2.6195,-3.223744 0.943302,-0.463075 0.968598,-0.466179 4.041525,-0.495926 l 2.75339,-0.02666 v -3.301282 c 0,-3.752661 -0.0073,-3.819352 -0.527057,-4.818402 -0.519838,-0.999184 -1.584759,-1.829863 -2.615946,-2.040533 -0.237024,-0.04842 -3.691449,-0.06973 -11.30596,-0.06973 -12.090535,0 -11.263189,-0.0275 -12.148816,0.403749 -0.610527,0.297288 -1.44184,1.142511 -1.756689,1.786082 -0.463986,0.948417 -0.456447,0.875935 -0.484041,4.653389 l -0.02481,3.397458 h 2.447341 c 1.400093,0 2.661249,0.02975 2.947231,0.06953 1.871085,0.260244 3.35896,1.578903 4.027501,3.569455 l 0.151421,0.450847 0.0176,9.065255 0.0176,9.065254 0.658663,0.0011 c 1.343027,0.0023 2.346692,0.396318 3.294352,1.293358 0.301408,0.285307 0.609342,0.61797 0.684297,0.739251 0.07495,0.121282 0.160434,0.220511 0.189951,0.220511 0.02952,0 0.155557,-0.138801 0.280088,-0.308446 z"
     id="path39"
     inkscape:connector-curvature="0" /><path
     style="fill:#ffffff;fill-opacity:1;stroke-width:0.0644068"
     d="m 28.461191,57.727776 c -0.904032,-0.219166 -1.652275,-0.789245 -2.00987,-1.531299 -0.122424,-0.254046 -0.241119,-0.556096 -0.263767,-0.671222 l -0.04118,-0.209322 h 4.737406 4.737406 l -0.04056,0.209322 c -0.220691,1.139194 -1.060379,1.991577 -2.197533,2.230755 -0.518166,0.108985 -4.448908,0.08644 -4.921911,-0.02823 z"
     id="path41"
     inkscape:connector-curvature="0" /><path
     style="fill:#f9f9f9;fill-opacity:1;stroke-width:0.0644068"
     d="m 20.102865,29.597258 c -0.369088,-0.117529 -0.872372,-0.660054 -0.992733,-1.070134 -0.128261,-0.437004 -0.128543,-0.602397 -0.0017,-1.029347 0.120455,-0.405614 0.521981,-0.872916 0.897384,-1.04439 1.051032,-0.480083 2.263202,0.500939 2.137316,1.729752 -0.106733,1.041867 -1.083383,1.718805 -2.040214,1.414119 z"
     id="path28"
     inkscape:connector-curvature="0" /><path
     style="fill:#f9f9f9;fill-opacity:1;stroke-width:0.0644068"
     d="m 40.919615,29.604937 c -0.116366,-0.03941 -0.338556,-0.183418 -0.493759,-0.320031 -0.788669,-0.694215 -0.783897,-1.864882 0.01045,-2.564096 0.484607,-0.426567 1.048982,-0.503774 1.616233,-0.2211 1.474103,0.734576 1.069325,3.051256 -0.550989,3.153497 -0.2037,0.01285 -0.465571,-0.0088 -0.581935,-0.04827 z"
     id="path30"
     inkscape:connector-curvature="0" /><path
     style="fill:#f9f9f9;fill-opacity:1;stroke-width:0.0644068"
     d="m 25.186624,52.176102 -0.543573,-1.400847 -0.0324,-12.591526 -0.03241,-12.591526 -0.145314,-0.4283 c -0.3942,-1.161871 -1.405754,-2.058153 -2.52842,-2.240296 -0.239383,-0.03884 -1.469337,-0.06792 -2.883942,-0.06821 l -2.466546,-4.87e-4 0.02083,6.843221 0.02083,6.84322 0.169452,0.619241 c 0.453249,1.65633 1.314056,3.132593 2.288932,3.925461 0.209607,0.170473 0.364129,0.357514 0.409879,0.496134 0.0729,0.220907 0.07032,0.225639 -0.360407,0.659692 -0.243621,0.245501 -0.414606,0.468307 -0.389976,0.50816 0.08938,0.144608 -0.08897,0.06315 -0.455806,-0.208211 -1.429768,-1.057616 -2.601276,-3.083421 -3.096475,-5.354517 -0.08085,-0.370818 -0.108001,-1.326806 -0.150019,-5.283248 -0.02821,-2.656779 -0.07233,-6.152138 -0.09805,-7.767464 -0.03476,-2.183731 -0.0278,-2.948665 0.02713,-2.982614 0.05394,-0.03334 0.07388,-0.895269 0.07388,-3.193131 0,-3.342114 0.02984,-3.802253 0.302696,-4.667694 0.298943,-0.948185 0.681006,-1.594033 1.367928,-2.31238 0.709692,-0.742157 1.517723,-1.2457919 2.462447,-1.5348099 0.467982,-0.1431691 0.512857,-0.1445814 5.254217,-0.1653523 l 4.782203,-0.020949 v 0.2281341 0.2281297 h 1.996611 1.99661 V 9.4905084 9.2650847 h 4.373995 c 3.495865,0 4.468878,0.018219 4.84661,0.090748 2.127261,0.408462 3.782587,2.0314383 4.407245,4.3211163 0.114902,0.421174 0.122044,0.679755 0.108519,3.928813 -0.008,1.912882 -0.03051,4.666272 -0.05011,6.118645 -0.02459,1.821874 -0.0142,2.680987 0.03348,2.770675 0.04805,0.09038 0.06288,1.699737 0.04866,5.281356 l -0.02045,5.151358 -0.199378,0.740678 c -0.594012,2.206711 -1.772337,4.07879 -3.135634,4.981776 -0.364433,0.241384 -0.532572,0.2755 -0.365471,0.07416 0.04552,-0.05484 0.07138,-0.108138 0.05748,-0.118425 -0.0139,-0.01029 -0.300618,-0.187009 -0.637144,-0.392716 -0.336526,-0.205709 -0.619793,-0.380833 -0.629483,-0.389167 -0.06296,-0.05414 0.0982,-0.245483 0.266956,-0.316966 0.316412,-0.134028 0.945543,-0.637675 1.274856,-1.020577 0.901253,-1.047912 1.640643,-2.708713 1.791289,-4.023549 0.03929,-0.342973 0.06503,-3.133362 0.06534,-7.086904 l 5.28e-4,-6.521187 -2.46356,3.87e-4 c -1.354957,1.93e-4 -2.637457,0.02862 -2.85,0.06317 -0.51091,0.08301 -1.214422,0.43665 -1.595917,0.802226 -0.404731,0.387841 -0.787109,0.987993 -0.963761,1.512644 l -0.142522,0.42329 -0.01784,12.108475 -0.01784,12.108473 -0.626694,1.851696 -0.626694,1.851694 h -5.1896 -5.189605 l -0.543574,-1.400847 z m 3.967445,-3.910986 c 0.269002,-0.285226 0.333876,-0.623361 0.189042,-0.985338 -0.189837,-0.474446 -0.262862,-0.494997 -1.841556,-0.518263 -1.526094,-0.02249 -1.748711,0.01591 -1.959815,0.338102 -0.167553,0.255716 -0.193067,0.683992 -0.05774,0.969173 0.183856,0.387448 0.313172,0.414642 1.985342,0.417502 l 1.473752,0.0026 0.210973,-0.223697 z m 7.100443,0.123178 c 0.328873,-0.230352 0.446464,-0.884126 0.226115,-1.257146 -0.212573,-0.359857 -0.386354,-0.392304 -1.97962,-0.369615 -1.332658,0.01898 -1.450181,0.03006 -1.581657,0.149163 -0.460227,0.416911 -0.415435,1.266664 0.07807,1.481082 0.323466,0.14054 3.055641,0.137617 3.257092,-0.0035 z m -5.116934,-2.887322 c 0.20819,-0.317737 0.852777,-0.960962 1.239647,-1.237028 0.829213,-0.591713 1.707235,-0.863266 2.791229,-0.863266 h 0.645737 l 0.01782,-9.033051 0.01782,-9.03305 0.213165,-0.611865 c 0.502752,-1.443083 1.336061,-2.430916 2.556327,-3.030355 0.942985,-0.463227 0.968383,-0.466345 4.041526,-0.496094 l 2.75339,-0.02666 -0.0012,-3.166669 c -7.09e-4,-1.753618 -0.02989,-3.364574 -0.06539,-3.610176 -0.206061,-1.425521 -1.288066,-2.757788 -2.656278,-3.270663 l -0.400832,-0.150234 -10.884746,-0.01811 c -7.042096,-0.01171 -11.078016,0.0049 -11.432203,0.04696 -1.491573,0.17727 -2.848054,1.443146 -3.260368,3.042597 -0.08804,0.341512 -0.109714,0.944636 -0.135571,3.77177 l -0.03078,3.365255 h 2.449376 c 2.535276,0 3.169574,0.0441 3.843443,0.267207 0.800089,0.264898 1.779248,0.993665 2.311625,1.720493 0.275108,0.375591 0.574676,0.963682 0.799238,1.56901 l 0.173882,0.468713 0.0176,9.097458 0.0176,9.097458 0.658668,0.0011 c 1.418223,0.0024 2.428541,0.421131 3.444133,1.427409 0.221328,0.219297 0.467684,0.494596 0.547458,0.611776 0.173347,0.254629 0.197301,0.259014 0.327706,0.05999 z"
     id="path32"
     inkscape:connector-curvature="0" /><path
     style="fill:#f9f9f9;fill-opacity:1;stroke-width:0.0644068"
     d="m 28.461191,57.727776 c -0.904032,-0.219166 -1.652275,-0.789245 -2.00987,-1.531299 -0.122424,-0.254046 -0.241119,-0.556096 -0.263767,-0.671222 l -0.04117,-0.209322 h 4.737405 4.737405 l -0.04055,0.209322 c -0.220692,1.139194 -1.06038,1.991577 -2.197534,2.230755 -0.518166,0.108985 -4.448908,0.08644 -4.921911,-0.02823 z"
     id="path34"
     inkscape:connector-curvature="0" /></svg>
