<?xml version="1.0" encoding="UTF-8" standalone="no"?>
<svg
   xmlns:dc="http://purl.org/dc/elements/1.1/"
   xmlns:cc="http://creativecommons.org/ns#"
   xmlns:rdf="http://www.w3.org/1999/02/22-rdf-syntax-ns#"
   xmlns:svg="http://www.w3.org/2000/svg"
   xmlns="http://www.w3.org/2000/svg"
   xmlns:sodipodi="http://sodipodi.sourceforge.net/DTD/sodipodi-0.dtd"
   xmlns:inkscape="http://www.inkscape.org/namespaces/inkscape"
   version="1.1"
   id="Layer_1"
   x="0px"
   y="0px"
   viewBox="0 0 62 64"
   xml:space="preserve"
   sodipodi:docname="bw.svg"
   inkscape:version="0.92.2 2405546, 2018-03-11"><defs
     id="defs28" /><sodipodi:namedview
     pagecolor="#ffffff"
     bordercolor="#666666"
     borderopacity="1"
     objecttolerance="10"
     gridtolerance="10"
     guidetolerance="10"
     inkscape:pageopacity="0"
     inkscape:pageshadow="2"
     inkscape:window-width="960"
     inkscape:window-height="1200"
     id="namedview26"
     showgrid="false"
     inkscape:zoom="3.6875"
     inkscape:cx="31.542373"
     inkscape:cy="32"
     inkscape:window-x="0"
     inkscape:window-y="0"
     inkscape:window-maximized="0"
     inkscape:current-layer="Layer_1" /><g
     id="wildebeest__x5F_glyphs"
     transform="matrix(0.8425369,0,0,0.89830508,4.8813559,3.5254237)"><path
       d="m 25,49 c -0.6,0 -1,0.4 -1,1 0,0.6 0.4,1 1,1 h 3 c 0.6,0 1,-0.4 1,-1 0,-0.6 -0.4,-1 -1,-1 z"
       id="path2"
       inkscape:connector-curvature="0" /><path
       d="m 34,49 c -0.6,0 -1,0.4 -1,1 0,0.6 0.4,1 1,1 h 3 c 0.6,0 1,-0.4 1,-1 0,-0.6 -0.4,-1 -1,-1 z"
       id="path4"
       inkscape:connector-curvature="0" /><path
       d="M 11,36 V 24.7 c -0.1,0.2 -0.2,0.3 -0.4,0.5 -1.3,1.4 -3.1,2.3 -5,2.4 H 5 V 42.5 C 5,43.8 3.9,45 2.5,45 1.1,45 0,43.4 0,42 v 2.5 c 0,3.6 3,6.9 9,6.5 6.9,-0.5 7,-4.4 7,-6.4 C 12.9,43.2 11,39 11,36 Z"
       id="path6"
       inkscape:connector-curvature="0" /><path
       d="M 11,12 C 11,8.1 14.1,5 18,5 H 28.8 C 26.6,2 22.9,0 17.5,0 10.6,0 5,5.6 5,12.5 V 19 h 6 z"
       id="path8"
       inkscape:connector-curvature="0" /><path
       d="M 5.5,25.6 C 6.9,25.5 8.2,24.9 9.1,23.9 9.8,23 10.3,22 10.4,21 H 0.2 c 0.3,1.1 0.8,2.1 1.6,3 1.1,1.1 2.4,1.6 3.7,1.6 z"
       id="path10"
       inkscape:connector-curvature="0" /><path
       d="m 51,12 v 7 h 6 V 12.5 C 57,5.6 51.4,0 44.5,0 39.1,0 35.5,2 33.2,5 H 44 c 3.9,0 7,3.1 7,7 z"
       id="path12"
       inkscape:connector-curvature="0" /><path
       d="m 61.8,43 c -0.5,1.6 -2.3,2.9 -4,1.2 C 57.3,43.6 57,42.8 57,42 V 27.6 h -0.6 c -1.9,-0.1 -3.7,-1 -5,-2.4 C 51.3,25 51.1,24.9 51,24.7 V 36 c 0,3 -1.9,7.2 -5,8.6 0,2 0.1,5.9 7,6.4 6,0.4 9,-2.9 9,-6.5 V 43 Z"
       id="path14"
       inkscape:connector-curvature="0" /><path
       d="m 52.9,23.8 c 0.9,1 2.2,1.7 3.6,1.7 1.3,0.1 2.6,-0.5 3.7,-1.6 0.8,-0.8 1.4,-1.9 1.6,-3 H 51.6 c 0.1,1.1 0.6,2.1 1.3,2.9 z"
       id="path16"
       inkscape:connector-curvature="0" /><path
       d="M 49,36 V 21 h -6 c -2.2,0 -4,1.8 -4,4 V 52.6 L 37.4,57 h -13 L 23,53.6 V 25 c 0,-2.2 -1.8,-4 -4,-4 h -6 v 15 c 0,2.2 1.5,5.4 3.5,6.6 l 6.4,16.1 c 0.1,3 2.7,5.3 6.1,5.3 h 4 c 3.3,0 5.8,-2.2 5.9,-5.3 L 44.8,42.9 C 47.1,42.2 49,38.5 49,36 Z M 18,29 c -1.1,0 -2,-0.9 -2,-2 0,-1.1 0.9,-2 2,-2 1.1,0 2,0.9 2,2 0,1.1 -0.9,2 -2,2 z m 15,33 h -4 c -1.9,0 -3.8,-1 -4.1,-3 h 11.9 c -0.2,1.8 -1.7,3 -3.8,3 z M 44,29 c -1.1,0 -2,-0.9 -2,-2 0,-1.1 0.9,-2 2,-2 1.1,0 2,0.9 2,2 0,1.1 -0.9,2 -2,2 z"
       id="path18"
       inkscape:connector-curvature="0" /><path
       d="m 43,19 h 6 V 12 C 49,9.2 46.8,7 44,7 H 18 c -2.8,0 -5,2.2 -5,5 v 7 h 6 c 3.3,0 6,2.7 6,6 v 20 h 1 c 2.1,0 3.9,1.1 5,2.7 1.1,-1.6 2.9,-2.7 5,-2.7 h 1 V 25 c 0,-3.3 2.7,-6 6,-6 z m -7,-1 h -9 c -0.6,0 -1,-0.4 -1,-1 0,-0.6 0.4,-1 1,-1 h 9 c 0.6,0 1,0.4 1,1 0,0.6 -0.4,1 -1,1 z m 0,-4 h -9 c -0.6,0 -1,-0.4 -1,-1 0,-0.6 0.4,-1 1,-1 h 9 c 0.6,0 1,0.4 1,1 0,0.6 -0.4,1 -1,1 z"
       id="path20"
       inkscape:connector-curvature="0" /></g><metadata
     id="metadata23"><rdf:RDF><rdf:Description
         about="https://iconscout.com/legal#licenses"
         dc:title="wildebeest"
         dc:description="wildebeest"
         dc:publisher="Iconscout"
         dc:date="2017-09-07"
         dc:format="image/svg+xml"
         dc:language="en"><dc:creator><rdf:Bag><rdf:li>Madeby Grids</rdf:li></rdf:Bag></dc:creator></rdf:Description><cc:Work
         rdf:about=""><dc:format>image/svg+xml</dc:format><dc:type
           rdf:resource="http://purl.org/dc/dcmitype/StillImage" /></cc:Work></rdf:RDF></metadata></svg>