<?xml version="1.0" encoding="UTF-8" standalone="no"?>
<svg
   xmlns:dc="http://purl.org/dc/elements/1.1/"
   xmlns:cc="http://creativecommons.org/ns#"
   xmlns:rdf="http://www.w3.org/1999/02/22-rdf-syntax-ns#"
   xmlns:svg="http://www.w3.org/2000/svg"
   xmlns="http://www.w3.org/2000/svg"
   xmlns:sodipodi="http://sodipodi.sourceforge.net/DTD/sodipodi-0.dtd"
   xmlns:inkscape="http://www.inkscape.org/namespaces/inkscape"
   width="60px"
   height="60px"
   viewBox="0 0 60 60"
   version="1.1"
   id="svg26"
   sodipodi:docname="wc.svg"
   inkscape:version="1.0.1 (3bc2e813f5, 2020-09-07, custom)">
  <sodipodi:namedview
     pagecolor="#ffffff"
     bordercolor="#666666"
     borderopacity="1"
     objecttolerance="10"
     gridtolerance="10"
     guidetolerance="10"
     inkscape:pageopacity="0"
     inkscape:pageshadow="2"
     inkscape:window-width="960"
     inkscape:window-height="1060"
     id="namedview28"
     showgrid="false"
     inkscape:zoom="3.9333333"
     inkscape:cx="30.508475"
     inkscape:cy="30"
     inkscape:window-x="0"
     inkscape:window-y="20"
     inkscape:window-maximized="0"
     inkscape:current-layer="svg26"
     inkscape:document-rotation="0" />
  <title
     id="title2">20 -Camel- (Outline)</title>
  <desc
     id="desc4">Created with Sketch.</desc>
  <defs
     id="defs6" />
  <g
     id="Page-1"
     transform="matrix(0.83796566,0,0,0.85016575,4.8611109,4.8774663)"
     style="fill:none;fill-rule:evenodd;stroke:none;stroke-width:1">
    <g
       id="Icons"
       transform="translate(-1195,-491)"
       style="fill:#000000">
      <g
         id="20--Camel--(Outline)"
         transform="translate(1195,491)">
        <path
           d="m 23,15.0061 c 0,0.552 -0.447,1 -1,1 -0.553,0 -1,-0.448 -1,-1 0,-0.552 0.447,-1 1,-1 0.553,0 1,0.448 1,1"
           id="Fill-439"
           inkscape:connector-curvature="0" />
        <path
           d="m 18.6885,38.0061 c -0.304,0 -0.603,-0.137 -0.799,-0.397 -0.331,-0.439 -0.246,-1.061 0.188,-1.395 0.069,-0.057 2.923,-2.436 2.923,-9.208 0,-0.552 0.447,-1 1,-1 0.552,0 1,0.448 1,1 0,7.907 -3.559,10.684 -3.71,10.798 -0.181,0.136 -0.392,0.202 -0.602,0.202"
           id="Fill-441"
           inkscape:connector-curvature="0" />
        <path
           d="m 41.3008,38.0061 c -0.21,0 -0.422,-0.066 -0.603,-0.202 -0.15,-0.115 -3.703,-2.891 -3.703,-10.798 0,-0.552 0.448,-1 1,-1 0.553,0 1,0.448 1,1 0,6.812 2.881,9.18 2.91,9.202 0.441,0.333 0.528,0.961 0.195,1.401 -0.197,0.26 -0.496,0.397 -0.799,0.397"
           id="Fill-443"
           inkscape:connector-curvature="0" />
        <path
           d="m 30,41.0061 c -0.265,0 -0.52,-0.105 -0.707,-0.292 l -4.005,-4 c -0.391,-0.391 -0.391,-1.024 -0.001,-1.415 0.391,-0.391 1.025,-0.39 1.415,-0.001 l 3.297,3.294 3.288,-3.293 c 0.391,-0.391 1.025,-0.39 1.415,-0.001 0.391,0.391 0.391,1.024 0.001,1.415 l -3.995,4 c -0.187,0.188 -0.442,0.293 -0.707,0.293 z"
           id="Fill-445"
           inkscape:connector-curvature="0" />
        <path
           d="m 30,44.0061 c -0.553,0 -1,-0.448 -1,-1 v -3 c 0,-0.552 0.447,-1 1,-1 0.553,0 1,0.448 1,1 v 3 c 0,0.552 -0.447,1 -1,1"
           id="Fill-447"
           inkscape:connector-curvature="0" />
        <path
           d="m 22,12.0061 c -1.654,0 -3,1.346 -3,3 0,1.654 1.346,3 3,3 1.654,0 3,-1.346 3,-3 0,-1.654 -1.346,-3 -3,-3 m 0,8 c -2.757,0 -5,-2.243 -5,-5 0,-2.757 2.243,-5 5,-5 2.757,0 5,2.243 5,5 0,2.757 -2.243,5 -5,5"
           id="Fill-449"
           inkscape:connector-curvature="0" />
        <path
           d="m 39,15.0061 c 0,0.552 -0.447,1 -1,1 -0.553,0 -1,-0.448 -1,-1 0,-0.552 0.447,-1 1,-1 0.553,0 1,0.448 1,1"
           id="Fill-451"
           inkscape:connector-curvature="0" />
        <path
           d="m 38,12.0061 c -1.654,0 -3,1.346 -3,3 0,1.654 1.346,3 3,3 1.654,0 3,-1.346 3,-3 0,-1.654 -1.346,-3 -3,-3 m 0,8 c -2.757,0 -5,-2.243 -5,-5 0,-2.757 2.243,-5 5,-5 2.757,0 5,2.243 5,5 0,2.757 -2.243,5 -5,5"
           id="Fill-453"
           inkscape:connector-curvature="0" />
        <path
           d="m 30,52.0061 c -1.785,0 -3.672,-0.741 -5.608,-2.202 -0.441,-0.332 -0.529,-0.96 -0.196,-1.401 0.332,-0.439 0.958,-0.529 1.401,-0.195 1.581,1.193 3.062,1.798 4.403,1.798 1.35,0 2.788,-0.588 4.399,-1.799 0.442,-0.332 1.068,-0.243 1.401,0.198 0.331,0.442 0.242,1.069 -0.199,1.4 -1.97,1.481 -3.802,2.201 -5.601,2.201"
           id="Fill-455"
           inkscape:connector-curvature="0" />
        <path
           d="m 28,51.7082 v 4.298 c 0,1.103 0.897,2 2,2 1.103,0 2,-0.897 2,-2 v -4.299 c -1.359,0.397 -2.641,0.397 -4,10e-4 m 2,8.298 c -2.206,0 -4,-1.795 -4,-4 v -5.756 c 0,-0.344 0.177,-0.664 0.469,-0.847 0.292,-0.182 0.655,-0.201 0.967,-0.053 1.796,0.869 3.325,0.873 5.127,-0.003 0.312,-0.15 0.676,-0.13 0.968,0.052 0.291,0.184 0.469,0.504 0.469,0.848 v 5.759 c 0,2.205 -1.794,4 -4,4"
           id="Fill-457"
           inkscape:connector-curvature="0" />
        <path
           d="m 32.999,55.6135 c -0.437,0 -0.84,-0.291 -0.963,-0.733 -0.147,-0.532 0.164,-1.083 0.696,-1.231 6.414,-1.78 7.181,-10.152 7.263,-12.676 l -10e-4,-1.967 c 0.042,-2.619 1.949,-7.085 3.541,-10.373 1.696,-3.505 2.541,-7.065 2.513,-10.582 -0.013,-1.54 -0.184,-3.018 -0.509,-4.392 -0.08,-0.335 0.02,-0.688 0.262,-0.933 0.242,-0.245 0.593,-0.349 0.93,-0.273 2.863,0.644 6.664,0.567 7.172,0.555 3.414,-0.542 4.033,-4.009 4.098,-6.034 0.009,-0.278 -0.144,-0.546 -0.397,-0.698 -4.416,-2.659 -9.959,-0.659 -13.832,1.486 -0.417,0.231 -0.942,0.135 -1.25,-0.231 -0.829,-0.986 -1.786,-1.856 -2.844,-2.585 -5.705,-3.928 -13.667,-3.929 -19.367,0 -1.058,0.73 -2.013,1.598 -2.836,2.578 -0.308,0.366 -0.833,0.463 -1.25,0.232 C 13.057,6.0025 7.046,3.4785 2.395,6.2785 2.143,6.4295 1.991,6.6965 2,6.9755 c 0.064,2.025 0.685,5.489 4.106,6.033 0.504,0.011 4.297,0.087 7.154,-0.55 0.336,-0.076 0.687,0.029 0.929,0.274 0.243,0.245 0.341,0.598 0.261,0.933 -0.325,1.373 -0.496,2.849 -0.509,4.388 -0.028,3.515 0.817,7.075 2.514,10.58 1.592,3.29 3.498,7.757 3.539,10.357 v 2.016 c 0.11,2.475 0.964,10.837 7.28,12.636 0.531,0.151 0.839,0.704 0.688,1.236 -0.15,0.531 -0.703,0.839 -1.236,0.688 -7.603,-2.166 -8.605,-11.659 -8.731,-14.516 l -0.001,-2.044 c -0.027,-1.728 -1.214,-5.108 -3.34,-9.502 -1.831,-3.784 -2.744,-7.642 -2.713,-11.467 0.01,-1.153 0.101,-2.277 0.273,-3.358 -2.965,0.432 -6.081,0.331 -6.233,0.326 -0.038,-10e-4 -0.075,-0.005 -0.112,-0.01 -5.092,-0.755 -5.8,-5.816 -5.867,-7.956 -0.032,-1.002 0.489,-1.951 1.361,-2.475 4.955,-2.982 10.833,-1.175 15.121,1.061 0.809,-0.868 1.711,-1.649 2.693,-2.325 6.367,-4.389 15.263,-4.39 21.634,-10e-4 0.983,0.676 1.888,1.459 2.701,2.333 4.289,-2.239 10.168,-4.053 15.124,-1.07 0.873,0.525 1.395,1.473 1.363,2.475 -0.067,2.142 -0.774,7.204 -5.858,7.958 -0.038,0.005 -0.075,0.009 -0.113,0.01 -0.152,0.004 -3.28,0.106 -6.253,-0.33 0.172,1.082 0.263,2.206 0.273,3.359 0.031,3.828 -0.881,7.686 -2.712,11.47 -2.127,4.392 -3.314,7.773 -3.342,9.518 v 1.984 c -0.094,2.9 -0.999,12.426 -8.726,14.57 -0.09,0.025 -0.18,0.037 -0.269,0.037"
           id="Fill-459"
           inkscape:connector-curvature="0" />
        <path
           d="m 33,28.0061 c -0.553,0 -1,-0.448 -1,-1 0,-2.206 1.794,-4 4,-4 0.553,0 1,0.448 1,1 0,0.552 -0.447,1 -1,1 -1.103,0 -2,0.897 -2,2 0,0.552 -0.447,1 -1,1"
           id="Fill-496"
           inkscape:connector-curvature="0" />
        <path
           d="m 27,28.0061 c -0.553,0 -1,-0.448 -1,-1 0,-1.103 -0.897,-2 -2,-2 -0.553,0 -1,-0.448 -1,-1 0,-0.552 0.447,-1 1,-1 2.206,0 4,1.794 4,4 0,0.552 -0.447,1 -1,1"
           id="Fill-498"
           inkscape:connector-curvature="0" />
      </g>
    </g>
  </g>
  <metadata
     id="metadata24">
    <rdf:RDF>
      <rdf:Description
         about="https://iconscout.com/legal#licenses"
         dc:title="camel,animal,wildlife"
         dc:description="camel,animal,wildlife"
         dc:publisher="Iconscout"
         dc:date="2017-07-24"
         dc:format="image/svg+xml"
         dc:language="en">
        <dc:creator>
          <rdf:Bag>
            <rdf:li>Smashicons .</rdf:li>
          </rdf:Bag>
        </dc:creator>
      </rdf:Description>
      <cc:Work
         rdf:about="">
        <dc:format>image/svg+xml</dc:format>
        <dc:type
           rdf:resource="http://purl.org/dc/dcmitype/StillImage" />
      </cc:Work>
    </rdf:RDF>
  </metadata>
  <path
     style="fill:#ffffff;stroke-width:0.244068"
     d="m 25.204571,48.88646 c -2.001511,-1.808244 -3.158882,-4.971224 -3.420895,-9.348968 -0.16929,-2.828499 -0.164126,-2.869302 0.485629,-3.837356 0.987101,-1.470657 1.699542,-3.870747 1.853251,-6.243272 0.13194,-2.036497 0.114835,-2.132989 -0.42977,-2.424452 -0.89773,-0.480451 -1.353965,0.305277 -1.516499,2.61172 -0.07547,1.070985 -0.375998,2.549519 -0.684581,3.36802 L 20.941655,34.47113 20.632736,33.578842 C 20.462832,33.088084 19.773786,31.443066 19.101525,29.923251 16.93901,25.034342 16.261869,21.363843 16.863952,17.79429 17.273879,15.363969 17.093134,15.174581 14.71583,15.543432 12.040952,15.958453 9.8037247,15.887014 8.8111273,15.354882 7.8003387,14.812998 6.9333088,13.265168 6.7086533,11.601524 L 6.5522215,10.443099 7.6608481,9.9527003 C 10.149607,8.8518042 13.178309,9.135235 16.798365,10.807804 c 1.016415,0.469613 1.952573,0.853841 2.080352,0.853841 0.127778,0 0.905492,-0.609181 1.728252,-1.353737 5.259833,-4.7598766 13.711567,-4.7426083 18.723802,0.03826 0.758531,0.723514 1.550147,1.315481 1.759151,1.315481 0.209002,0 1.022799,-0.315022 1.808442,-0.700049 2.561889,-1.2555318 3.957625,-1.6179366 6.187758,-1.6066587 1.656873,0.00838 2.283427,0.1198004 3.111864,0.5533903 0.973498,0.5095134 1.037288,0.6069554 1.037288,1.5845284 0,1.35779 -0.874724,3.067115 -1.927618,3.766819 -0.938975,0.623997 -2.994517,0.729709 -5.930876,0.30501 -0.899122,-0.130043 -1.778989,-0.1811 -1.955259,-0.113458 -0.2478,0.09509 -0.321091,1.10475 -0.32313,4.451447 -0.0025,4.039463 -0.04538,4.450681 -0.642803,6.158971 -0.703619,2.011934 -3.085573,7.562814 -3.390417,7.900989 -0.29735,0.329861 -1.2033,-2.912063 -1.372229,-4.910494 -0.157092,-1.858389 -0.540695,-2.440051 -1.393408,-2.112835 -0.59278,0.227471 -0.67486,0.881827 -0.39406,3.141522 0.292225,2.35163 0.925252,4.262851 1.875915,5.663734 0.615268,0.906646 0.628875,1.009282 0.479828,3.618945 -0.1788,3.130555 -0.613672,5.023025 -1.63808,7.128573 -0.656374,1.349099 -2.383813,3.244142 -2.957219,3.244142 -0.110074,0 -0.200136,-0.360727 -0.200136,-0.801614 0,-0.628166 0.155216,-0.893302 0.717353,-1.225364 0.835563,-0.49358 1.156413,-1.262826 0.737333,-1.767786 -0.421412,-0.50777 -1.001273,-0.43887 -1.902533,0.226058 -1.025939,0.756913 -2.738419,1.225629 -3.770501,1.03201 -0.45149,-0.0847 -1.350703,-0.489998 -1.998252,-0.900661 -0.816192,-0.517612 -1.353506,-0.70245 -1.751567,-0.602543 -0.892652,0.22404 -0.755924,1.19171 0.280032,1.981872 0.627866,0.478895 0.854237,0.837913 0.854237,1.354793 0,0.915977 -0.283457,0.886879 -1.427313,-0.146526 z m 5.567879,-6.944363 c 0.13896,-0.25965 0.252655,-1.004178 0.252655,-1.654509 0,-1.132226 0.06774,-1.249461 1.595693,-2.761807 1.2383,-1.225649 1.579955,-1.716054 1.525424,-2.18956 -0.04968,-0.431422 -0.2408,-0.634283 -0.652386,-0.692481 -0.44251,-0.06257 -0.944086,0.276438 -2.09139,1.413545 l -1.509274,1.495858 -1.362691,-1.474562 c -1.342987,-1.453242 -2.00668,-1.756988 -2.581986,-1.181682 -0.532077,0.532076 -0.310355,0.961463 1.415592,2.741441 1.650139,1.701794 1.708475,1.803412 1.708475,2.976021 0,0.667735 0.131797,1.34586 0.292882,1.506944 0.439777,0.439776 1.122257,0.352849 1.407006,-0.179208 z M 28.29453,27.701469 c 0.05079,-0.615118 -0.09293,-1.196553 -0.430965,-1.743508 -0.873994,-1.41415 -3.137926,-2.115251 -3.662896,-1.134336 -0.362169,0.676718 -0.05648,1.240821 0.761017,1.404319 0.768878,0.153776 1.670198,1.11353 1.670198,1.77848 0,0.589519 0.257065,0.772962 0.967138,0.690155 0.524771,-0.0612 0.630936,-0.213094 0.695508,-0.99511 z m 4.851763,0.739836 c 0.1086,-0.167796 0.307287,-0.634575 0.441523,-1.037287 0.162714,-0.488136 0.488136,-0.81356 0.976271,-0.976271 1.107963,-0.369322 1.342373,-0.584124 1.342373,-1.230093 0,-0.681532 -0.810895,-1.000165 -1.8693,-0.734522 -1.554373,0.390122 -3.058567,2.978862 -2.277631,3.919832 0.367417,0.442711 1.11757,0.47427 1.386764,0.05834 z m -8.002926,-6.882447 c 3.143232,-1.625428 3.250684,-5.995015 0.189729,-7.715368 -1.24112,-0.697549 -3.368206,-0.588973 -4.519308,0.230685 -2.682218,1.909907 -2.119365,6.513858 0.936741,7.662215 0.726578,0.273017 2.723648,0.16852 3.392838,-0.177532 z m 13.430886,-0.0037 c 2.492911,-1.289134 3.170207,-4.684064 1.338885,-6.711117 -1.092056,-1.208778 -1.986287,-1.560233 -3.624201,-1.424405 -2.487327,0.206269 -3.940323,1.986571 -3.75153,4.596612 0.173164,2.393971 1.766765,3.879266 4.174394,3.890688 0.644293,0.0031 1.482398,-0.155244 1.862452,-0.351778 z"
     id="path30"
     inkscape:connector-curvature="0" />
  <path
     style="fill:#ffffff;stroke-width:0.244068"
     d="m 25.148284,48.835609 c -1.960357,-1.771066 -3.096731,-4.903078 -3.373594,-9.298117 -0.155941,-2.475472 -0.124812,-2.940731 0.232102,-3.469067 1.290641,-1.910519 2.184415,-4.947562 2.184415,-7.422644 0,-1.063526 -0.09553,-1.39775 -0.454421,-1.589821 -0.880901,-0.471443 -1.28626,0.189262 -1.517837,2.473966 -0.116782,1.152161 -0.446042,2.719484 -0.731688,3.482943 L 20.967904,34.400975 20.1697,32.488936 c -0.439012,-1.051619 -1.190912,-2.845596 -1.67089,-3.986613 -1.639359,-3.897136 -2.17366,-7.367842 -1.650501,-10.721326 0.37551,-2.407046 0.235512,-2.55765 -2.068047,-2.22472 C 12.03496,15.953051 9.7853251,15.87715 8.8111273,15.354882 7.8003387,14.812998 6.9333088,13.265168 6.7086533,11.601524 L 6.5522215,10.443099 7.641853,9.9611028 c 2.501677,-1.1066104 5.746431,-0.8054557 9.211011,0.8549002 0.970507,0.465103 1.875623,0.845642 2.011368,0.845642 0.135745,0 0.919977,-0.609181 1.742737,-1.353737 5.261561,-4.7614404 13.53517,-4.7519288 18.7275,0.02153 0.797008,0.732714 1.532433,1.331948 1.634278,1.33163 0.101844,-3.17e-4 1.193149,-0.435447 2.425121,-0.966956 3.672065,-1.584236 6.652675,-1.8477507 8.865135,-0.7837635 0.767196,0.3689495 0.861276,0.5226235 0.923325,1.5081705 0.08812,1.399686 -0.733225,3.082605 -1.874672,3.841156 -0.679626,0.451647 -1.164215,0.55079 -2.684746,0.549279 -1.020488,-0.0011 -2.566187,-0.117159 -3.434887,-0.258099 -2.148859,-0.348637 -2.170728,-0.308251 -2.026188,3.742059 0.165228,4.630049 -0.03329,5.436424 -3.108543,12.626359 -0.430613,1.00678 -0.872274,1.926293 -0.981465,2.043362 -0.292024,0.313091 -1.190106,-2.811873 -1.372691,-4.776411 -0.207902,-2.236936 -0.896825,-2.997453 -1.660074,-1.832588 -0.30209,0.461049 -0.325969,0.902312 -0.135379,2.501695 0.343907,2.885994 1.093123,5.079158 2.143155,6.273599 0.310735,0.353471 0.348993,0.897406 0.223161,3.172881 -0.174739,3.159848 -0.607385,5.053671 -1.638974,7.174248 -0.674437,1.386399 -2.353773,3.260163 -2.921877,3.260163 -0.133852,0 -0.243366,-0.360727 -0.243366,-0.801614 0,-0.628166 0.155216,-0.893302 0.717353,-1.225364 0.835563,-0.49358 1.156413,-1.262826 0.737333,-1.767786 -0.401894,-0.484252 -0.886227,-0.444823 -1.705968,0.138885 -0.859555,0.612056 -2.528469,1.213995 -3.379403,1.218872 -0.352275,0.0019 -1.430797,-0.400796 -2.396713,-0.895143 -1.472297,-0.753506 -1.817545,-0.847911 -2.135594,-0.583955 -0.609068,0.505483 -0.442143,1.158646 0.474857,1.858077 0.627866,0.478895 0.854237,0.837913 0.854237,1.354793 0,0.924939 -0.283004,0.887289 -1.4836,-0.197378 z m 5.493286,-6.804957 c 0.250467,-0.250467 0.383535,-0.824503 0.383535,-1.654508 0,-1.241269 0.0373,-1.307884 1.595693,-2.850363 1.2383,-1.225649 1.579955,-1.716054 1.525424,-2.18956 -0.132314,-1.148915 -1.017819,-0.917536 -2.711049,0.708387 l -1.536408,1.475334 -1.44275,-1.457961 c -1.450783,-1.466081 -1.966774,-1.705828 -2.50752,-1.165082 -0.518726,0.518725 -0.324327,0.892883 1.415592,2.724566 1.641377,1.727941 1.708475,1.845872 1.708475,3.00277 0,1.653506 0.697077,2.278349 1.569008,1.406417 z M 28.098006,28.378223 c 0.432255,-0.520835 0.137363,-2.014286 -0.541202,-2.740868 -1.186409,-1.270362 -2.890614,-1.683564 -3.356135,-0.81373 -0.362169,0.676718 -0.05648,1.240821 0.761017,1.404319 0.768878,0.153776 1.670198,1.11353 1.670198,1.77848 0,0.804117 0.914797,1.036104 1.466122,0.371799 z m 5.060171,0.06308 c 0.132162,-0.167797 0.3138,-0.612498 0.403637,-0.988224 0.122212,-0.511144 0.437933,-0.800844 1.25399,-1.150648 1.152725,-0.494116 1.42253,-1.125927 0.72723,-1.702976 -0.54525,-0.452516 -2.038364,-0.07866 -2.824158,0.707138 -0.880277,0.880276 -1.404348,2.540176 -0.967997,3.065949 0.375206,0.452091 1.078309,0.486446 1.407298,0.06876 z m -8.154515,-6.861727 c 1.624294,-0.678674 2.8306,-2.900565 2.508097,-4.619657 -0.378978,-2.020122 -1.936944,-3.396298 -3.98846,-3.523069 -1.85244,-0.114469 -3.1297,0.578867 -3.908364,2.121581 -1.858854,3.682822 1.63685,7.588779 5.388727,6.021145 z m 13.423729,0 c 1.014692,-0.423965 2.023729,-1.61993 2.385504,-2.827423 0.776926,-2.593147 -1.315045,-5.386765 -4.027272,-5.378021 -2.487738,0.0081 -4.288081,1.799587 -4.288081,4.267171 0,3.10289 3.062035,5.136522 5.929849,3.938273 z"
     id="path32"
     inkscape:connector-curvature="0" />
  <path
     style="fill:#ffffff;stroke-width:0.244068"
     d="m 25.269065,48.953325 c -2.079517,-1.825839 -3.241948,-4.935712 -3.492468,-9.343472 -0.166213,-2.924398 -0.164987,-2.933829 0.523978,-4.029564 1.036837,-1.648995 1.717844,-4.166835 1.745112,-6.452079 0.02257,-1.891718 0.0011,-1.971436 -0.553816,-2.049941 -0.317516,-0.04493 -0.677217,0.01823 -0.799334,0.14035 -0.122115,0.122117 -0.330134,1.173423 -0.462262,2.336238 -0.132128,1.162815 -0.47188,2.733338 -0.755003,3.490056 l -0.51477,1.375847 -0.961585,-2.288034 c -2.953136,-7.026802 -3.211826,-7.93189 -3.235045,-11.318539 -0.0092,-1.342373 0.06284,-2.957321 0.16011,-3.588774 0.205863,-1.336504 -0.244075,-2.050072 -1.128482,-1.789683 -0.282022,0.08303 -1.775819,0.210171 -3.319548,0.282527 C 9.9977693,15.834412 9.5691648,15.794154 8.8149352,15.37439 7.8004114,14.80976 6.9317768,13.253822 6.7086533,11.601524 L 6.5522215,10.443099 7.7169146,9.9278996 C 10.16271,8.846008 13.169102,9.1367797 16.885176,10.814633 c 1.031768,0.465856 1.937489,0.847012 2.012714,0.847012 0.07522,0 0.830214,-0.608249 1.677756,-1.351666 2.729321,-2.3940077 5.77733,-3.52969 9.473187,-3.52969 3.647308,0 6.581108,1.1164028 9.293192,3.536349 0.829057,0.739754 1.575892,1.344747 1.659634,1.34443 0.08374,-3.18e-4 1.147863,-0.430114 2.364712,-0.955102 3.704954,-1.5984385 6.692717,-1.8792808 8.8382,-0.8307675 0.826364,0.4038505 0.914927,0.5435555 0.977757,1.5423785 0.08811,1.400686 -0.732906,3.083333 -1.874672,3.842098 -0.679626,0.451646 -1.164215,0.55079 -2.684746,0.549278 -1.020488,-0.0011 -2.558726,-0.115956 -3.418308,-0.255429 -1.094413,-0.177574 -1.640322,-0.176139 -1.821249,0.0048 -0.164424,0.164425 -0.235418,1.566303 -0.195245,3.855429 0.05191,2.957502 -0.02412,3.934195 -0.427579,5.493224 -0.449617,1.737381 -3.228705,8.557294 -3.690152,9.055671 -0.277949,0.300193 -1.167069,-2.719865 -1.362594,-4.628311 -0.09003,-0.87868 -0.339944,-1.814778 -0.555381,-2.080219 -0.349134,-0.430171 -0.443819,-0.44444 -0.871243,-0.131298 -0.996592,0.730131 -0.232602,5.685558 1.253363,8.129624 l 0.86709,1.426164 -0.133822,2.562711 c -0.172417,3.30185 -0.508823,4.844097 -1.522824,6.981379 -0.759515,1.600885 -2.412113,3.513537 -3.035818,3.513537 -0.133852,0 -0.243366,-0.365849 -0.243366,-0.812995 0,-0.623915 0.146304,-0.891294 0.629068,-1.149662 0.854347,-0.457232 1.163347,-1.085472 0.835339,-1.69836 -0.33182,-0.620011 -0.839886,-0.61849 -1.715689,0.0052 -0.87736,0.624675 -2.536877,1.215141 -3.415349,1.215141 -0.372045,0 -1.453991,-0.39997 -2.404323,-0.888826 -1.431343,-0.73629 -1.79168,-0.835876 -2.099648,-0.580286 -0.60167,0.499343 -0.430794,1.155183 0.482467,1.851762 0.627866,0.478895 0.854237,0.837913 0.854237,1.354793 0,0.901123 -0.263296,0.885732 -1.362819,-0.07966 z m 5.245961,-6.764478 c 0.206564,-0.130764 0.389184,-0.787926 0.456777,-1.643721 0.107704,-1.363641 0.180544,-1.4967 1.669402,-3.049581 1.58102,-1.649007 1.787991,-2.074554 1.2639,-2.598646 -0.504539,-0.504539 -0.864742,-0.334841 -2.463221,1.160457 l -1.553622,1.453336 -1.315159,-1.3317 c -1.447024,-1.465224 -2.028433,-1.76492 -2.5631,-1.321185 -0.59437,0.493283 -0.420121,0.846714 1.354084,2.746517 1.54985,1.659564 1.708475,1.923948 1.708475,2.847551 0,1.636313 0.551813,2.300791 1.442464,1.736972 z M 28.047478,28.453509 c 0.756194,-0.756194 -0.05705,-2.749369 -1.47438,-3.613522 -0.965006,-0.588371 -1.726142,-0.619563 -2.253359,-0.09235 -0.34425,0.344252 -0.350677,0.46077 -0.05048,0.915255 0.189193,0.286432 0.576333,0.555595 0.860308,0.59814 0.598205,0.08963 1.502317,1.140019 1.502317,1.74539 0,0.762807 0.835878,1.026801 1.415594,0.447085 z m 5.364519,-0.712902 c 0.314411,-0.800407 0.609426,-1.097662 1.444774,-1.455733 0.714286,-0.306179 1.049689,-0.599145 1.049689,-0.916874 0,-1.138978 -1.520959,-1.285106 -2.930346,-0.281535 -0.916587,0.652668 -1.614457,2.432508 -1.233145,3.144997 0.465557,0.869901 1.221884,0.647468 1.669028,-0.490855 z m -8.565493,-6.088441 c 1.450089,-0.549423 2.750931,-2.446052 2.750931,-4.010861 0,-1.124533 -0.815296,-2.667332 -1.810828,-3.426661 -2.660221,-2.02905 -6.720825,-0.01885 -6.720825,3.327127 0,3.031443 2.999435,5.164197 5.780722,4.110395 z m 13.580887,-0.07259 c 2.933373,-1.225642 3.360918,-5.398619 0.756637,-7.385002 -1.958601,-1.493895 -4.976608,-0.823414 -6.132492,1.362397 -1.90366,3.599876 1.648895,7.579827 5.375855,6.022605 z"
     id="path34"
     inkscape:connector-curvature="0" />
  <path
     style="fill:#ffffff;stroke-width:0.244068"
     d="m 21.661777,19.316499 c -0.903134,-0.903134 -0.903134,-2.447252 0,-3.350386 1.430275,-1.430275 3.993836,-0.355004 3.993836,1.675192 0,2.030198 -2.563561,3.105469 -3.993836,1.675194 z m 2.407396,-1.675194 c 0,-0.590861 -0.115146,-0.748455 -0.596495,-0.816399 -0.780216,-0.110128 -1.315794,0.57365 -0.964074,1.230845 0.171978,0.321342 0.457218,0.445227 0.905798,0.393403 0.548001,-0.06331 0.654771,-0.19504 0.654771,-0.807849 z"
     id="path36"
     inkscape:connector-curvature="0" />
  <path
     style="fill:#ffffff;stroke-width:0.244068"
     d="m 35.112817,19.34381 c -0.727139,-0.727139 -0.89871,-1.413521 -0.621113,-2.484804 0.640881,-2.47324 4.587638,-1.800225 4.587638,0.782299 0,2.006665 -2.562495,3.106535 -3.966525,1.702505 z m 2.380085,-1.702505 c 0,-0.590861 -0.115146,-0.748455 -0.596495,-0.816399 -0.780217,-0.110128 -1.315794,0.57365 -0.964074,1.230845 0.171978,0.321342 0.457218,0.445227 0.905798,0.393403 0.548001,-0.06331 0.654771,-0.19504 0.654771,-0.807849 z"
     id="path38"
     inkscape:connector-curvature="0" />
  <path
     style="fill:#ffffff;stroke-width:0.244068"
     d="m 29.038607,53.662888 c -0.506983,-0.410529 -0.58623,-0.711537 -0.659955,-2.506732 l -0.08379,-2.040179 1.608884,0.005 1.608884,0.005 2.93e-4,2.013559 c 2.64e-4,1.688386 -0.07852,2.092389 -0.487822,2.501694 -0.613192,0.613193 -1.247383,0.620083 -1.986498,0.02158 z"
     id="path40"
     inkscape:connector-curvature="0" />
</svg>
