<?xml version="1.0" encoding="UTF-8" standalone="no"?>
<svg
   xmlns:dc="http://purl.org/dc/elements/1.1/"
   xmlns:cc="http://creativecommons.org/ns#"
   xmlns:rdf="http://www.w3.org/1999/02/22-rdf-syntax-ns#"
   xmlns:svg="http://www.w3.org/2000/svg"
   xmlns="http://www.w3.org/2000/svg"
   xmlns:sodipodi="http://sodipodi.sourceforge.net/DTD/sodipodi-0.dtd"
   xmlns:inkscape="http://www.inkscape.org/namespaces/inkscape"
   version="1.1"
   id="Layer_1"
   x="0px"
   y="0px"
   viewBox="0 0 64 64"
   xml:space="preserve"
   sodipodi:docname="ww.svg"
   inkscape:version="1.0.1 (3bc2e813f5, 2020-09-07, custom)"><defs
     id="defs18" /><sodipodi:namedview
     pagecolor="#ffffff"
     bordercolor="#666666"
     borderopacity="1"
     objecttolerance="10"
     gridtolerance="10"
     guidetolerance="10"
     inkscape:pageopacity="0"
     inkscape:pageshadow="2"
     inkscape:window-width="960"
     inkscape:window-height="1060"
     id="namedview16"
     showgrid="false"
     inkscape:zoom="3.6875"
     inkscape:cx="33.084746"
     inkscape:cy="32"
     inkscape:window-x="0"
     inkscape:window-y="20"
     inkscape:window-maximized="0"
     inkscape:current-layer="Layer_1"
     inkscape:document-rotation="0" /><g
     id="wildebeest__x5F_line"
     transform="matrix(0.81716102,0,0,0.85338983,5.4440678,4.6915254)"><path
       d="m 63.2,42 c -0.5,-0.1 -0.9,0.2 -1.1,0.6 -0.4,1.2 -1.2,2.3 -1.6,2.3 -0.8,0 -1.5,-0.7 -1.5,-1.5 V 28.1 c 1,-0.4 1.9,-1 2.7,-1.8 C 63.1,24.9 63.9,22.9 64,21 64,20.7 63.9,20.5 63.7,20.3 63.5,20.1 63.3,20 63,20 H 59 V 13.5 C 59,6.1 52.9,0 45.5,0 37.9,0 34.2,3.7 32.4,7 H 31.6 C 29.8,3.7 26.1,0 18.5,0 11.1,0 5,6.1 5,13.5 V 20 H 1 C 0.7,20 0.5,20.1 0.3,20.3 0.1,20.5 0,20.8 0,21.1 0.1,23 1,24.9 2.3,26.4 3.1,27.2 4,27.8 5,28.1 V 43.4 C 5,44.3 4.3,45 3.5,45 3.2,45 2.4,43.9 1.9,42.7 1.7,42.2 1.3,42 0.8,42.1 0.3,42.1 0,42.5 0,43 v 2.5 c 0,2 0.8,3.9 2.3,5.2 C 3.4,51.8 5.5,53 9,53 h 1.1 C 18,52.4 18,47.6 18,45.5 v -0.6 c 0.1,0 0.2,0.1 0.3,0.1 L 24,59.2 c 0.1,2.9 2.4,4.8 6,4.8 h 4 c 3.6,0 5.9,-1.9 6,-4.8 l 5.7,-14.3 c 0.1,0 0.2,-0.1 0.3,-0.1 v 0.6 c 0,2.1 0,6.9 7.9,7.5 H 55 c 3.4,0 5.5,-1.2 6.7,-2.3 1.5,-1.4 2.3,-3.2 2.3,-5.2 V 43 c 0,-0.5 -0.3,-0.9 -0.8,-1 z m -9.1,9 C 48,50.5 48,47.5 48,45.5 V 44 43.8 c 1.9,-1.6 3,-4.6 3,-6.8 V 25.7 c 0.1,0.2 0.2,0.3 0.4,0.5 1.3,1.4 3.1,2.3 5,2.4 H 57 v 14.9 c 0,1.9 1.6,3.5 3.5,3.5 0.5,0 1,-0.2 1.4,-0.5 -0.2,1.1 -0.7,2 -1.5,2.8 -1.5,1.3 -3.6,1.9 -6.3,1.7 z M 35.2,61.9 C 34.8,62 34.5,62 34.3,62 H 29.7 C 29.4,62 29.1,62 28.8,61.9 28,61.8 27.1,61.4 26.5,60.7 26.2,60.3 26,59.7 26,59 h 12 c 0,0.7 -0.2,1.3 -0.5,1.7 -0.6,0.7 -1.5,1.1 -2.3,1.2 z M 16,44 v 1.5 c 0,2 0,5.1 -6.1,5.5 C 7.2,51.2 5,50.6 3.6,49.3 2.8,48.5 2.3,47.6 2.1,46.5 2.5,46.8 3,47 3.5,47 5.4,47 7,45.4 7,43.5 V 28.6 h 0.6 c 1.9,-0.1 3.7,-1 5,-2.4 0.1,-0.2 0.3,-0.3 0.4,-0.5 V 37 c 0,2.2 1.2,5.1 3,6.8 z M 5,22 h 7.4 c -0.1,1 -0.6,2 -1.3,2.8 -0.9,1 -2.2,1.7 -3.6,1.7 H 7 C 6.7,26.5 6.3,26.4 6,26.3 5.7,26.2 5.3,26 5,25.8 4.6,25.5 4.2,25.2 3.8,24.8 3,24 2.4,22.9 2.2,21.8 H 5 Z M 7,13.5 C 7,7.2 12.2,2 18.5,2 23.4,2 27,3.7 29.3,7 H 19 c -3.3,0 -6,2.7 -6,6 v 7 H 7 Z M 45.5,2 C 51.8,2 57,7.2 57,13.5 V 20 H 51 V 13 C 51,9.7 48.3,7 45,7 H 34.7 C 37,3.7 40.6,2 45.5,2 Z M 59,25.9 c -0.3,0.2 -0.7,0.3 -1,0.5 -0.3,0.1 -0.7,0.2 -1,0.2 H 56.5 C 55.1,26.5 53.8,25.9 52.9,24.9 52.2,24 51.7,23 51.6,22 h 10.2 c -0.3,1.1 -0.8,2.1 -1.6,3 -0.4,0.3 -0.8,0.7 -1.2,0.9 z M 33.4,9 H 45 c 2.2,0 4,1.8 4,4 v 7 h -5 c -2.2,0 -4.1,1.2 -5.2,3 -0.5,0.9 -0.8,1.9 -0.8,3 v 20 h -1 c -2.1,0 -3.9,1.1 -5,2.7 C 30.9,47.1 29.1,46 27,46 H 26 V 26 c 0,-1.1 -0.3,-2.1 -0.8,-3 -1,-1.8 -3,-3 -5.2,-3 h -5 v -7 c 0,-2.2 1.8,-4 4,-4 z M 29,50 H 26.1 C 26,49.7 26,49.3 26,49 v -1 h 1 c 2.2,0 4,1.8 4,4 v 1 h -1 c -1,0 -1.9,-0.4 -2.6,-1 H 29 c 0.6,0 1,-0.4 1,-1 0,-0.6 -0.4,-1 -1,-1 z m 4,2 c 0,-2.2 1.8,-4 4,-4 h 1 v 1 c 0,0.3 -0.1,0.7 -0.1,1 H 35 c -0.6,0 -1,0.4 -1,1 0,0.6 0.4,1 1,1 h 1.6 C 35.9,52.6 35,53 34,53 H 33 Z M 17.6,42.4 C 16.2,41.4 15,38.9 15,37 V 22 h 5 c 2.2,0 4,1.8 4,4 v 23 c 0,1.2 0.4,2.4 1,3.3 1.1,1.6 2.9,2.7 5,2.7 h 1 v 2 H 25.3 L 25,56.3 19.9,43.6 C 19.8,43.2 19.4,43 19,43 18.5,43 18.1,42.8 17.6,42.4 Z M 44.1,43.6 39,56.3 38.7,57 H 33 v -2 h 1 c 2.1,0 3.9,-1.1 5,-2.7 0.6,-1 1,-2.1 1,-3.3 V 26 c 0,-2.2 1.8,-4 4,-4 h 5 v 15 c 0,1.9 -1.2,4.4 -2.6,5.4 -0.5,0.4 -0.9,0.6 -1.4,0.6 -0.4,0 -0.8,0.2 -0.9,0.6 z"
       id="path2"
       inkscape:connector-curvature="0" /><circle
       cx="19"
       cy="28"
       r="2"
       id="circle4" /><circle
       cx="45"
       cy="28"
       r="2"
       id="circle6" /><path
       d="m 28,13 c -0.6,0 -1,0.4 -1,1 0,0.6 0.4,1 1,1 h 9 c 0.6,0 1,-0.4 1,-1 0,-0.6 -0.4,-1 -1,-1 z"
       id="path8"
       inkscape:connector-curvature="0" /><path
       d="m 37,17 h -9 c -0.2,0 -0.4,0.1 -0.6,0.2 C 27.2,17.4 27,17.7 27,18 v 0.2 c 0.1,0.5 0.5,0.8 1,0.8 h 9 c 0.1,0 0.2,0 0.3,-0.1 0.4,-0.1 0.7,-0.5 0.7,-0.9 0,-0.6 -0.4,-1 -1,-1 z"
       id="path10"
       inkscape:connector-curvature="0" /></g><metadata
     id="metadata13"><rdf:RDF><rdf:Description
         about="https://iconscout.com/legal#licenses"
         dc:title="wildebeest"
         dc:description="wildebeest"
         dc:publisher="Iconscout"
         dc:date="2017-09-06"
         dc:format="image/svg+xml"
         dc:language="en"><dc:creator><rdf:Bag><rdf:li>Madeby Grids</rdf:li></rdf:Bag></dc:creator></rdf:Description><cc:Work
         rdf:about=""><dc:format>image/svg+xml</dc:format><dc:type
           rdf:resource="http://purl.org/dc/dcmitype/StillImage" /></cc:Work></rdf:RDF></metadata><path
     style="fill:#ffffff;stroke-width:0.257627"
     d="m 11.16857,19.131525 c 0.0073,-3.528939 0.358097,-5.567174 1.28083,-7.44151 1.352816,-2.7479569 4.023573,-4.6371638 7.225808,-5.1113022 1.573205,-0.2329362 4.466243,0.2728892 6.033722,1.0549495 1.223189,0.610284 3.230731,2.2947492 3.230731,2.7108047 0,0.10435 -2.173729,0.225737 -4.830509,0.269748 -5.397542,0.08942 -5.662584,0.170328 -7.214149,2.202365 -0.690478,0.904296 -0.709914,1.024222 -0.790426,4.876951 l -0.08255,3.949859 h -2.429323 -2.429322 z"
     id="path20"
     inkscape:connector-curvature="0" /><path
     style="fill:#ffffff;stroke-width:0.257627"
     d="M 10.543464,27.036577 C 9.618273,26.767671 8.2107808,25.434629 7.7968057,24.435204 7.6265533,24.024179 7.5318436,23.64418 7.5863398,23.590762 c 0.054496,-0.05342 1.8090839,-0.03267 3.8990842,0.0461 2.713758,0.102283 3.8,0.231981 3.8,0.453726 0,0.561891 -1.146359,2.025145 -1.933079,2.46745 -1.049723,0.59017 -1.916648,0.737864 -2.808881,0.478538 z"
     id="path22"
     inkscape:connector-curvature="0" /><path
     style="fill:#ffffff;stroke-width:0.257627"
     d="m 24.19258,47.985763 c -2.459006,-6.446593 -2.609114,-6.762712 -3.211232,-6.762712 -0.768436,0 -1.739432,-0.938205 -2.45301,-2.370169 l -0.666643,-1.337779 v -6.905347 -6.905349 h 2.610258 2.610258 l 0.867708,0.920038 0.867708,0.920039 v 10.251577 c 0,5.789815 0.112667,10.845671 0.25887,11.616596 0.448698,2.365972 2.110313,3.965316 4.442825,4.27632 1.137859,0.151717 1.223729,0.21507 1.223729,0.902857 v 0.739691 H 28.487367 26.231683 Z M 22.222658,29.723901 c 0.293673,-0.373347 0.533952,-0.879407 0.533952,-1.124579 0,-0.795715 -1.007674,-1.80339 -1.80339,-1.80339 -0.795715,0 -1.80339,1.007675 -1.80339,1.80339 0,0.245172 0.240279,0.751232 0.533953,1.124579 0.717468,0.912113 1.821406,0.912113 2.538875,0 z"
     id="path24"
     inkscape:connector-curvature="0" /><path
     style="fill:#ffffff;stroke-width:0.257627"
     d="m 30.655573,45.093535 c -0.726935,-0.706741 -2.186304,-1.294213 -3.215021,-1.294213 -0.533642,0 -0.538204,-0.0684 -0.614178,-9.210169 l -0.07654,-9.21017 -0.706195,-1.201308 C 24.913567,22.255309 23.915683,21.795168 20.63119,21.681899 l -2.769491,-0.09551 v -3.333447 c 0,-3.657429 0.210956,-4.414102 1.468188,-5.266212 0.682125,-0.462322 1.35192,-0.489105 12.231467,-0.489105 11.235592,0 11.527159,0.01271 12.23729,0.533568 1.335784,0.979749 1.628312,1.95971 1.628757,5.456262 l 3.99e-4,3.155933 h -2.521683 c -3.060101,0 -4.382001,0.538211 -5.590125,2.276017 l -0.776329,1.116695 -0.07358,9.38161 -0.07358,9.38161 -0.570487,0.0015 c -1.103788,0.0028 -2.525817,0.549864 -3.381032,1.300751 -0.475341,0.417356 -0.906918,0.746323 -0.959059,0.731039 -0.05215,-0.01528 -0.424,-0.347841 -0.826349,-0.739015 z m 5.608059,-24.370242 c 0.484085,-0.484085 0.515559,-0.927153 0.09569,-1.347022 -0.43279,-0.43279 -8.223482,-0.43279 -8.656271,0 -0.448421,0.448421 -0.379007,1.170321 0.141695,1.473602 0.248754,0.144885 2.145957,0.266106 4.232445,0.270429 3.101658,0.0065 3.85439,-0.06496 4.186441,-0.397009 z m 0.279953,-3.729555 c 0.359612,-1.133036 -0.162637,-1.275772 -4.667849,-1.275772 h -4.214394 l -0.157976,0.629425 c -0.08689,0.346184 -0.08225,0.751947 0.0103,0.901696 0.107456,0.173869 1.739348,0.272269 4.515367,0.272269 4.154786,0 4.354504,-0.02334 4.514554,-0.527618 z"
     id="path26"
     inkscape:connector-curvature="0" /><path
     style="fill:#ffffff;stroke-width:0.257627"
     d="m 47.190408,17.800511 c -0.08694,-3.79505 -0.0977,-3.856619 -0.864483,-4.946964 -1.397882,-1.987748 -1.897491,-2.141434 -7.438312,-2.288123 L 34.022004,10.43661 35.152019,9.3015893 c 1.431822,-1.4381646 3.193831,-2.2506988 5.683815,-2.6210378 4.371747,-0.6502163 8.187801,1.4002875 10.106587,5.4306355 0.765427,1.607753 0.800732,1.831352 0.884768,5.603389 l 0.08753,3.928814 h -2.318137 -2.318137 z"
     id="path28"
     inkscape:connector-curvature="0" /><path
     style="fill:#ffffff;stroke-width:0.257627"
     d="m 50.056327,26.731525 c -1.009163,-0.50936 -2.28917,-2.082633 -2.305649,-2.833898 -0.0024,-0.106271 1.792712,-0.19322 3.988983,-0.19322 2.196271,0 3.993221,0.06559 3.993221,0.14575 0,0.688729 -1.578496,2.549362 -2.627885,3.097589 -0.972196,0.507899 -1.718953,0.454936 -3.04867,-0.216221 z"
     id="path30"
     inkscape:connector-curvature="0" /><path
     style="fill:#ffffff;stroke-width:0.257627"
     d="M 48.776949,48.015619 C 47.24622,47.723337 46.434784,47.31852 45.698301,46.479713 44.987722,45.670408 44.91299,45.419257 44.91723,43.854764 c 0.0041,-1.491744 0.110869,-1.886723 0.775629,-2.867792 1.329267,-1.961767 1.538327,-3.167999 1.538327,-8.87583 V 26.95716 l 0.708475,0.678601 c 0.827736,0.792834 2.347601,1.478815 3.276471,1.478815 h 0.652342 v 6.594964 c 0,5.57026 0.06545,6.73287 0.421181,7.482534 0.477609,1.006486 1.501958,1.637757 2.657551,1.637757 0.929743,0 0.944847,0.06808 0.260706,1.17504 -0.922689,1.492943 -4.03933,2.467412 -6.430963,2.010748 z"
     id="path32"
     inkscape:connector-curvature="0" /><path
     style="fill:#ffffff;stroke-width:0.257627"
     d="m 28.424407,57.271616 c -0.681059,-0.248965 -1.545763,-1.181128 -1.545763,-1.666354 0,-0.438526 0.324315,-0.470347 4.793665,-0.470347 4.265351,0 4.77643,0.04492 4.637289,0.407512 -0.086,0.224131 -0.156378,0.515666 -0.156378,0.647854 0,0.132189 -0.376779,0.470071 -0.837288,0.750848 -0.707233,0.431209 -1.277473,0.507495 -3.671186,0.491128 -1.558644,-0.01066 -3.007797,-0.08294 -3.220339,-0.160641 z"
     id="path34"
     inkscape:connector-curvature="0" /><path
     style="fill:#ffffff;stroke-width:0.257627"
     d="m 28.701529,49.48462 c -0.274204,-0.173542 -0.176535,-0.253935 0.386441,-0.31809 0.614589,-0.07003 0.769052,-0.223091 0.838423,-0.830779 0.106669,-0.934429 -0.269272,-1.17832 -1.82402,-1.183332 -1.132508,-0.0036 -1.223729,-0.05195 -1.223729,-0.648012 0,-0.561577 0.112957,-0.644068 0.881928,-0.644068 1.507806,0 2.973005,1.741097 2.981042,3.542373 0.0017,0.374654 -1.483325,0.434276 -2.040085,0.08191 z"
     id="path36"
     inkscape:connector-curvature="0" /><path
     style="fill:#ffffff;stroke-width:0.257627"
     d="m 32.625436,48.629986 c 0.195542,-1.457881 1.559543,-2.769647 2.879933,-2.769647 0.794092,0 0.905479,0.07923 0.905479,0.644068 0,0.592962 -0.09334,0.644068 -1.176259,0.644068 -1.387668,0 -2.172894,0.357054 -2.172894,0.988047 0,0.643007 0.508369,1.072309 1.275254,1.076915 0.518751,0.0031 0.575656,0.05648 0.270509,0.253682 -0.212543,0.137355 -0.778485,0.251512 -1.257651,0.253681 l -0.87121,0.004 z"
     id="path38"
     inkscape:connector-curvature="0" /><path
     style="fill:#ffffff;stroke-width:0.257627"
     d="M 11.034576,47.953839 C 9.7564736,47.616633 8.658994,46.942514 8.0921754,46.14649 7.3411827,45.091818 7.4191611,44.829831 8.4840679,44.829831 c 0.7112529,0 1.131651,-0.204194 1.8033901,-0.875933 l 0.875932,-0.875932 v -6.981695 -6.981695 h 0.781156 c 1.016068,0 2.231406,-0.519601 3.276471,-1.40081 l 0.837288,-0.706009 v 5.40068 c 0,5.911226 0.125868,6.622054 1.535333,8.670641 0.632052,0.918656 0.783234,1.403156 0.782911,2.509035 -5.67e-4,1.907666 -0.625263,3.036854 -2.079629,3.759036 -1.283178,0.637177 -3.971889,0.947156 -5.262344,0.60669 z"
     id="path23"
     inkscape:connector-curvature="0" /><path
     style="fill:#ffffff;stroke-width:0.257627"
     d="m 32.546441,52.601863 c 0,-0.702556 0.079,-0.7602 1.255811,-0.91631 1.563024,-0.20734 3.119941,-1.291928 3.788763,-2.639342 0.457634,-0.921953 0.50399,-1.820045 0.623222,-12.074008 0.137123,-11.792574 0.125518,-11.690674 1.450064,-12.732562 0.585084,-0.460228 1.038726,-0.535234 3.237111,-0.535234 h 2.55667 l -0.07955,7.020339 c -0.076,6.70682 -0.10543,7.068764 -0.659054,8.104682 -0.689647,1.290441 -1.815493,2.393623 -2.442799,2.393623 -0.638457,0 -0.768056,0.265583 -3.142916,6.440678 l -2.130221,5.538983 -2.22855,0.07443 -2.228552,0.07444 z M 43.36678,29.887457 c 1.063954,-1.063954 0.303615,-3.091525 -1.159322,-3.091525 -0.354238,0 -0.875932,0.231865 -1.159322,0.515255 -1.063955,1.063954 -0.303616,3.091525 1.159322,3.091525 0.354237,0 0.875932,-0.231865 1.159322,-0.515255 z"
     id="path25"
     inkscape:connector-curvature="0" /></svg>
