<?xml version="1.0" encoding="UTF-8" standalone="no"?>
<svg
   xmlns:dc="http://purl.org/dc/elements/1.1/"
   xmlns:cc="http://creativecommons.org/ns#"
   xmlns:rdf="http://www.w3.org/1999/02/22-rdf-syntax-ns#"
   xmlns:svg="http://www.w3.org/2000/svg"
   xmlns="http://www.w3.org/2000/svg"
   xmlns:sodipodi="http://sodipodi.sourceforge.net/DTD/sodipodi-0.dtd"
   xmlns:inkscape="http://www.inkscape.org/namespaces/inkscape"
   height="100%"
   width="100%"
   version="1.1"
   viewBox="0 0 2048 2048"
   id="svg16"
   sodipodi:docname="ba.svg"
   inkscape:version="1.0.1 (3bc2e813f5, 2020-09-07, custom)">
  <metadata
     id="metadata22">
    <rdf:RDF>
      <cc:Work
         rdf:about="">
        <dc:format>image/svg+xml</dc:format>
        <dc:type
           rdf:resource="http://purl.org/dc/dcmitype/StillImage" />
      </cc:Work>
    </rdf:RDF>
  </metadata>
  <defs
     id="defs20" />
  <sodipodi:namedview
     pagecolor="#ffffff"
     bordercolor="#666666"
     borderopacity="1"
     objecttolerance="10"
     gridtolerance="10"
     guidetolerance="10"
     inkscape:pageopacity="0"
     inkscape:pageshadow="2"
     inkscape:window-width="960"
     inkscape:window-height="1060"
     id="namedview18"
     showgrid="false"
     inkscape:zoom="0.43115234"
     inkscape:cx="1024"
     inkscape:cy="1021.6806"
     inkscape:window-x="0"
     inkscape:window-y="20"
     inkscape:window-maximized="0"
     inkscape:current-layer="svg16" />
  <path
     style="color:black;"
     d="m1290 582l-42 102q-102 22-224 22-121 0-222-22l-42-101q124 31 264 31 138 0 266-32zm-84 206l-29 70v27q-76 11-153 11-75 0-152-11l-1-27-27-70q85 15 180 15 96 0 182-15zm-35-378q-40 30-80 95h-32q0-49 23-95h89zm-206 0q23 49 23 95h-32q-39-64-81-95h90zm59-18q-14-57-34-79t-53-46q-36-25-85-42t-109-9l-281 39q-17 2-30 0t-26-2q-21 0-53-9t-51-28l-97 159q18 20 32 28t33 17q58 27 124 33 28 2 55 1t56 2q54-9 108-16t110-16q60 0 81 12 11 6 35 22t48 47q-53 6-108 20t-97 31l104 258q-78 45-109 72t-49 64q-26 46-33 89t-7 77q1 60 28 132t104 130q63 48 123 99t119 119q-74 38-74 121 0 56 39 96t97 40q56 0 96-40t40-96q0-82-74-121 58-68 117-119t125-99q75-57 102-129t29-133q0-34-7-77t-32-89q-20-36-50-63t-108-73l104-258q-44-16-99-30t-106-21q23-31 47-47t36-22q21-12 81-12 54 8 108 15t110 17q27-3 54-2t57-1q64-6 124-33 18-9 32-17t33-28l-98-159q-18 18-50 27t-53 10q-13 0-26 2t-31 0l-280-39q-60-9-111 8t-85 45q-33 27-52 46t-33 77zm-37 744v-85q0-37 37-37t37 37v86h90q35 0 35 36t-35 36h-90v90q0 37-37 37t-37-37v-90h-88q-35 0-35-36t35-36l88-1z"
     fill-rule="nonzero"
     transform="translate(0,2048) scale(1,-1)"
     display="block"
     fill="#000"
     id="path2" />
  <g
     fill-rule="nonzero"
     fill="#fff"
     id="g14">
    <path
       style="color:black;"
       d="m1290 1466-42-102q-102-22-224-22-121 0-222 22l-42 101q124-31 264-31 138 0 266 32z"
       display="block"
       id="path4" />
    <path
       style="color:black;"
       d="m1206 1260-29-70v-27q-76-11-153-11-75 0-152 11l-1 27-27 70q85-15 180-15 96 0 182 15z"
       display="block"
       id="path6" />
    <path
       style="color:black;"
       d="m1171 1638q-40-30-80-95h-32q0 49 23 95h89z"
       display="block"
       id="path8" />
    <path
       style="color:black;"
       d="m965 1638q23-49 23-95h-32q-39 64-81 95h90z"
       display="block"
       id="path10" />
    <path
       style="color:black;"
       d="m987 912v85q0 37 37 37t37-37v-86h90q35 0 35-36t-35-36h-90v-90q0-37-37-37t-37 37v90h-88q-35 0-35 36t35 36l88 1z"
       display="block"
       id="path12" />
  </g>
  <path
     style="fill:#800000;stroke:#000000;stroke-width:2.31937"
     d="m 751.47452,1831.8127 c -3.82695,-0.5231 -71.14655,-9.86 -149.5991,-20.7488 -141.96441,-19.7039 -142.80052,-19.7904 -176.2718,-18.2291 -53.52578,2.4967 -88.42492,11.1906 -111.51668,27.7804 -6.52525,4.6879 -12.16017,8.1908 -12.52204,7.7843 -1.88697,-2.1201 -91.95415,-150.7195 -92.99301,-153.4268 -2.45244,-6.3909 23.96923,-26.7404 53.27615,-41.0323 62.49527,-30.4767 105.39226,-39.0504 197.38639,-39.4511 l 51.02605,-0.2222 105.53114,15.2177 c 110.20705,15.892 129.83007,17.3547 160.18164,11.9398 19.68513,-3.5119 29.84029,-8.1364 56.67906,-25.8108 17.51548,-11.5347 54.5051,-46.5135 54.5051,-51.5422 0,-1.2752 -6.00136,-3.026 -13.33636,-3.8907 -41.11827,-4.8473 -107.9183,-20.7118 -158.61108,-37.6688 l -31.6258,-10.579 51.92025,-128.8821 c 28.55615,-70.8852 51.92026,-129.0841 51.92026,-129.3308 0,-0.2467 -7.56693,-4.8923 -16.8154,-10.3234 -31.28665,-18.3729 -81.68271,-52.7518 -95.28672,-65.0021 -20.18579,-18.1772 -34.9957,-39.19 -52.48142,-74.4623 -25.48116,-51.4007 -33.9708,-93.64656 -31.85294,-158.50545 1.33646,-40.92887 6.25444,-66.72602 20.78179,-109.01019 22.09456,-64.30984 49.14634,-98.18017 126.94801,-158.94602 74.52475,-58.20646 125.15499,-101.69176 165.88155,-142.47231 21.71186,-21.74065 43.87298,-44.87059 49.24693,-51.39988 l 9.77084,-11.87142 -13.34777,-8.23871 c -28.42046,-17.54211 -49.91746,-47.3758 -57.59289,-79.9278 -4.91538,-20.84645 -3.15491,-56.44439 3.78203,-76.47597 32.46604,-93.75092 151.6525,-121.20968 221.3926,-51.00553 20.0069,20.14012 29.9155,36.87981 36.0672,60.93262 14.7399,57.63262 -6.2612,113.43604 -54.668,145.26168 l -14.6909,9.65869 7.4099,9.39376 c 14.7151,18.65484 84.6101,88.36408 114.1007,113.79757 32.6376,28.1475 72.929,60.37126 107.8505,86.25518 81.1089,60.11817 115.532,113.90303 137.1411,214.27827 6.8436,31.78899 7.35,86.32076 1.1499,123.84949 -10.4607,63.31862 -39.7824,120.36822 -81.4818,158.53462 -16.4943,15.0968 -54.5428,41.7134 -89.8601,62.8611 -11.162,6.6837 -20.2945,12.3835 -20.2945,12.6663 0,0.2827 23.3593,58.3997 51.9095,129.1489 l 51.9095,128.6349 -26.9763,8.8733 c -37.4532,12.3194 -109.1341,30.2905 -145.8438,36.5644 -16.9024,2.8887 -30.7316,6.0193 -30.7316,6.957 0,3.9901 24.7347,30.8414 36.775,39.9219 42.1182,31.7647 66.7218,40.7821 111.7733,40.966 17.1394,0.07 155.9415,-18.1329 215.5921,-28.2734 23.4324,-3.9834 129.7385,-1.5154 157.7481,3.6623 41.5786,7.686 85.9817,23.2769 117.2574,41.1714 20.7421,11.8678 41.1557,29.3056 39.4648,33.7119 -0.964,2.5123 -55.2632,91.3289 -88.781,145.2184 l -5.4116,8.7007 -12.4245,-8.2494 c -24.4105,-16.2076 -62.203,-25.4077 -114.1174,-27.7803 -31.8889,-1.4574 -34.0648,-1.2222 -183.0314,19.783 -143.3613,20.2148 -152.2382,21.202 -180.9105,20.1177 -37.669,-1.4245 -60.7059,-7.6908 -99.7327,-27.1284 -28.7801,-14.3343 -47.0002,-27.6371 -82.905,-60.5308 -22.8441,-20.9283 -32.0939,-36.7044 -41.6668,-71.0657 -2.922,-10.4882 -5.8346,-19.0696 -6.4724,-19.0696 -0.6378,0 -3.5504,8.5814 -6.4724,19.0696 -2.922,10.4883 -9.0441,26.8274 -13.6046,36.3092 -24.27547,50.4706 -120.32263,110.9327 -191.73296,120.6966 -17.53612,2.3977 -46.37785,2.7942 -60.71552,0.8347 z m 219.15734,-203.0381 c 7.75354,-17.5491 15.82626,-49.148 17.52181,-68.5854 l 1.65482,-18.9706 h -17.14125 -17.14127 l -13.88983,21.3777 c -8.55609,13.1686 -24.16848,31.8721 -40.65702,48.7067 l -26.76722,27.3289 h 46.03241 46.03238 z m 185.69664,-5.5817 c -16.8294,-15.5815 -37.5964,-40.8303 -55.5003,-67.4783 l -9.7394,-14.496 h -16.1492 -16.1491 v 13.7645 c 0,18.0693 5.1872,42.0965 14.0492,65.0766 l 7.1622,18.5722 h 46.5011 46.5011 z M 834.97169,1450.8372 c 131.56697,-22.4816 275.77691,-20.3955 405.88901,5.8717 21.6861,4.378 41.7776,8.606 44.6478,9.3955 2.8702,0.7895 5.2109,0.531 5.2015,-0.5745 -0.01,-1.1056 -9.2578,-24.3733 -20.5521,-51.7061 -15.0596,-36.4449 -21.7864,-50.1588 -25.2279,-51.4319 -7.2124,-2.6681 -58.471,-10.9278 -93.3649,-15.0447 -42.1815,-4.9767 -166.40513,-7.0017 -213.43032,-3.4791 -38.15697,2.8583 -107.20572,12.1683 -126.14785,17.0089 l -11.38794,2.9101 -20.39112,48.7067 c -11.21511,26.7886 -20.44162,49.8581 -20.50334,51.2654 -0.0733,1.6732 8.1157,0.7028 23.66127,-2.8037 13.07542,-2.9493 36.29807,-7.5026 51.60589,-10.1183 z m 53.34541,-196.1383 c 88.78217,-11.4746 191.7058,-10.9624 282.6593,1.4066 18.9679,2.5795 34.8791,4.2979 35.3583,3.8188 0.4792,-0.4792 -5.9075,-17.2227 -14.1927,-37.2078 -12.1345,-29.2704 -15.0639,-38.7497 -15.0639,-48.7463 v -12.4098 l -22.6138,-2.716 c -81.9685,-9.8446 -171.729,-9.8523 -258.60926,-0.023 l -24.93318,2.8211 v 12.1831 c 0,9.3114 -3.2803,20.7389 -13.9162,48.4796 -7.6539,19.963 -13.91619,36.8737 -13.91619,37.5793 0,0.7057 4.43578,0.5694 9.8573,-0.3029 5.42152,-0.8723 21.33817,-3.0698 35.37033,-4.8833 z m 158.7983,-224.86 c 12.5172,-6.4729 13.9945,-13.6921 13.9945,-68.38728 v -48.78118 l 49.2865,-0.051 c 43.8102,-0.0452 50.3915,-0.55245 59.2311,-4.56442 13.1863,-5.98478 17.5277,-16.01028 16.3048,-37.6525 -0.7979,-14.12101 -1.6813,-16.57251 -8.3921,-23.28731 l -7.5004,-7.50477 -54.465,-0.69899 -54.4649,-0.69901 v -52.88326 c 0,-51.23344 -0.1654,-53.12913 -5.2989,-60.7642 -12.3193,-18.32213 -51.3027,-18.32213 -63.62196,0 -5.13445,7.63637 -5.29889,9.5258 -5.29889,60.88335 v 53.00243 h -50.09568 c -55.17716,0 -61.5078,1.26217 -68.87373,13.73169 -6.19988,10.49557 -5.44838,36.7096 1.34191,46.80867 8.04945,11.9718 15.38206,13.40123 69.50066,13.54844 l 48.12684,0.1309 v 49.98155 c 0,60.69079 0.97098,63.67559 23.05825,70.88059 8.5007,2.773 28.5065,0.7848 37.167,-3.6937 z"
     id="path24" />
</svg>
