<?xml version="1.0" encoding="UTF-8" standalone="no"?>
<svg
   xmlns:dc="http://purl.org/dc/elements/1.1/"
   xmlns:cc="http://creativecommons.org/ns#"
   xmlns:rdf="http://www.w3.org/1999/02/22-rdf-syntax-ns#"
   xmlns:svg="http://www.w3.org/2000/svg"
   xmlns="http://www.w3.org/2000/svg"
   xmlns:sodipodi="http://sodipodi.sourceforge.net/DTD/sodipodi-0.dtd"
   xmlns:inkscape="http://www.inkscape.org/namespaces/inkscape"
   version="1.0"
   width="119pt"
   height="119pt"
   viewBox="0 0 119 119"
   preserveAspectRatio="xMidYMid meet"
   id="svg6"
   sodipodi:docname="W-_-B-Leopard-Diagram___.svg"
   inkscape:version="1.0.1 (3bc2e813f5, 2020-09-07, custom)">
  <metadata
     id="metadata12">
    <rdf:RDF>
      <cc:Work
         rdf:about="">
        <dc:format>image/svg+xml</dc:format>
        <dc:type
           rdf:resource="http://purl.org/dc/dcmitype/StillImage" />
        <dc:title></dc:title>
      </cc:Work>
    </rdf:RDF>
  </metadata>
  <defs
     id="defs10" />
  <sodipodi:namedview
     pagecolor="#ffffff"
     bordercolor="#666666"
     borderopacity="1"
     objecttolerance="10"
     gridtolerance="10"
     guidetolerance="10"
     inkscape:pageopacity="0"
     inkscape:pageshadow="2"
     inkscape:window-width="960"
     inkscape:window-height="1060"
     id="namedview8"
     showgrid="false"
     inkscape:zoom="4.6191589"
     inkscape:cx="77.083325"
     inkscape:cy="79.333333"
     inkscape:window-x="0"
     inkscape:window-y="20"
     inkscape:window-maximized="0"
     inkscape:current-layer="svg6" />
  <g
     transform="matrix(0.12719628,0,0,-0.13955042,-134.57374,146.30159)"
     fill="#000000"
     stroke="none"
     id="g4">
    <path
       d="M 1458,946 C 1308,893 1226,815 1165,670 l -37,-89 22,-30 c 13,-19 30,-31 44,-31 16,0 27,-10 39,-38 17,-38 76,-103 64,-71 -3,9 -9,38 -13,64 l -7,48 71,-6 c 93,-8 108,-16 115,-69 7,-51 3,-57 -21,-35 -10,10 -21,17 -23,17 -3,0 -2,-23 1,-52 12,-90 71,-119 140,-69 19,14 24,26 22,49 -4,37 31,122 50,122 40,-1 132,-31 149,-49 46,-49 83,-12 118,119 24,86 28,223 10,296 -12,47 -56,94 -89,94 -11,0 -24,8 -29,18 -10,16 -10,15 -11,-3 0,-15 -2,-17 -9,-6 -9,14 -70,12 -116,-4 -13,-4 -12,-1 5,9 24,15 21,15 -55,15 -59,1 -98,-6 -147,-23 z m 156,-20 c -10,-8 -21,-12 -24,-10 -5,6 21,24 34,24 6,0 1,-6 -10,-14 z m 141,-38 c -23,-43 -64,-98 -75,-98 -4,0 4,13 19,29 15,16 35,47 46,70 10,23 20,39 22,37 3,-2 -3,-19 -12,-38 z M 1409,779 c 20,-57 18,-59 -59,-58 -76,2 -86,11 -47,46 56,51 91,55 106,12 z"
       id="path2" />
  </g>
</svg>
