<?xml version="1.0" encoding="UTF-8" standalone="no"?>
<svg
   xmlns:dc="http://purl.org/dc/elements/1.1/"
   xmlns:cc="http://creativecommons.org/ns#"
   xmlns:rdf="http://www.w3.org/1999/02/22-rdf-syntax-ns#"
   xmlns:svg="http://www.w3.org/2000/svg"
   xmlns="http://www.w3.org/2000/svg"
   xmlns:sodipodi="http://sodipodi.sourceforge.net/DTD/sodipodi-0.dtd"
   xmlns:inkscape="http://www.inkscape.org/namespaces/inkscape"
   version="1.1"
   id="Layer_1"
   x="0px"
   y="0px"
   viewBox="0 0 512 512"
   style="enable-background:new 0 0 512 512;"
   xml:space="preserve"
   sodipodi:docname="bf.svg"
   inkscape:version="1.0.1 (3bc2e813f5, 2020-09-07, custom)"><metadata
   id="metadata55"><rdf:RDF><cc:Work
       rdf:about=""><dc:format>image/svg+xml</dc:format><dc:type
         rdf:resource="http://purl.org/dc/dcmitype/StillImage" /></cc:Work></rdf:RDF></metadata><defs
   id="defs53" /><sodipodi:namedview
   pagecolor="#ffffff"
   bordercolor="#666666"
   borderopacity="1"
   objecttolerance="10"
   gridtolerance="10"
   guidetolerance="10"
   inkscape:pageopacity="0"
   inkscape:pageshadow="2"
   inkscape:window-width="1920"
   inkscape:window-height="1060"
   id="namedview51"
   showgrid="false"
   inkscape:zoom="1.7246094"
   inkscape:cx="256"
   inkscape:cy="267.61097"
   inkscape:window-x="0"
   inkscape:window-y="20"
   inkscape:window-maximized="0"
   inkscape:current-layer="Layer_1" />
<g
   id="g6"
   transform="matrix(0.8,0,0,0.9,51.2,25.60005)">
	<g
   id="g4">
		<path
   d="m 495.304,189.217 h -22.261 v 283.826 c 0,5.882 -1.205,11.448 -3.076,16.696 h 25.337 c 9.217,0 16.696,-7.479 16.696,-16.696 v -267.13 c 0,-9.217 -7.479,-16.696 -16.696,-16.696 z"
   id="path2" />
	</g>
</g>
<g
   id="g12"
   transform="matrix(0.8,0,0,0.9,51.2,25.60005)">
	<g
   id="g10">
		<path
   d="M 38.957,473.043 V 189.217 H 16.696 C 7.479,189.217 0,196.696 0,205.913 v 267.13 c 0,9.217 7.479,16.696 16.696,16.696 h 25.337 c -1.87,-5.248 -3.076,-10.813 -3.076,-16.696 z"
   id="path8" />
	</g>
</g>
<g
   id="g18"
   transform="matrix(0.8,0,0,0.9,51.2,25.60005)">
	<g
   id="g16">
		<path
   d="m 422.957,22.261 h -66.783 c -9.217,0 -16.696,7.479 -16.696,16.696 V 89.044 H 306.087 V 38.957 c 0,-9.217 -7.479,-16.696 -16.696,-16.696 h -66.783 c -9.217,0 -16.696,7.479 -16.696,16.696 V 89.044 H 172.521 V 38.957 c 0,-9.217 -7.479,-16.696 -16.696,-16.696 H 89.044 c -9.217,0 -16.696,7.479 -16.696,16.696 v 434.087 c 0,9.217 7.479,16.696 16.696,16.696 h 333.913 c 9.217,0 16.696,-7.479 16.696,-16.696 V 38.957 C 439.652,29.739 432.174,22.261 422.957,22.261 Z M 155.826,205.913 c 0,-18.413 14.978,-33.391 33.391,-33.391 18.413,0 33.391,14.978 33.391,33.391 v 33.391 h -66.783 v -33.391 z m 83.478,250.435 H 172.521 V 372.87 c 0,-40.316 28.724,-74.04 66.783,-81.795 v 165.273 z m 100.174,0 H 272.695 V 291.074 c 38.058,7.756 66.783,41.48 66.783,81.795 z m 16.696,-217.044 h -66.783 v -33.391 c 0,-18.413 14.978,-33.391 33.391,-33.391 18.413,0 33.391,14.978 33.391,33.391 v 33.391 z"
   id="path14" />
	</g>
</g>
<g
   id="g20"
   transform="matrix(0.8,0,0,0.9,51.2,25.60005)">
</g>
<g
   id="g22"
   transform="matrix(0.8,0,0,0.9,51.2,25.60005)">
</g>
<g
   id="g24"
   transform="matrix(0.8,0,0,0.9,51.2,25.60005)">
</g>
<g
   id="g26"
   transform="matrix(0.8,0,0,0.9,51.2,25.60005)">
</g>
<g
   id="g28"
   transform="matrix(0.8,0,0,0.9,51.2,25.60005)">
</g>
<g
   id="g30"
   transform="matrix(0.8,0,0,0.9,51.2,25.60005)">
</g>
<g
   id="g32"
   transform="matrix(0.8,0,0,0.9,51.2,25.60005)">
</g>
<g
   id="g34"
   transform="matrix(0.8,0,0,0.9,51.2,25.60005)">
</g>
<g
   id="g36"
   transform="matrix(0.8,0,0,0.9,51.2,25.60005)">
</g>
<g
   id="g38"
   transform="matrix(0.8,0,0,0.9,51.2,25.60005)">
</g>
<g
   id="g40"
   transform="matrix(0.8,0,0,0.9,51.2,25.60005)">
</g>
<g
   id="g42"
   transform="matrix(0.8,0,0,0.9,51.2,25.60005)">
</g>
<g
   id="g44"
   transform="matrix(0.8,0,0,0.9,51.2,25.60005)">
</g>
<g
   id="g46"
   transform="matrix(0.8,0,0,0.9,51.2,25.60005)">
</g>
<g
   id="g48"
   transform="matrix(0.8,0,0,0.9,51.2,25.60005)">
</g>
</svg>
