<?xml version="1.0" encoding="UTF-8" standalone="no"?>
<svg
   xmlns:dc="http://purl.org/dc/elements/1.1/"
   xmlns:cc="http://creativecommons.org/ns#"
   xmlns:rdf="http://www.w3.org/1999/02/22-rdf-syntax-ns#"
   xmlns:svg="http://www.w3.org/2000/svg"
   xmlns="http://www.w3.org/2000/svg"
   xmlns:sodipodi="http://sodipodi.sourceforge.net/DTD/sodipodi-0.dtd"
   xmlns:inkscape="http://www.inkscape.org/namespaces/inkscape"
   height="100%"
   width="100%"
   version="1.1"
   viewBox="0 0 2048 2048"
   id="svg18"
   sodipodi:docname="bj.svg"
   inkscape:version="1.0.1 (3bc2e813f5, 2020-09-07, custom)">
  <metadata
     id="metadata24">
    <rdf:RDF>
      <cc:Work
         rdf:about="">
        <dc:format>image/svg+xml</dc:format>
        <dc:type
           rdf:resource="http://purl.org/dc/dcmitype/StillImage" />
      </cc:Work>
    </rdf:RDF>
  </metadata>
  <defs
     id="defs22" />
  <sodipodi:namedview
     pagecolor="#ffffff"
     bordercolor="#666666"
     borderopacity="1"
     objecttolerance="10"
     gridtolerance="10"
     guidetolerance="10"
     inkscape:pageopacity="0"
     inkscape:pageshadow="2"
     inkscape:window-width="960"
     inkscape:window-height="1060"
     id="namedview20"
     showgrid="false"
     inkscape:zoom="0.43115234"
     inkscape:cx="1024"
     inkscape:cy="1021.6806"
     inkscape:window-x="0"
     inkscape:window-y="20"
     inkscape:window-maximized="0"
     inkscape:current-layer="svg18" />
  <g
     fill-rule="nonzero"
     fill="#fff"
     id="g8">
    <path
       style="color:black;"
       d="m1060 1261q172 3 282 17t198 33q55-54 122-103t94-84q48-65 48-162 0-89-43-149-77-113-235-113-92 0-192 40-91 36-132 78-85 82-124 216-15 46-16 117t-2 110z"
       display="block"
       id="path2" />
    <path
       style="color:black;"
       d="m988 1260q0-40-2-110t-15-118q-41-134-124-216-43-42-132-78-102-40-193-40-158 0-234 113-43 60-43 150 0 98 48 161 25 36 96 89t120 98q87-19 196-33t283-16z"
       display="block"
       id="path4" />
    <path
       style="color:black;"
       d="m1024 1009q7-28 12-39 10-39 23-66 6-17 17-39t25-52q8-17 17-41t18-49q8-20 8-43 0-49-35-83t-85-35q-119 0-119 119 0 23 8 43 22 65 34 90 13 29 24 51t19 40q13 33 22 66 2 6 12 38z"
       display="block"
       id="path6" />
  </g>
  <g
     fill-rule="nonzero"
     id="g16">
    <path
       style="color:black;"
       d="m1133 865q0 29 6 82t21 84q37 81 106 150 20 20 86 54 65 32 139 32 56 0 111-19t84-60q25-34 25-110 0-60-49-112-32-33-69-66t-71-79q-58 20-161 31t-228 13zm-73-78q172-3 282-17t198-33q55 54 122 103t94 84q48 65 48 162 0 89-43 149-77 113-235 113-92 0-192-40-91-36-132-78-85-82-124-216-15-46-16-117t-2-110zm458-173q-184 51-490 51-308 0-496-52l15-101q189 49 481 49 291 0 474-48l16 101zm26-299l-30 118q-195 45-490 45-292 0-488-45l-32-119q190 58 521 58 159 0 295-16t224-41zm-1081 207l-33 187q-1 0-3 4-5 7-28 18t-55 40q-44 37-68 60t-45 50q-61 84-68 203-10 115 93 229 104 114 281 107 66-4 155-32 29-12 59-23t61-24q16-8 28-16-5 21-5 42 0 78 55 133t134 56q78 0 133-55t55-133q0-16-4-42 14 9 27 15 46 20 121 47 86 29 155 33 177 8 280-107 101-114 94-229-8-119-69-203-20-27-45-50t-67-60q-33-28-56-39t-27-19q-1-2-2-3t-1-2l-32-188 66-247q-50-45-224-74t-402-29q-232 0-408 30t-221 77l66 244zm525 266q0 40-2 110t-15 118q-41 134-124 216-43 42-132 78-102 40-193 40-158 0-234-113-43-60-43-150 0-98 48-161 25-36 96-89t120-98q87 19 196 33t283 16zm36 251q7 28 12 39 10 39 23 66 6 17 17 39t25 52q8 17 17 41t18 49q8 20 8 43 0 49-35 83t-85 35q-119 0-119-119 0-23 8-43 22-65 34-90 13-29 24-51t19-40q13-33 22-66 2-6 12-38zm35 520h-71v131h-83q-34 0-34 33v1q0 33 34 33h83v85q0 35 36 35 35 0 35-35v-85h86q33 0 33-33v-1q0-33-33-33l-85-1-1-130zm-147-694q-125-2-228-13t-161-31q-30 37-69 74t-70 71q-50 51-50 112 0 75 25 110 27 40 83 59t113 20q72 0 138-32 65-34 86-54 68-69 106-150 13-30 19-83t8-83zm112 345q-2 10-5 17-6 20-10 29-3 7-8 17t-10 23q-3 7-7 18t-8 22q-3 9-3 19 0 53 51 53 53 0 53-52 0-13-4-19-14-38-15-41-15-30-19-39-7-16-9-29-3-6-4-10t-2-8z"
       transform="translate(0,2048) scale(1,-1)"
       display="block"
       fill="#000"
       id="path10" />
    <path
       style="color:black;"
       d="m1518 1434q-184-51-490-51-308 0-496 52l15 101q189-49 481-49 291 0 474 48l16-101z"
       display="block"
       fill="#fff"
       id="path12" />
    <path
       style="color:black;"
       d="m1544 1733-30-118q-195-45-490-45-292 0-488 45l-32 119q190-58 521-58 159 0 295 16t224 41z"
       display="block"
       fill="#fff"
       id="path14" />
  </g>
  <path
     style="fill:#800000;stroke:#000000;stroke-width:2.31937"
     d="m 901.07361,1873.6552 c -157.02735,-6.8564 -299.56662,-25.7507 -392.87865,-52.078 -44.87133,-12.6602 -82.22543,-29.1351 -100.30271,-44.2382 l -9.38047,-7.8372 32.917,-121.7611 32.91697,-121.7611 -16.68999,-94.4302 c -12.03315,-68.0821 -17.79777,-95.6542 -20.66024,-98.8172 -2.18363,-2.4128 -10.4352,-7.8038 -18.33679,-11.9799 -23.95194,-12.6588 -40.23591,-24.6897 -81.5385,-60.242 -86.0223,-74.0461 -118.58918,-117.3569 -142.8849,-190.0233 -17.45281,-52.1999 -24.87734,-122.17408 -17.4589,-164.54543 11.37898,-64.99244 48.10618,-128.84277 107.31308,-186.56407 42.15466,-41.09692 96.33064,-69.07883 160.52323,-82.91028 32.82524,-7.07279 99.50329,-8.70341 137.58508,-3.36464 41.95058,5.88114 101.86668,21.86164 147.96526,39.4645 71.45013,27.28342 92.8104,36.14211 106.27824,44.07646 7.243,4.2671 13.46159,7.46889 13.81908,7.11507 0.35748,-0.35382 -0.55598,-8.35263 -2.02991,-17.77513 -7.34562,-46.95894 6.89508,-101.08626 36.3536,-138.17604 48.01908,-60.45854 122.00193,-86.54754 195.80321,-69.04724 44.122,10.46253 90.008,45.29988 115.6558,87.80764 18.5344,30.71834 27.4593,74.49521 23.1461,113.53305 -1.2473,11.28969 -1.8016,20.99301 -1.2317,21.56293 0.5699,0.56992 7.6844,-2.60802 15.81,-7.06209 16.319,-8.94529 87.392,-37.39874 130.7421,-52.34145 116.8484,-40.27742 211.8465,-45.03644 301.9153,-15.12473 27.915,9.27051 46.2614,18.18176 71.5026,34.73028 49.4271,32.40515 95.1871,85.81394 125.2178,146.14776 26.0323,52.30089 34.5079,95.0211 29.3412,147.89072 -8.8987,91.05919 -41.7188,166.43669 -97.3537,223.59149 -22.0121,22.6134 -82.1131,76.3146 -101.6829,90.8553 -8.0042,5.9472 -24.7548,16.6828 -37.2235,23.8568 -16.9123,9.7307 -23.6892,15.0326 -26.6817,20.8743 -2.3778,4.6418 -10.2722,45.3515 -19.3859,99.9695 l -15.3746,92.1389 32.8699,123.2212 c 18.0785,67.7717 32.5425,123.4564 32.1425,123.7438 -0.4002,0.2873 -4.3805,3.2208 -8.8453,6.5186 -61.2284,45.2261 -246.0618,81.1448 -474.3103,92.1728 -42.7381,2.0649 -224.14201,2.617 -265.56739,0.8082 z M 540.41223,1725.4971 c 92.22838,-24.2357 196.3134,-38.0326 341.66128,-45.2886 62.42348,-3.1162 273.08509,-1.6265 323.99669,2.2912 123.1295,9.475 243.7893,26.9646 313.901,45.4998 11.9134,3.1495 22.4847,5.7264 23.4916,5.7264 1.0069,0 -4.9206,-26.9922 -13.1722,-59.9826 l -15.003,-59.9827 -29.363,-6.1081 c -133.6397,-27.7999 -303.8595,-40.5701 -504.83287,-37.8735 -149.73143,2.009 -250.90384,9.6802 -358.34201,27.1705 -26.51028,4.3158 -86.32054,15.9801 -87.45169,17.0551 -0.26151,0.2485 -7.342,25.9828 -15.73442,57.1874 -8.39241,31.2045 -15.86583,58.7199 -16.60758,61.1453 -1.08915,3.5612 -0.51618,4.0897 2.9779,2.7464 2.3796,-0.9148 17.89484,-5.2288 34.4783,-9.5866 z m 28.60564,-193.4198 c 157.33149,-39.8385 435.44223,-54.6521 675.32193,-35.9711 92.725,7.2211 198.6518,23.6548 254.0811,39.4186 4.518,1.2849 5.1132,-1.0009 12.2175,-46.924 4.1074,-26.551 7.4497,-49.9868 7.4273,-52.0794 -0.03,-2.7795 -4.8846,-5.0892 -18.0159,-8.5711 -143.8093,-38.1325 -387.1531,-54.2742 -632.60699,-41.9626 -95.91443,4.8109 -187.47109,15.6257 -264.4077,31.2321 -60.71277,12.3155 -71.99196,15.625 -71.42668,20.9575 0.98244,9.2677 12.45861,88.1885 13.55022,93.184 1.38383,6.3326 1.64654,6.3405 23.85922,0.716 z m 980.46443,-227.7501 c 13.8751,-14.8162 65.114,-58.4032 96.9273,-82.4525 99.0872,-74.9051 122.4453,-100.9674 142.8498,-159.3879 11.0658,-31.6825 14.9196,-57.4742 14.9345,-99.94999 0.014,-40.2493 -3.4072,-63.83844 -13.6104,-93.83697 -23.4512,-68.94944 -82.7972,-128.28046 -152.2137,-152.17525 -58.7961,-20.23899 -135.1775,-22.6612 -210.1471,-6.6642 -66.7306,14.23896 -146.9951,47.35449 -194.782,80.3631 -39.1213,27.02288 -89.1724,87.88362 -117.2527,142.57596 -21.3088,41.50357 -42.0948,101.88395 -49.3607,143.38625 -3.3103,18.9079 -7.7206,111.2058 -7.9518,166.4145 l -0.085,20.2945 h 28.4122 c 120.9299,0.014 280.4224,15.8979 406.8093,40.512 21.4989,4.1869 41.2419,7.7428 43.8734,7.9019 2.6414,0.1596 7.8362,-2.9692 11.5969,-6.9849 z m -1007.55054,-0.8121 c 55.66337,-10.9023 123.7759,-21.546 185.18942,-28.9388 37.76586,-4.5461 110.67297,-9.1694 185.54543,-11.7659 41.45656,-1.4377 75.84352,-3.082 76.4155,-3.6539 2.27562,-2.2757 -4.74674,-163.3621 -8.02693,-184.1305 -15.65027,-99.08873 -80.85745,-219.04867 -148.7635,-273.67628 -59.72346,-48.04506 -166.93746,-89.9815 -258.24864,-101.01317 -66.96601,-8.09043 -131.49021,-0.70736 -180.88291,20.6972 -67.42874,29.22057 -121.94601,93.18724 -140.59489,164.96398 -4.9842,19.18346 -6.2384,30.26137 -7.25389,64.07084 -1.77685,59.15813 5.19344,97.20323 25.15725,137.31293 23.54008,47.2948 45.46597,69.1831 150.67614,150.4179 20.94932,16.1753 48.88724,38.8761 62.08427,50.4462 13.19701,11.57 25.19972,21.0324 26.67271,21.0274 1.47296,0 15.88649,-2.596 32.03004,-5.7579 z M 1035.5484,974.68764 c 12.1598,-41.36988 26.3082,-76.59576 55.185,-137.39659 11.5113,-24.23737 27.9861,-63.37667 36.6107,-86.97621 13.6575,-37.37149 15.8167,-45.46677 16.7333,-62.73577 1.824,-34.36447 -7.4359,-61.96329 -28.7006,-85.5416 -24.4884,-27.15264 -54.0366,-39.9982 -92.5365,-40.22862 -79.29291,-0.47457 -118.23724,38.36626 -118.07913,117.76533 0.0483,24.28836 0.5596,26.96035 10.65039,55.66478 17.62825,50.14548 25.67125,69.53138 52.44432,126.40543 20.33685,43.20162 28.69881,64.24187 40.32112,101.4556 8.0648,25.82278 15.1852,46.94631 15.823,46.94131 0.6378,0 5.8346,-15.9142 11.5484,-35.35366 z"
     id="path26" />
  <path
     style="fill:#800000;stroke:#000000;stroke-width:2.31937"
     d="m 514.4591,1214.5297 c -4.79953,-5.9284 -38.54266,-41.0466 -74.98472,-78.0405 -36.44207,-36.9938 -70.85132,-74.0259 -76.46501,-82.2934 -21.97522,-32.364 -29.41066,-61.02072 -27.07989,-104.36802 1.59903,-29.73872 7.73344,-57.30518 17.04292,-76.58656 8.10217,-16.78086 36.80597,-45.43769 56.39566,-56.30339 33.25869,-18.4474 85.95718,-31.54898 134.787,-33.50992 64.45627,-2.58849 112.55841,10.26078 178.78449,47.75775 35.96132,20.36116 51.11733,32.05175 73.14976,56.42401 48.55518,53.71174 87.57141,118.33633 97.91931,162.18863 6.24229,26.4536 18.6891,128.0788 16.00601,130.6852 -0.45279,0.4399 -29.52539,1.9873 -64.6058,3.4388 -139.75032,5.7824 -248.34873,18.8314 -307.81155,36.9862 l -14.41177,4.4 z"
     id="path28" />
  <path
     style="fill:#800000;stroke:#000000;stroke-width:2.31937"
     d="m 1022.344,825.69422 c -1.3788,-2.5513 -3.695,-9.0636 -5.1471,-14.47179 -1.452,-5.40818 -7.6933,-21.0639 -13.8695,-34.79048 -20.94237,-46.5449 -28.03955,-68.29041 -27.98314,-85.7395 0.1133,-35.05044 18.76017,-51.63448 54.83604,-48.76977 29.158,2.31538 44.8509,18.66389 44.8405,46.71392 -0.01,15.63595 -12.6264,52.48801 -29.1085,84.99613 -4.8162,9.49905 -11.5252,26.14258 -14.9091,36.98562 -5.3069,17.00555 -6.4968,19.07718 -8.6592,15.07587 z"
     id="path30" />
  <path
     style="fill:#800000;stroke:#000000;stroke-width:2.31937"
     d="m 1513.6714,1223.2842 c -10.6445,-4.2604 -50.4369,-13.5222 -78.7583,-18.3312 -60.2546,-10.2314 -151.841,-18.0364 -261.0727,-22.2486 l -39.188,-1.5112 1.3702,-29.3101 c 1.8567,-39.7184 7.3622,-79.0709 14.5279,-103.8438 12.2792,-42.4511 46.8569,-101.03349 87.4295,-148.12537 26.9883,-31.32483 33.0523,-37.01348 55.0664,-51.65786 42.2817,-28.12689 93.3709,-50.82336 134.7201,-59.8496 23.8626,-5.20903 78.2662,-6.95943 104.8107,-3.37222 99.1522,13.39942 157.9063,56.51987 172.3316,126.47651 5.5238,26.78844 5.5975,76.96393 0.1396,94.95544 -11.853,39.0717 -31.227,64.3644 -94.4646,123.3236 -39.5027,36.8302 -62.6873,61.3417 -84.7748,89.6272 -2.7349,3.5023 -5.3442,6.3017 -5.7985,6.2208 -0.4542,-0.081 -3.3068,-1.14 -6.339,-2.3536 z"
     id="path32" />
  <path
     style="fill:#800000;stroke:#000000;stroke-width:2.31937"
     d="m 989.20951,422.25012 v -65.97639 l -51.2206,-0.70538 -51.2206,-0.70538 -6.76355,-7.57453 c -5.99406,-6.71279 -6.76354,-9.28136 -6.76354,-22.57723 0,-13.1269 0.8057,-15.90443 6.44403,-22.21481 8.60081,-9.62598 18.05881,-11.19158 68.35552,-11.31498 l 41.16874,-0.10101 V 244.6186 c 0,-52.16857 1.52633,-59.30534 14.35649,-67.12766 9.3521,-5.70185 29.1632,-6.30021 39.0648,-1.17988 13.3101,6.8829 14.8706,13.48151 15.7599,66.64251 l 0.8051,48.12684 43.2855,0.18666 c 49.0159,0.21136 61.3409,2.39672 68.5811,12.16009 5.8891,7.94137 6.6964,29.89969 1.459,39.68574 -6.0847,11.36947 -12.0494,12.69357 -64.8199,14.38932 l -48.911,1.57171 v 64.57628 64.57629 H 1024 989.20951 Z"
     id="path34" />
</svg>
