<?xml version="1.0" encoding="UTF-8" standalone="no"?>
<svg
   xmlns:dc="http://purl.org/dc/elements/1.1/"
   xmlns:cc="http://creativecommons.org/ns#"
   xmlns:rdf="http://www.w3.org/1999/02/22-rdf-syntax-ns#"
   xmlns:svg="http://www.w3.org/2000/svg"
   xmlns="http://www.w3.org/2000/svg"
   xmlns:sodipodi="http://sodipodi.sourceforge.net/DTD/sodipodi-0.dtd"
   xmlns:inkscape="http://www.inkscape.org/namespaces/inkscape"
   height="100%"
   width="100%"
   version="1.1"
   viewBox="0 0 2048 2048"
   id="svg18"
   sodipodi:docname="bm.svg"
   inkscape:version="1.0.1 (3bc2e813f5, 2020-09-07, custom)">
  <metadata
     id="metadata24">
    <rdf:RDF>
      <cc:Work
         rdf:about="">
        <dc:format>image/svg+xml</dc:format>
        <dc:type
           rdf:resource="http://purl.org/dc/dcmitype/StillImage" />
      </cc:Work>
    </rdf:RDF>
  </metadata>
  <defs
     id="defs22" />
  <sodipodi:namedview
     pagecolor="#ffffff"
     bordercolor="#666666"
     borderopacity="1"
     objecttolerance="10"
     gridtolerance="10"
     guidetolerance="10"
     inkscape:pageopacity="0"
     inkscape:pageshadow="2"
     inkscape:window-width="960"
     inkscape:window-height="1060"
     id="namedview20"
     showgrid="false"
     inkscape:zoom="0.43115234"
     inkscape:cx="1024"
     inkscape:cy="1021.6806"
     inkscape:window-x="0"
     inkscape:window-y="20"
     inkscape:window-maximized="0"
     inkscape:current-layer="svg18" />
  <path
     style="color:black;"
     d="m490 683q4 9 13 27 17 42 17 50-2 28-29 28-20 0-47-57-4-8-12-14-27-28 8-47 32-19 50 13zm590 371q70 92 69 205-4 33-38 33-46 0-36-34 3-55-11-91-23-57-51-85-15-30 18-44 32-15 49 16zm-261 488q-5 36 2 78-60-12-113-56-32-17-15-47 17-31 47-10 21 11 38 20t41 15zm937-1268q-1 0 2 54t3 118q1 125 0 258t-36 267q-34 128-75 218t-89 157q-72 108-196 183t-259 98q4-23 3-47t0-46q97-33 183-82t126-106q48-66 89-156t75-219q34-133 35-266t1-259q0-63-3-117t0-55h141zm-677 1423q157-10 291-81t228-182q66-78 124-188t94-233q40-143 50-300t11-292v-218t-155 0-404 0h-671q-9 0-9 49t7 79q4 24 19 68t50 107q16 32 76 93t138 143q45 46 70 116t22 127q-37-30-81-49-212-76-307-220-7-9-45-81-20-38-34-52-19-19-55-21-56-3-87 54-42-12-75-10-56 21-81 45-51 51-66 102t-16 110q0 84 104 222 122 159 130 242 0 36 7 81 6 31 25 60 13 20 17 27t17 23q9 12 15 18t15 18q11 13 28 30-53 146-43 301 199-71 334-223 33 113 130 183 80-56 127-148zm-675-836q29 20 6 48-24 23-53 4-61-40-65-105 1-33 39-31 36 3 35 37 8 32 38 47zm252 498q22 11 22 11 30 12 19 44-12 30-46 20-118-43-163-158-7-33 24-45 31-10 42 22 8 17 12 22 11-9 29-12 61-10 71 54 3 22-10 42z"
     fill-rule="nonzero"
     transform="translate(0,2048) scale(1,-1)"
     display="block"
     fill="#000"
     id="path2" />
  <g
     fill-rule="nonzero"
     fill="#fff"
     id="g16">
    <path
       style="color:black;"
       d="m490 1365q4-9 13-27 17-42 17-50-2-28-29-28-20 0-47 57-4 8-12 14-27 28 8 47 32 19 50-13z"
       display="block"
       id="path4" />
    <path
       style="color:black;"
       d="m1080 994q70-92 69-205-4-33-38-33-46 0-36 34 3 55-11 91-23 57-51 85-15 30 18 44 32 15 49-16z"
       display="block"
       id="path6" />
    <path
       style="color:black;"
       d="m819 506q-5-36 2-78-60 12-113 56-32 17-15 47 17 31 47 10 21-11 38-20t41-15z"
       display="block"
       id="path8" />
    <path
       style="color:black;"
       d="m1756 1774q-1 0 2-54t3-118q1-125 0-258t-36-267q-34-128-75-218t-89-157q-72-108-196-183t-259-98q4 23 3 47t0 46q97 33 183 82t126 106q48 66 89 156t75 219q34 133 35 266t1 259q0 63-3 117t0 55h141z"
       display="block"
       id="path10" />
    <path
       style="color:black;"
       d="m404 1187q29-20 6-48-24-23-53-4-61 40-65 105 1 33 39 31 36-3 35-37 8-32 38-47z"
       display="block"
       id="path12" />
    <path
       style="color:black;"
       d="m656 689q22-11 22-11 30-12 19-44-12-30-46-20-118 43-163 158-7 33 24 45 31 10 42-22 8-17 12-22 11 9 29 12 61 10 71-54 3-22-10-42z"
       display="block"
       id="path14" />
  </g>
  <path
     style="fill:#800000;stroke:#000000;stroke-width:2.31937"
     d="m 646.52676,1843.1458 c -8.5627,-5.4372 -9.59194,-76.8371 -1.71104,-118.6973 14.85072,-78.881 61.60013,-180.3559 106.85307,-231.9366 7.27455,-8.2917 49.97649,-53.1715 94.89323,-99.7327 112.0609,-116.1638 113.53936,-117.9563 136.78179,-165.8347 22.21009,-45.7519 34.85379,-93.2221 37.62729,-141.2704 1.1896,-20.6084 0.8939,-24.9519 -1.5941,-23.4143 -1.68,1.0383 -10.5863,7.2916 -19.7919,13.8963 -22.0285,15.8048 -50.8805,30.512 -88.87373,45.3031 -112.58585,43.8307 -207.27402,111.2231 -264.11315,187.9771 -17.09256,23.0813 -25.0751,36.42 -57.19215,95.5669 -22.00203,40.5192 -32.26377,55.3378 -45.00156,64.9855 -20.03744,15.1766 -60.5027,19.0581 -84.41664,8.0975 -15.60891,-7.1542 -31.40414,-21.113 -41.24667,-36.4513 l -7.11813,-11.0926 -17.94291,4.3098 c -9.86859,2.3704 -26.29262,4.9396 -36.49783,5.7093 -17.61162,1.3283 -19.54231,0.9794 -37.97679,-6.8621 -30.93908,-13.1606 -51.03797,-26.2339 -69.87372,-45.4494 -42.54958,-43.4075 -63.70709,-89.2041 -71.81432,-155.4461 -10.9559,-89.5178 11.70092,-148.1219 107.62585,-278.38477 53.11545,-72.12903 73.59509,-104.18311 95.42341,-149.35376 20.19933,-41.79965 25.93679,-63.09041 28.72773,-106.60373 4.17516,-65.09446 9.49544,-83.38373 37.13734,-127.6649 14.50854,-23.24208 36.92655,-51.65821 74.82012,-94.83884 l 10.9915,-12.52506 -7.0169,-20.65407 C 509.2041,395.61689 497.57758,341.48422 491.64879,286.44168 c -3.86009,-35.8371 -4.66807,-120.60703 -1.14954,-120.60703 4.47169,0 50.45363,19.17056 80.16092,33.4203 83.04204,39.83286 145.11059,83.48569 212.69941,149.59156 21.39782,20.92832 39.23866,37.62775 39.64629,37.10985 0.40765,-0.5179 3.652,-9.29135 7.20966,-19.49656 9.22205,-26.4537 26.344,-59.45595 42.71766,-82.33749 15.63343,-21.84708 46.58047,-54.28263 66.32602,-69.51622 l 12.836,-9.9029 13.33858,9.94597 c 19.66669,14.66454 58.19001,53.97364 74.25621,75.77087 7.7245,10.47983 19.4718,28.45816 26.1052,39.95185 13.6281,23.61341 8.9832,21.3292 52.1391,25.64025 128.2088,12.80739 263.4068,69.69004 374.5776,157.59814 31.7525,25.1082 97.964,91.93687 122.7607,123.90488 92.3068,119.0023 169.3396,278.62676 207.7796,430.55285 39.0479,154.3288 52.0552,312.1921 52.124,632.607 l 0.031,144.3805 -612.8924,-0.035 c -337.09079,-0.019 -614.19542,-0.863 -615.78804,-1.8742 z m 1111.35584,-85.6464 c 2.9418,-39.7741 4.1607,-442.0892 1.4529,-479.5288 -6.0954,-84.2788 -20.2578,-159.3935 -47.6658,-252.8109 -36.4937,-124.38556 -78.0396,-216.41494 -139.2586,-308.47567 -31.8219,-47.85348 -54.1376,-74.94214 -91.0505,-110.52481 -89.7043,-86.4715 -222.0929,-155.26839 -348.508,-181.1051 -13.7994,-2.82033 -25.439,-4.63326 -25.8657,-4.02872 -0.4268,0.60455 -0.3941,21.97347 0.072,47.48649 l 0.8483,46.38732 30.5264,11.27239 c 57.6784,21.29874 119.8255,51.00267 167.369,79.99588 81.8823,49.93393 127.6673,105.3275 187.0469,226.30124 57.0584,116.24467 100.631,266.51098 116.7398,402.59358 5.5559,46.9347 9.477,323.5775 6.0654,427.923 -1.4182,43.3721 -2.5689,86.4253 -2.5572,95.6738 l 0.021,16.8154 h 71.7171 71.7171 z M 480.18589,1378.4841 c 9.76399,-8.5729 19.03475,-26.0498 31.78758,-59.9246 9.89216,-26.2763 10.67564,-38.364 3.2238,-49.737 -4.49393,-6.8586 -19.33535,-11.8195 -28.50018,-9.5265 -9.76748,2.4438 -24.63995,19.8465 -36.41038,42.6049 -5.72825,11.0757 -13.75386,23.2687 -17.83469,27.0957 -7.80991,7.324 -13.80649,18.7992 -13.80649,26.4203 0,12.0907 25.80559,30.1017 43.40739,30.2962 7.75693,0.086 11.50287,-1.4077 18.13297,-7.229 z M 348.3039,1267.6768 c 11.94498,-5.4234 15.95324,-11.4301 19.06044,-28.5638 3.98886,-21.9953 12.36213,-34.2897 32.81146,-48.1765 16.26489,-11.0453 21.80555,-20.1112 20.09324,-32.8776 -3.50872,-26.1593 -33.19401,-39.5572 -59.35362,-26.7882 -15.57755,7.6037 -48.87674,41.6499 -56.6134,57.8835 -13.70889,28.7648 -16.94304,60.8151 -7.23536,71.7021 10.35867,11.6169 33.80035,14.7374 51.23724,6.8205 z m 719.0442,-256.6776 c 2.7931,-1.737 12.0307,-13.12975 20.5279,-25.31726 39.6496,-56.86925 61.3698,-121.72451 61.3698,-183.24708 0,-20.67636 -0.6526,-24.57844 -5.2648,-31.48259 -9.5869,-14.35063 -30.7252,-19.82779 -52.8265,-13.6879 -17.2897,4.80318 -17.2638,4.73562 -17.5022,45.62919 -0.1417,24.29257 -1.4621,42.35559 -3.9025,53.38067 -6.6164,29.89189 -28.1373,73.04339 -49.5206,99.29353 -8.8161,10.82272 -11.0889,15.49974 -11.9655,24.62306 -1.3415,13.96128 2.7373,20.92758 16.3501,27.92428 17.4699,8.9793 31.4189,9.9207 42.7343,2.8841 z M 542.4963,815.02779 c 3.40378,-2.67743 9.89188,-12.67174 14.41799,-22.2096 6.61353,-13.93672 8.98909,-17.00986 12.09918,-15.65215 37.27613,16.27309 70.1407,12.32634 85.05764,-10.21467 12.52348,-18.92426 16.49927,-48.9123 8.97717,-67.71187 -2.07316,-5.18135 -3.37781,-9.77548 -2.89921,-10.2092 0.4786,-0.4337 7.13247,-3.93879 14.78638,-7.78908 20.98131,-10.55457 25.56704,-16.53506 25.26364,-32.9474 -0.64283,-34.77309 -25.05024,-45.74327 -65.08212,-29.25186 -60.87853,25.0793 -106.83164,67.93039 -136.68308,127.45638 -12.08471,24.0978 -12.89948,26.75484 -12.01719,39.18919 0.76822,10.82692 2.22882,14.70172 7.75638,20.5769 8.84884,9.40533 18.18686,13.42827 31.43033,13.5406 7.46255,0.0633 12.57838,-1.38346 16.89289,-4.77724 z M 758.57486,533.02654 c 19.05654,-9.80257 40.38176,-19.59809 47.38938,-21.76783 l 12.74113,-3.94497 0.18393,-30.99776 c 0.10112,-17.04876 1.00704,-34.91168 2.01302,-39.69537 1.64606,-7.82739 1.35108,-8.69762 -2.94807,-8.69762 -16.80894,0 -66.56599,22.1544 -92.68541,41.26831 -8.20534,6.00459 -18.49126,13.30627 -22.85761,16.22596 -9.42151,6.3 -17.02683,17.92793 -17.00735,26.0029 0.007,3.18913 2.55613,11.25862 5.66317,17.9322 6.07962,13.05831 16.62128,21.47331 26.91886,21.48834 3.26739,0.005 21.53239,-8.0116 40.58891,-17.81416 z"
     id="path26" />
</svg>
