<?xml version="1.0" encoding="UTF-8" standalone="no"?>
<svg
   xmlns:dc="http://purl.org/dc/elements/1.1/"
   xmlns:cc="http://creativecommons.org/ns#"
   xmlns:rdf="http://www.w3.org/1999/02/22-rdf-syntax-ns#"
   xmlns:svg="http://www.w3.org/2000/svg"
   xmlns="http://www.w3.org/2000/svg"
   xmlns:sodipodi="http://sodipodi.sourceforge.net/DTD/sodipodi-0.dtd"
   xmlns:inkscape="http://www.inkscape.org/namespaces/inkscape"
   height="100%"
   width="100%"
   version="1.1"
   viewBox="0 0 2048 2048"
   id="svg12"
   sodipodi:docname="bs.svg"
   inkscape:version="1.0.1 (3bc2e813f5, 2020-09-07, custom)">
  <metadata
     id="metadata18">
    <rdf:RDF>
      <cc:Work
         rdf:about="">
        <dc:format>image/svg+xml</dc:format>
        <dc:type
           rdf:resource="http://purl.org/dc/dcmitype/StillImage" />
      </cc:Work>
    </rdf:RDF>
  </metadata>
  <defs
     id="defs16" />
  <sodipodi:namedview
     pagecolor="#ffffff"
     bordercolor="#666666"
     borderopacity="1"
     objecttolerance="10"
     gridtolerance="10"
     guidetolerance="10"
     inkscape:pageopacity="0"
     inkscape:pageshadow="2"
     inkscape:window-width="960"
     inkscape:window-height="1060"
     id="namedview14"
     showgrid="false"
     inkscape:zoom="0.43115234"
     inkscape:cx="1024"
     inkscape:cy="1019.3612"
     inkscape:window-x="0"
     inkscape:window-y="20"
     inkscape:window-maximized="0"
     inkscape:current-layer="svg12"
     inkscape:document-rotation="0" />
  <path
     style="color:black;"
     d="m1588 793q-83 30-233 49t-333 20q-178 0-326-18t-233-49l50-91q84 25 218 36t293 11q159 0 294-11t219-37l51 90zm226 668q-57 0-97 39t-40 97q0 56 40 96t97 41q56 0 96-40t40-97q0-57-40-96t-96-40zm-1578 0q-57 0-96 39t-40 97q0 56 39 96t97 41q57 0 97-40t40-97q0-57-40-96t-97-40zm1208 110q-57 0-96 39t-40 97q0 56 39 96t97 40q57 0 97-40t40-96q0-57-40-96t-97-40zm-840 0q-57 0-97 39t-40 97q0 56 40 96t97 40q56 0 96-40t40-96q0-57-40-96t-96-40zm1036-1288q-49-43-220-72t-394-29q-227 0-399 30t-217 75l63 240-28 157-88 153-85 622 49 19 274-462 6 550 68 12 209-553 112 595h69l112-593 207 551 69-12 6-550 275 463 47-22-83-619-89-153-28-159 65-243zm-96 32l-30 118q-195 45-490 45-292 0-488-45l-32-119q190 58 521 58 159 0 295-16t224-41zm-26 299q-184 51-490 51-308 0-496-52l15-101q189 49 481 49 291 0 474-48l16 101zm-494 1007q-57 0-96 40t-40 97q0 56 39 96t97 40q56 0 96-40t41-96q0-57-40-97t-97-40z"
     fill-rule="nonzero"
     transform="translate(0,2048) scale(1,-1)"
     display="block"
     fill="#000"
     id="path2" />
  <g
     fill-rule="nonzero"
     fill="#fff"
     id="g10">
    <path
       style="color:black;"
       d="m1588 1255q-83-30-233-49t-333-20q-178 0-326 18t-233 49l50 91q84-25 218-36t293-11 294 11 219 37l51-90z"
       display="block"
       id="path4" />
    <path
       style="color:black;"
       d="m1544 1733-30-118q-195-45-490-45-292 0-488 45l-32 119q190-58 521-58 159 0 295 16t224 41z"
       display="block"
       id="path6" />
    <path
       style="color:black;"
       d="m1518 1434q-184-51-490-51-308 0-496 52l15 101q189-49 481-49 291 0 474 48l16-101z"
       display="block"
       id="path8" />
  </g>
  <path
     style="fill:#800000;stroke:#000000;stroke-width:2.31937"
     d="m 972.97395,1864.3033 c -222.07649,-2.8778 -440.23546,-36.2848 -525.90799,-80.5329 -11.19575,-5.7824 -23.79882,-13.4065 -28.00684,-16.9426 l -7.65095,-6.4292 31.45281,-119.613 31.45281,-119.6131 -14.02118,-78.6927 -14.02118,-78.6927 -44.08789,-76.968 -44.08789,-76.968 -41.43251,-303.40799 C 293.87526,739.5687 274.8829,600.05109 274.4579,596.40396 c -0.74742,-6.41391 -0.0129,-6.92632 22.42092,-15.64176 12.75651,-4.95584 23.26358,-9.0169 23.34903,-9.02458 0.0855,-0.008 61.66462,103.80977 136.84258,230.70545 75.17798,126.89568 137.26835,230.74533 137.97864,230.77693 0.71028,0.032 2.58187,-123.3199 4.15906,-274.11444 1.57719,-150.79454 3.34682,-274.65107 3.93249,-275.23673 1.05283,-1.05285 57.85947,-11.78365 62.70887,-11.84574 1.38098,-0.0176 49.39185,124.15656 106.69083,275.94276 57.29896,151.78619 104.71777,275.98825 105.37507,276.00455 0.65734,0.016 26.14401,-132.78308 56.63709,-295.1097 30.49305,-162.32661 55.89884,-296.44394 56.4573,-298.0385 0.74781,-2.13521 9.67662,-2.89921 33.88242,-2.89921 h 32.8671 l 55.3779,293.97961 c 30.4579,161.68879 56.1033,295.3948 56.9899,297.1245 2.0142,3.9295 -9.3374,33.3098 107.8542,-279.14941 54.5431,-145.42424 99.903,-265.22577 100.7997,-266.22564 1.6408,-1.82947 60.2907,7.01023 64.7347,9.7568 1.5819,0.97768 3.3513,93.60134 5.2661,275.6705 1.586,150.80897 3.4634,274.17675 4.1721,274.15075 0.7087,-0.026 62.1132,-102.57107 136.4547,-227.87773 74.3414,-125.30666 136.0993,-229.32449 137.2398,-231.15073 1.7124,-2.74206 5.8424,-1.57994 23.7103,6.67159 11.9002,5.49562 21.9991,10.30934 22.4419,10.69715 0.4429,0.3878 -17.7452,139.33076 -40.418,308.76215 l -41.2231,308.05707 -44.5426,76.6404 -44.5425,76.6404 -14.201,80.2162 -14.2009,80.2161 32.4163,121.1469 32.4164,121.1468 -5.1552,4.2123 c -9.9229,8.1079 -40.1524,22.7849 -63.7918,30.9723 -127.8329,44.274 -346.2226,67.9667 -596.58425,64.7223 z M 540.41223,1725.4971 c 92.22838,-24.2357 196.3134,-38.0326 341.66128,-45.2886 62.42348,-3.1162 273.08509,-1.6265 323.99669,2.2912 123.1295,9.475 243.7893,26.9646 313.901,45.4998 11.9134,3.1495 22.4847,5.7264 23.4916,5.7264 1.0069,0 -4.9206,-26.9922 -13.1722,-59.9826 l -15.003,-59.9827 -29.363,-6.1081 c -133.6397,-27.7999 -303.8595,-40.5701 -504.83287,-37.8735 -149.73143,2.009 -250.90384,9.6802 -358.34201,27.1705 -26.51028,4.3158 -86.32054,15.9801 -87.45169,17.0551 -0.26151,0.2485 -7.342,25.9828 -15.73442,57.1874 -8.39241,31.2045 -15.86583,58.7199 -16.60758,61.1453 -1.08915,3.5612 -0.51618,4.0897 2.9779,2.7464 2.3796,-0.9148 17.89484,-5.2288 34.4783,-9.5866 z m 28.60564,-193.4198 c 157.33149,-39.8385 435.44223,-54.6521 675.32193,-35.9711 92.725,7.2211 198.6518,23.6548 254.0811,39.4186 4.518,1.2849 5.1132,-1.0009 12.2175,-46.924 4.1074,-26.551 7.4497,-49.9868 7.4273,-52.0794 -0.03,-2.7795 -4.8846,-5.0892 -18.0159,-8.5711 -143.8093,-38.1325 -387.1531,-54.2742 -632.60699,-41.9626 -95.91443,4.8109 -187.47109,15.6257 -264.4077,31.2321 -60.71277,12.3155 -71.99196,15.625 -71.42668,20.9575 0.98244,9.2677 12.45861,88.1885 13.55022,93.184 1.38383,6.3326 1.64654,6.3405 23.85922,0.716 z m 994.88383,-231.4929 25.9246,-45.8075 -7.3336,-3.0793 c -4.0334,-1.6935 -20.4497,-6.677 -36.4805,-11.0742 -211.5733,-58.0346 -599.01329,-72.6239 -883.83326,-33.2812 -69.33635,9.5775 -133.15164,22.8993 -176.85165,36.9187 -12.4376,3.9901 -22.61381,8.1723 -22.61381,9.2938 0,2.4395 45.76449,86.1169 48.75687,89.1488 1.24791,1.2644 13.97202,-0.8076 31.7478,-5.1699 72.05727,-17.6834 159.80841,-28.1769 297.55195,-35.5821 70.04566,-3.7656 297.6438,-3.7718 366.4598,-0.01 109.3685,5.9787 183.2291,13.2363 241.5166,23.7316 29.8347,5.3721 69.8771,14.5925 78.5559,18.0887 3.1891,1.2847 6.8956,2.402 8.2366,2.4829 1.341,0.081 14.1043,-20.4664 28.3627,-45.6605 z"
     id="path20" />
  <path
     style="fill:#800000;stroke:#000000;stroke-width:2.31937"
     d="M 212.22197,584.03862 C 159.95644,575.29941 115.59454,531.2298 104.10069,476.62967 89.791778,408.65699 132.62046,339.9277 201.72681,319.96423 c 18.32036,-5.29239 51.37664,-5.29239 69.69701,0 42.93201,12.40222 80.08667,47.28082 93.32521,87.6082 24.50651,74.65192 -19.21659,153.86687 -95.72851,173.43534 -16.76357,4.28739 -41.4162,5.60289 -56.79855,3.03085 z"
     id="path22" />
  <path
     style="fill:#800000;stroke:#000000;stroke-width:2.31937"
     d="m 584.20481,474.41394 c -41.33884,-6.41437 -78.07291,-31.09391 -98.54308,-66.20556 -11.41732,-19.58366 -16.36937,-38.95516 -16.60157,-64.94224 -0.35598,-39.83857 11.24632,-67.99056 39.77632,-96.51382 24.0432,-24.03751 46.23083,-35.10604 78.66924,-39.24497 79.29708,-10.11777 151.42286,54.02749 151.17202,134.44524 -0.24726,79.2663 -76.40779,144.57435 -154.47293,132.46135 z"
     id="path24" />
  <path
     style="fill:#800000;stroke:#000000;stroke-width:2.31937"
     d="m 995.00793,422.88932 c -35.85147,-6.78735 -74.71687,-38.30236 -91.45505,-74.15868 -25.55597,-54.74567 -16.2808,-110.76791 25.33626,-153.03166 18.5394,-18.82748 34.87462,-28.69445 59.28195,-35.80808 18.35341,-5.3492 53.20101,-5.36003 71.77911,-0.0223 45.9798,13.21058 83.2912,52.30562 96.2168,100.81645 1.4939,5.60644 2.6966,19.7091 2.6727,31.33924 -0.053,25.81149 -7.532,51.85091 -20.3803,70.95646 -32.2376,47.93774 -86.6509,70.66198 -143.45147,59.90857 z"
     id="path26" />
  <path
     style="fill:#800000;stroke:#000000;stroke-width:2.31937"
     d="m 1423.8636,474.41983 c -42.836,-6.65252 -81.8371,-35.18156 -99.7976,-73.00125 -26.2041,-55.17834 -17.1123,-112.24608 24.6452,-154.69355 27.9282,-28.38963 55.9991,-39.96858 96.2537,-39.70358 39.4797,0.2599 70.115,13.72075 97.6526,42.9076 24.4541,25.91873 36.3665,55.23993 36.507,89.85804 0.1605,39.56274 -10.7817,66.09711 -38.8378,94.18027 -26.4784,26.50399 -52.0808,38.26786 -89.5234,41.1345 -8.2917,0.63483 -20.3966,0.32791 -26.8997,-0.68203 z"
     id="path28" />
  <path
     style="fill:#800000;stroke:#000000;stroke-width:2.31937"
     d="m 1778.236,580.94319 c -81.9756,-21.47526 -123.3042,-112.78754 -85.8307,-189.6357 11.0434,-22.64721 39.3273,-50.5201 62.2876,-61.38272 21.9848,-10.40105 37.8411,-14.02897 61.2766,-14.02007 33.0284,0.0126 62.8423,12.07571 87.9937,35.60367 30.3501,28.39099 43.9677,58.83878 44.0305,98.44859 0.061,38.52064 -11.5609,67.311 -37.996,94.12435 -34.7796,35.27722 -84.6034,49.21603 -131.7617,36.86188 z"
     id="path30" />
</svg>
