<?xml version="1.0" encoding="UTF-8" standalone="no"?>
<svg
   xmlns:dc="http://purl.org/dc/elements/1.1/"
   xmlns:cc="http://creativecommons.org/ns#"
   xmlns:rdf="http://www.w3.org/1999/02/22-rdf-syntax-ns#"
   xmlns:svg="http://www.w3.org/2000/svg"
   xmlns="http://www.w3.org/2000/svg"
   xmlns:sodipodi="http://sodipodi.sourceforge.net/DTD/sodipodi-0.dtd"
   xmlns:inkscape="http://www.inkscape.org/namespaces/inkscape"
   height="100%"
   width="100%"
   version="1.1"
   viewBox="0 0 2048 2048"
   id="svg16"
   sodipodi:docname="bu.svg"
   inkscape:version="1.0.1 (3bc2e813f5, 2020-09-07, custom)">
  <metadata
     id="metadata22">
    <rdf:RDF>
      <cc:Work
         rdf:about="">
        <dc:format>image/svg+xml</dc:format>
        <dc:type
           rdf:resource="http://purl.org/dc/dcmitype/StillImage" />
      </cc:Work>
    </rdf:RDF>
  </metadata>
  <defs
     id="defs20" />
  <sodipodi:namedview
     pagecolor="#ffffff"
     bordercolor="#666666"
     borderopacity="1"
     objecttolerance="10"
     gridtolerance="10"
     guidetolerance="10"
     inkscape:pageopacity="0"
     inkscape:pageshadow="2"
     inkscape:window-width="960"
     inkscape:window-height="1060"
     id="namedview18"
     showgrid="false"
     inkscape:zoom="0.43115234"
     inkscape:cx="1024"
     inkscape:cy="1019.3612"
     inkscape:window-x="0"
     inkscape:window-y="20"
     inkscape:window-maximized="0"
     inkscape:current-layer="svg16"
     inkscape:document-rotation="0" />
  <path
     style="color:black;"
     d="m1161 1706h170v137h274v-375l-222-171v-478l170-170v-205h153v-239h-1365v239h153v205l171 170v478l-222 171v375h273v-137h171v137h274v-137zm-597-1246v-102h920v102h-920zm460 1092h-512v-46l73-55h879l71 55v46h-511zm0-169h-350l60-47v-57h580v57l60 47h-350zm0-546h-290v-46l-60-58h700l-60 58v46h-290zm0-172h-414l-46-43v-58h920v58l-46 43h-414z"
     fill-rule="nonzero"
     transform="translate(0,2048) scale(1,-1)"
     display="block"
     fill="#000"
     id="path2" />
  <g
     fill-rule="nonzero"
     fill="#fff"
     id="g14">
    <path
       style="color:black;"
       d="m564 1588v102h920v-102h-920z"
       display="block"
       id="path4" />
    <path
       style="color:black;"
       d="m1024 496h-512v46l73 55h879l71-55v-46h-511z"
       display="block"
       id="path6" />
    <path
       style="color:black;"
       d="m1024 665h-350l60 47v57h580v-57l60-47h-350z"
       display="block"
       id="path8" />
    <path
       style="color:black;"
       d="m1024 1211h-290v46l-60 58h700l-60-58v-46h-290z"
       display="block"
       id="path10" />
    <path
       style="color:black;"
       d="m1024 1383h-414l-46 43v58h920v-58l-46-43h-414z"
       display="block"
       id="path12" />
  </g>
  <path
     style="fill:#800000;stroke:#000000;stroke-width:2.31937"
     d="m 342.10646,1724.4485 v -118.2877 h 76.53907 76.53907 v -102.6437 -102.6437 l 85.81653,-85.793 85.81654,-85.793 V 989.92246 750.55756 L 555.63291,665.19949 444.44816,579.84145 444.30335,392.55266 444.15855,205.26387 h 135.6829 135.6829 v 68.42129 68.4213 h 85.81653 85.81654 v -68.4213 -68.42129 H 1024 1160.8426 v 68.42129 68.4213 h 85.8165 85.8166 v -68.4213 -68.42129 h 135.6829 135.6828 l -0.1329,187.28879 -0.1328,187.28879 -111.1967,85.4208 -111.1966,85.42079 v 239.30216 239.3022 l 85.8165,85.793 85.8165,85.793 v 102.6437 102.6437 h 76.5391 76.5391 v 118.2877 118.2876 H 1024 342.10648 v -118.2876 z m 1143.44734,-84.6569 v -52.1857 H 1024 562.44621 v 52.1857 52.1857 H 1024 1485.5538 Z m 0,-184.185 v -29.9472 l -23.5741,-22.2385 -23.574,-22.2386 H 1024 609.59432 l -23.57406,22.2386 -23.57405,22.2385 v 29.9472 29.9472 H 1024 1485.5538 Z m -111.3296,-141.3421 c 0,-1.0866 -13.0464,-14.2258 -28.992,-29.1982 l -28.9921,-27.2226 v -24.1472 -24.1472 H 1024 731.75991 v 24.1472 24.1472 l -28.99207,27.2226 c -15.94564,14.9724 -28.99208,28.1116 -28.99208,29.1982 0,1.0866 157.60091,1.9756 350.22424,1.9756 192.6233,0 350.2242,-0.889 350.2242,-1.9756 z m -57.9841,-572.7251 v -29.64971 l 26.6947,-20.58539 c 14.6821,-11.32196 27.8564,-21.98501 29.2761,-23.69568 2.1566,-2.5985 -55.1177,-3.11032 -348.0638,-3.11032 -192.85481,0 -350.10164,0.87932 -349.43742,1.95407 0.66422,1.07472 13.77158,11.7728 29.12745,23.7735 l 27.91976,21.81943 0.002,29.57191 0.002,29.57192 H 1024 1316.2401 Z m 185.1273,-171.48686 35.2124,-27.18415 V 519.0265 495.1846 H 1024 511.42016 v 23.99284 23.99282 l 35.37033,26.96274 35.37033,26.96275 441.99708,0.0705 441.997,0.0705 35.2125,-27.18415 z"
     id="path24" />
</svg>
