<?xml version="1.0" encoding="UTF-8" standalone="no"?>
<svg
   xmlns:dc="http://purl.org/dc/elements/1.1/"
   xmlns:cc="http://creativecommons.org/ns#"
   xmlns:rdf="http://www.w3.org/1999/02/22-rdf-syntax-ns#"
   xmlns:svg="http://www.w3.org/2000/svg"
   xmlns="http://www.w3.org/2000/svg"
   xmlns:sodipodi="http://sodipodi.sourceforge.net/DTD/sodipodi-0.dtd"
   xmlns:inkscape="http://www.inkscape.org/namespaces/inkscape"
   height="512pt"
   viewBox="-4 0 512 512"
   width="512pt"
   version="1.1"
   id="svg97"
   sodipodi:docname="by.svg"
   inkscape:version="1.0.1 (3bc2e813f5, 2020-09-07, custom)">
  <metadata
     id="metadata103">
    <rdf:RDF>
      <cc:Work
         rdf:about="">
        <dc:format>image/svg+xml</dc:format>
        <dc:type
           rdf:resource="http://purl.org/dc/dcmitype/StillImage" />
      </cc:Work>
    </rdf:RDF>
  </metadata>
  <defs
     id="defs101" />
  <sodipodi:namedview
     pagecolor="#ffffff"
     bordercolor="#666666"
     borderopacity="1"
     objecttolerance="10"
     gridtolerance="10"
     guidetolerance="10"
     inkscape:pageopacity="0"
     inkscape:pageshadow="2"
     inkscape:window-width="1920"
     inkscape:window-height="1060"
     id="namedview99"
     showgrid="false"
     inkscape:zoom="1.293457"
     inkscape:cx="341.33333"
     inkscape:cy="341.33333"
     inkscape:window-x="0"
     inkscape:window-y="20"
     inkscape:window-maximized="0"
     inkscape:current-layer="svg97" />
  <path
     d="m 341.54391,268.52282 c 19.17093,-24.4097 30.43906,-54.08907 32.30218,-85.07125 0,-67.48157 -54.70437,-122.185945 -122.18593,-122.185945 -67.48157,0 -122.18594,54.704375 -122.18594,122.185945 1.86657,30.98218 13.13469,60.66155 32.30219,85.07125"
     fill="#2c2f38"
     id="path57"
     style="stroke-width:0.88" />
  <path
     d="m 324.68984,268.52282 c 15.93625,-25.6197 24.97688,-54.92439 26.24532,-85.07125 0,-67.50564 -44.41937,-122.185945 -99.275,-122.185945 -54.85219,0 -99.275,54.680305 -99.275,122.185945 1.26843,30.14686 10.3125,59.45155 26.24531,85.07125"
     fill="#2c3e50"
     id="path59"
     style="stroke-width:0.88" />
  <g
     fill="#2c2f38"
     id="g67"
     transform="matrix(0.88,0,0,0.88,30.199219,30.72)">
    <path
       d="m 362.56641,396.92969 25.66015,54.19531 c 1.39844,2.95312 1.01953,6.44141 -0.98047,9.02344 L 347.11719,512 l 8.09765,-45.8125 c 0.375,-2.125 -0.0586,-4.31641 -1.21484,-6.14063 L 328.83594,420.1875 H 174.51562 l -25.16796,39.85937 c -1.15625,1.82422 -1.58985,4.01563 -1.21485,6.14063 l 8.07031,45.8125 -40.125,-51.85156 c -2,-2.58203 -2.3789,-6.07032 -0.98046,-9.02344 l 25.66015,-54.19531 z m 0,0"
       id="path61" />
    <path
       d="m 381.74219,338.52734 37.98437,-37.98437 c 3.12891,-3.12891 8.10547,-3.40235 11.5586,-0.64063 l 36.57031,29.26172 c 0.5,0.39844 0.95703,0.85156 1.35156,1.35547 l 34.11328,42.63281 v -56.5039 c 0,-2.67578 -1.23437,-5.20313 -3.34765,-6.84375 L 430.81641,256 c -3.25391,-2.53516 -7.84375,-2.42578 -10.97657,0.26172 l -48.07421,41.21875 H 131.55859 L 83.480469,256.26953 c -3.128907,-2.6875 -7.71875,-2.79297 -10.976563,-0.26172 L 3.351562,309.80469 C 1.238281,311.44531 0,313.97266 0,316.64844 v 56.5039 l 34.113281,-42.63281 c 0.398438,-0.5039 0.851563,-0.95703 1.355469,-1.35547 l 36.558594,-29.26172 c 3.453125,-2.76171 8.433594,-2.48828 11.558594,0.64063 l 37.992192,37.98437 z m 0,0"
       id="path63" />
    <path
       d="M 390.50781,355.79687 H 430 c 2.48047,0 4.83984,1.0625 6.48437,2.91407 l 62.48047,70.29297 c 2.58203,2.88672 2.9375,7.13672 0.86719,10.41406 l -39.89844,63.90234 v -66.375 c 0,-1.97265 -0.67187,-3.88672 -1.90234,-5.42578 l -30.20703,-37.75781 c -1.64844,-2.05859 -4.14063,-3.25391 -6.77735,-3.25391 H 90.953125 c -2.636719,0 -5.128906,1.19532 -6.777344,3.25391 L 53.96875,431.51953 c -1.230469,1.53906 -1.902344,3.45313 -1.902344,5.42578 v 66.375 L 12.148438,439.41016 c -2.066407,-3.27735 -1.710938,-7.52735 0.867187,-10.41407 L 75.542969,358.70312 C 77.183594,356.85937 79.53125,355.80469 82,355.79687 Z m 0,0"
       id="path65" />
  </g>
  <path
     d="m 212.25609,410.64282 c 13.09345,1.30625 26.24532,1.94218 39.40407,1.9078 13.15875,0.0343 26.31063,-0.60155 39.40406,-1.9078 l 11.76312,-4.27625 c 37.6475,-10.15782 63.38407,-33.60157 63.38407,-73.99907 0,-56.96968 -51.24282,-103.09407 -114.55125,-103.09407 -63.30844,0 -114.54782,46.12439 -114.54782,103.09407 0,40.3975 25.73313,63.84125 63.38407,73.99907 z m 0,0"
     fill="#2c3e50"
     id="path69"
     style="stroke-width:0.88" />
  <path
     d="m 217.50859,410.80093 c 22.70813,2.33407 45.595,2.33407 68.30313,0 l 10.19562,-3.91531 c 32.62188,-9.31905 54.92782,-30.80687 54.92782,-67.83905 0,-52.21907 -44.40562,-94.50032 -99.275,-94.50032 -54.86937,0 -99.275,42.28125 -99.275,94.50032 0,37.03218 22.30593,58.52 54.93125,67.83905 z m 0,0"
     fill="#35495e"
     id="path71"
     style="stroke-width:0.88" />
  <path
     d="m 228.06516,300.06187 c 0.46063,1.82188 0.69438,3.69531 0.6875,5.57563 0.0275,12.22375 -9.5425,22.31968 -21.74907,22.93843 -12.20655,0.61875 -22.7528,-8.45281 -23.95937,-20.61811 -1.21,-12.16189 7.34594,-23.13095 19.43562,-24.92532"
     fill="#c03a2b"
     id="path73"
     style="stroke-width:0.88" />
  <path
     d="m 236.38734,313.27562 c -1.50562,-0.003 -2.97687,-0.44687 -4.23155,-1.28562 l -45.81845,-30.54563 c -2.26875,-1.5125 -3.56125,-4.125 -3.3825,-6.8475 0.17532,-2.7225 1.79095,-5.1425 4.23845,-6.3525 2.44405,-1.21 5.35218,-1.02094 7.62093,0.495 l 45.81844,30.54563 c 2.80156,1.86657 4.04938,5.34875 3.07313,8.56968 -0.9797,3.22439 -3.9497,5.42439 -7.31845,5.42094 z m 0,0"
     fill="#2c2f38"
     id="path75"
     style="stroke-width:0.88" />
  <path
     d="m 300.84047,283.0325 c 12.09312,1.79437 20.64562,12.76343 19.43907,24.92532 -1.21,12.1653 -11.75282,21.23686 -23.96282,20.61811 -12.20656,-0.61875 -21.77656,-10.71468 -21.74563,-22.93843 -0.007,-1.88032 0.22345,-3.75375 0.6875,-5.57563"
     fill="#c03a2b"
     id="path77"
     style="stroke-width:0.88" />
  <path
     d="m 266.93297,313.27562 c -3.36531,0.003 -6.33875,-2.19655 -7.315,-5.42094 -0.97968,-3.22093 0.26812,-6.70311 3.06969,-8.56968 l 45.82188,-30.54563 c 2.26875,-1.51594 5.17343,-1.705 7.62093,-0.495 2.44407,1.21 4.05969,3.63 4.23844,6.3525 0.17531,2.7225 -1.11375,5.335 -3.38594,6.8475 L 271.16454,311.99 c -1.25125,0.83875 -2.72595,1.28218 -4.23157,1.28562 z m 0,0"
     fill="#2c2f38"
     id="path79"
     style="stroke-width:0.88" />
  <path
     d="m 282.20579,366.73218 h -91.63688 l 12.30281,49.19407 c 0.40562,1.61907 1.815,2.79125 3.48219,2.8875 1.66718,0.0962 3.20718,-0.90407 3.795,-2.46813 l 18.60375,-49.61344"
     fill="#d1d4d1"
     id="path81"
     style="stroke-width:0.88" />
  <path
     d="m 221.11454,366.73218 h 91.6403 l -12.3028,49.19407 c -0.40563,1.61907 -1.81845,2.79125 -3.48563,2.8875 -1.66719,0.0962 -3.20375,-0.90407 -3.79157,-2.46813 l -18.60375,-49.61344"
     fill="#d1d4d1"
     id="path83"
     style="stroke-width:0.88" />
  <path
     d="m 274.57109,168.17875 v 16.72343 c -0.44,3.795 -3.8328,6.545 -7.63812,6.1875 h -30.54563 c -3.8053,0.3575 -7.19468,-2.3925 -7.63468,-6.1875 v -16.72343 z m 0,0"
     fill="#c03a2b"
     id="path85"
     style="stroke-width:0.88" />
  <path
     d="m 297.48204,128.16282 c -0.0207,4.9328 -1.2547,9.78311 -3.5922,14.12811 -0.76655,1.39219 -1.6053,2.74314 -2.51968,4.04594 -2.57125,3.3172 -6.215,5.64095 -10.30907,6.56906 h -58.80187 c -4.09406,-0.92811 -7.73781,-3.25186 -10.30906,-6.56906 -0.91094,-1.3028 -1.75312,-2.65375 -2.51969,-4.04594 -4.785,-8.81031 -4.785,-19.44593 0,-28.25625 2.45094,-4.50311 5.80594,-8.45625 9.85187,-11.60843 4.35188,-3.41 9.26063,-6.043125 14.5097,-7.789375 11.6153,-3.7675 24.12437,-3.7675 35.73968,0 5.24562,1.74625 10.15437,4.379375 14.50969,7.789375 4.04593,3.15218 7.3975,7.10532 9.84843,11.60843 2.3375,4.345 3.57157,9.19532 3.5922,14.12814 z m 0,0"
     fill="#c03a2b"
     id="path87"
     style="stroke-width:0.88" />
  <path
     d="m 236.38734,137.63312 c -2.03155,0.0172 -3.98405,-0.7803 -5.42093,-2.21375 -0.67375,-0.74594 -1.21687,-1.59844 -1.60532,-2.52312 -0.42625,-0.90407 -0.63593,-1.8975 -0.60843,-2.90125 0.0275,-2.02125 0.81813,-3.95657 2.21375,-5.42093 2.19656,-2.16564 5.47938,-2.79814 8.32218,-1.60532 1.91813,0.69437 3.43063,2.20687 4.125,4.125 0.8147,1.84937 0.8147,3.95657 0,5.8025 -0.38843,0.92468 -0.93155,1.77718 -1.6053,2.52312 -1.43688,1.43345 -3.38938,2.23095 -5.42095,2.21375 z m 0,0"
     fill="#2c2f38"
     id="path89"
     style="stroke-width:0.88" />
  <path
     d="m 266.93297,137.63312 c -2.02813,0.0172 -3.98406,-0.7803 -5.42093,-2.21375 -0.67375,-0.74594 -1.21345,-1.59844 -1.60188,-2.52312 -0.42969,-0.90407 -0.63937,-1.8975 -0.61187,-2.90125 0.0275,-2.02125 0.81812,-3.95657 2.21375,-5.42093 2.19655,-2.16564 5.47937,-2.79814 8.32562,-1.60532 1.91813,0.69437 3.42718,2.20687 4.12156,4.125 0.81469,1.84937 0.81469,3.95657 0,5.8025 -0.38843,0.92468 -0.93156,1.77718 -1.60188,2.52312 -1.4403,1.43345 -3.3928,2.23095 -5.42437,2.21375 z m 0,0"
     fill="#2c2f38"
     id="path91"
     style="stroke-width:0.88" />
  <path
     d="m 251.66016,68.90375 c -4.21782,0 -7.63469,-3.420313 -7.63469,-7.638125 v -22.9075 c 0,-4.217813 3.41687,-7.638125 7.63469,-7.638125 4.21781,0 7.63813,3.420312 7.63813,7.638125 v 22.9075 c 0,4.217812 -3.42032,7.638125 -7.63813,7.638125 z m 0,0"
     fill="#bdc3c7"
     id="path93"
     style="stroke-width:0.88" />
  <path
     d="M 328.02766,374.36687 H 175.29609 c -4.2178,0 -7.63812,-3.41687 -7.63812,-7.63469 0,-4.21781 3.42032,-7.63811 7.63812,-7.63811 h 152.73157 c 4.21781,0 7.63468,3.4203 7.63468,7.63811 0,4.21782 -3.41687,7.63469 -7.63468,7.63469 z m 0,0"
     fill="#2c2f38"
     id="path95"
     style="stroke-width:0.88" />
</svg>
