<?xml version="1.0" encoding="UTF-8" standalone="no"?>
<svg
   xmlns:dc="http://purl.org/dc/elements/1.1/"
   xmlns:cc="http://creativecommons.org/ns#"
   xmlns:rdf="http://www.w3.org/1999/02/22-rdf-syntax-ns#"
   xmlns:svg="http://www.w3.org/2000/svg"
   xmlns="http://www.w3.org/2000/svg"
   xmlns:sodipodi="http://sodipodi.sourceforge.net/DTD/sodipodi-0.dtd"
   xmlns:inkscape="http://www.inkscape.org/namespaces/inkscape"
   height="100%"
   width="100%"
   version="1.1"
   viewBox="0 0 2048 2048"
   id="svg18"
   sodipodi:docname="wa.svg"
   inkscape:version="1.0.1 (3bc2e813f5, 2020-09-07, custom)">
  <metadata
     id="metadata24">
    <rdf:RDF>
      <cc:Work
         rdf:about="">
        <dc:format>image/svg+xml</dc:format>
        <dc:type
           rdf:resource="http://purl.org/dc/dcmitype/StillImage" />
      </cc:Work>
    </rdf:RDF>
  </metadata>
  <defs
     id="defs22" />
  <sodipodi:namedview
     pagecolor="#ffffff"
     bordercolor="#666666"
     borderopacity="1"
     objecttolerance="10"
     gridtolerance="10"
     guidetolerance="10"
     inkscape:pageopacity="0"
     inkscape:pageshadow="2"
     inkscape:window-width="960"
     inkscape:window-height="1060"
     id="namedview20"
     showgrid="false"
     inkscape:zoom="0.43115234"
     inkscape:cx="1024"
     inkscape:cy="1021.6806"
     inkscape:window-x="0"
     inkscape:window-y="20"
     inkscape:window-maximized="0"
     inkscape:current-layer="svg18" />
  <path
     style="color:black;"
     d="m1024 1166q97 0 186 15 98-35 142-109 38-64 38-141 0-46-23-101t-75-101q-59-49-129-107t-139-137q-70 78-140 136t-128 108q-53 45-75 100t-23 102q0 77 37 141 43 74 143 109 88-15 186-15z"
     fill-rule="nonzero"
     display="block"
     fill="#fff"
     id="path2" />
  <path
     style="color:black;"
     d="m988 1138l-83 1q-34 0-34 34t34 34h83v86q0 35 36 35 35 0 35-35v-86h86q33 0 33-34t-33-34h-86v-82q0-36-35-36-36 0-36 36v81zm36-578q68 0 132 11t125 28q-117 31-257 31-142 0-257-31 58-16 123-27t134-12zm0 1089q68 0 68 68t-68 68-68-68 68-68zm0-949q117 0 225-23l-48 123q-88 14-177 14-91 0-178-14l-48-123q107 23 226 23zm0 182q97 0 186-15 98 35 142 109 38 64 38 141 0 46-23 101t-75 101q-59 49-129 107t-139 137q-70-78-140-136t-128-108q-53-45-75-100t-23-102q0-77 37-141 43-74 143-109 88 15 186 15zm-36-377h-32q-56-90-107-113-24-12-53-22t-67-10q-7 0-107 16-48 7-76 15t-44 10q-57 7-133-6-46-8-86-29l48-78q12 12 31 15t36 8q42 7 80 2 13-3 51-7t101-15q75-11 102-11 105 0 161 40 34 26 64 72t31 113zm36-113q-14-57-34-79t-53-46q-36-25-85-42t-109-9l-281 39q-17 2-30 0t-26-2q-21 0-53-9t-51-28l-97 159q18 20 32 28t33 17q58 27 124 33 28 2 55 1t56 2q54-9 108-16t110-16q60 0 81 12 11 6 35 22t48 47q-53 6-108 20t-97 31l104 258q-78 45-109 72t-49 64q-26 46-33 89t-7 77q1 60 28 132t104 130q63 48 123 99t119 119q-74 38-74 121 0 56 39 96t97 40q56 0 96-40t40-96q0-82-74-121 58-68 117-119t125-99q75-57 102-129t29-133q0-34-7-77t-32-89q-20-36-50-63t-108-73l104-258q-44-16-99-30t-106-21q23-31 47-47t36-22q21-12 81-12 54 8 108 15t110 17q27-3 54-2t57-1q64-6 124-33 18-9 32-17t33-28l-98-159q-18 18-50 27t-53 10q-13 0-26 2t-31 0l-280-39q-60-9-111 8t-85 45q-33 27-52 46t-33 77zm35 113q0-66 30-112t66-73q55-40 161-40 26 0 102 11 62 10 100 14t51 8q38 5 80-2 16-4 35-7t33-16l48 78q-41 21-87 29-76 13-133 6-17-2-44-10t-75-15q-101-16-107-16-39 0-68 10t-52 22q-53 24-108 113h-32z"
     fill-rule="nonzero"
     transform="translate(0,2048) scale(1,-1)"
     display="block"
     fill="#000"
     id="path4" />
  <g
     fill-rule="nonzero"
     fill="#fff"
     id="g16">
    <path
       style="color:black;"
       d="m1024 1488q68 0 132-11t125-28q-117-31-257-31-142 0-257 31 58 16 123 27t134 12z"
       display="block"
       id="path6" />
    <path
       style="color:black;"
       d="m1024 399q68 0 68-68t-68-68-68 68 68 68z"
       display="block"
       id="path8" />
    <path
       style="color:black;"
       d="m1024 1348q117 0 225 23l-48-123q-88-14-177-14-91 0-178 14l-48 123q107-23 226-23z"
       display="block"
       id="path10" />
    <path
       style="color:black;"
       d="m988 1543h-32q-56 90-107 113-24 12-53 22t-67 10q-7 0-107-16-48-7-76-15t-44-10q-57-7-133 6-46 8-86 29l48 78q12-12 31-15t36-8q42-7 80-2 13 3 51 7t101 15q75 11 102 11 105 0 161-40 34-26 64-72t31-113z"
       display="block"
       id="path12" />
    <path
       style="color:black;"
       d="m1059 1543q0 66 30 112t66 73q55 40 161 40 26 0 102-11 62-10 100-14t51-8q38-5 80 2 16 4 35 7t33 16l48-78q-41-21-87-29-76-13-133-6-17 2-44 10t-75 15q-101 16-107 16-39 0-68-10t-52-22q-53-24-108-113h-32z"
       display="block"
       id="path14" />
  </g>
  <path
     style="fill:#ffdead;stroke:#000000;stroke-width:2.31937"
     d="m 814.35955,1170.2447 c -44.93573,-19.9466 -83.95216,-49.998 -106.87624,-82.3185 -70.68326,-99.65589 -60.90214,-240.93929 23.03796,-332.77161 10.28142,-11.24809 58.92052,-53.25208 135.76186,-117.24187 31.92518,-26.58577 69.40247,-61.01177 104.16573,-95.68488 l 54.29944,-54.15856 15.0125,16.89401 c 37.7507,42.48183 92.7574,93.27511 177.44,163.84821 48.7312,40.61183 93.9663,80.04566 100.5224,87.63071 65.0855,75.30011 86.048,167.15295 58.7042,257.22769 -7.595,25.0188 -26.4903,61.0894 -42.8183,81.7384 -24.7643,31.3179 -60.5252,57.5992 -103.3469,75.9513 l -19.5533,8.3799 -25.513,-3.5859 c -61.0227,-8.5769 -77.3055,-9.5115 -163.5153,-9.3859 -75.1993,0.1098 -92.47206,0.8167 -127.56508,5.2222 -22.3239,2.8024 -44.76376,5.6149 -49.86637,6.2499 -7.36946,0.9171 -13.51655,-0.7272 -29.8896,-7.9951 z m 231.80585,-147.2772 c 12.0006,-7.8631 13.5655,-14.9343 14.5287,-65.64927 l 0.892,-46.96715 h 46.2237 c 60.8416,0 67.6246,-2.83047 70.7878,-29.5391 1.7397,-14.68903 -2.1417,-26.60463 -11.1297,-34.16755 l -6.9812,-5.87433 h -49.4577 -49.4578 l -0.8733,-49.28652 c -0.9699,-54.74028 -2.4414,-60.92123 -16.1962,-68.03412 -8.8875,-4.59592 -31.5434,-4.94338 -40.3677,-0.61911 -3.5142,1.72213 -8.57082,6.07486 -11.23686,9.67273 -4.51267,6.08998 -4.89602,10.05301 -5.5527,57.4043 l -0.70536,50.86272 h -47.53666 c -52.41334,0 -58.1389,1.22551 -64.66225,13.84028 -5.54785,10.72835 -4.69228,35.06775 1.50984,42.95246 8.95279,11.38163 16.17245,12.78824 65.63801,12.78824 h 45.30213 v 45.30213 c 0,47.68059 1.39827,55.84929 11.02749,64.42189 2.59036,2.306 7.69196,5.1473 11.33706,6.3139 9.162,2.9324 30.1881,0.9833 36.9107,-3.4215 z"
     id="path38" />
  <path
     style="fill:#ffdead;stroke:#000000;stroke-width:2.31937"
     d="m 823.00352,1309.6207 23.565,-60.363 13.91619,-2.3925 c 7.65391,-1.3158 30.09377,-4.2007 49.86637,-6.4108 50.23697,-5.6151 176.88622,-5.6299 226.13812,-0.026 43.0371,4.8965 61.8048,7.9038 63.8733,10.2348 2.0057,2.2604 46.5983,117.102 45.7568,117.8397 -0.3409,0.2989 -11.5789,-1.4463 -24.9732,-3.8782 -98.0156,-17.7957 -200.5268,-21.9121 -305.31304,-12.2601 -32.97516,3.0374 -93.50084,11.8735 -110.42185,16.1204 -5.79235,1.4538 -5.26119,-0.3235 17.59231,-58.864 z"
     id="path40" />
  <path
     style="fill:#ffdead;stroke:#000000;stroke-width:2.31937"
     d="m 984.50432,1485.3828 c -17.25784,-0.9916 -44.91628,-3.5285 -61.46319,-5.6376 -53.0623,-6.7635 -152.76317,-28.1861 -146.68257,-31.5175 4.20121,-2.3017 54.59318,-12.9848 80.6471,-17.0972 69.90917,-11.0345 191.92934,-14.9937 262.08834,-8.504 51.639,4.7766 115.1323,15.0582 147.2797,23.8493 l 9.2775,2.537 -10.4372,3.1643 c -20.889,6.3331 -94.7366,21.6853 -126.4455,26.2868 -30.0506,4.3609 -99.726,9.7969 -115.9282,9.0448 -3.8269,-0.1777 -21.0781,-1.1344 -38.33598,-2.1259 z"
     id="path42" />
  <path
     style="fill:#ffdead;stroke:#000000;stroke-width:2.31937"
     d="m 663.33862,1760.426 c -21.68607,-2.9406 -52.47565,-7.5012 -68.42129,-10.1348 -15.94564,-2.6335 -45.69151,-6.8719 -66.10193,-9.4185 -20.41042,-2.5467 -45.98142,-5.8131 -56.82446,-7.2587 -23.58242,-3.144 -56.56053,-1.304 -82.33749,4.5939 -10.20521,2.335 -22.72978,4.9699 -27.83239,5.8552 -5.1026,0.8854 -13.90384,4.1733 -19.55832,7.3066 -8.28373,4.5902 -10.81131,5.1193 -13.01152,2.7241 -4.5056,-4.9048 -42.80954,-68.1896 -42.80954,-70.7287 0,-2.4977 19.67034,-11.8298 37.24207,-17.6685 40.76695,-13.5461 78.67641,-18.7788 135.55068,-18.7104 44.50177,0.054 47.4715,0.3481 73.06002,7.2457 39.65596,10.6896 92.69608,20.274 183.1859,33.1016 33.49934,4.7489 74.71097,-3.4926 119.49134,-23.8956 44.72653,-20.3786 73.0985,-46.6676 110.00065,-101.9249 l 12.0042,-17.9751 h 15.27672 15.27671 l -1.58074,17.9751 c -2.05174,23.3309 -8.86381,52.0601 -16.367,69.0261 -9.90539,22.3979 -31.29783,52.0246 -54.59242,75.606 -19.64941,19.8913 -24.66954,23.5879 -46.38732,34.1575 -52.26619,25.437 -118.32015,31.9128 -205.26387,20.1234 z"
     id="path44" />
  <path
     style="fill:#ffdead;stroke:#000000;stroke-width:2.31937"
     d="m 1257.4088,1763.5654 c -56.4842,-7.2537 -94.8932,-25.7676 -130.5843,-62.9443 -41.8887,-43.6322 -62.0562,-85.3388 -65.0234,-134.4693 l -1.3658,-22.6139 h 14.8614 14.8614 l 12.4669,18.8494 c 30.9801,46.8404 62.7315,77.6902 97.7984,95.0211 68.5322,33.8704 93.7803,36.6595 191.1961,21.1205 76.3461,-12.1782 78.0106,-12.504 116.425,-22.7871 31.6788,-8.4801 32.5006,-8.5717 78.4017,-8.745 51.0603,-0.1929 86.3523,3.8868 121.6372,14.061 24.87,7.1711 53.4749,19.0282 53.4749,22.1661 0,1.3258 -10.1279,18.8625 -22.5065,38.9704 l -22.5065,36.5599 -7.0654,-5.213 c -9.4016,-6.9368 -11.6819,-7.6563 -44.9943,-14.1974 -35.1985,-6.9115 -68.5087,-9.1014 -88.4765,-5.8168 -8.2918,1.364 -34.9065,5.0829 -59.1439,8.2641 -24.2373,3.1813 -57.6362,7.8871 -74.2197,10.4575 -87.4036,13.5471 -141.9296,16.8783 -185.2367,11.3168 z"
     id="path46" />
  <path
     style="fill:#ffdead;stroke:#000000;stroke-width:2.31937"
     d="m 995.40254,394.00644 c -26.12366,-8.02606 -40.8928,-35.66102 -37.93213,-70.97588 1.91867,-22.88591 10.64017,-39.89904 25.00694,-48.78133 14.44433,-8.93024 36.53765,-12.26115 57.67655,-8.69561 34.1236,5.75568 49.8149,25.43702 49.9018,62.59114 0.025,10.86806 -1.4575,24.94429 -3.2954,31.28051 -4.5665,15.74354 -18.8811,29.88667 -35.1343,34.71333 -15.1468,4.49813 -41.353,4.43654 -56.22346,-0.13216 z"
     id="path48" />
</svg>
