<?xml version="1.0" encoding="UTF-8" standalone="no"?>
<svg
   xmlns:dc="http://purl.org/dc/elements/1.1/"
   xmlns:cc="http://creativecommons.org/ns#"
   xmlns:rdf="http://www.w3.org/1999/02/22-rdf-syntax-ns#"
   xmlns:svg="http://www.w3.org/2000/svg"
   xmlns="http://www.w3.org/2000/svg"
   xmlns:sodipodi="http://sodipodi.sourceforge.net/DTD/sodipodi-0.dtd"
   xmlns:inkscape="http://www.inkscape.org/namespaces/inkscape"
   height="100%"
   width="100%"
   version="1.1"
   viewBox="0 0 2048 2048"
   id="svg18"
   sodipodi:docname="wa.svg"
   inkscape:version="1.0.1 (3bc2e813f5, 2020-09-07, custom)">
  <metadata
     id="metadata24">
    <rdf:RDF>
      <cc:Work
         rdf:about="">
        <dc:format>image/svg+xml</dc:format>
        <dc:type
           rdf:resource="http://purl.org/dc/dcmitype/StillImage" />
      </cc:Work>
    </rdf:RDF>
  </metadata>
  <defs
     id="defs22" />
  <sodipodi:namedview
     pagecolor="#ffffff"
     bordercolor="#666666"
     borderopacity="1"
     objecttolerance="10"
     gridtolerance="10"
     guidetolerance="10"
     inkscape:pageopacity="0"
     inkscape:pageshadow="2"
     inkscape:window-width="1920"
     inkscape:window-height="1060"
     id="namedview20"
     showgrid="false"
     inkscape:zoom="0.43115234"
     inkscape:cx="1024"
     inkscape:cy="1019.3612"
     inkscape:window-x="0"
     inkscape:window-y="20"
     inkscape:window-maximized="0"
     inkscape:current-layer="svg18"
     inkscape:document-rotation="0" />
  <path
     style="color:black;"
     d="m1024 1166q97 0 186 15 98-35 142-109 38-64 38-141 0-46-23-101t-75-101q-59-49-129-107t-139-137q-70 78-140 136t-128 108q-53 45-75 100t-23 102q0 77 37 141 43 74 143 109 88-15 186-15z"
     fill-rule="nonzero"
     display="block"
     fill="#fff"
     id="path2" />
  <path
     style="color:black;"
     d="m988 1138l-83 1q-34 0-34 34t34 34h83v86q0 35 36 35 35 0 35-35v-86h86q33 0 33-34t-33-34h-86v-82q0-36-35-36-36 0-36 36v81zm36-578q68 0 132 11t125 28q-117 31-257 31-142 0-257-31 58-16 123-27t134-12zm0 1089q68 0 68 68t-68 68-68-68 68-68zm0-949q117 0 225-23l-48 123q-88 14-177 14-91 0-178-14l-48-123q107 23 226 23zm0 182q97 0 186-15 98 35 142 109 38 64 38 141 0 46-23 101t-75 101q-59 49-129 107t-139 137q-70-78-140-136t-128-108q-53-45-75-100t-23-102q0-77 37-141 43-74 143-109 88 15 186 15zm-36-377h-32q-56-90-107-113-24-12-53-22t-67-10q-7 0-107 16-48 7-76 15t-44 10q-57 7-133-6-46-8-86-29l48-78q12 12 31 15t36 8q42 7 80 2 13-3 51-7t101-15q75-11 102-11 105 0 161 40 34 26 64 72t31 113zm36-113q-14-57-34-79t-53-46q-36-25-85-42t-109-9l-281 39q-17 2-30 0t-26-2q-21 0-53-9t-51-28l-97 159q18 20 32 28t33 17q58 27 124 33 28 2 55 1t56 2q54-9 108-16t110-16q60 0 81 12 11 6 35 22t48 47q-53 6-108 20t-97 31l104 258q-78 45-109 72t-49 64q-26 46-33 89t-7 77q1 60 28 132t104 130q63 48 123 99t119 119q-74 38-74 121 0 56 39 96t97 40q56 0 96-40t40-96q0-82-74-121 58-68 117-119t125-99q75-57 102-129t29-133q0-34-7-77t-32-89q-20-36-50-63t-108-73l104-258q-44-16-99-30t-106-21q23-31 47-47t36-22q21-12 81-12 54 8 108 15t110 17q27-3 54-2t57-1q64-6 124-33 18-9 32-17t33-28l-98-159q-18 18-50 27t-53 10q-13 0-26 2t-31 0l-280-39q-60-9-111 8t-85 45q-33 27-52 46t-33 77zm35 113q0-66 30-112t66-73q55-40 161-40 26 0 102 11 62 10 100 14t51 8q38 5 80-2 16-4 35-7t33-16l48 78q-41 21-87 29-76 13-133 6-17-2-44-10t-75-15q-101-16-107-16-39 0-68 10t-52 22q-53 24-108 113h-32z"
     fill-rule="nonzero"
     transform="translate(0,2048) scale(1,-1)"
     display="block"
     fill="#000"
     id="path4" />
  <g
     fill-rule="nonzero"
     fill="#fff"
     id="g16">
    <path
       style="color:black;"
       d="m1024 1488q68 0 132-11t125-28q-117-31-257-31-142 0-257 31 58 16 123 27t134 12z"
       display="block"
       id="path6" />
    <path
       style="color:black;"
       d="m1024 399q68 0 68-68t-68-68-68 68 68 68z"
       display="block"
       id="path8" />
    <path
       style="color:black;"
       d="m1024 1348q117 0 225 23l-48-123q-88-14-177-14-91 0-178 14l-48 123q107-23 226-23z"
       display="block"
       id="path10" />
    <path
       style="color:black;"
       d="m988 1543h-32q-56 90-107 113-24 12-53 22t-67 10q-7 0-107-16-48-7-76-15t-44-10q-57-7-133 6-46 8-86 29l48 78q12-12 31-15t36-8q42-7 80-2 13 3 51 7t101 15q75 11 102 11 105 0 161-40 34-26 64-72t31-113z"
       display="block"
       id="path12" />
    <path
       style="color:black;"
       d="m1059 1543q0 66 30 112t66 73q55 40 161 40 26 0 102-11 62-10 100-14t51-8q38-5 80 2 16 4 35 7t33 16l48-78q-41-21-87-29-76-13-133-6-17 2-44 10t-75 15q-101 16-107 16-39 0-68-10t-52-22q-53-24-108-113h-32z"
       display="block"
       id="path14" />
  </g>
  <path
     style="fill:#ffdead;stroke:#000000;stroke-width:2.31937"
     d="m 814.35955,1170.2447 c -44.93573,-19.9466 -83.95216,-49.998 -106.87624,-82.3185 -70.68326,-99.65589 -60.90214,-240.93929 23.03796,-332.77161 10.28142,-11.24809 58.92052,-53.25208 135.76186,-117.24187 31.92518,-26.58577 69.40247,-61.01177 104.16573,-95.68488 l 54.29944,-54.15856 15.0125,16.89401 c 37.7507,42.48183 92.7574,93.27511 177.44,163.84821 48.7312,40.61183 93.9663,80.04566 100.5224,87.63071 65.0855,75.30011 86.048,167.15295 58.7042,257.22769 -7.595,25.0188 -26.4903,61.0894 -42.8183,81.7384 -24.7643,31.3179 -60.5252,57.5992 -103.3469,75.9513 l -19.5533,8.3799 -25.513,-3.5859 c -61.0227,-8.5769 -77.3055,-9.5115 -163.5153,-9.3859 -75.1993,0.1098 -92.47206,0.8167 -127.56508,5.2222 -22.3239,2.8024 -44.76376,5.6149 -49.86637,6.2499 -7.36946,0.9171 -13.51655,-0.7272 -29.8896,-7.9951 z m 231.80585,-147.2772 c 12.0006,-7.8631 13.5655,-14.9343 14.5287,-65.64927 l 0.892,-46.96715 h 46.2237 c 60.8416,0 67.6246,-2.83047 70.7878,-29.5391 1.7397,-14.68903 -2.1417,-26.60463 -11.1297,-34.16755 l -6.9812,-5.87433 h -49.4577 -49.4578 l -0.8733,-49.28652 c -0.9699,-54.74028 -2.4414,-60.92123 -16.1962,-68.03412 -8.8875,-4.59592 -31.5434,-4.94338 -40.3677,-0.61911 -3.5142,1.72213 -8.57082,6.07486 -11.23686,9.67273 -4.51267,6.08998 -4.89602,10.05301 -5.5527,57.4043 l -0.70536,50.86272 h -47.53666 c -52.41334,0 -58.1389,1.22551 -64.66225,13.84028 -5.54785,10.72835 -4.69228,35.06775 1.50984,42.95246 8.95279,11.38163 16.17245,12.78824 65.63801,12.78824 h 45.30213 v 45.30213 c 0,47.68059 1.39827,55.84929 11.02749,64.42189 2.59036,2.306 7.69196,5.1473 11.33706,6.3139 9.162,2.9324 30.1881,0.9833 36.9107,-3.4215 z"
     id="path38" />
  <path
     style="fill:#ffdead;stroke:#000000;stroke-width:2.31937"
     d="m 823.00352,1309.6207 23.565,-60.363 13.91619,-2.3925 c 7.65391,-1.3158 30.09377,-4.2007 49.86637,-6.4108 50.23697,-5.6151 176.88622,-5.6299 226.13812,-0.026 43.0371,4.8965 61.8048,7.9038 63.8733,10.2348 2.0057,2.2604 46.5983,117.102 45.7568,117.8397 -0.3409,0.2989 -11.5789,-1.4463 -24.9732,-3.8782 -98.0156,-17.7957 -200.5268,-21.9121 -305.31304,-12.2601 -32.97516,3.0374 -93.50084,11.8735 -110.42185,16.1204 -5.79235,1.4538 -5.26119,-0.3235 17.59231,-58.864 z"
     id="path40" />
  <path
     style="fill:#ffdead;stroke:#000000;stroke-width:2.31937"
     d="m 984.50432,1485.3828 c -17.25784,-0.9916 -44.91628,-3.5285 -61.46319,-5.6376 -53.0623,-6.7635 -152.76317,-28.1861 -146.68257,-31.5175 4.20121,-2.3017 54.59318,-12.9848 80.6471,-17.0972 69.90917,-11.0345 191.92934,-14.9937 262.08834,-8.504 51.639,4.7766 115.1323,15.0582 147.2797,23.8493 l 9.2775,2.537 -10.4372,3.1643 c -20.889,6.3331 -94.7366,21.6853 -126.4455,26.2868 -30.0506,4.3609 -99.726,9.7969 -115.9282,9.0448 -3.8269,-0.1777 -21.0781,-1.1344 -38.33598,-2.1259 z"
     id="path42" />
  <path
     style="fill:#ffdead;stroke:#000000;stroke-width:2.31937"
     d="m 663.33862,1760.426 c -21.68607,-2.9406 -52.47565,-7.5012 -68.42129,-10.1348 -15.94564,-2.6335 -45.69151,-6.8719 -66.10193,-9.4185 -20.41042,-2.5467 -45.98142,-5.8131 -56.82446,-7.2587 -23.58242,-3.144 -56.56053,-1.304 -82.33749,4.5939 -10.20521,2.335 -22.72978,4.9699 -27.83239,5.8552 -5.1026,0.8854 -13.90384,4.1733 -19.55832,7.3066 -8.28373,4.5902 -10.81131,5.1193 -13.01152,2.7241 -4.5056,-4.9048 -42.80954,-68.1896 -42.80954,-70.7287 0,-2.4977 19.67034,-11.8298 37.24207,-17.6685 40.76695,-13.5461 78.67641,-18.7788 135.55068,-18.7104 44.50177,0.054 47.4715,0.3481 73.06002,7.2457 39.65596,10.6896 92.69608,20.274 183.1859,33.1016 33.49934,4.7489 74.71097,-3.4926 119.49134,-23.8956 44.72653,-20.3786 73.0985,-46.6676 110.00065,-101.9249 l 12.0042,-17.9751 h 15.27672 15.27671 l -1.58074,17.9751 c -2.05174,23.3309 -8.86381,52.0601 -16.367,69.0261 -9.90539,22.3979 -31.29783,52.0246 -54.59242,75.606 -19.64941,19.8913 -24.66954,23.5879 -46.38732,34.1575 -52.26619,25.437 -118.32015,31.9128 -205.26387,20.1234 z"
     id="path44" />
  <path
     style="fill:#ffdead;stroke:#000000;stroke-width:2.31937"
     d="m 1257.4088,1763.5654 c -56.4842,-7.2537 -94.8932,-25.7676 -130.5843,-62.9443 -41.8887,-43.6322 -62.0562,-85.3388 -65.0234,-134.4693 l -1.3658,-22.6139 h 14.8614 14.8614 l 12.4669,18.8494 c 30.9801,46.8404 62.7315,77.6902 97.7984,95.0211 68.5322,33.8704 93.7803,36.6595 191.1961,21.1205 76.3461,-12.1782 78.0106,-12.504 116.425,-22.7871 31.6788,-8.4801 32.5006,-8.5717 78.4017,-8.745 51.0603,-0.1929 86.3523,3.8868 121.6372,14.061 24.87,7.1711 53.4749,19.0282 53.4749,22.1661 0,1.3258 -10.1279,18.8625 -22.5065,38.9704 l -22.5065,36.5599 -7.0654,-5.213 c -9.4016,-6.9368 -11.6819,-7.6563 -44.9943,-14.1974 -35.1985,-6.9115 -68.5087,-9.1014 -88.4765,-5.8168 -8.2918,1.364 -34.9065,5.0829 -59.1439,8.2641 -24.2373,3.1813 -57.6362,7.8871 -74.2197,10.4575 -87.4036,13.5471 -141.9296,16.8783 -185.2367,11.3168 z"
     id="path46" />
  <path
     style="fill:#ffdead;stroke:#000000;stroke-width:2.31937"
     d="m 995.40254,394.00644 c -26.12366,-8.02606 -40.8928,-35.66102 -37.93213,-70.97588 1.91867,-22.88591 10.64017,-39.89904 25.00694,-48.78133 14.44433,-8.93024 36.53765,-12.26115 57.67655,-8.69561 34.1236,5.75568 49.8149,25.43702 49.9018,62.59114 0.025,10.86806 -1.4575,24.94429 -3.2954,31.28051 -4.5665,15.74354 -18.8811,29.88667 -35.1343,34.71333 -15.1468,4.49813 -41.353,4.43654 -56.22346,-0.13216 z"
     id="path48" />
  <path
     style="fill:#ffd700;stroke:#000000;stroke-width:2.31937"
     d="m 830.33295,1173.8349 c -14.50155,-4.517 -50.74836,-23.9825 -67.91383,-36.4715 -64.99184,-47.2858 -98.8542,-115.5356 -98.82383,-199.17997 0.017,-46.69806 8.10386,-81.66526 28.16112,-121.7667 20.17936,-40.34558 39.64304,-61.43727 116.54257,-126.29069 91.17009,-76.88854 108.88597,-92.75085 161.71808,-144.79797 l 53.86864,-53.06828 33.1081,34.32349 c 40.6262,42.11758 80.3414,78.12294 167.4693,151.82609 36.9047,31.21841 74.5756,64.08223 83.713,73.03072 33.3252,32.63628 60.6255,82.66841 72.1562,132.23824 6.5114,27.99185 5.8614,80.72145 -1.3581,110.16988 -11.2277,45.79839 -32.5968,85.33349 -62.7341,116.06489 -23.095,23.5502 -47.1818,40.2927 -80.7436,56.1237 l -24.1857,11.4083 -35.0914,-5.2012 c -31.1579,-4.6182 -46.5729,-5.3097 -137.5176,-6.1689 -93.10868,-0.8796 -106.50654,-0.5166 -147.27977,3.9907 -24.66944,2.727 -46.41909,5.3409 -48.33256,5.8086 -1.91348,0.4677 -7.65391,-0.45 -12.75652,-2.0394 z m 217.05135,-149.23 c 3.294,-1.9056 7.2831,-5.5367 8.8646,-8.0692 3.9508,-6.3261 7.0897,-38.88685 7.1391,-74.05525 l 0.041,-29.33378 46.9672,-1.03099 c 50.9811,-1.11909 60.1866,-2.95689 65.2826,-13.03309 8.9819,-17.75976 7.0138,-38.4161 -4.9185,-51.62377 l -8.1383,-9.00812 h -49.5965 -49.5965 l -0.063,-30.7316 c -0.096,-47.05422 -3.1577,-72.99097 -9.3999,-79.63545 -7.2903,-7.76019 -18.837,-10.8983 -36.0641,-9.80135 -13.0141,0.82867 -15.8517,1.88532 -22.25257,8.28616 -9.12556,9.12554 -10.61107,19.06632 -10.88334,72.83017 l -0.19571,38.64671 -48.23476,0.78251 c -54.26329,0.88034 -58.1016,1.93442 -64.7196,17.77353 -4.11157,9.84038 -3.12725,33.6817 1.71042,41.42803 7.4349,11.90517 14.0533,13.38031 64.04253,14.27403 l 46.7329,0.83548 0.95695,46.7329 c 0.6695,32.69596 1.8922,48.63898 4.07076,53.07868 3.37229,6.8724 11.24842,12.883 20.75332,15.8378 8.1344,2.5287 30.1421,0.074 37.501,-4.1834 z"
     id="path283" />
  <path
     style="fill:#ffd700;stroke:#000000;stroke-width:2.31937"
     d="m 1003.1257,393.42714 c -28.12784,-6.18417 -42.89401,-27.90138 -42.89718,-63.09063 -0.002,-17.54925 0.81999,-21.49455 6.98719,-33.55355 8.61691,-16.84902 21.4716,-25.62997 42.47129,-29.01188 30.197,-4.86308 60.5209,6.58204 70.9759,26.78834 5.652,10.92355 7.9452,47.81901 3.9019,62.77696 -3.3429,12.36653 -14.3103,25.04633 -26.9611,31.17046 -11.4354,5.53582 -39.9605,8.11211 -54.478,4.9203 z"
     id="path285" />
  <path
     style="fill:#ffd700;stroke:#000000;stroke-width:2.31937"
     d="m 805.97961,1362.6646 c 0,-1.2551 9.51914,-26.7708 21.15364,-56.7015 19.32163,-49.7065 21.68182,-54.5281 27.25255,-55.6747 41.34874,-8.5107 136.49593,-12.9459 222.1883,-10.3571 48.9594,1.4791 106.5579,7.0545 118.0611,11.428 3.7243,1.416 9.7787,14.5773 26.1692,56.8878 11.7281,30.275 20.8418,55.5276 20.2526,56.1167 -0.5892,0.5892 -13.9208,-1.076 -29.6258,-3.7004 -120.5678,-20.1478 -263.68969,-19.8817 -379.93856,0.7063 -23.48323,4.159 -25.51303,4.262 -25.51303,1.2949 z"
     id="path287" />
  <path
     style="fill:#ffd700;stroke:#000000;stroke-width:2.31937"
     d="m 981.09173,1483.0896 c -15.30781,-1.1733 -40.05979,-3.7143 -55.0044,-5.6466 -54.50823,-7.0479 -143.19522,-25.4985 -139.46083,-29.0137 2.57842,-2.4271 70.46533,-15.3371 97.05187,-18.4563 66.56373,-7.8094 190.86163,-9.6453 247.01243,-3.6484 48.0151,5.1279 112.7201,15.716 131.0442,21.4434 6.131,1.9163 -14.4238,7.2047 -74.2197,19.0957 -74.4638,14.8078 -148.747,20.6468 -206.42357,16.2259 z"
     id="path289" />
  <path
     style="fill:#ffd700;stroke:#000000;stroke-width:2.31937"
     d="m 1251.9907,1760.2669 c -27.4161,-3.9983 -60.1176,-14.9456 -80.711,-27.0193 -20.7982,-12.1937 -59.373,-50.4554 -74.8348,-74.2275 -6.3968,-9.8347 -14.8456,-25.6044 -18.7752,-35.0438 -7.4128,-17.8064 -14.2405,-50.4024 -14.2405,-67.9857 v -10.1333 h 12.6399 12.6399 l 16.1983,23.7735 c 31.1688,45.7448 59.6983,71.9604 100.7214,92.5522 63.9811,32.1156 92.0228,34.0406 211.5038,14.5194 26.7887,-4.3768 65.8875,-12.236 86.8863,-17.4648 l 38.1797,-9.5068 58.074,1.1487 c 47.1944,0.9335 62.2019,2.0552 80.108,5.9872 24.4792,5.3753 56.9663,15.8622 70.2479,22.6761 l 8.6725,4.4493 -21.1184,34.7242 c -11.6151,19.0983 -21.4843,35.099 -21.9314,35.5571 -0.4472,0.4581 -3.7843,-1.2829 -7.4158,-3.8687 -13.5839,-9.6726 -66.6447,-19.4985 -106.1535,-19.6577 -22.202,-0.089 -47.7735,2.7548 -126.4055,14.0598 -140.0816,20.1396 -175.4714,22.579 -224.2856,15.4601 z"
     id="path291" />
  <path
     style="fill:#ffd700;stroke:#000000;stroke-width:2.31937"
     d="m 699.28879,1762.3964 c -5.74044,-0.5516 -46.44531,-6.1728 -90.45527,-12.4916 -126.00894,-18.0919 -156.11567,-21.4082 -178.59117,-19.6721 -25.82425,1.9948 -71.16763,11.3288 -85.97205,17.6974 -10.02715,4.3136 -12.18275,4.5759 -14.79734,1.8007 -1.68323,-1.7866 -11.54152,-17.3151 -21.90732,-34.5078 l -18.84691,-31.2594 11.01583,-5.5984 c 15.56446,-7.9101 39.89599,-15.8778 65.56555,-21.4704 17.76655,-3.8708 33.26403,-5.0294 80.01812,-5.982 l 57.98414,-1.1813 34.79049,8.2811 c 39.90882,9.4995 80.08425,17.0468 138.00227,25.9248 71.91627,11.0237 108.34221,6.1923 165.83465,-21.9957 42.56456,-20.869 68.24305,-44.7576 101.63464,-94.5501 l 14.33365,-21.3739 13.57175,-0.08 13.57175,-0.08 -1.65408,16.8154 c -2.32721,23.6582 -11.02175,56.4834 -19.24598,72.661 -11.23889,22.1075 -29.9815,46.9929 -52.50312,69.7108 -16.61232,16.7571 -24.88009,23.1119 -39.55685,30.4042 -21.8796,10.8712 -42.2896,17.8675 -66.16817,22.6814 -17.16152,3.4598 -86.24833,6.2241 -106.62458,4.2663 z"
     id="path293" />
</svg>
