<?xml version="1.0" encoding="UTF-8" standalone="no"?>
<svg
   xmlns:dc="http://purl.org/dc/elements/1.1/"
   xmlns:cc="http://creativecommons.org/ns#"
   xmlns:rdf="http://www.w3.org/1999/02/22-rdf-syntax-ns#"
   xmlns:svg="http://www.w3.org/2000/svg"
   xmlns="http://www.w3.org/2000/svg"
   xmlns:sodipodi="http://sodipodi.sourceforge.net/DTD/sodipodi-0.dtd"
   xmlns:inkscape="http://www.inkscape.org/namespaces/inkscape"
   version="1.0"
   width="119pt"
   height="119pt"
   viewBox="0 0 119 119"
   preserveAspectRatio="xMidYMid meet"
   id="svg10"
   sodipodi:docname="wd.svg"
   inkscape:version="1.0.1 (3bc2e813f5, 2020-09-07, custom)">
  <metadata
     id="metadata16">
    <rdf:RDF>
      <cc:Work
         rdf:about="">
        <dc:format>image/svg+xml</dc:format>
        <dc:type
           rdf:resource="http://purl.org/dc/dcmitype/StillImage" />
        <dc:title />
      </cc:Work>
    </rdf:RDF>
  </metadata>
  <defs
     id="defs14" />
  <sodipodi:namedview
     pagecolor="#ffffff"
     bordercolor="#666666"
     borderopacity="1"
     objecttolerance="10"
     gridtolerance="10"
     guidetolerance="10"
     inkscape:pageopacity="0"
     inkscape:pageshadow="2"
     inkscape:window-width="1920"
     inkscape:window-height="1060"
     id="namedview12"
     showgrid="false"
     inkscape:zoom="4.6191589"
     inkscape:cx="142.66667"
     inkscape:cy="79.116843"
     inkscape:window-x="0"
     inkscape:window-y="20"
     inkscape:window-maximized="0"
     inkscape:current-layer="svg10"
     inkscape:document-rotation="0" />
  <g
     transform="matrix(0.12119887,0,0,-0.13266833,-9.3364069,144.58469)"
     fill="#000000"
     stroke="none"
     id="g8">
    <path
       d="M 533,984 C 356,937 246,833 169,639 l -20,-52 23,-33 c 13,-19 35,-36 50,-39 15,-4 30,-15 33,-26 10,-29 65,-89 82,-89 13,0 14,10 8,55 l -6,55 h 50 c 64,0 101,-14 101,-38 0,-15 -5,-18 -26,-14 l -27,5 5,-63 c 4,-55 8,-66 36,-91 37,-33 69,-36 115,-13 41,21 47,31 47,75 0,55 19,99 42,99 42,0 111,-24 134,-46 28,-29 44,-30 77,-4 39,31 87,196 87,299 0,55 -15,143 -30,182 -6,14 -35,39 -68,59 -55,32 -61,33 -177,36 -78,1 -138,-3 -172,-12 z m 97,-39 c -21,-26 -2,-30 49,-12 50,17 111,23 111,10 0,-17 -62,-114 -75,-120 -22,-8 -18,-33 4,-33 22,0 57,42 90,107 21,43 22,43 53,30 59,-24 72,-55 76,-175 3,-78 -1,-125 -13,-171 -31,-120 -69,-169 -95,-122 -11,21 -148,58 -176,47 -20,-8 -47,-72 -49,-121 -2,-32 -8,-43 -31,-57 -37,-23 -40,-23 -69,7 -32,31 -33,62 -2,61 21,-1 22,2 19,54 -2,30 -8,60 -14,67 -15,19 -101,33 -198,33 -83,0 -91,2 -105,24 -15,22 -14,29 24,109 24,53 58,106 87,138 70,73 201,137 288,138 33,1 37,-1 26,-14 z"
       id="path2" />
    <path
       d="m 385,808 c -31,-17 -65,-50 -65,-63 0,-9 23,-13 70,-14 77,-1 79,1 59,58 -12,33 -30,38 -64,19 z"
       id="path4" />
    <path
       d="m 710,752 c 0,-4 9,-25 20,-47 11,-22 20,-51 20,-66 0,-31 -32,-75 -60,-84 -25,-8 -26,-35 -1,-35 25,0 68,35 87,72 18,36 12,90 -16,136 -18,29 -50,44 -50,24 z"
       id="path6" />
  </g>
  <path
     style="fill:#ffffff;stroke:#000000;stroke-width:0.21649"
     d="m 73.157836,137.15323 c -0.849603,-0.46252 -4.056576,-3.73725 -5.387957,-5.50179 -1.451901,-1.92427 -2.230246,-3.737 -2.339294,-5.4481 -0.08497,-1.33332 -0.03742,-1.59013 0.395682,-2.13701 0.687842,-0.86854 1.673517,-1.21858 3.431393,-1.21858 2.827628,0 3.121543,-0.81481 2.811298,-7.79363 -0.270857,-6.09283 -1.06974,-11.23714 -2.075876,-13.36733 C 68.715644,98.982198 60.877741,96.83871 48.385436,95.777597 46.837535,95.646117 41.430707,95.454199 36.370262,95.351113 26.343759,95.146861 24.961257,94.993968 23.189477,93.893414 22.185115,93.269548 20.953805,91.670014 20.063859,89.83308 18.630579,86.87465 19.010432,85.337127 24.182206,73.163379 29.763435,60.02582 36.239452,49.558453 42.264166,43.937005 52.718747,34.182201 66.606403,26.583915 78.693984,24.005333 c 3.060703,-0.652924 10.039726,-1.004244 10.8917,-0.548281 0.67498,0.361238 0.600914,0.702251 -0.517978,2.384909 -1.229648,1.849222 -1.46807,3.03449 -0.716314,3.56104 1.104236,0.773437 3.801519,0.295359 9.39368,-1.664977 5.196248,-1.821547 9.794768,-2.781765 13.530598,-2.825327 2.34061,-0.02729 3.53169,0.248093 3.77106,0.871895 0.44716,1.165279 -4.74325,11.262665 -9.04849,17.602873 -1.69589,2.497488 -2.69928,3.609555 -3.75649,4.163352 -1.0931,0.5726 -1.61422,1.581448 -1.51446,2.931917 0.0939,1.270987 0.52323,1.899996 1.61123,2.360499 1.84152,0.779428 3.58678,0.0057 6.21384,-2.754934 3.20039,-3.363054 6.63325,-9.003214 10.32195,-16.958868 1.22188,-2.635294 2.06073,-4.155232 2.61463,-4.73749 0.75845,-0.797301 0.88186,-0.849835 1.7631,-0.750507 0.52116,0.05874 2.04113,0.604849 3.37771,1.213571 10.0113,4.559459 11.93203,9.9275 12.4843,34.891075 0.27284,12.332409 -0.48697,19.668754 -3.07173,29.659079 -3.00748,11.624201 -6.53322,19.212141 -9.67065,20.812731 -1.55951,0.79561 -2.67083,0.26454 -4.15237,-1.9843 -1.20766,-1.83312 -1.77653,-2.2706 -4.89029,-3.76083 -7.84364,-3.75391 -21.376836,-6.69713 -24.164839,-5.2554 -2.317578,1.19847 -5.117278,6.81133 -6.779202,13.59101 -0.604026,2.46407 -0.845851,4.13443 -1.305904,9.02027 -0.422913,4.49141 -1.277724,6.16653 -4.279407,8.38609 -4.092901,3.02644 -6.078079,3.7898 -7.641822,2.9385 z M 101.3885,100.30276 c 3.90639,-1.532484 9.19996,-7.022187 11.52435,-11.951363 2.89602,-6.141363 2.22557,-14.944206 -1.75204,-23.003818 -2.01144,-4.075668 -4.8999,-6.955898 -7.19715,-7.176633 -0.94028,-0.09035 -1.11544,-0.04087 -1.42624,0.40285 -0.67016,0.956798 -0.40387,1.926262 2.19379,7.986649 2.37518,5.541331 3.51767,9.173319 3.84765,12.231664 0.40947,3.795158 -1.95265,9.105608 -5.73566,12.894752 -1.50399,1.50643 -2.20574,2.026358 -3.745148,2.774793 -2.314891,1.125465 -3.008463,1.915197 -3.146776,3.583068 -0.08488,1.02352 -0.02909,1.218166 0.527823,1.841457 1.028577,1.151171 2.679724,1.291281 4.909401,0.416581 z M 60.222873,62.95268 c 1.984844,-0.91623 2.147973,-2.558678 0.738268,-7.433206 -2.441691,-8.44297 -5.380639,-9.671878 -12.228302,-5.113204 -5.024715,3.34509 -9.710201,8.574252 -9.504165,10.606977 0.188613,1.860838 3.817504,2.497177 13.919534,2.440834 5.715264,-0.03188 6.119603,-0.06053 7.074665,-0.501401 z"
     id="path232"
     transform="scale(0.74999998)" />
</svg>
