<?xml version="1.0" encoding="UTF-8" standalone="no"?>
<svg
   xmlns:dc="http://purl.org/dc/elements/1.1/"
   xmlns:cc="http://creativecommons.org/ns#"
   xmlns:rdf="http://www.w3.org/1999/02/22-rdf-syntax-ns#"
   xmlns:svg="http://www.w3.org/2000/svg"
   xmlns="http://www.w3.org/2000/svg"
   xmlns:sodipodi="http://sodipodi.sourceforge.net/DTD/sodipodi-0.dtd"
   xmlns:inkscape="http://www.inkscape.org/namespaces/inkscape"
   version="1.1"
   id="Layer_1"
   x="0px"
   y="0px"
   viewBox="0 0 512 512"
   style="enable-background:new 0 0 512 512;"
   xml:space="preserve"
   sodipodi:docname="wf.svg"
   inkscape:version="1.0.1 (3bc2e813f5, 2020-09-07, custom)"><metadata
   id="metadata166"><rdf:RDF><cc:Work
       rdf:about=""><dc:format>image/svg+xml</dc:format><dc:type
         rdf:resource="http://purl.org/dc/dcmitype/StillImage" /></cc:Work></rdf:RDF></metadata><defs
   id="defs164" /><sodipodi:namedview
   pagecolor="#ffffff"
   bordercolor="#666666"
   borderopacity="1"
   objecttolerance="10"
   gridtolerance="10"
   guidetolerance="10"
   inkscape:pageopacity="0"
   inkscape:pageshadow="2"
   inkscape:window-width="1920"
   inkscape:window-height="1060"
   id="namedview162"
   showgrid="false"
   inkscape:zoom="1.7246094"
   inkscape:cx="256"
   inkscape:cy="255.42016"
   inkscape:window-x="0"
   inkscape:window-y="20"
   inkscape:window-maximized="0"
   inkscape:current-layer="Layer_1" />
<g
   id="g117"
   transform="matrix(0.8,0,0,0.9,51.2001,25.6)">
	<g
   id="g115">
		<path
   d="M 495.304,189.217 H 439.652 V 38.957 c 0,-9.22 -7.475,-16.696 -16.696,-16.696 h -66.783 c -9.22,0 -16.696,7.475 -16.696,16.696 V 89.044 H 306.086 V 38.957 c 0,-9.22 -7.475,-16.696 -16.696,-16.696 h -66.783 c -9.22,0 -16.696,7.475 -16.696,16.696 V 89.044 H 172.52 V 38.957 c 0,-9.22 -7.475,-16.696 -16.696,-16.696 h -66.78 c -9.22,0 -16.696,7.475 -16.696,16.696 V 189.218 H 16.696 C 7.475,189.217 0,196.693 0,205.913 v 267.13 c 0,9.22 7.475,16.696 16.696,16.696 19.041,0 452.498,0 478.609,0 9.22,0 16.696,-7.475 16.696,-16.696 V 205.913 C 512,196.693 504.525,189.217 495.304,189.217 Z M 72.348,456.348 H 33.391 V 222.609 h 38.957 z m 166.956,0 H 205.913 V 372.87 c 0,-21.766 13.959,-40.323 33.391,-47.215 z m 66.783,0 H 272.696 V 325.654 c 19.433,6.892 33.391,25.45 33.391,47.215 z m 100.174,0 H 339.478 V 372.87 c 0,-46.03 -37.448,-83.478 -83.478,-83.478 -46.03,0 -83.478,37.448 -83.478,83.478 v 83.478 h -66.783 c 0,-12.024 0,-390.37 0,-400.696 h 33.391 v 50.087 c 0,9.22 7.475,16.696 16.696,16.696 h 66.783 c 9.22,0 16.696,-7.475 16.696,-16.696 V 55.652 h 33.391 v 50.087 c 0,9.22 7.475,16.696 16.696,16.696 h 66.783 c 9.22,0 16.696,-7.475 16.696,-16.696 V 55.652 h 33.391 c -10e-4,10.336 -10e-4,388.675 -10e-4,400.696 z m 72.348,0 H 439.652 V 222.609 h 38.957 z"
   id="path113" />
	</g>
</g>
<g
   id="g123"
   transform="matrix(0.8,0,0,0.9,51.2001,25.6)">
	<g
   id="g121">
		<path
   d="m 189.217,155.826 c -27.618,0 -50.087,22.469 -50.087,50.087 v 33.391 c 0,9.22 7.475,16.696 16.696,16.696 h 66.783 c 9.22,0 16.696,-7.475 16.696,-16.696 v -33.391 c -0.001,-27.618 -22.47,-50.087 -50.088,-50.087 z m 16.696,66.783 h -33.391 v -16.696 c 0,-9.206 7.49,-16.696 16.696,-16.696 9.206,0 16.696,7.49 16.696,16.696 v 16.696 z"
   id="path119" />
	</g>
</g>
<g
   id="g129"
   transform="matrix(0.8,0,0,0.9,51.2001,25.6)">
	<g
   id="g127">
		<path
   d="m 322.783,155.826 c -27.618,0 -50.087,22.469 -50.087,50.087 v 33.391 c 0,9.22 7.475,16.696 16.696,16.696 h 66.783 c 9.22,0 16.696,-7.475 16.696,-16.696 v -33.391 c -10e-4,-27.618 -22.47,-50.087 -50.088,-50.087 z m 16.695,66.783 h -33.391 v -16.696 c 0,-9.206 7.49,-16.696 16.696,-16.696 9.206,0 16.696,7.49 16.696,16.696 v 16.696 z"
   id="path125" />
	</g>
</g>
<g
   id="g131"
   transform="matrix(0.8,0,0,0.9,51.2001,25.6)">
</g>
<g
   id="g133"
   transform="matrix(0.8,0,0,0.9,51.2001,25.6)">
</g>
<g
   id="g135"
   transform="matrix(0.8,0,0,0.9,51.2001,25.6)">
</g>
<g
   id="g137"
   transform="matrix(0.8,0,0,0.9,51.2001,25.6)">
</g>
<g
   id="g139"
   transform="matrix(0.8,0,0,0.9,51.2001,25.6)">
</g>
<g
   id="g141"
   transform="matrix(0.8,0,0,0.9,51.2001,25.6)">
</g>
<g
   id="g143"
   transform="matrix(0.8,0,0,0.9,51.2001,25.6)">
</g>
<g
   id="g145"
   transform="matrix(0.8,0,0,0.9,51.2001,25.6)">
</g>
<g
   id="g147"
   transform="matrix(0.8,0,0,0.9,51.2001,25.6)">
</g>
<g
   id="g149"
   transform="matrix(0.8,0,0,0.9,51.2001,25.6)">
</g>
<g
   id="g151"
   transform="matrix(0.8,0,0,0.9,51.2001,25.6)">
</g>
<g
   id="g153"
   transform="matrix(0.8,0,0,0.9,51.2001,25.6)">
</g>
<g
   id="g155"
   transform="matrix(0.8,0,0,0.9,51.2001,25.6)">
</g>
<g
   id="g157"
   transform="matrix(0.8,0,0,0.9,51.2001,25.6)">
</g>
<g
   id="g159"
   transform="matrix(0.8,0,0,0.9,51.2001,25.6)">
</g>
<path
   style="fill:#ffffff;stroke:#000000;stroke-width:0.579841"
   d="M 135.97282,256 V 75.669309 h 13.02273 13.02273 l 0.16866,24.498301 c 0.16814,24.42147 0.17302,24.50793 1.55556,27.56769 1.57581,3.48746 5.09338,6.80961 8.15427,7.70125 1.33161,0.3879 12.48781,0.53674 31.67371,0.42258 l 29.61803,-0.17623 2.83776,-1.75486 c 1.75739,-1.08676 3.50584,-2.83508 4.5926,-4.59228 l 1.75486,-2.83742 0.16796,-25.41452 0.16796,-25.414511 h 13.31335 13.31335 l 0.0255,24.498301 c 0.0191,18.4154 0.21022,25.0152 0.76958,26.58005 1.18926,3.32703 3.70991,6.15555 6.90396,7.74721 l 2.96585,1.47795 h 29.47669 c 23.6978,0 29.85076,-0.1563 31.38472,-0.79722 3.03965,-1.27005 5.9154,-4.16808 7.40392,-7.4613 1.37099,-3.03317 1.37871,-3.17067 1.54653,-27.54669 l 0.16866,-24.498301 h 13.02273 13.02273 V 256 436.33069 h -26.34565 -26.34564 l -0.2403,-42.47339 c -0.25999,-45.95579 -0.21188,-45.19755 -3.61544,-56.96942 -5.40205,-18.68401 -19.10051,-35.78092 -35.379,-44.15619 -9.11288,-4.68858 -17.69754,-6.75092 -28.10115,-6.75092 -10.40931,0 -18.98217,2.06078 -28.12231,6.76017 -16.18245,8.32018 -29.98036,25.54792 -35.35784,44.14694 -3.40357,11.77187 -3.35545,11.01363 -3.61544,56.96942 l -0.2403,42.47339 H 162.3185 135.97286 Z m 98.88696,-1.0899 c 2.73358,-1.2417 5.21735,-3.9845 6.76784,-7.47365 1.02961,-2.31697 1.08688,-3.87381 0.8959,-24.35334 -0.23004,-24.66807 -0.26809,-24.94056 -4.75535,-34.0548 -4.48921,-9.11819 -10.95488,-15.75123 -19.27546,-19.77441 -22.89839,-11.07185 -49.12696,3.79348 -55.35181,31.37124 -0.58042,2.57138 -0.78529,8.84943 -0.78529,24.06342 0,22.74499 -0.0279,22.54962 3.8549,26.97191 3.92605,4.47153 2.37263,4.28672 36.15416,4.30117 28.031,0.012 30.31657,-0.062 32.49511,-1.05154 z m 106.88979,-0.0356 c 1.21342,-0.61903 3.06216,-2.1004 4.10833,-3.29191 3.81063,-4.34009 3.78649,-4.16862 3.78649,-26.89402 0,-15.21399 -0.20488,-21.49204 -0.78529,-24.06342 -6.22484,-27.57776 -32.45342,-42.44309 -55.35181,-31.37124 -8.32058,4.02318 -14.78625,10.65622 -19.27546,19.77441 -4.48726,9.11424 -4.52531,9.38673 -4.75535,34.0548 -0.19098,20.47953 -0.13371,22.03637 0.8959,24.35334 1.55049,3.48915 4.03426,6.23195 6.76784,7.47365 2.17565,0.98825 4.49259,1.06534 32.37325,1.07717 28.59569,0.0121 30.13526,-0.0411 32.2361,-1.11279 z"
   id="path218" /><path
   style="fill:#ffffff;stroke:#000000;stroke-width:0.579841"
   d="m 77.988675,331.37939 v -104.9513 h 15.365798 15.365797 v 104.9513 104.9513 H 93.354473 77.988675 Z"
   id="path220" /><path
   style="fill:#ffffff;stroke:#000000;stroke-width:0.579841"
   d="m 403.27973,331.37939 v -104.9513 h 15.3658 15.3658 v 104.9513 104.9513 h -15.3658 -15.3658 z"
   id="path222" /><path
   style="fill:#ffffff;stroke:#000000;stroke-width:0.579841"
   d="m 216.139,395.30691 c 0.21117,-39.66968 0.25926,-41.17907 1.4571,-45.7284 3.48794,-13.24701 11.65274,-23.88434 22.60322,-29.4481 l 1.88449,-0.95747 v 58.57887 58.57888 h -13.08159 -13.08159 z"
   id="path224" /><path
   style="fill:#ffffff;stroke:#000000;stroke-width:0.579841"
   d="m 269.91619,377.75181 v -58.57887 l 1.88449,0.96846 c 11.12107,5.71525 19.08977,16.0932 22.60322,29.43711 1.19784,4.54933 1.24593,6.05872 1.4571,45.7284 l 0.21837,41.02378 h -13.08159 -13.08159 z"
   id="path226" /><path
   style="fill:#ffffff;stroke:#000000;stroke-width:0.579841"
   d="m 189.4255,216.42582 c 0.21226,-8.83204 0.32266,-9.60735 1.76188,-12.37383 5.12423,-9.84983 16.43019,-10.42978 22.18055,-1.13776 1.75048,2.82859 1.75354,2.84896 1.93558,12.88354 l 0.18234,10.05047 h -13.1434 -13.1434 z"
   id="path228" /><path
   style="fill:#ffffff;stroke:#000000;stroke-width:0.579841"
   d="m 296.69649,215.79777 c 0.18204,-10.03458 0.1851,-10.05495 1.93557,-12.88354 5.75037,-9.29202 17.05633,-8.71207 22.18056,1.13776 1.43922,2.76648 1.54962,3.54179 1.76188,12.37383 l 0.22645,9.42242 h -13.1434 -13.1434 z"
   id="path230" /></svg>
