<?xml version="1.0" encoding="UTF-8" standalone="no"?>
<svg
   xmlns:dc="http://purl.org/dc/elements/1.1/"
   xmlns:cc="http://creativecommons.org/ns#"
   xmlns:rdf="http://www.w3.org/1999/02/22-rdf-syntax-ns#"
   xmlns:svg="http://www.w3.org/2000/svg"
   xmlns="http://www.w3.org/2000/svg"
   xmlns:sodipodi="http://sodipodi.sourceforge.net/DTD/sodipodi-0.dtd"
   xmlns:inkscape="http://www.inkscape.org/namespaces/inkscape"
   height="100%"
   width="100%"
   version="1.1"
   viewBox="0 0 2048 2048"
   id="svg18"
   sodipodi:docname="wj.svg"
   inkscape:version="1.0.1 (3bc2e813f5, 2020-09-07, custom)">
  <metadata
     id="metadata24">
    <rdf:RDF>
      <cc:Work
         rdf:about="">
        <dc:format>image/svg+xml</dc:format>
        <dc:type
           rdf:resource="http://purl.org/dc/dcmitype/StillImage" />
      </cc:Work>
    </rdf:RDF>
  </metadata>
  <defs
     id="defs22" />
  <sodipodi:namedview
     pagecolor="#ffffff"
     bordercolor="#666666"
     borderopacity="1"
     objecttolerance="10"
     gridtolerance="10"
     guidetolerance="10"
     inkscape:pageopacity="0"
     inkscape:pageshadow="2"
     inkscape:window-width="960"
     inkscape:window-height="1060"
     id="namedview20"
     showgrid="false"
     inkscape:zoom="0.43115234"
     inkscape:cx="1024"
     inkscape:cy="1019.3612"
     inkscape:window-x="0"
     inkscape:window-y="20"
     inkscape:window-maximized="0"
     inkscape:current-layer="svg18"
     inkscape:document-rotation="0" />
  <path
     style="color:black;"
     d="m524 583q190 48 504 48 308 0 497-46l25 147q-201 53-526 53-327 0-525-54l25-148zm-61-61l-33 187q-1 0-3 4-5 7-28 18t-55 40q-44 37-68 60t-45 50q-61 84-68 203-10 115 93 229 104 114 281 107 66-4 155-32 29-12 59-23t61-24q16-8 28-16-5 21-5 42 0 78 55 133t134 56q78 0 133-55t55-133q0-16-4-42 14 9 27 15 46 20 121 47 86 29 155 33 177 8 280-107 101-114 94-229-8-119-69-203-20-27-45-50t-67-60q-33-28-56-39t-27-19q-1-2-2-3t-1-2l-32-188 66-247q-50-45-224-74t-402-29q-232 0-408 30t-221 77l66 244zm1081-117l-30 115q-198 44-490 44-291 0-489-44l-32-116q191 56 522 56 329 0 519-55zm26-94q-193 78-542 78-362 0-548-80 176-70 545-70 176 0 321 19t224 53zm-581 542q-1 39-3 77t-15 86q-41 134-124 216-43 42-132 78-102 40-193 40-158 0-234-113-43-60-43-150 0-98 48-161 29-37 74-74t84-67q175 63 538 68zm35 186q7 28 12 39 10 39 23 66 6 17 17 39t25 52q8 17 17 41t18 49q8 20 8 43 0 49-35 83t-85 35q-119 0-119-119 0-23 8-43 22-65 34-90 13-29 24-51t19-40q13-33 22-66 2-6 12-38zm34-186q172-2 315-20t224-47q38 30 83 66t75 75q48 61 48 161 0 90-43 150-77 112-234 112-94 0-193-39-87-35-132-78-84-84-124-216-14-47-16-85t-3-79zm1 706h-71v131h-83q-34 0-34 33v1q0 33 34 33h83v85q0 35 36 35 35 0 35-35v-85h86q33 0 33-33v-1q0-33-33-33l-85-1-1-130z"
     fill-rule="nonzero"
     transform="translate(0,2048) scale(1,-1)"
     display="block"
     fill="#000"
     id="path2" />
  <g
     fill-rule="nonzero"
     fill="#fff"
     id="g16">
    <path
       style="color:black;"
       d="m524 1465q190-48 504-48 308 0 497 46l25-147q-201-53-526-53-327 0-525 54l25 148z"
       display="block"
       id="path4" />
    <path
       style="color:black;"
       d="m1544 1643-30-115q-198-44-490-44-291 0-489 44l-32 116q191-56 522-56 329 0 519 55z"
       display="block"
       id="path6" />
    <path
       style="color:black;"
       d="m1570 1737q-193-78-542-78-362 0-548 80 176 70 545 70 176 0 321-19t224-53z"
       display="block"
       id="path8" />
    <path
       style="color:black;"
       d="m989 1195q-1-39-3-77t-15-86q-41-134-124-216-43-42-132-78-102-40-193-40-158 0-234 113-43 60-43 150 0 98 48 161 29 37 74 74t84 67q175-63 538-68z"
       display="block"
       id="path10" />
    <path
       style="color:black;"
       d="m1024 1009q7-28 12-39 10-39 23-66 6-17 17-39t25-52q8-17 17-41t18-49q8-20 8-43 0-49-35-83t-85-35q-119 0-119 119 0 23 8 43 22 65 34 90 13 29 24 51t19 40q13 33 22 66 2 6 12 38z"
       display="block"
       id="path12" />
    <path
       style="color:black;"
       d="m1058 1195q172 2 315 20t224 47q38-30 83-66t75-75q48-61 48-161 0-90-43-150-77-112-234-112-94 0-193 39-87 35-132 78-84 84-124 216-14 47-16 85t-3 79z"
       display="block"
       id="path14" />
  </g>
  <path
     style="fill:#ffdead;stroke:#000000;stroke-width:2.31937"
     d="m 402.04002,1222.8856 c -78.97653,-63.3445 -109.0257,-95.2273 -129.51882,-137.4224 -20.50881,-42.2274 -26.68969,-76.0749 -24.90985,-136.41086 1.39888,-47.42127 7.1464,-73.4727 23.59707,-106.957 57.20773,-116.44269 182.20942,-165.11072 342.26383,-133.25664 65.11314,12.95884 142.35219,43.77943 193.86695,77.35845 48.18801,31.41052 92.2843,85.80526 127.38287,157.13243 36.15075,73.46542 52.00811,141.85582 52.13136,224.83452 l 0.0367,24.7167 -21.45414,1.303 c -11.79977,0.7167 -42.32842,1.8925 -67.84145,2.6129 -167.1694,4.7203 -326.01012,26.348 -424.44394,57.7921 -10.20521,3.26 -19.80705,5.9406 -21.33742,5.9569 -1.53038,0.016 -23.92831,-16.9308 -49.77318,-37.6601 z"
     id="path26" />
  <path
     style="fill:#ffdead;stroke:#000000;stroke-width:2.31937"
     d="m 1021.6806,1000.5932 c 0,-1.90319 -6.6348,-23.76901 -14.7441,-48.59074 -10.37787,-31.76571 -21.37708,-59.0544 -37.1425,-92.14931 -26.92558,-56.52241 -34.66252,-74.96287 -50.42845,-120.19266 -11.58259,-33.2285 -12.05919,-35.56566 -12.25293,-60.08631 -0.40784,-51.62026 16.37999,-85.35268 51.13174,-102.74088 19.53171,-9.77278 35.77098,-13.08282 63.43624,-12.93016 28.1517,0.15533 46.6363,5.272 66.7537,18.47787 35.7844,23.49029 53.8534,56.38064 53.8534,98.02759 0,17.98229 -1.1655,23.4231 -11.2501,52.52126 -14.2737,41.1851 -29.3304,77.78112 -44.1582,107.32903 -19.2782,38.4164 -38.7402,86.25077 -50.3915,123.85437 -10.4095,33.5958 -14.8073,44.43044 -14.8073,36.47994 z"
     id="path28" />
  <path
     style="fill:#ffdead;stroke:#000000;stroke-width:2.31937"
     d="m 1587.6059,1257.9266 c -12.2323,-4.9673 -65.1811,-18.6046 -97.3901,-25.0835 -97.4593,-19.604 -223.4133,-32.4372 -363.8254,-37.0696 -36.1699,-1.1934 -66.2633,-2.6694 -66.874,-3.2801 -2.2257,-2.2257 3.8298,-95.9819 7.4372,-115.148 22.2915,-118.43532 93.2913,-238.29794 172.317,-290.90746 41.4325,-27.58279 109.9701,-57.37439 163.8075,-71.20315 53.2838,-13.68659 119.4691,-19.17943 165.8546,-13.76458 79.3393,9.26175 140.8377,43.01332 183.9693,100.96601 34.3476,46.15034 48.0855,91.55953 48.0855,158.9409 0,84.57918 -20.4199,135.49518 -77.6661,193.65638 -21.523,21.867 -123.2709,105.7267 -127.8767,105.3948 -1.1222,-0.081 -4.6497,-1.2066 -7.8388,-2.5017 z"
     id="path30" />
  <path
     style="fill:#ffdead;stroke:#000000;stroke-width:2.31937"
     d="m 525.11843,1461.7803 c -2.37305,-6.3142 -24.39312,-142.5764 -23.23752,-143.7959 0.90411,-0.9541 17.24953,-5.3153 36.32314,-9.6915 131.73261,-30.2244 279.90316,-43.48 485.79595,-43.4602 205.1075,0.02 348.1038,12.5053 485.7729,42.4145 18.2635,3.9678 34.4923,8.0089 36.064,8.9803 2.1942,1.3561 0.024,18.4066 -9.3462,73.4458 l -12.2038,71.6798 -41.9804,-8.5238 c -111.9087,-22.7222 -233.0633,-33.4778 -406.1208,-36.0535 -205.38781,-3.057 -378.94204,9.9724 -513.90356,38.5807 -32.2826,6.8431 -36.718,7.6097 -37.16371,6.4238 z"
     id="path32" />
  <path
     style="fill:#ffdead;stroke:#000000;stroke-width:2.31937"
     d="m 505.81171,1637.6391 c 0.67688,-2.6431 7.71429,-28.2487 15.63867,-56.9014 l 14.40798,-52.0958 19.67218,-3.9991 c 142.63039,-28.9949 299.37336,-40.7842 510.21806,-38.3755 112.7293,1.2878 147.2862,2.7851 226.1381,9.7979 98.3666,8.7485 217.2778,27.8639 221.272,35.5704 2.7401,5.2867 28.897,106.9344 27.7974,108.0227 -0.4935,0.4884 -17.5966,-3.1719 -38.0071,-8.134 -79.0632,-19.2214 -165.6814,-31.046 -291.0804,-39.7365 -57.8623,-4.0101 -315.02829,-4.034 -373.41786,-0.035 -126.90572,8.6919 -230.48412,23.4905 -308.99602,44.1473 -24.40797,6.4218 -24.85066,6.4543 -23.64301,1.7388 z"
     id="path34" />
  <path
     style="fill:#ffdead;stroke:#000000;stroke-width:2.31937"
     d="m 890.63647,1805.4384 c -133.02127,-5.7267 -258.59254,-21.7784 -335.14836,-42.8418 -29.63803,-8.1546 -71.91532,-22.8141 -70.23645,-24.3543 3.75298,-3.443 55.60995,-21.0938 88.33121,-30.0656 107.23293,-29.4022 232.09683,-44.0616 406.34918,-47.7064 198.70915,-4.1564 383.26585,14.3027 511.03615,51.1133 32.7897,9.4467 75.7634,23.9794 75.7634,25.6214 0,2.1977 -45.8972,16.8522 -80.0181,25.5489 -86.5519,22.0603 -202.3468,36.5496 -342.1065,42.8074 -58.9587,2.6399 -191.28255,2.5758 -253.97053,-0.1229 z"
     id="path36" />
  <path
     style="fill:#ffd700;stroke:#000000;stroke-width:2.31937"
     d="m 417.13792,1231.296 c -105.11415,-82.7829 -140.79134,-125.2272 -158.24287,-188.2578 -9.95248,-35.9459 -12.15925,-99.93767 -4.85568,-140.80494 8.38473,-46.91692 33.69285,-93.01263 70.29629,-128.03628 42.33873,-40.51141 91.21543,-62.39637 156.8719,-70.24072 73.90096,-8.82936 168.02908,8.85439 256.8786,48.25952 51.68034,22.92045 82.86422,43.67171 114.49037,76.18744 69.47343,71.42757 119.62234,183.46878 129.59215,289.53108 2.79178,29.6999 3.18477,73.0491 0.66258,73.0842 -0.95674,0.014 -39.31325,1.581 -85.2367,3.4837 -199.83707,8.2797 -312.0282,24.2093 -442.1871,62.7849 -2.44112,0.7234 -16.29962,-8.6887 -38.26954,-25.9911 z"
     id="path271" />
  <path
     style="fill:#ffd700;stroke:#000000;stroke-width:2.31937"
     d="m 1015.1376,970.05847 c -9.9635,-33.73002 -27.93345,-79.03619 -50.36031,-126.96904 -19.34572,-41.34752 -38.70677,-89.44064 -48.36806,-120.14691 -4.96973,-15.79517 -6.052,-23.71256 -6.02387,-44.06795 0.0753,-54.52732 14.24945,-81.67848 52.54665,-100.65549 19.67192,-9.74782 20.03263,-9.82602 49.57519,-10.74648 25.38,-0.79076 32.125,-0.20857 45.8375,3.95648 51.7927,15.73156 85.0036,63.94023 80.892,117.42253 -1.975,25.69187 -20.9246,77.66931 -55.176,151.34427 -24.0972,51.83331 -39.5732,90.42257 -51.6218,128.71915 -4.7158,14.9889 -8.8046,27.24524 -9.0863,27.23631 -0.2818,-0.009 -3.9785,-11.75072 -8.215,-26.09287 z"
     id="path273" />
  <path
     style="fill:#ffd700;stroke:#000000;stroke-width:2.31937"
     d="m 1572.53,1251.0333 c -42.7708,-13.833 -115.9529,-28.2636 -192.5073,-37.96 -78.5861,-9.9537 -147.023,-15.2411 -257.4302,-19.8889 -33.1563,-1.3958 -60.7361,-2.9898 -61.2886,-3.5423 -0.5525,-0.5525 0.7611,-25.2625 2.9191,-54.9111 4.0177,-55.2003 8.3515,-79.6154 20.8906,-117.6891 27.267,-82.79395 76.6527,-162.22952 129.0744,-207.61244 20.2389,-17.52136 40.4283,-30.5767 70.8839,-45.83654 85.4876,-42.83372 156.3388,-60.57815 242.2305,-60.66584 58.999,-0.0602 94.8796,7.53399 137.7649,29.15833 24.5797,12.39396 35.9033,20.40937 56.6083,40.07023 29.0557,27.5904 49.0291,57.017 61.1179,90.04417 9.8097,26.80058 13.3482,46.57766 15.0475,84.1014 4.4889,99.12339 -21.9256,159.28929 -100.1967,228.22429 -32.1667,28.3297 -100.6145,83.8841 -102.8729,83.4947 -0.7519,-0.1297 -10.7605,-3.2738 -22.2414,-6.9869 z"
     id="path275" />
  <path
     style="fill:#ffd700;stroke:#000000;stroke-width:2.31937"
     d="m 526.54804,1457.3015 c -1.01913,-2.8739 -17.69496,-104.0354 -21.01245,-127.469 l -1.52342,-10.7609 25.15813,-5.9898 c 145.32543,-34.6002 298.77844,-47.3921 537.738,-44.8258 190.73,2.0483 298.375,11.6124 424.4439,37.7112 49.5635,10.2606 50.9344,10.752 51.6803,18.5284 0.646,6.7338 -19.0498,130.3605 -21.0943,132.405 -0.5806,0.5806 -20.2245,-2.5777 -43.6532,-7.0185 -137.7499,-26.1098 -250.1398,-34.6722 -456.6044,-34.7866 -152.8063,-0.085 -254.3307,5.7607 -359.50167,20.6985 -35.87517,5.0955 -119.46395,20.0537 -130.47575,23.3487 -2.23867,0.6698 -4.55849,-0.1587 -5.15514,-1.8412 z"
     id="path277" />
  <path
     style="fill:#ffd700;stroke:#000000;stroke-width:2.31937"
     d="m 509.10079,1637.0711 c 0,-1.0303 6.44754,-25.4782 14.32788,-54.3286 l 14.32788,-52.4551 14.08435,-2.7075 c 97.94195,-18.8279 175.90088,-28.3312 291.24857,-35.5039 60.51172,-3.7627 312.05963,-3.6592 368.77913,0.1518 112.7194,7.5737 245.3073,24.3589 286.9714,36.3296 14.0052,4.0239 11.4502,-1.8756 29.4564,68.0134 l 10.3767,40.2764 -6.2652,-1.3154 c -3.4458,-0.7235 -26.0175,-5.6008 -50.1592,-10.8384 -66.0977,-14.3402 -115.5628,-21.4784 -219.354,-31.6546 -50.1275,-4.9147 -361.65604,-7.2592 -425.60365,-3.203 -122.09354,7.7444 -255.28747,27.4285 -324.13137,47.9016 -2.23239,0.6639 -4.05889,0.3641 -4.05889,-0.6663 z"
     id="path279" />
  <path
     style="fill:#ffd700;stroke:#000000;stroke-width:2.31937"
     d="m 918.46886,1804.0679 c -122.29056,-3.5409 -264.15213,-19.7468 -344.42583,-39.3463 -29.45286,-7.1912 -81.1778,-24.0709 -81.1778,-26.4913 0,-2.601 66.47165,-23.9567 103.40188,-33.2205 80.00299,-20.0685 166.81771,-31.8795 286.25158,-38.9442 63.16579,-3.7363 242.48191,-3.7164 295.71911,0.033 150.0963,10.5705 244.4379,26.4594 342.9309,57.7558 l 41.4134,13.1592 -22.8584,7.6941 c -132.1252,44.4732 -365.4509,66.7673 -621.25484,59.3604 z"
     id="path281" />
</svg>
