<?xml version="1.0" encoding="UTF-8" standalone="no"?>
<svg
   xmlns:dc="http://purl.org/dc/elements/1.1/"
   xmlns:cc="http://creativecommons.org/ns#"
   xmlns:rdf="http://www.w3.org/1999/02/22-rdf-syntax-ns#"
   xmlns:svg="http://www.w3.org/2000/svg"
   xmlns="http://www.w3.org/2000/svg"
   xmlns:sodipodi="http://sodipodi.sourceforge.net/DTD/sodipodi-0.dtd"
   xmlns:inkscape="http://www.inkscape.org/namespaces/inkscape"
   height="100%"
   width="100%"
   version="1.1"
   viewBox="0 0 2048 2048"
   id="svg18"
   sodipodi:docname="wj.svg"
   inkscape:version="1.0.1 (3bc2e813f5, 2020-09-07, custom)">
  <metadata
     id="metadata24">
    <rdf:RDF>
      <cc:Work
         rdf:about="">
        <dc:format>image/svg+xml</dc:format>
        <dc:type
           rdf:resource="http://purl.org/dc/dcmitype/StillImage" />
      </cc:Work>
    </rdf:RDF>
  </metadata>
  <defs
     id="defs22" />
  <sodipodi:namedview
     pagecolor="#ffffff"
     bordercolor="#666666"
     borderopacity="1"
     objecttolerance="10"
     gridtolerance="10"
     guidetolerance="10"
     inkscape:pageopacity="0"
     inkscape:pageshadow="2"
     inkscape:window-width="960"
     inkscape:window-height="1060"
     id="namedview20"
     showgrid="false"
     inkscape:zoom="0.43115234"
     inkscape:cx="1024"
     inkscape:cy="1021.6806"
     inkscape:window-x="0"
     inkscape:window-y="20"
     inkscape:window-maximized="0"
     inkscape:current-layer="svg18" />
  <path
     style="color:black;"
     d="m524 583q190 48 504 48 308 0 497-46l25 147q-201 53-526 53-327 0-525-54l25-148zm-61-61l-33 187q-1 0-3 4-5 7-28 18t-55 40q-44 37-68 60t-45 50q-61 84-68 203-10 115 93 229 104 114 281 107 66-4 155-32 29-12 59-23t61-24q16-8 28-16-5 21-5 42 0 78 55 133t134 56q78 0 133-55t55-133q0-16-4-42 14 9 27 15 46 20 121 47 86 29 155 33 177 8 280-107 101-114 94-229-8-119-69-203-20-27-45-50t-67-60q-33-28-56-39t-27-19q-1-2-2-3t-1-2l-32-188 66-247q-50-45-224-74t-402-29q-232 0-408 30t-221 77l66 244zm1081-117l-30 115q-198 44-490 44-291 0-489-44l-32-116q191 56 522 56 329 0 519-55zm26-94q-193 78-542 78-362 0-548-80 176-70 545-70 176 0 321 19t224 53zm-581 542q-1 39-3 77t-15 86q-41 134-124 216-43 42-132 78-102 40-193 40-158 0-234-113-43-60-43-150 0-98 48-161 29-37 74-74t84-67q175 63 538 68zm35 186q7 28 12 39 10 39 23 66 6 17 17 39t25 52q8 17 17 41t18 49q8 20 8 43 0 49-35 83t-85 35q-119 0-119-119 0-23 8-43 22-65 34-90 13-29 24-51t19-40q13-33 22-66 2-6 12-38zm34-186q172-2 315-20t224-47q38 30 83 66t75 75q48 61 48 161 0 90-43 150-77 112-234 112-94 0-193-39-87-35-132-78-84-84-124-216-14-47-16-85t-3-79zm1 706h-71v131h-83q-34 0-34 33v1q0 33 34 33h83v85q0 35 36 35 35 0 35-35v-85h86q33 0 33-33v-1q0-33-33-33l-85-1-1-130z"
     fill-rule="nonzero"
     transform="translate(0,2048) scale(1,-1)"
     display="block"
     fill="#000"
     id="path2" />
  <g
     fill-rule="nonzero"
     fill="#fff"
     id="g16">
    <path
       style="color:black;"
       d="m524 1465q190-48 504-48 308 0 497 46l25-147q-201-53-526-53-327 0-525 54l25 148z"
       display="block"
       id="path4" />
    <path
       style="color:black;"
       d="m1544 1643-30-115q-198-44-490-44-291 0-489 44l-32 116q191-56 522-56 329 0 519 55z"
       display="block"
       id="path6" />
    <path
       style="color:black;"
       d="m1570 1737q-193-78-542-78-362 0-548 80 176 70 545 70 176 0 321-19t224-53z"
       display="block"
       id="path8" />
    <path
       style="color:black;"
       d="m989 1195q-1-39-3-77t-15-86q-41-134-124-216-43-42-132-78-102-40-193-40-158 0-234 113-43 60-43 150 0 98 48 161 29 37 74 74t84 67q175-63 538-68z"
       display="block"
       id="path10" />
    <path
       style="color:black;"
       d="m1024 1009q7-28 12-39 10-39 23-66 6-17 17-39t25-52q8-17 17-41t18-49q8-20 8-43 0-49-35-83t-85-35q-119 0-119 119 0 23 8 43 22 65 34 90 13 29 24 51t19 40q13 33 22 66 2 6 12 38z"
       display="block"
       id="path12" />
    <path
       style="color:black;"
       d="m1058 1195q172 2 315 20t224 47q38-30 83-66t75-75q48-61 48-161 0-90-43-150-77-112-234-112-94 0-193 39-87 35-132 78-84 84-124 216-14 47-16 85t-3 79z"
       display="block"
       id="path14" />
  </g>
  <path
     style="fill:#ffdead;stroke:#000000;stroke-width:2.31937"
     d="m 402.04002,1222.8856 c -78.97653,-63.3445 -109.0257,-95.2273 -129.51882,-137.4224 -20.50881,-42.2274 -26.68969,-76.0749 -24.90985,-136.41086 1.39888,-47.42127 7.1464,-73.4727 23.59707,-106.957 57.20773,-116.44269 182.20942,-165.11072 342.26383,-133.25664 65.11314,12.95884 142.35219,43.77943 193.86695,77.35845 48.18801,31.41052 92.2843,85.80526 127.38287,157.13243 36.15075,73.46542 52.00811,141.85582 52.13136,224.83452 l 0.0367,24.7167 -21.45414,1.303 c -11.79977,0.7167 -42.32842,1.8925 -67.84145,2.6129 -167.1694,4.7203 -326.01012,26.348 -424.44394,57.7921 -10.20521,3.26 -19.80705,5.9406 -21.33742,5.9569 -1.53038,0.016 -23.92831,-16.9308 -49.77318,-37.6601 z"
     id="path26" />
  <path
     style="fill:#ffdead;stroke:#000000;stroke-width:2.31937"
     d="m 1021.6806,1000.5932 c 0,-1.90319 -6.6348,-23.76901 -14.7441,-48.59074 -10.37787,-31.76571 -21.37708,-59.0544 -37.1425,-92.14931 -26.92558,-56.52241 -34.66252,-74.96287 -50.42845,-120.19266 -11.58259,-33.2285 -12.05919,-35.56566 -12.25293,-60.08631 -0.40784,-51.62026 16.37999,-85.35268 51.13174,-102.74088 19.53171,-9.77278 35.77098,-13.08282 63.43624,-12.93016 28.1517,0.15533 46.6363,5.272 66.7537,18.47787 35.7844,23.49029 53.8534,56.38064 53.8534,98.02759 0,17.98229 -1.1655,23.4231 -11.2501,52.52126 -14.2737,41.1851 -29.3304,77.78112 -44.1582,107.32903 -19.2782,38.4164 -38.7402,86.25077 -50.3915,123.85437 -10.4095,33.5958 -14.8073,44.43044 -14.8073,36.47994 z"
     id="path28" />
  <path
     style="fill:#ffdead;stroke:#000000;stroke-width:2.31937"
     d="m 1587.6059,1257.9266 c -12.2323,-4.9673 -65.1811,-18.6046 -97.3901,-25.0835 -97.4593,-19.604 -223.4133,-32.4372 -363.8254,-37.0696 -36.1699,-1.1934 -66.2633,-2.6694 -66.874,-3.2801 -2.2257,-2.2257 3.8298,-95.9819 7.4372,-115.148 22.2915,-118.43532 93.2913,-238.29794 172.317,-290.90746 41.4325,-27.58279 109.9701,-57.37439 163.8075,-71.20315 53.2838,-13.68659 119.4691,-19.17943 165.8546,-13.76458 79.3393,9.26175 140.8377,43.01332 183.9693,100.96601 34.3476,46.15034 48.0855,91.55953 48.0855,158.9409 0,84.57918 -20.4199,135.49518 -77.6661,193.65638 -21.523,21.867 -123.2709,105.7267 -127.8767,105.3948 -1.1222,-0.081 -4.6497,-1.2066 -7.8388,-2.5017 z"
     id="path30" />
  <path
     style="fill:#ffdead;stroke:#000000;stroke-width:2.31937"
     d="m 525.11843,1461.7803 c -2.37305,-6.3142 -24.39312,-142.5764 -23.23752,-143.7959 0.90411,-0.9541 17.24953,-5.3153 36.32314,-9.6915 131.73261,-30.2244 279.90316,-43.48 485.79595,-43.4602 205.1075,0.02 348.1038,12.5053 485.7729,42.4145 18.2635,3.9678 34.4923,8.0089 36.064,8.9803 2.1942,1.3561 0.024,18.4066 -9.3462,73.4458 l -12.2038,71.6798 -41.9804,-8.5238 c -111.9087,-22.7222 -233.0633,-33.4778 -406.1208,-36.0535 -205.38781,-3.057 -378.94204,9.9724 -513.90356,38.5807 -32.2826,6.8431 -36.718,7.6097 -37.16371,6.4238 z"
     id="path32" />
  <path
     style="fill:#ffdead;stroke:#000000;stroke-width:2.31937"
     d="m 505.81171,1637.6391 c 0.67688,-2.6431 7.71429,-28.2487 15.63867,-56.9014 l 14.40798,-52.0958 19.67218,-3.9991 c 142.63039,-28.9949 299.37336,-40.7842 510.21806,-38.3755 112.7293,1.2878 147.2862,2.7851 226.1381,9.7979 98.3666,8.7485 217.2778,27.8639 221.272,35.5704 2.7401,5.2867 28.897,106.9344 27.7974,108.0227 -0.4935,0.4884 -17.5966,-3.1719 -38.0071,-8.134 -79.0632,-19.2214 -165.6814,-31.046 -291.0804,-39.7365 -57.8623,-4.0101 -315.02829,-4.034 -373.41786,-0.035 -126.90572,8.6919 -230.48412,23.4905 -308.99602,44.1473 -24.40797,6.4218 -24.85066,6.4543 -23.64301,1.7388 z"
     id="path34" />
  <path
     style="fill:#ffdead;stroke:#000000;stroke-width:2.31937"
     d="m 890.63647,1805.4384 c -133.02127,-5.7267 -258.59254,-21.7784 -335.14836,-42.8418 -29.63803,-8.1546 -71.91532,-22.8141 -70.23645,-24.3543 3.75298,-3.443 55.60995,-21.0938 88.33121,-30.0656 107.23293,-29.4022 232.09683,-44.0616 406.34918,-47.7064 198.70915,-4.1564 383.26585,14.3027 511.03615,51.1133 32.7897,9.4467 75.7634,23.9794 75.7634,25.6214 0,2.1977 -45.8972,16.8522 -80.0181,25.5489 -86.5519,22.0603 -202.3468,36.5496 -342.1065,42.8074 -58.9587,2.6399 -191.28255,2.5758 -253.97053,-0.1229 z"
     id="path36" />
</svg>
