<?xml version="1.0" encoding="UTF-8" standalone="no"?>
<svg
   xmlns:dc="http://purl.org/dc/elements/1.1/"
   xmlns:cc="http://creativecommons.org/ns#"
   xmlns:rdf="http://www.w3.org/1999/02/22-rdf-syntax-ns#"
   xmlns:svg="http://www.w3.org/2000/svg"
   xmlns="http://www.w3.org/2000/svg"
   xmlns:sodipodi="http://sodipodi.sourceforge.net/DTD/sodipodi-0.dtd"
   xmlns:inkscape="http://www.inkscape.org/namespaces/inkscape"
   height="100%"
   width="100%"
   version="1.1"
   viewBox="0 0 2048 2048"
   id="svg6"
   sodipodi:docname="wm.svg"
   inkscape:version="1.0.1 (3bc2e813f5, 2020-09-07, custom)">
  <metadata
     id="metadata12">
    <rdf:RDF>
      <cc:Work
         rdf:about="">
        <dc:format>image/svg+xml</dc:format>
        <dc:type
           rdf:resource="http://purl.org/dc/dcmitype/StillImage" />
      </cc:Work>
    </rdf:RDF>
  </metadata>
  <defs
     id="defs10" />
  <sodipodi:namedview
     pagecolor="#ffffff"
     bordercolor="#666666"
     borderopacity="1"
     objecttolerance="10"
     gridtolerance="10"
     guidetolerance="10"
     inkscape:pageopacity="0"
     inkscape:pageshadow="2"
     inkscape:window-width="1920"
     inkscape:window-height="1060"
     id="namedview8"
     showgrid="false"
     inkscape:zoom="0.43115234"
     inkscape:cx="1024"
     inkscape:cy="1021.6806"
     inkscape:window-x="0"
     inkscape:window-y="20"
     inkscape:window-maximized="0"
     inkscape:current-layer="svg6" />
  <path
     style="color:black;"
     d="m1756 1774q-1 0 2-54t3-118q1-125 0-258t-36-267q-34-128-75-218t-89-157q-72-108-196-183t-259-98q9 49 8 96-2 36-34 36-37 0-33-36 3-132-94-226-76 80-82 186-2 35-36 31-32-1-32-37 0 0 2-8-41 13-86 37-29 20-47-10t16-47q43-22 65-33-86-88-196-142 12 139 76 263 17 26-8 46-28 22-47-7-7-10-20-36-21 21-28 31-7 9-24 40t-26 51q-9 25-8 40t3 35q-9 59-40 111t-81 127q-47 72-72 108t-38 92q-9 34 0 82t39 76q46 47 89 43 14 0 37-11t37-42q26-57 43-57 25 0 27 28 0 6-16 50-9 20-24 42-19 26-17 22 16 57 53 20 11-11 25-41t44-81q35-59 75-96t71-60q18-13 44-30t70-35q35-14 77-34t76-53q46-45 71-111 13-37 10-91-9-34 34-34 32 0 36 33 0 113-64 206 21 64 11 140-9 61-42 130t-136 155q-207 172-196 354 0 0 170 0t321 0h547z"
     fill-rule="nonzero"
     display="block"
     fill="#fff"
     id="path2" />
  <path
     style="color:black;"
     d="m697 1359q13-20 10-42-10-64-71-54-18 3-29 12-4-5-12-22-11-32-42-22-31 12-24 45 45 115 163 158 34 10 45-20 12-32-18-44-6-3-11-5t-11-6zm-297-477q-29-18-35-48 1-33-31-36-35-4-36 30 4 66 59 105 26 21 48-4 22-27-5-47zm679 815q157-10 291-81t228-182q66-78 124-188t94-233q40-143 50-300t11-292v-218t-155 0-404 0h-671q-9 0-9 49t7 79q4 24 19 68t50 107q16 32 76 93t138 143q45 46 70 116t22 127q-37-30-81-49-212-76-307-220-7-9-45-81-20-38-34-52-19-19-55-21-56-3-87 54-42-12-75-10-56 21-81 45-51 51-66 102t-16 110q0 84 104 222 122 159 130 242 0 36 7 81 6 31 25 60 13 20 17 27t17 23q9 12 15 18t15 18q11 13 28 30-53 146-43 301 199-71 334-223 33 113 130 183 80-56 127-148zm677-1423q-1 0 2 54t3 118q1 125 0 258t-36 267q-34 128-75 218t-89 157q-72 108-196 183t-259 98q9-49 8-96-2-36-34-36-37 0-33 36 3 132-94 226-76-80-82-186-2-35-36-31-32 1-32 37 0 0 2 8-41-13-86-37-29-20-47 10t16 47q43 22 65 33-86 88-196 142 12-139 76-263 17-26-8-46-28-22-47 7-7 10-20 36-21-21-28-31-7-9-24-40t-26-51q-9-25-8-40t3-35q-9-59-40-111t-81-127q-47-72-72-108t-38-92q-9-34 0-82t39-76q46-47 89-43 14 0 37 11t37 42q26 57 43 57 25 0 27-28 0-6-16-50-9-20-24-42-19-26-17-22 16-57 53-20 11 11 25 41t44 81q35 59 75 96t71 60q18 13 44 30t70 35q35 14 77 34t76 53q46 45 71 111 13 37 10 91-9 34 34 34 32 0 36-33 0-113-64-206 21-64 11-140-9-61-42-130t-136-155q-207-172-196-354 0 0 170 0t321 0h547z"
     fill-rule="nonzero"
     transform="translate(0,2048) scale(1,-1)"
     display="block"
     fill="#000"
     id="path4" />
  <path
     style="fill:#ffdead;stroke:#000000;stroke-width:2.31937"
     d="m 718.84132,1770.5735 c -2.56462,-4.1496 1.1986,-49.9663 6.11049,-74.3944 11.48888,-57.1374 41.08721,-115.8949 86.82195,-172.3558 24.77804,-30.5892 56.85571,-62.4674 107.85478,-107.1841 63.39692,-55.5873 89.68046,-83.5791 115.10956,-122.5908 26.4423,-40.566 51.845,-110.549 58.7258,-161.7859 5.0893,-37.8973 1.5831,-94.7107 -7.7322,-125.2886 l -3.4204,-11.22767 7.9164,-12.37528 c 20.8749,-32.63269 40.5872,-81.36467 48.3471,-119.52153 1.9585,-9.63029 4.6818,-29.55401 6.0517,-44.27498 3.5685,-38.34649 -0.5238,-52.97107 -17.0117,-60.79513 -15.2978,-7.25931 -43.5558,-3.32174 -51.7847,7.21585 -2.3976,3.07026 -2.8124,9.29943 -1.7358,26.06826 2.8888,44.99716 -5.552,83.90684 -27.1889,125.33338 -14.9158,28.55819 -30.7181,49.82953 -54.42071,73.25515 -31.50968,31.14145 -64.24611,50.29855 -140.82554,82.40965 -58.91773,24.7053 -97.86033,47.5615 -144.25258,84.6647 -78.43309,62.7286 -112.29161,106.2782 -168.32044,216.4979 -13.3592,26.2802 -19.98472,36.5458 -30.31313,46.9672 -10.91972,11.0181 -14.58524,13.3363 -21.0867,13.3363 -9.25617,0 -17.92993,-7.9604 -23.54276,-21.6066 l -3.64014,-8.8501 12.41761,-17.8226 c 18.35678,-26.3469 25.9132,-40.9047 35.20785,-67.8297 12.34341,-35.7568 9.6545,-51.5333 -9.88207,-57.981 -16.74775,-5.5272 -28.62984,5.8932 -49.30018,47.3849 -15.91599,31.9482 -24.10634,41.1514 -46.1372,51.8429 -15.97898,7.7545 -19.68797,8.6379 -36.34961,8.6575 -16.1456,0.018 -20.64104,-0.9608 -34.62062,-7.5456 -19.30608,-9.0938 -44.31998,-28.813 -57.42909,-45.2732 -21.37841,-26.8434 -32.6282,-63.5775 -32.80374,-107.1146 -0.10366,-25.7112 1.87942,-36.6966 12.77002,-70.7407 8.42765,-26.3448 19.63997,-45.6267 74.85286,-128.7248 56.10526,-84.44115 98.95063,-151.58241 113.22569,-177.43146 11.69002,-21.16811 21.92577,-48.02971 28.20767,-74.02516 4.57595,-18.93597 5.20554,-26.35113 4.25045,-50.06091 -0.98065,-24.3443 -0.486,-29.72177 3.94696,-42.90827 9.80247,-29.15907 46.85824,-93.80979 65.71287,-114.64845 l 12.44634,-13.75602 9.8144,17.7793 c 10.39612,18.83314 20.39567,30.48633 28.31776,33.00071 18.00584,5.71482 46.15327,-16.59453 46.15327,-36.5806 0,-3.10943 -5.33027,-16.51998 -11.84507,-29.80123 -38.0045,-77.47716 -59.78879,-152.21988 -70.05018,-240.3449 l -1.13807,-9.77362 14.26413,7.18956 c 34.35064,17.3138 82.35465,48.94793 118.60374,78.15862 17.63469,14.2106 56.85628,51.08812 56.85628,53.45829 0,0.80845 -16.84326,10.26437 -37.42946,21.01313 -39.75154,20.75564 -46.0415,26.33468 -46.05903,40.85321 -0.0209,16.82208 18.30494,38.05449 32.84407,38.05449 3.65957,0 18.11371,-5.74739 32.12034,-12.77197 19.82545,-9.94285 69.46689,-31.3629 72.49595,-31.28168 0.29326,0.008 0.63057,5.04941 0.74955,11.20345 0.44528,23.02885 13.89467,34.04277 39.57383,32.40764 20.23925,-1.28873 25.7426,-6.76241 28.90014,-28.74434 8.84453,-61.5733 13.86243,-80.2427 30.49391,-113.45409 10.84512,-21.65669 22.53305,-39.3534 39.28945,-59.48823 l 12.01763,-14.44067 14.73523,16.09016 c 50.20552,54.82205 77.14722,122.94156 77.14722,195.05963 0,41.98189 6.7087,50.81195 37.2919,49.08383 17.4892,-0.98821 23.7293,-4.73621 29.1301,-17.49636 5.2983,-12.51797 3.5792,-75.87465 -2.8746,-105.94341 l -1.4415,-6.71602 10.1158,1.59661 c 60.926,9.61616 149.6481,41.75652 216.2861,78.35157 133.1705,73.13206 220.9219,167.40865 296.6811,318.74223 51.1841,102.24331 95.3016,239.12926 115.039,356.93866 12.9062,77.0349 12.9771,78.7311 12.9771,310.795 0,118.6356 -0.8913,231.0959 -1.9807,249.9117 l -1.9806,34.2107 h -516.8406 c -377.05888,0 -517.27206,-0.6982 -518.43608,-2.5817 z M 352.63469,1245.653 c 7.09991,-4.652 11.94181,-14.9711 13.79775,-29.4058 1.94729,-15.1453 13.87539,-33.5285 29.83299,-45.9777 20.91885,-16.3197 24.03466,-25.2663 15.17399,-43.57 -6.57931,-13.5911 -18.55774,-21.5217 -32.50637,-21.5217 -9.09212,0 -12.95605,1.5864 -24.39477,10.016 -36.02838,26.5505 -56.49977,64.3176 -56.49977,104.2348 0,16.0593 4.61291,25.3183 14.81638,29.7394 7.35251,3.1857 33.01378,0.9183 39.7798,-3.515 z M 581.12181,816.35437 c 4.82704,-2.49617 9.61618,-9.04632 16.22577,-22.19213 5.15755,-10.25786 10.11274,-18.26355 11.01149,-17.79037 18.68832,9.83854 43.39357,13.47331 60.32956,8.87598 21.05254,-5.71478 37.09659,-28.99268 39.26336,-56.96615 0.98272,-12.68714 -0.5955,-20.52287 -7.2678,-36.08405 -1.1845,-2.76248 2.29821,-5.41704 14.80653,-11.28575 8.99543,-4.22051 18.42337,-10.30277 20.95099,-13.51611 9.39267,-11.94084 3.4768,-40.19493 -10.76867,-51.43101 -27.88184,-21.99176 -125.90225,35.35312 -167.86656,98.20696 -35.98042,53.89123 -39.65003,86.66774 -11.2756,100.71269 11.86908,5.87502 24.99388,6.43276 34.59093,1.46994 z"
     id="path14" />
</svg>
