<?xml version="1.0" encoding="UTF-8" standalone="no"?>
<svg
   xmlns:dc="http://purl.org/dc/elements/1.1/"
   xmlns:cc="http://creativecommons.org/ns#"
   xmlns:rdf="http://www.w3.org/1999/02/22-rdf-syntax-ns#"
   xmlns:svg="http://www.w3.org/2000/svg"
   xmlns="http://www.w3.org/2000/svg"
   xmlns:sodipodi="http://sodipodi.sourceforge.net/DTD/sodipodi-0.dtd"
   xmlns:inkscape="http://www.inkscape.org/namespaces/inkscape"
   height="100%"
   width="100%"
   version="1.1"
   viewBox="0 0 2048 2048"
   id="svg34"
   sodipodi:docname="ws.svg"
   inkscape:version="1.0.1 (3bc2e813f5, 2020-09-07, custom)">
  <metadata
     id="metadata40">
    <rdf:RDF>
      <cc:Work
         rdf:about="">
        <dc:format>image/svg+xml</dc:format>
        <dc:type
           rdf:resource="http://purl.org/dc/dcmitype/StillImage" />
      </cc:Work>
    </rdf:RDF>
  </metadata>
  <defs
     id="defs38" />
  <sodipodi:namedview
     pagecolor="#ffffff"
     bordercolor="#666666"
     borderopacity="1"
     objecttolerance="10"
     gridtolerance="10"
     guidetolerance="10"
     inkscape:pageopacity="0"
     inkscape:pageshadow="2"
     inkscape:window-width="1920"
     inkscape:window-height="1060"
     id="namedview36"
     showgrid="false"
     inkscape:zoom="0.43115234"
     inkscape:cx="1024"
     inkscape:cy="1021.6806"
     inkscape:window-x="0"
     inkscape:window-y="20"
     inkscape:window-maximized="0"
     inkscape:current-layer="svg34" />
  <path
     style="color:black;"
     d="m1024 1621q-57 0-96 40t-40 97q0 56 39 96t97 40q56 0 96-40t41-96q0-57-40-97t-97-40zm0 70q67 0 67 67 0 66-67 66-66 0-66-66 0-67 66-67zm509-1007q-193 49-505 49-320 0-511-50l15-96q195 46 496 46 299 0 488-45l17 96zm25 60 65 115q-48-19-98-19-134 0-214 109-60-50-134-50-96 0-153 75-64-70-153-70-72 0-132 49-84-107-217-107-51 0-101 19l70-120q194 56 533 56 345 0 534-57zm-448 239-85 489-85-483q3 2 14 10 23 45 70 45 51 0 66-45 6-6 20-16zm277-19v463l-165-454q19 7 32 18 20 25 54 25 40 0 64-35 3-4 7-8t8-9zm-562 14-164 449v-457q3 4 9 10 20 42 66 42 38 0 62-32 27-12 27-12zm-254-56-215 371 55-338q57-40 111-40 21 0 49 7zm903-5q23-7 51-7 61 0 114 38l55 346-220-377zm60-506-30 113q-196 43-480 43-281 0-479-43l-31-114q186 56 511 56 317 0 509-55zm106-128q-49-43-220-72t-394-29q-227 0-399 30t-217 75l63 240-28 157-88 153-85 622 49 19 274-462 6 550 68 12 209-553 112 595h69l112-593 207 551 69-12 6-550 275 463 47-22-83-619-89-153-28-159 65-243zm-81 36q-183 76-531 76-355 0-537-78 175-69 534-69 172 0 314 19t220 52zm-955 1252q-57 0-97 39t-40 97q0 56 40 96t97 40q56 0 96-40t40-96q0-57-40-96t-96-40zm0 70q66 0 66 66t-66 66q-67 0-67-66t67-66zm840 0q67 0 67 66t-67 66q-66 0-66-66t66-66zm0-70q-57 0-96 39t-40 97q0 56 39 96t97 40q57 0 97-40t40-96q0-57-40-96t-97-40zm-1208-110q-57 0-96 39t-40 97q0 56 39 96t97 41q57 0 97-40t40-97-40-96-97-40zm0 70q67 0 67 66 0 67-67 67-66 0-66-67 0-66 66-66zm1578 0q66 0 66 66 0 67-66 67-67 0-67-67 0-66 67-66zm0-70q-57 0-97 39t-40 97q0 56 40 96t97 41q56 0 96-40t40-97-40-96-96-40z"
     fill-rule="nonzero"
     transform="translate(0,2048) scale(1,-1)"
     display="block"
     fill="#000"
     id="path2" />
  <g
     fill-rule="nonzero"
     fill="#fff"
     id="g32">
    <path
       style="color:black;"
       d="m1024 357q67 0 67-67 0-66-67-66-66 0-66 66 0 67 66 67z"
       display="block"
       id="path4" />
    <path
       style="color:black;"
       d="m1533 1364q-193-49-505-49-320 0-511 50l15 96q195-46 496-46 299 0 488 45l17-96z"
       display="block"
       id="path6" />
    <path
       style="color:black;"
       d="m1558 1304 65-115q-48 19-98 19-134 0-214-109-60 50-134 50-96 0-153-75-64 70-153 70-72 0-132-49-84 107-217 107-51 0-101-19l70 120q194-56 533-56 345 0 534 57z"
       display="block"
       id="path8" />
    <path
       style="color:black;"
       d="m1110 1065-85-489-85 483q3-2 14-10 23-45 70-45 51 0 66 45 6 6 20 16z"
       display="block"
       id="path10" />
    <path
       style="color:black;"
       d="m1387 1084v-463l-165 454q19-7 32-18 20-25 54-25 40 0 64 35 3 4 7 8t8 9z"
       display="block"
       id="path12" />
    <path
       style="color:black;"
       d="m825 1070-164-449v457q3-4 9-10 20-42 66-42 38 0 62 32 27 12 27 12z"
       display="block"
       id="path14" />
    <path
       style="color:black;"
       d="m571 1126-215-371 55 338q57 40 111 40 21 0 49-7z"
       display="block"
       id="path16" />
    <path
       style="color:black;"
       d="m1474 1131q23 7 51 7 61 0 114-38l55-346-220 377z"
       display="block"
       id="path18" />
    <path
       style="color:black;"
       d="m1534 1637-30-113q-196-43-480-43-281 0-479 43l-31 114q186-56 511-56 317 0 509 55z"
       display="block"
       id="path20" />
    <path
       style="color:black;"
       d="m1559 1729q-183-76-531-76-355 0-537 78 175 69 534 69 172 0 314-19t220-52z"
       display="block"
       id="path22" />
    <path
       style="color:black;"
       d="m604 407q66 0 66-66t-66-66q-67 0-67 66t67 66z"
       display="block"
       id="path24" />
    <path
       style="color:black;"
       d="m1444 407q67 0 67-66t-67-66q-66 0-66 66t66 66z"
       display="block"
       id="path26" />
    <path
       style="color:black;"
       d="m236 517q67 0 67-66 0-67-67-67-66 0-66 67 0 66 66 66z"
       display="block"
       id="path28" />
    <path
       style="color:black;"
       d="m1814 517q66 0 66-66 0-67-66-67-67 0-67 67 0 66 67 66z"
       display="block"
       id="path30" />
  </g>
  <path
     style="fill:#ffdead;stroke:#000000;stroke-width:2.31937"
     d="m 662.34236,850.76429 c 0.1368,-186.00815 0.65891,-220.89344 3.20427,-214.09838 10.88381,29.05521 155.14443,424.06779 156.06349,427.33099 1.93867,6.8835 -19.86622,-4.1962 -31.12153,-15.8138 -16.03009,-16.5461 -31.93435,-22.6994 -57.58844,-22.2808 -26.11215,0.4261 -44.4755,10.485 -58.14147,31.8484 -4.33792,6.7812 -8.94297,12.9821 -10.23344,13.7796 -1.57636,0.9743 -2.29268,-71.4704 -2.18288,-220.76601 z"
     id="path42" />
  <path
     style="fill:#ffdead;stroke:#000000;stroke-width:2.31937"
     d="m 503.04764,1130.4345 c -25.86537,-2.9402 -59.53609,-16.7608 -88.36171,-36.2693 -2.36773,-1.6025 -57.61315,-329.66498 -55.7697,-331.17589 0.32201,-0.26392 47.78878,81.0563 105.48172,180.71162 l 104.89626,181.19147 -10.96194,2.5145 c -17.26665,3.9607 -37.38422,5.0624 -55.28463,3.0276 z"
     id="path44" />
  <path
     style="fill:#ffdead;stroke:#000000;stroke-width:2.31937"
     d="m 208.00679,511.79972 c -25.7541,-9.21182 -36.42191,-27.41696 -36.29912,-61.94624 0.0648,-18.20936 0.93664,-22.73971 6.60671,-34.32892 10.49597,-21.45299 26.12445,-29.4799 57.691,-29.63054 43.3619,-0.20693 64.90918,20.15867 65.32613,61.74358 0.4551,45.38961 -17.77365,65.63759 -60.89468,67.64012 -15.65602,0.72706 -22.82242,-0.0415 -32.43004,-3.478 z"
     id="path46" />
  <path
     style="fill:#ffdead;stroke:#000000;stroke-width:2.31937"
     d="m 589.11891,404.66236 c -16.63268,-2.51813 -24.34732,-6.03477 -34.16616,-15.57427 -10.99061,-10.67794 -16.21562,-26.19006 -16.21562,-48.14132 0,-21.92779 5.22529,-37.45321 16.21562,-48.17998 11.89234,-11.60714 25.24079,-15.86733 49.8314,-15.9038 25.65509,-0.038 41.83843,6.47224 52.42821,21.09102 15.81958,21.83829 15.81958,64.14724 0,85.98553 -12.0248,16.59975 -39.69861,25.0217 -68.09345,20.72282 z"
     id="path48" />
  <path
     style="fill:#ffdead;stroke:#000000;stroke-width:2.31937"
     d="m 996.19959,351.61612 c -24.09548,-8.57633 -37.14183,-30.26569 -37.14183,-61.74774 0,-28.71305 10.64785,-48.66362 31.04,-58.15873 9.68208,-4.50822 15.66384,-5.53034 32.47344,-5.54883 27.1263,-0.0298 37.291,3.24005 50.1997,16.14871 12.6767,12.67677 16.1713,23.08588 16.1713,48.16852 0,31.32461 -8.8387,48.49497 -29.9418,58.16583 -17.707,8.11455 -44.7565,9.39476 -62.80081,2.97224 z"
     id="path50" />
  <path
     style="fill:#ffdead;stroke:#000000;stroke-width:2.31937"
     d="m 1428.6804,404.75692 c -32.1676,-4.72596 -49.8174,-27.33324 -49.8174,-63.81015 0,-28.84648 10.8111,-48.89714 31.4627,-58.35176 10.3778,-4.75108 16.1488,-5.75685 32.8902,-5.73202 24.5906,0.0365 37.939,4.29666 49.8314,15.9038 10.9252,10.66329 16.2173,26.27364 16.2097,47.81483 -0.01,23.01768 -3.7513,34.90345 -14.7499,46.83544 -13.5661,14.71754 -38.6683,21.32987 -65.8267,17.33986 z"
     id="path52" />
  <path
     style="fill:#ffdead;stroke:#000000;stroke-width:2.31937"
     d="m 1791.0549,513.67483 c -12.9445,-3.266 -20.9986,-8.00629 -28.9068,-17.01314 -10.1017,-11.50526 -13.3463,-22.85948 -13.3463,-46.70473 0,-18.25175 0.83,-22.56466 6.6067,-34.32891 10.6791,-21.74796 26.1225,-29.57841 58.3356,-29.57841 20.9969,0 30.9625,2.33721 41.8889,9.82412 21.865,14.98217 30.021,55.77345 17.6022,88.03619 -3.8701,10.0543 -15.9915,22.12836 -26.4697,26.36641 -11.507,4.65415 -43.0963,6.58117 -55.7106,3.39847 z"
     id="path54" />
  <path
     style="fill:#ffdead;stroke:#000000;stroke-width:2.31937"
     d="m 1372.1048,1065.3193 c -20.4903,-25.3237 -43.5366,-36.1832 -71.289,-33.5916 -17.2724,1.6129 -29.0198,7.179 -44.8792,21.2644 -10.5277,9.35 -29.6734,21.1921 -31.1977,19.2965 -0.328,-0.4079 35.736,-100.41635 80.1422,-222.24103 l 80.7385,-221.49944 0.1007,225.55833 c 0.055,124.05707 -0.3737,225.55834 -0.9536,225.55834 -0.5799,0 -6.2778,-6.4555 -12.6619,-14.3455 z"
     id="path56" />
  <path
     style="fill:#ffdead;stroke:#000000;stroke-width:2.31937"
     d="m 1500.0645,1135.4484 c -17.8192,-2.8248 -24.2108,-4.6914 -23.3731,-6.826 1.6341,-4.1639 213.8524,-366.59804 214.3595,-366.09093 0.2994,0.29939 -11.4827,76.17827 -26.1825,168.61973 -20.7582,130.541 -27.5785,168.7512 -30.5405,171.1014 -8.5794,6.8075 -51.2235,25.9764 -65.3954,29.3959 -18.7087,4.5141 -52.575,6.3827 -68.868,3.7999 z"
     id="path58" />
  <path
     style="fill:#ffdead;stroke:#000000;stroke-width:2.31937"
     d="m 1098.7811,1055.0617 c -4.0782,-3.1917 -9.357,-10.1933 -11.7306,-15.5592 -5.5487,-12.544 -17.3246,-24.2506 -30.5533,-30.3739 -15.2142,-7.0423 -50.1379,-6.7668 -65.06519,0.5133 -11.9593,5.8326 -25.95753,18.6114 -33.55046,30.6277 -5.93112,9.3864 -12.21923,15.176 -14.263,13.1323 -1.13403,-1.1341 79.67315,-467.6533 81.31065,-469.42593 0.2562,-0.27732 19.0363,106.5189 41.7337,237.32493 22.6973,130.80604 40.8775,238.2195 40.4005,238.6965 -0.4771,0.477 -4.2041,-1.744 -8.2823,-4.9357 z"
     id="path60" />
  <path
     style="fill:#ffdead;stroke:#000000;stroke-width:2.31937"
     d="m 458.45119,1245.3378 c -18.28255,-31.3734 -32.84247,-57.441 -32.35537,-57.9281 0.4871,-0.4871 7.6207,1.1236 15.85244,3.5795 54.18223,16.1646 117.1386,15.2257 170.3006,-2.5396 40.66242,-13.5883 75.31224,-36.4108 108.40975,-71.4051 l 19.21908,-20.3205 11.59683,8.8763 c 15.73161,12.041 44.79662,26.0894 67.26161,32.5104 24.33497,6.9555 77.38081,7.6003 100.61177,1.2231 34.83265,-9.5621 58.18191,-22.1165 86.6454,-46.5871 l 18.5062,-15.9102 10.3749,11.8599 c 20.647,23.6027 49.3322,42.0419 81.9002,52.6464 18.169,5.9161 22.715,6.4321 57.9842,6.5813 33.1564,0.1403 40.684,-0.5378 56.3408,-5.0759 21.6461,-6.274 46.3564,-18.3213 65.6535,-32.0086 l 14.1438,-10.0322 13.0225,15.8295 c 29.0231,35.2793 67.0238,62.0623 109.8847,77.4472 50.4725,18.1171 119.9565,19.1029 170.7674,2.4229 6.142,-2.0162 11.724,-3.1092 12.4045,-2.4287 1.2763,1.2763 -56.4528,105.1891 -59.4762,107.0577 -0.9318,0.5759 -11.1934,-1.5559 -22.8035,-4.7373 -121.592,-33.3189 -289.7339,-49.6837 -510.6963,-49.7046 -182.78804,-0.017 -315.09417,9.9126 -434.88109,32.6392 -32.72433,6.2086 -85.23084,18.367 -94.22724,21.8192 -2.22224,0.8528 -13.3525,-16.1951 -36.44048,-55.8147 z"
     id="path62" />
  <path
     style="fill:#ffdead;stroke:#000000;stroke-width:2.31937"
     d="m 532.29445,1458.2433 c 0,-1.1606 -3.17882,-22.2315 -7.06404,-46.8243 -3.88523,-24.5927 -6.65903,-45.1191 -6.164,-45.6141 1.83802,-1.8381 61.88992,-14.7854 94.40584,-20.3542 107.82409,-18.4662 212.63531,-26.5171 371.09853,-28.5053 203.81772,-2.5571 367.74782,9.4867 497.50392,36.5514 49.9516,10.419 50.4142,10.5892 48.8536,17.979 -0.7233,3.4251 -4.4889,23.9282 -8.3679,45.5624 -3.8791,21.6343 -7.4176,39.6997 -7.8635,40.1456 -0.4458,0.4458 -19.449,-2.8526 -42.2294,-7.3298 -104.0435,-20.4483 -198.5885,-29.6188 -353.9599,-34.3328 -138.06121,-4.1888 -291.3846,1.2601 -406.4623,14.445 -59.85533,6.8579 -150.48916,21.9284 -175.69196,29.2138 -2.23239,0.6454 -4.05889,0.2238 -4.05889,-0.9367 z"
     id="path64" />
  <path
     style="fill:#ffdead;stroke:#000000;stroke-width:2.31937"
     d="m 516.52398,1632.6449 c 0.66589,-2.4476 7.22654,-26.89 14.57921,-54.3165 7.35268,-27.4265 14.18893,-50.7652 15.19167,-51.8637 3.99842,-4.3806 100.91168,-21.1038 162.27139,-28.0013 101.73318,-11.436 184.45824,-15.4968 315.43375,-15.484 142.0836,0.014 228.1174,4.5913 336.308,17.8932 40.4143,4.9689 127.4391,19.3582 139.3533,23.0417 2.6139,0.8081 7.766,16.6143 17.8984,54.9104 7.8254,29.5767 13.8016,54.2021 13.2805,54.7232 -0.5211,0.521 -16.4032,-2.7985 -35.2936,-7.3768 -135.0337,-32.7268 -317.4975,-48.3726 -520.25328,-44.6103 -143.15731,2.6565 -237.14771,10.2534 -337.45294,27.2751 -36.68945,6.2261 -105.59427,21.7151 -118.09541,26.5464 -3.59537,1.3895 -4.20323,0.8729 -3.22099,-2.7374 z"
     id="path66" />
  <path
     style="fill:#ffdead;stroke:#000000;stroke-width:2.31937"
     d="m 904.55266,1797.0338 c -109.22626,-3.5609 -239.61617,-19.0316 -317.72142,-37.6975 -25.02575,-5.9807 -84.6614,-24.0715 -90.21089,-27.366 -4.84525,-2.8764 63.05715,-25.9802 109.89381,-37.3914 112.60217,-27.4343 242.78787,-39.6774 422.12454,-39.6981 201.3376,-0.023 345.7735,16.2503 466.1528,52.5213 29.8659,8.9988 58.0239,19.5691 58.0239,21.7819 0,2.7513 -52.8837,19.679 -86.7148,27.757 -82.957,19.8077 -191.6331,33.2607 -318.0145,39.3669 -43.4273,2.0982 -188.20193,2.5297 -243.53344,0.7259 z"
     id="path68" />
</svg>
