<?xml version="1.0" encoding="UTF-8" standalone="no"?>
<svg
   xmlns:dc="http://purl.org/dc/elements/1.1/"
   xmlns:cc="http://creativecommons.org/ns#"
   xmlns:rdf="http://www.w3.org/1999/02/22-rdf-syntax-ns#"
   xmlns:svg="http://www.w3.org/2000/svg"
   xmlns="http://www.w3.org/2000/svg"
   xmlns:sodipodi="http://sodipodi.sourceforge.net/DTD/sodipodi-0.dtd"
   xmlns:inkscape="http://www.inkscape.org/namespaces/inkscape"
   height="100%"
   width="100%"
   version="1.1"
   viewBox="0 0 2048 2048"
   id="svg18"
   sodipodi:docname="wu.svg"
   inkscape:version="1.0.1 (3bc2e813f5, 2020-09-07, custom)">
  <metadata
     id="metadata24">
    <rdf:RDF>
      <cc:Work
         rdf:about="">
        <dc:format>image/svg+xml</dc:format>
        <dc:type
           rdf:resource="http://purl.org/dc/dcmitype/StillImage" />
      </cc:Work>
    </rdf:RDF>
  </metadata>
  <defs
     id="defs22" />
  <sodipodi:namedview
     pagecolor="#ffffff"
     bordercolor="#666666"
     borderopacity="1"
     objecttolerance="10"
     gridtolerance="10"
     guidetolerance="10"
     inkscape:pageopacity="0"
     inkscape:pageshadow="2"
     inkscape:window-width="1920"
     inkscape:window-height="1060"
     id="namedview20"
     showgrid="false"
     inkscape:zoom="0.43115234"
     inkscape:cx="1024"
     inkscape:cy="1021.6806"
     inkscape:window-x="0"
     inkscape:window-y="20"
     inkscape:window-maximized="0"
     inkscape:current-layer="svg18" />
  <path
     style="color:black;"
     d="m1161 1706h170v137h274v-375l-222-171v-478l170-170v-205h153v-239h-1365v239h153v205l171 170v478l-222 171v375h273v-137h171v137h274v-137zm478-1330h-1230v-103h1230v103zm-155 204h-920v-136h920v136zm-170 717h-580v-478h580v478zm222 239v239h-137v-137h-308v137h-135v-137h-307v137h-137v-239h1024zm-77-887l-103 102h-663l-105-102h871zm-110 716l127 103h-904l128-103h649z"
     fill-rule="nonzero"
     transform="translate(0,2048) scale(1,-1)"
     display="block"
     fill="#000"
     id="path2" />
  <g
     fill-rule="nonzero"
     fill="#fff"
     id="g12">
    <path
       style="color:black;"
       d="m1639 1672h-1230v103h1230v-103z"
       display="block"
       id="path4" />
    <path
       style="color:black;"
       d="m1484 1468h-920v136h920v-136z"
       display="block"
       id="path6" />
    <path
       style="color:black;"
       d="m1314 751h-580v478h580v-478z"
       display="block"
       id="path8" />
    <path
       style="color:black;"
       d="m1536 512v-239h-137v137h-308v-137h-135v137h-307v-137h-137v239h1024z"
       display="block"
       id="path10" />
  </g>
  <path
     style="color:black;"
     d="m1459 1399-103-102h-663l-105 102h871z"
     fill-rule="nonzero"
     display="block"
     fill="#fff"
     id="path14" />
  <path
     style="color:black;"
     d="m1349 683 127-103h-904l128 103h649z"
     fill-rule="nonzero"
     display="block"
     fill="#fff"
     id="path16" />
  <path
     style="fill:#ffdead;stroke:#000000;stroke-width:2.31937"
     d="M 513.73952,393.1325 V 274.84485 h 67.26161 67.26161 v 68.42129 68.42129 h 154.23783 154.23782 v -68.42129 -68.42129 h 66.06691 66.0669 l 0.6149,67.84145 0.6148,67.84145 154.8177,0.59628 154.8177,0.59628 v -68.43773 -68.43773 h 67.2616 67.2616 V 393.1325 511.42016 H 1024 513.73952 Z"
     id="path26" />
  <path
     style="fill:#ffdead;stroke:#000000;stroke-width:2.31937"
     d="m 638.33544,632.41875 -62.11304,-50.25793 223.8888,-0.59138 c 123.13884,-0.32526 324.6637,-0.32526 447.8331,0 l 223.9442,0.59138 -62.1685,50.42022 -62.1685,50.42023 L 1024,682.83898 700.44847,682.67669 Z"
     id="path28" />
  <path
     style="fill:#ffdead;stroke:#000000;stroke-width:2.31937"
     d="M 734.07928,990.3692 V 752.6342 H 1024 1313.9207 v 237.735 237.735 H 1024 734.07928 Z"
     id="path30" />
  <path
     style="fill:#ffdead;stroke:#000000;stroke-width:2.31937"
     d="m 642.46433,1347.5426 51.02604,-49.6853 330.50963,-0.063 330.5096,-0.063 51.0261,49.7224 51.026,49.7224 -432.5617,0.026 -432.56172,0.026 51.02605,-49.6853 z"
     id="path32" />
  <path
     style="fill:#ffdead;stroke:#000000;stroke-width:2.31937"
     d="m 564.76557,1536.5798 v -67.2616 H 1024 1483.2344 v 67.2616 67.2616 H 1024 564.76557 Z"
     id="path34" />
  <path
     style="fill:#ffdead;stroke:#000000;stroke-width:2.31937"
     d="m 409.36806,1723.2888 v -49.8664 H 1024 1638.6319 v 49.8664 49.8664 H 1024 409.36806 Z"
     id="path36" />
</svg>
