<?xml version="1.0" encoding="UTF-8" standalone="no"?>
<svg
   xmlns:dc="http://purl.org/dc/elements/1.1/"
   xmlns:cc="http://creativecommons.org/ns#"
   xmlns:rdf="http://www.w3.org/1999/02/22-rdf-syntax-ns#"
   xmlns:svg="http://www.w3.org/2000/svg"
   xmlns="http://www.w3.org/2000/svg"
   xmlns:sodipodi="http://sodipodi.sourceforge.net/DTD/sodipodi-0.dtd"
   xmlns:inkscape="http://www.inkscape.org/namespaces/inkscape"
   height="512pt"
   viewBox="0 0 512 512.00028"
   width="512pt"
   version="1.1"
   id="svg180"
   sodipodi:docname="wy.svg"
   inkscape:version="1.0.1 (3bc2e813f5, 2020-09-07, custom)">
  <metadata
     id="metadata186">
    <rdf:RDF>
      <cc:Work
         rdf:about="">
        <dc:format>image/svg+xml</dc:format>
        <dc:type
           rdf:resource="http://purl.org/dc/dcmitype/StillImage" />
      </cc:Work>
    </rdf:RDF>
  </metadata>
  <defs
     id="defs184" />
  <sodipodi:namedview
     pagecolor="#ffffff"
     bordercolor="#666666"
     borderopacity="1"
     objecttolerance="10"
     gridtolerance="10"
     guidetolerance="10"
     inkscape:pageopacity="0"
     inkscape:pageshadow="2"
     inkscape:window-width="1920"
     inkscape:window-height="1060"
     id="namedview182"
     showgrid="false"
     inkscape:zoom="1.293457"
     inkscape:cx="341.33333"
     inkscape:cy="341.33333"
     inkscape:window-x="0"
     inkscape:window-y="20"
     inkscape:window-maximized="0"
     inkscape:current-layer="svg180" />
  <path
     d="m 236.62626,289.12376 h -0.0447 L 200.0925,264.80001 c -3.45125,-2.29969 -8.1125,-1.36812 -10.41563,2.07968 -2.29969,3.45125 -1.36812,8.11595 2.07969,10.41563 l 0.49844,0.33 c -10.27469,8.12969 -14.08344,21.98282 -9.41532,34.21687 4.67157,12.2375 16.74407,20.03032 29.82032,19.24657 13.07281,-0.78719 24.12781,-9.96532 27.30062,-22.67375 0.33688,0.0757 0.67719,0.12718 1.02094,0.15125 3.31031,0.003 6.23219,-2.16219 7.19469,-5.32812 0.9625,-3.16938 -0.26469,-6.59313 -3.01813,-8.42875 z m -25.68157,26.95 c -7.32188,-0.0447 -13.54375,-5.35907 -14.72968,-12.58469 -1.18595,-7.22218 3.0078,-14.24843 9.93093,-16.63406 l 19.69,13.12781 c 0,0.36782 0.12719,0.69782 0.12719,1.0725 0,8.29469 -6.72375,15.01844 -15.01844,15.01844 z m 0,0"
     id="path168"
     style="stroke-width:0.88" />
  <path
     d="m 319.74844,277.59782 0.495,-0.33 c 2.23094,-1.49188 3.49937,-4.05625 3.3275,-6.73406 -0.17531,-2.67782 -1.76343,-5.06 -4.16968,-6.24937 -2.40625,-1.18595 -5.26282,-1.00375 -7.49375,0.48812 l -36.4822,24.32031 -0.0653,0.0447 -8.50781,5.67187 c -2.75344,1.83563 -3.98063,5.25594 -3.02156,8.42531 0.95906,3.16594 3.8775,5.33157 7.18781,5.33157 0.34031,-0.0241 0.68062,-0.0756 1.01406,-0.15125 3.17969,12.69812 14.23125,21.86593 27.29719,22.64625 13.06594,0.78031 25.12812,-7.00563 29.79969,-19.23282 4.67156,-12.22718 0.86968,-26.07343 -9.39125,-34.20312 z m -18.69313,38.47594 c -8.29468,0 -15.01843,-6.72375 -15.01843,-15.01844 0,-0.37468 0.10659,-0.70468 0.12718,-1.0725 l 19.69,-13.12781 c 6.92313,2.38563 11.11688,9.41188 9.93095,16.63406 -1.18595,7.22562 -7.40782,12.54 -14.7297,12.58469 z m 0,0"
     id="path170"
     style="stroke-width:0.88" />
  <path
     d="m 210.90001,148.82564 c 3.7228,4.88812 9.06125,8.29812 15.06312,9.62155 v 23.87 c 0.41593,7.8925 7.1225,13.97 15.01843,13.60907 h 30.03688 c 7.89594,0.36093 14.6025,-5.71657 15.01844,-13.60907 v -23.87 c 5.99843,-1.32343 11.33343,-4.73 15.05625,-9.61125 1.13093,-1.54343 2.14843,-3.16593 3.04906,-4.85375 5.89875,-10.87625 5.89875,-24.00062 0,-34.8803 -2.88063,-5.32813 -6.83718,-10.003127 -11.61531,-13.725945 -4.9775,-3.905 -10.59094,-6.912807 -16.59625,-8.892807 -12.94907,-4.241877 -26.91219,-4.241877 -39.86125,0 -6.00532,1.98 -11.61875,4.987807 -16.59625,8.892807 -4.77469,3.722818 -8.73125,8.394375 -11.61532,13.719065 -5.89875,10.87968 -5.89875,24.00063 0,34.88031 0.8972,1.68782 1.9147,3.31032 3.0422,4.85032 z m 30.08155,31.96187 v -14.89812 h 30.03688 v 15.01843 z m -19.86875,-64.63532 c 1.9147,-3.5028 4.53407,-6.56905 7.69657,-9.00968 3.59906,-2.82219 7.66563,-4.99469 12.01406,-6.42125 9.845,-3.20719 20.44969,-3.20719 30.29469,0 4.345,1.42656 8.41156,3.59906 12.01406,6.42125 3.15907,2.43718 5.78187,5.50688 7.69657,9.00968 3.54405,6.46938 3.54405,14.29657 0,20.76595 -0.57063,1.05875 -1.21345,2.07968 -1.92157,3.05593 -2.65031,2.93907 -6.48656,4.52719 -10.43968,4.3175 -3.75032,0.0241 -6.8922,2.84282 -7.32188,6.56907 h -30.41157 c -0.44343,-3.69188 -3.54062,-6.49345 -7.26343,-6.5622 -3.94969,0.20625 -7.7825,-1.38187 -10.42937,-4.32437 -0.7047,-0.97625 -1.3475,-1.99718 -1.9147,-3.05593 -3.54405,-6.46938 -3.54405,-14.29657 0,-20.76595 z m 0,0"
     id="path172"
     style="stroke-width:0.88" />
  <path
     d="m 235.65001,133.67314 c 2.95968,2.90468 7.70343,2.90468 10.66312,0 0.66,-0.7322 1.19281,-1.57095 1.57781,-2.47845 0.80094,-1.81843 0.80094,-3.8878 0,-5.70625 -0.68406,-1.88718 -2.16906,-3.37218 -4.05625,-4.05625 -2.79468,-1.17562 -6.02593,-0.55343 -8.18468,1.57782 -1.37157,1.44031 -2.15188,3.34468 -2.17938,5.33156 -0.0241,0.98657 0.18218,1.96282 0.60156,2.85312 0.385,0.9075 0.91782,1.74625 1.57782,2.47845 z m 0,0"
     id="path174"
     style="stroke-width:0.88" />
  <path
     d="m 265.68688,133.67314 c 2.96313,2.90468 7.70343,2.90468 10.66313,0 0.66,-0.7322 1.19625,-1.57095 1.5778,-2.47845 0.80095,-1.81843 0.80095,-3.8878 0,-5.70625 -0.68405,-1.88718 -2.16905,-3.37218 -4.05625,-4.05625 -2.79468,-1.17562 -6.02593,-0.55343 -8.18468,1.57782 -1.37157,1.44031 -2.14844,3.34468 -2.17594,5.33156 -0.0275,0.98657 0.17875,1.96282 0.59812,2.85312 0.385,0.9075 0.91782,1.74625 1.57782,2.47845 z m 0,0"
     id="path176"
     style="stroke-width:0.88" />
  <path
     d="m 475.48438,292.87751 -59.85032,-46.5575 c -5.64093,-4.35875 -13.5678,-4.16625 -18.99218,0.45718 l -34.54344,29.61063 c -2.47843,-4.18688 -5.23875,-8.19843 -8.26031,-12.01406 17.71688,-24.39937 28.06375,-53.36719 29.82031,-83.46594 -0.11,-67.51593 -52.75188,-123.279059 -120.1475,-127.276872 v -15.4 c 0,-4.149062 -3.36188,-7.510937 -7.51093,-7.510937 -4.14563,0 -7.5075,3.361875 -7.5075,7.510937 v 15.4 c -67.39907,3.997813 -120.04095,59.760942 -120.15095,127.276872 1.7497,30.10219 12.09313,59.07344 29.80313,83.47969 -3.01813,3.81563 -5.77843,7.83063 -8.26031,12.01406 l -34.54,-29.61406 c -5.42782,-4.62 -13.34782,-4.80562 -18.985316,-0.44344 l -59.850311,46.5575 c -3.6575,2.8325 -5.795625,7.20157 -5.78875,11.825 v 48.895 c 0,3.19 2.014373,6.03282 5.022186,7.08812 3.01125,1.05875 6.359376,0.0962 8.353126,-2.39593 l 29.510938,-36.89125 31.652507,-25.32407 30.62812,30.63157 c 0,0.20281 -0.0343,0.40563 -0.0343,0.60843 0,1.27532 0.0962,2.5025 0.14093,3.75375 h -26.80905 c -4.29,0.003 -8.3772,1.83907 -11.226878,5.04625 l -54.065004,60.82657 c -4.4,4.99468 -5.011875,12.28218 -1.502188,17.94031 l 34.543438,55.30594 c 1.36125,2.20343 3.760623,3.5475 6.3525,3.55781 0.70125,0 1.399061,-0.0997 2.072811,-0.29218 3.2175,-0.9247 5.434693,-3.8672 5.434693,-7.21532 v -57.43031 l 26.131878,-32.68032 h 33.87655 l -19.76562,41.72782 c -2.43375,5.10813 -1.78063,11.15468 1.69125,15.62688 l 34.72907,44.85937 c 1.42312,1.83906 3.61625,2.915 5.94,2.915 1.04843,0.003 2.08655,-0.21657 3.04218,-0.64625 3.15907,-1.39907 4.95344,-4.76782 4.35532,-8.17094 l -7.00563,-39.64125 18.44218,-29.18093 c 2.3272,0.8628 4.72313,1.66718 7.18782,2.42 l 4.24188,16.96062 c 0.7975,3.19 3.575,5.48968 6.85437,5.67875 l 0.42968,0.0137 c 3.13157,0.003 5.93313,-1.93532 7.03657,-4.86407 l 4.35531,-11.6325 c 10.70782,0.91438 21.91062,1.5022 33.66344,1.5022 11.75281,0 22.95563,-0.56375 33.66343,-1.5022 l 4.35532,11.6325 c 1.10343,2.92875 3.90843,4.8675 7.03656,4.86407 h 0.42969 c 3.27938,-0.18562 6.05688,-2.48875 6.85438,-5.67532 l 4.24187,-16.96405 c 2.46468,-0.75282 4.86063,-1.5572 7.18781,-2.42 l 18.44219,29.18437 -7.00562,39.64125 c -0.59813,3.39968 1.19968,6.77188 4.3553,8.1675 0.95907,0.42625 1.99375,0.63938 3.0422,0.6325 2.32375,0 4.51687,-1.07594 5.94,-2.915 l 34.72905,-44.85937 c 3.47188,-4.46875 4.12845,-10.51188 1.69125,-15.62 l -19.76562,-41.7347 h 41.38407 l 26.13187,32.67 v 57.44063 c 0,3.34812 2.22063,6.29062 5.43813,7.21532 0.67375,0.1925 1.37155,0.29218 2.0728,0.29218 2.58845,0 4.9947,-1.33375 6.36625,-3.52688 l 34.54345,-55.30593 c 3.50968,-5.65812 2.8978,-12.94562 -1.5022,-17.94032 l -54.065,-60.82655 c -2.84968,-3.22438 -6.9403,-5.07032 -11.24405,-5.0772 h -34.1722 c -0.055,0 -0.0997,0 -0.14437,0 0.0447,-1.26155 0.14437,-2.49905 0.14437,-3.75375 0,-0.2028 0,-0.40562 -0.0378,-0.60843 l 30.62813,-30.62125 31.6525,25.31375 29.51093,36.89125 c 1.99375,2.49218 5.34188,3.45468 8.35313,2.39593 3.01125,-1.0553 5.02219,-3.89812 5.02219,-7.08812 v -48.895 c 0.0138,-4.63375 -2.13125,-9.01313 -5.79563,-11.84906 z m -156.27907,94.91968 c -0.1478,0.0825 -0.3128,0.0825 -0.45718,0.17188 l -0.0447,0.0447 -1.7875,0.75281 6.44188,-25.795 c 0.56719,-2.24813 0.0688,-4.63031 -1.35438,-6.45563 -1.42656,-1.82875 -3.61281,-2.89437 -5.92968,-2.89437 h -120.1475 c -2.31344,0 -4.49282,1.06562 -5.91594,2.8875 -1.42313,1.82187 -1.92844,4.19719 -1.36813,6.43844 l 6.44188,25.795 -1.7875,-0.74938 -0.0447,-0.0481 c -0.14095,-0.0894 -0.29907,-0.0894 -0.44345,-0.165 -10.2678,-4.00125 -19.5078,-10.2575 -27.0325,-18.30812 -0.16843,-0.19938 -0.35062,-0.38844 -0.53968,-0.57063 -1.21344,-1.38187 -2.35812,-2.82562 -3.42719,-4.32437 l -0.20281,-0.29219 c -7.36657,-10.88313 -11.12375,-23.80813 -10.73532,-36.94625 0,-51.76188 47.15563,-93.86781 105.12907,-93.86781 57.97343,0 105.1325,42.10593 105.1325,93.86781 0.53625,15.17312 -4.59937,29.99906 -14.40312,41.58687 -0.1925,0.17875 -0.3747,0.37125 -0.54313,0.57063 -7.51437,8.03687 -16.73375,14.29312 -26.98094,18.30125 z m -19.58343,8.19157 -10.2575,-27.34875 h 17.09125 z m -76.98625,-27.34875 -10.2575,27.34875 -6.83375,-27.34875 z M 256.00001,68.267824 c 62.18093,0.06875 112.57125,50.459066 112.64,112.639996 -1.68782,25.85344 -10.35032,50.765 -25.06625,72.08782 -49.28345,-46.09688 -125.86407,-46.09688 -175.1475,0 -14.71595,-21.32282 -23.37845,-46.23438 -25.06625,-72.08782 0.0722,-62.18093 50.45905,-112.571246 112.64,-112.639996 z M 115.87719,285.48001 c -5.41063,-5.40719 -14.02156,-5.885 -19.999376,-1.11032 l -31.635311,25.30688 c -0.873127,0.69437 -1.66375,1.485 -2.358127,2.35812 l -16.145937,20.17813 v -27.48625 l 59.843441,-46.5575 37.54438,32.19219 c -2.2447,5.55843 -3.98407,11.30593 -5.19407,17.17375 z m -10.67343,81.28313 -26.125007,32.66655 c -2.134688,2.66407 -3.3,5.97782 -3.303438,9.39125 v 31.25375 l -20.686876,-33.1375 54.065001,-60.82655 h 28.72375 c 1.09657,5.16655 2.73625,10.19905 4.88812,15.01843 h -25.83968 c -4.56157,-0.01 -8.87907,2.06594 -11.72187,5.63407 z m 55.89375,58.03875 c -2.00407,3.15905 -2.75,6.95062 -2.09688,10.63218 l 1.705,9.67312 -16.09094,-20.8003 17.77532,-37.54782 c 4.92937,4.12844 10.285,7.71375 15.9775,10.70094 z m 66.69093,-27.12188 10.88657,-29.04 h 34.65 l 10.88655,29.04 c -18.78593,1.31313 -37.63718,1.31313 -56.42312,0 z m 123.50594,47.43406 1.705,-9.66968 c 0.65313,-3.685 -0.0928,-7.48 -2.09687,-10.6425 l -17.27,-27.335 c 5.6925,-2.98375 11.04812,-6.5725 15.9775,-10.70095 l 17.7753,37.54782 z m 24.85656,-99.00343 h 34.17219 l 54.06843,60.82655 -20.65937,33.1375 v -31.25375 c 0,-3.40655 -1.15843,-6.71687 -3.28625,-9.3775 l -26.14218,-32.6803 c -2.84282,-3.56813 -7.16032,-5.64438 -11.72188,-5.63407 h -33.34719 c 2.20344,-4.94313 3.87062,-10.10625 4.97062,-15.40688 0.62563,0.21657 1.2822,0.3472 1.94563,0.38845 z m 90.11062,-13.89782 -16.12875,-20.16438 c -0.6978,-0.86968 -1.48843,-1.66375 -2.35812,-2.365 l -31.6525,-25.31375 c -5.97781,-4.77468 -14.58875,-4.29687 -19.99938,1.11032 l -22.06187,22.06531 c -1.21,-5.87125 -2.94938,-11.61875 -5.19406,-17.17375 l 37.54438,-32.19218 59.8503,46.54718 z m 0,0"
     id="path178"
     style="stroke-width:0.88" />
  <path
     style="fill:#ffffff;stroke:#000000;stroke-width:0.637826"
     d="m 164.99756,246.91104 c -10.20444,-16.35948 -17.43405,-36.28795 -20.23079,-55.76631 -2.75376,-19.17902 0.85571,-39.68545 10.42048,-59.20178 15.34692,-31.31444 44.08351,-53.766226 77.96217,-60.911528 34.20565,-7.214263 70.36129,2.374491 96.86723,25.689937 21.40415,18.827751 34.50423,44.295371 37.67841,73.249841 1.60754,14.66382 -1.96642,36.12261 -8.93491,53.64705 -3.40522,8.56351 -12.30182,25.34795 -15.07736,28.44514 -0.1031,0.11505 -2.43733,-1.68753 -5.18718,-4.00573 -18.98205,-16.00245 -42.608,-26.10464 -68.07516,-29.10815 -8.10564,-0.95594 -28.83308,-0.41017 -36.10073,0.95057 -23.71111,4.43948 -43.60743,13.68703 -61.07234,28.38562 -2.54046,2.13807 -4.69744,3.8874 -4.79328,3.8874 -0.0958,0 -1.65129,-2.36792 -3.45654,-5.26206 z m 112.2307,-51.72668 c 3.0386,-1.27334 6.07215,-4.06084 7.65433,-7.03352 1.28963,-2.42301 1.41746,-3.6931 1.62031,-16.09946 l 0.22023,-13.46893 2.4353,-0.72963 c 4.70546,-1.4098 9.95811,-5.57407 13.26237,-10.51434 4.4812,-6.69995 6.19989,-12.47071 6.19989,-20.81705 0,-8.25034 -1.66696,-13.94009 -6.04996,-20.65006 -11.19147,-17.133092 -34.65747,-25.882714 -58.33991,-21.752837 -18.59339,3.242415 -34.267,15.603039 -39.31051,31.001317 -2.18904,6.68335 -2.18277,16.13863 0.0152,22.85038 2.2418,6.84565 6.80932,13.36897 11.60126,16.5689 2.12831,1.42123 4.96553,2.91239 6.30494,3.31369 l 2.43531,0.72963 0.22023,13.46893 c 0.20285,12.40636 0.33068,13.67645 1.62031,16.09946 1.54361,2.90018 4.56776,5.72008 7.51536,7.00775 2.79721,1.22198 39.68754,1.24429 42.59536,0.0257 z"
     id="path188" />
  <path
     style="fill:#ffffff;stroke:#000000;stroke-width:0.637826"
     d="m 240.69225,149.42014 c 0,-2.20325 -3.48429,-4.91748 -6.88714,-5.36503 -5.6325,-0.74079 -6.60348,-1.07371 -8.82794,-3.02681 -1.22428,-1.07493 -2.99546,-3.41538 -3.93596,-5.20097 -1.50695,-2.86106 -1.71,-3.96604 -1.71,-9.3059 0,-5.44322 0.18712,-6.41605 1.84025,-9.56739 4.0475,-7.7157 13.4973,-14.49817 23.66665,-16.98642 6.03325,-1.476231 16.47348,-1.46412 22.32391,0.02591 10.73672,2.73446 20.11909,9.59136 23.76031,17.36469 1.4808,3.16123 1.75271,4.5828 1.75271,9.16324 0,4.75442 -0.23545,5.88901 -1.91347,9.22076 -2.64091,5.24358 -5.38456,7.27302 -10.88581,8.05209 -5.17808,0.7333 -7.07537,1.82494 -8.3108,4.78174 l -0.91202,2.18277 h -14.98035 c -14.79017,0 -14.98034,-0.017 -14.98034,-1.33866 z m 5.44272,-15.26472 c 2.85878,-2.6857 3.33783,-6.14383 1.39637,-10.08025 -1.50998,-3.06156 -6.92951,-4.26967 -10.61172,-2.36553 -1.96234,1.01477 -3.88129,4.41967 -3.88129,6.8868 0,1.98612 2.43261,5.6276 4.48393,6.71222 2.26174,1.19586 6.75224,0.59458 8.61271,-1.15324 z m 30.4009,-0.55028 c 2.27328,-2.54425 2.77524,-4.67825 1.837,-7.80982 -1.76888,-5.904 -11.19362,-6.90154 -14.08913,-1.49122 -2.0584,3.84615 -0.54184,8.97191 3.25868,11.01385 2.60587,1.40008 6.95157,0.57245 8.99345,-1.71281 z"
     id="path190" />
  <path
     style="fill:#ffffff;stroke:#000000;stroke-width:0.637826"
     d="m 241.33007,173.40162 v -7.33499 h 14.66999 14.67 v 7.33499 7.335 h -14.67 -14.66999 z"
     id="path192" />
  <path
     style="fill:#ffffff;stroke:#000000;stroke-width:0.637826"
     d="m 189.1855,385.81337 c -11.38322,-5.34107 -23.88062,-15.80312 -28.7512,-24.06873 -3.5648,-6.04965 -6.53553,-13.64399 -7.88103,-20.14704 -1.84147,-8.90009 -1.3708,-24.34583 1.03284,-33.8943 5.53961,-22.00616 19.59685,-41.54664 39.5612,-54.99266 41.40463,-27.88605 99.12669,-24.41632 136.37605,8.19772 14.15814,12.39631 24.42472,29.08761 28.98786,47.12823 1.63724,6.47287 1.75961,7.85918 1.74063,19.71886 -0.0193,12.09919 -0.1114,13.05231 -1.78635,18.49695 -4.43872,14.42864 -12.88566,25.5604 -25.7738,33.96586 -4.34092,2.83108 -13.92141,7.81173 -15.02619,7.81173 -0.15799,0 1.1075,-5.52517 2.81221,-12.27814 3.81794,-15.12432 3.91063,-17.04848 0.96326,-19.99585 l -2.1686,-2.1686 h -63.27232 -63.27231 l -2.16861,2.1686 c -2.94736,2.94737 -2.85467,4.87153 0.96327,19.99585 1.70471,6.75297 2.91725,12.26783 2.69455,12.25523 -0.2227,-0.0125 -2.48686,-0.99977 -5.03146,-2.19371 z m 30.59677,-55.81611 c 9.10968,-2.8137 16.91392,-10.24353 19.60643,-18.66582 0.58784,-1.83875 1.10013,-2.39185 2.21543,-2.39185 2.33223,0 5.65174,-2.65864 6.67442,-5.34562 0.81373,-2.13805 0.81666,-2.79574 0.0226,-5.09246 -0.86561,-2.5038 -2.05825,-3.40744 -23.55459,-17.84674 -12.45355,-8.36516 -23.87682,-15.77566 -25.38504,-16.46778 -2.91859,-1.33931 -5.57757,-1.17092 -8.15261,0.51631 -3.00787,1.97083 -3.80289,7.89531 -1.49451,11.13712 l 1.3239,1.85924 -2.66599,3.02291 c -8.57102,9.7185 -10.14654,24.47477 -3.79788,35.57106 2.04325,3.57123 7.17476,8.72449 11.0467,11.09354 6.39611,3.91347 16.43137,4.99756 24.1611,2.61009 z m 88.44821,0.58979 c 10.41981,-2.40215 19.95443,-11.93677 22.35658,-22.35658 2.24413,-9.73432 -0.87353,-21.19684 -7.72066,-28.38613 l -1.89307,-1.98768 1.31574,-2.1582 c 1.53931,-2.5249 1.70564,-6.2605 0.39188,-8.80103 -1.25651,-2.42982 -4.93068,-4.12061 -7.78904,-3.58437 -1.38202,0.25926 -11.25566,6.45998 -26.24709,16.48336 -22.07513,14.75957 -24.10603,16.26846 -24.94468,18.53302 -0.79172,2.13782 -0.79188,2.81279 -0.002,5.08181 0.98897,2.83806 4.23048,5.52834 6.66107,5.52834 1.14089,0 1.67564,0.71 2.76229,3.6675 2.82223,7.68122 10.43464,14.68186 18.87563,17.35869 4.30316,1.36461 11.76873,1.65036 16.23256,0.62127 z"
     id="path194" />
  <path
     style="fill:#ffffff;stroke:#000000;stroke-width:0.637826"
     d="m 206.3872,314.7498 c -5.20614,-1.79831 -8.39842,-5.41402 -9.63361,-10.91145 -1.2943,-5.76052 1.60003,-12.27438 6.71857,-15.12054 l 2.52843,-1.40593 9.69192,6.44532 c 9.45263,6.28618 9.69192,6.50095 9.69192,8.699 0,5.26706 -4.62933,10.81543 -10.48043,12.56106 -3.9337,1.17359 -4.38604,1.15938 -8.5168,-0.26746 z"
     id="path196" />
  <path
     style="fill:#ffffff;stroke:#000000;stroke-width:0.637826"
     d="m 233.19779,397.80262 c -2.54333,-0.14363 -4.62423,-0.4565 -4.62423,-0.69528 0,-0.23879 2.34625,-6.6842 5.21388,-14.32314 l 5.21388,-13.88898 h 17.02956 17.02956 l 5.27058,14.05096 c 2.89881,7.72802 5.08369,14.23783 4.85529,14.46624 -0.46583,0.46583 -42.7975,0.79626 -49.98852,0.3902 z"
     id="path198" />
  <path
     style="fill:#ffffff;stroke:#000000;stroke-width:0.637826"
     d="m 209.17845,381.91206 c -1.69559,-6.84064 -2.9434,-12.57702 -2.77291,-12.74751 0.17048,-0.17049 3.75189,-0.22908 7.95867,-0.1302 l 7.64871,0.17978 -4.64281,12.33475 c -2.55354,6.78412 -4.74764,12.43959 -4.87579,12.56774 -0.12814,0.12814 -1.62029,-5.36391 -3.31587,-12.20456 z"
     id="path200" />
  <path
     style="fill:#ffffff;stroke:#000000;stroke-width:0.637826"
     d="m 297.91654,390.26238 c -0.93254,-2.45563 -3.09945,-8.19607 -4.81537,-12.75652 l -3.11984,-8.29173 7.65164,-0.17978 c 4.2084,-0.0989 7.79352,-0.0379 7.96693,0.13551 0.1734,0.17341 -1.10292,5.99474 -2.83628,12.93629 l -3.15156,12.62101 z"
     id="path202" />
  <path
     style="fill:#ffffff;stroke:#000000;stroke-width:0.637826"
     d="m 296.82091,315.00382 c -5.64307,-1.80768 -10.20521,-7.41697 -10.20521,-12.54762 0,-2.19822 0.23897,-2.41262 9.70817,-8.70981 l 9.70817,-6.45612 2.56998,1.49989 c 5.14866,3.00487 7.86615,9.36754 6.57881,15.40348 -1.6884,7.9164 -10.74573,13.24929 -18.35992,10.81018 z"
     id="path204" />
  <path
     style="fill:#ffffff;stroke:#000000;stroke-width:0.637826"
     d="m 46.182145,317.7097 0.02676,-12.91597 29.700259,-23.07481 29.700266,-23.07482 18.26938,15.67608 c 10.04814,8.62183 18.36054,15.74809 18.47195,15.8361 0.11144,0.088 -0.70859,3.13044 -1.82229,6.76092 -1.11368,3.63048 -2.22625,7.2971 -2.47234,8.14806 -0.41503,1.43503 -1.29852,0.7001 -12.18831,-10.13868 -12.52339,-12.46473 -14.73037,-14.01361 -20.00172,-14.03731 -5.877886,-0.0264 -7.350157,0.86548 -25.786907,15.62191 l -17.659236,14.13412 -7.922103,9.99019 c -4.357156,5.4946 -8.016681,9.99018 -8.132278,9.99018 -0.115597,0 -0.198138,-5.81218 -0.183424,-12.91597 z"
     id="path206" />
  <path
     style="fill:#ffffff;stroke:#000000;stroke-width:0.637826"
     d="m 65.409959,422.7374 c -9.736257,-15.67619 -9.76274,-15.7291 -8.550183,-17.08388 0.668981,-0.74744 12.748287,-14.3467 26.842896,-30.22059 l 25.626578,-28.86161 h 14.33652 c 13.71726,0 14.33653,0.053 14.33653,1.22586 0,0.67424 0.86106,3.75748 1.91348,6.85167 1.05241,3.09418 1.91348,5.67628 1.91348,5.738 0,0.0617 -6.52975,0.20902 -14.51054,0.32732 -16.15252,0.23944 -17.33173,0.51767 -21.5963,5.09548 -3.61493,3.88046 -27.514497,34.09269 -28.722042,36.30848 -1.046273,1.91985 -1.223681,4.19027 -1.504998,19.26029 l -0.318912,17.08388 z"
     id="path208" />
  <path
     style="fill:#ffffff;stroke:#000000;stroke-width:0.637826"
     d="m 457.50228,320.63549 -7.9221,-9.99019 -17.65924,-14.13412 c -18.34345,-14.68175 -19.90859,-15.63592 -25.64794,-15.63592 -5.23083,0 -7.03904,1.28265 -19.91302,14.12524 l -12.19414,12.16442 -0.45917,-2.46125 c -0.25254,-1.35369 -1.31674,-5.14222 -2.36487,-8.41896 -1.04813,-3.27675 -1.81213,-6.0269 -1.69777,-6.11145 0.11436,-0.0845 8.34386,-7.1221 18.28779,-15.63902 14.76918,-12.64974 18.2955,-15.38487 19.25755,-14.93681 0.64775,0.30168 14.09954,10.59425 29.89287,22.87239 l 28.71516,22.32391 0.0237,12.91597 c 0.013,7.10379 -0.0709,12.91597 -0.18651,12.91597 -0.11559,0 -3.77512,-4.49558 -8.13227,-9.99018 z"
     id="path210" />
  <path
     style="fill:#ffffff;stroke:#000000;stroke-width:0.637826"
     d="m 444.03783,421.43909 -0.19809,-17.14455 -1.74122,-2.87021 c -0.95767,-1.57862 -7.98969,-10.6198 -15.62672,-20.09151 -12.04931,-14.94398 -14.30724,-17.43216 -17.07464,-18.81586 -3.14259,-1.57129 -3.45209,-1.59742 -21.20771,-1.79046 -9.91022,-0.10773 -18.01858,-0.26916 -18.01858,-0.35871 0,-0.0896 0.86106,-2.7102 1.91348,-5.82366 1.05242,-3.11344 1.91348,-6.18101 1.91348,-6.81682 0,-1.08896 1.04992,-1.15599 18.10711,-1.15599 h 18.10711 l 24.78667,27.90119 c 13.63267,15.34566 25.70739,28.92883 26.83273,30.18483 l 2.04606,2.28362 -9.82081,15.82134 -9.82081,15.82133 z"
     id="path212" />
  <path
     style="fill:#ffffff;stroke:#000000;stroke-width:0.637826"
     d="m 352.718,439.69387 c 0.92408,-5.88878 0.60946,-10.88599 -0.86338,-13.71325 -0.73099,-1.40322 -4.94549,-8.2673 -9.36553,-15.25352 -4.42006,-6.98622 -8.02725,-12.87016 -8.01598,-13.07543 0.0112,-0.20526 2.09216,-1.58302 4.62424,-3.06168 2.53206,-1.47866 5.9181,-3.69428 7.52453,-4.92359 l 2.92077,-2.23513 5.93674,12.5775 c 3.26521,6.91763 7.16974,15.21118 8.67672,18.43012 l 2.73997,5.85261 -7.0584,9.1363 c -3.88211,5.02496 -7.19604,9.2798 -7.36428,9.4552 -0.16824,0.17541 -0.0582,-1.25971 0.2446,-3.18913 z"
     id="path214" />
  <path
     style="fill:#ffffff;stroke:#000000;stroke-width:0.637826"
     d="m 152.35338,433.60673 c -3.85885,-5.03592 -6.9305,-9.49924 -6.82589,-9.91848 0.10461,-0.41925 3.95924,-8.74665 8.56586,-18.50535 l 8.37566,-17.74309 2.91501,2.23085 c 1.60325,1.22698 4.9867,3.44067 7.51876,4.91933 2.53207,1.47866 4.61297,2.85435 4.62424,3.0571 0.0113,0.20274 -3.9751,6.6951 -8.8586,14.42748 -4.88349,7.73237 -9.24239,15.27148 -9.68643,16.75358 -0.64643,2.15762 -0.65064,3.77865 -0.0211,8.1328 0.43245,2.99093 0.70129,5.51994 0.59742,5.62002 -0.10386,0.10009 -3.34608,-3.93833 -7.20493,-8.97424 z"
     id="path216" />
</svg>
