<?xml version="1.0" encoding="UTF-8" standalone="no"?>
<svg
   xmlns:dc="http://purl.org/dc/elements/1.1/"
   xmlns:cc="http://creativecommons.org/ns#"
   xmlns:rdf="http://www.w3.org/1999/02/22-rdf-syntax-ns#"
   xmlns:svg="http://www.w3.org/2000/svg"
   xmlns="http://www.w3.org/2000/svg"
   xmlns:sodipodi="http://sodipodi.sourceforge.net/DTD/sodipodi-0.dtd"
   xmlns:inkscape="http://www.inkscape.org/namespaces/inkscape"
   height="100%"
   width="100%"
   version="1.1"
   viewBox="0 0 2048 2048"
   id="svg3451"
   inkscape:version="0.91 r13725"
   sodipodi:docname="cb.svg">
  <metadata
     id="metadata3473">
    <rdf:RDF>
      <cc:Work
         rdf:about="">
        <dc:format>image/svg+xml</dc:format>
        <dc:type
           rdf:resource="http://purl.org/dc/dcmitype/StillImage" />
        <dc:title></dc:title>
      </cc:Work>
    </rdf:RDF>
  </metadata>
  <defs
     id="defs3471" />
  <sodipodi:namedview
     pagecolor="#ffffff"
     bordercolor="#666666"
     borderopacity="1"
     objecttolerance="10"
     gridtolerance="10"
     guidetolerance="10"
     inkscape:pageopacity="0"
     inkscape:pageshadow="2"
     inkscape:window-width="1920"
     inkscape:window-height="1056"
     id="namedview3469"
     showgrid="false"
     inkscape:zoom="0.16296602"
     inkscape:cx="1024"
     inkscape:cy="1146.725"
     inkscape:window-x="0"
     inkscape:window-y="24"
     inkscape:window-maximized="1"
     inkscape:current-layer="svg3451" />
  <path
     style="color:black;"
     d="m1024 1166q97 0 186 15 98-35 142-109 38-64 38-141 0-46-23-101t-75-101q-59-49-129-107t-139-137q-70 78-140 136t-128 108q-53 45-75 100t-23 102q0 77 37 141 43 74 143 109 88-15 186-15z"
     fill-rule="nonzero"
     display="block"
     fill="#fff"
     id="path3453" />
  <path
     style="color:black;"
     d="m988 1138l-83 1q-34 0-34 34t34 34h83v86q0 35 36 35 35 0 35-35v-86h86q33 0 33-34t-33-34h-86v-82q0-36-35-36-36 0-36 36v81zm36-578q68 0 132 11t125 28q-117 31-257 31-142 0-257-31 58-16 123-27t134-12zm0 1089q68 0 68 68t-68 68-68-68 68-68zm0-949q117 0 225-23l-48 123q-88 14-177 14-91 0-178-14l-48-123q107 23 226 23zm0 182q97 0 186-15 98 35 142 109 38 64 38 141 0 46-23 101t-75 101q-59 49-129 107t-139 137q-70-78-140-136t-128-108q-53-45-75-100t-23-102q0-77 37-141 43-74 143-109 88 15 186 15zm-36-377h-32q-56-90-107-113-24-12-53-22t-67-10q-7 0-107 16-48 7-76 15t-44 10q-57 7-133-6-46-8-86-29l48-78q12 12 31 15t36 8q42 7 80 2 13-3 51-7t101-15q75-11 102-11 105 0 161 40 34 26 64 72t31 113zm36-113q-14-57-34-79t-53-46q-36-25-85-42t-109-9l-281 39q-17 2-30 0t-26-2q-21 0-53-9t-51-28l-97 159q18 20 32 28t33 17q58 27 124 33 28 2 55 1t56 2q54-9 108-16t110-16q60 0 81 12 11 6 35 22t48 47q-53 6-108 20t-97 31l104 258q-78 45-109 72t-49 64q-26 46-33 89t-7 77q1 60 28 132t104 130q63 48 123 99t119 119q-74 38-74 121 0 56 39 96t97 40q56 0 96-40t40-96q0-82-74-121 58-68 117-119t125-99q75-57 102-129t29-133q0-34-7-77t-32-89q-20-36-50-63t-108-73l104-258q-44-16-99-30t-106-21q23-31 47-47t36-22q21-12 81-12 54 8 108 15t110 17q27-3 54-2t57-1q64-6 124-33 18-9 32-17t33-28l-98-159q-18 18-50 27t-53 10q-13 0-26 2t-31 0l-280-39q-60-9-111 8t-85 45q-33 27-52 46t-33 77zm35 113q0-66 30-112t66-73q55-40 161-40 26 0 102 11 62 10 100 14t51 8q38 5 80-2 16-4 35-7t33-16l48 78q-41 21-87 29-76 13-133 6-17-2-44-10t-75-15q-101-16-107-16-39 0-68 10t-52 22q-53 24-108 113h-32z"
     fill-rule="nonzero"
     transform="translate(0,2048) scale(1,-1)"
     display="block"
     fill="#000"
     id="path3455" />
  <g
     fill-rule="nonzero"
     fill="#fff"
     id="g3457">
    <path
       style="color:black;"
       d="m1024 1488q68 0 132-11t125-28q-117-31-257-31-142 0-257 31 58 16 123 27t134 12z"
       display="block"
       id="path3459" />
    <path
       style="color:black;"
       d="m1024 399q68 0 68-68t-68-68-68 68 68 68z"
       display="block"
       id="path3461" />
    <path
       style="color:black;"
       d="m1024 1348q117 0 225 23l-48-123q-88-14-177-14-91 0-178 14l-48 123q107-23 226-23z"
       display="block"
       id="path3463" />
    <path
       style="color:black;"
       d="m988 1543h-32q-56 90-107 113-24 12-53 22t-67 10q-7 0-107-16-48-7-76-15t-44-10q-57-7-133 6-46 8-86 29l48 78q12-12 31-15t36-8q42-7 80-2 13 3 51 7t101 15q75 11 102 11 105 0 161-40 34-26 64-72t31-113z"
       display="block"
       id="path3465" />
    <path
       style="color:black;"
       d="m1059 1543q0 66 30 112t66 73q55 40 161 40 26 0 102-11 62-10 100-14t51-8q38-5 80 2 16 4 35 7t33 16l48-78q-41-21-87-29-76-13-133-6-17 2-44 10t-75 15q-101 16-107 16-39 0-68-10t-52-22q-53-24-108-113h-32z"
       display="block"
       id="path3467" />
  </g>
  <path
     style="fill:#000000;fill-rule:evenodd;stroke:#000000;stroke-width:1px;stroke-linecap:butt;stroke-linejoin:miter;stroke-opacity:1"
     d="m 1024,234.30508 8.678,1310.37292"
     id="path3475"
     inkscape:connector-curvature="0" />
  <path
     style="fill:#000000"
     d="m 1111.2136,1167.086 -80.2712,-8.7909 0,-59.3374 c 0,-47.7667 3.3843,-62.7217 17.3559,-76.6933 13.1116,-13.1116 17.3559,-28.92654 17.3559,-64.67065 l 0,-47.31472 54.2373,-2.58359 54.2373,-2.58358 0,-30.37288 0,-30.37288 -54.2373,-2.58358 -54.2373,-2.58358 0,-47.31472 c 0,-35.74411 -4.2443,-51.55905 -17.3559,-64.67066 -15.4106,-15.41063 -17.3559,-28.92655 -17.3559,-120.5884 l 0,-103.23248 50.1326,48.99519 c 27.5729,26.94735 91.6713,83.4419 142.4409,125.54344 97.8599,81.15198 127.0162,116.80329 149.3698,182.64408 35.0159,103.13698 -6.9542,224.29991 -97.7872,282.30091 -51.1869,32.6852 -66.2179,34.9056 -163.8849,24.2097 z"
     id="path3477"
     inkscape:connector-curvature="0" />
  <path
     style="fill:#000000"
     d="m 810.54913,1348.7828 c 25.18443,-81.219 35.53115,-96.45 69.67182,-102.5607 18.46288,-3.3046 57.97566,-6.2334 87.80617,-6.5084 l 54.23728,-0.5001 0.1185,32.5423 c 0.065,17.8983 2.3452,40.8397 5.0668,50.9808 4.6873,17.4657 0.9041,18.7677 -71.71172,24.68 -42.16303,3.4328 -93.36631,9.296 -113.78506,13.0291 -35.18449,6.4328 -36.82595,5.8231 -31.40383,-11.663 z"
     id="path3479"
     inkscape:connector-curvature="0" />
  <path
     style="fill:#000000"
     d="m 853.82103,1467.2598 c -43.65686,-8.3868 -64.17424,-15.6905 -56.36083,-20.0631 16.71852,-9.3562 138.13023,-25.7459 190.72027,-25.7459 l 42.76193,0 0,30.3729 0,30.3729 -54.23732,-0.8746 c -29.8305,-0.4811 -85.12833,-6.8091 -122.88405,-14.0622 z"
     id="path3481"
     inkscape:connector-curvature="0" />
  <path
     style="fill:#000000"
     d="m 709.85763,1764.1017 c -7.15932,-1.6257 -63.19274,-9.5928 -124.51872,-17.7046 -103.84965,-13.7366 -207.58053,-13.7784 -240.71572,-0.097 -9.74741,4.0247 -20.41864,-4.3481 -36.4857,-28.627 l -22.70888,-34.3155 34.88955,-13.96 c 59.75778,-23.9103 148.97064,-26.1903 246.35303,-6.2959 150.71062,30.7888 187.75392,32.2871 247.33925,10.0036 39.60833,-14.8125 62.86387,-31.0865 95.58662,-66.8904 23.78399,-26.0234 43.24362,-50.9057 43.24362,-55.294 0,-4.3882 7.98712,-7.9786 17.74915,-7.9786 15.74906,0 17.09994,3.6671 11.98786,32.5423 -13.71206,77.4517 -75.74507,155.1048 -138.21159,173.0135 -39.3075,11.2693 -114.95189,20.0443 -134.50847,15.6035 z"
     id="path3483"
     inkscape:connector-curvature="0" />
  <path
     style="fill:#ffffff"
     d="m 1030.9424,332.3661 c 0,-47.84375 3.0088,-65.08474 11.3583,-65.08474 22.0679,0 41.1676,22.13302 46.2786,53.62822 4.3157,26.59489 1.4726,35.57656 -17.1596,54.20882 -34.7652,34.76519 -40.4773,28.73203 -40.4773,-42.7523 z"
     id="path3485"
     inkscape:connector-curvature="0" />
  <path
     style="fill:none;fill-rule:evenodd;stroke:#000000;stroke-width:1px;stroke-linecap:butt;stroke-linejoin:miter;stroke-opacity:1"
     d="m 1026.2876,716.43404 3.0681,322.15306"
     id="path3489"
     inkscape:connector-curvature="0" />
  <rect
     style="fill:#ffffff"
     id="rect3495"
     width="127.32716"
     height="58.294361"
     x="1029.3557"
     y="845.29529" />
  <rect
     style="fill:#ffffff"
     id="rect3497"
     width="26.079058"
     height="87.441544"
     x="1029.3557"
     y="906.65771" />
  <rect
     style="fill:#ffffff"
     id="rect3509"
     width="24.949152"
     height="106.84746"
     x="1029.9661"
     y="735.45764" />
  <rect
     style="fill:#ffffff"
     id="rect3511"
     width="24.40678"
     height="18.440678"
     x="1029.9661"
     y="995.79663" />
  <rect
     style="fill:#ffffff"
     id="rect3513"
     width="18.983051"
     height="9.2203388"
     x="1030.5084"
     y="727.32202" />
  <rect
     style="fill:#ffffff"
     id="rect3515"
     width="15.18644"
     height="45.016949"
     x="1157.4237"
     y="853.15253" />
</svg>
