<?xml version="1.0" encoding="UTF-8" standalone="no"?>
<svg
   xmlns:dc="http://purl.org/dc/elements/1.1/"
   xmlns:cc="http://creativecommons.org/ns#"
   xmlns:rdf="http://www.w3.org/1999/02/22-rdf-syntax-ns#"
   xmlns:svg="http://www.w3.org/2000/svg"
   xmlns="http://www.w3.org/2000/svg"
   xmlns:sodipodi="http://sodipodi.sourceforge.net/DTD/sodipodi-0.dtd"
   xmlns:inkscape="http://www.inkscape.org/namespaces/inkscape"
   height="100%"
   width="100%"
   version="1.1"
   viewBox="0 0 2048 2048"
   id="svg3562"
   inkscape:version="0.91 r13725"
   sodipodi:docname="cn.svg">
  <metadata
     id="metadata3572">
    <rdf:RDF>
      <cc:Work
         rdf:about="">
        <dc:format>image/svg+xml</dc:format>
        <dc:type
           rdf:resource="http://purl.org/dc/dcmitype/StillImage" />
        <dc:title></dc:title>
      </cc:Work>
    </rdf:RDF>
  </metadata>
  <defs
     id="defs3570" />
  <sodipodi:namedview
     pagecolor="#ffffff"
     bordercolor="#666666"
     borderopacity="1"
     objecttolerance="10"
     gridtolerance="10"
     guidetolerance="10"
     inkscape:pageopacity="0"
     inkscape:pageshadow="2"
     inkscape:window-width="905"
     inkscape:window-height="1028"
     id="namedview3568"
     showgrid="false"
     inkscape:zoom="1.3037281"
     inkscape:cx="400.29223"
     inkscape:cy="706.38371"
     inkscape:window-x="10"
     inkscape:window-y="24"
     inkscape:window-maximized="0"
     inkscape:current-layer="svg3562" />
  <path
     style="color:black;"
     d="m1756 1774q-1 0 2-54t3-118q1-125 0-258t-36-267q-34-128-75-218t-89-157q-72-108-196-183t-259-98q9 49 8 96-2 36-34 36-37 0-33-36 3-132-94-226-76 80-82 186-2 35-36 31-32-1-32-37 0 0 2-8-41 13-86 37-29 20-47-10t16-47q43-22 65-33-86-88-196-142 12 139 76 263 17 26-8 46-28 22-47-7-7-10-20-36-21 21-28 31-7 9-24 40t-26 51q-9 25-8 40t3 35q-9 59-40 111t-81 127q-47 72-72 108t-38 92q-9 34 0 82t39 76q46 47 89 43 14 0 37-11t37-42q26-57 43-57 25 0 27 28 0 6-16 50-9 20-24 42-19 26-17 22 16 57 53 20 11-11 25-41t44-81q35-59 75-96t71-60q18-13 44-30t70-35q35-14 77-34t76-53q46-45 71-111 13-37 10-91-9-34 34-34 32 0 36 33 0 113-64 206 21 64 11 140-9 61-42 130t-136 155q-207 172-196 354 0 0 170 0t321 0h547z"
     fill-rule="nonzero"
     display="block"
     fill="#fff"
     id="path3564" />
  <path
     style="color:black;"
     d="m697 1359q13-20 10-42-10-64-71-54-18 3-29 12-4-5-12-22-11-32-42-22-31 12-24 45 45 115 163 158 34 10 45-20 12-32-18-44-6-3-11-5t-11-6zm-297-477q-29-18-35-48 1-33-31-36-35-4-36 30 4 66 59 105 26 21 48-4 22-27-5-47zm679 815q157-10 291-81t228-182q66-78 124-188t94-233q40-143 50-300t11-292v-218t-155 0-404 0h-671q-9 0-9 49t7 79q4 24 19 68t50 107q16 32 76 93t138 143q45 46 70 116t22 127q-37-30-81-49-212-76-307-220-7-9-45-81-20-38-34-52-19-19-55-21-56-3-87 54-42-12-75-10-56 21-81 45-51 51-66 102t-16 110q0 84 104 222 122 159 130 242 0 36 7 81 6 31 25 60 13 20 17 27t17 23q9 12 15 18t15 18q11 13 28 30-53 146-43 301 199-71 334-223 33 113 130 183 80-56 127-148zm677-1423q-1 0 2 54t3 118q1 125 0 258t-36 267q-34 128-75 218t-89 157q-72 108-196 183t-259 98q9-49 8-96-2-36-34-36-37 0-33 36 3 132-94 226-76-80-82-186-2-35-36-31-32 1-32 37 0 0 2 8-41-13-86-37-29-20-47 10t16 47q43 22 65 33-86 88-196 142 12-139 76-263 17-26-8-46-28-22-47 7-7 10-20 36-21-21-28-31-7-9-24-40t-26-51q-9-25-8-40t3-35q-9-59-40-111t-81-127q-47-72-72-108t-38-92q-9-34 0-82t39-76q46-47 89-43 14 0 37 11t37 42q26 57 43 57 25 0 27-28 0-6-16-50-9-20-24-42-19-26-17-22 16-57 53-20 11 11 25 41t44 81q35 59 75 96t71 60q18 13 44 30t70 35q35 14 77 34t76 53q46 45 71 111 13 37 10 91-9 34 34 34 32 0 36-33 0-113-64-206 21-64 11-140-9-61-42-130t-136-155q-207-172-196-354 0 0 170 0t321 0h547z"
     fill-rule="nonzero"
     transform="translate(0,2048) scale(1,-1)"
     display="block"
     fill="#000"
     id="path3566" />
  <path
     style="fill:none;fill-rule:evenodd;stroke:#000000;stroke-width:1px;stroke-linecap:butt;stroke-linejoin:miter;stroke-opacity:1"
     d="M 357.9661,952.40678 1685.6949,945.8983"
     id="path3574"
     inkscape:connector-curvature="0" />
  <path
     style="fill:none;fill-rule:evenodd;stroke:#000000;stroke-width:1px;stroke-linecap:butt;stroke-linejoin:miter;stroke-opacity:1"
     d="m 1063.0508,1197.5593 685.5594,-4.339"
     id="path3576"
     inkscape:connector-curvature="0" />
  <path
     style="fill:#000000"
     d="m 1080.5682,1191.0908 c 0.6369,-2.7664 3.7679,-15.7688 6.9579,-28.8942 4.732,-19.4704 6.0213,-30.9091 7.0023,-62.1256 1.2626,-40.1787 -0.5958,-60.8221 -8.0223,-89.1089 l -4.0396,-15.38641 11.7428,-19.74039 c 6.4585,-10.85721 12.4947,-21.04786 13.4137,-22.64589 1.3773,-2.39488 52.2526,-3.12149 289.4818,-4.13448 l 287.8109,-1.22896 12.0235,37.76159 c 22.642,71.11094 37.8116,130.22524 46.434,180.94804 l 4.0567,23.8644 -88.0336,1.3509 c -48.4185,0.7431 -198.7229,2.0302 -334.0098,2.8603 l -245.9762,1.5093 1.1579,-5.0297 z"
     id="path3578"
     inkscape:connector-curvature="0" />
  <path
     style="fill:none;fill-rule:evenodd;stroke:#000000;stroke-width:1px;stroke-linecap:butt;stroke-linejoin:miter;stroke-opacity:1"
     d="m 1106.4407,518.50847 -2.1695,266.84746"
     id="path3582"
     inkscape:connector-curvature="0" />
  <path
     style="fill:#000000"
     d="m 1114.3974,938.19661 c 7.2163,-14.18147 17.0605,-44.48553 23.1361,-71.22143 7.9074,-34.79704 9.8849,-82.73454 3.8796,-94.04809 -5.4523,-10.27165 -13.5414,-15.60995 -25.7366,-16.98452 l -10.3514,-1.16675 1.5199,-107.03008 c 1.224,-86.19349 2.1351,-108.50239 4.6798,-114.59281 5.1044,-12.21644 3.9846,-57.13704 -2.5112,-100.73763 l -1.4169,-9.51013 10.3426,1.55096 c 48.684,7.30062 134.5146,36.30124 189.9928,64.19514 147.1546,73.98786 242.3085,172.54974 323.7881,335.3845 16.8632,33.70069 33.1432,70.93839 44.5388,101.87505 l 6.4626,17.5447 -130.342,1.43835 c -71.6882,0.79109 -200.4926,1.43833 -286.2321,1.43833 l -155.8899,0 4.1398,-8.13559 z"
     id="path3584"
     inkscape:connector-curvature="0" />
  <path
     style="fill:#000000"
     d="m 476.11726,1432.0156 c -2.19518,-1.2761 -6.74402,-8.141 -10.10853,-15.2552 l -6.11731,-12.9351 12.78498,-17.7635 c 7.03174,-9.7699 16.30273,-24.4136 20.60223,-32.5414 10.20434,-19.2905 22.62862,-56.394 22.61834,-67.5467 -0.0109,-12.4981 -6.50639,-22.0734 -17.13171,-25.2568 -17.66266,-5.2919 -27.92479,4.5705 -50.18259,48.2278 -14.73078,28.8934 -22.16355,38.5018 -36.10366,46.6713 -39.72557,23.2807 -76.36449,16.7134 -120.34947,-21.5718 -23.24785,-20.2353 -37.62943,-44.4324 -45.67966,-76.8562 -3.75967,-15.1428 -4.7163,-25.3004 -4.65548,-49.4321 0.0698,-27.6874 0.69379,-32.4829 7.05738,-54.2373 10.85588,-37.1115 22.02691,-57.7305 71.21017,-131.4366 l 45.72358,-68.52138 329.23781,-1.45877 c 181.0808,-0.80233 329.68846,-1.00811 330.23926,-0.4573 1.8488,1.84878 -21.1889,28.94005 -37.80784,44.46032 -31.00374,28.95413 -57.08787,43.58153 -144.6994,81.14473 -63.69334,27.3083 -105.46308,54.0133 -163.04683,104.2424 -59.44546,51.8531 -88.10817,90.9659 -138.09163,188.4382 -19.73563,38.4863 -31.62153,55.3643 -43.20842,61.3561 -7.18023,3.713 -16.627,4.0221 -22.29122,0.7293 z M 338.14013,1250.0357 c 17.43758,-3.3069 28.00201,-15.7019 28.11769,-32.9897 0.0917,-13.705 7.72069,-25.7935 28.69768,-45.4727 20.06786,-18.8262 20.06823,-18.8268 20.06823,-29.5552 0,-18.2069 -15.27304,-35.0679 -33.31791,-36.782 -8.99003,-0.854 -11.52075,0.012 -23.55984,8.0659 -29.76481,19.911 -51.00299,51.1165 -57.94691,85.1421 -4.26583,20.9028 -4.26256,25.5405 0.0256,36.2576 3.62522,9.0603 9.68075,14.3042 18.41582,15.9475 2.89555,0.5447 5.86359,1.1234 6.59564,1.2859 0.73205,0.1625 6.53887,-0.6923 12.90404,-1.8994 z"
     id="path3586"
     inkscape:connector-curvature="0" />
  <path
     style="fill:#ffffff"
     d="m 315.76954,1248.4466 c -16.86984,-5.9023 -21.14247,-23.9399 -13.15718,-55.5454 7.64358,-30.2529 24.83813,-55.2854 51.88812,-75.5408 9.79859,-7.3373 14.72259,-9.8856 21.53561,-11.145 10.59059,-1.9578 22.6263,4.3999 31.05765,16.4057 6.5262,9.2929 8.64153,17.3435 6.49617,24.7233 -2.31861,7.9757 -6.89367,13.3933 -17.56617,20.801 -8.08091,5.6088 -18.44331,16.2219 -22.41378,22.9559 -5.96206,10.1117 -7.85228,16.1997 -9.47096,30.5039 -2.15352,19.0306 -14.15035,28.1862 -36.79907,28.0841 -5.32749,-0.024 -9.3093,-0.4517 -11.57039,-1.2427 z"
     id="path3590"
     inkscape:connector-curvature="0" />
</svg>
