<?xml version="1.0" encoding="UTF-8" standalone="no"?>
<svg
   xmlns:dc="http://purl.org/dc/elements/1.1/"
   xmlns:cc="http://creativecommons.org/ns#"
   xmlns:rdf="http://www.w3.org/1999/02/22-rdf-syntax-ns#"
   xmlns:svg="http://www.w3.org/2000/svg"
   xmlns="http://www.w3.org/2000/svg"
   xmlns:sodipodi="http://sodipodi.sourceforge.net/DTD/sodipodi-0.dtd"
   xmlns:inkscape="http://www.inkscape.org/namespaces/inkscape"
   version="1.1"
   width="45"
   height="45"
   id="svg11"
   sodipodi:docname="wl_se.svg"
   inkscape:version="0.92.4 5da689c313, 2019-01-14">
  <metadata
     id="metadata17">
    <rdf:RDF>
      <cc:Work
         rdf:about="">
        <dc:format>image/svg+xml</dc:format>
        <dc:type
           rdf:resource="http://purl.org/dc/dcmitype/StillImage" />
        <dc:title />
      </cc:Work>
    </rdf:RDF>
  </metadata>
  <defs
     id="defs15" />
  <sodipodi:namedview
     pagecolor="#ffffff"
     bordercolor="#666666"
     borderopacity="1"
     objecttolerance="10"
     gridtolerance="10"
     guidetolerance="10"
     inkscape:pageopacity="0"
     inkscape:pageshadow="2"
     inkscape:window-width="960"
     inkscape:window-height="1180"
     id="namedview13"
     showgrid="false"
     inkscape:zoom="14.833529"
     inkscape:cx="23.016186"
     inkscape:cy="22.5"
     inkscape:window-x="0"
     inkscape:window-y="20"
     inkscape:window-maximized="0"
     inkscape:current-layer="svg11" />
  <g
     id="g9"
     transform="matrix(0,-1,-1,0,41.834771,44.376812)">
    <title
       id="title2">Unicorn</title>
    <g
       id="Head"
       style="opacity:1;fill:none;fill-opacity:1;fill-rule:evenodd;stroke:#000000;stroke-width:1.5;stroke-linecap:round;stroke-linejoin:round;stroke-miterlimit:4;stroke-dasharray:none;stroke-opacity:1">
      <path
         id="Neck"
         d="m 22,10 c 10.5,1 16.5,8 16,29 H 15 c 0,-9 10,-6.5 8,-21"
         style="fill:#ffffff;stroke:#000000"
         inkscape:connector-curvature="0" />
      <path
         id="Face"
         d="m 24,18 c 0.38,2.91 -5.55,7.37 -8,9 -3,2 -2.82,4.34 -5,4 -1.042,-0.94 1.41,-3.04 0,-3 -1,0 0.19,1.23 -1,2 C 9,30 6,31 6,26 6,24 12,14 12,14 12,14 4.4725,7.525 4.9587,6.85 5.445,6.175 13.945,11.3 14,10.5 c -0.73,-0.994 -0.5,-2 -0.5,-3 1,-1 3,2.5 3,2.5 h 2 c 0,0 0.78,-1.992 2.5,-3 1,0 1,3 1,3"
         style="fill:#ffffff;stroke:#000000"
         inkscape:connector-curvature="0" />
      <path
         id="Nose"
         d="m 9.5,25.5 a 0.5,0.5 0 1 1 -1,0 0.5,0.5 0 1 1 1,0 z"
         style="fill:#000000;stroke:#000000"
         inkscape:connector-curvature="0" />
      <path
         id="Eye"
         d="m 15,15.5 a 0.5,1.5 0 1 1 -1,0 0.5,1.5 0 1 1 1,0 z"
         transform="matrix(0.866,0.5,-0.5,0.866,9.693,-5.173)"
         style="fill:#000000;stroke:#000000"
         inkscape:connector-curvature="0" />
    </g>
  </g>
  <path
     style="fill:none;stroke:#000000;stroke-width:1px;stroke-linecap:butt;stroke-linejoin:miter;stroke-opacity:1"
     d="M 37.472324,42.317837 34.898172,39.171651"
     id="path19"
     inkscape:connector-curvature="0" />
  <path
     style="fill:none;stroke:#000000;stroke-width:1px;stroke-linecap:butt;stroke-linejoin:miter;stroke-opacity:1"
     d="m 34.742193,42.436309 3.336865,0.286017 -0.286017,-3.241525"
     id="path23"
     inkscape:connector-curvature="0" />
</svg>
