<?xml version="1.0" standalone="no"?>
<!DOCTYPE svg PUBLIC "-//W3C//DTD SVG 20010904//EN"
 "http://www.w3.org/TR/2001/REC-SVG-20010904/DTD/svg10.dtd">
<svg version="1.0" xmlns="http://www.w3.org/2000/svg"
 width="512.000000pt" height="512.000000pt" viewBox="0 0 512.000000 512.000000"
 preserveAspectRatio="xMidYMid meet">
<metadata>
Created by potrace 1.11, written by Peter Selinger 2001-2013
</metadata>
<g transform="translate(0.000000,512.000000) scale(0.100000,-0.100000)"
fill="#000000" stroke="none">
<path d="M2379 4963 c-1 -10 -2 -85 -3 -168 l-1 -150 -160 0 -160 0 -3 -168
-2 -167 47 -1 c27 0 100 -1 163 -2 l115 -2 1 -173 0 -173 -35 -33 c-120 -110
-227 -244 -237 -296 0 -3 -6 -25 -13 -49 -23 -82 -40 -186 -42 -269 -2 -93 -8
-132 -19 -132 -4 0 -74 36 -156 80 -81 44 -149 80 -150 80 -1 0 -19 8 -40 17
-22 9 -41 17 -44 18 -3 0 -10 3 -16 7 -15 10 -160 46 -219 54 -72 10 -300 12
-365 2 -153 -23 -378 -121 -489 -213 -52 -43 -136 -133 -176 -190 -180 -252
-206 -530 -74 -805 84 -176 177 -292 453 -565 l213 -210 2 -190 c5 -364 17
-639 32 -711 7 -39 19 -60 47 -86 44 -40 123 -86 207 -121 117 -47 100 -41
140 -52 17 -4 35 -10 40 -14 6 -3 15 -6 20 -7 6 -1 37 -10 70 -19 76 -21 161
-42 200 -49 17 -2 41 -7 55 -10 58 -13 77 -16 120 -21 25 -3 56 -7 70 -10 69
-14 250 -20 585 -20 390 0 553 8 665 31 14 3 39 7 55 9 17 1 55 8 85 15 30 6
69 14 85 17 17 2 71 16 120 30 50 14 97 27 105 28 8 2 16 4 18 5 1 2 5 3 10 5
4 1 16 5 27 9 11 4 52 19 90 33 87 32 202 94 242 130 31 28 55 65 60 93 9 54
14 122 18 240 2 74 7 225 11 335 3 110 7 230 8 267 l2 67 65 62 c35 33 120
116 187 182 419 413 559 725 470 1047 -7 25 -13 47 -14 50 0 3 -6 19 -13 35
-131 321 -408 538 -766 602 -22 4 -110 7 -195 7 -169 -1 -273 -17 -395 -62
-64 -24 -205 -93 -231 -113 -26 -21 -175 -91 -181 -85 -4 3 -8 43 -9 89 -4
209 -38 342 -116 455 -16 23 -73 86 -125 139 l-96 96 1 141 c0 78 1 156 1 173
l1 33 161 -2 c106 -1 163 2 167 9 5 9 8 298 3 323 -1 3 -75 5 -166 5 l-165 -1
-1 30 c0 17 -1 93 -1 169 l0 137 -179 0 c-163 0 -179 -2 -180 -17z m285 -1203
c98 -44 194 -185 213 -311 10 -63 9 -189 -1 -271 -11 -87 -57 -214 -151 -415
-24 -50 -46 -101 -50 -112 -3 -12 -10 -21 -15 -21 -4 0 -11 -11 -14 -25 -10
-39 -77 -146 -89 -142 -12 4 -107 174 -101 180 3 2 -2 10 -11 17 -8 7 -15 16
-15 21 0 5 -16 44 -36 86 -91 199 -139 329 -149 405 -11 85 -8 279 5 328 35
129 126 240 228 276 49 17 128 11 186 -16z m-1245 -490 c100 -19 209 -55 257
-87 16 -10 31 -17 34 -16 17 8 196 -123 288 -211 154 -146 325 -411 387 -596
36 -110 60 -213 70 -305 3 -27 8 -70 11 -95 11 -97 7 -281 -7 -295 -18 -17
-116 -30 -304 -40 -148 -8 -318 -22 -380 -31 -135 -19 -170 -26 -377 -72 -133
-30 -161 -25 -260 44 -140 99 -238 185 -420 367 -258 260 -330 401 -331 647 0
132 11 176 71 299 41 83 246 281 290 281 6 0 12 4 14 8 6 16 170 87 228 99 14
2 43 8 65 12 69 14 263 9 364 -9z m2661 7 c76 -18 119 -31 150 -44 270 -115
439 -297 490 -527 10 -47 14 -191 6 -248 -16 -113 -88 -259 -181 -368 -39 -46
-321 -328 -360 -360 -17 -14 -55 -45 -85 -70 -30 -25 -57 -47 -60 -50 -3 -3
-39 -27 -80 -55 -72 -48 -78 -50 -142 -49 -37 1 -75 5 -85 9 -20 9 -25 10 -68
19 -16 3 -50 10 -75 15 -170 38 -291 54 -480 66 -155 9 -321 22 -385 30 -11 1
-28 3 -37 4 -42 3 -47 23 -43 190 2 88 6 167 8 178 3 10 8 41 11 68 34 306
240 683 501 912 193 170 375 257 586 279 35 3 66 8 68 10 6 6 232 -3 261 -9z
m-909 -2041 c176 -9 246 -19 383 -53 247 -60 370 -151 296 -218 -26 -23 -75
-21 -230 10 -134 27 -284 54 -340 60 -19 2 -53 6 -75 9 -22 3 -69 8 -105 11
-36 4 -83 8 -105 10 -228 22 -667 22 -880 0 -22 -2 -69 -7 -105 -10 -104 -10
-216 -24 -240 -30 -8 -2 -35 -7 -60 -10 -25 -4 -112 -20 -195 -36 -188 -38
-218 -39 -248 -8 -13 13 -22 30 -21 37 1 6 2 16 3 22 2 20 58 63 118 91 65 31
245 79 353 94 67 9 136 14 265 21 72 3 131 7 133 8 4 5 960 -3 1053 -8z m-381
-371 c125 -7 306 -22 360 -30 14 -2 48 -6 75 -10 28 -3 66 -9 85 -11 74 -10
248 -46 315 -66 85 -24 204 -80 228 -106 33 -37 28 -89 -11 -118 -14 -10 -97
3 -197 30 -5 2 -28 7 -50 11 -49 11 -47 10 -65 17 -8 4 -69 18 -135 32 -107
22 -155 31 -286 50 -92 14 -269 20 -549 21 -361 0 -509 -9 -700 -44 -30 -6
-66 -12 -80 -15 -14 -2 -81 -18 -150 -36 -69 -17 -134 -33 -145 -35 -11 -3
-59 -13 -107 -24 l-87 -19 -20 22 c-11 11 -23 33 -26 48 -19 75 164 162 450
214 41 7 161 26 195 30 19 2 50 6 69 9 18 3 68 8 110 10 42 3 92 7 111 10 19
2 87 7 150 11 63 3 116 7 118 9 4 4 223 -2 342 -10z"/>
<path d="M2525 3631 c-31 -13 -71 -58 -93 -104 -36 -77 -44 -226 -17 -344 3
-13 7 -33 10 -44 17 -78 85 -227 117 -256 19 -17 20 -17 35 2 32 42 94 183
114 260 20 79 29 235 17 300 -16 82 -60 155 -110 181 -30 16 -44 16 -73 5z"/>
<path d="M1197 3094 c-1 -1 -31 -4 -67 -7 -97 -9 -223 -49 -282 -89 -14 -10
-29 -18 -32 -18 -34 0 -206 -193 -206 -231 0 -5 -4 -17 -9 -27 -39 -71 -51
-165 -31 -241 13 -52 81 -192 118 -241 64 -87 236 -266 369 -387 48 -43 101
-91 118 -107 58 -54 74 -58 177 -41 51 8 104 17 118 20 14 3 41 8 60 11 19 3
80 14 135 24 117 21 143 26 310 51 44 6 91 13 105 14 113 14 139 17 169 19 20
1 37 10 43 20 22 39 -19 225 -92 416 -96 254 -210 452 -319 552 -166 154 -387
249 -604 260 -42 3 -78 3 -80 2z"/>
<path d="M3858 3095 c-2 -1 -34 -5 -73 -8 -68 -6 -144 -21 -175 -34 -8 -3 -20
-7 -25 -8 -23 -5 -121 -49 -135 -60 -8 -7 -25 -16 -37 -19 -13 -4 -23 -12 -23
-17 0 -5 -7 -9 -15 -9 -8 0 -15 -4 -15 -10 0 -5 -5 -10 -11 -10 -6 0 -17 -6
-24 -12 -8 -7 -44 -40 -80 -73 -82 -73 -139 -152 -198 -270 -59 -120 -87 -182
-87 -194 0 -6 -4 -11 -10 -11 -5 0 -10 -9 -10 -19 0 -11 -4 -23 -10 -26 -5 -3
-10 -13 -10 -22 0 -8 -6 -29 -14 -46 -37 -82 -85 -266 -86 -327 -1 -58 3 -70
19 -71 9 -1 27 -2 41 -4 14 -2 52 -6 85 -10 33 -3 71 -8 85 -10 14 -3 43 -7
65 -10 64 -10 84 -13 190 -30 55 -9 109 -18 120 -19 21 -3 126 -23 319 -62 66
-13 125 -20 132 -16 53 30 475 446 546 539 123 159 158 294 113 438 -42 135
-126 248 -239 320 -73 47 -215 93 -307 101 -41 3 -86 7 -101 9 -15 2 -28 2
-30 0z"/>
</g>
</svg>
