<svg xmlns:rdf="http://www.w3.org/1999/02/22-rdf-syntax-ns#" xmlns="http://www.w3.org/2000/svg" height="100%" width="100%" version="1.1" xmlns:cc="http://creativecommons.org/ns#" xmlns:dc="http://purl.org/dc/elements/1.1/" viewBox="0 0 2048 2048">
 <path style="color:black;" d="m1588 793q-83 30-233 49t-333 20q-178 0-326-18t-233-49l50-91q84 25 218 36t293 11q159 0 294-11t219-37l51 90zm226 668q-57 0-97 39t-40 97q0 56 40 96t97 41q56 0 96-40t40-97q0-57-40-96t-96-40zm-1578 0q-57 0-96 39t-40 97q0 56 39 96t97 41q57 0 97-40t40-97q0-57-40-96t-97-40zm1208 110q-57 0-96 39t-40 97q0 56 39 96t97 40q57 0 97-40t40-96q0-57-40-96t-97-40zm-840 0q-57 0-97 39t-40 97q0 56 40 96t97 40q56 0 96-40t40-96q0-57-40-96t-96-40zm1036-1288q-49-43-220-72t-394-29q-227 0-399 30t-217 75l63 240-28 157-88 153-85 622 49 19 274-462 6 550 68 12 209-553 112 595h69l112-593 207 551 69-12 6-550 275 463 47-22-83-619-89-153-28-159 65-243zm-96 32l-30 118q-195 45-490 45-292 0-488-45l-32-119q190 58 521 58 159 0 295-16t224-41zm-26 299q-184 51-490 51-308 0-496-52l15-101q189 49 481 49 291 0 474-48l16 101zm-494 1007q-57 0-96 40t-40 97q0 56 39 96t97 40q56 0 96-40t41-96q0-57-40-97t-97-40z" fill-rule="nonzero" transform="translate(0,2048) scale(1,-1)" display="block" fill="#000"/>
 <g fill-rule="nonzero" fill="#fff">
  <path style="color:black;" d="m1588 1255q-83-30-233-49t-333-20q-178 0-326 18t-233 49l50 91q84-25 218-36t293-11 294 11 219 37l51-90z" display="block"/>
  <path style="color:black;" d="m1544 1733-30-118q-195-45-490-45-292 0-488 45l-32 119q190-58 521-58 159 0 295 16t224 41z" display="block"/>
  <path style="color:black;" d="m1518 1434q-184-51-490-51-308 0-496 52l15 101q189-49 481-49 291 0 474 48l16-101z" display="block"/>
 </g>
</svg>
