<svg xmlns:rdf="http://www.w3.org/1999/02/22-rdf-syntax-ns#" xmlns="http://www.w3.org/2000/svg" height="100%" width="100%" version="1.1" xmlns:cc="http://creativecommons.org/ns#" xmlns:dc="http://purl.org/dc/elements/1.1/" viewBox="0 0 2048 2048">
 <path style="color:black;" d="m524 583q190 48 504 48 308 0 497-46l25 147q-201 53-526 53-327 0-525-54l25-148zm-61-61l-33 187q-1 0-3 4-5 7-28 18t-55 40q-44 37-68 60t-45 50q-61 84-68 203-10 115 93 229 104 114 281 107 66-4 155-32 29-12 59-23t61-24q16-8 28-16-5 21-5 42 0 78 55 133t134 56q78 0 133-55t55-133q0-16-4-42 14 9 27 15 46 20 121 47 86 29 155 33 177 8 280-107 101-114 94-229-8-119-69-203-20-27-45-50t-67-60q-33-28-56-39t-27-19q-1-2-2-3t-1-2l-32-188 66-247q-50-45-224-74t-402-29q-232 0-408 30t-221 77l66 244zm1081-117l-30 115q-198 44-490 44-291 0-489-44l-32-116q191 56 522 56 329 0 519-55zm26-94q-193 78-542 78-362 0-548-80 176-70 545-70 176 0 321 19t224 53zm-581 542q-1 39-3 77t-15 86q-41 134-124 216-43 42-132 78-102 40-193 40-158 0-234-113-43-60-43-150 0-98 48-161 29-37 74-74t84-67q175 63 538 68zm35 186q7 28 12 39 10 39 23 66 6 17 17 39t25 52q8 17 17 41t18 49q8 20 8 43 0 49-35 83t-85 35q-119 0-119-119 0-23 8-43 22-65 34-90 13-29 24-51t19-40q13-33 22-66 2-6 12-38zm34-186q172-2 315-20t224-47q38 30 83 66t75 75q48 61 48 161 0 90-43 150-77 112-234 112-94 0-193-39-87-35-132-78-84-84-124-216-14-47-16-85t-3-79zm1 706h-71v131h-83q-34 0-34 33v1q0 33 34 33h83v85q0 35 36 35 35 0 35-35v-85h86q33 0 33-33v-1q0-33-33-33l-85-1-1-130z" fill-rule="nonzero" transform="translate(0,2048) scale(1,-1)" display="block" fill="#000"/>
 <g fill-rule="nonzero" fill="#fff">
  <path style="color:black;" d="m524 1465q190-48 504-48 308 0 497 46l25-147q-201-53-526-53-327 0-525 54l25 148z" display="block"/>
  <path style="color:black;" d="m1544 1643-30-115q-198-44-490-44-291 0-489 44l-32 116q191-56 522-56 329 0 519 55z" display="block"/>
  <path style="color:black;" d="m1570 1737q-193-78-542-78-362 0-548 80 176 70 545 70 176 0 321-19t224-53z" display="block"/>
  <path style="color:black;" d="m989 1195q-1-39-3-77t-15-86q-41-134-124-216-43-42-132-78-102-40-193-40-158 0-234 113-43 60-43 150 0 98 48 161 29 37 74 74t84 67q175-63 538-68z" display="block"/>
  <path style="color:black;" d="m1024 1009q7-28 12-39 10-39 23-66 6-17 17-39t25-52q8-17 17-41t18-49q8-20 8-43 0-49-35-83t-85-35q-119 0-119 119 0 23 8 43 22 65 34 90 13 29 24 51t19 40q13 33 22 66 2 6 12 38z" display="block"/>
  <path style="color:black;" d="m1058 1195q172 2 315 20t224 47q38-30 83-66t75-75q48-61 48-161 0-90-43-150-77-112-234-112-94 0-193 39-87 35-132 78-84 84-124 216-14 47-16 85t-3 79z" display="block"/>
 </g>
</svg>
