<svg xmlns:rdf="http://www.w3.org/1999/02/22-rdf-syntax-ns#" xmlns="http://www.w3.org/2000/svg" height="100%" width="100%" version="1.1" xmlns:cc="http://creativecommons.org/ns#" xmlns:dc="http://purl.org/dc/elements/1.1/" viewBox="0 0 2048 2048">
 <path style="color:black;" d="m1024 273h491q21 72 21 141 0 156-86 283t-223 187q-66 5-66 72 0 53 67 78 93 65 93 172 0 77-52 135t-126 67q-60 5-60 68 0 28 22 52 54 42 54 110 0 56-40 96t-95 40q-57 0-96-40t-40-96q0-67 54-110 22-22 22-52 0-63-59-68-75-9-126-67t-52-135q0-107 93-172 67-26 67-78 0-67-67-72-136-60-222-187t-86-283q0-74 21-141h491zm0-68h-540q-40 100-40 209 0 185 105 332t270 210q-71 33-115 99t-45 151q0 105 70 182t172 89q-81 61-81 161 0 84 59 144t145 60q84 0 144-60t60-144q0-100-81-161 102-12 172-89t70-182q0-84-45-150t-116-100q165-63 270-210t105-332q0-108-39-209h-540z" fill-rule="nonzero" transform="translate(0,2048) scale(1,-1)" display="block" fill="#000"/>
 <path style="color:black;" d="m1024 1775h491q21-72 21-141 0-156-86-283t-223-187q-66-5-66-72 0-53 67-78 93-65 93-172 0-77-52-135t-126-67q-60-5-60-68 0-28 22-52 54-42 54-110 0-56-40-96t-95-40q-57 0-96 40t-40 96q0 67 54 110 22 22 22 52 0 63-59 68-75 9-126 67t-52 135q0 107 93 172 67 26 67 78 0 67-67 72-136 60-222 187t-86 283q0 74 21 141h491z" fill-rule="nonzero" display="block" fill="#fff"/>
</svg>
