<svg xmlns:rdf="http://www.w3.org/1999/02/22-rdf-syntax-ns#" xmlns="http://www.w3.org/2000/svg" height="100%" width="100%" version="1.1" xmlns:cc="http://creativecommons.org/ns#" xmlns:dc="http://purl.org/dc/elements/1.1/" viewBox="0 0 2048 2048">
 <path style="color:black;" d="m1024 1621q-57 0-96 40t-40 97q0 56 39 96t97 40q56 0 96-40t41-96q0-57-40-97t-97-40zm0 70q67 0 67 67 0 66-67 66-66 0-66-66 0-67 66-67zm509-1007q-193 49-505 49-320 0-511-50l15-96q195 46 496 46 299 0 488-45l17 96zm25 60 65 115q-48-19-98-19-134 0-214 109-60-50-134-50-96 0-153 75-64-70-153-70-72 0-132 49-84-107-217-107-51 0-101 19l70-120q194 56 533 56 345 0 534-57zm-448 239-85 489-85-483q3 2 14 10 23 45 70 45 51 0 66-45 6-6 20-16zm277-19v463l-165-454q19 7 32 18 20 25 54 25 40 0 64-35 3-4 7-8t8-9zm-562 14-164 449v-457q3 4 9 10 20 42 66 42 38 0 62-32 27-12 27-12zm-254-56-215 371 55-338q57-40 111-40 21 0 49 7zm903-5q23-7 51-7 61 0 114 38l55 346-220-377zm60-506-30 113q-196 43-480 43-281 0-479-43l-31-114q186 56 511 56 317 0 509-55zm106-128q-49-43-220-72t-394-29q-227 0-399 30t-217 75l63 240-28 157-88 153-85 622 49 19 274-462 6 550 68 12 209-553 112 595h69l112-593 207 551 69-12 6-550 275 463 47-22-83-619-89-153-28-159 65-243zm-81 36q-183 76-531 76-355 0-537-78 175-69 534-69 172 0 314 19t220 52zm-955 1252q-57 0-97 39t-40 97q0 56 40 96t97 40q56 0 96-40t40-96q0-57-40-96t-96-40zm0 70q66 0 66 66t-66 66q-67 0-67-66t67-66zm840 0q67 0 67 66t-67 66q-66 0-66-66t66-66zm0-70q-57 0-96 39t-40 97q0 56 39 96t97 40q57 0 97-40t40-96q0-57-40-96t-97-40zm-1208-110q-57 0-96 39t-40 97q0 56 39 96t97 41q57 0 97-40t40-97-40-96-97-40zm0 70q67 0 67 66 0 67-67 67-66 0-66-67 0-66 66-66zm1578 0q66 0 66 66 0 67-66 67-67 0-67-67 0-66 67-66zm0-70q-57 0-97 39t-40 97q0 56 40 96t97 41q56 0 96-40t40-97-40-96-96-40z" fill-rule="nonzero" transform="translate(0,2048) scale(1,-1)" display="block" fill="#000"/>
 <g fill-rule="nonzero" fill="#fff">
  <path style="color:black;" d="m1024 357q67 0 67-67 0-66-67-66-66 0-66 66 0 67 66 67z" display="block"/>
  <path style="color:black;" d="m1533 1364q-193-49-505-49-320 0-511 50l15 96q195-46 496-46 299 0 488 45l17-96z" display="block"/>
  <path style="color:black;" d="m1558 1304 65-115q-48 19-98 19-134 0-214-109-60 50-134 50-96 0-153-75-64 70-153 70-72 0-132-49-84 107-217 107-51 0-101-19l70 120q194-56 533-56 345 0 534 57z" display="block"/>
  <path style="color:black;" d="m1110 1065-85-489-85 483q3-2 14-10 23-45 70-45 51 0 66 45 6 6 20 16z" display="block"/>
  <path style="color:black;" d="m1387 1084v-463l-165 454q19-7 32-18 20-25 54-25 40 0 64 35 3 4 7 8t8 9z" display="block"/>
  <path style="color:black;" d="m825 1070-164-449v457q3-4 9-10 20-42 66-42 38 0 62 32 27 12 27 12z" display="block"/>
  <path style="color:black;" d="m571 1126-215-371 55 338q57 40 111 40 21 0 49-7z" display="block"/>
  <path style="color:black;" d="m1474 1131q23 7 51 7 61 0 114-38l55-346-220 377z" display="block"/>
  <path style="color:black;" d="m1534 1637-30-113q-196-43-480-43-281 0-479 43l-31 114q186-56 511-56 317 0 509 55z" display="block"/>
  <path style="color:black;" d="m1559 1729q-183-76-531-76-355 0-537 78 175 69 534 69 172 0 314-19t220-52z" display="block"/>
  <path style="color:black;" d="m604 407q66 0 66-66t-66-66q-67 0-67 66t67 66z" display="block"/>
  <path style="color:black;" d="m1444 407q67 0 67-66t-67-66q-66 0-66 66t66 66z" display="block"/>
  <path style="color:black;" d="m236 517q67 0 67-66 0-67-67-67-66 0-66 67 0 66 66 66z" display="block"/>
  <path style="color:black;" d="m1814 517q66 0 66-66 0-67-66-67-67 0-67 67 0 66 67 66z" display="block"/>
 </g>
</svg>
