<?xml version="1.0" encoding="UTF-8" standalone="no"?>
<svg
   xmlns:dc="http://purl.org/dc/elements/1.1/"
   xmlns:cc="http://creativecommons.org/ns#"
   xmlns:rdf="http://www.w3.org/1999/02/22-rdf-syntax-ns#"
   xmlns:svg="http://www.w3.org/2000/svg"
   xmlns="http://www.w3.org/2000/svg"
   xmlns:sodipodi="http://sodipodi.sourceforge.net/DTD/sodipodi-0.dtd"
   xmlns:inkscape="http://www.inkscape.org/namespaces/inkscape"
   height="100%"
   width="100%"
   version="1.1"
   viewBox="0 0 2048 2048"
   id="svg16"
   sodipodi:docname="bc.svg"
   inkscape:version="0.92.4 5da689c313, 2019-01-14">
  <metadata
     id="metadata22">
    <rdf:RDF>
      <cc:Work
         rdf:about="">
        <dc:format>image/svg+xml</dc:format>
        <dc:type
           rdf:resource="http://purl.org/dc/dcmitype/StillImage" />
        <dc:title></dc:title>
      </cc:Work>
    </rdf:RDF>
  </metadata>
  <defs
     id="defs20" />
  <sodipodi:namedview
     pagecolor="#ffffff"
     bordercolor="#666666"
     borderopacity="1"
     objecttolerance="10"
     gridtolerance="10"
     guidetolerance="10"
     inkscape:pageopacity="0"
     inkscape:pageshadow="2"
     inkscape:window-width="1920"
     inkscape:window-height="1060"
     id="namedview18"
     showgrid="false"
     inkscape:zoom="0.11523438"
     inkscape:cx="1041.3559"
     inkscape:cy="1024"
     inkscape:window-x="0"
     inkscape:window-y="20"
     inkscape:window-maximized="0"
     inkscape:current-layer="svg16" />
  <path
     style="color:black;"
     d="m1290 582l-42 102q-102 22-224 22-121 0-222-22l-42-101q124 31 264 31 138 0 266-32zm-84 206l-29 70v27q-76 11-153 11-75 0-152-11l-1-27-27-70q85 15 180 15 96 0 182-15zm-35-378q-40 30-80 95h-32q0-49 23-95h89zm-206 0q23 49 23 95h-32q-39-64-81-95h90zm59-18q-14-57-34-79t-53-46q-36-25-85-42t-109-9l-281 39q-17 2-30 0t-26-2q-21 0-53-9t-51-28l-97 159q18 20 32 28t33 17q58 27 124 33 28 2 55 1t56 2q54-9 108-16t110-16q60 0 81 12 11 6 35 22t48 47q-53 6-108 20t-97 31l104 258q-78 45-109 72t-49 64q-26 46-33 89t-7 77q1 60 28 132t104 130q63 48 123 99t119 119q-74 38-74 121 0 56 39 96t97 40q56 0 96-40t40-96q0-82-74-121 58-68 117-119t125-99q75-57 102-129t29-133q0-34-7-77t-32-89q-20-36-50-63t-108-73l104-258q-44-16-99-30t-106-21q23-31 47-47t36-22q21-12 81-12 54 8 108 15t110 17q27-3 54-2t57-1q64-6 124-33 18-9 32-17t33-28l-98-159q-18 18-50 27t-53 10q-13 0-26 2t-31 0l-280-39q-60-9-111 8t-85 45q-33 27-52 46t-33 77zm-37 744v-85q0-37 37-37t37 37v86h90q35 0 35 36t-35 36h-90v90q0 37-37 37t-37-37v-90h-88q-35 0-35-36t35-36l88-1z"
     fill-rule="nonzero"
     transform="translate(0,2048) scale(1,-1)"
     display="block"
     fill="#000"
     id="path2" />
  <g
     fill-rule="nonzero"
     fill="#fff"
     id="g14">
    <path
       style="color:black;"
       d="m1290 1466-42-102q-102-22-224-22-121 0-222 22l-42 101q124-31 264-31 138 0 266 32z"
       display="block"
       id="path4" />
    <path
       style="color:black;"
       d="m1206 1260-29-70v-27q-76-11-153-11-75 0-152 11l-1 27-27 70q85-15 180-15 96 0 182 15z"
       display="block"
       id="path6" />
    <path
       style="color:black;"
       d="m1171 1638q-40-30-80-95h-32q0 49 23 95h89z"
       display="block"
       id="path8" />
    <path
       style="color:black;"
       d="m965 1638q23-49 23-95h-32q-39 64-81 95h90z"
       display="block"
       id="path10" />
    <path
       style="color:black;"
       d="m987 912v85q0 37 37 37t37-37v-86h90q35 0 35-36t-35-36h-90v-90q0-37-37-37t-37 37v90h-88q-35 0-35 36t35 36l88 1z"
       display="block"
       id="path12" />
  </g>
  <path
     style="fill:#aa0000;fill-opacity:1;stroke-width:8.67796612"
     d="m 588.3661,1806.9043 c -140.23544,-21.1298 -204.39621,-20.6655 -259.5019,1.8779 -16.2447,6.6456 -30.23101,11.0554 -31.0807,9.7995 -35.96451,-53.1571 -82.34661,-142.2128 -78.83437,-151.3656 6.51642,-16.9815 87.66619,-52.8844 143.43971,-63.4616 68.1344,-12.9214 120.91212,-10.9979 260.68913,9.5008 146.49435,21.4839 174.87198,17.5972 232.65788,-31.8654 38.04886,-32.5684 40.24466,-47.1255 7.10842,-47.1255 -26.20215,0 -155.33701,-33.9649 -164.97106,-43.3905 -4.37824,-4.2835 13.23685,-59.6688 41.22034,-129.6047 26.87617,-67.1687 48.86577,-123.7619 48.86577,-125.7628 0,-2.0009 -27.08103,-21.6414 -60.18007,-43.6456 C 635.14989,1130.281 595.93066,1056.1639 595.64535,942.15247 595.32739,815.09576 632.71111,746.38082 755.6375,648.07111 849.62661,572.90383 961.51864,468.15819 961.51864,455.3393 c 0,-4.21397 -9.84073,-15.40249 -21.8683,-24.86338 -49.81664,-39.18578 -62.4405,-112.72331 -28.03,-163.28281 43.95297,-64.5803 107.49346,-84.57707 169.01566,-53.19078 87.8805,44.83331 98.4051,161.46802 20.2732,224.67101 l -21.1518,17.11027 64.5416,64.37856 c 35.4979,35.40821 96.0034,88.27038 134.4567,117.4715 112.8465,85.69483 141.6889,125.13229 165.2212,225.91436 22.6,96.78918 3.2669,194.32507 -53.1897,268.34357 -11.8057,15.4781 -46.6364,44.4207 -77.4014,64.3168 l -55.9364,36.1749 14.2774,35.9575 c 7.8525,19.7767 30.7334,76.9609 50.8464,127.0761 25.9358,64.6237 33.5999,92.8072 26.3577,96.9256 -15.6736,8.9131 -149.3244,41.9219 -169.7394,41.9219 -53.942,0 30.5251,76.2259 100.6463,90.8265 15.3486,3.1958 84.7086,-2.6302 156.2034,-13.1206 88.8154,-13.032 148.9911,-17.3471 194.5258,-13.9493 70.3813,5.2517 148.5137,30.01 184.812,58.5622 l 22.2161,17.4752 -44.0299,71.1199 c -24.2163,39.116 -45.2702,72.4127 -46.7864,73.9926 -1.5162,1.5799 -11.1141,-1.6001 -21.3286,-7.0668 -47.8594,-25.6136 -115.1656,-26.7104 -274.5188,-4.4737 -181.0592,25.2657 -213.7654,26.316 -264.2958,8.4879 -54.7038,-19.3006 -126.5456,-78.0493 -144.1004,-117.8381 -8.2131,-18.6155 -17.302,-33.8463 -20.1975,-33.8463 -2.8956,0 -10.149,13.5073 -16.1187,30.0163 -14.5729,40.3007 -79.19646,95.5786 -137.03754,117.2197 -59.22578,22.1592 -107.56401,21.3389 -280.81536,-4.7656 z m 385.81112,-176.6024 c 2.7527,-4.454 8.33663,-25.9319 12.40873,-47.7288 7.39285,-39.5721 7.36694,-39.6307 -17.50971,-39.6307 -13.70244,0 -24.91353,3.3552 -24.91353,7.4562 0,4.1009 -15.95222,25.5789 -35.44938,47.7288 L 873.26396,1638.4 h 47.95417 c 26.37481,0 50.2064,-3.6441 52.95909,-8.0981 z m 176.66458,-15.7663 c -12.2073,-13.1254 -29.0073,-34.6034 -37.3334,-47.7288 -19.7924,-31.201 -56.5321,-33.4526 -56.5321,-3.4644 0,11.2199 4.2871,32.6978 9.5269,47.7288 9.1533,26.2571 11.4289,27.3288 58.0303,27.3288 h 48.5035 z m 122.6248,-201.1221 c -13.5873,-34.208 -26.4857,-53.248 -38.2273,-56.4293 -54.2484,-14.6978 -216.4602,-22.3342 -302.08568,-14.2212 -133.48885,12.6482 -131.64355,11.8389 -156.3763,68.585 -11.78301,27.0345 -20.02908,50.6967 -18.32458,52.5827 1.70449,1.886 33.44754,-2.0191 70.54012,-8.678 86.69607,-15.5636 333.83234,-13.9043 405.88174,2.7252 28.6373,6.6096 53.6497,10.9029 55.5832,9.5405 1.9335,-1.3623 -5.7125,-25.7096 -16.9912,-54.1049 z m -246.8632,-161.183 c 62.0474,0 129.487,2.9872 149.8656,6.6383 l 37.0521,6.6384 -14.2646,-32.6723 c -7.8455,-17.9697 -16.1376,-41.1963 -18.4268,-51.6146 -2.2893,-10.4184 -10.3968,-21.3348 -18.0167,-24.2588 -18.5728,-7.1271 -263.30563,-6.8273 -281.99736,0.3453 -8.11504,3.1141 -14.75462,12.5774 -14.75462,21.0296 0,8.4523 -5.85763,29.387 -13.01695,46.5217 -7.15932,17.1347 -13.01695,33.278 -13.01695,35.8742 0,2.5961 16.59661,1.7453 36.88135,-1.8907 20.28475,-3.6361 87.64746,-6.6111 149.69493,-6.6111 z m 22.2654,-221.5935 c 13.7152,-7.3401 16.7854,-18.4512 16.7854,-60.74572 v -51.76247 h 43.9604 c 57.51,0 77.5312,-11.20475 77.5312,-43.38983 0,-32.18507 -20.0212,-43.38983 -77.5312,-43.38983 h -43.9604 v -50.3322 c 0,-56.28724 -9.4759,-71.15932 -45.3402,-71.15932 -29.08705,0 -41.43942,24.43161 -41.43942,81.9626 v 37.4429 l -52.75739,3.81612 c -53.12381,3.84263 -68.3295,13.42013 -68.60125,43.20937 -0.25068,27.47928 24.87622,41.84019 73.20667,41.84019 h 46.06594 l 3.81613,52.75739 c 4.69394,64.8931 25.16892,82.8147 68.26412,59.7508 z"
     id="path24"
     inkscape:connector-curvature="0" />
</svg>
