<?xml version="1.0" encoding="UTF-8" standalone="no"?>
<svg
   xmlns:dc="http://purl.org/dc/elements/1.1/"
   xmlns:cc="http://creativecommons.org/ns#"
   xmlns:rdf="http://www.w3.org/1999/02/22-rdf-syntax-ns#"
   xmlns:svg="http://www.w3.org/2000/svg"
   xmlns="http://www.w3.org/2000/svg"
   xmlns:sodipodi="http://sodipodi.sourceforge.net/DTD/sodipodi-0.dtd"
   xmlns:inkscape="http://www.inkscape.org/namespaces/inkscape"
   height="100%"
   width="100%"
   version="1.1"
   viewBox="0 0 2048 2048"
   id="svg18"
   sodipodi:docname="bd.svg"
   inkscape:version="0.92.4 5da689c313, 2019-01-14">
  <metadata
     id="metadata24">
    <rdf:RDF>
      <cc:Work
         rdf:about="">
        <dc:format>image/svg+xml</dc:format>
        <dc:type
           rdf:resource="http://purl.org/dc/dcmitype/StillImage" />
        <dc:title></dc:title>
      </cc:Work>
    </rdf:RDF>
  </metadata>
  <defs
     id="defs22" />
  <sodipodi:namedview
     pagecolor="#ffffff"
     bordercolor="#666666"
     borderopacity="1"
     objecttolerance="10"
     gridtolerance="10"
     guidetolerance="10"
     inkscape:pageopacity="0"
     inkscape:pageshadow="2"
     inkscape:window-width="960"
     inkscape:window-height="1060"
     id="namedview20"
     showgrid="false"
     inkscape:zoom="0.11523438"
     inkscape:cx="1058.7119"
     inkscape:cy="1024"
     inkscape:window-x="0"
     inkscape:window-y="20"
     inkscape:window-maximized="0"
     inkscape:current-layer="svg18" />
  <path
     style="color:#000000;display:block;fill:#000000;fill-rule:nonzero"
     d="m 490,643 q 4,9 13,27 17,42 17,50 -2,28 -29,28 -20,0 -47,-57 -4,-8 -12,-14 -27,-28 8,-47 32,-19 50,13 z m 590,371 q 70,92 69,205 -4,33 -38,33 -46,0 -36,-34 3,-55 -11,-91 -23,-57 -51,-85 -15,-30 18,-44 32,-15 49,16 z m -261,488 q -5,36 2,78 -60,-12 -113,-56 -32,-17 -15,-47 17,-31 47,-10 21,11 38,20 17,9 41,15 z M 1756,234 q -1,0 2,54 3,54 3,118 1,125 0,258 -1,133 -36,267 -34,128 -75,218 -41,90 -89,157 -72,108 -196,183 -124,75 -259,98 4,-23 3,-47 -1,-24 0,-46 97,-33 183,-82 86,-49 126,-106 48,-66 89,-156 41,-90 75,-219 34,-133 35,-266 1,-133 1,-259 0,-63 -3,-117 -3,-54 0,-55 z m -677,1423 q 157,-10 291,-81 134,-71 228,-182 66,-78 124,-188 58,-110 94,-233 40,-143 50,-300 10,-157 11,-292 V 163 q 0,0 -155,0 -155,0 -404,0 H 647 q -9,0 -9,49 0,49 7,79 4,24 19,68 15,44 50,107 16,32 76,93 60,61 138,143 45,46 70,116 25,70 22,127 -37,-30 -81,-49 -212,-76 -307,-220 -7,-9 -45,-81 -20,-38 -34,-52 -19,-19 -55,-21 -56,-3 -87,54 -42,-12 -75,-10 -56,21 -81,45 -51,51 -66,102 -15,51 -16,110 0,84 104,222 122,159 130,242 0,36 7,81 6,31 25,60 13,20 17,27 4,7 17,23 9,12 15,18 6,6 15,18 11,13 28,30 -53,146 -43,301 199,-71 334,-223 33,113 130,183 80,-56 127,-148 z M 404,821 q 29,20 6,48 -24,23 -53,4 -61,-40 -65,-105 1,-33 39,-31 36,3 35,37 8,32 38,47 z m 252,498 q 22,11 22,11 30,12 19,44 -12,30 -46,20 -118,-43 -163,-158 -7,-33 24,-45 31,-10 42,22 8,17 12,22 11,-9 29,-12 61,-10 71,54 3,22 -10,42 z"
     display="block"
     id="path2"
     inkscape:connector-curvature="0" />
  <g
     id="g16"
     transform="matrix(1,0,0,-1,0,2008)"
     style="fill:#ffffff;fill-rule:nonzero">
    <path
       style="color:#000000;display:block"
       d="m 490,1365 q 4,-9 13,-27 17,-42 17,-50 -2,-28 -29,-28 -20,0 -47,57 -4,8 -12,14 -27,28 8,47 32,19 50,-13 z"
       display="block"
       id="path4"
       inkscape:connector-curvature="0" />
    <path
       style="color:#000000;display:block"
       d="m 1080,994 q 70,-92 69,-205 -4,-33 -38,-33 -46,0 -36,34 3,55 -11,91 -23,57 -51,85 -15,30 18,44 32,15 49,-16 z"
       display="block"
       id="path6"
       inkscape:connector-curvature="0" />
    <path
       style="color:#000000;display:block"
       d="m 819,506 q -5,-36 2,-78 -60,12 -113,56 -32,17 -15,47 17,31 47,10 21,-11 38,-20 17,-9 41,-15 z"
       display="block"
       id="path8"
       inkscape:connector-curvature="0" />
    <path
       style="color:#000000;display:block"
       d="m 1756,1774 q -1,0 2,-54 3,-54 3,-118 1,-125 0,-258 -1,-133 -36,-267 -34,-128 -75,-218 -41,-90 -89,-157 -72,-108 -196,-183 -124,-75 -259,-98 4,23 3,47 -1,24 0,46 97,33 183,82 86,49 126,106 48,66 89,156 41,90 75,219 34,133 35,266 1,133 1,259 0,63 -3,117 -3,54 0,55 z"
       display="block"
       id="path10"
       inkscape:connector-curvature="0" />
    <path
       style="color:#000000;display:block"
       d="m 404,1187 q 29,-20 6,-48 -24,-23 -53,-4 -61,40 -65,105 1,33 39,31 36,-3 35,-37 8,-32 38,-47 z"
       display="block"
       id="path12"
       inkscape:connector-curvature="0" />
    <path
       style="color:#000000;display:block"
       d="m 656,689 q 22,-11 22,-11 30,-12 19,-44 -12,-30 -46,-20 -118,43 -163,158 -7,33 24,45 31,10 42,-22 8,-17 12,-22 11,9 29,12 61,10 71,-54 3,-22 -10,-42 z"
       display="block"
       id="path14"
       inkscape:connector-curvature="0" />
  </g>
  <path
     style="fill:#aa0000;fill-opacity:1;stroke-width:8.67796612"
     d="m 646.21921,175.7921 c -10.00828,10.0082 -6.30707,75.2883 7.31789,129.0694 27.57329,108.8385 73.24924,181.1348 197.493,312.5933 128.44638,135.9053 160.6095,189.813 169.0975,283.4197 l 4.725,52.1083 -33.83647,-22.2525 C 972.40607,918.4914 927.89153,896.0671 892.09492,880.8984 814.15749,847.8727 749.05703,807.3133 697.06758,759.3912 660.11356,725.3281 641.81606,699.5021 579.76729,593.8278 536.34666,519.8789 489.79786,506.2067 437.57098,552.0626 c -26.00964,22.8367 -34.35014,25.5487 -63.99469,20.8083 -67.1276,-10.7341 -154.55105,60.6648 -180.25316,147.2132 -33.0723,111.3665 -11.69934,184.2653 99.51191,339.4142 86.82291,121.1252 111.75745,175.1201 121.88812,263.9448 8.87757,77.8376 21.35225,103.8007 88.01133,183.175 l 32.96696,39.2554 -17.81128,56.2023 c -10.64395,33.5862 -19.77595,92.3966 -22.69362,146.1478 l -4.88234,89.9456 20.82256,-6.4593 c 69.74805,-21.6364 181.04741,-92.4125 256.8937,-163.3607 l 54.17301,-50.6745 20.73439,46.3355 c 24.62032,55.0195 87.52909,128.7762 109.83614,128.7762 16.95035,0 88.96959,-74.9661 108.73049,-113.1795 10.4458,-20.1998 20.4378,-24.5143 78.4435,-33.8717 281.7725,-45.4547 487.1035,-222.2127 620.3091,-533.9895 78.1472,-182.9086 102.0903,-333.0787 109.6803,-687.9084 l 5.4296,-253.8305 h -611.6812 c -336.42473,0 -614.28467,2.6034 -617.46659,5.7853 z M 1762.8767,315.3627 c 13.654,206.1902 2.6158,460.2011 -25.2131,580.1967 -34.5017,148.7685 -87.7838,281.2056 -154.8356,384.8571 -76.2582,117.8831 -159.8738,189.6003 -292.9046,251.2247 -65.0716,30.1433 -179.5274,65.7966 -187.0557,58.2683 -1.6178,-1.6178 -0.2907,-25.4936 2.9486,-53.0572 4.6832,-39.8466 9.4128,-51.037 23.0817,-54.6114 34.386,-8.9922 175.7428,-81.9213 215.8462,-111.3599 97.5639,-71.6185 192.5346,-263.6222 246.305,-497.959 11.9645,-52.1423 15.7265,-122.4629 18.9182,-353.6271 l 3.984,-288.5424 h 71.6612 71.6612 z M 507.37237,673.0288 c 20.55826,51.706 15.68732,78.4017 -14.30534,78.4017 -16.11508,0 -78.26025,-81.3404 -78.26025,-102.4331 0,-14.353 27.61574,-27.8896 52.04043,-25.5092 17.46106,1.7019 25.32851,11.3195 40.52516,49.5406 z M 360.47983,744.922 c 4.69917,5.9661 10.98909,21.1073 13.97759,33.647 2.98851,12.5399 15.24222,29.2265 27.23049,37.0815 37.59148,24.6308 23.39389,65.9495 -22.66105,65.9495 -48.06383,0 -106.80373,-90.7585 -85.04876,-131.408 9.9471,-18.5863 53.30676,-22.0223 66.50173,-5.27 z m 719.12927,262.6575 c 49.0435,49.0436 91.0188,201.7774 64.301,233.9703 -12.9227,15.5709 -57.148,17.6161 -66.1449,3.0588 -3.4481,-5.5791 -7.1601,-30.2561 -8.2488,-54.8377 -1.8989,-42.87 -35.3883,-126.2551 -55.7649,-138.8486 -15.31299,-9.4639 -9.6222,-37.6229 10.4438,-51.6777 25.5672,-17.9079 29.8089,-17.2699 55.4138,8.3349 z m -525.28107,197.4576 c 7.59653,16.6725 14.31795,19.1991 43.63712,16.4031 47.48399,-4.5284 68.50265,15.2454 68.50265,64.4454 0,29.4996 3.56342,38.2521 17.35593,42.6297 21.36617,6.7813 23.78917,48.9425 3.76768,65.5589 -11.14905,9.2528 -19.32737,9.24 -45.55933,-0.071 -94.58155,-33.5733 -185.04038,-152.38 -149.04466,-195.7522 16.50526,-19.8876 50.92201,-16.0799 61.34061,6.7864 z m 220.42209,272.8114 47.92107,23.5027 v 42.1668 c 0,39.7279 -1.12936,41.8185 -19.52543,36.1437 -51.63915,-15.9295 -119.32203,-61.1884 -119.32203,-79.7896 0,-19.8835 17.17128,-45.5263 30.48595,-45.5263 6.88566,0 34.08385,10.5762 60.44044,23.5027 z"
     id="path26"
     inkscape:connector-curvature="0" />
</svg>
