<?xml version="1.0" encoding="UTF-8" standalone="no"?>
<svg
   xmlns:dc="http://purl.org/dc/elements/1.1/"
   xmlns:cc="http://creativecommons.org/ns#"
   xmlns:rdf="http://www.w3.org/1999/02/22-rdf-syntax-ns#"
   xmlns:svg="http://www.w3.org/2000/svg"
   xmlns="http://www.w3.org/2000/svg"
   xmlns:sodipodi="http://sodipodi.sourceforge.net/DTD/sodipodi-0.dtd"
   xmlns:inkscape="http://www.inkscape.org/namespaces/inkscape"
   version="1.1"
   id="Layer_1"
   x="0px"
   y="0px"
   viewBox="0 0 62 64"
   xml:space="preserve"
   sodipodi:docname="by.svg"
   inkscape:version="0.92.4 5da689c313, 2019-01-14"><defs
     id="defs28" /><sodipodi:namedview
     pagecolor="#ffffff"
     bordercolor="#666666"
     borderopacity="1"
     objecttolerance="10"
     gridtolerance="10"
     guidetolerance="10"
     inkscape:pageopacity="0"
     inkscape:pageshadow="2"
     inkscape:window-width="960"
     inkscape:window-height="1060"
     id="namedview26"
     showgrid="false"
     inkscape:zoom="14.75"
     inkscape:cx="32.355932"
     inkscape:cy="32"
     inkscape:window-x="0"
     inkscape:window-y="20"
     inkscape:window-maximized="0"
     inkscape:current-layer="Layer_1" /><g
     id="wildebeest__x5F_glyphs"
     transform="matrix(0.8425369,0,0,0.89830508,4.8813559,3.5254237)"><path
       d="m 25,49 c -0.6,0 -1,0.4 -1,1 0,0.6 0.4,1 1,1 h 3 c 0.6,0 1,-0.4 1,-1 0,-0.6 -0.4,-1 -1,-1 z"
       id="path2"
       inkscape:connector-curvature="0" /><path
       d="m 34,49 c -0.6,0 -1,0.4 -1,1 0,0.6 0.4,1 1,1 h 3 c 0.6,0 1,-0.4 1,-1 0,-0.6 -0.4,-1 -1,-1 z"
       id="path4"
       inkscape:connector-curvature="0" /><path
       d="M 11,36 V 24.7 c -0.1,0.2 -0.2,0.3 -0.4,0.5 -1.3,1.4 -3.1,2.3 -5,2.4 H 5 V 42.5 C 5,43.8 3.9,45 2.5,45 1.1,45 0,43.4 0,42 v 2.5 c 0,3.6 3,6.9 9,6.5 6.9,-0.5 7,-4.4 7,-6.4 C 12.9,43.2 11,39 11,36 Z"
       id="path6"
       inkscape:connector-curvature="0" /><path
       d="M 11,12 C 11,8.1 14.1,5 18,5 H 28.8 C 26.6,2 22.9,0 17.5,0 10.6,0 5,5.6 5,12.5 V 19 h 6 z"
       id="path8"
       inkscape:connector-curvature="0" /><path
       d="M 5.5,25.6 C 6.9,25.5 8.2,24.9 9.1,23.9 9.8,23 10.3,22 10.4,21 H 0.2 c 0.3,1.1 0.8,2.1 1.6,3 1.1,1.1 2.4,1.6 3.7,1.6 z"
       id="path10"
       inkscape:connector-curvature="0" /><path
       d="m 51,12 v 7 h 6 V 12.5 C 57,5.6 51.4,0 44.5,0 39.1,0 35.5,2 33.2,5 H 44 c 3.9,0 7,3.1 7,7 z"
       id="path12"
       inkscape:connector-curvature="0" /><path
       d="m 61.8,43 c -0.5,1.6 -2.3,2.9 -4,1.2 C 57.3,43.6 57,42.8 57,42 V 27.6 h -0.6 c -1.9,-0.1 -3.7,-1 -5,-2.4 C 51.3,25 51.1,24.9 51,24.7 V 36 c 0,3 -1.9,7.2 -5,8.6 0,2 0.1,5.9 7,6.4 6,0.4 9,-2.9 9,-6.5 V 43 Z"
       id="path14"
       inkscape:connector-curvature="0" /><path
       d="m 52.9,23.8 c 0.9,1 2.2,1.7 3.6,1.7 1.3,0.1 2.6,-0.5 3.7,-1.6 0.8,-0.8 1.4,-1.9 1.6,-3 H 51.6 c 0.1,1.1 0.6,2.1 1.3,2.9 z"
       id="path16"
       inkscape:connector-curvature="0" /><path
       d="M 49,36 V 21 h -6 c -2.2,0 -4,1.8 -4,4 V 52.6 L 37.4,57 h -13 L 23,53.6 V 25 c 0,-2.2 -1.8,-4 -4,-4 h -6 v 15 c 0,2.2 1.5,5.4 3.5,6.6 l 6.4,16.1 c 0.1,3 2.7,5.3 6.1,5.3 h 4 c 3.3,0 5.8,-2.2 5.9,-5.3 L 44.8,42.9 C 47.1,42.2 49,38.5 49,36 Z M 18,29 c -1.1,0 -2,-0.9 -2,-2 0,-1.1 0.9,-2 2,-2 1.1,0 2,0.9 2,2 0,1.1 -0.9,2 -2,2 z m 15,33 h -4 c -1.9,0 -3.8,-1 -4.1,-3 h 11.9 c -0.2,1.8 -1.7,3 -3.8,3 z M 44,29 c -1.1,0 -2,-0.9 -2,-2 0,-1.1 0.9,-2 2,-2 1.1,0 2,0.9 2,2 0,1.1 -0.9,2 -2,2 z"
       id="path18"
       inkscape:connector-curvature="0" /><path
       d="m 43,19 h 6 V 12 C 49,9.2 46.8,7 44,7 H 18 c -2.8,0 -5,2.2 -5,5 v 7 h 6 c 3.3,0 6,2.7 6,6 v 20 h 1 c 2.1,0 3.9,1.1 5,2.7 1.1,-1.6 2.9,-2.7 5,-2.7 h 1 V 25 c 0,-3.3 2.7,-6 6,-6 z m -7,-1 h -9 c -0.6,0 -1,-0.4 -1,-1 0,-0.6 0.4,-1 1,-1 h 9 c 0.6,0 1,0.4 1,1 0,0.6 -0.4,1 -1,1 z m 0,-4 h -9 c -0.6,0 -1,-0.4 -1,-1 0,-0.6 0.4,-1 1,-1 h 9 c 0.6,0 1,0.4 1,1 0,0.6 -0.4,1 -1,1 z"
       id="path20"
       inkscape:connector-curvature="0" /></g><metadata
     id="metadata23"><rdf:RDF><rdf:Description
         about="https://iconscout.com/legal#licenses"
         dc:title="wildebeest"
         dc:description="wildebeest"
         dc:publisher="Iconscout"
         dc:date="2017-09-07"
         dc:format="image/svg+xml"
         dc:language="en"><dc:creator><rdf:Bag><rdf:li>Madeby Grids</rdf:li></rdf:Bag></dc:creator></rdf:Description><cc:Work
         rdf:about=""><dc:format>image/svg+xml</dc:format><dc:type
           rdf:resource="http://purl.org/dc/dcmitype/StillImage" /><dc:title></dc:title></cc:Work></rdf:RDF></metadata><path
     style="fill:none;stroke:#000000;stroke-width:1px;stroke-linecap:butt;stroke-linejoin:miter;stroke-opacity:1"
     d="m 13.491525,20.338983 0.0678,6.847458"
     id="path19"
     inkscape:connector-curvature="0" /><path
     style="fill:none;stroke:#000000;stroke-width:1px;stroke-linecap:butt;stroke-linejoin:miter;stroke-opacity:1"
     d="m 48.187753,26.162712 0.01564,-5.688136"
     id="path25"
     inkscape:connector-curvature="0" /><path
     style="fill:none;stroke:#000000;stroke-width:1px;stroke-linecap:butt;stroke-linejoin:miter;stroke-opacity:1"
     d="m 18.361946,43.58983 1.027885,-0.945762"
     id="path27"
     inkscape:connector-curvature="0" /><path
     style="fill:none;stroke:#000000;stroke-width:1px;stroke-linecap:butt;stroke-linejoin:miter;stroke-opacity:1"
     d="M 43.638053,43.58983 42.101695,42.644068"
     id="path29"
     inkscape:connector-curvature="0" /><path
     style="fill:#ffffff;stroke:#000000;stroke-width:1px;stroke-linecap:butt;stroke-linejoin:miter;stroke-opacity:1"
     d="m 29.146419,8.0169491 4.141717,-0.016949"
     id="path31"
     inkscape:connector-curvature="0" /><path
     style="fill:#ffffff;fill-opacity:1;stroke-width:0.06779661"
     d="m 24.867298,53.155092 -0.592722,-1.543213 -0.001,-13.050007 C 24.272475,24.222465 24.2981,25.110056 23.860117,24.242416 23.588471,23.704287 22.95384,23.043279 22.45206,22.775833 21.704131,22.377189 21.535948,22.359322 18.531519,22.359322 H 15.8 v 6.937205 c 0,7.710287 -0.0076,7.562258 0.454296,8.889152 0.501435,1.440583 1.344891,2.753735 2.167872,3.375092 0.240157,0.181321 0.38019,0.346543 0.435341,0.513651 l 0.0813,0.246348 -0.480734,0.45032 c -0.360366,0.337566 -0.461348,0.469707 -0.403304,0.527751 0.172807,0.172807 -0.05907,0.05965 -0.451264,-0.220206 -1.534243,-1.094813 -2.792258,-3.308081 -3.308513,-5.820778 -0.04595,-0.223652 -0.09525,-2.500176 -0.132515,-6.118874 -0.03264,-3.169491 -0.07528,-6.838136 -0.09477,-8.152542 -0.02413,-1.627526 -0.013,-2.389831 0.03487,-2.389831 0.04759,0 0.07039,-1.08961 0.07057,-3.372881 3.01e-4,-3.725439 0.03389,-4.152349 0.408062,-5.186423 0.334943,-0.925661 0.748533,-1.563658 1.483325,-2.2881535 0.845975,-0.8341211 1.458229,-1.1934301 2.620984,-1.5381585 0.365354,-0.1083183 0.865304,-0.1213238 5.402611,-0.1405417 l 5,-0.021178 v 0.2397694 0.2397694 h 2.101695 2.101695 V 8.2889663 8.0491191 l 4.830508,0.021441 c 4.807637,0.021339 4.832904,0.022174 5.336362,0.1762589 2.003853,0.6132865 3.455555,2.111906 4.115101,4.248096 l 0.188389,0.61017 0.0228,3.677966 c 0.0158,2.549403 8.47e-4,3.677966 -0.04874,3.677966 -0.04906,0 -0.07154,0.905201 -0.07154,2.881356 0,1.948169 0.02282,2.881356 0.07045,2.881356 0.04835,0 0.06309,1.70686 0.04696,5.440678 -0.02274,5.267391 -0.02806,5.459225 -0.166815,6.023003 -0.60213,2.446463 -1.832709,4.461596 -3.356453,5.496351 -0.388655,0.26393 -0.569269,0.305906 -0.390759,0.09082 0.04791,-0.05773 0.07514,-0.115541 0.06051,-0.128458 -0.01463,-0.01292 -0.31644,-0.200153 -0.670678,-0.416077 -0.354237,-0.215925 -0.652413,-0.398557 -0.662613,-0.40585 -0.08478,-0.06062 0.130034,-0.257541 0.447446,-0.410175 0.515893,-0.248079 1.433235,-1.186602 1.862796,-1.905809 0.426687,-0.714393 0.832807,-1.662729 1.054531,-2.462444 l 0.178568,-0.644068 0.01903,-7.271187 0.01902,-7.271186 h -2.676391 c -1.691994,0 -2.808534,0.02756 -3.035661,0.07492 -1.299614,0.271018 -2.376616,1.387144 -2.668856,2.76581 -0.07928,0.374007 -0.09503,2.510552 -0.09598,13.023676 L 37.698367,50.8 l -0.661048,1.948359 -0.661046,1.948358 -5.458126,7.94e-4 -5.458126,7.93e-4 -0.592722,-1.543213 z m 4.188372,-4.03788 c 0.425642,-0.425642 0.376391,-1.133108 -0.10122,-1.453975 -0.232209,-0.156002 -0.256625,-0.157859 -1.812385,-0.137803 l -1.577007,0.02033 -0.213909,0.21404 c -0.39611,0.396352 -0.33955,1.183981 0.104465,1.454741 0.188499,0.114947 0.362661,0.127347 1.791844,0.127575 l 1.583051,2.72e-4 0.225161,-0.225162 z m 7.551407,0.05072 c 0.483075,-0.40648 0.385213,-1.32968 -0.165335,-1.559714 -0.174614,-0.07296 -0.57845,-0.09635 -1.663216,-0.09635 -1.578472,0 -1.766953,0.03818 -1.981505,0.401387 -0.142924,0.241951 -0.15019,0.758923 -0.01436,1.021594 0.205792,0.397959 0.252995,0.407528 2.01027,0.407528 h 1.606832 z m -5.317156,-3.145408 c 0.338848,-0.461603 1.016621,-1.069251 1.535689,-1.376801 0.72215,-0.427878 1.381867,-0.606219 2.379354,-0.643212 l 0.862591,-0.03199 0.01939,-9.432718 0.01939,-9.432718 0.152471,-0.53844 c 0.526973,-1.860974 1.854887,-3.248954 3.610094,-3.773392 0.483102,-0.144346 0.646116,-0.152945 3.408428,-0.179785 l 2.901061,-0.02819 -0.01971,-3.638403 -0.0197,-3.638402 -0.209172,-0.584255 C 45.421746,11.305103 44.369254,10.297888 42.986441,9.9074701 42.566804,9.7889915 41.995452,9.7830508 31.020339,9.7830508 c -10.806814,0 -11.5529,0.00747 -11.966102,0.1197817 -1.216023,0.3305305 -2.199539,1.1369585 -2.747866,2.2530995 -0.470031,0.956765 -0.464601,0.902856 -0.490054,4.864407 l -0.02298,3.576271 h 2.530533 c 1.391793,0 2.784059,0.03179 3.093925,0.07064 2.004124,0.251296 3.646929,1.704191 4.292613,3.796384 l 0.156114,0.505854 0.01896,9.508474 0.01896,9.508475 0.693544,0.0012 c 1.413937,0.0024 2.470363,0.417126 3.467954,1.361429 0.317271,0.300323 0.641412,0.650495 0.720312,0.778159 0.0789,0.127665 0.168878,0.232117 0.199949,0.232117 0.03107,0 0.167748,-0.15156 0.303725,-0.336798 z"
     id="path33"
     inkscape:connector-curvature="0" /><path
     style="fill:#ffffff;fill-opacity:1;stroke-width:0.06779661"
     d="m 19.543394,29.460558 c -0.314382,-0.100737 -0.792209,-0.542603 -0.953415,-0.881661 -0.351674,-0.739659 -0.224415,-1.483645 0.352369,-2.060046 0.394395,-0.394132 0.758086,-0.531845 1.273725,-0.482299 0.876608,0.08423 1.557822,0.984879 1.460853,1.931427 -0.111582,1.089196 -1.142234,1.810221 -2.133532,1.492579 z"
     id="path35"
     inkscape:connector-curvature="0" /><path
     style="fill:#ffffff;fill-opacity:1;stroke-width:0.06779661"
     d="m 41.32493,29.390654 c -0.641139,-0.306689 -0.997845,-0.877086 -1.00572,-1.608212 -0.0059,-0.551804 0.183568,-0.9751 0.6011,-1.342626 0.513583,-0.452074 1.122318,-0.538687 1.713943,-0.243868 1.546485,0.770646 1.124603,3.189951 -0.579989,3.325983 -0.314523,0.0251 -0.455456,-2.64e-4 -0.729334,-0.131277 z"
     id="path37"
     inkscape:connector-curvature="0" /><path
     style="fill:#ffffff;fill-opacity:1;stroke-width:0.06779661"
     d="M 24.865072,53.155932 24.27143,51.613559 24.271769,38.833898 C 24.271972,31.285773 24.245921,25.804967 24.208096,25.445317 24.15764,24.965571 24.092359,24.731798 23.900368,24.34333 23.445834,23.423642 22.617144,22.72204 21.70378,22.483612 21.319075,22.383186 20.881212,22.3666 18.525904,22.36323 l -2.731663,-0.0039 0.02137,7.20339 0.02137,7.20339 0.180495,0.659032 c 0.4734,1.728506 1.403635,3.34181 2.360242,4.093364 0.268196,0.210707 0.425819,0.392362 0.478217,0.551131 0.07785,0.23589 0.07635,0.238652 -0.378512,0.697028 -0.256442,0.258422 -0.436428,0.492955 -0.4105,0.534906 0.09592,0.1552 -0.09785,0.06428 -0.48789,-0.228911 -1.470737,-1.105572 -2.685996,-3.175369 -3.216212,-5.477769 -0.137754,-0.598177 -0.146403,-0.86584 -0.198762,-6.150815 -0.03011,-3.038983 -0.07392,-6.722882 -0.09737,-8.186441 -0.03064,-1.912456 -0.02169,-2.661017 0.03179,-2.661017 0.05302,0 0.07441,-0.96355 0.07441,-3.351026 0,-1.980065 0.02938,-3.567994 0.07182,-3.881356 0.0948,-0.700089 0.444206,-1.713942 0.81527,-2.365648 0.562489,-0.987908 1.615981,-1.9547486 2.649167,-2.4312685 1.071624,-0.4942481 0.757103,-0.4696861 6.345103,-0.4955089 l 5.033899,-0.023262 V 8.288677 8.5288135 h 2.101695 2.101695 V 8.2915254 8.0542373 h 4.604205 c 4.976342,0 5.115067,0.00845 6.072929,0.3697394 1.133115,0.4273964 2.273128,1.40118 2.923735,2.4974153 0.190649,0.321231 0.465198,0.92872 0.610109,1.349976 l 0.263475,0.76592 0.02119,3.711865 c 0.01477,2.586496 -6.1e-4,3.711864 -0.05079,3.711864 -0.09927,0 -0.100739,5.639038 -0.0015,5.738283 0.048,0.048 0.063,1.798617 0.04702,5.488135 -0.02114,4.880629 -0.03526,5.467044 -0.142497,5.915959 -0.601974,2.520035 -1.83244,4.525859 -3.454352,5.631058 -0.324497,0.221118 -0.484248,0.241322 -0.317269,0.04012 0.04792,-0.05773 0.07514,-0.114004 0.06051,-0.125045 -0.01463,-0.01104 -0.31644,-0.198838 -0.670678,-0.417328 -0.354237,-0.218489 -0.652413,-0.402657 -0.662613,-0.409262 -0.08706,-0.05637 0.131355,-0.257471 0.447446,-0.411982 0.463813,-0.226721 1.281552,-1.024025 1.695704,-1.653332 0.371493,-0.564485 0.829086,-1.515759 1.051677,-2.186293 0.390243,-1.175579 0.383038,-1.012531 0.383038,-8.668654 v -7.043358 h -2.674629 c -1.70137,0 -2.805362,0.02742 -3.033898,0.07536 -1.182093,0.247955 -2.169605,1.195355 -2.606797,2.500911 -0.119037,0.355474 -0.12646,0.97106 -0.159008,13.186441 l -0.03414,12.813559 -0.644068,1.880804 -0.644068,1.880805 -5.458779,5.42e-4 -5.458779,5.43e-4 -0.593641,-1.542373 z m 4.14554,-3.98527 c 0.508146,-0.427576 0.410097,-1.323368 -0.171444,-1.566352 -0.301108,-0.125811 -3.027675,-0.130568 -3.274421,-0.0057 -0.424218,0.214657 -0.59548,0.828718 -0.366002,1.312305 0.192217,0.40507 0.2904,0.425739 2.036731,0.428756 l 1.57107,0.0027 z m 7.605477,-0.01473 c 0.534716,-0.479157 0.313205,-1.485457 -0.354561,-1.610731 -0.127374,-0.02389 -0.877715,-0.03354 -1.667425,-0.02144 l -1.435836,0.022 -0.213904,0.21404 c -0.396103,0.396356 -0.33954,1.183984 0.104472,1.454741 0.188419,0.114899 0.36249,0.127347 1.783994,0.127575 l 1.575202,2.72e-4 0.208058,-0.186441 z m -5.335064,-3.121289 c 0.131086,-0.178573 0.400633,-0.477482 0.598995,-0.664241 1.011678,-0.9525 2.10527,-1.383961 3.50782,-1.383961 h 0.679717 l 0.01988,-9.474577 0.01988,-9.474576 0.155657,-0.508474 c 0.480117,-1.568373 1.435989,-2.744737 2.757368,-3.393414 0.99295,-0.487448 1.019577,-0.490715 4.254237,-0.522028 l 2.898305,-0.02806 v -3.475033 c 0,-3.95017 -0.0077,-4.020371 -0.554797,-5.072002 C 45.07089,10.986504 43.94992,10.112105 42.86446,9.8903472 42.614961,9.8393752 38.978724,9.8169491 30.96345,9.8169491 c -12.726879,0 -11.855989,-0.028943 -12.788228,0.4249989 -0.64266,0.312935 -1.517726,1.202643 -1.849146,1.880086 -0.488407,0.998334 -0.480471,0.922037 -0.509517,4.898305 l -0.02612,3.576271 h 2.576148 c 1.473783,0 2.801315,0.03132 3.102349,0.07319 1.969563,0.273941 3.535747,1.662003 4.239475,3.757321 l 0.15939,0.474576 0.01853,9.542373 0.01853,9.542373 0.69333,0.0012 c 1.413712,0.0024 2.470202,0.417177 3.467739,1.361429 0.317271,0.300323 0.641412,0.650495 0.720312,0.778159 0.0789,0.127665 0.168878,0.232117 0.199949,0.232117 0.03107,0 0.163744,-0.146106 0.294829,-0.32468 z"
     id="path39"
     inkscape:connector-curvature="0" /><path
     style="fill:#ffffff;fill-opacity:1;stroke-width:0.06779661"
     d="m 28.327569,59.067597 c -0.951612,-0.230702 -1.739236,-0.830785 -2.115652,-1.611894 -0.128868,-0.267417 -0.25381,-0.585364 -0.27765,-0.70655 l -0.04335,-0.220339 h 4.986743 4.986743 l -0.04269,0.220339 c -0.232307,1.199152 -1.116189,2.096397 -2.313193,2.348163 -0.545438,0.114722 -4.683061,0.09099 -5.180959,-0.02972 z"
     id="path41"
     inkscape:connector-curvature="0" /><path
     style="fill:#f9f9f9;fill-opacity:1;stroke-width:0.06779661"
     d="m 19.529332,29.456525 c -0.388514,-0.123715 -0.918287,-0.694794 -1.044982,-1.126457 -0.135012,-0.460004 -0.135309,-0.634102 -0.0018,-1.083523 0.126794,-0.426962 0.549453,-0.918859 0.944614,-1.099358 1.10635,-0.50535 2.382318,0.527304 2.249807,1.820792 -0.112351,1.096702 -1.140404,1.809268 -2.147594,1.488546 z"
     id="path28"
     inkscape:connector-curvature="0" /><path
     style="fill:#f9f9f9;fill-opacity:1;stroke-width:0.06779661"
     d="m 41.4417,29.464608 c -0.12249,-0.04148 -0.356375,-0.193071 -0.519746,-0.336875 -0.830178,-0.730752 -0.825155,-1.963033 0.011,-2.699048 0.510112,-0.449018 1.104191,-0.530288 1.701298,-0.232737 1.551687,0.773238 1.125605,3.211848 -0.579989,3.319471 -0.214421,0.01353 -0.490075,-0.0093 -0.612564,-0.05081 z"
     id="path30"
     inkscape:connector-curvature="0" /><path
     style="fill:#f9f9f9;fill-opacity:1;stroke-width:0.06779661"
     d="m 24.880657,53.223729 -0.572182,-1.474576 -0.03411,-13.254238 -0.03411,-13.254237 -0.152962,-0.450843 c -0.414948,-1.223022 -1.479741,-2.166476 -2.661495,-2.358206 -0.251982,-0.04088 -1.546671,-0.0715 -3.035728,-0.0718 l -2.596365,-5.12e-4 0.02193,7.20339 0.02193,7.20339 0.178371,0.651832 c 0.477104,1.743505 1.383217,3.297466 2.409402,4.132064 0.220639,0.179446 0.383294,0.376331 0.431451,0.522247 0.07674,0.232533 0.07402,0.237514 -0.379375,0.694412 -0.256443,0.258422 -0.436428,0.492955 -0.410501,0.534906 0.09408,0.152219 -0.09365,0.06647 -0.479796,-0.21917 -1.505019,-1.11328 -2.738185,-3.245706 -3.259448,-5.636334 -0.08511,-0.390334 -0.113685,-1.396637 -0.157914,-5.561313 -0.0297,-2.79661 -0.07614,-6.475935 -0.103205,-8.176278 -0.03659,-2.298664 -0.02926,-3.103858 0.02856,-3.139594 0.05678,-0.03509 0.07777,-0.942388 0.07777,-3.36119 0,-3.518015 0.03141,-4.002372 0.318627,-4.913363 0.314677,-0.998089 0.716849,-1.677929 1.439925,-2.4340838 0.747044,-0.7812176 1.597603,-1.3113598 2.592049,-1.6155893 0.492613,-0.1507043 0.53985,-0.1521909 5.530755,-0.174055 l 5.033898,-0.022052 V 8.288677 8.5288136 h 2.101695 2.101695 V 8.2915254 8.0542373 h 4.604205 c 3.679858,0 4.704083,0.019178 5.101695,0.095524 2.239222,0.42996 3.981671,2.1383567 4.639205,4.5485437 0.12095,0.443341 0.128468,0.715531 0.114231,4.135593 -0.0084,2.01356 -0.03212,4.911865 -0.05275,6.440678 -0.02588,1.917763 -0.01495,2.822092 0.03524,2.916501 0.05058,0.09514 0.06619,1.789196 0.05122,5.559322 l -0.02153,5.422482 -0.209872,0.779661 c -0.625275,2.322853 -1.865617,4.293463 -3.300667,5.243975 -0.383614,0.254088 -0.560602,0.29 -0.384706,0.07806 0.04791,-0.05773 0.07514,-0.11383 0.06051,-0.124658 -0.01463,-0.01083 -0.31644,-0.196852 -0.670678,-0.413386 -0.354237,-0.216535 -0.652413,-0.400876 -0.662613,-0.409649 -0.06627,-0.05699 0.103367,-0.258403 0.281006,-0.333649 0.333065,-0.141082 0.995308,-0.671236 1.341954,-1.074291 0.948687,-1.103065 1.726992,-2.851277 1.885567,-4.235315 0.04136,-0.361024 0.06845,-3.298276 0.06878,-7.459899 l 5.56e-4,-6.864407 -2.593221,4.07e-4 c -1.426271,2.03e-4 -2.776271,0.03013 -3,0.06649 -0.5378,0.08738 -1.278339,0.459631 -1.679913,0.844448 -0.426032,0.408254 -0.828536,1.039993 -1.014485,1.592257 l -0.150023,0.445568 -0.01878,12.745763 -0.01878,12.745762 -0.659678,1.949153 -0.659678,1.949152 H 30.915582 25.45284 l -0.572183,-1.474576 z m 4.176258,-4.116827 c 0.28316,-0.300238 0.351448,-0.65617 0.198991,-1.037198 -0.199828,-0.499417 -0.276696,-0.52105 -1.93848,-0.54554 -1.606414,-0.02367 -1.840748,0.01675 -2.062963,0.355897 -0.176371,0.269174 -0.203228,0.719991 -0.06078,1.020182 0.193533,0.40784 0.329655,0.436465 2.089834,0.439476 l 1.551318,0.0027 0.222077,-0.235471 z m 7.47415,0.129661 c 0.346182,-0.242476 0.469962,-0.930659 0.238016,-1.323312 -0.223761,-0.378797 -0.406688,-0.412951 -2.08381,-0.389068 -1.402798,0.01998 -1.526507,0.03164 -1.664903,0.157013 -0.484449,0.438854 -0.4373,1.333331 0.08218,1.559034 0.340491,0.147937 3.216465,0.14486 3.428518,-0.0037 z m -5.386246,-3.039286 c 0.219147,-0.334461 0.89766,-1.011539 1.304892,-1.302135 0.872855,-0.622856 1.797089,-0.908701 2.938135,-0.908701 h 0.679724 l 0.01876,-9.508475 0.01876,-9.508474 0.224384,-0.644068 c 0.529212,-1.519035 1.40638,-2.558859 2.69087,-3.189847 0.992616,-0.487608 1.019351,-0.49089 4.254238,-0.522205 l 2.898305,-0.02806 -0.0013,-3.333336 c -7.46e-4,-1.845913 -0.03146,-3.541656 -0.06883,-3.800185 -0.216906,-1.500548 -1.355859,-2.902935 -2.796082,-3.442803 L 42.884746,9.8508475 31.427119,9.8317889 c -7.412733,-0.01233 -11.661069,0.00512 -12.033898,0.04943 -1.570077,0.1866001 -2.997951,1.5191011 -3.431966,3.2027331 -0.09267,0.359487 -0.115489,0.994354 -0.142707,3.970285 l -0.0324,3.542373 h 2.578291 c 2.668712,0 3.336394,0.04642 4.045729,0.281271 0.842199,0.27884 1.872893,1.045963 2.43329,1.811045 0.289587,0.395359 0.604922,1.014402 0.841303,1.651589 l 0.183034,0.493383 0.01853,9.576271 0.01853,9.576272 0.693335,0.0012 c 1.492866,0.0025 2.556358,0.443295 3.625403,1.502535 0.232977,0.230839 0.492299,0.520628 0.576271,0.643975 0.182471,0.268031 0.207686,0.272647 0.344954,0.06315 z"
     id="path32"
     inkscape:connector-curvature="0" /><path
     style="fill:#f9f9f9;fill-opacity:1;stroke-width:0.06779661"
     d="m 28.327569,59.067597 c -0.951612,-0.230702 -1.739236,-0.830785 -2.115652,-1.611894 -0.128868,-0.267417 -0.25381,-0.585364 -0.27765,-0.70655 l -0.04334,-0.220339 h 4.986742 4.986743 l -0.04268,0.220339 c -0.232308,1.199152 -1.11619,2.096397 -2.313194,2.348163 -0.545438,0.114722 -4.683061,0.09099 -5.180959,-0.02972 z"
     id="path34"
     inkscape:connector-curvature="0" /><path
     style="fill:#aa0000;fill-opacity:1;stroke-width:0.06779661"
     d="m 30.624563,45.81302 c -0.644332,-0.788705 -1.520183,-1.386624 -2.48558,-1.696836 -0.307816,-0.09891 -0.700685,-0.152947 -1.303074,-0.179232 l -0.862396,-0.03763 -0.01896,-9.532713 -0.01896,-9.532712 -0.226779,-0.610169 C 25.148159,22.715241 24.218955,21.638383 22.966362,21.045485 22.011301,20.59342 21.902478,20.580608 18.726568,20.546318 l -2.870042,-0.03099 0.02518,-3.569531 0.02518,-3.56953 0.195122,-0.566253 c 0.437945,-1.270938 1.358541,-2.245263 2.579355,-2.729893 l 0.40678,-0.1614809 11.747202,-0.018432 c 12.993681,-0.020388 12.117285,-0.048132 12.99856,0.4114939 0.580598,0.30281 1.430354,1.17155 1.75084,1.789956 0.508037,0.980303 0.520347,1.097952 0.520347,4.973209 v 3.439622 l -2.864407,0.03169 c -2.702603,0.0299 -2.893024,0.04012 -3.371026,0.181072 -1.11397,0.328473 -2.149384,1.064344 -2.810411,1.997364 -0.378701,0.534525 -0.538274,0.85604 -0.804598,1.621138 l -0.217118,0.623738 -0.01951,9.465517 -0.01951,9.465518 -0.828062,0.03573 c -1.485183,0.06409 -2.508397,0.523905 -3.521008,1.582278 -0.176037,0.183991 -0.391825,0.431794 -0.47953,0.550671 l -0.15948,0.216145 z M 35.6698,19.599589 c 0.37757,-0.223036 0.512021,-0.817138 0.29055,-1.283855 -0.210957,-0.444558 -0.06822,-0.430988 -4.533231,-0.430988 -4.433017,0 -4.327142,-0.0094 -4.541225,0.40456 -0.131866,0.255 -0.132015,0.766101 -2.72e-4,1.020817 0.212228,0.410402 0.08885,0.399445 4.531061,0.402417 3.705602,0.0025 4.07431,-0.0073 4.253141,-0.112951 z m 0,-3.59322 c 0.37757,-0.223036 0.512021,-0.817138 0.29055,-1.283855 -0.210957,-0.444559 -0.06822,-0.430989 -4.533231,-0.430989 -4.433017,0 -4.327142,-0.0094 -4.541225,0.404561 -0.131866,0.255 -0.132015,0.766101 -2.72e-4,1.020816 0.212228,0.410403 0.08885,0.399446 4.531061,0.402417 3.705602,0.0025 4.07431,-0.0073 4.253141,-0.11295 z"
     id="path3734"
     inkscape:connector-curvature="0" /><path
     style="fill:#aa0000;fill-opacity:1;stroke-width:0.06779661"
     d="m 28.514503,60.930958 c -1.583316,-0.242351 -2.940251,-1.145069 -3.687796,-2.453351 -0.271133,-0.47451 -0.528636,-1.27161 -0.585755,-1.8132 -0.04252,-0.403196 -1.055151,-3.189642 -4.72433,-12.999946 l -0.133103,-0.355877 -0.337086,0.284235 -0.337086,0.284235 -0.318781,-0.318781 -0.318782,-0.318781 0.463424,-0.436859 c 0.435815,-0.410834 0.460538,-0.449998 0.414986,-0.657391 -0.03456,-0.15733 -0.221646,-0.384936 -0.652815,-0.794186 C 17.224399,40.332624 16.53643,39.085517 16.0173,37.21787 15.924,36.882215 15.907586,35.927468 15.886847,29.630508 l -0.02372,-7.203389 h 2.699958 c 2.207,0 2.772807,0.01897 3.098956,0.103926 1.273382,0.331673 2.308975,1.507721 2.475575,2.811328 0.03937,0.308046 0.06581,5.590552 0.06707,13.401378 l 0.0021,12.892903 0.601417,1.547774 0.601419,1.547775 h 5.507878 5.507878 l 0.670365,-1.961042 0.670365,-1.961043 0.0012,-12.344042 c 6.99e-4,-7.167851 0.02777,-12.596582 0.06456,-12.946292 0.148038,-1.407277 1.190737,-2.640355 2.535485,-2.99842 0.266132,-0.07086 0.981873,-0.09282 3.045138,-0.09344 l 2.69723,-8.04e-4 -0.02132,7.271186 -0.02132,7.271187 -0.179001,0.610169 c -0.604379,2.060177 -1.861018,3.862212 -3.037234,4.355428 -0.279671,0.117273 -0.244121,0.08584 -0.298859,0.264219 -0.03876,0.126299 0.04287,0.19908 0.63078,0.562429 l 0.675298,0.417357 -0.246514,0.395671 -0.246515,0.395671 -0.579129,-0.359324 c -0.388235,-0.240884 -0.593529,-0.333221 -0.622816,-0.280133 -0.02403,0.04355 -1.043572,2.931733 -2.265652,6.418174 -1.834529,5.233682 -2.237176,6.447134 -2.309212,6.959237 -0.109377,0.777578 -0.300361,1.357087 -0.633456,1.922118 -0.638071,1.082365 -1.643706,1.838325 -2.907036,2.18529 -0.472906,0.129881 -0.723331,0.144048 -2.824007,0.159769 -1.267797,0.0095 -2.486949,-0.01059 -2.709226,-0.04461 z m 4.994024,-1.765201 c 0.868195,-0.181051 1.697979,-0.781462 2.055751,-1.487492 0.188934,-0.372844 0.388054,-1.067519 0.331992,-1.158229 -0.02017,-0.03263 -2.277631,-0.05902 -5.049424,-0.05902 -4.456645,0 -5.012948,0.01152 -5.012948,0.103834 0,0.183179 0.271099,0.915704 0.433998,1.172689 0.390754,0.616441 1.254516,1.202657 2.059673,1.397854 0.495715,0.120178 4.633973,0.14443 5.180958,0.03036 z M 20.797623,29.420028 c 0.552567,-0.281898 0.968479,-0.984895 0.968479,-1.636977 0,-0.71115 -0.458348,-1.418982 -1.096651,-1.693573 -0.713765,-0.307053 -1.547441,-0.04515 -2.000378,0.628427 -0.84433,1.255632 0.03534,2.966648 1.474818,2.868625 0.207784,-0.01415 0.501964,-0.08907 0.653732,-0.166502 z m 21.901696,-0.0017 c 0.352182,-0.17967 0.726344,-0.619745 0.859713,-1.011162 0.423948,-1.244221 -0.530105,-2.561917 -1.762795,-2.434692 -0.916164,0.09456 -1.533625,0.825865 -1.533625,1.816394 0,0.567213 0.164016,0.963492 0.556381,1.344268 0.494409,0.479809 1.268661,0.59724 1.880326,0.285192 z"
     id="path3736"
     inkscape:connector-curvature="0" /><path
     style="fill:#aa0000;fill-opacity:1;stroke-width:0.06779661"
     d="M 10.452241,49.26674 C 9.6527692,49.173991 8.9059843,48.949371 8.1050848,48.560755 6.8656542,47.959353 6.1001422,47.215759 5.5246854,46.054237 5.0606077,45.117527 4.9491477,44.581969 4.9109098,43.105085 l -0.032473,-1.254238 0.1279689,0.338984 c 0.2043449,0.541298 0.3466223,0.778741 0.6805341,1.135719 0.4482888,0.479257 0.754104,0.622558 1.3333995,0.624813 0.8299278,0.0032 1.4795324,-0.447352 1.8880508,-1.3096 l 0.2136441,-0.450932 0.019359,-6.922387 0.019359,-6.922386 0.6247088,-0.0389 c 0.975663,-0.06076 1.987924,-0.437417 2.912844,-1.083853 l 0.389831,-0.272457 v -1.380007 c 0,-0.759004 -0.01167,-1.380007 -0.02594,-1.380007 -0.01426,0 -0.156307,0.200102 -0.31565,0.444671 -0.559097,0.858134 -1.57365,1.542434 -2.607568,1.758762 -0.6351027,0.132882 -0.9310848,0.12673 -1.5528077,-0.03228 C 7.5814134,26.104014 6.7063399,25.493875 6.1143479,24.637529 5.7252719,24.074711 5.3659415,23.345714 5.2002549,22.783051 L 5.0954441,22.427119 H 9.0578915 13.020339 V 21.477966 20.528814 H 11.083952 9.1475661 l 0.027214,-3.711865 c 0.025317,-3.453082 0.037108,-3.757657 0.1691219,-4.368695 0.959961,-4.4432621 4.057484,-7.7158697 8.210025,-8.6740897 0.763101,-0.1760892 2.613485,-0.2429101 3.678332,-0.1328315 1.981719,0.2048603 3.750204,0.8071568 5.208214,1.7737719 0.933643,0.6189766 1.639395,1.2817422 2.431051,2.2829774 l 0.224066,0.2833847 -5.003727,0.021665 c -5.601582,0.024253 -5.301187,-5.424e-4 -6.451811,0.5324806 -1.717118,0.7954443 -2.872613,2.2767766 -3.379265,4.3321846 -0.09072,0.368036 -0.113212,1.035784 -0.136445,4.050847 -0.01933,2.508803 -0.05002,3.61017 -0.100589,3.61017 -0.05141,0 -0.05862,0.771269 -0.02459,2.627118 0.0265,1.444915 0.07166,5.128814 0.100355,8.186441 0.04991,5.318844 0.05841,5.587182 0.196375,6.20339 0.576164,2.573315 1.927827,4.782318 3.531732,5.771853 l 0.479684,0.295943 6.1e-4,0.495488 c 0.0026,2.18039 -1.014758,3.773846 -2.905475,4.550958 -1.35118,0.555355 -3.316591,0.796252 -4.950178,0.606735 z"
     id="path3738"
     inkscape:connector-curvature="0" /><path
     style="fill:#aa0000;fill-opacity:1;stroke-width:0.06779661"
     d="m 49.359322,49.301913 c -0.798915,-0.09548 -1.664473,-0.269084 -2.177463,-0.436721 -2.278198,-0.744481 -3.356047,-2.144547 -3.488117,-4.530871 l -0.03989,-0.720762 0.425703,-0.237288 c 0.526989,-0.293746 1.479956,-1.219478 1.954149,-1.898305 0.665696,-0.952971 1.22202,-2.189184 1.577891,-3.50625 l 0.215845,-0.798835 0.02349,-5.508474 c 0.01626,-3.813322 0.0016,-5.508475 -0.04762,-5.508475 -0.04848,0 -0.07111,-0.895571 -0.07111,-2.813559 0,-1.938738 0.02237,-2.813559 0.07195,-2.813559 0.05016,0 0.06453,-1.134299 0.04744,-3.745763 L 47.827079,13.037288 47.6045,12.359322 C 46.952012,10.371873 45.606214,8.9241098 43.849443,8.319763 42.904348,7.9946405 42.665228,7.9820747 37.8,8.0018635 l -4.542373,0.018475 0.02129,0.220339 0.02129,0.2203389 H 31.228066 29.155932 V 8.0302872 7.5995574 l 0.518704,-0.043846 c 0.285287,-0.024116 1.201514,-0.043846 2.03606,-0.043846 h 1.517356 l 0.727876,-0.7288136 c 2.171957,-2.1747557 4.838837,-3.2009367 8.32365,-3.2028335 2.316076,-0.00126 4.213912,0.6238318 6.130592,2.0192408 0.682351,0.4967757 1.760772,1.6070289 2.322789,2.3913531 0.836163,1.1669093 1.554607,2.8065618 1.869585,4.2668158 0.236007,1.094146 0.282202,1.938753 0.282202,5.159726 v 3.111461 h -2.101695 -2.101695 v 0.915254 0.915254 h 4.101695 c 3.359746,0 4.101695,0.01625 4.101695,0.08982 0,0.0494 -0.07612,0.313606 -0.169143,0.587121 -0.502155,1.476395 -1.659845,2.713775 -2.992372,3.198351 -0.526753,0.191553 -1.5705,0.206283 -2.160519,0.03049 -1.115426,-0.332337 -2.034774,-1.122161 -2.691802,-2.312561 l -0.187098,-0.338983 -0.0012,1.271187 -0.0012,1.271186 -0.288136,0.0023 -0.288135,0.0023 0.450397,0.430988 c 1.117695,1.069528 2.597699,1.732198 3.871637,1.73352 l 0.457627,4.69e-4 v 6.663722 c 0,7.335896 -0.01577,7.04171 0.421369,7.861862 0.434298,0.814827 1.318418,1.274622 2.064575,1.073703 0.618854,-0.16664 1.297861,-0.842517 1.518717,-1.511716 0.16922,-0.512741 0.21634,-0.274769 0.180667,0.912429 -0.03642,1.211895 -0.103404,1.591824 -0.417991,2.370663 -0.27869,0.689968 -0.597267,1.153265 -1.224964,1.781427 -0.890029,0.890689 -1.918901,1.419763 -3.30556,1.699809 -0.484364,0.09782 -2.300731,0.179748 -2.762237,0.12459 z"
     id="path3740"
     inkscape:connector-curvature="0" /><path
     style="fill:#aa0000;fill-opacity:1;stroke-width:0.06779661"
     d="m 33.116624,49.19698 c -0.517167,-0.250947 -0.462355,-1.345902 0.07765,-1.551212 0.09563,-0.03636 0.820193,-0.06566 1.610139,-0.06511 1.539976,0.0011 1.653506,0.0221 1.898143,0.351652 0.248685,0.335 0.117405,1.091437 -0.220836,1.272458 -0.171397,0.09173 -3.174328,0.08478 -3.365097,-0.0078 z"
     id="path3742"
     inkscape:connector-curvature="0" /><path
     style="fill:#aa0000;fill-opacity:1;stroke-width:0.06779661"
     d="m 25.386441,49.044068 c -0.196047,-0.196047 -0.230509,-0.277637 -0.230509,-0.54574 0,-0.173377 0.04628,-0.404725 0.102843,-0.514107 0.189825,-0.367081 0.361343,-0.40456 1.851418,-0.40456 1.545903,0 1.709615,0.02135 1.941435,0.253169 0.327,0.327 0.286747,1.017209 -0.07596,1.302516 -0.167122,0.131458 -0.265807,0.13923 -1.76786,0.13923 h -1.590857 z"
     id="path3744"
     inkscape:connector-curvature="0" /></svg>