<?xml version="1.0" encoding="UTF-8" standalone="no"?>
<svg
   xmlns:dc="http://purl.org/dc/elements/1.1/"
   xmlns:cc="http://creativecommons.org/ns#"
   xmlns:rdf="http://www.w3.org/1999/02/22-rdf-syntax-ns#"
   xmlns:svg="http://www.w3.org/2000/svg"
   xmlns="http://www.w3.org/2000/svg"
   xmlns:sodipodi="http://sodipodi.sourceforge.net/DTD/sodipodi-0.dtd"
   xmlns:inkscape="http://www.inkscape.org/namespaces/inkscape"
   version="1.0"
   width="1280.000000pt"
   height="1265.000000pt"
   viewBox="0 0 1280.000000 1265.000000"
   preserveAspectRatio="xMidYMid meet"
   id="svg8"
   sodipodi:docname="inplace.svg"
   inkscape:version="0.92.5 (2060ec1f9f, 2020-04-08)">
  <defs
     id="defs12" />
  <sodipodi:namedview
     pagecolor="#ffffff"
     bordercolor="#666666"
     borderopacity="1"
     objecttolerance="10"
     gridtolerance="10"
     guidetolerance="10"
     inkscape:pageopacity="0"
     inkscape:pageshadow="2"
     inkscape:window-width="960"
     inkscape:window-height="1060"
     id="namedview10"
     showgrid="false"
     inkscape:zoom="0.13992095"
     inkscape:cx="867.62712"
     inkscape:cy="843.33333"
     inkscape:window-x="0"
     inkscape:window-y="20"
     inkscape:window-maximized="0"
     inkscape:current-layer="svg8" />
  <metadata
     id="metadata2">
Created by potrace 1.15, written by Peter Selinger 2001-2017
<rdf:RDF>
  <cc:Work
     rdf:about="">
    <dc:format>image/svg+xml</dc:format>
    <dc:type
       rdf:resource="http://purl.org/dc/dcmitype/StillImage" />
  </cc:Work>
</rdf:RDF>
</metadata>
  <g
     transform="matrix(0.09,0,0,-0.09,63.940285,1201.4)"
     id="g6"
     style="fill:#000000;stroke:none">
    <path
       d="m 342,12148 -32,-34 v -421 -421 l 63,-7 c 555,-59 916,-166 1067,-315 118,-117 189,-323 220,-639 14,-143 14,-7769 0,-7912 -20,-207 -64,-388 -120,-499 -90,-179 -248,-275 -594,-360 -121,-30 -385,-74 -511,-85 -38,-3 -82,-9 -97,-11 l -28,-6 V 1016 594 l 28,-27 29,-28 3099,4 c 3291,3 3136,1 3594,47 1828,183 3208,805 4141,1868 562,640 941,1435 1133,2377 165,813 190,1803 66,2676 -151,1061 -523,1943 -1125,2669 -111,134 -398,423 -539,544 -944,808 -2203,1273 -3821,1411 -447,38 -460,38 -3525,42 l -3015,4 z m 5923,-888 c 813,-36 1401,-228 1855,-608 545,-456 862,-1220 1019,-2457 109,-859 131,-2099 56,-3105 C 9128,4209 8974,3466 8751,2945 8376,2073 7689,1602 6605,1475 c -189,-22 -705,-31 -901,-16 -499,40 -760,137 -885,332 -68,107 -124,289 -156,514 -16,111 -17,395 -21,3950 -2,2688 0,3877 8,3988 25,375 103,627 234,760 147,149 465,236 941,256 99,4 189,9 200,9 11,1 119,-3 240,-8 z"
       id="path4"
       inkscape:connector-curvature="0" />
  </g>
</svg>
