<?xml version="1.0" encoding="UTF-8" standalone="no"?>
<svg
   xmlns:dc="http://purl.org/dc/elements/1.1/"
   xmlns:cc="http://creativecommons.org/ns#"
   xmlns:rdf="http://www.w3.org/1999/02/22-rdf-syntax-ns#"
   xmlns:svg="http://www.w3.org/2000/svg"
   xmlns="http://www.w3.org/2000/svg"
   xmlns:sodipodi="http://sodipodi.sourceforge.net/DTD/sodipodi-0.dtd"
   xmlns:inkscape="http://www.inkscape.org/namespaces/inkscape"
   height="100%"
   width="100%"
   version="1.1"
   viewBox="0 0 2048 2048"
   id="svg6"
   sodipodi:docname="wd.svg"
   inkscape:version="0.92.4 5da689c313, 2019-01-14">
  <metadata
     id="metadata12">
    <rdf:RDF>
      <cc:Work
         rdf:about="">
        <dc:format>image/svg+xml</dc:format>
        <dc:type
           rdf:resource="http://purl.org/dc/dcmitype/StillImage" />
        <dc:title></dc:title>
      </cc:Work>
    </rdf:RDF>
  </metadata>
  <defs
     id="defs10" />
  <sodipodi:namedview
     pagecolor="#ffffff"
     bordercolor="#666666"
     borderopacity="1"
     objecttolerance="10"
     gridtolerance="10"
     guidetolerance="10"
     inkscape:pageopacity="0"
     inkscape:pageshadow="2"
     inkscape:window-width="960"
     inkscape:window-height="1060"
     id="namedview8"
     showgrid="false"
     inkscape:zoom="0.11523438"
     inkscape:cx="1058.7119"
     inkscape:cy="1024"
     inkscape:window-x="0"
     inkscape:window-y="20"
     inkscape:window-maximized="0"
     inkscape:current-layer="svg6" />
  <path
     style="color:#000000;display:block;fill:#ffffff;fill-rule:nonzero"
     d="m 1756,234 q -1,0 2,54 3,54 3,118 1,125 0,258 -1,133 -36,267 -34,128 -75,218 -41,90 -89,157 -72,108 -196,183 -124,75 -259,98 9,-49 8,-96 -2,-36 -34,-36 -37,0 -33,36 3,132 -94,226 -76,-80 -82,-186 -2,-35 -36,-31 -32,1 -32,37 0,0 2,8 -41,-13 -86,-37 -29,-20 -47,10 -18,30 16,47 43,22 65,33 -86,88 -196,142 12,-139 76,-263 17,-26 -8,-46 -28,-22 -47,7 -7,10 -20,36 -21,-21 -28,-31 -7,-9 -24,-40 -17,-31 -26,-51 -9,-25 -8,-40 1,-15 3,-35 -9,-59 -40,-111 -31,-52 -81,-127 -47,-72 -72,-108 -25,-36 -38,-92 -9,-34 0,-82 9,-48 39,-76 46,-47 89,-43 14,0 37,11 23,11 37,42 26,57 43,57 25,0 27,-28 0,-6 -16,-50 -9,-20 -24,-42 -19,-26 -17,-22 16,-57 53,-20 11,11 25,41 14,30 44,81 35,59 75,96 40,37 71,60 18,13 44,30 26,17 70,35 35,14 77,34 42,20 76,53 46,45 71,111 13,37 10,91 -9,34 34,34 32,0 36,-33 0,-113 -64,-206 21,-64 11,-140 -9,-61 -42,-130 Q 1017,674 914,588 707,416 718,234 q 0,0 170,0 170,0 321,0 z"
     display="block"
     id="path2"
     inkscape:connector-curvature="0" />
  <path
     style="color:#000000;display:block;fill:#000000;fill-rule:nonzero"
     d="m 697,1319 q 13,-20 10,-42 -10,-64 -71,-54 -18,3 -29,12 -4,-5 -12,-22 -11,-32 -42,-22 -31,12 -24,45 45,115 163,158 34,10 45,-20 12,-32 -18,-44 -6,-3 -11,-5 -5,-2 -11,-6 z M 400,842 q -29,-18 -35,-48 1,-33 -31,-36 -35,-4 -36,30 4,66 59,105 26,21 48,-4 22,-27 -5,-47 z m 679,815 q 157,-10 291,-81 134,-71 228,-182 66,-78 124,-188 58,-110 94,-233 40,-143 50,-300 10,-157 11,-292 V 163 q 0,0 -155,0 -155,0 -404,0 H 647 q -9,0 -9,49 0,49 7,79 4,24 19,68 15,44 50,107 16,32 76,93 60,61 138,143 45,46 70,116 25,70 22,127 -37,-30 -81,-49 -212,-76 -307,-220 -7,-9 -45,-81 -20,-38 -34,-52 -19,-19 -55,-21 -56,-3 -87,54 -42,-12 -75,-10 -56,21 -81,45 -51,51 -66,102 -15,51 -16,110 0,84 104,222 122,159 130,242 0,36 7,81 6,31 25,60 13,20 17,27 4,7 17,23 9,12 15,18 6,6 15,18 11,13 28,30 -53,146 -43,301 199,-71 334,-223 33,113 130,183 80,-56 127,-148 z M 1756,234 q -1,0 2,54 3,54 3,118 1,125 0,258 -1,133 -36,267 -34,128 -75,218 -41,90 -89,157 -72,108 -196,183 -124,75 -259,98 9,-49 8,-96 -2,-36 -34,-36 -37,0 -33,36 3,132 -94,226 -76,-80 -82,-186 -2,-35 -36,-31 -32,1 -32,37 0,0 2,8 -41,-13 -86,-37 -29,-20 -47,10 -18,30 16,47 43,22 65,33 -86,88 -196,142 12,-139 76,-263 17,-26 -8,-46 -28,-22 -47,7 -7,10 -20,36 -21,-21 -28,-31 -7,-9 -24,-40 -17,-31 -26,-51 -9,-25 -8,-40 1,-15 3,-35 -9,-59 -40,-111 -31,-52 -81,-127 -47,-72 -72,-108 -25,-36 -38,-92 -9,-34 0,-82 9,-48 39,-76 46,-47 89,-43 14,0 37,11 23,11 37,42 26,57 43,57 25,0 27,-28 0,-6 -16,-50 -9,-20 -24,-42 -19,-26 -17,-22 16,-57 53,-20 11,11 25,41 14,30 44,81 35,59 75,96 40,37 71,60 18,13 44,30 26,17 70,35 35,14 77,34 42,20 76,53 46,45 71,111 13,37 10,91 -9,34 34,34 32,0 36,-33 0,-113 -64,-206 21,-64 11,-140 -9,-61 -42,-130 Q 1017,674 914,588 707,416 718,234 q 0,0 170,0 170,0 321,0 z"
     display="block"
     id="path4"
     inkscape:connector-curvature="0" />
  <path
     style="fill:#ffcc00;fill-opacity:1;stroke-width:8.67796612"
     d="m 722.74458,280.6393 c 16.40726,109.4115 63.67577,182.6701 199.96743,309.9175 83.23649,77.713 104.10369,102.5993 129.91119,154.9325 38.7086,78.4943 53.3173,152.8139 42.3597,215.499 -7.3451,42.0189 -5.7974,51.4946 16.2498,99.4901 29.0323,63.2018 43.8935,142.6732 32.3551,173.0216 -6.0672,15.9577 -14.4923,21.2525 -33.8168,21.2525 -32.2052,0 -37.9061,-9.2458 -39.6909,-64.3713 -0.7855,-24.2568 -9.4727,-62.1541 -19.3051,-84.2163 C 1018.2276,1033.1343 978.35888,999.2764 852.82037,938.0551 701.93084,864.4709 624.80219,794.9675 554.20941,668.9661 506.59176,583.973 490.93259,567.6979 473.52368,585.1069 c -6.93497,6.9349 -1.83237,24.7258 18.68537,65.149 31.8715,62.792 32.79204,95.3592 2.8157,99.6156 -14.60744,2.0742 -23.42111,-4.3334 -34.71186,-25.2359 -8.32328,-15.4087 -25.37742,-39.895 -37.8981,-54.4138 -56.20367,-65.1735 -161.78391,-2.1435 -176.57684,105.4139 -8.3618,60.7976 10.55309,105.8294 105.67285,251.5819 102.82608,157.5609 123.8202,201.2119 124.04174,257.9078 0.18267,46.7461 30.82423,124.2095 62.51052,158.0299 l 17.97199,19.1823 16.79537,-21.3518 c 18.20256,-23.1408 40.68698,-27.4413 57.18992,-10.9383 15.47223,15.4722 13.27433,27.9693 -19.34645,110.002 -27.52833,69.2265 -54.37982,180.1677 -45.706,188.8416 5.77615,5.7761 128.94222,-79.1139 155.9892,-107.5128 l 24.11642,-25.3219 -35.49115,-16.0043 c -44.41077,-20.0264 -55.43387,-38.5441 -37.87079,-63.6189 16.49659,-23.5522 27.89964,-23.4312 78.03159,0.8278 l 40.34981,19.5254 13.0086,-19.5254 c 8.43604,-12.6622 21.72941,-19.5254 37.81868,-19.5254 20.06687,0 25.767,4.5624 29.81528,23.8644 17.49782,83.4285 25.29925,106.2769 48.89022,143.1864 14.49044,22.6712 29.64551,41.2204 33.67793,41.2204 13.11696,0 52.47762,-58.6544 69.59962,-103.716 9.1944,-24.1976 16.717,-62.6981 16.717,-85.5568 0,-47.5478 10.6948,-62.3882 44.9601,-62.3882 29.3042,0 37.8281,24.2325 30.4467,86.5564 -5.6719,47.891 -10.5631,47.0403 89.4746,15.561 145.9368,-45.9226 280.8633,-145.6645 363.2466,-268.5231 69.6749,-103.9064 133.4153,-263.4264 166.6274,-417.0104 20.2898,-93.8263 32.0005,-386.0828 21.5662,-538.2111 l -6.3985,-93.2881 H 1233.0542 716.56493 Z m -364.96444,484.428 c 7.50025,7.5002 13.63681,20.4873 13.63681,28.8602 0,8.3729 9.94031,24.5618 22.08958,35.9755 24.88653,23.3797 25.9875,57.3133 2.33977,72.1159 -31.07515,19.4519 -86.83428,-35.2232 -99.25463,-97.3249 -9.16803,-45.8402 29.76275,-71.0525 61.18847,-39.6267 z m 236.46459,439.7869 c 12.64983,15.6164 23.03712,18.9992 51.88393,16.8968 29.40919,-2.1434 38.62092,1.0166 49.8983,17.1173 7.60686,10.8603 13.83067,32.8953 13.83067,48.9665 0,19.4332 6.25147,34.2826 18.66417,44.3338 22.50576,18.2241 16.93304,57.2265 -9.36938,65.5746 -55.67266,17.6698 -191.53208,-102.0486 -191.53208,-168.7768 0,-44.2527 38.9045,-58.3327 66.62439,-24.1122 z"
     id="path14"
     inkscape:connector-curvature="0" />
</svg>
