<?xml version="1.0" encoding="UTF-8" standalone="no"?>
<svg
   xmlns:dc="http://purl.org/dc/elements/1.1/"
   xmlns:cc="http://creativecommons.org/ns#"
   xmlns:rdf="http://www.w3.org/1999/02/22-rdf-syntax-ns#"
   xmlns:svg="http://www.w3.org/2000/svg"
   xmlns="http://www.w3.org/2000/svg"
   xmlns:sodipodi="http://sodipodi.sourceforge.net/DTD/sodipodi-0.dtd"
   xmlns:inkscape="http://www.inkscape.org/namespaces/inkscape"
   height="100%"
   width="100%"
   version="1.1"
   viewBox="0 0 2048 2048"
   id="svg18"
   sodipodi:docname="wc.svg"
   inkscape:version="0.92.4 5da689c313, 2019-01-14">
  <metadata
     id="metadata24">
    <rdf:RDF>
      <cc:Work
         rdf:about="">
        <dc:format>image/svg+xml</dc:format>
        <dc:type
           rdf:resource="http://purl.org/dc/dcmitype/StillImage" />
        <dc:title></dc:title>
      </cc:Work>
    </rdf:RDF>
  </metadata>
  <defs
     id="defs22" />
  <sodipodi:namedview
     pagecolor="#ffffff"
     bordercolor="#666666"
     borderopacity="1"
     objecttolerance="10"
     gridtolerance="10"
     guidetolerance="10"
     inkscape:pageopacity="0"
     inkscape:pageshadow="2"
     inkscape:window-width="1920"
     inkscape:window-height="1060"
     id="namedview20"
     showgrid="false"
     inkscape:zoom="0.16296602"
     inkscape:cx="1041.3559"
     inkscape:cy="1024"
     inkscape:window-x="0"
     inkscape:window-y="20"
     inkscape:window-maximized="0"
     inkscape:current-layer="svg18" />
  <path
     style="color:black;"
     d="m1024 1166q97 0 186 15 98-35 142-109 38-64 38-141 0-46-23-101t-75-101q-59-49-129-107t-139-137q-70 78-140 136t-128 108q-53 45-75 100t-23 102q0 77 37 141 43 74 143 109 88-15 186-15z"
     fill-rule="nonzero"
     display="block"
     fill="#fff"
     id="path2" />
  <path
     style="color:black;"
     d="m988 1138l-83 1q-34 0-34 34t34 34h83v86q0 35 36 35 35 0 35-35v-86h86q33 0 33-34t-33-34h-86v-82q0-36-35-36-36 0-36 36v81zm36-578q68 0 132 11t125 28q-117 31-257 31-142 0-257-31 58-16 123-27t134-12zm0 1089q68 0 68 68t-68 68-68-68 68-68zm0-949q117 0 225-23l-48 123q-88 14-177 14-91 0-178-14l-48-123q107 23 226 23zm0 182q97 0 186-15 98 35 142 109 38 64 38 141 0 46-23 101t-75 101q-59 49-129 107t-139 137q-70-78-140-136t-128-108q-53-45-75-100t-23-102q0-77 37-141 43-74 143-109 88 15 186 15zm-36-377h-32q-56-90-107-113-24-12-53-22t-67-10q-7 0-107 16-48 7-76 15t-44 10q-57 7-133-6-46-8-86-29l48-78q12 12 31 15t36 8q42 7 80 2 13-3 51-7t101-15q75-11 102-11 105 0 161 40 34 26 64 72t31 113zm36-113q-14-57-34-79t-53-46q-36-25-85-42t-109-9l-281 39q-17 2-30 0t-26-2q-21 0-53-9t-51-28l-97 159q18 20 32 28t33 17q58 27 124 33 28 2 55 1t56 2q54-9 108-16t110-16q60 0 81 12 11 6 35 22t48 47q-53 6-108 20t-97 31l104 258q-78 45-109 72t-49 64q-26 46-33 89t-7 77q1 60 28 132t104 130q63 48 123 99t119 119q-74 38-74 121 0 56 39 96t97 40q56 0 96-40t40-96q0-82-74-121 58-68 117-119t125-99q75-57 102-129t29-133q0-34-7-77t-32-89q-20-36-50-63t-108-73l104-258q-44-16-99-30t-106-21q23-31 47-47t36-22q21-12 81-12 54 8 108 15t110 17q27-3 54-2t57-1q64-6 124-33 18-9 32-17t33-28l-98-159q-18 18-50 27t-53 10q-13 0-26 2t-31 0l-280-39q-60-9-111 8t-85 45q-33 27-52 46t-33 77zm35 113q0-66 30-112t66-73q55-40 161-40 26 0 102 11 62 10 100 14t51 8q38 5 80-2 16-4 35-7t33-16l48 78q-41 21-87 29-76 13-133 6-17-2-44-10t-75-15q-101-16-107-16-39 0-68 10t-52 22q-53 24-108 113h-32z"
     fill-rule="nonzero"
     transform="translate(0,2048) scale(1,-1)"
     display="block"
     fill="#000"
     id="path4" />
  <g
     fill-rule="nonzero"
     fill="#fff"
     id="g16">
    <path
       style="color:black;"
       d="m1024 1488q68 0 132-11t125-28q-117-31-257-31-142 0-257 31 58 16 123 27t134 12z"
       display="block"
       id="path6" />
    <path
       style="color:black;"
       d="m1024 399q68 0 68-68t-68-68-68 68 68 68z"
       display="block"
       id="path8" />
    <path
       style="color:black;"
       d="m1024 1348q117 0 225 23l-48-123q-88-14-177-14-91 0-178 14l-48 123q107-23 226-23z"
       display="block"
       id="path10" />
    <path
       style="color:black;"
       d="m988 1543h-32q-56 90-107 113-24 12-53 22t-67 10q-7 0-107-16-48-7-76-15t-44-10q-57-7-133 6-46 8-86 29l48 78q12-12 31-15t36-8q42-7 80-2 13 3 51 7t101 15q75 11 102 11 105 0 161-40 34-26 64-72t31-113z"
       display="block"
       id="path12" />
    <path
       style="color:black;"
       d="m1059 1543q0 66 30 112t66 73q55 40 161 40 26 0 102-11 62-10 100-14t51-8q38-5 80 2 16 4 35 7t33 16l48-78q-41-21-87-29-76-13-133-6-17 2-44 10t-75 15q-101 16-107 16-39 0-68-10t-52-22q-53-24-108-113h-32z"
       display="block"
       id="path14" />
  </g>
  <path
     style="fill:#ffcc00;fill-opacity:1;stroke-width:8.67796612"
     d="m 800.97627,1159.9976 c -87.05319,-45.5347 -134.28336,-121.7479 -134.4237,-216.91333 -0.0957,-64.874 16.01692,-118.77001 48.07071,-160.79468 11.9796,-15.70607 75.36062,-75.0641 140.8467,-131.90673 65.48609,-56.84264 130.14234,-115.11812 143.68056,-129.50107 l 24.61496,-26.15082 53.5363,53.32604 c 29.4449,29.32932 95.1582,87.77276 146.0294,129.8743 50.8712,42.10154 102.3803,91.48882 114.4646,109.7495 88.4137,133.60205 46.2579,305.60949 -91.1339,371.85219 -34.534,16.6504 -43.4781,17.4252 -102.906,8.9146 -59.5244,-8.5245 -247.60906,-4.9704 -290.71183,5.4933 -9.54576,2.3173 -32.97627,-3.9571 -52.0678,-13.9433 z m 255.69463,-145.8407 c 4.9409,-9.2319 8.9833,-36.3812 8.9833,-60.33163 v -43.54624 l 54.2373,-2.58359 54.2373,-2.58358 V 874.73898 844.3661 l -54.2373,-2.58358 -54.2373,-2.58358 v -45.65611 c 0,-56.70368 -13.6186,-77.51264 -48.1567,-73.58221 -25.2414,2.87247 -25.64251,3.74795 -28.17196,61.49023 l -2.56599,58.57627 h -55.42549 c -47.804,0 -56.18298,2.3866 -60.93406,17.35593 -3.0297,9.54576 -3.0297,25.1661 0,34.71187 4.51121,14.21358 13.13006,17.35593 47.60385,17.35593 65.68527,0 69.54869,3.38582 69.54869,60.95104 0,32.21321 3.91652,51.99651 10.84746,54.79321 24.0776,9.7155 49.7684,4.8489 58.2709,-11.0382 z"
     id="path26"
     inkscape:connector-curvature="0" />
  <path
     style="fill:#ffcc00;fill-opacity:1;stroke-width:8.67796612"
     d="M 980.80548,383.94182 C 965.9735,373.5531 961.51864,361.83719 961.51864,333.219 c 0,-45.35868 19.33129,-65.93764 61.93996,-65.93764 40.385,0 58.8912,15.24021 65.1207,53.62822 4.3157,26.59489 1.4726,35.57656 -17.1596,54.20882 -25.6026,25.60251 -61.6477,29.11236 -90.61422,8.82342 z"
     id="path28"
     inkscape:connector-curvature="0" />
  <path
     style="fill:#ffcc00;fill-opacity:1;stroke-width:6.13624859"
     d="m 824.27286,1308.2731 22.31222,-58.1295 27.739,-4.767 c 41.69951,-7.1662 295.03742,-5.0229 313.07462,2.6486 11.7646,5.0037 20.0466,19.0271 35.5293,60.1597 11.1038,29.4994 18.9677,54.8562 17.4753,56.3485 -1.4923,1.4923 -18.8612,-0.51 -38.5974,-4.4497 -62.8066,-12.5372 -254.18711,-14.5583 -326.90268,-3.4524 -35.18755,5.3743 -65.99454,9.7714 -68.45997,9.7714 -2.46544,0 5.55788,-26.1583 17.82961,-58.1296 z"
     id="path30"
     inkscape:connector-curvature="0" />
  <path
     style="fill:#ffcc00;fill-opacity:1;stroke-width:6.13624859"
     d="m 917.40371,1478.8636 c -8.43734,-1.3511 -44.3344,-8.386 -79.77123,-15.6331 l -64.43062,-13.1767 30.68125,-7.8691 c 92.74715,-23.7878 307.47489,-26.448 416.02979,-5.154 29.695,5.825 53.073,11.5089 51.9509,12.631 -1.1221,1.1221 -36.8103,9.0803 -79.3071,17.6849 -64.1926,12.9976 -92.711,15.5034 -168.5396,14.8092 -50.20003,-0.4597 -98.17605,-1.9411 -106.61339,-3.2922 z"
     id="path32"
     inkscape:connector-curvature="0" />
  <path
     style="fill:#ffcc00;fill-opacity:1;stroke-width:6.13624859"
     d="m 1226.5694,1756.5958 c -85.9282,-20.8535 -148.5732,-92.8152 -164.7316,-189.231 -3.5744,-21.3281 -2.7675,-23.0109 11.0339,-23.0109 10.0951,0 20.3623,7.4104 31.8819,23.0109 49.5841,67.1496 92.5625,97.6408 163.0995,115.7115 35.0317,8.9747 42.4333,8.7516 121.0967,-3.6493 46.0814,-7.2646 99.3702,-17.1567 118.4195,-21.9826 63.8895,-16.1854 178.1437,-8.0013 236.3262,16.9284 l 19.3751,8.3017 -22.0782,35.5659 c -18.3708,29.5934 -24.2005,34.8766 -34.7158,31.4615 -6.9506,-2.2574 -32.7732,-7.8997 -57.3835,-12.5385 -41.9984,-7.9162 -52.7373,-7.3136 -174.8831,9.813 -139.1255,19.5074 -197.3666,21.7715 -247.4406,9.6194 z"
     id="path34"
     inkscape:connector-curvature="0" />
  <path
     style="fill:#ffcc00;fill-opacity:1;stroke-width:6.13624859"
     d="m 656.61314,1759.3398 c -16.87468,-2.8531 -72.10092,-10.8073 -122.72497,-17.6761 -83.4441,-11.3218 -96.56781,-11.6966 -140.46584,-4.0122 -26.63215,4.6621 -51.21774,11.2721 -54.63464,14.689 -4.19258,4.1926 -11.67949,-2.4079 -23.02639,-20.3001 -34.29128,-54.0718 -34.79139,-50.0288 8.03284,-64.9395 58.74999,-20.4559 158.16962,-23.6557 228.80111,-7.3639 30.21035,6.9682 84.43739,16.9551 120.50454,22.1929 73.86422,10.727 104.55953,7.5072 159.32433,-16.7124 41.13417,-18.1914 68.31378,-41.5723 100.32021,-86.2991 17.92779,-25.0528 28.4976,-34.3355 39.20627,-34.4322 13.99857,-0.1263 14.49707,1.2543 11.02825,30.5429 -5.39032,45.5132 -24.09109,81.9322 -63.03786,122.7638 -46.40503,48.6508 -80.91833,61.9238 -168.216,64.6916 -35.43683,1.1235 -78.23717,-0.2916 -95.11185,-3.1447 z"
     id="path36"
     inkscape:connector-curvature="0" />
</svg>
