<?xml version="1.0" encoding="UTF-8" standalone="no"?>
<svg
   xmlns:dc="http://purl.org/dc/elements/1.1/"
   xmlns:cc="http://creativecommons.org/ns#"
   xmlns:rdf="http://www.w3.org/1999/02/22-rdf-syntax-ns#"
   xmlns:svg="http://www.w3.org/2000/svg"
   xmlns="http://www.w3.org/2000/svg"
   xmlns:sodipodi="http://sodipodi.sourceforge.net/DTD/sodipodi-0.dtd"
   xmlns:inkscape="http://www.inkscape.org/namespaces/inkscape"
   height="100%"
   width="100%"
   version="1.1"
   viewBox="0 0 2048 2048"
   id="svg18"
   sodipodi:docname="wl.svg"
   inkscape:version="0.92.4 5da689c313, 2019-01-14">
  <metadata
     id="metadata24">
    <rdf:RDF>
      <cc:Work
         rdf:about="">
        <dc:format>image/svg+xml</dc:format>
        <dc:type
           rdf:resource="http://purl.org/dc/dcmitype/StillImage" />
        <dc:title></dc:title>
      </cc:Work>
    </rdf:RDF>
  </metadata>
  <defs
     id="defs22" />
  <sodipodi:namedview
     pagecolor="#ffffff"
     bordercolor="#666666"
     borderopacity="1"
     objecttolerance="10"
     gridtolerance="10"
     guidetolerance="10"
     inkscape:pageopacity="0"
     inkscape:pageshadow="2"
     inkscape:window-width="1920"
     inkscape:window-height="1060"
     id="namedview20"
     showgrid="false"
     inkscape:zoom="0.11523438"
     inkscape:cx="1041.3559"
     inkscape:cy="1024"
     inkscape:window-x="0"
     inkscape:window-y="20"
     inkscape:window-maximized="0"
     inkscape:current-layer="svg18" />
  <path
     style="color:black;"
     d="m524 583q190 48 504 48 308 0 497-46l25 147q-201 53-526 53-327 0-525-54l25-148zm-61-61l-33 187q-1 0-3 4-5 7-28 18t-55 40q-44 37-68 60t-45 50q-61 84-68 203-10 115 93 229 104 114 281 107 66-4 155-32 29-12 59-23t61-24q16-8 28-16-5 21-5 42 0 78 55 133t134 56q78 0 133-55t55-133q0-16-4-42 14 9 27 15 46 20 121 47 86 29 155 33 177 8 280-107 101-114 94-229-8-119-69-203-20-27-45-50t-67-60q-33-28-56-39t-27-19q-1-2-2-3t-1-2l-32-188 66-247q-50-45-224-74t-402-29q-232 0-408 30t-221 77l66 244zm1081-117l-30 115q-198 44-490 44-291 0-489-44l-32-116q191 56 522 56 329 0 519-55zm26-94q-193 78-542 78-362 0-548-80 176-70 545-70 176 0 321 19t224 53zm-581 542q-1 39-3 77t-15 86q-41 134-124 216-43 42-132 78-102 40-193 40-158 0-234-113-43-60-43-150 0-98 48-161 29-37 74-74t84-67q175 63 538 68zm35 186q7 28 12 39 10 39 23 66 6 17 17 39t25 52q8 17 17 41t18 49q8 20 8 43 0 49-35 83t-85 35q-119 0-119-119 0-23 8-43 22-65 34-90 13-29 24-51t19-40q13-33 22-66 2-6 12-38zm34-186q172-2 315-20t224-47q38 30 83 66t75 75q48 61 48 161 0 90-43 150-77 112-234 112-94 0-193-39-87-35-132-78-84-84-124-216-14-47-16-85t-3-79zm1 706h-71v131h-83q-34 0-34 33v1q0 33 34 33h83v85q0 35 36 35 35 0 35-35v-85h86q33 0 33-33v-1q0-33-33-33l-85-1-1-130z"
     fill-rule="nonzero"
     transform="translate(0,2048) scale(1,-1)"
     display="block"
     fill="#000"
     id="path2" />
  <g
     fill-rule="nonzero"
     fill="#fff"
     id="g16">
    <path
       style="color:black;"
       d="m524 1465q190-48 504-48 308 0 497 46l25-147q-201-53-526-53-327 0-525 54l25 148z"
       display="block"
       id="path4" />
    <path
       style="color:black;"
       d="m1544 1643-30-115q-198-44-490-44-291 0-489 44l-32 116q191-56 522-56 329 0 519 55z"
       display="block"
       id="path6" />
    <path
       style="color:black;"
       d="m1570 1737q-193-78-542-78-362 0-548 80 176 70 545 70 176 0 321-19t224-53z"
       display="block"
       id="path8" />
    <path
       style="color:black;"
       d="m989 1195q-1-39-3-77t-15-86q-41-134-124-216-43-42-132-78-102-40-193-40-158 0-234 113-43 60-43 150 0 98 48 161 29 37 74 74t84 67q175-63 538-68z"
       display="block"
       id="path10" />
    <path
       style="color:black;"
       d="m1024 1009q7-28 12-39 10-39 23-66 6-17 17-39t25-52q8-17 17-41t18-49q8-20 8-43 0-49-35-83t-85-35q-119 0-119 119 0 23 8 43 22 65 34 90 13 29 24 51t19 40q13 33 22 66 2 6 12 38z"
       display="block"
       id="path12" />
    <path
       style="color:black;"
       d="m1058 1195q172 2 315 20t224 47q38-30 83-66t75-75q48-61 48-161 0-90-43-150-77-112-234-112-94 0-193 39-87 35-132 78-84 84-124 216-14 47-16 85t-3 79z"
       display="block"
       id="path14" />
  </g>
  <path
     style="fill:#ffcc00;fill-opacity:1;stroke-width:8.67796612"
     d="m 383.03567,1205.1689 c -105.99809,-88.475 -133.59261,-139.9162 -132.45004,-246.9108 0.7615,-71.31086 10.26284,-101.85753 48.49408,-155.90774 90.63834,-128.14186 326.68084,-133.11317 511.16521,-10.7657 87.7216,58.17575 161.45674,201.26075 173.65637,336.98484 l 6.04518,67.2542 h -77.79149 c -137.59645,0 -267.76383,16.5969 -449.61939,57.3285 -11.93079,2.6722 -36.78099,-12.3265 -79.49992,-47.9833 z"
     id="path26"
     inkscape:connector-curvature="0" />
  <path
     style="fill:#ffcc00;fill-opacity:1;stroke-width:8.67796612"
     d="M 1017.5383,974.53559 C 1010.378,954.66005 981.33843,884.06646 939.00306,783.62034 890.14568,667.6999 904.42735,591.05673 978.60737,571.08212 c 70.74513,-19.04968 138.40633,14.31467 157.36683,77.59893 11.1621,37.25596 0.097,80.3255 -46.9281,182.6681 -14.2552,31.02373 -34.7692,79.83729 -45.5868,108.47458 -15.8795,42.03783 -20.8727,48.72447 -25.921,34.71186 z"
     id="path30"
     inkscape:connector-curvature="0" />
  <path
     style="fill:#ffcc00;fill-opacity:1;stroke-width:8.67796612"
     d="m 1538.6034,1242.9695 c -76.6525,-21.2841 -213.4658,-38.7073 -347.7261,-44.2829 l -130.777,-5.431 3.2917,-48.6142 c 10.7318,-158.49703 89.9776,-307.13586 197.2702,-370.01347 79.5751,-46.63413 158.2416,-67.63186 256.2463,-68.39747 77.611,-0.6063 97.689,2.26217 135.4404,19.34988 118.4057,53.59482 173.8493,188.22493 134.2228,325.92466 -13.6125,47.3028 -77.8269,123.0538 -147.9466,174.5264 -46.6117,34.2161 -41.1362,33.2888 -100.0217,16.9381 z"
     id="path32"
     inkscape:connector-curvature="0" />
  <path
     style="fill:#ffcc00;fill-opacity:1;stroke-width:8.67796612"
     d="m 524.39888,1448.9453 c -2.16755,-7.9626 -6.36809,-30.0978 -9.33452,-49.1894 -2.96643,-19.0915 -7.41004,-44.9375 -9.87468,-57.4355 -4.12206,-20.9027 -1.25316,-23.5365 35.80059,-32.8667 199.30282,-50.1851 651.82343,-57.0832 898.58693,-13.6979 117.1382,20.5949 109.9898,12.4696 93.6286,106.4224 l -9.7367,55.9118 -31.4837,-5.4653 c -171.5669,-29.7826 -224.2581,-33.7233 -456.704,-34.1566 -236.2115,-0.4403 -391.69667,11.5282 -479.0979,36.8787 -22.982,6.6659 -28.53173,5.5481 -31.78462,-6.4015 z"
     id="path34"
     inkscape:connector-curvature="0" />
  <path
     style="fill:#ffcc00;fill-opacity:1;stroke-width:8.67796612"
     d="m 510.26441,1633.0456 c 0,-3.5881 6.259,-28.8309 13.9089,-56.0949 l 13.9089,-49.5709 96.73516,-16.0831 c 141.35286,-23.5012 662.33203,-21.9898 790.25223,2.2925 l 86.0594,16.3362 15.4783,55.1374 15.4782,55.1374 -19.097,-5.1829 c -237.4101,-64.4318 -778.14573,-64.3834 -997.53765,0.089 -8.35254,2.4546 -15.18644,1.5271 -15.18644,-2.0611 z"
     id="path36"
     inkscape:connector-curvature="0" />
  <path
     style="fill:#ffcc00;fill-opacity:1;stroke-width:8.67796612"
     d="M 748.90847,1793.7305 C 663.75136,1784.847 551.37641,1762.6453 515.36585,1747.59 l -26.79636,-11.2031 60.74576,-18.2931 c 138.43078,-41.6872 210.32612,-49.0743 477.28815,-49.0405 207.317,0.026 266.9521,2.8519 338.4407,16.0356 89.5021,16.5058 199.7674,47.1482 193.2202,53.6954 -10.7394,10.7394 -154.7451,40.5988 -249.5738,51.7488 -117.677,13.8365 -440.13961,15.6784 -559.78203,3.1974 z"
     id="path38"
     inkscape:connector-curvature="0" />
</svg>
