<?xml version="1.0" encoding="UTF-8" standalone="no"?>
<svg
   xmlns:dc="http://purl.org/dc/elements/1.1/"
   xmlns:cc="http://creativecommons.org/ns#"
   xmlns:rdf="http://www.w3.org/1999/02/22-rdf-syntax-ns#"
   xmlns:svg="http://www.w3.org/2000/svg"
   xmlns="http://www.w3.org/2000/svg"
   xmlns:sodipodi="http://sodipodi.sourceforge.net/DTD/sodipodi-0.dtd"
   xmlns:inkscape="http://www.inkscape.org/namespaces/inkscape"
   height="100%"
   width="100%"
   version="1.1"
   viewBox="0 0 2048 2048"
   id="svg34"
   sodipodi:docname="wt.svg"
   inkscape:version="0.92.4 5da689c313, 2019-01-14">
  <metadata
     id="metadata40">
    <rdf:RDF>
      <cc:Work
         rdf:about="">
        <dc:format>image/svg+xml</dc:format>
        <dc:type
           rdf:resource="http://purl.org/dc/dcmitype/StillImage" />
        <dc:title></dc:title>
      </cc:Work>
    </rdf:RDF>
  </metadata>
  <defs
     id="defs38" />
  <sodipodi:namedview
     pagecolor="#ffffff"
     bordercolor="#666666"
     borderopacity="1"
     objecttolerance="10"
     gridtolerance="10"
     guidetolerance="10"
     inkscape:pageopacity="0"
     inkscape:pageshadow="2"
     inkscape:window-width="1920"
     inkscape:window-height="1060"
     id="namedview36"
     showgrid="false"
     inkscape:zoom="0.23046875"
     inkscape:cx="1041.3559"
     inkscape:cy="1024"
     inkscape:window-x="0"
     inkscape:window-y="20"
     inkscape:window-maximized="0"
     inkscape:current-layer="svg34" />
  <path
     style="color:black;"
     d="m1024 1621q-57 0-96 40t-40 97q0 56 39 96t97 40q56 0 96-40t41-96q0-57-40-97t-97-40zm0 70q67 0 67 67 0 66-67 66-66 0-66-66 0-67 66-67zm509-1007q-193 49-505 49-320 0-511-50l15-96q195 46 496 46 299 0 488-45l17 96zm25 60 65 115q-48-19-98-19-134 0-214 109-60-50-134-50-96 0-153 75-64-70-153-70-72 0-132 49-84-107-217-107-51 0-101 19l70-120q194 56 533 56 345 0 534-57zm-448 239-85 489-85-483q3 2 14 10 23 45 70 45 51 0 66-45 6-6 20-16zm277-19v463l-165-454q19 7 32 18 20 25 54 25 40 0 64-35 3-4 7-8t8-9zm-562 14-164 449v-457q3 4 9 10 20 42 66 42 38 0 62-32 27-12 27-12zm-254-56-215 371 55-338q57-40 111-40 21 0 49 7zm903-5q23-7 51-7 61 0 114 38l55 346-220-377zm60-506-30 113q-196 43-480 43-281 0-479-43l-31-114q186 56 511 56 317 0 509-55zm106-128q-49-43-220-72t-394-29q-227 0-399 30t-217 75l63 240-28 157-88 153-85 622 49 19 274-462 6 550 68 12 209-553 112 595h69l112-593 207 551 69-12 6-550 275 463 47-22-83-619-89-153-28-159 65-243zm-81 36q-183 76-531 76-355 0-537-78 175-69 534-69 172 0 314 19t220 52zm-955 1252q-57 0-97 39t-40 97q0 56 40 96t97 40q56 0 96-40t40-96q0-57-40-96t-96-40zm0 70q66 0 66 66t-66 66q-67 0-67-66t67-66zm840 0q67 0 67 66t-67 66q-66 0-66-66t66-66zm0-70q-57 0-96 39t-40 97q0 56 39 96t97 40q57 0 97-40t40-96q0-57-40-96t-97-40zm-1208-110q-57 0-96 39t-40 97q0 56 39 96t97 41q57 0 97-40t40-97-40-96-97-40zm0 70q67 0 67 66 0 67-67 67-66 0-66-67 0-66 66-66zm1578 0q66 0 66 66 0 67-66 67-67 0-67-67 0-66 67-66zm0-70q-57 0-97 39t-40 97q0 56 40 96t97 41q56 0 96-40t40-97-40-96-96-40z"
     fill-rule="nonzero"
     transform="translate(0,2048) scale(1,-1)"
     display="block"
     fill="#000"
     id="path2" />
  <g
     fill-rule="nonzero"
     fill="#fff"
     id="g32">
    <path
       style="color:black;"
       d="m1024 357q67 0 67-67 0-66-67-66-66 0-66 66 0 67 66 67z"
       display="block"
       id="path4" />
    <path
       style="color:black;"
       d="m1533 1364q-193-49-505-49-320 0-511 50l15 96q195-46 496-46 299 0 488 45l17-96z"
       display="block"
       id="path6" />
    <path
       style="color:black;"
       d="m1558 1304 65-115q-48 19-98 19-134 0-214-109-60 50-134 50-96 0-153-75-64 70-153 70-72 0-132-49-84 107-217 107-51 0-101-19l70 120q194-56 533-56 345 0 534 57z"
       display="block"
       id="path8" />
    <path
       style="color:black;"
       d="m1110 1065-85-489-85 483q3-2 14-10 23-45 70-45 51 0 66 45 6 6 20 16z"
       display="block"
       id="path10" />
    <path
       style="color:black;"
       d="m1387 1084v-463l-165 454q19-7 32-18 20-25 54-25 40 0 64 35 3 4 7 8t8 9z"
       display="block"
       id="path12" />
    <path
       style="color:black;"
       d="m825 1070-164-449v457q3-4 9-10 20-42 66-42 38 0 62 32 27 12 27 12z"
       display="block"
       id="path14" />
    <path
       style="color:black;"
       d="m571 1126-215-371 55 338q57 40 111 40 21 0 49-7z"
       display="block"
       id="path16" />
    <path
       style="color:black;"
       d="m1474 1131q23 7 51 7 61 0 114-38l55-346-220 377z"
       display="block"
       id="path18" />
    <path
       style="color:black;"
       d="m1534 1637-30-113q-196-43-480-43-281 0-479 43l-31 114q186-56 511-56 317 0 509 55z"
       display="block"
       id="path20" />
    <path
       style="color:black;"
       d="m1559 1729q-183-76-531-76-355 0-537 78 175 69 534 69 172 0 314-19t220-52z"
       display="block"
       id="path22" />
    <path
       style="color:black;"
       d="m604 407q66 0 66-66t-66-66q-67 0-67 66t67 66z"
       display="block"
       id="path24" />
    <path
       style="color:black;"
       d="m1444 407q67 0 67-66t-67-66q-66 0-66 66t66 66z"
       display="block"
       id="path26" />
    <path
       style="color:black;"
       d="m236 517q67 0 67-66 0-67-67-67-66 0-66 67 0 66 66 66z"
       display="block"
       id="path28" />
    <path
       style="color:black;"
       d="m1814 517q66 0 66-66 0-67-66-67-67 0-67 67 0 66 67 66z"
       display="block"
       id="path30" />
  </g>
  <path
     style="fill:#ffcc00;fill-opacity:1;stroke-width:4.33898306"
     d="m 209.08584,512.48735 c -5.04076,-0.99113 -14.80347,-7.68734 -21.69492,-14.88046 -11.68421,-12.19569 -12.5299,-15.42603 -12.5299,-47.86128 0,-33.66656 0.44642,-35.18176 13.90981,-47.2113 23.94702,-21.39666 71.99101,-22.58681 93.85391,-2.32496 30.04512,27.84488 22.43336,94.51793 -12.45492,109.09518 -13.91991,5.81611 -40.61671,7.20716 -61.08398,3.18282 z"
     id="path42"
     inkscape:connector-curvature="0" />
  <path
     style="fill:#ffcc00;fill-opacity:1;stroke-width:4.33898306"
     d="m 577.66146,402.44442 c -30.71593,-9.35977 -47.42412,-50.30499 -35.53808,-87.08986 7.98586,-24.71461 23.57903,-35.35751 55.14881,-37.64106 47.45137,-3.43232 70.08026,17.51893 70.04718,64.85411 -0.0174,24.77895 -10.22666,47.29994 -25.03497,55.22511 -12.49714,6.68826 -49.25621,9.33426 -64.62294,4.6517 z"
     id="path44"
     inkscape:connector-curvature="0" />
  <path
     style="fill:#ffcc00;fill-opacity:1;stroke-width:4.33898306"
     d="m 992.84854,350.31749 c -18.28856,-7.68984 -25.52854,-17.20772 -30.7136,-40.37698 -6.19241,-27.6706 0.14512,-55.44183 16.00671,-70.14186 21.66878,-20.08194 70.46615,-18.83064 94.24605,2.41674 13.1817,11.77786 13.6598,13.42923 13.6598,47.18931 0,33.61718 -0.546,35.53034 -13.9712,48.95554 -12.3469,12.34689 -17.1392,14.11707 -41.2204,15.22599 -14.987,0.69014 -32.09033,-0.78079 -38.00736,-3.26874 z"
     id="path46"
     inkscape:connector-curvature="0" />
  <path
     style="fill:#ffcc00;fill-opacity:1;stroke-width:4.33898306"
     d="m 1415.9763,400.72211 c -21.3755,-7.89802 -31.5611,-20.86452 -35.2317,-44.85059 -7.5667,-49.44536 16.4897,-79.05498 64.2143,-79.03766 38.8651,0.0141 64.1186,25.26754 64.1327,64.13262 0.01,25.73118 -9.8041,46.79338 -25.6106,54.96725 -19.5773,10.12381 -47.6713,12.11663 -67.5047,4.78838 z"
     id="path48"
     inkscape:connector-curvature="0" />
  <path
     style="fill:#ffcc00;fill-opacity:1;stroke-width:4.33898306"
     d="m 1779.5275,509.14004 c -18.0881,-7.86794 -27.1831,-22.49559 -30.1198,-48.44208 -2.9839,-26.36363 5.3492,-52.19862 20.45,-63.40086 16.5539,-12.28014 58.1601,-14.7834 77.6813,-4.67374 41.8722,21.68487 40.4667,98.80445 -2.1252,116.60045 -18.6839,7.80664 -47.8317,7.76958 -65.8863,-0.0838 z"
     id="path50"
     inkscape:connector-curvature="0" />
  <path
     style="fill:#ffcc00;fill-opacity:1;stroke-width:4.33898306"
     d="m 1098.4594,1054.3539 c -2.5809,-1.6601 -7.9887,-9.4504 -12.0172,-17.3119 -13.8954,-27.1165 -51.5691,-40.77071 -84.9209,-30.7783 -12.608,3.7775 -23.9727,12.0888 -37.18963,27.1977 -10.46831,11.9668 -19.7286,20.8841 -20.57845,19.8161 -1.14345,-1.4371 69.77088,-410.58807 79.99878,-461.56477 0.8523,-4.24823 19.8557,97.99754 42.2298,227.21282 22.374,129.21529 39.8904,235.72655 38.9252,236.69175 -0.9652,0.9652 -3.8666,0.3966 -6.4476,-1.2634 z"
     id="path52"
     inkscape:connector-curvature="0" />
  <path
     style="fill:#ffcc00;fill-opacity:1;stroke-width:4.33898306"
     d="m 663.40964,853.91186 c 0.0963,-153.9586 1.45991,-215.8929 4.58555,-208.27118 19.61035,47.81868 153.68522,420.88132 151.26041,420.88132 -1.71119,0 -9.74577,-4.8499 -17.85462,-10.7776 -42.61589,-31.1529 -57.4587,-36.0492 -85.9908,-28.3663 -15.8716,4.2738 -29.67944,15.4489 -45.68498,36.9744 -5.73959,7.7191 -6.43746,-15.5345 -6.31556,-210.44064 z"
     id="path54"
     inkscape:connector-curvature="0" />
  <path
     style="fill:#ffcc00;fill-opacity:1;stroke-width:4.33898306"
     d="m 483.43968,1127.0563 c -19.84874,-4.9847 -67.92911,-29.8593 -70.42812,-36.4363 -2.58632,-6.8069 -53.49038,-320.84852 -52.21425,-322.12466 0.60259,-0.60259 47.54132,79.04851 104.3083,177.00244 56.76697,97.95392 102.25022,179.06052 101.07389,180.23682 -4.39952,4.3995 -66.53206,5.3921 -82.73982,1.3217 z"
     id="path56"
     inkscape:connector-curvature="0" />
  <path
     style="fill:#ffcc00;fill-opacity:1;stroke-width:4.33898306"
     d="m 1371.9082,1064.0668 c -24.7771,-32.4844 -72.951,-42.6391 -101.897,-21.479 -26.6104,19.4526 -40.347,27.9803 -42.1566,26.1708 -1.8138,-1.8138 149.0322,-419.91061 155.7885,-431.79589 2.0778,-3.65522 3.7576,91.92866 3.8317,218.0339 0.073,123.49831 -0.7449,224.54239 -1.8167,224.54239 -1.0718,0 -7.2592,-6.9625 -13.7499,-15.4722 z"
     id="path58"
     inkscape:connector-curvature="0" />
  <path
     style="fill:#ffcc00;fill-opacity:1;stroke-width:4.33898306"
     d="m 1485.0589,1132.259 c -8.0184,-2.5557 1.3301,-20.207 99.1598,-187.22849 59.407,-101.42373 107.0002,-179.52543 105.7626,-173.55932 -1.2375,5.9661 -13.5287,82.49682 -27.3137,170.06826 l -25.0636,159.22075 -21.2977,11.5917 c -11.7138,6.3755 -31.353,14.269 -43.6427,17.5413 -22.8848,6.0933 -71.7681,7.4134 -87.6047,2.3658 z"
     id="path60"
     inkscape:connector-curvature="0" />
  <path
     style="fill:#ffcc00;fill-opacity:1;stroke-width:4.33898306"
     d="m 459.45728,1246.3799 c -17.48574,-29.9459 -30.98236,-55.2571 -29.99249,-56.247 0.98988,-0.9898 12.44796,1.0892 25.46241,4.6201 13.30228,3.609 42.66025,6.4671 67.05246,6.5279 80.7446,0.2009 140.14372,-24.3503 195.6475,-80.8665 l 22.08817,-22.491 23.47115,14.818 c 49.7452,31.4055 111.25515,40.0009 165.76636,23.1641 27.72237,-8.5625 71.95266,-34.659 87.08746,-51.3829 7.549,-8.3415 7.9881,-8.1565 25.3566,10.6862 10.5738,11.4712 30.4518,25.4895 49.4783,34.8929 27.9062,13.792 36.8124,15.9802 72.6754,17.8561 48.8255,2.5538 88.418,-7.4178 123.6857,-31.1513 l 22.0339,-14.8277 31.5751,31.4652 c 36.9581,36.8295 78.8482,59.6044 129.2022,70.245 37.2549,7.8726 89.1743,5.9961 123.4585,-4.4621 11.8208,-3.6059 22.2148,-5.8338 23.0976,-4.9509 1.216,1.2159 -51.6055,97.4908 -58.1616,106.0081 -0.6886,0.8946 -22.3235,-3.4756 -48.0775,-9.7115 -250.2901,-60.6036 -741.3591,-59.833 -981.73581,1.5407 -18.77083,4.7926 -34.86012,8.7138 -35.75397,8.7138 -0.89386,0 -15.9317,-24.5012 -33.41744,-54.4472 z"
     id="path62"
     inkscape:connector-curvature="0" />
  <path
     style="fill:#ffcc00;fill-opacity:1;stroke-width:4.33898306"
     d="m 531.08587,1445.0983 c -3.57034,-17.5263 -11.20493,-67.5018 -11.24292,-73.5955 -0.0811,-13.0011 135.92246,-35.992 277.66213,-46.9377 93.79147,-7.243 340.07572,-8.3141 436.06782,-1.8965 122.8302,8.2118 291.281,33.8087 295.3839,44.885 0.9916,2.6767 -1.6922,23.4159 -5.9639,46.0871 -6.7322,35.7296 -8.8974,41.1584 -16.2544,40.7552 -4.6682,-0.2558 -38.7521,-5.6218 -75.7419,-11.9244 -231.8009,-39.4958 -605.74635,-37.7049 -831.86715,3.984 -31.54727,5.8163 -59.21586,10.575 -61.48575,10.575 -2.26989,0 -5.22091,-5.3695 -6.55783,-11.9322 z"
     id="path64"
     inkscape:connector-curvature="0" />
  <path
     style="fill:#ffcc00;fill-opacity:1;stroke-width:4.33898306"
     d="m 529.3171,1586.1153 c 7.21792,-26.8475 14.77604,-51.935 16.79583,-55.7499 6.53363,-12.3408 153.59869,-33.5508 296.87743,-42.8163 88.54143,-5.7258 274.30484,-5.7328 366.71814,-0.014 80.3066,4.9697 195.0415,18.2706 253.7061,29.4114 l 38.9265,7.3924 11.9297,43.27 c 18.7141,67.8774 18.9017,69.1805 9.417,65.4108 -16.0543,-6.381 -130.7321,-28.2661 -181.6403,-34.6643 -93.1187,-11.7031 -175.3734,-15.8084 -316.7458,-15.8084 -208.74325,0 -354.80697,13.4881 -472.76608,43.6569 -18.76248,4.7987 -34.61499,8.7248 -35.2278,8.7248 -0.61281,0 4.79136,-21.9661 12.00928,-48.8135 z"
     id="path66"
     inkscape:connector-curvature="0" />
  <path
     style="fill:#ffcc00;fill-opacity:1;stroke-width:4.33898306"
     d="m 878.273,1795.4808 c -105.9941,-5.2713 -206.41387,-17.2105 -276.02215,-32.817 -46.31474,-10.384 -104.01105,-28.9686 -101.67388,-32.7502 3.58805,-5.8056 91.9873,-32.7754 138.55523,-42.2719 112.15777,-22.8722 214.58287,-31.1389 385.7297,-31.1321 174.6265,0.01 277.2556,8.1383 388.4645,30.7783 55.6286,11.3249 141.2747,38.3953 136.4713,43.1348 -11.3722,11.2207 -132.7348,39.035 -216.4282,49.6017 -124.5297,15.7224 -317.7774,22.2857 -455.0965,15.4564 z"
     id="path68"
     inkscape:connector-curvature="0" />
</svg>
