<?xml version="1.0" encoding="UTF-8" standalone="no"?>
<svg
   xmlns:dc="http://purl.org/dc/elements/1.1/"
   xmlns:cc="http://creativecommons.org/ns#"
   xmlns:rdf="http://www.w3.org/1999/02/22-rdf-syntax-ns#"
   xmlns:svg="http://www.w3.org/2000/svg"
   xmlns="http://www.w3.org/2000/svg"
   xmlns:sodipodi="http://sodipodi.sourceforge.net/DTD/sodipodi-0.dtd"
   xmlns:inkscape="http://www.inkscape.org/namespaces/inkscape"
   height="100%"
   width="100%"
   version="1.1"
   viewBox="0 0 2048 2048"
   id="svg2"
   inkscape:version="0.91 r13725"
   sodipodi:docname="cp.svg">
  <metadata
     id="metadata12">
    <rdf:RDF>
      <cc:Work
         rdf:about="">
        <dc:format>image/svg+xml</dc:format>
        <dc:type
           rdf:resource="http://purl.org/dc/dcmitype/StillImage" />
        <dc:title></dc:title>
      </cc:Work>
    </rdf:RDF>
  </metadata>
  <defs
     id="defs10" />
  <sodipodi:namedview
     pagecolor="#ffffff"
     bordercolor="#666666"
     borderopacity="1"
     objecttolerance="10"
     gridtolerance="10"
     guidetolerance="10"
     inkscape:pageopacity="0"
     inkscape:pageshadow="2"
     inkscape:window-width="1920"
     inkscape:window-height="1056"
     id="namedview8"
     showgrid="false"
     inkscape:zoom="0.11523438"
     inkscape:cx="1024"
     inkscape:cy="1024"
     inkscape:window-x="0"
     inkscape:window-y="24"
     inkscape:window-maximized="1"
     inkscape:current-layer="svg2" />
  <path
     style="color:black;"
     d="m1024 273h491q21 72 21 141 0 156-86 283t-223 187q-66 5-66 72 0 53 67 78 93 65 93 172 0 77-52 135t-126 67q-60 5-60 68 0 28 22 52 54 42 54 110 0 56-40 96t-95 40q-57 0-96-40t-40-96q0-67 54-110 22-22 22-52 0-63-59-68-75-9-126-67t-52-135q0-107 93-172 67-26 67-78 0-67-67-72-136-60-222-187t-86-283q0-74 21-141h491zm0-68h-540q-40 100-40 209 0 185 105 332t270 210q-71 33-115 99t-45 151q0 105 70 182t172 89q-81 61-81 161 0 84 59 144t145 60q84 0 144-60t60-144q0-100-81-161 102-12 172-89t70-182q0-84-45-150t-116-100q165-63 270-210t105-332q0-108-39-209h-540z"
     fill-rule="nonzero"
     transform="translate(0,2048) scale(1,-1)"
     display="block"
     fill="#000"
     id="path4" />
  <path
     style="color:black;"
     d="m1024 1775h491q21-72 21-141 0-156-86-283t-223-187q-66-5-66-72 0-53 67-78 93-65 93-172 0-77-52-135t-126-67q-60-5-60-68 0-28 22-52 54-42 54-110 0-56-40-96t-95-40q-57 0-96 40t-40 96q0 67 54 110 22 22 22 52 0 63-59 68-75 9-126 67t-52 135q0 107 93 172 67 26 67 78 0 67-67 72-136 60-222 187t-86 283q0 74 21 141h491z"
     fill-rule="nonzero"
     display="block"
     fill="#fff"
     id="path6" />
  <path
     style="fill:none;fill-rule:evenodd;stroke:#000000;stroke-width:1px;stroke-linecap:butt;stroke-linejoin:miter;stroke-opacity:1"
     d="m 850.44068,1102.1017 329.76272,0"
     id="path3340"
     inkscape:connector-curvature="0" />
  <path
     style="fill:#000000;fill-rule:evenodd;stroke:#000000;stroke-width:1px;stroke-linecap:butt;stroke-linejoin:miter;stroke-opacity:1"
     d="m 1024,242.98305 0,1544.67795"
     id="path3342"
     inkscape:connector-curvature="0" />
  <path
     style="fill:#000000"
     d="m 1030.9424,687.22195 0,-413.14415 23.3351,5.85674 c 60.5135,15.18791 98.1564,65.30088 98.1564,130.67282 0,44.6744 -8.419,64.74371 -44.6625,106.46748 -46.9025,53.99453 -27.483,114.40491 40.9006,127.23374 103.2185,19.36391 168.9829,99.55401 168.4527,205.40332 -0.349,69.65536 -29.6897,112.33403 -129.5206,188.399 -16.6997,12.7241 -26.4922,27.9607 -26.4922,41.2203 0,20.3914 -1.991,21.0349 -65.0848,21.0349 l -65.0847,0 0,-413.14415 z"
     id="path3344"
     inkscape:connector-curvature="0" />
  <path
     style="fill:#000000"
     d="m 530.51551,1757.722 c -11.73065,-18.6934 -13.91985,-183.3689 -3.12874,-235.3494 27.82654,-134.0398 139.55087,-279.7599 256.54648,-334.6092 33.23807,-15.5826 66.29048,-31.202 73.4498,-34.71 7.15932,-3.508 16.87177,-14.8451 21.58321,-25.1937 7.71721,-16.9507 15.24346,-18.8156 75.93221,-18.8156 l 67.36593,0 0,329.7627 0,329.7627 -242.4709,0 c -184.56097,0 -244.09665,-2.5907 -249.27799,-10.8475 z"
     id="path3346"
     inkscape:connector-curvature="0" />
</svg>
