<?xml version="1.0" encoding="UTF-8" standalone="no"?>
<!-- Generator: Adobe Illustrator 19.0.0, SVG Export Plug-In . SVG Version: 6.00 Build 0)  -->

<svg
   xmlns:dc="http://purl.org/dc/elements/1.1/"
   xmlns:cc="http://creativecommons.org/ns#"
   xmlns:rdf="http://www.w3.org/1999/02/22-rdf-syntax-ns#"
   xmlns:svg="http://www.w3.org/2000/svg"
   xmlns="http://www.w3.org/2000/svg"
   xmlns:sodipodi="http://sodipodi.sourceforge.net/DTD/sodipodi-0.dtd"
   xmlns:inkscape="http://www.inkscape.org/namespaces/inkscape"
   version="1.1"
   id="Layer_1"
   x="0px"
   y="0px"
   viewBox="0 0 512.001 512.001"
   style="enable-background:new 0 0 512.001 512.001;"
   xml:space="preserve"
   sodipodi:docname="analyse.svg"
   inkscape:version="0.92.4 5da689c313, 2019-01-14"><metadata
   id="metadata43"><rdf:RDF><cc:Work
       rdf:about=""><dc:format>image/svg+xml</dc:format><dc:type
         rdf:resource="http://purl.org/dc/dcmitype/StillImage" /><dc:title></dc:title></cc:Work></rdf:RDF></metadata><defs
   id="defs41" /><sodipodi:namedview
   pagecolor="#ffffff"
   bordercolor="#666666"
   borderopacity="1"
   objecttolerance="10"
   gridtolerance="10"
   guidetolerance="10"
   inkscape:pageopacity="0"
   inkscape:pageshadow="2"
   inkscape:window-width="960"
   inkscape:window-height="1180"
   id="namedview39"
   showgrid="false"
   inkscape:zoom="1.3037256"
   inkscape:cx="260.33948"
   inkscape:cy="256.00049"
   inkscape:window-x="0"
   inkscape:window-y="20"
   inkscape:window-maximized="0"
   inkscape:current-layer="Layer_1" />
<g
   id="g6"
   transform="matrix(1.3295834,0,0,1,-83.99001,0)">
	<g
   id="g4">
		<path
   d="M 422.244,430.198 C 438.818,403.346 448,373.081 448,341.335 448,267.383 401.336,203.232 331.626,179.852 322.247,164.7 306.85,153.76 288.686,150.482 l 9.98,-19.96 c 2.635,-5.271 0.5,-11.677 -4.771,-14.312 l 9.542,-19.083 c 5.271,2.615 11.656,0.5 14.313,-4.771 l 22.458,-44.917 c 2.635,-5.271 0.5,-11.677 -4.771,-14.313 l -64,-32 c -5.281,-2.625 -11.667,-0.51 -14.313,4.771 l -22.458,44.917 c -2.635,5.271 -0.5,11.677 4.771,14.313 l -9.542,19.083 c -5.26,-2.615 -11.677,-0.5 -14.313,4.771 l -86.458,172.917 c -2.635,5.271 -0.5,11.677 4.771,14.313 l 64,32 c 1.531,0.76 3.156,1.125 4.76,1.125 3.917,0 7.677,-2.156 9.552,-5.896 l 21.694,-43.382 c 11.431,10.632 26.625,17.277 43.431,17.277 14.004,0 26.863,-4.65 37.411,-12.307 29.22,14.289 47.922,43.49 47.922,76.307 0,47.052 -38.281,85.333 -85.333,85.333 h -85.333 v -21.333 h 32 c 5.896,0 10.667,-4.771 10.667,-10.667 0,-5.896 -4.771,-10.667 -10.667,-10.667 h -42.667 -64 -42.665 c -5.896,0 -10.667,4.771 -10.667,10.667 0,5.896 4.771,10.667 10.667,10.667 h 32 v 21.333 C 83.136,426.668 64,445.803 64,469.335 v 32 c 0,5.896 4.771,10.667 10.667,10.667 h 362.667 c 5.896,0 10.667,-4.771 10.667,-10.667 v -32 c 0,-17.52 -10.625,-32.573 -25.757,-39.137 z m -144.91,-195.53 c -11.76,0 -21.333,-9.573 -21.333,-21.333 0,-11.76 9.573,-21.333 21.333,-21.333 11.76,0 21.333,9.573 21.333,21.333 0,11.76 -9.573,21.333 -21.333,21.333 z"
   id="path2"
   inkscape:connector-curvature="0" />
	</g>
</g>
<g
   id="g8"
   transform="matrix(1.3295834,0,0,1,-83.99001,0)">
</g>
<g
   id="g10"
   transform="matrix(1.3295834,0,0,1,-83.99001,0)">
</g>
<g
   id="g12"
   transform="matrix(1.3295834,0,0,1,-83.99001,0)">
</g>
<g
   id="g14"
   transform="matrix(1.3295834,0,0,1,-83.99001,0)">
</g>
<g
   id="g16"
   transform="matrix(1.3295834,0,0,1,-83.99001,0)">
</g>
<g
   id="g18"
   transform="matrix(1.3295834,0,0,1,-83.99001,0)">
</g>
<g
   id="g20"
   transform="matrix(1.3295834,0,0,1,-83.99001,0)">
</g>
<g
   id="g22"
   transform="matrix(1.3295834,0,0,1,-83.99001,0)">
</g>
<g
   id="g24"
   transform="matrix(1.3295834,0,0,1,-83.99001,0)">
</g>
<g
   id="g26"
   transform="matrix(1.3295834,0,0,1,-83.99001,0)">
</g>
<g
   id="g28"
   transform="matrix(1.3295834,0,0,1,-83.99001,0)">
</g>
<g
   id="g30"
   transform="matrix(1.3295834,0,0,1,-83.99001,0)">
</g>
<g
   id="g32"
   transform="matrix(1.3295834,0,0,1,-83.99001,0)">
</g>
<g
   id="g34"
   transform="matrix(1.3295834,0,0,1,-83.99001,0)">
</g>
<g
   id="g36"
   transform="matrix(1.3295834,0,0,1,-83.99001,0)">
</g>
</svg>