<?xml version="1.0" encoding="UTF-8" standalone="no"?>
<!-- Generator: Adobe Illustrator 19.0.0, SVG Export Plug-In . SVG Version: 6.00 Build 0)  -->

<svg
   xmlns:dc="http://purl.org/dc/elements/1.1/"
   xmlns:cc="http://creativecommons.org/ns#"
   xmlns:rdf="http://www.w3.org/1999/02/22-rdf-syntax-ns#"
   xmlns:svg="http://www.w3.org/2000/svg"
   xmlns="http://www.w3.org/2000/svg"
   xmlns:sodipodi="http://sodipodi.sourceforge.net/DTD/sodipodi-0.dtd"
   xmlns:inkscape="http://www.inkscape.org/namespaces/inkscape"
   version="1.1"
   id="Capa_1"
   x="0px"
   y="0px"
   viewBox="0 0 512 512"
   style="enable-background:new 0 0 512 512;"
   xml:space="preserve"
   sodipodi:docname="download.svg"
   inkscape:version="0.92.4 5da689c313, 2019-01-14"><metadata
   id="metadata49"><rdf:RDF><cc:Work
       rdf:about=""><dc:format>image/svg+xml</dc:format><dc:type
         rdf:resource="http://purl.org/dc/dcmitype/StillImage" /><dc:title></dc:title></cc:Work></rdf:RDF></metadata><defs
   id="defs47" /><sodipodi:namedview
   pagecolor="#ffffff"
   bordercolor="#666666"
   borderopacity="1"
   objecttolerance="10"
   gridtolerance="10"
   guidetolerance="10"
   inkscape:pageopacity="0"
   inkscape:pageshadow="2"
   inkscape:window-width="960"
   inkscape:window-height="1180"
   id="namedview45"
   showgrid="false"
   inkscape:zoom="0.921875"
   inkscape:cx="260.33898"
   inkscape:cy="256"
   inkscape:window-x="0"
   inkscape:window-y="20"
   inkscape:window-maximized="0"
   inkscape:current-layer="Capa_1" />
<g
   id="g6"
   transform="matrix(1.0632768,0,0,1,-15.114124,0)">
	<g
   id="g4">
		<path
   d="M 382.56,233.376 C 379.968,227.648 374.272,224 368,224 H 304 V 16 C 304,7.168 296.832,0 288,0 h -64 c -8.832,0 -16,7.168 -16,16 v 208 h -64 c -6.272,0 -11.968,3.68 -14.56,9.376 -2.624,5.728 -1.6,12.416 2.528,17.152 l 112,128 c 3.04,3.488 7.424,5.472 12.032,5.472 4.608,0 8.992,-2.016 12.032,-5.472 l 112,-128 c 4.16,-4.704 5.12,-11.424 2.528,-17.152 z"
   id="path2"
   inkscape:connector-curvature="0" />
	</g>
</g>
<g
   id="g12"
   transform="matrix(1.0632768,0,0,1,-15.114124,0)">
	<g
   id="g10">
		<path
   d="m 432,352 v 96 H 80 V 352 H 16 v 128 c 0,17.696 14.336,32 32,32 h 416 c 17.696,0 32,-14.304 32,-32 V 352 Z"
   id="path8"
   inkscape:connector-curvature="0" />
	</g>
</g>
<g
   id="g14"
   transform="matrix(1.0632768,0,0,1,-15.114124,0)">
</g>
<g
   id="g16"
   transform="matrix(1.0632768,0,0,1,-15.114124,0)">
</g>
<g
   id="g18"
   transform="matrix(1.0632768,0,0,1,-15.114124,0)">
</g>
<g
   id="g20"
   transform="matrix(1.0632768,0,0,1,-15.114124,0)">
</g>
<g
   id="g22"
   transform="matrix(1.0632768,0,0,1,-15.114124,0)">
</g>
<g
   id="g24"
   transform="matrix(1.0632768,0,0,1,-15.114124,0)">
</g>
<g
   id="g26"
   transform="matrix(1.0632768,0,0,1,-15.114124,0)">
</g>
<g
   id="g28"
   transform="matrix(1.0632768,0,0,1,-15.114124,0)">
</g>
<g
   id="g30"
   transform="matrix(1.0632768,0,0,1,-15.114124,0)">
</g>
<g
   id="g32"
   transform="matrix(1.0632768,0,0,1,-15.114124,0)">
</g>
<g
   id="g34"
   transform="matrix(1.0632768,0,0,1,-15.114124,0)">
</g>
<g
   id="g36"
   transform="matrix(1.0632768,0,0,1,-15.114124,0)">
</g>
<g
   id="g38"
   transform="matrix(1.0632768,0,0,1,-15.114124,0)">
</g>
<g
   id="g40"
   transform="matrix(1.0632768,0,0,1,-15.114124,0)">
</g>
<g
   id="g42"
   transform="matrix(1.0632768,0,0,1,-15.114124,0)">
</g>
</svg>