<?xml version="1.0" encoding="UTF-8" standalone="no"?>
<svg
   xmlns:dc="http://purl.org/dc/elements/1.1/"
   xmlns:cc="http://creativecommons.org/ns#"
   xmlns:rdf="http://www.w3.org/1999/02/22-rdf-syntax-ns#"
   xmlns:svg="http://www.w3.org/2000/svg"
   xmlns="http://www.w3.org/2000/svg"
   xmlns:sodipodi="http://sodipodi.sourceforge.net/DTD/sodipodi-0.dtd"
   xmlns:inkscape="http://www.inkscape.org/namespaces/inkscape"
   height="486pt"
   viewBox="-64 0 485 486"
   width="486pt"
   version="1.1"
   id="svg4"
   sodipodi:docname="draw.svg"
   inkscape:version="0.92.4 5da689c313, 2019-01-14">
  <metadata
     id="metadata10">
    <rdf:RDF>
      <cc:Work
         rdf:about="">
        <dc:format>image/svg+xml</dc:format>
        <dc:type
           rdf:resource="http://purl.org/dc/dcmitype/StillImage" />
        <dc:title></dc:title>
      </cc:Work>
    </rdf:RDF>
  </metadata>
  <defs
     id="defs8" />
  <sodipodi:namedview
     pagecolor="#ffffff"
     bordercolor="#666666"
     borderopacity="1"
     objecttolerance="10"
     gridtolerance="10"
     guidetolerance="10"
     inkscape:pageopacity="0"
     inkscape:pageshadow="2"
     inkscape:window-width="960"
     inkscape:window-height="1180"
     id="namedview6"
     showgrid="false"
     inkscape:zoom="0.36419753"
     inkscape:cx="329.49153"
     inkscape:cy="324"
     inkscape:window-x="0"
     inkscape:window-y="20"
     inkscape:window-maximized="0"
     inkscape:current-layer="svg4" />
  <path
     d="M 421.74483,362.2606 V 229.7012 c 0,-44.58091 -18.97657,-85.70164 -49.67578,-107.31327 L 204.22139,4.1975341 c -3.33594,-2.350812 -7.43359,-1.2308744 -9.82813,2.6889078 l -7.4375,12.1502661 c -9.64453,14.030917 -14.5625,32.837422 -13.58984,51.945028 1.05859,19.509101 8.06641,37.544324 19.34375,49.789684 l 12.52734,13.91469 -182.511715,0.16905 c -22.22265664,0.0211 -40.300781,23.43945 -40.300781,51.90277 0,11.16769 2.785156,20.76111 7.507812,30.22775 h -14.054688 c -22.234374,0 -40.132812,22.65761 -40.132812,51.13148 v 0.95618 c 0,25.8748 14.847656,47.36491 34.261719,51.07339 -5.089844,8.70063 -7.871094,19.46684 -7.898438,30.56584 -0.0039,28.47388 18.042969,51.54882 40.2812504,51.54882 H 42.846388 c -4.734374,8.11428 -7.101562,19.00726 -7.101562,30.18022 v 0.90862 c 0,28.39993 17.835938,51.56995 40.011719,51.63862 57.515625,0.17963 158.941405,0.0687 249.679685,-0.0475 53.21485,-0.0687 96.3086,-55.10411 96.3086,-122.68072 z M 75.795607,463.35082 C 62.416701,463.30862 51.744826,449.84818 51.744826,433.35023 v -0.90862 c 0,-16.54022 10.492188,-30.18022 23.910156,-30.18022 H 180.8542 c 4.41797,0 8,-4.84425 8,-10.81901 0,-5.98005 -3.58203,-10.81902 -8,-10.81902 H 2.3893574 c -13.4140624,0 -24.3320314,-13.16457 -24.3320314,-29.79986 0,-16.54549 10.917969,-29.70475 24.3320314,-29.70475 H 180.86201 c 4.41797,0 8,-4.84426 8,-10.81902 0,-5.98006 -3.58203,-10.81903 -8,-10.81903 H -24.110643 c -13.417969,0 -24.144531,-13.86187 -24.144531,-30.40736 v -0.95618 c 0,-16.5402 10.816406,-30.00058 24.226562,-30.00058 H 21.58467 c 0.402344,0.0158 0.789062,0.0211 1.199218,0.0211 0.175782,0 0.339844,0 0.511719,-0.0211 20.273438,0 42.230469,0.0104 63.140625,0.0158 48.496098,0.0158 90.371098,0.0264 94.457028,0 4.41797,-0.0211 7.98829,-4.88123 7.97266,-10.856 -0.0156,-5.97475 -3.60937,-10.80317 -8.02734,-10.78203 -4.0586,0.0211 -45.92578,0.0104 -94.402348,0 -21.425781,0 -43.949218,-0.0104 -64.636718,-0.0158 -12.9726566,-0.62864 -23.3671876,-13.83545 -23.3671876,-29.99002 0,-16.52436 10.90625,-29.98476 24.3124996,-29.99532 l 204.828124,-0.19547 c 3.37891,-0.006 6.39063,-2.8738 7.52735,-7.17394 1.14062,-4.30014 0.15625,-9.10213 -2.45313,-12.00235 l -29.76953,-33.07514 c -7.86719,-8.489331 -12.76953,-21.009399 -13.53906,-34.58071 -0.64844,-13.275492 2.8125,-26.318537 9.55468,-36.00177 0.0937,-0.137352 0.1836,-0.274703 0.26954,-0.417336 l 3.44921,-5.626102 162.07032,114.159688 c 25.38672,17.87144 41.0625,51.63862 41.0625,88.12112 v 132.5594 c 0,55.65879 -35.92188,100.98457 -80.32422,101.04267 -90.72656,0.11618 -192.13672,0.22716 -249.625003,0.0475 z m 0,0"
     id="path2"
     inkscape:connector-curvature="0"
     style="stroke-width:1.16291773" />
</svg>
