<?xml version="1.0" encoding="UTF-8" standalone="no"?>
<svg
   xmlns:dc="http://purl.org/dc/elements/1.1/"
   xmlns:cc="http://creativecommons.org/ns#"
   xmlns:rdf="http://www.w3.org/1999/02/22-rdf-syntax-ns#"
   xmlns:svg="http://www.w3.org/2000/svg"
   xmlns="http://www.w3.org/2000/svg"
   xmlns:sodipodi="http://sodipodi.sourceforge.net/DTD/sodipodi-0.dtd"
   xmlns:inkscape="http://www.inkscape.org/namespaces/inkscape"
   id="Solid"
   height="512"
   viewBox="0 0 512 512"
   width="512"
   version="1.1"
   sodipodi:docname="fast-forward_rev.svg"
   inkscape:version="0.92.4 5da689c313, 2019-01-14">
  <metadata
     id="metadata9">
    <rdf:RDF>
      <cc:Work
         rdf:about="">
        <dc:format>image/svg+xml</dc:format>
        <dc:type
           rdf:resource="http://purl.org/dc/dcmitype/StillImage" />
        <dc:title></dc:title>
      </cc:Work>
    </rdf:RDF>
  </metadata>
  <defs
     id="defs7" />
  <sodipodi:namedview
     pagecolor="#ffffff"
     bordercolor="#666666"
     borderopacity="1"
     objecttolerance="10"
     gridtolerance="10"
     guidetolerance="10"
     inkscape:pageopacity="0"
     inkscape:pageshadow="2"
     inkscape:window-width="960"
     inkscape:window-height="1180"
     id="namedview5"
     showgrid="false"
     inkscape:zoom="0.921875"
     inkscape:cx="262.50847"
     inkscape:cy="256"
     inkscape:window-x="0"
     inkscape:window-y="20"
     inkscape:window-maximized="0"
     inkscape:current-layer="Solid" />
  <path
     d="m 256.00392,511.86435 a 26.468725,26.356511 0 0 0 18.7167,-44.99387 L 64.040592,257.08474 274.72062,47.299003 A 26.469407,26.35719 0 0 0 237.28723,10.024308 L 7.8916122,238.44739 a 26.468725,26.356511 0 0 0 0,37.2747 L 237.28723,504.14518 a 26.38932,26.27744 0 0 0 18.71669,7.71917 z M 466.68285,504.14518 237.28723,275.72209 a 26.468725,26.356511 0 0 1 0,-37.2747 L 466.68285,10.024308 a 26.469408,26.35719 0 0 1 37.4334,37.274695 L 293.43621,257.08474 504.11625,466.87048 a 26.469411,26.357192 0 0 1 -37.4334,37.2747 z"
     id="path2"
     inkscape:connector-curvature="0"
     style="stroke-width:1.10052323" />
</svg>
