<?xml version="1.0" encoding="utf-8"?>
<!-- Svg Vector Icons : http://www.onlinewebfonts.com/icon -->
<!DOCTYPE svg PUBLIC "-//W3C//DTD SVG 1.1//EN" "http://www.w3.org/Graphics/SVG/1.1/DTD/svg11.dtd">
<svg version="1.1" xmlns="http://www.w3.org/2000/svg" xmlns:xlink="http://www.w3.org/1999/xlink" x="0px" y="0px" viewBox="0 0 1000 1000" enable-background="new 0 0 1000 1000" xml:space="preserve">
<metadata> Svg Vector Icons : http://www.onlinewebfonts.com/icon </metadata>
<g><g transform="translate(0.000000,511.000000) scale(0.100000,-0.100000)"><path d="M1329.9,3511.5C58,2239.5,100.2,2289.4,100.2,2018.9c0-180.3,38.4-285.9,153.5-412.5c113.2-124.7,270.5-191.9,448.9-191.9c241.7,0,287.8,30.7,782.7,523.8l425.9,425.9V-776.4v-3140.6l40.3-111.3c49.9-130.5,176.5-264.8,314.6-331.9c145.8-69.1,364.5-67.1,512.2,5.8c130.4,65.2,266.7,207.2,316.6,335.7c32.6,86.3,34.5,232.1,40.3,3226.9l3.8,3134.8l418.2-414.4c253.2-251.3,450.8-431.7,502.6-458.5c72.9-38.4,115.1-46,268.6-46c213,0,310.8,36.5,439.3,165c126.6,126.6,165,228.3,165,429.7c0,149.6-7.7,186.1-51.8,268.6c-36.4,69.1-356.8,402.9-1179.9,1224C2717,4491.9,2565.4,4637.7,2515.6,4637.7S2314.1,4491.9,1329.9,3511.5z"/><path d="M7308,4610.8c-176.5-57.6-337.7-207.2-402.9-372.2c-32.6-86.3-34.5-243.7-40.3-3226.9l-3.8-3134.8l-418.2,414.4c-471.9,472-535.3,514.2-755.9,516.1c-157.3,1.9-253.2-24.9-366.4-99.7c-243.7-161.2-333.8-493.1-207.2-755.9c48-99.8,199.5-259,1185.6-1243.2c984.2-980.4,1135.8-1126.2,1185.6-1126.2s201.4,143.9,1181.8,1124.2c1272,1272,1233.6,1225.9,1233.6,1494.5c0,174.6-38.4,280.1-143.9,401c-122.8,140-266.7,205.3-456.6,205.3c-241.7,1.9-270.5-15.4-763.6-506.5l-447-443.2V998.3v3138.7l-40.3,111.3c-49.9,130.5-176.5,266.7-312.7,330C7618.8,4631.9,7419.2,4647.3,7308,4610.8z"/></g></g>
</svg>