<?xml version="1.0" encoding="UTF-8" standalone="no"?>
<!-- Svg Vector Icons : http://www.onlinewebfonts.com/icon -->

<svg
   xmlns:dc="http://purl.org/dc/elements/1.1/"
   xmlns:cc="http://creativecommons.org/ns#"
   xmlns:rdf="http://www.w3.org/1999/02/22-rdf-syntax-ns#"
   xmlns:svg="http://www.w3.org/2000/svg"
   xmlns="http://www.w3.org/2000/svg"
   xmlns:sodipodi="http://sodipodi.sourceforge.net/DTD/sodipodi-0.dtd"
   xmlns:inkscape="http://www.inkscape.org/namespaces/inkscape"
   version="1.1"
   x="0px"
   y="0px"
   viewBox="0 0 1000 1000"
   enable-background="new 0 0 1000 1000"
   xml:space="preserve"
   id="svg10"
   sodipodi:docname="flip.svg"
   inkscape:version="0.92.4 5da689c313, 2019-01-14"><defs
   id="defs14" /><sodipodi:namedview
   pagecolor="#ffffff"
   bordercolor="#666666"
   borderopacity="1"
   objecttolerance="10"
   gridtolerance="10"
   guidetolerance="10"
   inkscape:pageopacity="0"
   inkscape:pageshadow="2"
   inkscape:window-width="960"
   inkscape:window-height="1180"
   id="namedview12"
   showgrid="false"
   inkscape:zoom="0.6675088"
   inkscape:cx="516.94916"
   inkscape:cy="500"
   inkscape:window-x="0"
   inkscape:window-y="20"
   inkscape:window-maximized="0"
   inkscape:current-layer="svg10" />
<metadata
   id="metadata2"> Svg Vector Icons : http://www.onlinewebfonts.com/icon <rdf:RDF><cc:Work
     rdf:about=""><dc:format>image/svg+xml</dc:format><dc:type
       rdf:resource="http://purl.org/dc/dcmitype/StillImage" /><dc:title></dc:title></cc:Work></rdf:RDF></metadata>
<g
   id="g8"
   transform="matrix(0.94008968,0.74255428,-0.68301514,1.0220383,372.20909,-381.55233)"><path
     d="M 268.1,256.4 C 399.4,157.5 587,169.6 711.2,223.1 l -140.3,97.8 c -14,9.8 -17.4,29.1 -7.7,43.1 6.1,8.6 15.7,13.3 25.5,13.3 6.1,0 12.3,-1.8 17.7,-5.6 L 766.7,260 l 4.2,-3.5 c 15.2,-15.2 23.5,-35.4 23.5,-56.9 0,-21.5 -8.3,-41.7 -24.9,-58.2 L 630,17.8 C 617.2,6.5 597.6,7.6 586.2,20.4 574.9,33.2 576,52.8 588.9,64.1 L 682,146.6 C 544.7,104.6 363.6,106.8 230.8,206.9 131,282.1 49.1,451.1 91.2,659.2 c 3,14.7 15.9,24.8 30.3,24.8 2,0 4.1,-0.2 6.2,-0.6 16.8,-3.4 27.6,-19.8 24.2,-36.5 -36.5,-180.6 34.6,-329 116.2,-390.5 z"
     id="path4"
     inkscape:connector-curvature="0" /><path
     d="M 908.8,340.8 C 905.4,324 889.1,313.2 872.3,316.6 855.5,320 844.6,336.3 848,353.1 884.6,533.8 813.4,682.2 731.9,743.6 600.6,842.5 413,830.4 288.9,776.9 l 140.3,-97.8 c 14,-9.8 17.5,-29.1 7.7,-43.1 -9.8,-14 -29.1,-17.5 -43.1,-7.7 l -160.5,111.8 -4.1,3.4 c -15.3,15.2 -23.6,35.3 -23.7,56.8 0,21.5 8.4,41.7 25,58.2 L 370,982.2 c 5.9,5.2 13.2,7.8 20.5,7.8 8.6,0 17.1,-3.5 23.2,-10.4 11.3,-12.8 10.2,-32.4 -2.7,-43.7 l -93.1,-82.5 c 52.8,16.2 112,25.9 172.5,25.9 96.9,0 197,-24.6 278.7,-86.1 100,-75.3 181.8,-244.3 139.7,-452.4 z"
     id="path6"
     inkscape:connector-curvature="0" /></g>
</svg>