<?xml version="1.0" encoding="UTF-8" standalone="no"?>
<!-- Svg Vector Icons : http://www.onlinewebfonts.com/icon -->

<svg
   xmlns:dc="http://purl.org/dc/elements/1.1/"
   xmlns:cc="http://creativecommons.org/ns#"
   xmlns:rdf="http://www.w3.org/1999/02/22-rdf-syntax-ns#"
   xmlns:svg="http://www.w3.org/2000/svg"
   xmlns="http://www.w3.org/2000/svg"
   xmlns:sodipodi="http://sodipodi.sourceforge.net/DTD/sodipodi-0.dtd"
   xmlns:inkscape="http://www.inkscape.org/namespaces/inkscape"
   version="1.1"
   x="0px"
   y="0px"
   viewBox="0 0 1000 1000"
   enable-background="new 0 0 1000 1000"
   xml:space="preserve"
   id="svg8"
   sodipodi:docname="github.svg"
   inkscape:version="0.92.4 5da689c313, 2019-01-14"><defs
   id="defs12" /><sodipodi:namedview
   pagecolor="#ffffff"
   bordercolor="#666666"
   borderopacity="1"
   objecttolerance="10"
   gridtolerance="10"
   guidetolerance="10"
   inkscape:pageopacity="0"
   inkscape:pageshadow="2"
   inkscape:window-width="1920"
   inkscape:window-height="1060"
   id="namedview10"
   showgrid="false"
   inkscape:zoom="0.6675088"
   inkscape:cx="508.47458"
   inkscape:cy="500"
   inkscape:window-x="0"
   inkscape:window-y="20"
   inkscape:window-maximized="0"
   inkscape:current-layer="svg8" />
<metadata
   id="metadata2"> Svg Vector Icons : http://www.onlinewebfonts.com/icon <rdf:RDF><cc:Work
     rdf:about=""><dc:format>image/svg+xml</dc:format><dc:type
       rdf:resource="http://purl.org/dc/dcmitype/StillImage" /></cc:Work></rdf:RDF></metadata>
<g
   id="g6"
   transform="matrix(1.0091721,0,0,1.0137581,-3.0879361,-6.1300117)"><path
     d="M 500,10 C 229.4,10 10,229.4 10,500 10,770.6 229.4,990 500,990 770.6,990 990,770.6 990,500 990,229.4 770.6,10 500,10 Z m 291,781 c -37.8,37.8 -81.8,67.5 -130.8,88.2 -12.4,5.3 -25.1,9.9 -37.9,13.9 v -73.4 c 0,-38.6 -13.2,-67 -39.7,-85.2 16.6,-1.6 31.8,-3.8 45.7,-6.7 13.9,-2.9 28.6,-7 44,-12.4 15.5,-5.4 29.3,-11.9 41.6,-19.4 12.3,-7.5 24.1,-17.2 35.4,-29.2 11.3,-12 20.8,-25.5 28.5,-40.7 7.7,-15.2 13.7,-33.3 18.2,-54.5 4.5,-21.2 6.7,-44.6 6.7,-70.1 0,-49.5 -16.1,-91.6 -48.3,-126.3 14.7,-38.3 13.1,-79.9 -4.8,-124.9 l -12,-1.4 c -8.3,-1 -23.2,2.5 -44.7,10.5 -21.5,8 -45.7,21.1 -72.5,39.2 -38,-10.5 -77.4,-15.8 -118.2,-15.8 -41.2,0 -80.4,5.3 -117.7,15.8 -16.9,-11.5 -32.9,-21 -48.1,-28.5 -15.2,-7.5 -27.3,-12.6 -36.4,-15.3 -9.1,-2.7 -17.5,-4.4 -25.4,-5 -7.9,-0.6 -12.8,-0.8 -15.1,-0.5 -2.2,0.3 -3.8,0.6 -4.8,1 -17.9,45.3 -19.5,86.9 -4.8,124.9 -32.2,34.8 -48.3,76.9 -48.3,126.3 0,25.5 2.2,48.9 6.7,70.1 4.5,21.2 10.5,39.4 18.2,54.5 7.7,15.2 17.1,28.7 28.5,40.7 11.3,12 23.1,21.7 35.4,29.2 12.3,7.5 26.2,14 41.6,19.4 15.5,5.4 30.1,9.6 44,12.4 13.9,2.9 29.1,5.1 45.7,6.7 -26.2,17.9 -39.2,46.3 -39.2,85.2 v 74.9 c -14.4,-4.3 -28.7,-9.4 -42.7,-15.3 -49,-20.7 -93,-50.4 -130.8,-88.2 C 171.2,753.3 141.5,709.3 120.8,660.3 99.4,609.5 88.5,555.6 88.5,500 c 0,-55.6 10.9,-109.5 32.3,-160.2 20.7,-49 50.4,-93 88.2,-130.8 37.8,-37.8 81.8,-67.5 130.8,-88.2 50.8,-21.4 104.7,-32.3 160.2,-32.3 55.6,0 109.5,10.9 160.2,32.3 49,20.7 93,50.4 130.8,88.2 37.8,37.8 67.5,81.8 88.2,130.8 21.4,50.7 32.3,104.6 32.3,160.2 0,55.6 -10.9,109.5 -32.3,160.2 -20.7,49 -50.4,93 -88.2,130.8 z"
     id="path4"
     inkscape:connector-curvature="0" /></g>
</svg>