<?xml version="1.0" encoding="utf-8"?>
<!-- Svg Vector Icons : http://www.onlinewebfonts.com/icon -->
<!DOCTYPE svg PUBLIC "-//W3C//DTD SVG 1.1//EN" "http://www.w3.org/Graphics/SVG/1.1/DTD/svg11.dtd">
<svg version="1.1" xmlns="http://www.w3.org/2000/svg" xmlns:xlink="http://www.w3.org/1999/xlink" x="0px" y="0px" viewBox="0 0 1000 1000" enable-background="new 0 0 1000 1000" xml:space="preserve">
<metadata> Svg Vector Icons : http://www.onlinewebfonts.com/icon </metadata>
<g><path d="M500,10C229.4,10,10,229.4,10,500s219.4,490,490,490s490-219.4,490-490S770.6,10,500,10z M791,791c-37.8,37.8-81.8,67.5-130.8,88.2c-12.4,5.3-25.1,9.9-37.9,13.9v-73.4c0-38.6-13.2-67-39.7-85.2c16.6-1.6,31.8-3.8,45.7-6.7c13.9-2.9,28.6-7,44-12.4c15.5-5.4,29.3-11.9,41.6-19.4c12.3-7.5,24.1-17.2,35.4-29.2c11.3-12,20.8-25.5,28.5-40.7c7.7-15.2,13.7-33.3,18.2-54.5s6.7-44.6,6.7-70.1c0-49.5-16.1-91.6-48.3-126.3c14.7-38.3,13.1-79.9-4.8-124.9l-12-1.4c-8.3-1-23.2,2.5-44.7,10.5c-21.5,8-45.7,21.1-72.5,39.2c-38-10.5-77.4-15.8-118.2-15.8c-41.2,0-80.4,5.3-117.7,15.8c-16.9-11.5-32.9-21-48.1-28.5s-27.3-12.6-36.4-15.3s-17.5-4.4-25.4-5s-12.8-0.8-15.1-0.5c-2.2,0.3-3.8,0.6-4.8,1c-17.9,45.3-19.5,86.9-4.8,124.9c-32.2,34.8-48.3,76.9-48.3,126.3c0,25.5,2.2,48.9,6.7,70.1c4.5,21.2,10.5,39.4,18.2,54.5c7.7,15.2,17.1,28.7,28.5,40.7c11.3,12,23.1,21.7,35.4,29.2c12.3,7.5,26.2,14,41.6,19.4c15.5,5.4,30.1,9.6,44,12.4c13.9,2.9,29.1,5.1,45.7,6.7c-26.2,17.9-39.2,46.3-39.2,85.2v74.9c-14.4-4.3-28.7-9.4-42.7-15.3c-49-20.7-93-50.4-130.8-88.2c-37.8-37.8-67.5-81.8-88.2-130.8C99.4,609.5,88.5,555.6,88.5,500c0-55.6,10.9-109.5,32.3-160.2c20.7-49,50.4-93,88.2-130.8c37.8-37.8,81.8-67.5,130.8-88.2C390.6,99.4,444.5,88.5,500,88.5c55.6,0,109.5,10.9,160.2,32.3c49,20.7,93,50.4,130.8,88.2s67.5,81.8,88.2,130.8c21.4,50.7,32.3,104.6,32.3,160.2c0,55.6-10.9,109.5-32.3,160.2C858.5,709.2,828.8,753.2,791,791L791,791z"/></g>
</svg>