<svg height="511pt" viewBox="0 0 511 511.99912" width="511pt" xmlns="http://www.w3.org/2000/svg"><path d="m447.738281 74.660156c-.648437 0-1.300781-.0625-1.949219-.191406-.640624-.128906-1.273437-.320312-1.871093-.570312-.601563-.25-1.191407-.558594-1.730469-.917969-.539062-.371094-1.058594-.78125-1.519531-1.25-1.859375-1.863281-2.929688-4.429688-2.929688-7.0625 0-.660157.070313-1.308594.199219-1.957031.128906-.640626.320312-1.273438.570312-1.871094.25-.601563.558594-1.191406.917969-1.730469.363281-.550781.78125-1.058594 1.242188-1.519531.460937-.460938.976562-.878906 1.519531-1.242188.539062-.359375 1.128906-.667968 1.730469-.917968.597656-.25 1.226562-.441407 1.871093-.570313 1.289063-.261719 2.617188-.261719 3.910157 0 .636719.128906 1.257812.320313 1.867187.570313.601563.25 1.179688.558593 1.722656.917968.546876.363282 1.058594.78125 1.519532 1.242188.457031.460937.878906.96875 1.25 1.519531.359375.539063.667968 1.128906.917968 1.730469.25.597656.441407 1.230468.570313 1.871094.128906.648437.191406 1.296874.191406 1.957031 0 2.632812-1.0625 5.199219-2.933593 7.0625-.457032.46875-.96875.878906-1.519532 1.25-.539062.359375-1.117187.667969-1.71875.917969-.601562.25-1.230468.441406-1.871094.570312-.648437.128906-1.296874.191406-1.957031.191406zm0 0"/><path d="m65.179688 74.660156c-.660157 0-1.3125-.0625-1.960938-.191406-.640625-.128906-1.269531-.320312-1.871094-.570312-.597656-.25-1.179687-.558594-1.71875-.917969-.550781-.371094-1.0625-.78125-1.519531-1.25-.472656-.460938-.882813-.972657-1.25-1.519531-.359375-.542969-.671875-1.121094-.921875-1.722657-.25-.597656-.4375-1.230469-.570312-1.871093-.128907-.648438-.1875-1.296876-.1875-1.957032 0-.652344.058593-1.300781.1875-1.949218.132812-.640626.320312-1.273438.570312-1.871094.25-.601563.5625-1.179688.921875-1.730469.367187-.539063.777344-1.050781 1.25-1.519531.457031-.460938.96875-.871094 1.519531-1.242188.539063-.359375 1.121094-.667968 1.71875-.917968.601563-.25 1.230469-.441407 1.871094-.570313 1.289062-.261719 2.621094-.261719 3.910156 0 .640625.128906 1.269532.320313 1.871094.570313.597656.25 1.179688.558593 1.726562.917968.542969.371094 1.0625.78125 1.523438 1.242188.457031.46875.878906.980468 1.238281 1.519531.359375.550781.671875 1.128906.921875 1.730469.25.597656.4375 1.230468.566406 1.871094.132813.648437.203126 1.296874.203126 1.949218 0 .660156-.070313 1.308594-.203126 1.957032-.128906.640624-.316406 1.273437-.566406 1.871093-.25.601563-.5625 1.179688-.921875 1.722657-.359375.546874-.78125 1.058593-1.238281 1.519531-.460938.46875-.980469.878906-1.523438 1.25-.546874.359375-1.128906.667969-1.726562.917969-.601562.25-1.230469.441406-1.871094.570312-.652344.128906-1.300781.191406-1.949218.191406zm0 0"/><path d="m504.210938 399.796875-9.238282-9.238281c-5.300781-5.304688-12.351562-8.226563-19.851562-8.226563-4.757813 0-9.332032 1.175781-13.394532 3.386719l-39.199218-39.203125 12.054687-12.054687c10.976563-10.980469 10.976563-28.847657 0-39.824219l-9.121093-9.125c-5.316407-5.320313-12.390626-8.25-19.910157-8.25-7.523437 0-14.59375 2.929687-19.910156 8.25l-8.316406 8.316406-30.679688-33.089844 162.476563-147.578125c2.136718-1.941406 3.332031-4.714844 3.273437-7.601562l-1.878906-93.882813c-.105469-5.363281-4.429687-9.691406-9.796875-9.796875l-93.863281-1.87499975c-2.929688-.07421875-5.664063 1.13671875-7.601563 3.27343775l-142.839844 157.320312-142.75-157.316406c-1.941406-2.140625-4.734374-3.3398438-7.605468-3.27734375l-93.863282 1.87499975c-5.367187.105469-9.691406 4.433594-9.796874 9.796875l-1.875 93.882813c-.058594 2.886718 1.136718 5.660156 3.277343 7.601562l162.089844 147.140625-30.375 33.449219-8.292969-8.292969c-5.300781-5.304687-12.351562-8.226562-19.855468-8.226562-7.5 0-14.550782 2.921875-19.855469 8.226562l-9.234375 9.234375c-10.945313 10.949219-10.945313 28.761719 0 39.707032l12.113281 12.113281-39.199219 39.207031c-4.0625-2.210938-8.636718-3.386719-13.390625-3.386719-7.503906 0-14.554687 2.921875-19.859375 8.226563l-9.234375 9.234375c-10.945312 10.949219-10.945312 28.761719 0 39.707031l64.261719 64.273438c5.304688 5.304687 12.355469 8.226562 19.855469 8.226562 7.503906 0 14.554687-2.921875 19.855469-8.226562l9.238281-9.238282c8.984375-8.984375 10.59375-22.597656 4.824219-33.242187l39.203124-39.210938 12.105469 12.109375c5.304688 5.304688 12.355469 8.226563 19.855469 8.226563 7.503906 0 14.554688-2.921875 19.855469-8.226563l9.238281-9.238281c10.941406-10.945313 10.941406-28.757813 0-39.703125l-8.300781-8.304688 37.273437-33.855468 38.164063 33.933594-8.160157 8.164062c-10.976562 10.980469-10.976562 28.847656 0 39.824219l9.121094 9.125c5.316406 5.320312 12.386719 8.25 19.910156 8.25 7.519532 0 14.59375-2.929688 19.910157-8.25l12.050781-12.054688 39.203125 39.210938c-5.769531 10.644531-4.160156 24.257812 4.828125 33.246093l9.230469 9.234376c5.304687 5.304687 12.355469 8.226562 19.859375 8.226562 7.5 0 14.550781-2.921875 19.855468-8.226562l64.261719-64.273438c10.949219-10.945312 10.949219-28.757812.003907-39.703125zm-141.039063-91.816406-20.292969 20.296875-33.597656-33.605469 22.558594-20.488281zm-342.5625-206.570313 1.59375-79.726562 79.707031-1.59375 140.996094 155.382812-25.128906 27.679688-117.125-117.144532c-3.902344-3.90625-10.234375-3.90625-14.140625 0-3.90625 3.902344-3.90625 10.234376 0 14.140626l117.804687 117.828124-24.980468 27.515626zm390.394531-81.320312 79.710938 1.59375 1.59375 79.726562-287.765625 261.378906-20.363281-20.367187 242.226562-242.273437c3.902344-3.90625 3.902344-10.238282 0-14.144532-3.90625-3.902344-10.238281-3.902344-14.144531.003906l-242.226563 242.269532-20.363281-20.367188zm-303.230468 460.304687-9.234376 9.238281c-1.527343 1.527344-3.554687 2.367188-5.714843 2.367188-2.15625 0-4.1875-.839844-5.710938-2.367188l-64.261719-64.273437c-3.148437-3.148437-3.148437-8.273437 0-11.425781l9.234376-9.234375c1.527343-1.527344 3.554687-2.367188 5.714843-2.367188 2.15625 0 4.183594.839844 5.710938 2.367188l1.414062 1.410156c0 .003906.003907.007813.007813.007813l61.414062 61.429687c.003906.003906.007813.003906.011719.007813l1.414063 1.417968c3.148437 3.148438 3.148437 8.273438 0 11.421875zm5.644531-34.0625-47.273438-47.28125 38.386719-38.394531 47.273438 47.285156zm99.4375-35.519531-9.234375 9.238281c-1.527344 1.523438-3.554688 2.367188-5.714844 2.367188-2.15625 0-4.1875-.839844-5.710938-2.367188l-99.777343-99.792969c-3.148438-3.148437-3.148438-8.273437 0-11.421874l9.238281-9.238282c1.523438-1.523437 3.554688-2.367187 5.710938-2.367187s4.1875.839843 5.714843 2.367187l99.773438 99.792969c3.148437 3.148437 3.148437 8.273437 0 11.421875zm58.007812-81.246094 23.59375-21.433594 34.28125 34.289063-20.433593 20.4375zm49.914063 90.429688c-1.542969 1.542968-3.589844 2.390625-5.769532 2.390625-2.175781 0-4.226562-.847657-5.765624-2.390625l-9.121094-9.121094c-3.183594-3.183594-3.183594-8.363281 0-11.542969l99.660156-99.679687c1.539062-1.542969 3.589844-2.390625 5.765625-2.390625 2.179687 0 4.230469.847656 5.769531 2.390625l9.121094 9.121094c3.183594 3.183593 3.183594 8.359374 0 11.542968zm87.609375-59.339844 38.386719 38.394531-47.277344 47.28125-38.382813-38.390625zm81.679687 64.703125-64.261718 64.273437c-1.527344 1.527344-3.554688 2.367188-5.714844 2.367188-2.15625 0-4.183594-.839844-5.710938-2.367188l-9.234375-9.234374c-3.148437-3.152344-3.148437-8.273438-.003906-11.425782l1.417969-1.414062c0-.003906.003906-.007813.007812-.011719l62.835938-62.847656c1.527344-1.523438 3.558594-2.367188 5.714844-2.367188s4.1875.839844 5.714843 2.367188l9.230469 9.238281c3.152344 3.148438 3.152344 8.273438.003906 11.421875zm0 0"/></svg>