<?xml version="1.0" encoding="iso-8859-1"?>
<!-- Generator: Adobe Illustrator 19.0.0, SVG Export Plug-In . SVG Version: 6.00 Build 0)  -->
<svg version="1.1" id="Capa_1" xmlns="http://www.w3.org/2000/svg" xmlns:xlink="http://www.w3.org/1999/xlink" x="0px" y="0px"
	 viewBox="0 0 362.027 362.027" style="enable-background:new 0 0 362.027 362.027;" xml:space="preserve">
<g>
	<g>
		<polygon points="60.587,331.733 167.893,224.427 137.6,194.347 30.293,301.653 39.68,280.32 39.68,223.147 0,222.72 0,362.027 
			138.88,362.027 139.093,322.347 80.853,322.347 		"/>
	</g>
	<g>
		<polygon points="222.72,0 223.147,39.68 280.32,39.68 301.653,30.293 194.347,137.6 224.427,167.893 331.733,60.587 
			322.347,80.853 322.347,139.093 362.027,138.88 362.027,0 		"/>
	</g>
	<g>
		
			<rect x="129.381" y="61.89" transform="matrix(0.7071 -0.7071 0.7071 0.7071 -105.2146 168.4373)" width="42.667" height="298.668"/>
	</g>
	<g>
		
			<rect x="189.754" y="1.469" transform="matrix(0.7071 -0.7071 0.7071 0.7071 -44.8074 193.4308)" width="42.667" height="298.668"/>
	</g>
</g>
</svg>
