<?xml version="1.0" encoding="UTF-8" standalone="no"?>
<!-- Generator: Adobe Illustrator 19.0.0, SVG Export Plug-In . SVG Version: 6.00 Build 0)  -->

<svg
   xmlns:dc="http://purl.org/dc/elements/1.1/"
   xmlns:cc="http://creativecommons.org/ns#"
   xmlns:rdf="http://www.w3.org/1999/02/22-rdf-syntax-ns#"
   xmlns:svg="http://www.w3.org/2000/svg"
   xmlns="http://www.w3.org/2000/svg"
   xmlns:sodipodi="http://sodipodi.sourceforge.net/DTD/sodipodi-0.dtd"
   xmlns:inkscape="http://www.inkscape.org/namespaces/inkscape"
   version="1.1"
   id="Layer_1"
   x="0px"
   y="0px"
   viewBox="0 0 512 512"
   style="enable-background:new 0 0 512 512;"
   xml:space="preserve"
   sodipodi:docname="resign.svg"
   inkscape:version="0.92.4 5da689c313, 2019-01-14"><metadata
   id="metadata43"><rdf:RDF><cc:Work
       rdf:about=""><dc:format>image/svg+xml</dc:format><dc:type
         rdf:resource="http://purl.org/dc/dcmitype/StillImage" /><dc:title></dc:title></cc:Work></rdf:RDF></metadata><defs
   id="defs41" /><sodipodi:namedview
   pagecolor="#ffffff"
   bordercolor="#666666"
   borderopacity="1"
   objecttolerance="10"
   gridtolerance="10"
   guidetolerance="10"
   inkscape:pageopacity="0"
   inkscape:pageshadow="2"
   inkscape:window-width="960"
   inkscape:window-height="1180"
   id="namedview39"
   showgrid="false"
   inkscape:zoom="1.3037281"
   inkscape:cx="260.33898"
   inkscape:cy="256"
   inkscape:window-x="0"
   inkscape:window-y="20"
   inkscape:window-maximized="0"
   inkscape:current-layer="Layer_1" />
<g
   id="g6"
   transform="matrix(1.3286573,0,0,1,-83.576434,0)">
	<g
   id="g4">
		<path
   d="m 439.463,61.781 c -4.616,-2.685 -10.318,-2.685 -14.933,0 C 406.661,71.729 386.528,76.902 366.077,76.8 336.186,77.461 307.284,66.085 285.864,45.227 261.136,21.022 227.702,7.796 193.107,8.534 165.246,8.293 138.006,16.766 115.198,32.769 V 25.6 C 115.198,11.462 103.737,0 89.598,0 75.459,0 63.998,11.461 63.998,25.6 v 460.8 c 0,14.138 11.461,25.6 25.6,25.6 14.138,0 25.6,-11.461 25.6,-25.6 V 264.533 c 2.828,-0.265 5.522,-1.33 7.765,-3.072 20.302,-14.951 44.933,-22.861 70.144,-22.528 29.946,-0.688 58.911,10.689 80.384,31.573 24.681,24.17 58.049,37.394 92.587,36.693 26.469,0.308 52.431,-7.266 74.581,-21.76 4.74,-3.285 7.501,-8.742 7.339,-14.507 V 76.8 c 0.085,-6.182 -3.18,-11.928 -8.535,-15.019 z M 98.13,486.4 c 0,4.713 -3.82,8.533 -8.533,8.533 -4.713,0 -8.533,-3.82 -8.533,-8.533 V 25.6 c 0,-4.713 3.82,-8.533 8.533,-8.533 4.713,0 8.533,3.82 8.533,8.533 z m 332.8,-215.125 c -19.319,12.47 -41.86,19.025 -64.853,18.859 -29.891,0.661 -58.793,-10.715 -80.213,-31.573 -24.728,-24.205 -58.162,-37.431 -92.757,-36.693 -27.843,-0.297 -55.083,8.117 -77.909,24.064 V 54.784 C 136.51,35.5 164.371,25.064 193.107,25.6 c 29.946,-0.688 58.911,10.689 80.384,31.573 24.681,24.17 58.049,37.394 92.587,36.693 22.598,0.158 44.882,-5.296 64.853,-15.872 v 193.281 z"
   id="path2"
   inkscape:connector-curvature="0" />
	</g>
</g>
<g
   id="g8"
   transform="matrix(1.3286573,0,0,1,-83.576434,0)">
</g>
<g
   id="g10"
   transform="matrix(1.3286573,0,0,1,-83.576434,0)">
</g>
<g
   id="g12"
   transform="matrix(1.3286573,0,0,1,-83.576434,0)">
</g>
<g
   id="g14"
   transform="matrix(1.3286573,0,0,1,-83.576434,0)">
</g>
<g
   id="g16"
   transform="matrix(1.3286573,0,0,1,-83.576434,0)">
</g>
<g
   id="g18"
   transform="matrix(1.3286573,0,0,1,-83.576434,0)">
</g>
<g
   id="g20"
   transform="matrix(1.3286573,0,0,1,-83.576434,0)">
</g>
<g
   id="g22"
   transform="matrix(1.3286573,0,0,1,-83.576434,0)">
</g>
<g
   id="g24"
   transform="matrix(1.3286573,0,0,1,-83.576434,0)">
</g>
<g
   id="g26"
   transform="matrix(1.3286573,0,0,1,-83.576434,0)">
</g>
<g
   id="g28"
   transform="matrix(1.3286573,0,0,1,-83.576434,0)">
</g>
<g
   id="g30"
   transform="matrix(1.3286573,0,0,1,-83.576434,0)">
</g>
<g
   id="g32"
   transform="matrix(1.3286573,0,0,1,-83.576434,0)">
</g>
<g
   id="g34"
   transform="matrix(1.3286573,0,0,1,-83.576434,0)">
</g>
<g
   id="g36"
   transform="matrix(1.3286573,0,0,1,-83.576434,0)">
</g>
</svg>