<?xml version="1.0" encoding="UTF-8" standalone="no"?>
<!-- Svg Vector Icons : http://www.onlinewebfonts.com/icon -->

<svg
   xmlns:dc="http://purl.org/dc/elements/1.1/"
   xmlns:cc="http://creativecommons.org/ns#"
   xmlns:rdf="http://www.w3.org/1999/02/22-rdf-syntax-ns#"
   xmlns:svg="http://www.w3.org/2000/svg"
   xmlns="http://www.w3.org/2000/svg"
   xmlns:sodipodi="http://sodipodi.sourceforge.net/DTD/sodipodi-0.dtd"
   xmlns:inkscape="http://www.inkscape.org/namespaces/inkscape"
   version="1.1"
   x="0px"
   y="0px"
   viewBox="0 0 1000 1000"
   enable-background="new 0 0 1000 1000"
   xml:space="preserve"
   id="svg8"
   sodipodi:docname="settings.svg"
   inkscape:version="0.92.4 5da689c313, 2019-01-14"><defs
   id="defs12" /><sodipodi:namedview
   pagecolor="#ffffff"
   bordercolor="#666666"
   borderopacity="1"
   objecttolerance="10"
   gridtolerance="10"
   guidetolerance="10"
   inkscape:pageopacity="0"
   inkscape:pageshadow="2"
   inkscape:window-width="960"
   inkscape:window-height="1180"
   id="namedview10"
   showgrid="false"
   inkscape:zoom="0.6675088"
   inkscape:cx="508.47458"
   inkscape:cy="500"
   inkscape:window-x="0"
   inkscape:window-y="20"
   inkscape:window-maximized="0"
   inkscape:current-layer="svg8" />
<metadata
   id="metadata2"> Svg Vector Icons : http://www.onlinewebfonts.com/icon <rdf:RDF><cc:Work
     rdf:about=""><dc:format>image/svg+xml</dc:format><dc:type
       rdf:resource="http://purl.org/dc/dcmitype/StillImage" /><dc:title></dc:title></cc:Work></rdf:RDF></metadata>
<g
   id="g6"
   transform="matrix(1.0152862,0,0,1.0183742,-7.6433991,-9.1852492)"><path
     d="m 987.5,633 c 1.4,8.4 1.1,18.6 -1.1,30.5 -2.1,11.9 -5.6,24 -10.5,36.3 -4.9,12.2 -10.9,23.2 -17.9,33 -7,9.8 -14.7,16.8 -23.1,21 -8.4,4.2 -15.8,6.3 -22.1,6.3 -6.3,0 -13.3,-1.4 -21,-4.2 -7,-2.1 -15.8,-4 -26.3,-5.8 -10.5,-1.8 -21.2,-2.1 -32.1,-1.1 -10.9,1.1 -21.7,3.3 -32.6,6.8 -10.9,3.5 -20.1,9.5 -27.9,17.9 -16.8,17.5 -26.6,37.5 -29.4,59.9 -2.8,22.4 0.4,43.8 9.5,64.1 7,14 6,28 -3.2,42 -4.2,5.6 -10.9,11.4 -20,17.3 -9.1,6 -19.1,11.4 -30,16.3 -10.9,4.9 -22.2,8.8 -34.2,11.6 -11.9,2.8 -22.4,4.2 -31.5,4.2 -6.3,0 -12.3,-2.5 -17.9,-7.4 -5.6,-4.9 -9.5,-10.2 -11.6,-15.8 h -1.1 c -7.7,-21.7 -20.8,-40.5 -39.4,-56.2 -18.6,-15.8 -40.1,-23.6 -64.6,-23.6 -23.8,0 -45.4,7.9 -64.6,23.6 -19.3,15.8 -32.8,34.2 -40.5,55.2 -3.5,8.4 -8.8,14.5 -15.8,18.4 -7,3.9 -14.7,5.8 -23.1,5.8 -9.8,0 -20.8,-1.8 -33.1,-5.3 -12.3,-3.5 -24.5,-7.9 -36.8,-13.1 -12.3,-5.3 -23.3,-11.4 -33.1,-18.4 -9.8,-7 -17.2,-14 -22.1,-21 -3.5,-4.9 -5.4,-10.7 -5.8,-17.3 -0.4,-6.7 2.3,-15.9 7.9,-27.9 7.7,-16.1 10.7,-34.5 8.9,-55.2 -1.8,-20.7 -10.7,-39.8 -26.8,-57.3 -9.8,-10.5 -21.7,-17.3 -35.7,-20.5 -14,-3.1 -27.3,-4.4 -39.9,-3.7 -14.7,0.7 -29.8,3.5 -45.2,8.4 -9.8,2.8 -19.6,2.1 -29.4,-2.1 C 56.7,752.9 49.5,746.4 42.8,736.3 36.1,726.1 30.2,714.9 24.9,702.7 20,690.6 16,678 13.2,665 10.4,652 9.7,641.4 11.1,632.9 c 2.1,-15.4 9.1,-25.2 21,-29.4 21,-8.4 39.9,-22.2 56.8,-41.5 16.8,-19.3 25.2,-40.8 25.2,-64.6 0,-24.5 -8.4,-45.9 -25.2,-64.1 C 72,415 53.1,401.7 32.1,393.3 25.8,391.2 20.5,386.1 16.3,378.1 12.1,370 10,361.8 10,353.4 c 0,-9.1 1.4,-19.3 4.2,-30.5 2.8,-11.2 6.5,-22.1 11,-32.6 4.6,-10.5 9.8,-20.1 15.8,-28.9 6,-8.8 12.4,-15.2 19.4,-19.4 5.6,-3.5 11,-4.9 16.3,-4.2 5.3,0.7 11,2.1 17.3,4.2 21,8.4 42.9,11 65.7,7.9 22.8,-3.2 42.9,-13.1 60.4,-30 8.4,-8.4 14.5,-18.7 18.4,-31 3.9,-12.3 6.3,-24.4 7.4,-36.3 1,-11.9 1,-22.8 0,-32.6 -1.1,-9.8 -1.9,-16.8 -2.6,-21 -1.4,-4.2 -2.6,-9.1 -3.7,-14.7 -1.1,-5.6 -0.5,-10.5 1.6,-14.7 4.2,-9.8 11.7,-18.4 22.6,-25.8 10.9,-7.4 22.6,-13.5 35.2,-18.4 12.6,-4.9 24.9,-8.6 36.8,-11 11.9,-2.5 21.4,-3.7 28.4,-3.7 9.1,0 16.3,3 21.5,8.9 5.3,6 8.9,12.1 11,18.4 7.7,18.9 20.3,35.6 37.8,49.9 17.5,14.4 38.2,21.5 62,21.5 24.5,0 46.2,-6.8 65.2,-20.5 18.9,-13.7 32.2,-31 39.9,-52 2.8,-5.6 7.2,-11.4 13.1,-17.3 6,-6 12.1,-8.9 18.4,-8.9 9.8,0 20.5,1.4 32.1,4.2 11.6,2.8 22.9,6.7 34.2,11.6 11.2,4.9 21.5,11.2 31,18.9 9.5,7.7 17,16.1 22.6,25.2 3.5,5.6 4.6,11.7 3.2,18.4 -1.4,6.7 -2.8,11.4 -4.2,14.2 -9.1,20.3 -11.9,41.7 -8.4,64.1 3.5,22.4 13.7,42 30.5,58.9 16.8,16.8 37.5,26.1 62,27.8 24.5,1.8 47.3,-2.3 68.3,-12.1 5.6,-3.5 12.4,-4.9 20.5,-4.2 8.1,0.7 14.9,3.9 20.5,9.5 10.5,9.8 19.8,24.7 27.9,44.7 8.1,20 13.5,40.1 16.3,60.4 1.4,11.9 -0.5,21.2 -5.8,27.9 -5.3,6.7 -10.7,11 -16.3,13.1 -21.7,7.7 -40.3,21.2 -55.7,40.5 -15.4,19.3 -23.1,41.2 -23.1,65.7 0,23.8 6.5,44.7 19.4,62.5 13,17.9 29.9,30.7 51,38.4 4.9,2.8 9.1,5.6 12.6,8.4 7.7,6.3 13,14.3 15.8,24.2 z m -488.8,94.6 c 31.5,0 61.3,-6 89.3,-17.9 28,-11.9 52.4,-28.4 73,-49.4 20.7,-21 37,-45.4 48.9,-73 11.9,-27.7 17.9,-57.3 17.9,-88.8 0,-31.5 -6,-61.1 -17.9,-88.8 C 698,382 681.7,357.8 661,337.2 c -20.7,-20.7 -45,-37 -73,-48.9 -28,-11.9 -57.8,-17.9 -89.3,-17.9 -31.5,0 -61.1,6 -88.8,17.9 -27.7,11.9 -51.8,28.2 -72.5,48.9 -20.7,20.7 -37,44.9 -48.9,72.5 -11.9,27.7 -17.9,57.3 -17.9,88.8 0,31.5 6,61.1 17.9,88.8 11.9,27.7 28.2,52 48.9,73 20.7,21 44.8,37.5 72.5,49.4 27.7,11.9 57.3,17.9 88.8,17.9 z"
     id="path4"
     inkscape:connector-curvature="0" /></g>
</svg>