<?xml version="1.0" encoding="UTF-8" standalone="no"?>
<svg
   xmlns:dc="http://purl.org/dc/elements/1.1/"
   xmlns:cc="http://creativecommons.org/ns#"
   xmlns:rdf="http://www.w3.org/1999/02/22-rdf-syntax-ns#"
   xmlns:svg="http://www.w3.org/2000/svg"
   xmlns="http://www.w3.org/2000/svg"
   xmlns:sodipodi="http://sodipodi.sourceforge.net/DTD/sodipodi-0.dtd"
   xmlns:inkscape="http://www.inkscape.org/namespaces/inkscape"
   enable-background="new 0 0 56.693 56.693"
   height="56.693px"
   id="Layer_1"
   version="1.1"
   viewBox="0 0 56.693 56.693"
   width="56.693px"
   xml:space="preserve"
   sodipodi:docname="twitter.svg"
   inkscape:version="0.92.5 (2060ec1f9f, 2020-04-08)"><metadata
     id="metadata9"><rdf:RDF><cc:Work
         rdf:about=""><dc:format>image/svg+xml</dc:format><dc:type
           rdf:resource="http://purl.org/dc/dcmitype/StillImage" /></cc:Work></rdf:RDF></metadata><defs
     id="defs7" /><sodipodi:namedview
     pagecolor="#ffffff"
     bordercolor="#666666"
     borderopacity="1"
     objecttolerance="10"
     gridtolerance="10"
     guidetolerance="10"
     inkscape:pageopacity="0"
     inkscape:pageshadow="2"
     inkscape:window-width="1920"
     inkscape:window-height="1060"
     id="namedview5"
     showgrid="false"
     inkscape:zoom="8.3255427"
     inkscape:cx="28.82695"
     inkscape:cy="28.3465"
     inkscape:window-x="0"
     inkscape:window-y="20"
     inkscape:window-maximized="0"
     inkscape:current-layer="Layer_1" /><path
     d="m 28.468253,0.38840479 c -15.504,0 -28.07250072,12.57078021 -28.07250072,28.07250021 0,15.504 12.56850072,28.07022 28.07250072,28.07022 15.504,0 28.07022,-12.56622 28.07022,-28.07022 0,-15.50172 -12.56736,-28.07250021 -28.07022,-28.07250021 z M 42.608813,22.800805 c 0.01482,0.30324 0.02052,0.60762 0.02052,0.91542 0,9.34914 -7.11588,20.12784 -20.12784,20.12784 -3.99456,0 -7.71438,-1.17078 -10.84482,-3.17718 0.55404,0.06498 1.11606,0.09804 1.6872,0.09804 3.31512,0 6.36576,-1.13088 8.78598,-3.02784 -3.0951,-0.05814 -5.70684,-2.10444 -6.60744,-4.91454 0.43092,0.08436 0.87438,0.12654 1.33038,0.12654 0.64524,0 1.26996,-0.08436 1.8639,-0.24738 -3.2376,-0.6498 -5.67606,-3.5112 -5.67606,-6.93576 0,-0.03078 0,-0.06042 0.0011,-0.0912 0.95304,0.5301 2.04402,0.84816 3.20454,0.88578 -1.89924,-1.2711 -3.14754,-3.43368 -3.14754,-5.88924 0,-1.29618 0.34884,-2.51256 0.9576,-3.5568 3.48954,4.27956 8.70276,7.0965 14.58288,7.39062 -0.12084,-0.51642 -0.18354,-1.05792 -0.18354,-1.61196 0,-3.90564 3.16692,-7.0737 7.07484,-7.0737 2.0349,0 3.87258,0.85956 5.16306,2.23326 1.61196,-0.31578 3.12588,-0.9063 4.49274,-1.71684 -0.5301,1.653 -1.65072,3.03924 -3.1122,3.91362 1.43298,-0.171 2.79642,-0.55176 4.0641,-1.11378 -0.9462,1.42158 -2.14662,2.6676 -3.52944,3.6651 z"
     id="path2"
     inkscape:connector-curvature="0"
     style="stroke-width:1.13999999" /></svg>