<?xml version="1.0" encoding="UTF-8" standalone="no"?>
<!-- Created with Inkscape (http://www.inkscape.org/) -->

<svg
   xmlns:dc="http://purl.org/dc/elements/1.1/"
   xmlns:cc="http://creativecommons.org/ns#"
   xmlns:rdf="http://www.w3.org/1999/02/22-rdf-syntax-ns#"
   xmlns:svg="http://www.w3.org/2000/svg"
   xmlns="http://www.w3.org/2000/svg"
   xmlns:sodipodi="http://sodipodi.sourceforge.net/DTD/sodipodi-0.dtd"
   xmlns:inkscape="http://www.inkscape.org/namespaces/inkscape"
   version="1.0"
   width="881.47827"
   height="881.67249"
   id="svg11382"
   sodipodi:docname="wp.svg"
   inkscape:version="0.92.4 5da689c313, 2019-01-14">
  <metadata
     id="metadata10">
    <rdf:RDF>
      <cc:Work
         rdf:about="">
        <dc:format>image/svg+xml</dc:format>
        <dc:type
           rdf:resource="http://purl.org/dc/dcmitype/StillImage" />
        <dc:title />
      </cc:Work>
    </rdf:RDF>
  </metadata>
  <sodipodi:namedview
     pagecolor="#ffffff"
     bordercolor="#666666"
     borderopacity="1"
     objecttolerance="10"
     gridtolerance="10"
     guidetolerance="10"
     inkscape:pageopacity="0"
     inkscape:pageshadow="2"
     inkscape:window-width="960"
     inkscape:window-height="1180"
     id="namedview8"
     showgrid="false"
     inkscape:zoom="0.26767309"
     inkscape:cx="362.15454"
     inkscape:cy="440.83624"
     inkscape:window-x="0"
     inkscape:window-y="20"
     inkscape:window-maximized="0"
     inkscape:current-layer="svg11382" />
  <defs
     id="defs11384" />
  <g
     transform="matrix(0.77457422,0,0,0.80508808,126.49714,48.613775)"
     id="layer1">
    <g
       id="g11476">
      <path
         d="M 474.50888,718.22841 H 303.49547 v -22.30134 c -2.4e-4,-37.95108 4.30352,-68.76211 12.9113,-92.43319 8.60728,-23.67032 23.63352,-45.28695 40.65324,-64.84996 17.01914,-19.56211 41.98734,-26.33264 101.45793,-75.63085 31.69095,-25.82203 55.2813,-77.1523 55.28175,-98.67174 2.21232,-56.92245 -13.93983,-79.3422 -34.56287,-99.96524 -22.67355,-19.67717 -60.67027,-30.06998 -90.99892,-30.06998 -27.77921,6.9e-4 -68.46735,8.08871 -87.7666,25.37047 -25.93817,17.28308 -65.23747,73.70611 -57.04687,130.54577 l -194.516943,1.70222 c 0,-157.21399 29.393699,-198.69465 99.004113,-263.03032 67.39739,-54.376643 126.53128,-73.268365 243.84757,-73.268365 89.71791,0 161.89728,17.80281 214.32552,53.405855 71.20714,48.12472 122.30105,111.18354 122.30105,230.11281 -6.9e-4,44.32081 -19.15253,90.78638 -43.0726,128.33299 -18.38947,30.90938 -60.37511,66.45236 -118.21237,104.41628 -42.83607,25.7686 -66.67196,53.11926 -77.03964,72.0946 -10.36863,18.97603 -15.55271,43.72267 -15.55225,74.23999 z"
         style="font-style:normal;font-weight:normal;font-size:1201.92492676px;font-family:'Bitstream Vera Sans';text-align:center;text-anchor:middle;fill:#000000;fill-opacity:1;stroke:none;stroke-width:1px;stroke-linecap:butt;stroke-linejoin:miter;stroke-opacity:1"
         id="path11472"
         inkscape:connector-curvature="0" />
      <path
         d="m 482.38298,869.80902 a 94.042557,73.021278 0 1 1 -188.08511,0 94.042557,73.021278 0 1 1 188.08511,0 z"
         transform="translate(1.106383,-5.5319149)"
         style="fill:#000000;fill-opacity:1;stroke:none;stroke-width:3;stroke-linecap:square;stroke-linejoin:miter;stroke-miterlimit:4;stroke-dasharray:none;stroke-dashoffset:0;stroke-opacity:1"
         id="path11474"
         inkscape:connector-curvature="0" />
    </g>
  </g>
  <path
     style="fill:#e6e6e6;stroke-width:2.95018005"
     d="m 363.91347,598.2448 c 0.10131,-62.34617 20.08282,-102.50743 67.95992,-136.59417 27.96561,-19.91048 53.84347,-41.51515 64.25513,-53.64468 3.54986,-4.13564 11.37956,-16.99367 17.3993,-28.57343 10.51148,-20.22014 10.94077,-22.18591 10.8382,-49.62752 -0.0935,-24.98703 -1.07769,-30.51305 -7.84206,-44.02669 -9.61702,-19.21256 -25.92579,-33.99915 -46.05518,-41.75664 -20.97824,-8.0846 -66.81326,-8.3101 -88.54565,-0.43562 -20.71207,7.50476 -43.50188,29.6884 -55.14851,53.68167 -9.79083,20.17019 -16.51485,49.87853 -13.51369,59.70688 1.76416,5.77738 0.0699,5.91541 -72.60828,5.91541 h -74.41458 l 1.69596,-41.35628 c 1.86335,-45.43855 7.4298,-72.24641 21.07797,-101.51084 11.02272,-23.63494 58.89909,-74.35081 85.01122,-90.05313 44.19538,-26.57657 95.59992,-36.759727 170.74388,-33.824116 88.75223,3.467222 140.5392,24.245656 190.20386,76.315276 35.93376,37.67382 52.84369,83.1605 52.94749,142.42544 0.062,35.46767 -4.94039,56.16346 -21.75465,90.00153 -18.21161,36.65008 -42.56214,61.43641 -100.08777,101.87902 -50.5373,35.52958 -68.33053,60.18406 -71.31379,98.81313 l -1.46597,18.98238 H 428.58348 363.8707 Z"
     id="path3734"
     inkscape:connector-curvature="0" />
  <path
     style="fill:#999999;stroke-width:2.95018005"
     d="m 401.40061,797.59151 c -15.85393,-5.3129 -35.3901,-22.04276 -40.38939,-34.58759 -5.21714,-13.09142 -2.38129,-36.13045 5.87613,-47.73919 10.74048,-15.09955 37.52627,-27.54001 59.29696,-27.54001 70.88218,0 99.8422,70.6757 42.29883,103.22853 -18.41907,10.41983 -47.27677,13.27548 -67.08253,6.63826 z"
     id="path3736"
     inkscape:connector-curvature="0" />
  <path
     style="fill:#e6e6e6;stroke-width:2.95018005"
     d="m 365.36101,593.7332 c 4.86533,-70.93182 17.02088,-91.69098 84.28138,-143.93486 43.11293,-33.48758 52.00811,-43.35756 66.63916,-73.94212 10.07388,-21.05826 10.3109,-22.35368 9.0798,-49.62753 -1.44415,-31.99404 -6.56288,-45.1887 -24.51663,-63.19724 -19.84822,-19.9088 -34.93528,-24.94241 -74.75879,-24.94241 -30.07777,0 -36.66104,0.92357 -49.19344,6.90139 -15.98005,7.62232 -35.97275,26.20878 -46.49171,43.22155 -9.30819,15.05457 -18.61728,44.82824 -18.61728,59.54451 v 12.12578 l -18.08582,0.29983 c -13.49676,0.22373 -16.25021,0.91495 -10.85148,2.72414 3.97887,1.3334 -20.11144,1.68727 -53.53405,0.78639 -33.4226,-0.90087 -61.14678,-1.95611 -61.60928,-2.34496 -0.46248,-0.38885 0.51649,-20.1647 2.17551,-43.94633 5.30858,-76.09674 14.95294,-99.40267 60.89481,-147.15441 25.99312,-27.0171 34.93164,-34.23302 55.28485,-44.63063 43.64495,-22.29641 60.84808,-25.52367 137.13416,-25.726024 71.80859,-0.190469 90.93639,2.392894 129.53907,17.495304 49.87946,19.51419 99.13379,66.22232 117.95886,111.86099 9.90671,24.01745 14.69833,51.23743 14.73178,83.68796 0.0397,38.34398 -3.34535,54.09592 -18.49074,86.04823 -16.0485,33.85764 -42.8422,62.80922 -91.94354,99.34844 -58.87725,43.81404 -80.77094,72.2085 -80.93849,104.97108 -0.0232,4.24896 -0.82471,10.77069 -1.7844,14.49276 -1.7424,6.75791 -1.83407,6.76738 -65.38159,6.76738 H 363.2464 Z"
     id="path3743"
     inkscape:connector-curvature="0" />
  <path
     style="fill:#e6e6e6;stroke-width:2.95018005"
     d="m 394.23381,791.93859 c -7.96934,-3.85734 -18.71233,-12.01208 -23.87329,-18.12165 -8.15598,-9.6551 -9.38357,-13.27828 -9.38357,-27.69552 0,-9.12297 1.93363,-20.47373 4.29695,-25.22392 13.36268,-26.85857 62.82698,-39.13548 96.68415,-23.99674 36.37643,16.26519 46.19804,54.40328 20.80685,80.79473 -20.75542,21.57308 -60.25727,27.92824 -88.53109,14.2431 z"
     id="path3745"
     inkscape:connector-curvature="0" />
  <path
     style="fill:#b3b3b3;stroke-width:3.7359004"
     d="m 365.9488,597.18368 c 0.11267,-48.68499 14.3471,-85.81016 43.53171,-113.53622 7.87401,-7.4805 29.17201,-25.42354 47.32889,-39.87344 49.29838,-39.23343 69.61923,-70.81828 69.68826,-108.31699 0.062,-33.66397 -6.82367,-52.77547 -25.83347,-71.70242 -20.24535,-20.15711 -35.65297,-25.37053 -76.63848,-25.93192 -24.85407,-0.34043 -32.86588,1.16304 -49.45902,9.28131 -32.89031,16.09173 -56.24732,51.66167 -62.85419,95.71944 l -2.61177,17.41658 -20.95255,1.25795 c -11.5239,0.69188 -43.52542,0.66722 -71.11448,-0.0548 l -50.16193,-1.31277 2.58937,-37.59577 c 5.53759,-80.40202 17.10702,-107.98772 65.40863,-155.95793 52.78629,-52.42411 95.12919,-67.741257 187.07901,-67.674067 105.09067,0.07679 156.07116,18.007557 208.61014,73.372017 29.73724,31.33649 44.30385,59.64812 51.69858,100.48133 10.32047,56.98905 0.77206,103.79195 -31.02897,152.09321 -16.75005,25.44093 -33.63789,41.34497 -85.49503,80.51446 -50.8195,38.38574 -68.16712,61.80338 -71.79048,96.91027 l -2.0773,20.12709 h -62.98764 -62.98764 l 0.0583,-25.21733 z"
     id="path24"
     inkscape:connector-curvature="0" />
  <path
     style="fill:#b3b3b3;stroke-width:3.7359004"
     d="m 397.49104,791.17525 c -20.95037,-9.80667 -35.3365,-27.83288 -35.3365,-44.27759 0,-35.74584 26.39876,-55.39922 71.02605,-52.87755 27.60114,1.5596 39.28935,7.38936 53.81087,26.83935 10.16576,13.61593 9.89605,34.89996 -0.62957,49.68183 -16.99337,23.86499 -60.42541,33.949 -88.87085,20.63396 z"
     id="path26"
     inkscape:connector-curvature="0" />
  <path
     style="fill:#ffffff;stroke-width:3.7359004"
     d="m 403.24944,622.60368 c -36.38827,-1.92078 -39.17141,-2.61132 -38.45943,-9.54243 0.42214,-4.10949 1.50538,-17.85214 2.4072,-30.53922 0.90182,-12.68709 2.46017,-24.45517 3.46302,-26.15131 2.57808,-4.36035 8.00395,-28.67348 7.1496,-32.0371 -0.39143,-1.54106 1.06868,-2.80192 3.24469,-2.80192 2.17601,0 2.91737,-1.68116 1.64747,-3.7359 -1.2699,-2.05475 -0.88831,-3.7359 0.84799,-3.7359 1.73629,0 8.27294,-6.65656 14.52589,-14.79238 6.25294,-8.13578 23.30338,-24.78803 37.88985,-37.00499 14.58648,-12.21692 25.52098,-23.21249 24.2989,-24.43457 -1.22208,-1.22208 -0.41492,-2.22197 1.79371,-2.22197 3.92111,0 38.32452,-31.56196 38.32452,-35.15921 0,-0.99816 3.91834,-6.0428 8.70743,-11.21031 4.78909,-5.16751 10.67313,-15.95639 13.07565,-23.97529 5.67096,-18.92796 5.60375,-54.92166 -0.12197,-65.32718 -2.46962,-4.4881 -4.85065,-10.31649 -5.29119,-12.95199 -1.2878,-7.70425 -37.91199,-42.88766 -42.00848,-40.35588 -2.05279,1.26869 -4.80526,0.57072 -6.11659,-1.55106 -1.31133,-2.12178 -3.94923,-2.89056 -5.86199,-1.70841 -1.91277,1.18216 -3.47776,0.57187 -3.47776,-1.35618 0,-1.94132 -15.00318,-3.40002 -33.62311,-3.26905 -18.4927,0.13008 -33.6231,1.70757 -33.6231,3.50555 0,1.79798 -1.56499,2.30184 -3.47776,1.11968 -1.91276,-1.18215 -4.55066,-0.41337 -5.86199,1.70841 -1.31133,2.12178 -3.75874,3.00829 -5.43869,1.97002 -1.67995,-1.03826 -5.13195,0.61547 -7.6711,3.67496 -2.53915,3.0595 -6.42025,5.56272 -8.62465,5.56272 -5.78758,0 -24.96431,19.19055 -24.96431,24.98231 0,2.69769 -1.36979,4.90489 -3.04397,4.90489 -4.40736,0 -16.15589,26.02284 -13.60902,30.14378 1.18269,1.91363 0.47446,3.47933 -1.57385,3.47933 -2.04831,0 -3.7782,2.94202 -3.8442,6.53782 -0.25374,13.82485 -5.19841,31.47973 -9.2177,32.91169 -8.64121,3.07863 -125.72058,3.75356 -131.07759,0.75563 -4.48656,-2.51081 -5.1839,-8.76582 -3.56055,-31.93746 3.12633,-44.62479 4.26178,-54.4689 7.07348,-61.32536 1.43422,-3.49741 1.51891,-8.12059 0.1882,-10.27373 -1.33072,-2.15314 -0.8351,-3.9148 1.10138,-3.9148 5.14874,0 7.77321,-18.11697 2.91495,-20.12218 -2.2698,-0.93684 -1.18488,-1.83607 2.41093,-1.99828 3.5958,-0.16222 6.53782,-1.7415 6.53782,-3.50951 0,-1.76801 4.15222,-9.33321 9.22716,-16.81155 5.07494,-7.47834 8.46177,-13.59699 7.52628,-13.59699 -0.93549,0 13.24042,-13.97801 31.50202,-31.06225 31.49366,-29.4632 72.11791,-54.86345 87.74663,-54.86345 3.40814,0 7.2184,-2.66269 8.46723,-5.91709 1.69135,-4.4076 2.99484,-4.745247 5.10955,-1.32357 1.76537,2.85643 5.45391,3.49238 9.75383,1.6817 3.80318,-1.6015 12.98731,-2.57524 20.40917,-2.16386 8.3573,0.46323 15.82375,-1.58148 19.61348,-5.371212 3.38714,-3.387144 6.11917,-4.245293 6.11917,-1.922073 0,2.769732 9.84655,4.097318 28.95323,3.903696 38.43716,-0.389512 83.92361,5.558839 114.33409,14.951679 13.60895,4.20337 25.83551,7.43725 27.17012,7.18638 1.33461,-0.25087 3.45507,0.95306 4.71221,2.6754 1.25709,1.72233 9.26409,7.86327 17.79334,13.64652 22.67042,15.37163 62.40127,57.86451 72.23595,77.25764 4.68904,9.24635 9.56054,17.65213 10.82556,18.6795 1.26505,1.02737 2.75242,6.07084 3.30526,11.2077 0.55288,5.13686 3.584,11.2714 6.73587,13.6323 3.15183,2.3609 4.30076,4.88263 2.55318,5.60385 -1.74757,0.72122 -2.257,19.52756 -1.13197,41.79187 1.12499,22.26431 1.23337,41.28889 0.24096,42.27683 -0.99251,0.98794 -3.86471,8.77353 -6.38263,17.3013 -3.57541,12.10911 -3.58931,16.13347 -0.0635,18.37434 3.25651,2.06965 2.95296,2.88773 -1.08913,2.93539 -3.08212,0.0362 -10.50177,9.43955 -16.4881,20.89601 -11.68122,22.35509 -49.73888,68.03746 -57.08411,68.52066 -2.45191,0.16139 -6.65479,3.4296 -9.33975,7.26289 -2.68492,3.8333 -6.56285,6.96395 -8.6176,6.957 -2.05475,-0.007 -5.43021,3.29674 -7.50102,7.34156 -2.07081,4.04483 -5.66945,6.71947 -7.99695,5.94363 -2.32747,-0.77583 -7.93035,3.29137 -12.45079,9.03819 -4.52047,5.74683 -8.48703,9.93242 -8.81463,9.30135 -0.32764,-0.63107 -9.41611,7.35442 -20.1967,17.74553 -10.78059,10.3911 -18.6516,18.89293 -17.49113,18.89293 1.16047,0 -1.48131,5.04347 -5.87064,11.2077 -4.38932,6.16424 -6.6893,11.2077 -5.11106,11.2077 1.57824,0 0.95856,1.91095 -1.37706,4.2466 -2.6249,2.62488 -3.5066,11.5415 -2.30885,23.34938 1.12464,11.08718 0.59214,17.22601 -1.26908,14.63012 -2.11023,-2.94326 -5.08934,-3.28218 -8.71205,-0.99121 -5.67563,3.58927 -15.14596,3.59648 -82.09121,0.0628 z"
     id="path31"
     inkscape:connector-curvature="0" />
  <path
     style="fill:#ffffff;stroke-width:3.7359004"
     d="m 425.47976,794.25242 c -32.5155,-2.48227 -47.40124,-12.19763 -62.5006,-40.79177 -3.27677,-6.20531 -3.57039,-10.25943 -0.93398,-12.89584 2.11489,-2.11489 3.84526,-6.54472 3.84526,-9.84406 0,-7.56404 14.97605,-27.42941 22.4154,-29.73348 3.08212,-0.95458 19.05309,-2.3631 35.49105,-3.13005 34.9352,-1.62998 49.65764,4.15346 62.18915,24.42986 14.18057,22.94465 5.1724,50.08583 -21.08542,63.52935 -6.16909,3.15846 -12.0571,6.76894 -13.08447,8.02329 -1.02738,1.25436 -12.87875,1.44007 -26.33639,0.4127 z"
     id="path33"
     inkscape:connector-curvature="0" />
</svg>
