<?xml version="1.0" encoding="UTF-8" standalone="no"?>
<!-- Created with Inkscape (http://www.inkscape.org/) -->

<svg
   xmlns:dc="http://purl.org/dc/elements/1.1/"
   xmlns:cc="http://creativecommons.org/ns#"
   xmlns:rdf="http://www.w3.org/1999/02/22-rdf-syntax-ns#"
   xmlns:svg="http://www.w3.org/2000/svg"
   xmlns="http://www.w3.org/2000/svg"
   xmlns:sodipodi="http://sodipodi.sourceforge.net/DTD/sodipodi-0.dtd"
   xmlns:inkscape="http://www.inkscape.org/namespaces/inkscape"
   version="1.0"
   width="881.47827"
   height="881.67249"
   id="svg11382"
   sodipodi:docname="wp.svg"
   inkscape:version="0.92.4 5da689c313, 2019-01-14">
  <metadata
     id="metadata10">
    <rdf:RDF>
      <cc:Work
         rdf:about="">
        <dc:format>image/svg+xml</dc:format>
        <dc:type
           rdf:resource="http://purl.org/dc/dcmitype/StillImage" />
        <dc:title></dc:title>
      </cc:Work>
    </rdf:RDF>
  </metadata>
  <sodipodi:namedview
     pagecolor="#ffffff"
     bordercolor="#666666"
     borderopacity="1"
     objecttolerance="10"
     gridtolerance="10"
     guidetolerance="10"
     inkscape:pageopacity="0"
     inkscape:pageshadow="2"
     inkscape:window-width="960"
     inkscape:window-height="1180"
     id="namedview8"
     showgrid="false"
     inkscape:zoom="0.26767309"
     inkscape:cx="347.21094"
     inkscape:cy="440.83624"
     inkscape:window-x="0"
     inkscape:window-y="20"
     inkscape:window-maximized="0"
     inkscape:current-layer="svg11382" />
  <defs
     id="defs11384" />
  <g
     transform="matrix(0.77457422,0,0,0.80508808,126.49714,48.613775)"
     id="layer1">
    <g
       id="g11476">
      <path
         d="M 474.50888,718.22841 H 303.49547 v -22.30134 c -2.4e-4,-37.95108 4.30352,-68.76211 12.9113,-92.43319 8.60728,-23.67032 23.63352,-45.28695 40.65324,-64.84996 17.01914,-19.56211 41.98734,-26.33264 101.45793,-75.63085 31.69095,-25.82203 55.2813,-77.1523 55.28175,-98.67174 2.21232,-56.92245 -13.93983,-79.3422 -34.56287,-99.96524 -22.67355,-19.67717 -60.67027,-30.06998 -90.99892,-30.06998 -27.77921,6.9e-4 -68.46735,8.08871 -87.7666,25.37047 -25.93817,17.28308 -65.23747,73.70611 -57.04687,130.54577 l -194.516943,1.70222 c 0,-157.21399 29.393699,-198.69465 99.004113,-263.03032 67.39739,-54.376643 126.53128,-73.268365 243.84757,-73.268365 89.71791,0 161.89728,17.80281 214.32552,53.405855 71.20714,48.12472 122.30105,111.18354 122.30105,230.11281 -6.9e-4,44.32081 -19.15253,90.78638 -43.0726,128.33299 -18.38947,30.90938 -60.37511,66.45236 -118.21237,104.41628 -42.83607,25.7686 -66.67196,53.11926 -77.03964,72.0946 -10.36863,18.97603 -15.55271,43.72267 -15.55225,74.23999 z"
         style="font-style:normal;font-weight:normal;font-size:1201.92492676px;font-family:'Bitstream Vera Sans';text-align:center;text-anchor:middle;fill:#000000;fill-opacity:1;stroke:none;stroke-width:1px;stroke-linecap:butt;stroke-linejoin:miter;stroke-opacity:1"
         id="path11472"
         inkscape:connector-curvature="0" />
      <path
         d="m 482.38298,869.80902 a 94.042557,73.021278 0 1 1 -188.08511,0 94.042557,73.021278 0 1 1 188.08511,0 z"
         transform="translate(1.106383,-5.5319149)"
         style="fill:#000000;fill-opacity:1;stroke:none;stroke-width:3;stroke-linecap:square;stroke-linejoin:miter;stroke-miterlimit:4;stroke-dasharray:none;stroke-dashoffset:0;stroke-opacity:1"
         id="path11474"
         inkscape:connector-curvature="0" />
    </g>
  </g>
  <path
     style="fill:#e6e6e6;stroke-width:2.95018005"
     d="m 363.91347,598.2448 c 0.10131,-62.34617 20.08282,-102.50743 67.95992,-136.59417 27.96561,-19.91048 53.84347,-41.51515 64.25513,-53.64468 3.54986,-4.13564 11.37956,-16.99367 17.3993,-28.57343 10.51148,-20.22014 10.94077,-22.18591 10.8382,-49.62752 -0.0935,-24.98703 -1.07769,-30.51305 -7.84206,-44.02669 -9.61702,-19.21256 -25.92579,-33.99915 -46.05518,-41.75664 -20.97824,-8.0846 -66.81326,-8.3101 -88.54565,-0.43562 -20.71207,7.50476 -43.50188,29.6884 -55.14851,53.68167 -9.79083,20.17019 -16.51485,49.87853 -13.51369,59.70688 1.76416,5.77738 0.0699,5.91541 -72.60828,5.91541 h -74.41458 l 1.69596,-41.35628 c 1.86335,-45.43855 7.4298,-72.24641 21.07797,-101.51084 11.02272,-23.63494 58.89909,-74.35081 85.01122,-90.05313 44.19538,-26.57657 95.59992,-36.759727 170.74388,-33.824116 88.75223,3.467222 140.5392,24.245656 190.20386,76.315276 35.93376,37.67382 52.84369,83.1605 52.94749,142.42544 0.062,35.46767 -4.94039,56.16346 -21.75465,90.00153 -18.21161,36.65008 -42.56214,61.43641 -100.08777,101.87902 -50.5373,35.52958 -68.33053,60.18406 -71.31379,98.81313 l -1.46597,18.98238 H 428.58348 363.8707 Z"
     id="path3734"
     inkscape:connector-curvature="0" />
  <path
     style="fill:#999999;stroke-width:2.95018005"
     d="m 401.40061,797.59151 c -15.85393,-5.3129 -35.3901,-22.04276 -40.38939,-34.58759 -5.21714,-13.09142 -2.38129,-36.13045 5.87613,-47.73919 10.74048,-15.09955 37.52627,-27.54001 59.29696,-27.54001 70.88218,0 99.8422,70.6757 42.29883,103.22853 -18.41907,10.41983 -47.27677,13.27548 -67.08253,6.63826 z"
     id="path3736"
     inkscape:connector-curvature="0" />
  <path
     style="fill:#e6e6e6;stroke-width:2.95018005"
     d="m 365.36101,593.7332 c 4.86533,-70.93182 17.02088,-91.69098 84.28138,-143.93486 43.11293,-33.48758 52.00811,-43.35756 66.63916,-73.94212 10.07388,-21.05826 10.3109,-22.35368 9.0798,-49.62753 -1.44415,-31.99404 -6.56288,-45.1887 -24.51663,-63.19724 -19.84822,-19.9088 -34.93528,-24.94241 -74.75879,-24.94241 -30.07777,0 -36.66104,0.92357 -49.19344,6.90139 -15.98005,7.62232 -35.97275,26.20878 -46.49171,43.22155 -9.30819,15.05457 -18.61728,44.82824 -18.61728,59.54451 v 12.12578 l -18.08582,0.29983 c -13.49676,0.22373 -16.25021,0.91495 -10.85148,2.72414 3.97887,1.3334 -20.11144,1.68727 -53.53405,0.78639 -33.4226,-0.90087 -61.14678,-1.95611 -61.60928,-2.34496 -0.46248,-0.38885 0.51649,-20.1647 2.17551,-43.94633 5.30858,-76.09674 14.95294,-99.40267 60.89481,-147.15441 25.99312,-27.0171 34.93164,-34.23302 55.28485,-44.63063 43.64495,-22.29641 60.84808,-25.52367 137.13416,-25.726024 71.80859,-0.190469 90.93639,2.392894 129.53907,17.495304 49.87946,19.51419 99.13379,66.22232 117.95886,111.86099 9.90671,24.01745 14.69833,51.23743 14.73178,83.68796 0.0397,38.34398 -3.34535,54.09592 -18.49074,86.04823 -16.0485,33.85764 -42.8422,62.80922 -91.94354,99.34844 -58.87725,43.81404 -80.77094,72.2085 -80.93849,104.97108 -0.0232,4.24896 -0.82471,10.77069 -1.7844,14.49276 -1.7424,6.75791 -1.83407,6.76738 -65.38159,6.76738 H 363.2464 Z"
     id="path3743"
     inkscape:connector-curvature="0" />
  <path
     style="fill:#e6e6e6;stroke-width:2.95018005"
     d="m 394.23381,791.93859 c -7.96934,-3.85734 -18.71233,-12.01208 -23.87329,-18.12165 -8.15598,-9.6551 -9.38357,-13.27828 -9.38357,-27.69552 0,-9.12297 1.93363,-20.47373 4.29695,-25.22392 13.36268,-26.85857 62.82698,-39.13548 96.68415,-23.99674 36.37643,16.26519 46.19804,54.40328 20.80685,80.79473 -20.75542,21.57308 -60.25727,27.92824 -88.53109,14.2431 z"
     id="path3745"
     inkscape:connector-curvature="0" />
</svg>
