<?xml version="1.0" encoding="UTF-8" standalone="no"?>
<svg
   xmlns:dc="http://purl.org/dc/elements/1.1/"
   xmlns:cc="http://creativecommons.org/ns#"
   xmlns:rdf="http://www.w3.org/1999/02/22-rdf-syntax-ns#"
   xmlns:svg="http://www.w3.org/2000/svg"
   xmlns="http://www.w3.org/2000/svg"
   xmlns:sodipodi="http://sodipodi.sourceforge.net/DTD/sodipodi-0.dtd"
   xmlns:inkscape="http://www.inkscape.org/namespaces/inkscape"
   width="177.17"
   height="177.17"
   shape-rendering="geometricPrecision"
   image-rendering="optimizeQuality"
   fill-rule="evenodd"
   clip-rule="evenodd"
   viewBox="0 0 50 50"
   version="1.1"
   id="svg11969"
   sodipodi:docname="bd.svg"
   inkscape:version="0.92.5 (2060ec1f9f, 2020-04-08)">
  <metadata
     id="metadata11973">
    <rdf:RDF>
      <cc:Work
         rdf:about="">
        <dc:format>image/svg+xml</dc:format>
        <dc:type
           rdf:resource="http://purl.org/dc/dcmitype/StillImage" />
        <dc:title />
      </cc:Work>
    </rdf:RDF>
  </metadata>
  <sodipodi:namedview
     pagecolor="#ffffff"
     bordercolor="#666666"
     borderopacity="1"
     objecttolerance="10"
     gridtolerance="10"
     guidetolerance="10"
     inkscape:pageopacity="0"
     inkscape:pageshadow="2"
     inkscape:window-width="1920"
     inkscape:window-height="1060"
     id="namedview11971"
     showgrid="false"
     inkscape:zoom="2.6641079"
     inkscape:cx="-94.840858"
     inkscape:cy="70.772774"
     inkscape:window-x="0"
     inkscape:window-y="20"
     inkscape:window-maximized="0"
     inkscape:current-layer="svg11969" />
  <defs
     id="defs11963">
    <linearGradient
       id="0"
       x1="21.09"
       y1="37.1"
       x2="77.67"
       y2="37.469"
       gradientUnits="userSpaceOnUse"
       gradientTransform="matrix(1.03,0,0,1.03,-0.32636118,-2.0589171)">
      <stop
         stop-color="#fff"
         id="stop11958" />
      <stop
         offset="1"
         stop-color="#fff"
         stop-opacity="0"
         id="stop11960" />
    </linearGradient>
  </defs>
  <path
     d="m 25.423639,41.365883 c -0.23587,0.9682 -0.53251,1.63976 -0.87241,2.01468 -0.3399,0.37492 -0.78486,0.76735 -1.35136,1.17729 -0.61079,0.42745 -1.33385,0.78486 -2.17124,1.0815 -0.83739,0.29664 -1.7613,0.37492 -2.78203,0.21836 l -7.17704,-0.99395 c -0.29664,-0.03502 -0.54899,-0.03502 -0.78486,0 -0.2266,0.03502 -0.4449602,0.05253 -0.6540502,0.05253 -0.35741,0 -0.81061,0.07828 -1.36063,0.24411 -0.55826,0.15656 -0.98571,0.39243 -1.29059,0.69731 l -2.47612,-4.06438 c 0.30488,-0.3399 0.57577,-0.57577 0.81061,-0.71482 0.24411,-0.13081 0.52324,-0.27913 0.84563,-0.42745 0.98571,-0.46247 2.04043,-0.7416 3.16519,-0.84563 0.47998,-0.03502 0.9506902,-0.04326 1.4038902,-0.02575 0.46247,0.01751 0.94142,0 1.43891,-0.05253 0.91567,0.15656 1.83958,0.29664 2.76452,0.41818 0.93318,0.13081 1.86636,0.26162 2.79954,0.4017 1.02073,0 1.7098,-0.10506 2.0703,-0.30488 0.19158,-0.10506 0.48822,-0.29664 0.89816,-0.5665 0.40994,-0.26986 0.81988,-0.67156 1.22982,-1.20304 -0.90743,-0.09579 -1.8231,-0.26986 -2.76452,-0.52324 -0.93318,-0.24411 -1.7613,-0.50573 -2.47612,-0.77662 l 2.65946,-6.59303 c -1.33385,-0.76735 -2.25879,-1.37814 -2.79027,-1.84885 -0.52324,-0.47071 -0.94142,-1.01146 -1.24733,-1.62225 -0.44496,-0.78486 -0.73233,-1.54397 -0.8549,-2.2763 -0.13081,-0.73233 -0.18334,-1.38638 -0.16583,-1.97039 0.01751,-1.02073 0.25235,-2.14549 0.72409,-3.38355 0.47071,-1.22982 1.35136,-2.33707 2.64195,-3.30527 1.07223,-0.81988 2.12798,-1.66551 3.14871,-2.52865 1.02073,-0.87241 2.03219,-1.88387 3.03438,-3.04365 -1.25557,-0.6458105 -1.88387,-1.6747805 -1.88387,-3.0869101 0,-0.95893 0.33166,-1.77057 1.00322,-2.45964 0.67156,-0.6798 1.49968,-1.02073 2.46788,-1.02073 0.95069,0 1.77057,0.3399 2.45037,1.02073 0.6798,0.68907 1.02073,1.49968 1.02073,2.45964 0,1.3956496 -0.6283,2.4246196 -1.88387,3.0869101 0.98571,1.15978 1.9879,2.17124 3.00039,3.04365 1.01146,0.86314 2.0806,1.70877 3.1827,2.52865 1.27308,0.9682 2.14549,2.0703 2.59869,3.30527 0.46247,1.23806 0.71482,2.36385 0.7416,3.38355 0,0.58401 -0.05253,1.23806 -0.17407,1.97039 -0.12154,0.73233 -0.39243,1.49144 -0.81988,2.2763 -0.3399,0.61079 -0.76735,1.15154 -1.29059,1.62225 -0.515,0.47071 -1.43067,1.0815 -2.74701,1.84885 l 2.65946,6.59303 c -0.74984,0.27089 -1.59547,0.53251 -2.52865,0.77662 -0.94142,0.25338 -1.84061,0.42745 -2.71199,0.52324 0.39243,0.53251 0.79413,0.93318 1.20304,1.20304 0.40994,0.27089 0.71482,0.46247 0.92391,0.5665 0.35741,0.20085 1.04648,0.30488 2.0703,0.30488 0.91567,-0.14008 1.84061,-0.27089 2.77276,-0.4017 0.92494,-0.12154 1.85709,-0.26162 2.79954,-0.41818 0.4532,0.05253 0.91567,0.07004 1.38638,0.05253 0.47071,-0.01751 0.95069,-0.0082 1.44818,0.02575 1.08974,0.10506 2.14549,0.38419 3.16519,0.84563 0.30488,0.14832 0.58401,0.29664 0.82812,0.42745 0.25235,0.13905 0.52324,0.37492 0.82812,0.71482 l -2.5029,4.06438 c -0.30488,-0.30488 -0.73233,-0.54075 -1.29059,-0.69731 -0.54899,-0.16583 -0.99395,-0.24411 -1.33385,-0.24411 -0.2266,0 -0.4532,-0.01751 -0.6798,-0.05253 -0.2266,-0.03502 -0.48822,-0.03502 -0.77662,0 l -7.15953,0.99395 c -1.02073,0.15656 -1.97039,0.08755 -2.8428,-0.20085 -0.88065,-0.28737 -1.60474,-0.67156 -2.163,-1.15154 -0.55826,-0.46247 -1.01146,-0.8549 -1.34312,-1.18553 -0.33166,-0.33166 -0.61079,-0.98571 -0.82812,-1.95391"
     id="path11965"
     inkscape:connector-curvature="0"
     style="fill:#1f1a17;stroke-width:1.02999997" />
  <path
     d="m 24.486339,22.357233 v 2.17124 c 0,0.6283 0.31415,0.94142 0.94142,0.94142 0.6283,0 0.94142,-0.31415 0.94142,-0.94142 v -2.19802 h 2.30205 c 0.59328,0 0.89816,-0.30488 0.89816,-0.92391 0,-0.61079 -0.30488,-0.91567 -0.89816,-0.91567 h -2.30205 v -2.30205 c 0,-0.6283 -0.31415,-0.94142 -0.94142,-0.94142 -0.6283,0 -0.94142,0.31415 -0.94142,0.94142 v 2.30205 h -2.24952 c -0.60152,0 -0.89816,0.30488 -0.89816,0.91567 0,0.61903 0.29664,0.92391 0.89816,0.92391 l 2.24952,0.02575 m 7.7353,14.15323 -1.07223,-2.60693 c -1.73555,-0.37492 -3.64517,-0.55826 -5.72062,-0.55826 -2.05794,0 -3.95005,0.18334 -5.66809,0.55826 l -1.07223,2.58118 c 2.11047,-0.53148 4.35999,-0.7931 6.74135,-0.7931 2.35458,0 4.61337,0.26986 6.79388,0.81988 m -3.03541,4.39501 c -0.6798,-0.51397 -1.36887,-1.32561 -2.0497,-2.43286 h -0.81061 c 0,0.83739 0.19158,1.648 0.58401,2.43286 h 2.2763 m -5.26742,0 c 0.39243,-0.83739 0.59328,-1.648 0.59328,-2.43286 h -0.81988 c -0.66229,1.08974 -1.35136,1.90138 -2.0806,2.43286 h 2.30205"
     id="path11967"
     inkscape:connector-curvature="0"
     style="fill:url(#0);stroke-width:1.02999997"
     sodipodi:nodetypes="cssscssscssscssccccsccsccccccccccc" />
  <circle
     style="opacity:1;fill:#fcfcfc;fill-opacity:1;fill-rule:nonzero;stroke:none;stroke-width:1.4411658;stroke-linecap:round;stroke-linejoin:round;stroke-miterlimit:4;stroke-dasharray:none;stroke-opacity:1;paint-order:normal"
     id="path12545"
     cx="18.035944"
     cy="21.589016"
     r="1.8488168" />
  <circle
     r="1.8488168"
     cy="21.589016"
     cx="32.772079"
     id="circle12547"
     style="opacity:1;fill:#e0e0df;fill-opacity:1;fill-rule:nonzero;stroke:none;stroke-width:1.4411658;stroke-linecap:round;stroke-linejoin:round;stroke-miterlimit:4;stroke-dasharray:none;stroke-opacity:1;paint-order:normal" />
  <circle
     style="opacity:1;fill:#eeeeee;fill-opacity:1;fill-rule:nonzero;stroke:none;stroke-width:1.4411658;stroke-linecap:round;stroke-linejoin:round;stroke-miterlimit:4;stroke-dasharray:none;stroke-opacity:1;paint-order:normal"
     id="circle12549"
     cx="25.456083"
     cy="14.490982"
     r="1.8488168" />
  <circle
     r="1.8488168"
     cy="28.378439"
     cx="25.365435"
     id="circle12551"
     style="opacity:1;fill:#f0f0f0;fill-opacity:1;fill-rule:nonzero;stroke:none;stroke-width:1.4411658;stroke-linecap:round;stroke-linejoin:round;stroke-miterlimit:4;stroke-dasharray:none;stroke-opacity:1;paint-order:normal" />
</svg>
