<?xml version="1.0" encoding="UTF-8" standalone="no"?>
<svg
   xmlns:dc="http://purl.org/dc/elements/1.1/"
   xmlns:cc="http://creativecommons.org/ns#"
   xmlns:rdf="http://www.w3.org/1999/02/22-rdf-syntax-ns#"
   xmlns:svg="http://www.w3.org/2000/svg"
   xmlns="http://www.w3.org/2000/svg"
   xmlns:sodipodi="http://sodipodi.sourceforge.net/DTD/sodipodi-0.dtd"
   xmlns:inkscape="http://www.inkscape.org/namespaces/inkscape"
   width="177.17"
   height="177.17"
   shape-rendering="geometricPrecision"
   image-rendering="optimizeQuality"
   fill-rule="evenodd"
   clip-rule="evenodd"
   viewBox="0 0 50 50"
   version="1.1"
   id="svg17510"
   sodipodi:docname="wd.svg"
   inkscape:version="0.92.5 (2060ec1f9f, 2020-04-08)">
  <metadata
     id="metadata17514">
    <rdf:RDF>
      <cc:Work
         rdf:about="">
        <dc:format>image/svg+xml</dc:format>
        <dc:type
           rdf:resource="http://purl.org/dc/dcmitype/StillImage" />
        <dc:title />
      </cc:Work>
    </rdf:RDF>
  </metadata>
  <sodipodi:namedview
     pagecolor="#ffffff"
     bordercolor="#666666"
     borderopacity="1"
     objecttolerance="10"
     gridtolerance="10"
     guidetolerance="10"
     inkscape:pageopacity="0"
     inkscape:pageshadow="2"
     inkscape:window-width="960"
     inkscape:window-height="1060"
     id="namedview17512"
     showgrid="false"
     inkscape:zoom="2.664108"
     inkscape:cx="112.0096"
     inkscape:cy="77.335161"
     inkscape:window-x="960"
     inkscape:window-y="20"
     inkscape:window-maximized="0"
     inkscape:current-layer="svg17510" />
  <defs
     id="defs17504">
    <linearGradient
       id="0"
       x1="21.13"
       y1="37.592"
       x2="77.64"
       y2="37.469"
       gradientUnits="userSpaceOnUse"
       gradientTransform="matrix(1.05,0,0,1.05,-1.27245,-2.3722098)">
      <stop
         stop-color="#fff"
         id="stop17499" />
      <stop
         offset="1"
         stop-color="#fff"
         stop-opacity="0"
         id="stop17501" />
    </linearGradient>
  </defs>
  <path
     d="m 25.4469,41.73829 c -0.24045,0.987 -0.54285,1.6716 -0.88935,2.0538 -0.3465,0.3822 -0.8001,0.78225 -1.3776,1.20015 -0.62265,0.43575 -1.35975,0.8001 -2.2134,1.1025 -0.85365,0.3024 -1.7955,0.3822 -2.83605,0.2226 l -7.3164,-1.01325 c -0.3024,-0.0357 -0.55965,-0.0357 -0.8001,0 -0.231,0.0357 -0.4536,0.05355 -0.66675,0.05355 -0.36435,0 -0.82635,0.0798 -1.38705,0.24885 -0.5691,0.1596 -1.00485,0.40005 -1.31565,0.71085 L 4.1193,42.17404 c 0.3108,-0.3465 0.58695,-0.58695 0.82635,-0.7287 0.24885,-0.13335 0.5334,-0.28455 0.86205,-0.43575 1.00485,-0.47145 2.08005,-0.756 3.22665,-0.86205 0.4893,-0.0357 0.96915,-0.0441 1.43115,-0.02625 0.47145,0.01785 0.9597,0 1.46685,-0.05355 0.93345,0.1596 1.8753,0.3024 2.8182,0.4263 0.9513,0.13335 1.9026,0.2667 2.8539,0.40845 1.04055,0 1.743,-0.1071 2.1105,-0.3108 0.1953,-0.1071 0.4977,-0.3024 0.9156,-0.5775 0.4179,-0.2751 0.8358,-0.6846 1.2537,-1.2264 -0.92505,-0.09765 -1.8585,-0.2751 -2.8182,-0.5334 -0.9513,-0.24885 -1.7955,-0.51555 -2.5242,-0.7917 l 2.7111,-6.72105 c -1.35975,-0.78225 -2.30265,-1.4049 -2.84445,-1.88475 -0.5334,-0.47985 -0.9597,-1.0311 -1.27155,-1.65375 -0.4536,-0.8001 -0.74655,-1.57395 -0.8715,-2.3205 -0.13335,-0.74655 -0.1869,-1.4133 -0.16905,-2.00865 0.01785,-1.04055 0.25725,-2.18715 0.73815,-3.44925 0.47985,-1.2537 1.3776,-2.38245 2.69325,-3.36945 1.09305,-0.8358 2.1693,-1.69785 3.20985,-2.57775 1.04055,-0.88935 2.07165,-1.92045 3.0933,-3.10275 C 22.551,9.7164404 21.9105,8.6674902 21.9105,7.2279402 c 0,-0.97755 0.3381,-1.80495 1.0227,-2.5074 0.6846,-0.693 1.5288,-1.04055 2.5158,-1.04055 0.96915,0 1.80495,0.3465 2.49795,1.04055 0.693,0.70245 1.04055,1.5288 1.04055,2.5074 0,1.42275 -0.6405,2.4717002 -1.92045,3.1468498 1.00485,1.1823 2.0265,2.2134 3.05865,3.10275 1.0311,0.8799 2.121,1.743 3.2445,2.57775 1.2978,0.987 2.18715,2.121 2.64915,3.36945 0.47145,1.2621 0.7287,2.4087 0.756,3.44925 0,0.59535 -0.05355,1.2621 -0.17745,2.00865 -0.1239,0.74655 -0.40005,1.5204 -0.8358,2.3205 -0.3465,0.62265 -0.78225,1.1739 -1.31565,1.65375 -0.525,0.47985 -1.45845,1.1025 -2.80035,1.88475 l 2.7111,6.72105 c -0.7644,0.27615 -1.62645,0.54285 -2.57775,0.7917 -0.9597,0.2583 -1.87635,0.43575 -2.76465,0.5334 0.40005,0.54285 0.8085,0.9513 1.2264,1.2264 0.4179,0.27615 0.7287,0.47145 0.9429,0.5775 0.36435,0.20475 1.0668,0.3108 2.1105,0.3108 0.93345,-0.1428 1.8753,-0.27615 2.8266,-0.40845 0.9429,-0.1239 1.89315,-0.2667 2.8539,-0.4263 0.462,0.05355 0.93345,0.0714 1.4133,0.05355 0.47985,-0.01785 0.96915,-0.0084 1.47525,0.02625 1.1109,0.1071 2.18715,0.39165 3.22665,0.86205 0.3108,0.1512 0.59535,0.3024 0.8442,0.43575 0.25725,0.14175 0.5334,0.3822 0.8442,0.7287 l -2.5515,4.1433 c -0.3108,-0.3108 -0.74655,-0.55125 -1.31565,-0.71085 -0.55965,-0.16905 -1.01325,-0.24885 -1.35975,-0.24885 -0.231,0 -0.462,-0.01785 -0.693,-0.05355 -0.231,-0.0357 -0.4977,-0.0357 -0.7917,0 l -7.29855,1.01325 c -1.04055,0.1596 -2.00865,0.08925 -2.898,-0.20475 -0.89775,-0.29295 -1.6359,-0.6846 -2.205,-1.1739 -0.5691,-0.47145 -1.0311,-0.8715 -1.3692,-1.20855 -0.3381,-0.3381 -0.62265,-1.00485 -0.8442,-1.99185"
     id="path17506"
     inkscape:connector-curvature="0"
     style="fill:#1f1a17;stroke-width:1.04999995" />
  <path
     d="m 26.36355,38.78779 c 0,1.1466 0.25725,2.1252 0.79065,2.9337 0.525,0.8085 1.09305,1.4406 1.7073,1.88475 0.9513,0.70245 2.34675,1.04895 4.1874,1.04895 0.4536,0 1.34295,-0.09765 2.6586,-0.29295 1.07625,-0.16905 1.9467,-0.29295 2.60505,-0.3738 0.65835,-0.0798 1.1025,-0.14175 1.3335,-0.1953 0.65835,-0.08925 1.35135,-0.0714 2.08005,0.05355 0.2751,0.0714 0.58695,0.13335 0.924,0.1953 0.3381,0.06195 0.62265,0.1953 0.8442,0.40005 l 1.2537,-2.0265 c -0.71085,-0.36435 -1.46685,-0.62265 -2.26695,-0.756 -1.31565,-0.231 -2.4717,-0.27615 -3.4671,-0.1596 -0.29295,0.0357 -0.67515,0.1239 -1.15605,0.25725 -0.47985,0.1428 -1.12035,0.27615 -1.9383,0.39165 -1.7598,0.28455 -2.68485,0.4179 -2.79195,0.4179 -0.6762,0 -1.2621,-0.0798 -1.76925,-0.2583 -0.50715,-0.17745 -0.9513,-0.36435 -1.35135,-0.5691 -0.92505,-0.4179 -1.8585,-1.4049 -2.8182,-2.95155 H 26.3625 m -1.84905,0 h -0.8358 c -0.97755,1.5645 -1.9026,2.5515 -2.79195,2.95155 -0.4179,0.20475 -0.8715,0.39165 -1.3776,0.5691 -0.50715,0.17745 -1.08465,0.2583 -1.743,0.2583 -0.12495,0 -1.04895,-0.13335 -2.79195,-0.4179 -0.82635,-0.1155 -1.4931,-0.24885 -1.974,-0.39165 -0.4893,-0.13335 -0.8715,-0.2226 -1.1466,-0.25725 -0.9954,-0.1155 -2.142,-0.0714 -3.4671,0.1596 -0.8001,0.13335 -1.54665,0.39165 -2.2407,0.756 l 1.2537,2.0265 c 0.20475,-0.20475 0.47985,-0.3381 0.81795,-0.40005 0.3381,-0.06195 0.6489,-0.1239 0.924,-0.1953 0.7287,-0.12495 1.42275,-0.1428 2.08005,-0.05355 0.231,0.05355 0.67515,0.1155 1.3335,0.1953 0.65835,0.0798 1.53825,0.20475 2.6313,0.3738 1.2978,0.1953 2.18715,0.29295 2.6586,0.29295 1.8228,0 3.21825,-0.3465 4.1874,-1.04895 0.59535,-0.44415 1.15605,-1.07625 1.68,-1.88475 0.5334,-0.8085 0.8001,-1.7871 0.8001,-2.9337 m 0.93345,-9.81435 c 1.68,0 3.29805,0.13335 4.8447,0.39165 1.69785,-0.6048 2.9337,-1.5561 3.6981,-2.83605 0.65835,-1.1109 0.987,-2.33835 0.987,-3.67185 0,-0.8001 -0.1953,-1.68 -0.59535,-2.64915 -0.40005,-0.9597 -1.04895,-1.8312 -1.95615,-2.61345 -1.0227,-0.85365 -2.142,-1.7871 -3.36,-2.80035 -1.20855,-1.01325 -2.41815,-2.205 -3.6183,-3.55635 -1.218,1.35135 -2.42655,2.5431 -3.64455,3.55635 -1.218,1.01325 -2.3289,1.9467 -3.33375,2.80035 -0.92505,0.78225 -1.57395,1.65375 -1.96455,2.61345 -0.3906,0.96915 -0.58695,1.84905 -0.58695,2.64915 0,1.3335 0.32025,2.5599 0.9597,3.67185 0.74655,1.27995 1.99185,2.23125 3.7254,2.83605 1.5288,-0.2583 3.14685,-0.39165 4.8447,-0.39165 m 0,4.73865 c 2.03595,0 3.98265,0.20475 5.85795,0.6048 L 30.0585,31.10704 c -1.5288,-0.24045 -3.06705,-0.36435 -4.6137,-0.36435 -1.58235,0 -3.129,0.12495 -4.63155,0.36435 l -1.2537,3.20985 c 1.8585,-0.40005 3.82305,-0.6048 5.88525,-0.6048 m 0,-24.7138494 c 1.1823,0 1.76925,-0.5869504 1.76925,-1.7692504 0,-1.1823 -0.58695,-1.77765 -1.76925,-1.77765 -1.1823,0 -1.76925,0.59535 -1.76925,1.77765 0,1.1823 0.58695,1.7692504 1.76925,1.7692504 m 0,28.3604994 c 1.1823,0 2.3289,-0.09765 3.44925,-0.29295 1.12035,-0.20475 2.205,-0.44415 3.2445,-0.7203 -2.03595,-0.5334 -4.2672,-0.8085 -6.69375,-0.8085 -2.46225,0 -4.6935,0.27615 -6.69375,0.8085 1.00485,0.27615 2.07165,0.51555 3.2004,0.7203 1.12875,0.1953 2.2932,0.29295 3.49335,0.29295 m -0.93345,-15.0507 -2.1693,-0.02625 c -0.58695,0 -0.8799,-0.29295 -0.8799,-0.88935 0,-0.58695 0.29295,-0.8799 0.8799,-0.8799 h 2.1693 v -2.2407 c 0,-0.6048 0.3108,-0.9156 0.93345,-0.9156 0.6048,0 0.9156,0.3108 0.9156,0.9156 v 2.2407 h 2.2407 c 0.5691,0 0.85365,0.29295 0.85365,0.8799 0,0.59535 -0.28455,0.88935 -0.85365,0.88935 h -2.2407 v 2.1336 c 0,0.63105 -0.3108,0.9429 -0.9156,0.9429 -0.62265,0 -0.93345,-0.3108 -0.93345,-0.9429 v -2.1105"
     id="path17508"
     style="fill:url(#0);stroke-width:1.04999995"
     inkscape:connector-curvature="0" />
  <circle
     style="opacity:1;fill:#1f1a17;fill-opacity:1;fill-rule:nonzero;stroke:none;stroke-width:1.46914959;stroke-linecap:round;stroke-linejoin:round;stroke-miterlimit:4;stroke-dasharray:none;stroke-opacity:1;paint-order:normal"
     id="path12545"
     cx="18.716467"
     cy="21.309986"
     r="1.8847162" />
  <circle
     r="1.8847162"
     cy="21.309986"
     cx="32.125919"
     id="circle12547"
     style="opacity:1;fill:#1f1a17;fill-opacity:1;fill-rule:nonzero;stroke:none;stroke-width:1.46914959;stroke-linecap:round;stroke-linejoin:round;stroke-miterlimit:4;stroke-dasharray:none;stroke-opacity:1;paint-order:normal" />
  <circle
     style="opacity:1;fill:#1f1a17;fill-opacity:1;fill-rule:nonzero;stroke:none;stroke-width:1.46914959;stroke-linecap:round;stroke-linejoin:round;stroke-miterlimit:4;stroke-dasharray:none;stroke-opacity:1;paint-order:normal"
     id="circle12549"
     cx="25.409678"
     cy="14.574656"
     r="1.8847162" />
  <circle
     r="1.8847162"
     cy="27.786327"
     cx="25.409678"
     id="circle12551"
     style="opacity:1;fill:#1f1a17;fill-opacity:1;fill-rule:nonzero;stroke:none;stroke-width:1.46914959;stroke-linecap:round;stroke-linejoin:round;stroke-miterlimit:4;stroke-dasharray:none;stroke-opacity:1;paint-order:normal" />
</svg>
