<?xml version="1.0" encoding="UTF-8"?>
<svg xmlns="http://www.w3.org/2000/svg" xmlns:xlink="http://www.w3.org/1999/xlink" width="60px" height="60px" viewBox="0 0 60 60" version="1.1">
    
    <title>20 -Camel- (Outline)</title>
    <desc>Created with Sketch.</desc>
    <defs/>
    <g id="Page-1" stroke="none" stroke-width="1" fill="none" fill-rule="evenodd">
        <g id="Icons" transform="translate(-1195.000000, -491.000000)" fill="#000000">
            <g id="20--Camel--(Outline)" transform="translate(1195.000000, 491.000000)">
                <path d="M23,15.0061 C23,15.5581 22.553,16.0061 22,16.0061 C21.447,16.0061 21,15.5581 21,15.0061 C21,14.4541 21.447,14.0061 22,14.0061 C22.553,14.0061 23,14.4541 23,15.0061" id="Fill-439"/>
                <path d="M18.6885,38.0061 C18.3845,38.0061 18.0855,37.8691 17.8895,37.6091 C17.5585,37.1701 17.6435,36.5481 18.0775,36.2141 C18.1465,36.1571 21.0005,33.7781 21.0005,27.0061 C21.0005,26.4541 21.4475,26.0061 22.0005,26.0061 C22.5525,26.0061 23.0005,26.4541 23.0005,27.0061 C23.0005,34.9131 19.4415,37.6901 19.2905,37.8041 C19.1095,37.9401 18.8985,38.0061 18.6885,38.0061" id="Fill-441"/>
                <path d="M41.3008,38.0061 C41.0908,38.0061 40.8788,37.9401 40.6978,37.8041 C40.5478,37.6891 36.9948,34.9131 36.9948,27.0061 C36.9948,26.4541 37.4428,26.0061 37.9948,26.0061 C38.5478,26.0061 38.9948,26.4541 38.9948,27.0061 C38.9948,33.8181 41.8758,36.1861 41.9048,36.2081 C42.3458,36.5411 42.4328,37.1691 42.0998,37.6091 C41.9028,37.8691 41.6038,38.0061 41.3008,38.0061" id="Fill-443"/>
                <path d="M30,41.0061 C29.735,41.0061 29.48,40.9011 29.293,40.7141 L25.288,36.7141 C24.897,36.3231 24.897,35.6901 25.287,35.2991 C25.678,34.9081 26.312,34.9091 26.702,35.2981 L29.999,38.5921 L33.287,35.2991 C33.678,34.9081 34.312,34.9091 34.702,35.2981 C35.093,35.6891 35.093,36.3221 34.703,36.7131 L30.708,40.7131 C30.521,40.9011 30.266,41.0061 30.001,41.0061 L30,41.0061 Z" id="Fill-445"/>
                <path d="M30,44.0061 C29.447,44.0061 29,43.5581 29,43.0061 L29,40.0061 C29,39.4541 29.447,39.0061 30,39.0061 C30.553,39.0061 31,39.4541 31,40.0061 L31,43.0061 C31,43.5581 30.553,44.0061 30,44.0061" id="Fill-447"/>
                <path d="M22,12.0061 C20.346,12.0061 19,13.3521 19,15.0061 C19,16.6601 20.346,18.0061 22,18.0061 C23.654,18.0061 25,16.6601 25,15.0061 C25,13.3521 23.654,12.0061 22,12.0061 M22,20.0061 C19.243,20.0061 17,17.7631 17,15.0061 C17,12.2491 19.243,10.0061 22,10.0061 C24.757,10.0061 27,12.2491 27,15.0061 C27,17.7631 24.757,20.0061 22,20.0061" id="Fill-449"/>
                <path d="M39,15.0061 C39,15.5581 38.553,16.0061 38,16.0061 C37.447,16.0061 37,15.5581 37,15.0061 C37,14.4541 37.447,14.0061 38,14.0061 C38.553,14.0061 39,14.4541 39,15.0061" id="Fill-451"/>
                <path d="M38,12.0061 C36.346,12.0061 35,13.3521 35,15.0061 C35,16.6601 36.346,18.0061 38,18.0061 C39.654,18.0061 41,16.6601 41,15.0061 C41,13.3521 39.654,12.0061 38,12.0061 M38,20.0061 C35.243,20.0061 33,17.7631 33,15.0061 C33,12.2491 35.243,10.0061 38,10.0061 C40.757,10.0061 43,12.2491 43,15.0061 C43,17.7631 40.757,20.0061 38,20.0061" id="Fill-453"/>
                <path d="M30,52.0061 C28.215,52.0061 26.328,51.2651 24.392,49.8041 C23.951,49.4721 23.863,48.8441 24.196,48.4031 C24.528,47.9641 25.154,47.8741 25.597,48.2081 C27.178,49.4011 28.659,50.0061 30,50.0061 C31.35,50.0061 32.788,49.4181 34.399,48.2071 C34.841,47.8751 35.467,47.9641 35.8,48.4051 C36.131,48.8471 36.042,49.4741 35.601,49.8051 C33.631,51.2861 31.799,52.0061 30,52.0061" id="Fill-455"/>
                <path d="M28,51.7082 L28,56.0062 C28,57.1092 28.897,58.0062 30,58.0062 C31.103,58.0062 32,57.1092 32,56.0062 L32,51.7072 C30.641,52.1042 29.359,52.1042 28,51.7082 M30,60.0062 C27.794,60.0062 26,58.2112 26,56.0062 L26,50.2502 C26,49.9062 26.177,49.5862 26.469,49.4032 C26.761,49.2212 27.124,49.2022 27.436,49.3502 C29.232,50.2192 30.761,50.2232 32.563,49.3472 C32.875,49.1972 33.239,49.2172 33.531,49.3992 C33.822,49.5832 34,49.9032 34,50.2472 L34,56.0062 C34,58.2112 32.206,60.0062 30,60.0062" id="Fill-457"/>
                <path d="M32.999,55.6135 C32.562,55.6135 32.159,55.3225 32.036,54.8805 C31.889,54.3485 32.2,53.7975 32.732,53.6495 C39.146,51.8695 39.913,43.4975 39.995,40.9735 L39.994,39.0065 C40.036,36.3875 41.943,31.9215 43.535,28.6335 C45.231,25.1285 46.076,21.5685 46.048,18.0515 C46.035,16.5115 45.864,15.0335 45.539,13.6595 C45.459,13.3245 45.559,12.9715 45.801,12.7265 C46.043,12.4815 46.394,12.3775 46.731,12.4535 C49.594,13.0975 53.395,13.0205 53.903,13.0085 C57.317,12.4665 57.936,8.9995 58.001,6.9745 C58.01,6.6965 57.857,6.4285 57.604,6.2765 C53.188,3.6175 47.645,5.6175 43.772,7.7625 C43.355,7.9935 42.83,7.8975 42.522,7.5315 C41.693,6.5455 40.736,5.6755 39.678,4.9465 C33.973,1.0185 26.011,1.0175 20.311,4.9465 C19.253,5.6765 18.298,6.5445 17.475,7.5245 C17.167,7.8905 16.642,7.9875 16.225,7.7565 C13.057,6.0025 7.046,3.4785 2.395,6.2785 C2.143,6.4295 1.991,6.6965 2,6.9755 C2.064,9.0005 2.685,12.4645 6.106,13.0085 C6.61,13.0195 10.403,13.0955 13.26,12.4585 C13.596,12.3825 13.947,12.4875 14.189,12.7325 C14.432,12.9775 14.53,13.3305 14.45,13.6655 C14.125,15.0385 13.954,16.5145 13.941,18.0535 C13.913,21.5685 14.758,25.1285 16.455,28.6335 C18.047,31.9235 19.953,36.3905 19.994,38.9905 L19.994,41.0065 C20.104,43.4815 20.958,51.8435 27.274,53.6425 C27.805,53.7935 28.113,54.3465 27.962,54.8785 C27.812,55.4095 27.259,55.7175 26.726,55.5665 C19.123,53.4005 18.121,43.9075 17.995,41.0505 L17.994,39.0065 C17.967,37.2785 16.78,33.8985 14.654,29.5045 C12.823,25.7205 11.91,21.8625 11.941,18.0375 C11.951,16.8845 12.042,15.7605 12.214,14.6795 C9.249,15.1115 6.133,15.0105 5.981,15.0055 C5.943,15.0045 5.906,15.0005 5.869,14.9955 C0.777,14.2405 0.069,9.1795 0.002,7.0395 C-0.03,6.0375 0.491,5.0885 1.363,4.5645 C6.318,1.5825 12.196,3.3895 16.484,5.6255 C17.293,4.7575 18.195,3.9765 19.177,3.3005 C25.544,-1.0885 34.44,-1.0895 40.811,3.2995 C41.794,3.9755 42.699,4.7585 43.512,5.6325 C47.801,3.3935 53.68,1.5795 58.636,4.5625 C59.509,5.0875 60.031,6.0355 59.999,7.0375 C59.932,9.1795 59.225,14.2415 54.141,14.9955 C54.103,15.0005 54.066,15.0045 54.028,15.0055 C53.876,15.0095 50.748,15.1115 47.775,14.6755 C47.947,15.7575 48.038,16.8815 48.048,18.0345 C48.079,21.8625 47.167,25.7205 45.336,29.5045 C43.209,33.8965 42.022,37.2775 41.994,39.0225 L41.994,41.0065 C41.9,43.9065 40.995,53.4325 33.268,55.5765 C33.178,55.6015 33.088,55.6135 32.999,55.6135" id="Fill-459"/>
                <path d="M33,28.0061 C32.447,28.0061 32,27.5581 32,27.0061 C32,24.8001 33.794,23.0061 36,23.0061 C36.553,23.0061 37,23.4541 37,24.0061 C37,24.5581 36.553,25.0061 36,25.0061 C34.897,25.0061 34,25.9031 34,27.0061 C34,27.5581 33.553,28.0061 33,28.0061" id="Fill-496"/>
                <path d="M27,28.0061 C26.447,28.0061 26,27.5581 26,27.0061 C26,25.9031 25.103,25.0061 24,25.0061 C23.447,25.0061 23,24.5581 23,24.0061 C23,23.4541 23.447,23.0061 24,23.0061 C26.206,23.0061 28,24.8001 28,27.0061 C28,27.5581 27.553,28.0061 27,28.0061" id="Fill-498"/>
            </g>
        </g>
    </g>

	<metadata>
		<rdf:RDF xmlns:rdf="http://www.w3.org/1999/02/22-rdf-syntax-ns#" xmlns:rdfs="http://www.w3.org/2000/01/rdf-schema#" xmlns:dc="http://purl.org/dc/elements/1.1/">
			<rdf:Description about="https://iconscout.com/legal#licenses" dc:title="camel,animal,wildlife" dc:description="camel,animal,wildlife" dc:publisher="Iconscout" dc:date="2017-07-24" dc:format="image/svg+xml" dc:language="en">
				<dc:creator>
					<rdf:Bag>
						<rdf:li>Smashicons .</rdf:li>
					</rdf:Bag>
				</dc:creator>
			</rdf:Description>
		</rdf:RDF>
    </metadata></svg>
