<?xml version="1.0" encoding="UTF-8" standalone="no"?>
<svg
   xmlns:dc="http://purl.org/dc/elements/1.1/"
   xmlns:cc="http://creativecommons.org/ns#"
   xmlns:rdf="http://www.w3.org/1999/02/22-rdf-syntax-ns#"
   xmlns:svg="http://www.w3.org/2000/svg"
   xmlns="http://www.w3.org/2000/svg"
   xmlns:sodipodi="http://sodipodi.sourceforge.net/DTD/sodipodi-0.dtd"
   xmlns:inkscape="http://www.inkscape.org/namespaces/inkscape"
   height="100%"
   width="100%"
   version="1.1"
   viewBox="0 0 2048 2048"
   id="svg3895"
   inkscape:version="0.91 r13725"
   sodipodi:docname="cq.svg">
  <metadata
     id="metadata3933">
    <rdf:RDF>
      <cc:Work
         rdf:about="">
        <dc:format>image/svg+xml</dc:format>
        <dc:type
           rdf:resource="http://purl.org/dc/dcmitype/StillImage" />
        <dc:title></dc:title>
      </cc:Work>
    </rdf:RDF>
  </metadata>
  <defs
     id="defs3931" />
  <sodipodi:namedview
     pagecolor="#ffffff"
     bordercolor="#666666"
     borderopacity="1"
     objecttolerance="10"
     gridtolerance="10"
     guidetolerance="10"
     inkscape:pageopacity="0"
     inkscape:pageshadow="2"
     inkscape:window-width="1920"
     inkscape:window-height="1056"
     id="namedview3929"
     showgrid="false"
     inkscape:zoom="0.44873047"
     inkscape:cx="1024"
     inkscape:cy="1024"
     inkscape:window-x="0"
     inkscape:window-y="24"
     inkscape:window-maximized="1"
     inkscape:current-layer="svg3895" />
  <path
     style="color:black;"
     d="m1024 1621q-57 0-96 40t-40 97q0 56 39 96t97 40q56 0 96-40t41-96q0-57-40-97t-97-40zm0 70q67 0 67 67 0 66-67 66-66 0-66-66 0-67 66-67zm509-1007q-193 49-505 49-320 0-511-50l15-96q195 46 496 46 299 0 488-45l17 96zm25 60 65 115q-48-19-98-19-134 0-214 109-60-50-134-50-96 0-153 75-64-70-153-70-72 0-132 49-84-107-217-107-51 0-101 19l70-120q194 56 533 56 345 0 534-57zm-448 239-85 489-85-483q3 2 14 10 23 45 70 45 51 0 66-45 6-6 20-16zm277-19v463l-165-454q19 7 32 18 20 25 54 25 40 0 64-35 3-4 7-8t8-9zm-562 14-164 449v-457q3 4 9 10 20 42 66 42 38 0 62-32 27-12 27-12zm-254-56-215 371 55-338q57-40 111-40 21 0 49 7zm903-5q23-7 51-7 61 0 114 38l55 346-220-377zm60-506-30 113q-196 43-480 43-281 0-479-43l-31-114q186 56 511 56 317 0 509-55zm106-128q-49-43-220-72t-394-29q-227 0-399 30t-217 75l63 240-28 157-88 153-85 622 49 19 274-462 6 550 68 12 209-553 112 595h69l112-593 207 551 69-12 6-550 275 463 47-22-83-619-89-153-28-159 65-243zm-81 36q-183 76-531 76-355 0-537-78 175-69 534-69 172 0 314 19t220 52zm-955 1252q-57 0-97 39t-40 97q0 56 40 96t97 40q56 0 96-40t40-96q0-57-40-96t-96-40zm0 70q66 0 66 66t-66 66q-67 0-67-66t67-66zm840 0q67 0 67 66t-67 66q-66 0-66-66t66-66zm0-70q-57 0-96 39t-40 97q0 56 39 96t97 40q57 0 97-40t40-96q0-57-40-96t-97-40zm-1208-110q-57 0-96 39t-40 97q0 56 39 96t97 41q57 0 97-40t40-97-40-96-97-40zm0 70q67 0 67 66 0 67-67 67-66 0-66-67 0-66 66-66zm1578 0q66 0 66 66 0 67-66 67-67 0-67-67 0-66 67-66zm0-70q-57 0-97 39t-40 97q0 56 40 96t97 41q56 0 96-40t40-97-40-96-96-40z"
     fill-rule="nonzero"
     transform="translate(0,2048) scale(1,-1)"
     display="block"
     fill="#000"
     id="path3897" />
  <g
     fill-rule="nonzero"
     fill="#fff"
     id="g3899">
    <path
       style="color:black;"
       d="m1024 357q67 0 67-67 0-66-67-66-66 0-66 66 0 67 66 67z"
       display="block"
       id="path3901" />
    <path
       style="color:black;"
       d="m1533 1364q-193-49-505-49-320 0-511 50l15 96q195-46 496-46 299 0 488 45l17-96z"
       display="block"
       id="path3903" />
    <path
       style="color:black;"
       d="m1558 1304 65-115q-48 19-98 19-134 0-214-109-60 50-134 50-96 0-153-75-64 70-153 70-72 0-132-49-84 107-217 107-51 0-101-19l70 120q194-56 533-56 345 0 534 57z"
       display="block"
       id="path3905" />
    <path
       style="color:black;"
       d="m1110 1065-85-489-85 483q3-2 14-10 23-45 70-45 51 0 66 45 6 6 20 16z"
       display="block"
       id="path3907" />
    <path
       style="color:black;"
       d="m1387 1084v-463l-165 454q19-7 32-18 20-25 54-25 40 0 64 35 3 4 7 8t8 9z"
       display="block"
       id="path3909" />
    <path
       style="color:black;"
       d="m825 1070-164-449v457q3-4 9-10 20-42 66-42 38 0 62 32 27 12 27 12z"
       display="block"
       id="path3911" />
    <path
       style="color:black;"
       d="m571 1126-215-371 55 338q57 40 111 40 21 0 49-7z"
       display="block"
       id="path3913" />
    <path
       style="color:black;"
       d="m1474 1131q23 7 51 7 61 0 114-38l55-346-220 377z"
       display="block"
       id="path3915" />
    <path
       style="color:black;"
       d="m1534 1637-30-113q-196-43-480-43-281 0-479 43l-31 114q186-56 511-56 317 0 509 55z"
       display="block"
       id="path3917" />
    <path
       style="color:black;"
       d="m1559 1729q-183-76-531-76-355 0-537 78 175 69 534 69 172 0 314-19t220-52z"
       display="block"
       id="path3919" />
    <path
       style="color:black;"
       d="m604 407q66 0 66-66t-66-66q-67 0-67 66t67 66z"
       display="block"
       id="path3921" />
    <path
       style="color:black;"
       d="m1444 407q67 0 67-66t-67-66q-66 0-66 66t66 66z"
       display="block"
       id="path3923" />
    <path
       style="color:black;"
       d="m236 517q67 0 67-66 0-67-67-67-66 0-66 67 0 66 66 66z"
       display="block"
       id="path3925" />
    <path
       style="color:black;"
       d="m1814 517q66 0 66-66 0-67-66-67-67 0-67 67 0 66 67 66z"
       display="block"
       id="path3927" />
  </g>
  <path
     style="fill:#000000;fill-rule:evenodd;stroke:#000000;stroke-width:1px;stroke-linecap:butt;stroke-linejoin:miter;stroke-opacity:1"
     d="m 1016.2002,176.05223 13.3711,1655.78237"
     id="path3935"
     inkscape:connector-curvature="0" />
  <path
     style="fill:#000000"
     d="m 1097.8927,1055.22 c -3.8512,-3.3208 -8.5172,-9.6877 -10.3689,-14.1486 -8.093,-19.4972 -28.3608,-34.0022 -51.2742,-36.6953 l -11.9935,-1.4096 -1.5837,-200.85733 c -1.3789,-174.88427 -0.9022,-222.32668 2.2024,-219.222 0.6751,0.67508 83.3628,473.92123 83.3628,477.10983 0,2.7798 -3.4043,1.2077 -10.3449,-4.777 z"
     id="path3937"
     inkscape:connector-curvature="0" />
  <path
     style="fill:#000000"
     d="m 1372.8592,1066.7465 c -20.9019,-25.8478 -37.3854,-34.492 -65.8135,-34.5135 -19.7859,-0.016 -35.6621,6.4407 -49.9744,20.3208 -8.9525,8.6822 -30.0487,21.4445 -32.0839,19.4093 -0.5049,-0.5049 35.446,-100.92349 79.8908,-223.15241 l 80.8089,-222.23439 0.5773,113.80565 c 0.3176,62.59311 0.3176,165.20064 0,228.01674 l -0.5773,114.21111 -12.8279,-15.8633 z"
     id="path3939"
     inkscape:connector-curvature="0" />
  <path
     style="fill:#000000"
     d="m 1490.427,1134.1797 c -7.3541,-1.3985 -13.3711,-3.5735 -13.3711,-4.8335 0,-2.6768 213.3541,-368.96743 214.3393,-367.98217 0.9771,0.97706 -52.4803,335.68407 -54.0082,338.15637 -2.8857,4.6691 -36.3949,22.3755 -52.1503,27.5563 -30.6346,10.0735 -65.4667,12.6831 -94.8097,7.103 z"
     id="path3941"
     inkscape:connector-curvature="0" />
  <path
     style="fill:#000000"
     d="m 1416.3239,402.21256 c -26.5048,-9.48337 -37.3288,-27.84542 -37.0253,-62.8106 0.3683,-42.43229 20.8673,-62.90952 63.0394,-62.97256 10.5151,-0.0157 23.2258,1.10694 28.2461,2.49478 13.7003,3.78746 26.3355,14.05333 32.3611,26.29276 4.6611,9.46783 5.3099,13.91701 5.3099,36.41353 0,22.0159 -0.678,26.88419 -4.8101,34.54189 -10.9491,20.29095 -25.5604,28.03652 -55.3597,29.34649 -15.6631,0.68855 -22.6206,-0.0357 -31.7614,-3.30629 z"
     id="path3943"
     inkscape:connector-curvature="0" />
  <path
     style="fill:#000000"
     d="m 1787.9185,513.48948 c -28.6032,-9.30226 -41.811,-32.05405 -39.5438,-68.11799 1.3392,-21.30133 5.6944,-32.81347 16.6783,-44.08566 10.739,-11.02088 25.8689,-16.01654 48.5078,-16.01654 23.8961,0 38.2835,5.03887 49.6755,17.39781 11.8528,12.85874 14.9395,22.80939 14.9395,48.16032 0,24.10057 -2.9811,34.79294 -12.827,46.00687 -11.8462,13.49203 -21.911,17.20649 -48.4452,17.87884 -12.8697,0.3261 -25.9129,-0.22454 -28.9851,-1.22365 z"
     id="path3945"
     inkscape:connector-curvature="0" />
  <path
     style="fill:#000000"
     d="m 1019.0973,291.19595 0,-66.03409 16.1567,1.05502 c 34.4836,2.25176 51.8065,20.28283 54.5682,56.79916 2.2787,30.12953 -8.6072,55.21096 -28.3297,65.27263 -7.1598,3.65266 -30.3084,8.86832 -39.6096,8.92453 -2.1662,0.0131 -2.7856,-14.66668 -2.7856,-66.01725 z"
     id="path3947"
     inkscape:connector-curvature="0" />
  <path
     style="fill:#000000"
     d="m 1549.3362,1301.2288 c -0.5925,-0.5924 -13.0866,-4.114 -27.7647,-7.8256 -109.5271,-27.6961 -246.3712,-42.5912 -425.0335,-46.2638 l -70.7552,-1.4545 0.071,-83.7661 0.071,-83.766 10.5145,11.4826 c 14.3946,15.7201 32.0516,29.3231 50.6276,39.0037 65.4837,34.1256 154.8178,25.4646 213.1433,-20.6646 4.4663,-3.5323 8.9897,-6.4224 10.0521,-6.4224 1.0624,0 6.4336,5.6488 11.9361,12.5529 31.9871,40.1351 81.8151,72.65 131.1269,85.566 48.6622,12.7458 107.8765,11.0794 153.4897,-4.3195 7.0532,-2.3811 13.036,-4.1172 13.2952,-3.858 0.2592,0.2592 -13.3837,25.005 -30.3176,54.9907 -21.7709,38.5509 -32.0469,54.7102 -35.084,55.1706 -2.3624,0.3581 -4.7799,0.1665 -5.3723,-0.426 z"
     id="path3949"
     inkscape:connector-curvature="0" />
  <path
     style="fill:#000000"
     d="m 532.36078,1457.7877 c -1.34024,-4.2159 -14.66887,-91.798 -14.06035,-92.3902 0.27309,-0.2658 16.54179,-4.051 36.15267,-8.4117 109.03938,-24.2458 232.14544,-36.6379 403.9173,-40.6593 l 65.1839,-1.526 0,49.3715 0,49.3714 -9.4712,0.027 c -78.6505,0.2252 -221.56589,7.8705 -293.60606,15.7067 -62.01255,6.7454 -167.92717,24.1481 -183.62162,30.1706 -2.0127,0.7724 -3.94868,0.057 -4.49464,-1.6601 z"
     id="path3951"
     inkscape:connector-curvature="0" />
  <path
     style="fill:#000000"
     d="m 516.31245,1632.4945 c 0.63724,-2.145 7.34888,-26.965 14.91477,-55.1557 7.56589,-28.1906 14.09034,-51.632 14.49879,-52.0919 1.3963,-1.5722 51.02762,-11.0517 87.83917,-16.777 103.81553,-16.1466 231.82899,-25.8321 341.51904,-25.8393 l 50.69858,-0 0,49.0272 0,49.0272 -17.2709,0.022 c -75.9668,0.096 -209.93544,7.5533 -281.34933,15.6602 -67.895,7.7075 -155.54896,23.7793 -193.88031,35.549 -17.7017,5.4353 -18.41901,5.4599 -16.96981,0.5819 z"
     id="path3953"
     inkscape:connector-curvature="0" />
  <path
     style="fill:#000000"
     d="m 892.25341,1796.7004 c -154.01595,-6.6842 -281.32833,-25.8628 -372.20479,-56.0697 l -27.71895,-9.2136 9.89088,-4.2205 c 35.34955,-15.0839 104.82228,-34.5539 160.31525,-44.929 91.31945,-17.0733 216.63526,-27.9304 323.34849,-28.0143 l 39.21361,-0.031 1.4567,27.092 c 0.8012,14.9006 1.4567,47.4925 1.4567,72.4266 l 0,45.3345 -48.47006,-0.3452 c -26.65854,-0.1899 -65.93807,-1.1033 -87.28783,-2.0299 z"
     id="path3955"
     inkscape:connector-curvature="0" />
</svg>
