<?xml version="1.0" encoding="UTF-8"?><svg xmlns="http://www.w3.org/2000/svg" xmlns:xlink="http://www.w3.org/1999/xlink" version="1.1" id="Layer_1" x="0px" y="0px" viewBox="0 0 62 64" xml:space="preserve"><g id="wildebeest__x5F_glyphs"><path d="M25 49c-.6 0-1 .4-1 1s.4 1 1 1h3c.6 0 1-.4 1-1s-.4-1-1-1h-3z"/><path d="M34 49c-.6 0-1 .4-1 1s.4 1 1 1h3c.6 0 1-.4 1-1s-.4-1-1-1h-3z"/><path d="M11 36V24.7c-.1.2-.2.3-.4.5-1.3 1.4-3.1 2.3-5 2.4H5v14.9C5 43.8 3.9 45 2.5 45S0 43.4 0 42v2.5c0 3.6 3 6.9 9 6.5 6.9-.5 7-4.4 7-6.4-3.1-1.4-5-5.6-5-8.6z"/><path d="M11 12c0-3.9 3.1-7 7-7h10.8c-2.2-3-5.9-5-11.3-5C10.6 0 5 5.6 5 12.5V19h6v-7z"/><path d="M5.5 25.6c1.4-.1 2.7-.7 3.6-1.7.7-.9 1.2-1.9 1.3-2.9H.2c.3 1.1.8 2.1 1.6 3 1.1 1.1 2.4 1.6 3.7 1.6z"/><path d="M51 12v7h6v-6.5C57 5.6 51.4 0 44.5 0c-5.4 0-9 2-11.3 5H44c3.9 0 7 3.1 7 7z"/><path d="M61.8 43c-.5 1.6-2.3 2.9-4 1.2-.5-.6-.8-1.4-.8-2.2V27.6h-.6c-1.9-.1-3.7-1-5-2.4-.1-.2-.3-.3-.4-.5V36c0 3-1.9 7.2-5 8.6 0 2 .1 5.9 7 6.4 6 .4 9-2.9 9-6.5V43h-.2z"/><path d="M52.9 23.8c.9 1 2.2 1.7 3.6 1.7 1.3.1 2.6-.5 3.7-1.6.8-.8 1.4-1.9 1.6-3H51.6c.1 1.1.6 2.1 1.3 2.9z"/><path d="M49 36V21h-6c-2.2 0-4 1.8-4 4v27.6L37.4 57h-13L23 53.6V25c0-2.2-1.8-4-4-4h-6v15c0 2.2 1.5 5.4 3.5 6.6l6.4 16.1c.1 3 2.7 5.3 6.1 5.3h4c3.3 0 5.8-2.2 5.9-5.3l5.9-15.8c2.3-.7 4.2-4.4 4.2-6.9zm-31-7c-1.1 0-2-.9-2-2s.9-2 2-2 2 .9 2 2-.9 2-2 2zm15 33h-4c-1.9 0-3.8-1-4.1-3h11.9c-.2 1.8-1.7 3-3.8 3zm11-33c-1.1 0-2-.9-2-2s.9-2 2-2 2 .9 2 2-.9 2-2 2z"/><path d="M43 19h6v-7c0-2.8-2.2-5-5-5H18c-2.8 0-5 2.2-5 5v7h6c3.3 0 6 2.7 6 6v20h1c2.1 0 3.9 1.1 5 2.7 1.1-1.6 2.9-2.7 5-2.7h1V25c0-3.3 2.7-6 6-6zm-7-1h-9c-.6 0-1-.4-1-1s.4-1 1-1h9c.6 0 1 .4 1 1s-.4 1-1 1zm0-4h-9c-.6 0-1-.4-1-1s.4-1 1-1h9c.6 0 1 .4 1 1s-.4 1-1 1z"/></g><metadata><rdf:RDF xmlns:rdf="http://www.w3.org/1999/02/22-rdf-syntax-ns#" xmlns:rdfs="http://www.w3.org/2000/01/rdf-schema#" xmlns:dc="http://purl.org/dc/elements/1.1/"><rdf:Description about="https://iconscout.com/legal#licenses" dc:title="wildebeest" dc:description="wildebeest" dc:publisher="Iconscout" dc:date="2017-09-07" dc:format="image/svg+xml" dc:language="en"><dc:creator><rdf:Bag><rdf:li>Madeby Grids</rdf:li></rdf:Bag></dc:creator></rdf:Description></rdf:RDF></metadata></svg>