<?xml version="1.0" encoding="UTF-8" standalone="no"?>
<svg
   xmlns:dc="http://purl.org/dc/elements/1.1/"
   xmlns:cc="http://creativecommons.org/ns#"
   xmlns:rdf="http://www.w3.org/1999/02/22-rdf-syntax-ns#"
   xmlns:svg="http://www.w3.org/2000/svg"
   xmlns="http://www.w3.org/2000/svg"
   xmlns:sodipodi="http://sodipodi.sourceforge.net/DTD/sodipodi-0.dtd"
   xmlns:inkscape="http://www.inkscape.org/namespaces/inkscape"
   height="100%"
   width="100%"
   version="1.1"
   viewBox="0 0 2048 2048"
   id="svg18"
   sodipodi:docname="bl.svg"
   inkscape:version="0.92.4 5da689c313, 2019-01-14">
  <metadata
     id="metadata24">
    <rdf:RDF>
      <cc:Work
         rdf:about="">
        <dc:format>image/svg+xml</dc:format>
        <dc:type
           rdf:resource="http://purl.org/dc/dcmitype/StillImage" />
        <dc:title></dc:title>
      </cc:Work>
    </rdf:RDF>
  </metadata>
  <defs
     id="defs22" />
  <sodipodi:namedview
     pagecolor="#ffffff"
     bordercolor="#666666"
     borderopacity="1"
     objecttolerance="10"
     gridtolerance="10"
     guidetolerance="10"
     inkscape:pageopacity="0"
     inkscape:pageshadow="2"
     inkscape:window-width="1920"
     inkscape:window-height="1060"
     id="namedview20"
     showgrid="false"
     inkscape:zoom="0.11523438"
     inkscape:cx="1041.3559"
     inkscape:cy="1024"
     inkscape:window-x="0"
     inkscape:window-y="20"
     inkscape:window-maximized="0"
     inkscape:current-layer="svg18" />
  <g
     fill-rule="nonzero"
     fill="#fff"
     id="g8">
    <path
       style="color:black;"
       d="m1060 1261q172 3 282 17t198 33q55-54 122-103t94-84q48-65 48-162 0-89-43-149-77-113-235-113-92 0-192 40-91 36-132 78-85 82-124 216-15 46-16 117t-2 110z"
       display="block"
       id="path2" />
    <path
       style="color:black;"
       d="m988 1260q0-40-2-110t-15-118q-41-134-124-216-43-42-132-78-102-40-193-40-158 0-234 113-43 60-43 150 0 98 48 161 25 36 96 89t120 98q87-19 196-33t283-16z"
       display="block"
       id="path4" />
    <path
       style="color:black;"
       d="m1024 1009q7-28 12-39 10-39 23-66 6-17 17-39t25-52q8-17 17-41t18-49q8-20 8-43 0-49-35-83t-85-35q-119 0-119 119 0 23 8 43 22 65 34 90 13 29 24 51t19 40q13 33 22 66 2 6 12 38z"
       display="block"
       id="path6" />
  </g>
  <g
     fill-rule="nonzero"
     id="g16">
    <path
       style="color:black;"
       d="m1133 865q0 29 6 82t21 84q37 81 106 150 20 20 86 54 65 32 139 32 56 0 111-19t84-60q25-34 25-110 0-60-49-112-32-33-69-66t-71-79q-58 20-161 31t-228 13zm-73-78q172-3 282-17t198-33q55 54 122 103t94 84q48 65 48 162 0 89-43 149-77 113-235 113-92 0-192-40-91-36-132-78-85-82-124-216-15-46-16-117t-2-110zm458-173q-184 51-490 51-308 0-496-52l15-101q189 49 481 49 291 0 474-48l16 101zm26-299l-30 118q-195 45-490 45-292 0-488-45l-32-119q190 58 521 58 159 0 295-16t224-41zm-1081 207l-33 187q-1 0-3 4-5 7-28 18t-55 40q-44 37-68 60t-45 50q-61 84-68 203-10 115 93 229 104 114 281 107 66-4 155-32 29-12 59-23t61-24q16-8 28-16-5 21-5 42 0 78 55 133t134 56q78 0 133-55t55-133q0-16-4-42 14 9 27 15 46 20 121 47 86 29 155 33 177 8 280-107 101-114 94-229-8-119-69-203-20-27-45-50t-67-60q-33-28-56-39t-27-19q-1-2-2-3t-1-2l-32-188 66-247q-50-45-224-74t-402-29q-232 0-408 30t-221 77l66 244zm525 266q0 40-2 110t-15 118q-41 134-124 216-43 42-132 78-102 40-193 40-158 0-234-113-43-60-43-150 0-98 48-161 25-36 96-89t120-98q87 19 196 33t283 16zm36 251q7 28 12 39 10 39 23 66 6 17 17 39t25 52q8 17 17 41t18 49q8 20 8 43 0 49-35 83t-85 35q-119 0-119-119 0-23 8-43 22-65 34-90 13-29 24-51t19-40q13-33 22-66 2-6 12-38zm35 520h-71v131h-83q-34 0-34 33v1q0 33 34 33h83v85q0 35 36 35 35 0 35-35v-85h86q33 0 33-33v-1q0-33-33-33l-85-1-1-130zm-147-694q-125-2-228-13t-161-31q-30 37-69 74t-70 71q-50 51-50 112 0 75 25 110 27 40 83 59t113 20q72 0 138-32 65-34 86-54 68-69 106-150 13-30 19-83t8-83zm112 345q-2 10-5 17-6 20-10 29-3 7-8 17t-10 23q-3 7-7 18t-8 22q-3 9-3 19 0 53 51 53 53 0 53-52 0-13-4-19-14-38-15-41-15-30-19-39-7-16-9-29-3-6-4-10t-2-8z"
       transform="translate(0,2048) scale(1,-1)"
       display="block"
       fill="#000"
       id="path10" />
    <path
       style="color:black;"
       d="m1518 1434q-184-51-490-51-308 0-496 52l15 101q189-49 481-49 291 0 474 48l16-101z"
       display="block"
       fill="#fff"
       id="path12" />
    <path
       style="color:black;"
       d="m1544 1733-30-118q-195-45-490-45-292 0-488 45l-32 119q190-58 521-58 159 0 295 16t224 41z"
       display="block"
       fill="#fff"
       id="path14" />
  </g>
  <path
     style="fill:#aa0000;fill-opacity:1;stroke-width:8.67796612"
     d="m 439.32682,1131.2116 c -98.82271,-105.3974 -111.7667,-134.02476 -95.73625,-211.73358 7.73972,-37.51884 17.18343,-55.62427 40.09616,-76.87211 67.97136,-63.0324 207.47751,-72.60657 311.53302,-21.38021 121.28402,59.70793 191.91453,166.13911 208.99297,314.9258 l 4.60567,40.1244 -97.31089,5.9429 c -92.49989,5.6491 -247.34705,24.8888 -275.24004,34.1985 -8.35119,2.7874 -42.95058,-27.6237 -96.94064,-85.2057 z"
     id="path26"
     inkscape:connector-curvature="0" />
  <path
     style="fill:#aa0000;fill-opacity:1;stroke-width:8.67796612"
     d="m 1005.1044,774.15188 c -10.55563,-23.42963 -21.23712,-56.85097 -23.73661,-74.26963 -3.84815,-26.81744 -1.24252,-33.83383 17.00471,-45.78988 16.4602,-10.78511 26.8921,-12.08824 44.1731,-5.518 34.2561,13.02416 36.1042,40.76668 7.2254,108.46198 l -25.4744,59.71487 z"
     id="path28"
     inkscape:connector-curvature="0" />
  <path
     style="fill:#aa0000;fill-opacity:1;stroke-width:8.67796612"
     d="m 1460.5017,1207.9452 c -28.6373,-6.3435 -113.6885,-16.2631 -189.0027,-22.0435 l -136.9349,-10.5097 5.7244,-52.6994 c 14.2209,-130.91879 92.9106,-244.32988 209.2242,-301.54301 54.6546,-26.88388 64.581,-28.84612 145.5674,-28.77556 72.7791,0.0634 92.7333,3.1768 122.7029,19.1449 53.6661,28.5939 79.094,63.73513 85.9762,118.81872 9.1819,73.48905 -5.0423,102.20955 -99.2517,200.40135 -45.793,47.7288 -85.2126,87.2207 -87.599,87.7597 -2.3865,0.5391 -27.7695,-4.21 -56.4068,-10.5535 z"
     id="path30"
     inkscape:connector-curvature="0" />
  <path
     style="fill:#aa0000;fill-opacity:1;stroke-width:8.67796612"
     d="m 785.92018,1863.2971 c -201.24404,-16.6257 -379.79137,-63.1895 -379.79137,-99.0467 0,-6.9033 13.8276,-63.5869 30.72799,-125.9637 l 30.72797,-113.4124 -17.76195,-97.271 c -9.76907,-53.4991 -21.72672,-98.6003 -26.57257,-100.2249 -20.82867,-6.9831 -112.32734,-81.8827 -154.49038,-126.4639 -54.61477,-57.7471 -83.98352,-118.2082 -96.85629,-199.397 -12.45395,-78.54728 -0.40692,-136.18907 42.26009,-202.20323 112.11625,-173.46565 287.8935,-210.56482 532.27438,-112.34072 l 91.49115,36.77308 4.41236,-54.96859 c 3.31286,-41.27141 10.45025,-63.68128 28.64329,-89.93385 62.04763,-89.53476 185.73005,-108.4543 267.63655,-40.94002 43.9988,36.2675 65.8803,82.91028 65.8803,140.431 v 47.27066 l 70.4895,-29.7287 c 196.4792,-82.86444 340.4643,-84.76224 456.771,-6.0205 78.4784,53.13115 148.9638,171.8734 149.4148,251.70945 0.762,134.87732 -74.3963,258.28002 -217.7037,357.44772 -43.889,30.3709 -47.418,35.5365 -57.3235,83.9086 -25.0377,122.2687 -24.0831,148.4142 9.9696,273.0685 36.8902,135.0416 39.6815,127.1799 -55.6045,156.6107 -166.211,51.3374 -501.3376,73.2706 -774.59472,50.6955 z M 649.11186,1706.8698 c 195.25251,-35.9892 601.19994,-30.9348 799.35874,9.9526 44.8001,9.244 85.9001,16.8585 91.3333,16.9212 13.3744,0.1545 -12.0864,-104.8009 -28.6791,-118.2217 -6.7055,-5.4236 -55.9845,-17.1364 -109.5091,-26.0286 -139.1908,-23.1239 -606.26613,-23.5441 -750.44941,-0.6751 -53.75822,8.5266 -102.76239,17.4294 -108.89818,19.7839 -9.04089,3.4693 -40.68167,97.7781 -40.68167,121.2561 0,3.3929 12.69153,3.3875 28.20339,-0.01 15.51186,-3.3996 69.20678,-13.7388 119.32203,-22.9762 z m 44.12555,-194.4725 c 204.53804,-29.7929 538.21829,-25.2765 730.84309,9.892 42.0159,7.671 77.9526,12.3872 79.8594,10.4803 1.9069,-1.9069 6.9393,-25.6087 11.183,-52.6708 l 7.7159,-49.2038 -57.2024,-12.8975 c -122.8995,-27.7101 -215.9846,-35.1662 -439.033,-35.1662 -223.92949,0 -316.05364,7.4341 -440.82011,35.5727 l -58.98959,13.3039 5.48176,40.4309 c 9.44606,69.6694 9.81098,70.2025 41.97347,61.322 15.73305,-4.3441 69.27787,-13.8227 118.98848,-21.0635 z m 891.91639,-236.8458 c 26.899,-22.97 73.0853,-60.1206 102.6362,-82.5568 89.4999,-67.9515 116.4813,-122.1203 116.7182,-234.32671 0.177,-83.88867 -25.8732,-144.05703 -84.8445,-195.96564 -95.7999,-84.32645 -264.6372,-86.24052 -433.7158,-4.91695 -137.3485,66.06195 -217.6108,209.20757 -226.6018,404.1382 l -4.6404,100.6084 116.1183,6.0859 c 136.4965,7.154 289.4128,27.3349 362.262,47.8091 1.7384,0.4885 25.1689,-17.9054 52.0678,-40.8755 z m -927.36397,11.69 c 45.34237,-7.1901 138.08814,-15.6866 206.1017,-18.8812 l 123.66101,-5.8083 v -87.9477 c 0,-130.6831 -28.09478,-218.54319 -102.53655,-320.65979 C 820.48276,765.4201 664.92476,697.09289 527.62034,696.96224 c -126.31097,-0.12018 -203.8673,40.92543 -256.24146,135.61222 -23.62437,42.71032 -25.67384,53.22802 -25.12588,128.94418 0.89364,123.48236 23.35594,161.71286 155.76012,265.10156 38.99403,30.4488 76.24398,61.8026 82.77767,69.6752 12.94977,15.6036 19.74715,15.2478 172.99904,-9.0539 z M 1096.4427,831.34915 c 65.1512,-143.28338 63.2234,-208.98378 -7.3955,-252.04287 -34.0369,-20.75359 -100.55873,-22.39132 -137.3211,-3.38075 -28.51738,14.74691 -50.95322,57.71487 -50.95322,97.58297 0,31.47804 23.808,100.95947 68.93487,201.17999 19.3604,42.99677 35.20075,81.82146 35.20075,86.2771 0,4.45563 4.4566,19.09436 9.9036,32.53049 l 9.9036,24.42932 15.1476,-47.72879 c 8.3312,-26.25085 33.7919,-88.7322 56.5794,-138.84746 z"
     id="path32"
     inkscape:connector-curvature="0" />
  <path
     style="fill:#aa0000;fill-opacity:1;stroke-width:8.67796612"
     d="M 994.4412,421.31525 991.89153,358.4 935.48475,354.06102 c -48.90829,-3.76218 -56.75086,-6.74717 -58.99505,-22.45428 -3.75804,-26.30261 14.26853,-36.90089 67.93608,-39.94136 l 47.46575,-2.68911 2.5634,-53.46 c 2.75393,-57.43339 14.48147,-71.43611 45.79407,-54.67813 13.6245,7.2916 16.7273,18.47695 16.7273,60.30055 v 51.34838 l 54.2373,2.58359 c 53.9042,2.56771 54.2372,2.74345 54.2372,28.61748 0,25.87402 -0.333,26.04976 -54.2372,28.61747 l -54.2373,2.58359 v 64.67065 64.67066 h -29.9927 -29.99274 z"
     id="path34"
     inkscape:connector-curvature="0" />
</svg>
