<?xml version="1.0" encoding="UTF-8" standalone="no"?>
<svg
   xmlns:dc="http://purl.org/dc/elements/1.1/"
   xmlns:cc="http://creativecommons.org/ns#"
   xmlns:rdf="http://www.w3.org/1999/02/22-rdf-syntax-ns#"
   xmlns:svg="http://www.w3.org/2000/svg"
   xmlns="http://www.w3.org/2000/svg"
   xmlns:sodipodi="http://sodipodi.sourceforge.net/DTD/sodipodi-0.dtd"
   xmlns:inkscape="http://www.inkscape.org/namespaces/inkscape"
   height="100%"
   width="100%"
   version="1.1"
   viewBox="0 0 2048 2048"
   id="svg12"
   sodipodi:docname="bt.svg"
   inkscape:version="0.92.4 5da689c313, 2019-01-14">
  <metadata
     id="metadata18">
    <rdf:RDF>
      <cc:Work
         rdf:about="">
        <dc:format>image/svg+xml</dc:format>
        <dc:type
           rdf:resource="http://purl.org/dc/dcmitype/StillImage" />
        <dc:title></dc:title>
      </cc:Work>
    </rdf:RDF>
  </metadata>
  <defs
     id="defs16" />
  <sodipodi:namedview
     pagecolor="#ffffff"
     bordercolor="#666666"
     borderopacity="1"
     objecttolerance="10"
     gridtolerance="10"
     guidetolerance="10"
     inkscape:pageopacity="0"
     inkscape:pageshadow="2"
     inkscape:window-width="1920"
     inkscape:window-height="1060"
     id="namedview14"
     showgrid="false"
     inkscape:zoom="0.11523438"
     inkscape:cx="1041.3559"
     inkscape:cy="1024"
     inkscape:window-x="0"
     inkscape:window-y="20"
     inkscape:window-maximized="0"
     inkscape:current-layer="svg12" />
  <path
     style="color:black;"
     d="m1588 793q-83 30-233 49t-333 20q-178 0-326-18t-233-49l50-91q84 25 218 36t293 11q159 0 294-11t219-37l51 90zm226 668q-57 0-97 39t-40 97q0 56 40 96t97 41q56 0 96-40t40-97q0-57-40-96t-96-40zm-1578 0q-57 0-96 39t-40 97q0 56 39 96t97 41q57 0 97-40t40-97q0-57-40-96t-97-40zm1208 110q-57 0-96 39t-40 97q0 56 39 96t97 40q57 0 97-40t40-96q0-57-40-96t-97-40zm-840 0q-57 0-97 39t-40 97q0 56 40 96t97 40q56 0 96-40t40-96q0-57-40-96t-96-40zm1036-1288q-49-43-220-72t-394-29q-227 0-399 30t-217 75l63 240-28 157-88 153-85 622 49 19 274-462 6 550 68 12 209-553 112 595h69l112-593 207 551 69-12 6-550 275 463 47-22-83-619-89-153-28-159 65-243zm-96 32l-30 118q-195 45-490 45-292 0-488-45l-32-119q190 58 521 58 159 0 295-16t224-41zm-26 299q-184 51-490 51-308 0-496-52l15-101q189 49 481 49 291 0 474-48l16 101zm-494 1007q-57 0-96 40t-40 97q0 56 39 96t97 40q56 0 96-40t41-96q0-57-40-97t-97-40z"
     fill-rule="nonzero"
     transform="translate(0,2048) scale(1,-1)"
     display="block"
     fill="#000"
     id="path2" />
  <g
     fill-rule="nonzero"
     fill="#fff"
     id="g10">
    <path
       style="color:black;"
       d="m1588 1255q-83-30-233-49t-333-20q-178 0-326 18t-233 49l50 91q84-25 218-36t293-11 294 11 219 37l51-90z"
       display="block"
       id="path4" />
    <path
       style="color:black;"
       d="m1544 1733-30-118q-195-45-490-45-292 0-488 45l-32 119q190-58 521-58 159 0 295 16t224 41z"
       display="block"
       id="path6" />
    <path
       style="color:black;"
       d="m1518 1434q-184-51-490-51-308 0-496 52l15 101q189-49 481-49 291 0 474 48l16-101z"
       display="block"
       id="path8" />
  </g>
  <path
     style="fill:#aa0000;fill-opacity:1;stroke-width:8.67796612"
     d="m 822.67119,1855.297 c -180.52333,-14.9818 -350.15015,-51.8342 -389.59443,-84.6417 l -18.15803,-15.1028 31.01025,-115.8962 31.01024,-115.8963 -13.80948,-81.0148 c -11.60124,-68.0599 -20.88223,-93.2389 -58.03956,-157.4597 l -44.23006,-76.4448 -42.23213,-307.69057 c -43.50945,-316.99676 -43.61493,-321.25423 -7.9568,-321.16288 7.15932,0.0182 28.26779,26.31787 46.90771,58.44338 18.63992,32.12553 79.16874,134.5592 134.50847,227.63039 l 100.61771,169.22038 5.41801,-125.83055 c 2.97989,-69.20678 5.9087,-192.70509 6.50847,-274.44068 L 605.72203,486.4 l 27.66102,-5.5322 c 15.21356,-3.04272 30.25849,-2.55458 33.43318,1.08474 3.17469,3.63932 49.71187,123.76949 103.41596,266.95593 53.7041,143.18645 100.86815,263.77643 104.809,267.97783 3.94087,4.2013 9.93712,-7.514 13.325,-26.03394 3.3879,-18.51999 28.21517,-150.82524 55.17173,-294.01168 l 49.01192,-260.33899 31.15676,-2.63035 c 26.4724,-2.23489 31.8408,0.37454 35.7061,17.35593 2.5022,10.99246 27.0071,141.04392 54.4553,289.00324 27.4483,147.95932 52.5036,272.01819 55.6783,275.68649 3.1748,3.6682 51.8549,-116.41318 108.178,-266.84751 63.0581,-168.42281 106.7926,-273.51695 113.8232,-273.51695 6.2797,0 21.4345,3.80843 33.6774,8.46318 l 22.2598,8.46318 v 269.23174 c 0,148.07745 2.9289,269.13726 6.5085,269.02176 3.5797,-0.1155 67.0373,-102.99897 141.017,-228.6299 127.7343,-216.91613 135.4918,-227.98 154.0339,-219.6852 10.739,4.80408 19.5254,12.9122 19.5254,18.01806 0,5.10585 -18.0755,144.0858 -40.1677,308.84434 l -40.1678,299.561 -43.652,73.7627 c -36.239,61.2361 -46.243,87.763 -58.9084,156.2034 l -15.2562,82.4407 29.6524,109.6894 c 16.3087,60.3293 29.6522,115.8765 29.6522,123.4382 0,29.9564 -117.0414,66.1083 -286.0604,88.3589 -122.6973,16.1525 -397.80461,22.7863 -520.99041,12.563 z M 649.11186,1706.8698 c 195.25251,-35.9892 601.19994,-30.9348 799.35874,9.9526 44.8001,9.244 85.9001,16.8585 91.3333,16.9212 13.3744,0.1545 -12.0864,-104.8009 -28.6791,-118.2217 -6.7055,-5.4236 -55.9845,-17.1364 -109.5091,-26.0286 -139.1908,-23.1239 -606.26613,-23.5441 -750.44941,-0.6751 -53.75822,8.5266 -102.76239,17.4294 -108.89818,19.7839 -9.04089,3.4693 -40.68167,97.7781 -40.68167,121.2561 0,3.3929 12.69153,3.3875 28.20339,-0.01 15.51186,-3.3996 69.20678,-13.7388 119.32203,-22.9762 z m 47.72882,-194.5141 c 197.08117,-29.8042 534.85912,-25.1903 727.23982,9.9336 42.0159,7.671 77.9526,12.3872 79.8594,10.4803 1.9069,-1.9069 6.9393,-25.6087 11.183,-52.6708 l 7.7159,-49.2038 -57.2024,-12.8975 c -122.8995,-27.7101 -215.9846,-35.1662 -439.033,-35.1662 -223.92949,0 -316.05364,7.4341 -440.82011,35.5727 l -58.98959,13.3039 5.48176,40.4309 c 9.50433,70.0991 9.28518,69.8049 45.51823,61.0961 17.74703,-4.2657 71.31817,-13.6613 119.04699,-20.8792 z m 870.30072,-211.6338 28.2052,-51.3053 -76.1004,-17.4843 c -277.0485,-63.6525 -699.23196,-65.8529 -978.79072,-5.1013 -86.4101,18.778 -86.24551,18.5751 -58.35057,71.9386 21.90243,41.8997 25.91682,45.2546 49.85441,41.6645 14.31865,-2.1475 70.94237,-10.7646 125.83051,-19.1491 77.63183,-11.8589 157.61778,-15.3633 360.13557,-15.7787 258.1251,-0.5294 378.3091,7.8883 470.0626,32.9238 23.0656,6.2936 43.9649,11.9276 46.4429,12.52 2.4779,0.5927 17.1977,-22.0104 32.7105,-50.2282 z"
     id="path20"
     inkscape:connector-curvature="0" />
  <path
     style="fill:#aa0000;fill-opacity:1;stroke-width:8.67796612"
     d="m 545.17481,456.51841 c -98.2783,-50.63299 -95.72312,-184.28376 4.45029,-232.77688 53.74389,-26.01697 101.1103,-17.62428 144.30314,25.56856 57.31547,57.31547 52.86179,142.17807 -10.10451,192.53604 -43.50368,34.79254 -90.03749,39.71689 -138.64892,14.67228 z"
     id="path22"
     inkscape:connector-curvature="0" />
  <path
     style="fill:#aa0000;fill-opacity:1;stroke-width:8.67796612"
     d="m 161.78419,558.79732 c -39.19303,-27.20368 -64.140205,-85.54505 -55.73591,-130.3438 6.65537,-35.47617 39.95853,-78.24942 75.05615,-96.39911 105.38182,-54.49505 226.34374,65.15877 173.59618,171.71891 -25.03664,50.57877 -54.84905,70.06224 -113.05885,73.88795 -40.47781,2.66031 -53.16476,-0.33662 -79.85757,-18.86395 z"
     id="path24"
     inkscape:connector-curvature="0" />
  <path
     style="fill:#aa0000;fill-opacity:1;stroke-width:8.67796612"
     d="m 974.10537,411.75119 c -35.5659,-16.127 -71.4059,-60.29067 -78.16468,-96.31807 -7.95608,-42.40956 2.74678,-79.88455 32.48988,-113.76007 51.56311,-58.72714 134.43053,-56.96409 191.46093,4.07344 31.5899,33.8095 37.1663,51.75721 32.6004,104.9247 -6.8165,79.37485 -104.3602,134.64649 -178.38653,101.08 z"
     id="path26"
     inkscape:connector-curvature="0" />
  <path
     style="fill:#aa0000;fill-opacity:1;stroke-width:8.67796612"
     d="m 1386.6068,456.02712 c -98.4624,-49.90758 -97.2074,-181.27547 2.2046,-230.76986 51.7422,-25.76096 98.9418,-19.8734 141.7087,17.67638 73.6587,64.67324 55.9853,175.00971 -34.6245,216.16261 -46.123,20.94802 -62.8312,20.47881 -109.2888,-3.06913 z"
     id="path28"
     inkscape:connector-curvature="0" />
  <path
     style="fill:#aa0000;fill-opacity:1;stroke-width:8.67796612"
     d="m 1744.6258,562.37908 c -81.8609,-49.9112 -83.457,-160.69556 -3.1874,-221.24303 32.4941,-24.5103 102.7223,-27.05411 137.8545,-4.99337 46.2129,29.01875 64.3204,66.10175 60.5998,124.10457 -3.4319,53.50156 -22.4243,83.05357 -68.9262,107.24846 -33.8091,17.59089 -93.0311,15.19248 -126.3407,-5.11663 z"
     id="path30"
     inkscape:connector-curvature="0" />
</svg>
