<?xml version="1.0" encoding="UTF-8" standalone="no"?>
<svg
   xmlns:dc="http://purl.org/dc/elements/1.1/"
   xmlns:cc="http://creativecommons.org/ns#"
   xmlns:rdf="http://www.w3.org/1999/02/22-rdf-syntax-ns#"
   xmlns:svg="http://www.w3.org/2000/svg"
   xmlns="http://www.w3.org/2000/svg"
   xmlns:sodipodi="http://sodipodi.sourceforge.net/DTD/sodipodi-0.dtd"
   xmlns:inkscape="http://www.inkscape.org/namespaces/inkscape"
   height="100%"
   width="100%"
   version="1.1"
   viewBox="0 0 2048 2048"
   id="svg16"
   sodipodi:docname="bb.svg"
   inkscape:version="1.0.2 (e86c870879, 2021-01-15)">
  <metadata
     id="metadata22">
    <rdf:RDF>
      <cc:Work
         rdf:about="">
        <dc:format>image/svg+xml</dc:format>
        <dc:type
           rdf:resource="http://purl.org/dc/dcmitype/StillImage" />
      </cc:Work>
    </rdf:RDF>
  </metadata>
  <defs
     id="defs20" />
  <sodipodi:namedview
     pagecolor="#ffffff"
     bordercolor="#666666"
     borderopacity="1"
     objecttolerance="10"
     gridtolerance="10"
     guidetolerance="10"
     inkscape:pageopacity="0"
     inkscape:pageshadow="2"
     inkscape:window-width="960"
     inkscape:window-height="530"
     id="namedview18"
     showgrid="false"
     inkscape:zoom="0.43115234"
     inkscape:cx="1024"
     inkscape:cy="1021.6806"
     inkscape:window-x="960"
     inkscape:window-y="550"
     inkscape:window-maximized="0"
     inkscape:current-layer="svg16" />
  <path
     style="color:black;"
     d="m1290 582l-42 102q-102 22-224 22-121 0-222-22l-42-101q124 31 264 31 138 0 266-32zm-84 206l-29 70v27q-76 11-153 11-75 0-152-11l-1-27-27-70q85 15 180 15 96 0 182-15zm-35-378q-40 30-80 95h-32q0-49 23-95h89zm-206 0q23 49 23 95h-32q-39-64-81-95h90zm59-18q-14-57-34-79t-53-46q-36-25-85-42t-109-9l-281 39q-17 2-30 0t-26-2q-21 0-53-9t-51-28l-97 159q18 20 32 28t33 17q58 27 124 33 28 2 55 1t56 2q54-9 108-16t110-16q60 0 81 12 11 6 35 22t48 47q-53 6-108 20t-97 31l104 258q-78 45-109 72t-49 64q-26 46-33 89t-7 77q1 60 28 132t104 130q63 48 123 99t119 119q-74 38-74 121 0 56 39 96t97 40q56 0 96-40t40-96q0-82-74-121 58-68 117-119t125-99q75-57 102-129t29-133q0-34-7-77t-32-89q-20-36-50-63t-108-73l104-258q-44-16-99-30t-106-21q23-31 47-47t36-22q21-12 81-12 54 8 108 15t110 17q27-3 54-2t57-1q64-6 124-33 18-9 32-17t33-28l-98-159q-18 18-50 27t-53 10q-13 0-26 2t-31 0l-280-39q-60-9-111 8t-85 45q-33 27-52 46t-33 77zm-37 744v-85q0-37 37-37t37 37v86h90q35 0 35 36t-35 36h-90v90q0 37-37 37t-37-37v-90h-88q-35 0-35-36t35-36l88-1z"
     fill-rule="nonzero"
     transform="translate(0,2048) scale(1,-1)"
     display="block"
     fill="#000"
     id="path2" />
  <g
     fill-rule="nonzero"
     fill="#fff"
     id="g14">
    <path
       style="color:black;"
       d="m1290 1466-42-102q-102-22-224-22-121 0-222 22l-42 101q124-31 264-31 138 0 266 32z"
       display="block"
       id="path4" />
    <path
       style="color:black;"
       d="m1206 1260-29-70v-27q-76-11-153-11-75 0-152 11l-1 27-27 70q85-15 180-15 96 0 182 15z"
       display="block"
       id="path6" />
    <path
       style="color:black;"
       d="m1171 1638q-40-30-80-95h-32q0 49 23 95h89z"
       display="block"
       id="path8" />
    <path
       style="color:black;"
       d="m965 1638q23-49 23-95h-32q-39 64-81 95h90z"
       display="block"
       id="path10" />
    <path
       style="color:black;"
       d="m987 912v85q0 37 37 37t37-37v-86h90q35 0 35-36t-35-36h-90v-90q0-37-37-37t-37 37v90h-88q-35 0-35 36t35 36l88 1z"
       display="block"
       id="path12" />
  </g>
  <path
     style="color:#000000;stroke-width:0.439802"
     d="m 1023.3939,1234 h 237.3938 q 10.1533,-28.8044 10.1533,-56.4086 0,-62.4095 -41.5801,-113.2172 -41.5802,-50.8077 -107.8184,-74.8114 -31.9104,-2.0003 -31.9104,-28.8044 0,-21.2032 32.3939,-31.2047 44.9646,-26.004 44.9646,-68.8105 0,-30.8046 -25.1415,-54.0082 -25.1415,-23.2035 -60.9198,-26.804 -29.0095,-2.0003 -29.0095,-27.2042 0,-11.2017 10.6368,-20.8031 26.1085,-16.8026 26.1085,-44.0067 0,-22.4034 -19.3396,-38.4059 -19.3396,-16.0024 -45.9316,-16.0024 -27.559,0 -46.4151,16.0024 -18.8561,16.0025 -19.3396,38.4059 0,26.8041 26.1085,44.0067 10.6368,8.8013 10.6368,20.8031 0,25.2039 -28.526,27.2042 -36.2618,3.6005 -60.9198,26.804 -24.658,23.2036 -25.1415,54.0082 0,42.8065 44.9646,68.8105 32.3939,10.4016 32.3939,31.2047 0,26.8041 -32.3939,28.8044 -65.7547,24.0037 -107.3349,74.8114 -41.5802,50.8077 -41.5802,113.2172 0,29.6045 10.1533,56.4086 z m 0,27.2041 H 762.309 q -19.3396,-40.0061 -19.3396,-83.6127 0,-74.0113 50.7665,-132.8202 50.7665,-58.8089 130.5424,-84.0128 -34.3278,-13.202 -55.6014,-39.606 -21.2736,-26.404 -21.7571,-60.4092 0,-42.0063 33.8444,-72.811 33.8443,-30.8047 83.1604,-35.6054 -39.1628,-24.4037 -39.1628,-64.4098 0,-33.6051 28.526,-57.6088 28.5259,-24.0036 70.1061,-24.0036 40.6132,0 69.6226,24.0036 29.0095,24.0037 29.0095,57.6088 0,40.0061 -39.1628,64.4098 49.3161,4.8007 83.1604,35.6054 33.8443,30.8047 33.8443,72.811 0,33.6051 -21.757,60.0092 -21.7571,26.404 -56.0849,40.006 79.7759,25.2039 130.5424,84.0128 50.7665,58.8089 50.7665,132.8202 0,43.2066 -18.8561,83.6127 z"
     fill-rule="nonzero"
     display="block"
     fill="#000000"
     id="path105" />
  <path
     style="color:#000000;stroke-width:0.439802"
     d="m 1023.3939,1234 h 237.3938 q 10.1533,-28.8044 10.1533,-56.4086 0,-62.4095 -41.5801,-113.2172 -41.5802,-50.8077 -107.8184,-74.8114 -31.9104,-2.0003 -31.9104,-28.8044 0,-21.2032 32.3939,-31.2047 44.9646,-26.004 44.9646,-68.8105 0,-30.8046 -25.1415,-54.0082 -25.1415,-23.2035 -60.9198,-26.804 -29.0095,-2.0003 -29.0095,-27.2042 0,-11.2017 10.6368,-20.8031 26.1085,-16.8026 26.1085,-44.0067 0,-22.4034 -19.3396,-38.4059 -19.3396,-16.0024 -45.9316,-16.0024 -27.559,0 -46.4151,16.0024 -18.8561,16.0025 -19.3396,38.4059 0,26.8041 26.1085,44.0067 10.6368,8.8013 10.6368,20.8031 0,25.2039 -28.526,27.2042 -36.2618,3.6005 -60.9198,26.804 -24.658,23.2036 -25.1415,54.0082 0,42.8065 44.9646,68.8105 32.3939,10.4016 32.3939,31.2047 0,26.8041 -32.3939,28.8044 -65.7547,24.0037 -107.3349,74.8114 -41.5802,50.8077 -41.5802,113.2172 0,29.6045 10.1533,56.4086 z"
     fill-rule="nonzero"
     display="block"
     fill="#ffffff"
     id="path107" />
  <path
     style="fill:#ff4500;stroke:#000000;stroke-width:2.31937"
     d="m 786.61006,1230.9819 c -0.59862,-0.9686 -2.74764,-8.1643 -4.77561,-15.9905 -4.82905,-18.6359 -4.82308,-57.2955 0.0119,-77.1943 10.8323,-44.5811 44.25691,-89.5224 88.61357,-119.146 18.6387,-12.4478 48.57838,-26.63989 60.01441,-28.44813 15.0041,-2.37246 23.306,-8.56299 26.27623,-19.59356 4.88144,-18.12824 -2.46759,-29.49211 -26.33365,-40.72 -18.60156,-8.75117 -36.73361,-25.84592 -43.43044,-40.94583 -20.46524,-46.14474 14.63368,-96.40522 74.8846,-107.23223 20.86466,-3.74935 23.906,-4.97737 27.97778,-11.29682 9.68128,-15.02544 6.95602,-26.49636 -10.34119,-43.5271 -7.48608,-7.37075 -15.14979,-17.08408 -17.03047,-21.58519 -7.48275,-17.90875 -1.91432,-37.92905 14.72132,-52.9279 24.73459,-22.30091 62.19649,-23.59895 89.06159,-3.08594 26.1185,19.94299 27.2567,53.99546 2.5243,75.5251 -12.7511,11.09991 -16.9194,18.36592 -16.9367,29.52363 -0.025,16.0273 8.1572,22.96208 32.4311,27.48707 36.4059,6.78655 61.0291,23.63239 74.4801,50.95525 6.7108,13.6317 7.2426,16.34798 6.2448,31.89589 -1.939,30.21459 -18.0443,50.8154 -52.4261,67.06003 -17.1214,8.08949 -23.6137,16.66365 -23.6267,31.20331 -0.012,13.81888 8.109,22.82092 23.5819,26.13928 15.2585,3.27237 45.891,17.63634 64.821,30.39544 20.8111,14.027 49.1637,42.1357 62.3306,61.7945 27.6231,41.2427 36.6843,93.0093 24.119,137.7918 l -3.8394,13.6832 h -236.1328 c -129.87298,0 -236.62251,-0.7925 -237.22113,-1.761 z"
     id="path245" />
</svg>
