<?xml version="1.0" encoding="UTF-8" standalone="no"?>
<svg
   xmlns:dc="http://purl.org/dc/elements/1.1/"
   xmlns:cc="http://creativecommons.org/ns#"
   xmlns:rdf="http://www.w3.org/1999/02/22-rdf-syntax-ns#"
   xmlns:svg="http://www.w3.org/2000/svg"
   xmlns="http://www.w3.org/2000/svg"
   xmlns:sodipodi="http://sodipodi.sourceforge.net/DTD/sodipodi-0.dtd"
   xmlns:inkscape="http://www.inkscape.org/namespaces/inkscape"
   height="100%"
   width="100%"
   version="1.1"
   viewBox="0 0 2048 2048"
   id="svg349"
   sodipodi:docname="bn.svg"
   inkscape:version="1.0.2 (e86c870879, 2021-01-15)">
  <metadata
     id="metadata355">
    <rdf:RDF>
      <cc:Work
         rdf:about="">
        <dc:format>image/svg+xml</dc:format>
        <dc:type
           rdf:resource="http://purl.org/dc/dcmitype/StillImage" />
      </cc:Work>
    </rdf:RDF>
  </metadata>
  <defs
     id="defs353" />
  <sodipodi:namedview
     pagecolor="#ffffff"
     bordercolor="#666666"
     borderopacity="1"
     objecttolerance="10"
     gridtolerance="10"
     guidetolerance="10"
     inkscape:pageopacity="0"
     inkscape:pageshadow="2"
     inkscape:window-width="960"
     inkscape:window-height="1060"
     id="namedview351"
     showgrid="false"
     inkscape:zoom="0.43115234"
     inkscape:cx="1024"
     inkscape:cy="1024"
     inkscape:window-x="0"
     inkscape:window-y="20"
     inkscape:window-maximized="0"
     inkscape:current-layer="svg349" />
  <path
     style="color:black;"
     d="m490 683q4 9 13 27 17 42 17 50-2 28-29 28-20 0-47-57-4-8-12-14-27-28 8-47 32-19 50 13zm590 371q70 92 69 205-4 33-38 33-46 0-36-34 3-55-11-91-23-57-51-85-15-30 18-44 32-15 49 16zm-261 488q-5 36 2 78-60-12-113-56-32-17-15-47 17-31 47-10 21 11 38 20t41 15zm937-1268q-1 0 2 54t3 118q1 125 0 258t-36 267q-34 128-75 218t-89 157q-72 108-196 183t-259 98q4-23 3-47t0-46q97-33 183-82t126-106q48-66 89-156t75-219q34-133 35-266t1-259q0-63-3-117t0-55h141zm-677 1423q157-10 291-81t228-182q66-78 124-188t94-233q40-143 50-300t11-292v-218t-155 0-404 0h-671q-9 0-9 49t7 79q4 24 19 68t50 107q16 32 76 93t138 143q45 46 70 116t22 127q-37-30-81-49-212-76-307-220-7-9-45-81-20-38-34-52-19-19-55-21-56-3-87 54-42-12-75-10-56 21-81 45-51 51-66 102t-16 110q0 84 104 222 122 159 130 242 0 36 7 81 6 31 25 60 13 20 17 27t17 23q9 12 15 18t15 18q11 13 28 30-53 146-43 301 199-71 334-223 33 113 130 183 80-56 127-148zm-675-836q29 20 6 48-24 23-53 4-61-40-65-105 1-33 39-31 36 3 35 37 8 32 38 47zm252 498q22 11 22 11 30 12 19 44-12 30-46 20-118-43-163-158-7-33 24-45 31-10 42 22 8 17 12 22 11-9 29-12 61-10 71 54 3 22-10 42z"
     fill-rule="nonzero"
     transform="translate(0,2048) scale(1,-1)"
     display="block"
     fill="#000"
     id="path333" />
  <g
     fill-rule="nonzero"
     fill="#fff"
     id="g347">
    <path
       style="color:black;"
       d="m490 1365q4-9 13-27 17-42 17-50-2-28-29-28-20 0-47 57-4 8-12 14-27 28 8 47 32 19 50-13z"
       display="block"
       id="path335" />
    <path
       style="color:black;"
       d="m1080 994q70-92 69-205-4-33-38-33-46 0-36 34 3 55-11 91-23 57-51 85-15 30 18 44 32 15 49-16z"
       display="block"
       id="path337" />
    <path
       style="color:black;"
       d="m819 506q-5-36 2-78-60 12-113 56-32 17-15 47 17 31 47 10 21-11 38-20t41-15z"
       display="block"
       id="path339" />
    <path
       style="color:black;"
       d="m1756 1774q-1 0 2-54t3-118q1-125 0-258t-36-267q-34-128-75-218t-89-157q-72-108-196-183t-259-98q4 23 3 47t0 46q97 33 183 82t126 106q48 66 89 156t75 219q34 133 35 266t1 259q0 63-3 117t0 55h141z"
       display="block"
       id="path341" />
    <path
       style="color:black;"
       d="m404 1187q29-20 6-48-24-23-53-4-61 40-65 105 1 33 39 31 36-3 35-37 8-32 38-47z"
       display="block"
       id="path343" />
    <path
       style="color:black;"
       d="m656 689q22-11 22-11 30-12 19-44-12-30-46-20-118 43-163 158-7 33 24 45 31 10 42-22 8-17 12-22 11 9 29 12 61 10 71-54 3-22-10-42z"
       display="block"
       id="path345" />
  </g>
  <path
     style="fill:#ff4500;stroke:#000000;stroke-width:2.31937"
     d="m 1096.5105,1505.8761 c -0.5987,-0.9686 -2.7477,-8.1643 -4.7757,-15.9905 -4.829,-18.6359 -4.823,-57.2955 0.012,-77.1943 10.8323,-44.5811 44.2569,-89.5224 88.6136,-119.146 18.6387,-12.4478 48.5784,-26.6399 60.0144,-28.4482 15.0041,-2.3724 23.306,-8.563 26.2763,-19.5935 4.8814,-18.1283 -2.4676,-29.4921 -26.3337,-40.72 -18.6016,-8.7512 -36.7336,-25.846 -43.4304,-40.9459 -20.4653,-46.1447 14.6336,-96.4052 74.8846,-107.2322 20.8646,-3.7493 23.906,-4.9774 27.9777,-11.2968 9.6813,-15.0255 6.9561,-26.4964 -10.3411,-43.5272 -7.4861,-7.37077 -15.1498,-17.08407 -17.0305,-21.58517 -7.4828,-17.9088 -1.9143,-37.9291 14.7213,-52.9279 24.7346,-22.30091 62.1965,-23.59895 89.0616,-3.08594 26.1185,19.94294 27.2567,53.99544 2.5243,75.52514 -12.7511,11.09997 -16.9194,18.36597 -16.9367,29.52367 -0.025,16.0273 8.1572,22.9621 32.4311,27.4871 36.4059,6.7865 61.0291,23.6323 74.4801,50.9552 6.7108,13.6317 7.2426,16.348 6.2448,31.8959 -1.939,30.2146 -18.0443,50.8154 -52.4261,67.06 -17.1214,8.0895 -23.6137,16.6637 -23.6267,31.2033 -0.012,13.8189 8.109,22.821 23.5819,26.1393 15.2585,3.2724 45.891,17.6364 64.821,30.3955 20.8111,14.027 49.1637,42.1357 62.3306,61.7945 27.6231,41.2427 36.6843,93.0093 24.119,137.7918 l -3.8394,13.6832 h -236.1328 c -129.873,0 -236.6225,-0.7925 -237.2211,-1.761 z"
     id="path245" />
</svg>
