<?xml version="1.0" encoding="UTF-8" standalone="no"?>
<svg
   xmlns:dc="http://purl.org/dc/elements/1.1/"
   xmlns:cc="http://creativecommons.org/ns#"
   xmlns:rdf="http://www.w3.org/1999/02/22-rdf-syntax-ns#"
   xmlns:svg="http://www.w3.org/2000/svg"
   xmlns="http://www.w3.org/2000/svg"
   xmlns:sodipodi="http://sodipodi.sourceforge.net/DTD/sodipodi-0.dtd"
   xmlns:inkscape="http://www.inkscape.org/namespaces/inkscape"
   height="100%"
   width="100%"
   version="1.1"
   viewBox="0 0 2048 2048"
   id="svg527"
   sodipodi:docname="bq.svg"
   inkscape:version="1.0.2 (e86c870879, 2021-01-15)">
  <metadata
     id="metadata533">
    <rdf:RDF>
      <cc:Work
         rdf:about="">
        <dc:format>image/svg+xml</dc:format>
        <dc:type
           rdf:resource="http://purl.org/dc/dcmitype/StillImage" />
      </cc:Work>
    </rdf:RDF>
  </metadata>
  <defs
     id="defs531" />
  <sodipodi:namedview
     pagecolor="#ffffff"
     bordercolor="#666666"
     borderopacity="1"
     objecttolerance="10"
     gridtolerance="10"
     guidetolerance="10"
     inkscape:pageopacity="0"
     inkscape:pageshadow="2"
     inkscape:window-width="960"
     inkscape:window-height="1060"
     id="namedview529"
     showgrid="false"
     inkscape:zoom="0.43115234"
     inkscape:cx="1024"
     inkscape:cy="1024"
     inkscape:window-x="0"
     inkscape:window-y="20"
     inkscape:window-maximized="0"
     inkscape:current-layer="svg527" />
  <path
     style="color:black;"
     d="m1588 793q-83 30-233 49t-333 20q-178 0-326-18t-233-49l50-91q84 25 218 36t293 11q159 0 294-11t219-37l51 90zm226 668q-57 0-97 39t-40 97q0 56 40 96t97 41q56 0 96-40t40-97q0-57-40-96t-96-40zm-1578 0q-57 0-96 39t-40 97q0 56 39 96t97 41q57 0 97-40t40-97q0-57-40-96t-97-40zm1208 110q-57 0-96 39t-40 97q0 56 39 96t97 40q57 0 97-40t40-96q0-57-40-96t-97-40zm-840 0q-57 0-97 39t-40 97q0 56 40 96t97 40q56 0 96-40t40-96q0-57-40-96t-96-40zm1036-1288q-49-43-220-72t-394-29q-227 0-399 30t-217 75l63 240-28 157-88 153-85 622 49 19 274-462 6 550 68 12 209-553 112 595h69l112-593 207 551 69-12 6-550 275 463 47-22-83-619-89-153-28-159 65-243zm-96 32l-30 118q-195 45-490 45-292 0-488-45l-32-119q190 58 521 58 159 0 295-16t224-41zm-26 299q-184 51-490 51-308 0-496-52l15-101q189 49 481 49 291 0 474-48l16 101zm-494 1007q-57 0-96 40t-40 97q0 56 39 96t97 40q56 0 96-40t41-96q0-57-40-97t-97-40z"
     fill-rule="nonzero"
     transform="translate(0,2048) scale(1,-1)"
     display="block"
     fill="#000"
     id="path517" />
  <g
     fill-rule="nonzero"
     fill="#fff"
     id="g525">
    <path
       style="color:black;"
       d="m1588 1255q-83-30-233-49t-333-20q-178 0-326 18t-233 49l50 91q84-25 218-36t293-11 294 11 219 37l51-90z"
       display="block"
       id="path519" />
    <path
       style="color:black;"
       d="m1544 1733-30-118q-195-45-490-45-292 0-488 45l-32 119q190-58 521-58 159 0 295 16t224 41z"
       display="block"
       id="path521" />
    <path
       style="color:black;"
       d="m1518 1434q-184-51-490-51-308 0-496 52l15 101q189-49 481-49 291 0 474 48l16-101z"
       display="block"
       id="path523" />
  </g>
  <path
     style="fill:#ff4500;stroke:#000000;stroke-width:2.31937"
     d="m 770.48633,1780.6946 c -0.5986,-0.9686 -2.7476,-8.1643 -4.7756,-15.9905 -4.8291,-18.6359 -4.8231,-57.2955 0.012,-77.1943 10.8323,-44.5811 44.2569,-89.5224 88.6136,-119.146 18.6387,-12.4478 48.5783,-26.6398 60.0144,-28.4481 15.0041,-2.3724 23.306,-8.563 26.2762,-19.5935 4.8814,-18.1283 -2.4676,-29.4922 -26.3337,-40.72 -18.6015,-8.7512 -36.7336,-25.846 -43.4304,-40.9459 -20.4652,-46.1447 14.6337,-96.4052 74.8846,-107.2322 20.8647,-3.7494 23.906,-4.9774 27.9778,-11.2968 9.6813,-15.0255 6.956,-26.4964 -10.3412,-43.5271 -7.4861,-7.3708 -15.1498,-17.0841 -17.0305,-21.5852 -7.4827,-17.9088 -1.9143,-37.9291 14.7214,-52.9279 24.7345,-22.3009 62.19637,-23.599 89.06147,-3.086 26.1185,19.943 27.2567,53.9955 2.5243,75.5251 -12.7511,11.1 -16.9194,18.366 -16.9367,29.5237 -0.025,16.0273 8.1572,22.9621 32.4311,27.487 36.4059,6.7866 61.0291,23.6324 74.4801,50.9553 6.7108,13.6317 7.2426,16.348 6.2448,31.8959 -1.939,30.2146 -18.0443,50.8154 -52.4261,67.06 -17.1214,8.0895 -23.6137,16.6637 -23.6267,31.2033 -0.012,13.8189 8.109,22.8209 23.5819,26.1393 15.2585,3.2724 45.891,17.6363 64.821,30.3954 20.8111,14.027 49.1637,42.1357 62.3306,61.7945 27.6231,41.2427 36.6843,93.0093 24.119,137.7918 l -3.8394,13.6832 h -236.1328 c -129.87287,0 -236.62247,-0.7925 -237.22107,-1.761 z"
     id="path245" />
</svg>
