<?xml version="1.0" encoding="UTF-8" standalone="no"?>
<svg
   xmlns:dc="http://purl.org/dc/elements/1.1/"
   xmlns:cc="http://creativecommons.org/ns#"
   xmlns:rdf="http://www.w3.org/1999/02/22-rdf-syntax-ns#"
   xmlns:svg="http://www.w3.org/2000/svg"
   xmlns="http://www.w3.org/2000/svg"
   xmlns:sodipodi="http://sodipodi.sourceforge.net/DTD/sodipodi-0.dtd"
   xmlns:inkscape="http://www.inkscape.org/namespaces/inkscape"
   height="100%"
   width="100%"
   version="1.1"
   viewBox="0 0 2048 2048"
   id="svg725"
   sodipodi:docname="br.svg"
   inkscape:version="1.0.2 (e86c870879, 2021-01-15)">
  <metadata
     id="metadata731">
    <rdf:RDF>
      <cc:Work
         rdf:about="">
        <dc:format>image/svg+xml</dc:format>
        <dc:type
           rdf:resource="http://purl.org/dc/dcmitype/StillImage" />
      </cc:Work>
    </rdf:RDF>
  </metadata>
  <defs
     id="defs729" />
  <sodipodi:namedview
     pagecolor="#ffffff"
     bordercolor="#666666"
     borderopacity="1"
     objecttolerance="10"
     gridtolerance="10"
     guidetolerance="10"
     inkscape:pageopacity="0"
     inkscape:pageshadow="2"
     inkscape:window-width="960"
     inkscape:window-height="1060"
     id="namedview727"
     showgrid="false"
     inkscape:zoom="0.43115234"
     inkscape:cx="1024"
     inkscape:cy="1024"
     inkscape:window-x="0"
     inkscape:window-y="20"
     inkscape:window-maximized="0"
     inkscape:current-layer="svg725" />
  <path
     style="color:black;"
     d="m1161 1706h170v137h274v-375l-222-171v-478l170-170v-205h153v-239h-1365v239h153v205l171 170v478l-222 171v375h273v-137h171v137h274v-137zm-597-1246v-102h920v102h-920zm460 1092h-512v-46l73-55h879l71 55v46h-511zm0-169h-350l60-47v-57h580v57l60 47h-350zm0-546h-290v-46l-60-58h700l-60 58v46h-290zm0-172h-414l-46-43v-58h920v58l-46 43h-414z"
     fill-rule="nonzero"
     transform="translate(0,2048) scale(1,-1)"
     display="block"
     fill="#000"
     id="path711" />
  <g
     fill-rule="nonzero"
     fill="#fff"
     id="g723">
    <path
       style="color:black;"
       d="m564 1588v102h920v-102h-920z"
       display="block"
       id="path713" />
    <path
       style="color:black;"
       d="m1024 496h-512v46l73 55h879l71-55v-46h-511z"
       display="block"
       id="path715" />
    <path
       style="color:black;"
       d="m1024 665h-350l60 47v57h580v-57l60-47h-350z"
       display="block"
       id="path717" />
    <path
       style="color:black;"
       d="m1024 1211h-290v46l-60 58h700l-60-58v-46h-290z"
       display="block"
       id="path719" />
    <path
       style="color:black;"
       d="m1024 1383h-414l-46 43v58h920v-58l-46-43h-414z"
       display="block"
       id="path721" />
  </g>
  <path
     style="fill:#ff4500;stroke:#000000;stroke-width:2.31937"
     d="m 781.56521,1287.164 c -0.5986,-0.9686 -2.7476,-8.1643 -4.7756,-15.9905 -4.829,-18.6359 -4.8231,-57.2955 0.012,-77.1943 10.8323,-44.5811 44.2569,-89.5224 88.6136,-119.146 18.6387,-12.4478 48.5784,-26.6399 60.0144,-28.4481 15.0041,-2.3725 23.306,-8.563 26.2762,-19.5936 4.8815,-18.1282 -2.4676,-29.49211 -26.3336,-40.72 -18.6016,-8.75117 -36.7336,-25.84592 -43.4305,-40.94583 -20.4652,-46.14474 14.6337,-96.40522 74.8846,-107.23223 20.8647,-3.74935 23.906,-4.97737 27.9778,-11.29682 9.6813,-15.02544 6.956,-26.49636 -10.3412,-43.5271 -7.486,-7.37075 -15.1498,-17.08408 -17.0304,-21.58519 -7.4828,-17.90875 -1.9144,-37.92905 14.7213,-52.9279 24.7346,-22.30091 62.19649,-23.59895 89.06159,-3.08594 26.1185,19.94299 27.2567,53.99546 2.5243,75.5251 -12.7511,11.09991 -16.9194,18.36592 -16.9367,29.52363 -0.025,16.0273 8.1572,22.96208 32.4311,27.48707 36.4059,6.78655 61.0291,23.63239 74.4801,50.95525 6.7108,13.6317 7.2426,16.34798 6.2448,31.89589 -1.939,30.21459 -18.0443,50.8154 -52.4261,67.06003 -17.1214,8.08949 -23.6137,16.66364 -23.6267,31.20334 -0.012,13.8189 8.109,22.8209 23.5819,26.1393 15.2585,3.2723 45.891,17.6363 64.821,30.3954 20.8111,14.027 49.1637,42.1357 62.3306,61.7945 27.6231,41.2427 36.6843,93.0093 24.119,137.7918 l -3.8394,13.6832 h -236.1328 c -129.87299,0 -236.62249,-0.7925 -237.22119,-1.761 z"
     id="path245" />
</svg>
