<?xml version="1.0" encoding="UTF-8" standalone="no"?>
<svg
   xmlns:dc="http://purl.org/dc/elements/1.1/"
   xmlns:cc="http://creativecommons.org/ns#"
   xmlns:rdf="http://www.w3.org/1999/02/22-rdf-syntax-ns#"
   xmlns:svg="http://www.w3.org/2000/svg"
   xmlns="http://www.w3.org/2000/svg"
   xmlns:sodipodi="http://sodipodi.sourceforge.net/DTD/sodipodi-0.dtd"
   xmlns:inkscape="http://www.inkscape.org/namespaces/inkscape"
   height="100%"
   width="100%"
   version="1.1"
   viewBox="0 0 2048 2048"
   id="svg221"
   sodipodi:docname="wc.svg"
   inkscape:version="1.0.2 (e86c870879, 2021-01-15)">
  <metadata
     id="metadata227">
    <rdf:RDF>
      <cc:Work
         rdf:about="">
        <dc:format>image/svg+xml</dc:format>
        <dc:type
           rdf:resource="http://purl.org/dc/dcmitype/StillImage" />
      </cc:Work>
    </rdf:RDF>
  </metadata>
  <defs
     id="defs225" />
  <sodipodi:namedview
     pagecolor="#ffffff"
     bordercolor="#666666"
     borderopacity="1"
     objecttolerance="10"
     gridtolerance="10"
     guidetolerance="10"
     inkscape:pageopacity="0"
     inkscape:pageshadow="2"
     inkscape:window-width="960"
     inkscape:window-height="1060"
     id="namedview223"
     showgrid="false"
     inkscape:zoom="0.43115234"
     inkscape:cx="1024"
     inkscape:cy="1019.3612"
     inkscape:window-x="0"
     inkscape:window-y="20"
     inkscape:window-maximized="0"
     inkscape:current-layer="svg221"
     inkscape:document-rotation="0" />
  <path
     style="color:black;"
     d="m1024 1166q97 0 186 15 98-35 142-109 38-64 38-141 0-46-23-101t-75-101q-59-49-129-107t-139-137q-70 78-140 136t-128 108q-53 45-75 100t-23 102q0 77 37 141 43 74 143 109 88-15 186-15z"
     fill-rule="nonzero"
     display="block"
     fill="#fff"
     id="path205" />
  <path
     style="color:black;"
     d="m988 1138l-83 1q-34 0-34 34t34 34h83v86q0 35 36 35 35 0 35-35v-86h86q33 0 33-34t-33-34h-86v-82q0-36-35-36-36 0-36 36v81zm36-578q68 0 132 11t125 28q-117 31-257 31-142 0-257-31 58-16 123-27t134-12zm0 1089q68 0 68 68t-68 68-68-68 68-68zm0-949q117 0 225-23l-48 123q-88 14-177 14-91 0-178-14l-48-123q107 23 226 23zm0 182q97 0 186-15 98 35 142 109 38 64 38 141 0 46-23 101t-75 101q-59 49-129 107t-139 137q-70-78-140-136t-128-108q-53-45-75-100t-23-102q0-77 37-141 43-74 143-109 88 15 186 15zm-36-377h-32q-56-90-107-113-24-12-53-22t-67-10q-7 0-107 16-48 7-76 15t-44 10q-57 7-133-6-46-8-86-29l48-78q12 12 31 15t36 8q42 7 80 2 13-3 51-7t101-15q75-11 102-11 105 0 161 40 34 26 64 72t31 113zm36-113q-14-57-34-79t-53-46q-36-25-85-42t-109-9l-281 39q-17 2-30 0t-26-2q-21 0-53-9t-51-28l-97 159q18 20 32 28t33 17q58 27 124 33 28 2 55 1t56 2q54-9 108-16t110-16q60 0 81 12 11 6 35 22t48 47q-53 6-108 20t-97 31l104 258q-78 45-109 72t-49 64q-26 46-33 89t-7 77q1 60 28 132t104 130q63 48 123 99t119 119q-74 38-74 121 0 56 39 96t97 40q56 0 96-40t40-96q0-82-74-121 58-68 117-119t125-99q75-57 102-129t29-133q0-34-7-77t-32-89q-20-36-50-63t-108-73l104-258q-44-16-99-30t-106-21q23-31 47-47t36-22q21-12 81-12 54 8 108 15t110 17q27-3 54-2t57-1q64-6 124-33 18-9 32-17t33-28l-98-159q-18 18-50 27t-53 10q-13 0-26 2t-31 0l-280-39q-60-9-111 8t-85 45q-33 27-52 46t-33 77zm35 113q0-66 30-112t66-73q55-40 161-40 26 0 102 11 62 10 100 14t51 8q38 5 80-2 16-4 35-7t33-16l48 78q-41 21-87 29-76 13-133 6-17-2-44-10t-75-15q-101-16-107-16-39 0-68 10t-52 22q-53 24-108 113h-32z"
     fill-rule="nonzero"
     transform="translate(0,2048) scale(1,-1)"
     display="block"
     fill="#000"
     id="path207" />
  <g
     fill-rule="nonzero"
     fill="#fff"
     id="g219">
    <path
       style="color:black;"
       d="m1024 1488q68 0 132-11t125-28q-117-31-257-31-142 0-257 31 58 16 123 27t134 12z"
       display="block"
       id="path209" />
    <path
       style="color:black;"
       d="m1024 399q68 0 68-68t-68-68-68 68 68 68z"
       display="block"
       id="path211" />
    <path
       style="color:black;"
       d="m1024 1348q117 0 225 23l-48-123q-88-14-177-14-91 0-178 14l-48 123q107-23 226-23z"
       display="block"
       id="path213" />
    <path
       style="color:black;"
       d="m988 1543h-32q-56 90-107 113-24 12-53 22t-67 10q-7 0-107-16-48-7-76-15t-44-10q-57-7-133 6-46 8-86 29l48 78q12-12 31-15t36-8q42-7 80-2 13 3 51 7t101 15q75 11 102 11 105 0 161-40 34-26 64-72t31-113z"
       display="block"
       id="path215" />
    <path
       style="color:black;"
       d="m1059 1543q0 66 30 112t66 73q55 40 161 40 26 0 102-11 62-10 100-14t51-8q38-5 80 2 16 4 35 7t33 16l48-78q-41-21-87-29-76-13-133-6-17 2-44 10t-75 15q-101 16-107 16-39 0-68-10t-52-22q-53-24-108-113h-32z"
       display="block"
       id="path217" />
  </g>
  <path
     style="color:#000000;stroke-width:0.439802"
     d="m 1023.3939,1234 h 237.3938 q 10.1533,-28.8044 10.1533,-56.4086 0,-62.4095 -41.5801,-113.2172 -41.5802,-50.8077 -107.8184,-74.8114 -31.9104,-2.0003 -31.9104,-28.8044 0,-21.2032 32.3939,-31.2047 44.9646,-26.004 44.9646,-68.8105 0,-30.8046 -25.1415,-54.0082 -25.1415,-23.2035 -60.9198,-26.804 -29.0095,-2.0003 -29.0095,-27.2042 0,-11.2017 10.6368,-20.8031 26.1085,-16.8026 26.1085,-44.0067 0,-22.4034 -19.3396,-38.4059 -19.3396,-16.0024 -45.9316,-16.0024 -27.559,0 -46.4151,16.0024 -18.8561,16.0025 -19.3396,38.4059 0,26.8041 26.1085,44.0067 10.6368,8.8013 10.6368,20.8031 0,25.2039 -28.526,27.2042 -36.2618,3.6005 -60.9198,26.804 -24.658,23.2036 -25.1415,54.0082 0,42.8065 44.9646,68.8105 32.3939,10.4016 32.3939,31.2047 0,26.8041 -32.3939,28.8044 -65.7547,24.0037 -107.3349,74.8114 -41.5802,50.8077 -41.5802,113.2172 0,29.6045 10.1533,56.4086 z m 0,27.2041 H 762.309 q -19.3396,-40.0061 -19.3396,-83.6127 0,-74.0113 50.7665,-132.8202 50.7665,-58.8089 130.5424,-84.0128 -34.3278,-13.202 -55.6014,-39.606 -21.2736,-26.404 -21.7571,-60.4092 0,-42.0063 33.8444,-72.811 33.8443,-30.8047 83.1604,-35.6054 -39.1628,-24.4037 -39.1628,-64.4098 0,-33.6051 28.526,-57.6088 28.5259,-24.0036 70.1061,-24.0036 40.6132,0 69.6226,24.0036 29.0095,24.0037 29.0095,57.6088 0,40.0061 -39.1628,64.4098 49.3161,4.8007 83.1604,35.6054 33.8443,30.8047 33.8443,72.811 0,33.6051 -21.757,60.0092 -21.7571,26.404 -56.0849,40.006 79.7759,25.2039 130.5424,84.0128 50.7665,58.8089 50.7665,132.8202 0,43.2066 -18.8561,83.6127 z"
     fill-rule="nonzero"
     display="block"
     fill="#000000"
     id="path105" />
  <path
     style="color:#000000;stroke-width:0.439802"
     d="m 1023.3939,1234 h 237.3938 q 10.1533,-28.8044 10.1533,-56.4086 0,-62.4095 -41.5801,-113.2172 -41.5802,-50.8077 -107.8184,-74.8114 -31.9104,-2.0003 -31.9104,-28.8044 0,-21.2032 32.3939,-31.2047 44.9646,-26.004 44.9646,-68.8105 0,-30.8046 -25.1415,-54.0082 -25.1415,-23.2035 -60.9198,-26.804 -29.0095,-2.0003 -29.0095,-27.2042 0,-11.2017 10.6368,-20.8031 26.1085,-16.8026 26.1085,-44.0067 0,-22.4034 -19.3396,-38.4059 -19.3396,-16.0024 -45.9316,-16.0024 -27.559,0 -46.4151,16.0024 -18.8561,16.0025 -19.3396,38.4059 0,26.8041 26.1085,44.0067 10.6368,8.8013 10.6368,20.8031 0,25.2039 -28.526,27.2042 -36.2618,3.6005 -60.9198,26.804 -24.658,23.2036 -25.1415,54.0082 0,42.8065 44.9646,68.8105 32.3939,10.4016 32.3939,31.2047 0,26.8041 -32.3939,28.8044 -65.7547,24.0037 -107.3349,74.8114 -41.5802,50.8077 -41.5802,113.2172 0,29.6045 10.1533,56.4086 z"
     fill-rule="nonzero"
     display="block"
     fill="#ffffff"
     id="path107" />
  <path
     style="fill:#ffd700;stroke:#000000;stroke-width:2.31937"
     d="m 785.33529,1227.5243 c -9.74309,-25.7496 -9.53618,-75.4183 0.43423,-104.2397 17.0274,-49.221 58.71896,-94.1043 112.48101,-121.092 9.29034,-4.66366 23.38048,-10.1186 31.31144,-12.12214 16.49473,-4.16695 23.95,-9.96235 26.99299,-20.98316 4.76067,-17.24175 -3.2865,-28.14186 -30.25717,-40.98417 -15.44298,-7.35329 -32.81532,-25.02591 -39.75477,-40.44188 -6.96262,-15.46748 -6.62963,-39.31206 0.76821,-55.00893 7.32057,-15.5329 25.81128,-33.64465 42.31065,-41.44352 7.40982,-3.50245 21.70935,-7.81628 31.77673,-9.5863 22.12747,-3.8904 29.27061,-8.1856 32.71125,-19.66944 3.86185,-12.88968 -0.31494,-22.91753 -14.54248,-34.91438 -6.48731,-5.47017 -13.73295,-14.21262 -16.10142,-19.42767 -19.47169,-42.87386 29.41057,-85.01223 80.88504,-69.72596 25.3023,7.51397 42.1649,27.19856 42.2337,49.30156 0.052,16.86989 -3.9117,24.8753 -20.4888,41.37465 -13.6281,13.56417 -14.2602,14.70071 -14.1898,25.51302 0.1165,17.87581 6.3463,22.89837 34.4568,27.77986 24.386,4.23473 43.5129,14.32152 59.1175,31.17639 36.3463,39.25833 22.4957,92.02019 -31.1552,118.68077 -24.1052,11.97859 -31.0676,25.86144 -21.8799,43.62845 4.1713,8.06643 8.7915,10.77775 26.0066,15.26168 33.5766,8.74561 80.5589,39.75687 106.2332,70.12057 16.8062,19.8759 33.0238,49.5489 39.5087,72.2882 5.9518,20.8703 5.9699,65.0623 0.035,85.2367 l -4.2646,14.496 H 1023.6369 787.30985 l -1.97458,-5.2186 z"
     id="path241" />
  <path
     style="fill:#ff4500;stroke:#000000;stroke-width:2.31937"
     d="m 787.56923,1226.0549 c -4.57702,-8.5523 -7.68329,-38.5973 -6.32849,-61.2117 0.97195,-16.2238 3.26611,-28.2071 8.06641,-42.1337 19.36976,-56.1955 80.49237,-112.7137 140.73772,-130.13585 9.02119,-2.6088 16.54683,-6.6698 21.45414,-11.57712 6.52576,-6.52574 7.55875,-9.15096 7.55875,-19.20954 0,-14.762 -5.89207,-22.23601 -25.96283,-32.93363 -18.95927,-10.10519 -34.99319,-25.26747 -42.36612,-40.063 -4.65886,-9.34914 -5.88011,-15.24251 -5.83982,-28.18124 0.0648,-20.82614 5.1233,-32.27392 21.4953,-48.64591 15.36672,-15.36672 26.07478,-20.94664 52.02446,-27.10967 26.07934,-6.19383 32.70052,-9.77432 36.96968,-19.99185 5.59997,-13.40258 2.48515,-22.2022 -14.11551,-39.87765 -8.15181,-8.67958 -15.88522,-19.44147 -17.51151,-24.3692 -8.28526,-25.10458 9.74663,-51.61958 41.35319,-60.80786 29.0758,-8.45257 63.2145,5.46261 74.8017,30.4897 5.1055,11.02733 5.5824,24.00175 1.2603,34.28514 -1.7253,4.10489 -9.5531,14.52932 -17.3952,23.16539 -12.3631,13.61476 -14.2584,16.90894 -14.2584,24.78219 0,19.81895 6.2606,25.41475 35.2585,31.51465 23.019,4.84218 38.8977,12.56268 53.0348,25.78626 40.2788,37.67608 30.2163,90.4208 -22.6091,118.51075 -27.1697,14.44747 -35.28,31.67697 -23.2877,49.47224 4.424,6.5648 9.2103,9.2599 29.3356,16.51834 40.135,14.47516 78.6677,40.81036 103.1623,70.50636 15.4988,18.7899 34.6949,55.7029 38.5005,74.0341 3.429,16.5176 1.9256,73.1082 -2.2319,84.0135 l -2.8738,7.5379 h -233.9475 c -226.75267,0 -234.01934,-0.1343 -236.28547,-4.3686 z"
     id="path64" />
</svg>
