<?xml version="1.0" encoding="UTF-8" standalone="no"?>
<svg
   xmlns:dc="http://purl.org/dc/elements/1.1/"
   xmlns:cc="http://creativecommons.org/ns#"
   xmlns:rdf="http://www.w3.org/1999/02/22-rdf-syntax-ns#"
   xmlns:svg="http://www.w3.org/2000/svg"
   xmlns="http://www.w3.org/2000/svg"
   xmlns:sodipodi="http://sodipodi.sourceforge.net/DTD/sodipodi-0.dtd"
   xmlns:inkscape="http://www.inkscape.org/namespaces/inkscape"
   height="100%"
   width="100%"
   version="1.1"
   viewBox="0 0 2048 2048"
   id="svg361"
   sodipodi:docname="wo.svg"
   inkscape:version="1.0.2 (e86c870879, 2021-01-15)">
  <metadata
     id="metadata367">
    <rdf:RDF>
      <cc:Work
         rdf:about="">
        <dc:format>image/svg+xml</dc:format>
        <dc:type
           rdf:resource="http://purl.org/dc/dcmitype/StillImage" />
      </cc:Work>
    </rdf:RDF>
  </metadata>
  <defs
     id="defs365" />
  <sodipodi:namedview
     pagecolor="#ffffff"
     bordercolor="#666666"
     borderopacity="1"
     objecttolerance="10"
     gridtolerance="10"
     guidetolerance="10"
     inkscape:pageopacity="0"
     inkscape:pageshadow="2"
     inkscape:window-width="960"
     inkscape:window-height="1060"
     id="namedview363"
     showgrid="false"
     inkscape:zoom="0.43115234"
     inkscape:cx="1024"
     inkscape:cy="1021.6806"
     inkscape:window-x="0"
     inkscape:window-y="20"
     inkscape:window-maximized="0"
     inkscape:current-layer="svg361"
     inkscape:document-rotation="0" />
  <path
     style="color:black;"
     d="m1756 1774q-1 0 2-54t3-118q1-125 0-258t-36-267q-34-128-75-218t-89-157q-72-108-196-183t-259-98q9 49 8 96-2 36-34 36-37 0-33-36 3-132-94-226-76 80-82 186-2 35-36 31-32-1-32-37 0 0 2-8-41 13-86 37-29 20-47-10t16-47q43-22 65-33-86-88-196-142 12 139 76 263 17 26-8 46-28 22-47-7-7-10-20-36-21 21-28 31-7 9-24 40t-26 51q-9 25-8 40t3 35q-9 59-40 111t-81 127q-47 72-72 108t-38 92q-9 34 0 82t39 76q46 47 89 43 14 0 37-11t37-42q26-57 43-57 25 0 27 28 0 6-16 50-9 20-24 42-19 26-17 22 16 57 53 20 11-11 25-41t44-81q35-59 75-96t71-60q18-13 44-30t70-35q35-14 77-34t76-53q46-45 71-111 13-37 10-91-9-34 34-34 32 0 36 33 0 113-64 206 21 64 11 140-9 61-42 130t-136 155q-207 172-196 354 0 0 170 0t321 0h547z"
     fill-rule="nonzero"
     display="block"
     fill="#fff"
     id="path357" />
  <path
     style="color:black;"
     d="m697 1359q13-20 10-42-10-64-71-54-18 3-29 12-4-5-12-22-11-32-42-22-31 12-24 45 45 115 163 158 34 10 45-20 12-32-18-44-6-3-11-5t-11-6zm-297-477q-29-18-35-48 1-33-31-36-35-4-36 30 4 66 59 105 26 21 48-4 22-27-5-47zm679 815q157-10 291-81t228-182q66-78 124-188t94-233q40-143 50-300t11-292v-218t-155 0-404 0h-671q-9 0-9 49t7 79q4 24 19 68t50 107q16 32 76 93t138 143q45 46 70 116t22 127q-37-30-81-49-212-76-307-220-7-9-45-81-20-38-34-52-19-19-55-21-56-3-87 54-42-12-75-10-56 21-81 45-51 51-66 102t-16 110q0 84 104 222 122 159 130 242 0 36 7 81 6 31 25 60 13 20 17 27t17 23q9 12 15 18t15 18q11 13 28 30-53 146-43 301 199-71 334-223 33 113 130 183 80-56 127-148zm677-1423q-1 0 2 54t3 118q1 125 0 258t-36 267q-34 128-75 218t-89 157q-72 108-196 183t-259 98q9-49 8-96-2-36-34-36-37 0-33 36 3 132-94 226-76-80-82-186-2-35-36-31-32 1-32 37 0 0 2 8-41-13-86-37-29-20-47 10t16 47q43 22 65 33-86 88-196 142 12-139 76-263 17-26-8-46-28-22-47 7-7 10-20 36-21-21-28-31-7-9-24-40t-26-51q-9-25-8-40t3-35q-9-59-40-111t-81-127q-47-72-72-108t-38-92q-9-34 0-82t39-76q46-47 89-43 14 0 37 11t37 42q26 57 43 57 25 0 27-28 0-6-16-50-9-20-24-42-19-26-17-22 16-57 53-20 11 11 25 41t44 81q35 59 75 96t71 60q18 13 44 30t70 35q35 14 77 34t76 53q46 45 71 111 13 37 10 91-9 34 34 34 32 0 36-33 0-113-64-206 21-64 11-140-9-61-42-130t-136-155q-207-172-196-354 0 0 170 0t321 0h547z"
     fill-rule="nonzero"
     transform="translate(0,2048) scale(1,-1)"
     display="block"
     fill="#000"
     id="path359" />
  <path
     style="fill:#ffd700;stroke:#000000;stroke-width:2.31937"
     d="m 1148.5407,1480.8765 c -9.7431,-25.7496 -9.5362,-75.4183 0.4342,-104.2397 17.0274,-49.221 58.719,-94.1043 112.481,-121.092 9.2904,-4.6636 23.3805,-10.1186 31.3115,-12.1221 16.4947,-4.167 23.95,-9.9624 26.993,-20.9832 4.7606,-17.2417 -3.2865,-28.1418 -30.2572,-40.9841 -15.443,-7.3533 -32.8153,-25.0259 -39.7548,-40.4419 -6.9626,-15.4675 -6.6296,-39.3121 0.7682,-55.0089 7.3206,-15.5329 25.8113,-33.6447 42.3107,-41.4436 7.4098,-3.5024 21.7093,-7.8162 31.7767,-9.5863 22.1275,-3.8904 29.2706,-8.1856 32.7113,-19.6694 3.8618,-12.8897 -0.315,-22.91753 -14.5425,-34.91438 -6.4873,-5.47017 -13.733,-14.21262 -16.1014,-19.42767 -19.4717,-42.87386 29.4105,-85.01223 80.885,-69.72596 25.3023,7.51397 42.1649,27.19856 42.2337,49.30156 0.052,16.86989 -3.9117,24.8753 -20.4888,41.37465 -13.6281,13.56417 -14.2602,14.70071 -14.1898,25.513 0.1165,17.8758 6.3463,22.8984 34.4568,27.7799 24.386,4.2347 43.5129,14.3215 59.1175,31.1764 36.3463,39.2583 22.4957,92.0202 -31.1552,118.6807 -24.1052,11.9786 -31.0676,25.8615 -21.8799,43.6285 4.1713,8.0664 8.7915,10.7777 26.0066,15.2617 33.5766,8.7456 80.5589,39.7568 106.2332,70.1205 16.8062,19.8759 33.0238,49.5489 39.5087,72.2882 5.9518,20.8703 5.9699,65.0623 0.035,85.2367 l -4.2646,14.496 h -236.3273 -236.327 z"
     id="path241" />
  <path
     style="fill:#ff4500;stroke:#000000;stroke-width:2.31937"
     d="m 1149.1634,1475.6965 c -3.9183,-10.3435 -5.6003,-62.4988 -2.5451,-78.9198 3.0371,-16.3238 11.1182,-36.7819 21.5196,-54.4787 9.5463,-16.242 49.5091,-56.969 67.1339,-68.4178 17.7796,-11.5493 42.9057,-23.8919 55.4553,-27.2412 15.452,-4.1239 22.8697,-8.6149 27.9263,-16.9079 10.6886,-17.5299 2.8523,-33.8947 -22.7698,-47.5511 -18.6974,-9.9656 -33.0502,-23.1988 -41.1156,-37.9083 -5.8251,-10.6238 -6.8107,-14.9383 -6.8107,-29.8164 0,-14.873 0.9863,-19.1939 6.8018,-29.8 7.9458,-14.4912 26.0679,-31.6945 39.8758,-37.854 5.3384,-2.3814 18.1433,-6.4296 28.4553,-8.9962 10.312,-2.5665 21.4172,-5.882 24.6784,-7.3679 7.7105,-3.5132 12.5394,-13.1158 12.5394,-24.9355 0,-8.32753 -1.6303,-11.2036 -13.7139,-24.19259 -16.9315,-18.20006 -21.0765,-25.99275 -21.0765,-39.62382 0,-48.76715 72.9975,-68.97499 108.8109,-30.12203 13.1375,14.25245 15.7042,25.8765 10.1693,46.05492 -0.6576,2.39735 -7.8665,12.00788 -16.02,21.35671 -14.3291,16.43009 -14.8243,17.42038 -14.8243,29.64561 0,17.1108 6.1173,22.2355 34.4217,28.8366 11.5521,2.6942 26.1139,7.4879 32.3595,10.6528 15.2021,7.7035 31.218,23.6703 38.967,38.8475 16.9407,33.1798 -0.021,72.7986 -40.4012,94.3736 -14.6091,7.8053 -26.9478,19.6359 -28.8842,27.6946 -1.8001,7.4914 2.4533,21.0957 8.4797,27.1222 2.8225,2.8224 12.8865,7.4871 22.3645,10.366 54.2775,16.4863 106.8759,60.5901 131.5621,110.3152 13.5686,27.331 15.6616,36.7812 15.6671,70.7407 0,18.7396 -1.2518,36.2004 -3.1254,43.4881 l -3.1306,12.1766 h -234.9574 -234.9574 z"
     id="path62" />
</svg>
