<?xml version="1.0" encoding="UTF-8" standalone="no"?>
<svg
   xmlns:dc="http://purl.org/dc/elements/1.1/"
   xmlns:cc="http://creativecommons.org/ns#"
   xmlns:rdf="http://www.w3.org/1999/02/22-rdf-syntax-ns#"
   xmlns:svg="http://www.w3.org/2000/svg"
   xmlns="http://www.w3.org/2000/svg"
   xmlns:sodipodi="http://sodipodi.sourceforge.net/DTD/sodipodi-0.dtd"
   xmlns:inkscape="http://www.inkscape.org/namespaces/inkscape"
   height="100%"
   width="100%"
   version="1.1"
   viewBox="0 0 2048 2048"
   id="svg567"
   sodipodi:docname="wt.svg"
   inkscape:version="1.0.2 (e86c870879, 2021-01-15)">
  <metadata
     id="metadata573">
    <rdf:RDF>
      <cc:Work
         rdf:about="">
        <dc:format>image/svg+xml</dc:format>
        <dc:type
           rdf:resource="http://purl.org/dc/dcmitype/StillImage" />
      </cc:Work>
    </rdf:RDF>
  </metadata>
  <defs
     id="defs571" />
  <sodipodi:namedview
     pagecolor="#ffffff"
     bordercolor="#666666"
     borderopacity="1"
     objecttolerance="10"
     gridtolerance="10"
     guidetolerance="10"
     inkscape:pageopacity="0"
     inkscape:pageshadow="2"
     inkscape:window-width="960"
     inkscape:window-height="1060"
     id="namedview569"
     showgrid="false"
     inkscape:zoom="0.43115234"
     inkscape:cx="1007.5251"
     inkscape:cy="1021.6806"
     inkscape:window-x="0"
     inkscape:window-y="20"
     inkscape:window-maximized="0"
     inkscape:current-layer="svg567"
     inkscape:document-rotation="0" />
  <path
     style="color:black;"
     d="m1024 1621q-57 0-96 40t-40 97q0 56 39 96t97 40q56 0 96-40t41-96q0-57-40-97t-97-40zm0 70q67 0 67 67 0 66-67 66-66 0-66-66 0-67 66-67zm509-1007q-193 49-505 49-320 0-511-50l15-96q195 46 496 46 299 0 488-45l17 96zm25 60 65 115q-48-19-98-19-134 0-214 109-60-50-134-50-96 0-153 75-64-70-153-70-72 0-132 49-84-107-217-107-51 0-101 19l70-120q194 56 533 56 345 0 534-57zm-448 239-85 489-85-483q3 2 14 10 23 45 70 45 51 0 66-45 6-6 20-16zm277-19v463l-165-454q19 7 32 18 20 25 54 25 40 0 64-35 3-4 7-8t8-9zm-562 14-164 449v-457q3 4 9 10 20 42 66 42 38 0 62-32 27-12 27-12zm-254-56-215 371 55-338q57-40 111-40 21 0 49 7zm903-5q23-7 51-7 61 0 114 38l55 346-220-377zm60-506-30 113q-196 43-480 43-281 0-479-43l-31-114q186 56 511 56 317 0 509-55zm106-128q-49-43-220-72t-394-29q-227 0-399 30t-217 75l63 240-28 157-88 153-85 622 49 19 274-462 6 550 68 12 209-553 112 595h69l112-593 207 551 69-12 6-550 275 463 47-22-83-619-89-153-28-159 65-243zm-81 36q-183 76-531 76-355 0-537-78 175-69 534-69 172 0 314 19t220 52zm-955 1252q-57 0-97 39t-40 97q0 56 40 96t97 40q56 0 96-40t40-96q0-57-40-96t-96-40zm0 70q66 0 66 66t-66 66q-67 0-67-66t67-66zm840 0q67 0 67 66t-67 66q-66 0-66-66t66-66zm0-70q-57 0-96 39t-40 97q0 56 39 96t97 40q57 0 97-40t40-96q0-57-40-96t-97-40zm-1208-110q-57 0-96 39t-40 97q0 56 39 96t97 41q57 0 97-40t40-97-40-96-97-40zm0 70q67 0 67 66 0 67-67 67-66 0-66-67 0-66 66-66zm1578 0q66 0 66 66 0 67-66 67-67 0-67-67 0-66 67-66zm0-70q-57 0-97 39t-40 97q0 56 40 96t97 41q56 0 96-40t40-97-40-96-96-40z"
     fill-rule="nonzero"
     transform="translate(0,2048) scale(1,-1)"
     display="block"
     fill="#000"
     id="path535" />
  <g
     fill-rule="nonzero"
     fill="#fff"
     id="g565">
    <path
       style="color:black;"
       d="m1024 357q67 0 67-67 0-66-67-66-66 0-66 66 0 67 66 67z"
       display="block"
       id="path537" />
    <path
       style="color:black;"
       d="m1533 1364q-193-49-505-49-320 0-511 50l15 96q195-46 496-46 299 0 488 45l17-96z"
       display="block"
       id="path539" />
    <path
       style="color:black;"
       d="m1558 1304 65-115q-48 19-98 19-134 0-214-109-60 50-134 50-96 0-153-75-64 70-153 70-72 0-132-49-84 107-217 107-51 0-101-19l70 120q194-56 533-56 345 0 534 57z"
       display="block"
       id="path541" />
    <path
       style="color:black;"
       d="m1110 1065-85-489-85 483q3-2 14-10 23-45 70-45 51 0 66 45 6 6 20 16z"
       display="block"
       id="path543" />
    <path
       style="color:black;"
       d="m1387 1084v-463l-165 454q19-7 32-18 20-25 54-25 40 0 64 35 3 4 7 8t8 9z"
       display="block"
       id="path545" />
    <path
       style="color:black;"
       d="m825 1070-164-449v457q3-4 9-10 20-42 66-42 38 0 62 32 27 12 27 12z"
       display="block"
       id="path547" />
    <path
       style="color:black;"
       d="m571 1126-215-371 55 338q57 40 111 40 21 0 49-7z"
       display="block"
       id="path549" />
    <path
       style="color:black;"
       d="m1474 1131q23 7 51 7 61 0 114-38l55-346-220 377z"
       display="block"
       id="path551" />
    <path
       style="color:black;"
       d="m1534 1637-30-113q-196-43-480-43-281 0-479 43l-31 114q186-56 511-56 317 0 509 55z"
       display="block"
       id="path553" />
    <path
       style="color:black;"
       d="m1559 1729q-183-76-531-76-355 0-537 78 175 69 534 69 172 0 314-19t220-52z"
       display="block"
       id="path555" />
    <path
       style="color:black;"
       d="m604 407q66 0 66-66t-66-66q-67 0-67 66t67 66z"
       display="block"
       id="path557" />
    <path
       style="color:black;"
       d="m1444 407q67 0 67-66t-67-66q-66 0-66 66t66 66z"
       display="block"
       id="path559" />
    <path
       style="color:black;"
       d="m236 517q67 0 67-66 0-67-67-67-66 0-66 67 0 66 66 66z"
       display="block"
       id="path561" />
    <path
       style="color:black;"
       d="m1814 517q66 0 66-66 0-67-66-67-67 0-67 67 0 66 67 66z"
       display="block"
       id="path563" />
  </g>
  <path
     style="fill:#ffd700;stroke:#000000;stroke-width:2.31937"
     d="m 766.06679,1747.1138 c -9.74309,-25.7496 -9.53618,-75.4183 0.43423,-104.2397 17.0274,-49.221 58.71897,-94.1043 112.48097,-121.092 9.2904,-4.6637 23.3805,-10.1186 31.3115,-12.1221 16.4947,-4.167 23.95,-9.9624 26.993,-20.9832 4.7606,-17.2418 -3.2865,-28.1419 -30.2572,-40.9842 -15.443,-7.3533 -32.8153,-25.0259 -39.7548,-40.4419 -6.9626,-15.4674 -6.6296,-39.312 0.7682,-55.0089 7.3206,-15.5329 25.8113,-33.6446 42.3107,-41.4435 7.4098,-3.5025 21.7093,-7.8163 31.7767,-9.5863 22.1275,-3.8904 29.2706,-8.1856 32.7113,-19.6694 3.8618,-12.8897 -0.315,-22.9176 -14.5425,-34.9144 -6.4873,-5.4702 -13.733,-14.2126 -16.1014,-19.4277 -19.4717,-42.8739 29.4105,-85.0122 80.88501,-69.726 25.3023,7.514 42.1649,27.1986 42.2337,49.3016 0.052,16.8699 -3.9117,24.8753 -20.4888,41.3747 -13.6281,13.5641 -14.2602,14.7007 -14.1898,25.513 0.1165,17.8758 6.3463,22.8983 34.4568,27.7798 24.386,4.2348 43.5129,14.3216 59.1175,31.1764 36.3463,39.2584 22.4957,92.0202 -31.1552,118.6808 -24.1052,11.9786 -31.0676,25.8614 -21.8799,43.6284 4.1713,8.0665 8.7915,10.7778 26.0066,15.2617 33.5766,8.7456 80.5589,39.7569 106.2332,70.1206 16.8062,19.8759 33.0238,49.5489 39.5087,72.2882 5.9518,20.8703 5.9699,65.0623 0.035,85.2367 l -4.2646,14.496 H 1004.3684 768.04135 l -1.97458,-5.2186 z"
     id="path241" />
  <path
     style="fill:#ff4500;stroke:#000000;stroke-width:2.31937"
     d="m 766.03264,1738.9445 c -2.04424,-7.0365 -3.20063,-22.7489 -3.20063,-43.4881 0,-27.1056 0.84987,-35.1539 5.14323,-48.7067 17.82851,-56.279 74.84799,-111.2848 137.83883,-132.9708 27.2599,-9.3849 32.51788,-14.2421 33.93657,-31.3497 0.96713,-11.6623 0.54009,-12.9287 -6.84952,-20.3123 -4.33453,-4.331 -14.17794,-11.2273 -21.87423,-15.3252 -15.92857,-8.481 -36.43809,-28.9004 -41.9958,-41.8113 -2.14318,-4.9788 -3.79489,-15.2613 -3.84847,-23.9582 -0.11936,-19.3729 7.83846,-36.6326 23.75361,-51.5194 14.5667,-13.6254 25.84312,-19.213 50.67825,-25.1113 32.21754,-7.6516 37.75886,-12.2489 37.75886,-31.3258 0,-10.7349 -4.35178,-18.4664 -17.4741,-31.0453 -12.6076,-12.0855 -17.31638,-21.5508 -17.31638,-34.8084 0,-38.2531 52.70912,-62.7964 91.86054,-42.7736 23.719,12.1303 35.5433,34.9533 28.7591,55.5097 -1.5297,4.6351 -9.4643,16.2913 -17.6325,25.9027 -13.4371,15.8113 -14.8512,18.4631 -14.8512,27.8492 0,18.9853 5.0368,22.9934 38.8796,30.9388 45.1097,10.5904 73.5005,40.1907 73.4161,76.5435 -0.061,26.0959 -16.0699,49.1824 -45.8756,66.1559 -23.5171,13.3923 -29.3103,20.0439 -29.3103,33.6537 0,17.2006 7.961,24.902 33.6308,32.5339 21.6634,6.4407 49.5993,22.5207 75.4881,43.4513 28.168,22.7733 49.4117,52.3235 61.7808,85.9378 6.0464,16.4319 6.5318,20.2503 6.5318,51.3818 0,21.7253 -1.1331,37.5309 -3.2006,44.6478 l -3.2007,11.017 H 1004.0461 769.23328 Z"
     id="path60" />
</svg>
