<?xml version="1.0" encoding="UTF-8" standalone="no"?>
<svg
   xmlns:dc="http://purl.org/dc/elements/1.1/"
   xmlns:cc="http://creativecommons.org/ns#"
   xmlns:rdf="http://www.w3.org/1999/02/22-rdf-syntax-ns#"
   xmlns:svg="http://www.w3.org/2000/svg"
   xmlns="http://www.w3.org/2000/svg"
   xmlns:sodipodi="http://sodipodi.sourceforge.net/DTD/sodipodi-0.dtd"
   xmlns:inkscape="http://www.inkscape.org/namespaces/inkscape"
   height="100%"
   width="100%"
   version="1.1"
   viewBox="0 0 2048 2048"
   id="svg749"
   sodipodi:docname="wu.svg"
   inkscape:version="1.0.2 (e86c870879, 2021-01-15)">
  <metadata
     id="metadata755">
    <rdf:RDF>
      <cc:Work
         rdf:about="">
        <dc:format>image/svg+xml</dc:format>
        <dc:type
           rdf:resource="http://purl.org/dc/dcmitype/StillImage" />
      </cc:Work>
    </rdf:RDF>
  </metadata>
  <defs
     id="defs753" />
  <sodipodi:namedview
     pagecolor="#ffffff"
     bordercolor="#666666"
     borderopacity="1"
     objecttolerance="10"
     gridtolerance="10"
     guidetolerance="10"
     inkscape:pageopacity="0"
     inkscape:pageshadow="2"
     inkscape:window-width="960"
     inkscape:window-height="1060"
     id="namedview751"
     showgrid="false"
     inkscape:zoom="0.43115234"
     inkscape:cx="1024"
     inkscape:cy="1024"
     inkscape:window-x="0"
     inkscape:window-y="20"
     inkscape:window-maximized="0"
     inkscape:current-layer="svg749"
     inkscape:document-rotation="0" />
  <path
     style="color:black;"
     d="m1161 1706h170v137h274v-375l-222-171v-478l170-170v-205h153v-239h-1365v239h153v205l171 170v478l-222 171v375h273v-137h171v137h274v-137zm478-1330h-1230v-103h1230v103zm-155 204h-920v-136h920v136zm-170 717h-580v-478h580v478zm222 239v239h-137v-137h-308v137h-135v-137h-307v137h-137v-239h1024zm-77-887l-103 102h-663l-105-102h871zm-110 716l127 103h-904l128-103h649z"
     fill-rule="nonzero"
     transform="translate(0,2048) scale(1,-1)"
     display="block"
     fill="#000"
     id="path733" />
  <g
     fill-rule="nonzero"
     fill="#fff"
     id="g743">
    <path
       style="color:black;"
       d="m1639 1672h-1230v103h1230v-103z"
       display="block"
       id="path735" />
    <path
       style="color:black;"
       d="m1484 1468h-920v136h920v-136z"
       display="block"
       id="path737" />
    <path
       style="color:black;"
       d="m1314 751h-580v478h580v-478z"
       display="block"
       id="path739" />
    <path
       style="color:black;"
       d="m1536 512v-239h-137v137h-308v-137h-135v137h-307v-137h-137v239h1024z"
       display="block"
       id="path741" />
  </g>
  <path
     style="color:black;"
     d="m1459 1399-103-102h-663l-105 102h871z"
     fill-rule="nonzero"
     display="block"
     fill="#fff"
     id="path745" />
  <path
     style="color:black;"
     d="m1349 683 127-103h-904l128 103h649z"
     fill-rule="nonzero"
     display="block"
     fill="#fff"
     id="path747" />
  <path
     style="fill:#ffd700;stroke:#000000;stroke-width:2.31937"
     d="m 784.71719,1277.1145 c -9.7431,-25.7496 -9.5362,-75.4183 0.4342,-104.2397 17.0274,-49.221 58.719,-94.1043 112.4811,-121.092 9.2903,-4.6636 23.3804,-10.1186 31.3114,-12.1221 16.4947,-4.167 23.95,-9.9624 26.993,-20.9832 4.7606,-17.2417 -3.2865,-28.14185 -30.2572,-40.98416 -15.443,-7.35329 -32.8153,-25.02591 -39.7548,-40.44188 -6.9626,-15.46748 -6.6296,-39.31206 0.7682,-55.00893 7.3206,-15.5329 25.8113,-33.64465 42.3107,-41.44352 7.4098,-3.50245 21.7093,-7.81628 31.7767,-9.5863 22.1275,-3.8904 29.2706,-8.1856 32.7113,-19.66944 3.8618,-12.88968 -0.315,-22.91753 -14.5425,-34.91438 -6.4873,-5.47017 -13.7329,-14.21262 -16.1014,-19.42767 -19.4717,-42.87386 29.4105,-85.01223 80.88501,-69.72596 25.3023,7.51397 42.1649,27.19856 42.2337,49.30156 0.052,16.86989 -3.9117,24.8753 -20.4888,41.37465 -13.6281,13.56417 -14.2602,14.70071 -14.1898,25.51302 0.1165,17.87581 6.3463,22.89837 34.4568,27.77986 24.386,4.23473 43.5129,14.32152 59.1175,31.17639 36.3463,39.25833 22.4957,92.02019 -31.1552,118.68077 -24.1052,11.97859 -31.0676,25.86149 -21.8799,43.62849 4.1713,8.0664 8.7915,10.7777 26.0066,15.2616 33.5766,8.7457 80.5589,39.7569 106.2332,70.1206 16.8062,19.8759 33.0238,49.5489 39.5087,72.2882 5.9518,20.8703 5.9699,65.0623 0.035,85.2367 l -4.2646,14.496 H 1023.0188 786.69179 Z"
     id="path241" />
  <path
     style="fill:#ff4500;stroke:#000000;stroke-width:2.31937"
     d="m 785.2553,1271.5923 c -4.06248,-11.987 -5.82848,-61.3888 -2.77975,-77.7601 11.69837,-62.819 73.83902,-128.1451 142.9514,-150.2795 8.92956,-2.8598 18.63727,-6.7576 21.57268,-8.6617 12.70738,-8.243 15.9225,-28.5803 6.47614,-40.96517 -3.0701,-4.0251 -12.2026,-10.84202 -20.29445,-15.14873 -18.59776,-9.8982 -37.3764,-27.53071 -44.12628,-41.43311 -7.64093,-15.73759 -7.21655,-39.09438 0.99999,-55.03816 6.77722,-13.15084 26.95376,-32.86501 39.9453,-39.0299 4.66275,-2.21262 18.11127,-6.4084 29.88559,-9.32396 24.02185,-5.94829 30.20029,-9.04498 33.79727,-16.9395 3.24555,-7.12322 3.17124,-20.454 -0.14962,-26.84105 -1.44874,-2.78636 -8.22686,-10.98366 -15.06249,-18.21622 -13.92096,-14.72933 -17.09396,-21.1847 -17.09396,-34.77719 0,-28.6263 33.23174,-53.37062 66.99678,-49.88576 26.3469,2.71923 51.2091,22.2316 54.7069,42.93503 2.5974,15.37372 -2.1657,26.82361 -18.6148,44.74786 -14.3841,15.67409 -14.953,16.75281 -14.953,28.35175 0,19.7628 4.0108,23.01976 38.7263,31.44799 23.6901,5.75149 35.3618,11.6345 49.7108,25.05634 15.9917,14.95829 24.0994,32.50552 23.8786,51.67954 -0.3068,26.64054 -14.9734,46.88315 -48.8403,67.40872 -23.1356,14.02171 -27.2819,19.65229 -25.8032,35.04062 1.5248,15.8695 7.2715,20.983 33.8871,30.1533 37.0253,12.7571 79.1734,41.3105 101.5781,68.8146 13.6427,16.7479 27.0175,39.6162 34.8058,59.5114 5.8956,15.0603 6.3644,18.7541 6.4769,51.0261 0.08,23.0497 -0.9588,38.5083 -3.0794,45.8074 l -3.2006,11.017 H 1022.928 788.20298 Z"
     id="path58" />
</svg>
