<?xml version="1.0" encoding="UTF-8" standalone="no"?>
<svg
   xmlns:dc="http://purl.org/dc/elements/1.1/"
   xmlns:cc="http://creativecommons.org/ns#"
   xmlns:rdf="http://www.w3.org/1999/02/22-rdf-syntax-ns#"
   xmlns:svg="http://www.w3.org/2000/svg"
   xmlns="http://www.w3.org/2000/svg"
   xmlns:sodipodi="http://sodipodi.sourceforge.net/DTD/sodipodi-0.dtd"
   xmlns:inkscape="http://www.inkscape.org/namespaces/inkscape"
   width="60px"
   height="60px"
   viewBox="0 0 60 60"
   version="1.1"
   id="svg16"
   sodipodi:docname="bc.svg"
   inkscape:version="0.92.2 2405546, 2018-03-11">
  <sodipodi:namedview
     pagecolor="#ffffff"
     bordercolor="#666666"
     borderopacity="1"
     objecttolerance="10"
     gridtolerance="10"
     guidetolerance="10"
     inkscape:pageopacity="0"
     inkscape:pageshadow="2"
     inkscape:window-width="960"
     inkscape:window-height="1200"
     id="namedview18"
     showgrid="false"
     inkscape:zoom="3.9333333"
     inkscape:cx="30.508475"
     inkscape:cy="30"
     inkscape:window-x="0"
     inkscape:window-y="0"
     inkscape:window-maximized="0"
     inkscape:current-layer="svg16" />
  <title
     id="title2">20 -Camel- (Solid)</title>
  <desc
     id="desc4">Created with Sketch.</desc>
  <defs
     id="defs6" />
  <g
     id="Page-1"
     transform="matrix(0.86016899,0,0,0.8898266,4.5763559,3.8144655)"
     style="fill:none;fill-rule:evenodd;stroke:none;stroke-width:1">
    <g
       id="Icons"
       transform="translate(-1200,-491)"
       style="fill:#000000">
      <g
         id="20--Camel--(Solid)"
         transform="translate(1200,491)">
        <path
           d="m 38,16.0061 c -0.553,0 -1,-0.448 -1,-1 0,-0.552 0.447,-1 1,-1 0.553,0 1,0.448 1,1 0,0.552 -0.447,1 -1,1 m 0,-4 c -1.654,0 -3,1.346 -3,3 0,1.654 1.346,3 3,3 1.654,0 3,-1.346 3,-3 0,-1.654 -1.346,-3 -3,-3"
           id="Fill-129"
           inkscape:connector-curvature="0" />
        <path
           d="m 38,20.0061 c -2.757,0 -5,-2.243 -5,-5 0,-2.757 2.243,-5 5,-5 2.757,0 5,2.243 5,5 0,2.757 -2.243,5 -5,5 z m -2,5 c -1.103,0 -2,0.897 -2,2 0,0.552 -0.447,1 -1,1 -0.553,0 -1,-0.448 -1,-1 0,-2.206 1.794,-4 4,-4 0.553,0 1,0.448 1,1 0,0.552 -0.447,1 -1,1 z m -4,31 c 0,1.103 -0.897,2 -2,2 -1.103,0 -2,-0.897 -2,-2 v -1.402 -2.896 c 0.017,0.005 0.033,0.006 0.05,0.011 0.283,0.081 0.564,0.141 0.844,0.186 0.071,0.013 0.143,0.024 0.214,0.033 0.3,0.04 0.598,0.068 0.892,0.068 0.306,0 0.613,-0.029 0.921,-0.07 0.049,-0.007 0.097,-0.014 0.145,-0.022 0.31,-0.049 0.621,-0.112 0.934,-0.203 v 2.902 z m -9,-32 c 0,-0.552 0.447,-1 1,-1 2.206,0 4,1.794 4,4 0,0.552 -0.447,1 -1,1 -0.553,0 -1,-0.448 -1,-1 0,-1.103 -0.897,-2 -2,-2 -0.553,0 -1,-0.448 -1,-1 z m -1,-4 c -2.757,0 -5,-2.243 -5,-5 0,-2.757 2.243,-5 5,-5 2.757,0 5,2.243 5,5 0,2.757 -2.243,5 -5,5 z m 7.999,18.586 3.288,-3.293 c 0.391,-0.391 1.025,-0.39 1.415,-0.001 0.391,0.391 0.391,1.024 0.001,1.415 L 31,40.4201 v 2.586 c 0,0.552 -0.447,1 -1,1 -0.553,0 -1,-0.448 -1,-1 v -2.585 l -3.712,-3.707 c -0.391,-0.391 -0.391,-1.024 -0.001,-1.415 0.391,-0.391 1.025,-0.39 1.415,-0.001 z m 28.637,-34.03 c -4.956,-2.982 -10.835,-1.168 -15.124,1.07 -0.813,-0.874 -1.718,-1.656 -2.7,-2.333 -6.372,-4.388 -15.268,-4.388 -21.635,10e-4 -0.982,0.677 -1.884,1.457 -2.693,2.325 -4.288,-2.235 -10.166,-4.043 -15.121,-1.061 -0.872,0.525 -1.393,1.473 -1.361,2.475 0.067,2.141 0.775,7.202 5.867,7.956 0.037,0.006 0.074,0.009 0.112,0.011 0.152,0.004 3.268,0.105 6.233,-0.326 -0.172,1.08 -0.263,2.204 -0.273,3.357 -0.031,3.825 0.882,7.683 2.713,11.467 1.394,2.881 2.374,5.313 2.899,7.142 1.59,-2.21 3.447,-5.64 3.447,-9.64 0,-0.552 0.447,-1 1,-1 0.553,0 1,0.448 1,1 0,5.663 -3.149,10.168 -5.006,12.335 l 0.001,1.709 c 0.122,2.762 1.08,11.7 8.005,14.253 v 0.703 c 0,2.206 1.794,4 4,4 2.206,0 4,-1.794 4,-4 v -0.689 c 7.035,-2.534 7.903,-11.507 7.994,-14.311 v -1.146 c -2.137,-2.959 -4.999,-7.851 -4.999,-12.854 0,-0.552 0.447,-1 1,-1 0.553,0 1,0.448 1,1 0,3.538 1.698,7.13 3.39,9.833 0.509,-1.854 1.507,-4.353 2.951,-7.335 1.831,-3.783 2.743,-7.642 2.712,-11.469 -0.01,-1.154 -0.101,-2.278 -0.273,-3.359 2.973,0.435 6.101,0.333 6.253,0.33 0.038,-0.002 0.076,-0.005 0.113,-0.011 5.084,-0.753 5.791,-5.816 5.858,-7.957 0.032,-1.002 -0.49,-1.95 -1.363,-2.476 z"
           id="Fill-131"
           inkscape:connector-curvature="0" />
        <path
           d="m 22,16.0061 c -0.553,0 -1,-0.448 -1,-1 0,-0.552 0.447,-1 1,-1 0.553,0 1,0.448 1,1 0,0.552 -0.447,1 -1,1 m 0,-4 c -1.654,0 -3,1.346 -3,3 0,1.654 1.346,3 3,3 1.654,0 3,-1.346 3,-3 0,-1.654 -1.346,-3 -3,-3"
           id="Fill-134"
           inkscape:connector-curvature="0" />
      </g>
    </g>
  </g>
  <metadata
     id="metadata14">
    <rdf:RDF>
      <rdf:Description
         about="https://iconscout.com/legal#licenses"
         dc:title="camel,animal,wildlife"
         dc:description="camel,animal,wildlife"
         dc:publisher="Iconscout"
         dc:date="2017-07-28"
         dc:format="image/svg+xml"
         dc:language="en">
        <dc:creator>
          <rdf:Bag>
            <rdf:li>Smashicons .</rdf:li>
          </rdf:Bag>
        </dc:creator>
      </rdf:Description>
      <cc:Work
         rdf:about="">
        <dc:format>image/svg+xml</dc:format>
        <dc:type
           rdf:resource="http://purl.org/dc/dcmitype/StillImage" />
      </cc:Work>
    </rdf:RDF>
  </metadata>
</svg>
