<?xml version="1.0" encoding="UTF-8"?><svg xmlns="http://www.w3.org/2000/svg" xmlns:xlink="http://www.w3.org/1999/xlink" version="1.1" id="Layer_1" x="0px" y="0px" viewBox="0 0 64 64" xml:space="preserve"><g id="wildebeest__x5F_line"><path d="M63.2 42c-.5-.1-.9.2-1.1.6-.4 1.2-1.2 2.3-1.6 2.3-.8 0-1.5-.7-1.5-1.5V28.1c1-.4 1.9-1 2.7-1.8 1.4-1.4 2.2-3.4 2.3-5.3 0-.3-.1-.5-.3-.7-.2-.2-.4-.3-.7-.3h-4v-6.5C59 6.1 52.9 0 45.5 0c-7.6 0-11.3 3.7-13.1 7h-.8c-1.8-3.3-5.5-7-13.1-7C11.1 0 5 6.1 5 13.5V20H1c-.3 0-.5.1-.7.3-.2.2-.3.5-.3.8.1 1.9 1 3.8 2.3 5.3.8.8 1.7 1.4 2.7 1.7v15.3c0 .9-.7 1.6-1.5 1.6-.3 0-1.1-1.1-1.6-2.3-.2-.5-.6-.7-1.1-.6-.5 0-.8.4-.8.9v2.5c0 2 .8 3.9 2.3 5.2C3.4 51.8 5.5 53 9 53h1.1c7.9-.6 7.9-5.4 7.9-7.5v-.6c.1 0 .2.1.3.1L24 59.2c.1 2.9 2.4 4.8 6 4.8h4c3.6 0 5.9-1.9 6-4.8l5.7-14.3c.1 0 .2-.1.3-.1v.6c0 2.1 0 6.9 7.9 7.5H55c3.4 0 5.5-1.2 6.7-2.3 1.5-1.4 2.3-3.2 2.3-5.2V43c0-.5-.3-.9-.8-1zm-9.1 9c-6.1-.5-6.1-3.5-6.1-5.5V44v-.2c1.9-1.6 3-4.6 3-6.8V25.7c.1.2.2.3.4.5 1.3 1.4 3.1 2.3 5 2.4h.6v14.9c0 1.9 1.6 3.5 3.5 3.5.5 0 1-.2 1.4-.5-.2 1.1-.7 2-1.5 2.8-1.5 1.3-3.6 1.9-6.3 1.7zM35.2 61.9c-.4.1-.7.1-.9.1h-4.6c-.3 0-.6 0-.9-.1-.8-.1-1.7-.5-2.3-1.2-.3-.4-.5-1-.5-1.7h12c0 .7-.2 1.3-.5 1.7-.6.7-1.5 1.1-2.3 1.2zM16 44v1.5c0 2 0 5.1-6.1 5.5-2.7.2-4.9-.4-6.3-1.7-.8-.8-1.3-1.7-1.5-2.8.4.3.9.5 1.4.5C5.4 47 7 45.4 7 43.5V28.6h.6c1.9-.1 3.7-1 5-2.4.1-.2.3-.3.4-.5V37c0 2.2 1.2 5.1 3 6.8v.2zM5 22h7.4c-.1 1-.6 2-1.3 2.8-.9 1-2.2 1.7-3.6 1.7H7c-.3 0-.7-.1-1-.2-.3-.1-.7-.3-1-.5-.4-.3-.8-.6-1.2-1-.8-.8-1.4-1.9-1.6-3H5zm2-8.5C7 7.2 12.2 2 18.5 2c4.9 0 8.5 1.7 10.8 5H19c-3.3 0-6 2.7-6 6v7H7v-6.5zM45.5 2C51.8 2 57 7.2 57 13.5V20h-6v-7c0-3.3-2.7-6-6-6H34.7c2.3-3.3 5.9-5 10.8-5zM59 25.9c-.3.2-.7.3-1 .5-.3.1-.7.2-1 .2h-.5c-1.4-.1-2.7-.7-3.6-1.7-.7-.9-1.2-1.9-1.3-2.9h10.2c-.3 1.1-.8 2.1-1.6 3-.4.3-.8.7-1.2.9zM33.4 9H45c2.2 0 4 1.8 4 4v7h-5c-2.2 0-4.1 1.2-5.2 3-.5.9-.8 1.9-.8 3v20h-1c-2.1 0-3.9 1.1-5 2.7-1.1-1.6-2.9-2.7-5-2.7h-1V26c0-1.1-.3-2.1-.8-3-1-1.8-3-3-5.2-3h-5v-7c0-2.2 1.8-4 4-4H33.4zM29 50h-2.9c-.1-.3-.1-.7-.1-1v-1h1c2.2 0 4 1.8 4 4v1h-1c-1 0-1.9-.4-2.6-1H29c.6 0 1-.4 1-1s-.4-1-1-1zm4 2c0-2.2 1.8-4 4-4h1v1c0 .3-.1.7-.1 1H35c-.6 0-1 .4-1 1s.4 1 1 1h1.6c-.7.6-1.6 1-2.6 1h-1v-1zm-15.4-9.6c-1.4-1-2.6-3.5-2.6-5.4V22h5c2.2 0 4 1.8 4 4v23c0 1.2.4 2.4 1 3.3 1.1 1.6 2.9 2.7 5 2.7h1v2h-5.7l-.3-.7-5.1-12.7c-.1-.4-.5-.6-.9-.6-.5 0-.9-.2-1.4-.6zm26.5 1.2L39 56.3l-.3.7H33v-2h1c2.1 0 3.9-1.1 5-2.7.6-1 1-2.1 1-3.3V26c0-2.2 1.8-4 4-4h5v15c0 1.9-1.2 4.4-2.6 5.4-.5.4-.9.6-1.4.6-.4 0-.8.2-.9.6z"/><circle cx="19" cy="28" r="2"/><circle cx="45" cy="28" r="2"/><path d="M28 13c-.6 0-1 .4-1 1s.4 1 1 1h9c.6 0 1-.4 1-1s-.4-1-1-1h-9z"/><path d="M37 17h-9c-.2 0-.4.1-.6.2-.2.2-.4.5-.4.8v.2c.1.5.5.8 1 .8h9c.1 0 .2 0 .3-.1.4-.1.7-.5.7-.9 0-.6-.4-1-1-1z"/></g><metadata><rdf:RDF xmlns:rdf="http://www.w3.org/1999/02/22-rdf-syntax-ns#" xmlns:rdfs="http://www.w3.org/2000/01/rdf-schema#" xmlns:dc="http://purl.org/dc/elements/1.1/"><rdf:Description about="https://iconscout.com/legal#licenses" dc:title="wildebeest" dc:description="wildebeest" dc:publisher="Iconscout" dc:date="2017-09-06" dc:format="image/svg+xml" dc:language="en"><dc:creator><rdf:Bag><rdf:li>Madeby Grids</rdf:li></rdf:Bag></dc:creator></rdf:Description></rdf:RDF></metadata></svg>