<?xml version="1.0" encoding="UTF-8" standalone="no"?>
<svg
   xmlns:dc="http://purl.org/dc/elements/1.1/"
   xmlns:cc="http://creativecommons.org/ns#"
   xmlns:rdf="http://www.w3.org/1999/02/22-rdf-syntax-ns#"
   xmlns:svg="http://www.w3.org/2000/svg"
   xmlns="http://www.w3.org/2000/svg"
   xmlns:sodipodi="http://sodipodi.sourceforge.net/DTD/sodipodi-0.dtd"
   xmlns:inkscape="http://www.inkscape.org/namespaces/inkscape"
   height="100%"
   width="100%"
   version="1.1"
   viewBox="0 0 2048 2048"
   id="svg16"
   sodipodi:docname="bh.svg"
   inkscape:version="1.0.2 (e86c870879, 2021-01-15)">
  <metadata
     id="metadata22">
    <rdf:RDF>
      <cc:Work
         rdf:about="">
        <dc:format>image/svg+xml</dc:format>
        <dc:type
           rdf:resource="http://purl.org/dc/dcmitype/StillImage" />
      </cc:Work>
    </rdf:RDF>
  </metadata>
  <defs
     id="defs20" />
  <sodipodi:namedview
     pagecolor="#ffffff"
     bordercolor="#666666"
     borderopacity="1"
     objecttolerance="10"
     gridtolerance="10"
     guidetolerance="10"
     inkscape:pageopacity="0"
     inkscape:pageshadow="2"
     inkscape:window-width="960"
     inkscape:window-height="1060"
     id="namedview18"
     showgrid="false"
     inkscape:zoom="0.43115234"
     inkscape:cx="1024"
     inkscape:cy="1024"
     inkscape:window-x="0"
     inkscape:window-y="20"
     inkscape:window-maximized="0"
     inkscape:current-layer="svg16"
     inkscape:document-rotation="0" />
  <path
     style="color:#000000"
     d="m 1290,564.11538 -42,102 q -102,22 -224,22 -121,0 -222,-22 l -42,-101 q 124,31 264,31 138,0 266,-32 z m -84,206 -29,70 v 27 q -76,11 -153,11 -75,0 -152,-11 l -1,-27 -27,-70 q 85,15 180,15 96,0 182,-15 z m -35,-378 q -40,30 -80,95 h -32 q 0,-49 23,-95 z m -206,0 q 23,49 23,95 h -32 q -39,-64 -81,-95 z m 59,-18 q -14,-57 -34,-79 -20,-22 -53,-46 -36,-25 -85,-42 -49,-17 -109,-9 l -281,39 q -17,2 -30,0 -13,-2 -26,-2 -21,0 -53,-9 -32,-9 -51,-28 l -97,159 q 18,20 32,28 14,8 33,17 58,27 124,33 28,2 55,1 27,-1 56,2 54,-9 108,-16 54,-7 110,-16 60,0 81,12 11,6 35,22 24,16 48,47 -53,6 -108,20 -55,14 -97,31 l 104,258 q -78,45 -109,72 -31,27 -49,64 -26,46 -33,89.00002 -7,43 -7,77 1,60 28,132 27,72 104,130 63,48 123,99 60,51 119,119 -74,38 -74,121 0,56 39,96 39,40 97,40 56,0 96,-40 40,-40 40,-96 0,-82 -74,-121 58,-68 117,-119 59,-51 125,-99 75,-57 102,-129 27,-72 29,-133 0,-34 -7,-77 -7,-43.00002 -32,-89.00002 -20,-36 -50,-63 -30,-27 -108,-73 l 104,-258 q -44,-16 -99,-30 -55,-14 -106,-21 23,-31 47,-47 24,-16 36,-22 21,-12 81,-12 54,8 108,15 54,7 110,17 27,-3 54,-2 27,1 57,-1 64,-6 124,-33 18,-9 32,-17 14,-8 33,-28 l -98,-159 q -18,18 -50,27 -32,9 -53,10 -13,0 -26,2 -13,2 -31,0 l -280,-39 q -60,-9 -111,8 -51,17 -85,45 -33,27 -52,46 -19,19 -33,77 z m -37,744.00002 v -85 q 0,-37.00002 37,-37.00002 37,0 37,37.00002 v 86 h 90 q 35,0 35,36 0,36 -35,36 h -90 v 90 q 0,37 -37,37 -37,0 -37,-37 v -90 h -88 q -35,0 -35,-36 0,-36 35,-36 z"
     fill-rule="nonzero"
     display="block"
     fill="#000000"
     id="path2" />
  <g
     fill-rule="nonzero"
     fill="#ffffff"
     id="g14"
     transform="matrix(1,0,0,-1,0,2030.1154)">
    <path
       style="color:#000000"
       d="m 1290,1466 -42,-102 q -102,-22 -224,-22 -121,0 -222,22 l -42,101 q 124,-31 264,-31 138,0 266,32 z"
       display="block"
       id="path4" />
    <path
       style="color:#000000"
       d="m 1206,1260 -29,-70 v -27 q -76,-11 -153,-11 -75,0 -152,11 l -1,27 -27,70 q 85,-15 180,-15 96,0 182,15 z"
       display="block"
       id="path6" />
    <path
       style="color:#000000"
       d="m 1171,1638 q -40,-30 -80,-95 h -32 q 0,49 23,95 z"
       display="block"
       id="path8" />
    <path
       style="color:#000000"
       d="m 965,1638 q 23,-49 23,-95 h -32 q -39,64 -81,95 z"
       display="block"
       id="path10" />
    <path
       style="color:#000000"
       d="m 987,912 v 85 q 0,37 37,37 37,0 37,-37 v -86 h 90 q 35,0 35,-36 0,-36 -35,-36 h -90 v -90 q 0,-37 -37,-37 -37,0 -37,37 v 90 h -88 q -35,0 -35,36 0,36 35,36 z"
       display="block"
       id="path12" />
  </g>
  <path
     style="fill:#b22222;stroke:#000000;stroke-width:2.31937"
     d="m 1001.38,1832.1886 c -39.68505,-7.0772 -75.02345,-32.2286 -95.45407,-67.9376 -21.25638,-37.1523 -21.37604,-95.589 -0.27125,-132.4764 10.89005,-19.0338 28.95274,-35.9683 54.63044,-51.2181 3.55589,-2.1118 1.04506,-5.7062 -20.2524,-28.9921 -50.29807,-54.9942 -97.8562,-97.4176 -195.5163,-174.4069 -87.07894,-68.6477 -111.49189,-99.4061 -134.423,-169.3621 -16.51279,-50.3757 -18.66368,-63.721 -18.59505,-115.3741 0.0893,-67.2689 7.39393,-100.6648 32.85312,-150.20221 16.66889,-32.43355 29.18938,-49.76489 49.60848,-68.66983 16.97168,-15.7132 59.87612,-45.4002 94.37803,-65.30335 14.17854,-8.1792 18.85707,-12.03593 17.9341,-14.78394 -0.68681,-2.04487 -24.01181,-60.07851 -51.83335,-128.96367 l -50.5846,-125.24576 16.41494,-6.45924 c 39.09328,-15.38313 130.21966,-37.87882 171.23265,-42.27093 9.6404,-1.0324 15.65568,-2.7395 15.65568,-4.443 0,-1.52153 -7.56693,-10.6712 -16.81541,-20.33259 -19.1029,-19.9558 -61.04944,-48.64292 -79.43827,-54.32763 -6.66732,-2.06114 -24.41356,-4.0735 -41.74859,-4.73415 -28.19458,-1.07451 -36.55024,-0.20503 -128.7248,13.39503 -93.59186,13.80918 -101.09295,14.57798 -148.43941,15.21422 -98.33847,1.32144 -147.21685,-7.96129 -212.72091,-40.39887 -23.00263,-11.39089 -51.6868,-32.1845 -51.6868,-37.46858 0,-1.49762 91.60139,-152.92249 93.89453,-155.21563 0.49214,-0.49214 4.39946,1.77833 8.68293,5.04549 22.28363,16.99655 56.26452,26.27892 108.48483,29.63419 l 38.26954,2.45891 142.641,-20.12454 c 78.45254,-11.06849 154.24877,-20.70398 168.43603,-21.4122 46.32015,-2.31227 77.51576,5.06583 129.60247,30.65239 32.09237,15.76473 69.95855,43.51679 89.19581,65.37148 11.95072,13.57673 23.72853,37.63867 30.73723,62.79563 2.922,10.48828 5.8346,19.0696 6.4724,19.0696 0.6378,0 3.5449,-8.60275 6.4601,-19.1172 7.0485,-25.42218 16.5664,-45.32961 27.4913,-57.49997 14.8169,-16.5062 58.7505,-52.93964 78.4984,-65.09752 22.2312,-13.68671 58.3527,-28.14897 82.859,-33.17492 35.1123,-7.20112 57.7897,-5.40822 220.995,17.47216 l 150.7811,21.13857 35.9502,-2.44678 c 50.8848,-3.46323 89.8636,-14.2889 111.0223,-30.83448 3.0202,-2.36168 6.2932,-3.79831 7.2734,-3.19251 2.0752,1.28251 91.876,146.89376 93.9911,152.40582 3.4151,8.89962 -46.0577,40.38553 -88.6416,56.41408 -44.685,16.81937 -78.6753,22.07964 -150.827,23.34172 -53.2544,0.93153 -64.2086,0.48997 -88.1359,-3.55273 -15.0278,-2.53906 -62.2877,-9.44518 -105.022,-15.34693 -69.0316,-9.53349 -81.0622,-10.6087 -107.8506,-9.63896 -36.1015,1.30687 -47.646,4.70954 -76.7848,22.63183 -20.8229,12.80749 -61.2174,50.03607 -61.2174,56.41945 0,2.19345 4.274,3.75304 13.3363,4.86642 36.1666,4.44335 98.9431,19.40032 152.7622,36.3967 l 37.3736,11.80281 -51.878,128.80464 c -28.5329,70.84254 -51.6134,129.03578 -51.2899,129.3183 0.3235,0.2825 16.2751,10.318 35.4481,22.30112 74.2055,46.37853 101.6667,73.47477 128.4234,126.71691 21.9093,43.59628 31.3835,87.89135 31.3542,146.59065 -0.021,40.3905 -3.1992,60.6357 -16.3442,104.085 -23.24,76.8169 -55.4753,119.547 -135.385,179.4618 -77.8737,58.3883 -137.634,110.836 -184.6502,162.0553 -40.2461,43.844 -38.1758,39.2708 -22.2329,49.1113 76.8351,47.4253 81.6693,160.2541 9.3166,217.4456 -29.577,23.3793 -70.0827,33.9595 -105.6968,27.6083 z m 45.7354,-518.2274 c 12.6126,-6.5222 13.9945,-13.504 13.9945,-70.7066 v -51.1006 h 49.9408 c 55.9386,0 62.6909,-1.3729 70.6067,-14.3564 3.4274,-5.6216 4.6809,-11.7147 4.6809,-22.7534 0,-11.0387 -1.2535,-17.1319 -4.6809,-22.7534 -7.9158,-12.9835 -14.6681,-14.3565 -70.6067,-14.3565 h -49.9408 v -50.683 c 0,-48.9419 -0.1821,-50.9538 -5.2989,-58.564 -12.3193,-18.32216 -51.3027,-18.32216 -63.62196,0 -5.11685,7.6102 -5.29889,9.6221 -5.29889,58.564 v 50.683 h -48.78118 c -51.87795,0 -59.17071,1.2293 -68.3468,11.5202 -3.89236,4.3653 -4.63873,8.4827 -4.63873,25.5897 0,17.1069 0.74637,21.2243 4.63873,25.5896 9.17609,10.291 16.46885,11.5202 68.3468,11.5202 h 48.78118 v 52.3009 c 0,63.2867 0.83963,65.9522 23.05825,73.2001 8.5007,2.7729 28.5065,0.7847 37.167,-3.6938 z m 49.0048,-437.40333 c 19.6517,-1.36497 45.6456,-3.71333 57.7643,-5.21857 l 22.034,-2.73681 1.4307,-15.07588 c 1.0504,-11.06845 5.1957,-23.98043 15.5944,-48.57466 7.7901,-18.42432 13.6923,-33.97027 13.116,-34.54654 -0.5763,-0.57627 -13.3342,0.67406 -28.351,2.77849 -57.619,8.07466 -77.8861,9.33354 -151.3892,9.40352 -74.58956,0.071 -100.46218,-1.51696 -154.81578,-9.50196 -14.35003,-2.10812 -26.63998,-3.28394 -27.31102,-2.6129 -0.67104,0.67104 4.68538,16.24064 11.90313,34.59911 8.97766,22.83483 13.57532,38.14144 14.55451,48.45494 l 1.4313,15.07588 24.35334,2.85716 c 63.6325,7.46543 138.19612,9.36915 199.68532,5.09822 z m 50.6165,-193.30316 c 37.4044,-4.04651 100.2599,-14.54013 102.3934,-17.0944 2.8078,-3.36162 41.8406,-100.76455 40.7978,-101.80738 -0.5934,-0.59332 -12.9199,1.55622 -27.3924,4.77678 -151.8852,33.79898 -335.38904,33.56934 -482.04212,-0.60324 -10.82831,-2.52317 -20.12444,-4.151 -20.65808,-3.61736 -0.53362,0.53364 8.46032,23.68138 19.98657,51.43941 l 20.9568,50.46914 19.41587,4.02016 c 25.04472,5.18562 81.6526,12.77725 115.66956,15.51234 39.25656,3.15638 170.953,1.22316 210.8726,-3.09545 z M 988.30167,469.98768 c -1.72408,-19.02583 -9.69945,-50.1926 -17.14436,-66.99788 l -4.88062,-11.01699 h -46.70553 -46.70551 l 13.52413,11.50307 c 16.9296,14.3996 36.36791,37.02786 54.37347,63.29648 l 13.9106,20.29445 h 17.58773 17.58775 z m 110.14763,8.38151 c 12.0271,-19.93759 37.6167,-51.694 55.1667,-68.46114 l 18.7726,-17.93524 h -45.9896 -45.9896 l -2.9633,6.37826 c -10.2625,22.08988 -18.6556,56.33199 -18.6556,76.11087 v 12.60487 h 17.2061 17.206 z"
     id="path194" />
</svg>
