<?xml version="1.0" encoding="UTF-8" standalone="no"?>
<svg
   xmlns:dc="http://purl.org/dc/elements/1.1/"
   xmlns:cc="http://creativecommons.org/ns#"
   xmlns:rdf="http://www.w3.org/1999/02/22-rdf-syntax-ns#"
   xmlns:svg="http://www.w3.org/2000/svg"
   xmlns="http://www.w3.org/2000/svg"
   xmlns:sodipodi="http://sodipodi.sourceforge.net/DTD/sodipodi-0.dtd"
   xmlns:inkscape="http://www.inkscape.org/namespaces/inkscape"
   height="100%"
   width="100%"
   version="1.1"
   viewBox="0 0 2048 2048"
   id="svg18"
   sodipodi:docname="bi.svg"
   inkscape:version="1.0.2 (e86c870879, 2021-01-15)">
  <metadata
     id="metadata24">
    <rdf:RDF>
      <cc:Work
         rdf:about="">
        <dc:format>image/svg+xml</dc:format>
        <dc:type
           rdf:resource="http://purl.org/dc/dcmitype/StillImage" />
      </cc:Work>
    </rdf:RDF>
  </metadata>
  <defs
     id="defs22" />
  <sodipodi:namedview
     pagecolor="#ffffff"
     bordercolor="#666666"
     borderopacity="1"
     objecttolerance="10"
     gridtolerance="10"
     guidetolerance="10"
     inkscape:pageopacity="0"
     inkscape:pageshadow="2"
     inkscape:window-width="960"
     inkscape:window-height="1060"
     id="namedview20"
     showgrid="false"
     inkscape:zoom="0.43115234"
     inkscape:cx="1024"
     inkscape:cy="1024"
     inkscape:window-x="0"
     inkscape:window-y="20"
     inkscape:window-maximized="0"
     inkscape:current-layer="svg18" />
  <path
     style="color:#000000"
     d="m 490,643 q 4,9 13,27 17,42 17,50 -2,28 -29,28 -20,0 -47,-57 -4,-8 -12,-14 -27,-28 8,-47 32,-19 50,13 z m 590,371 q 70,92 69,205 -4,33 -38,33 -46,0 -36,-34 3,-55 -11,-91 -23,-57 -51,-85 -15,-30 18,-44 32,-15 49,16 z m -261,488 q -5,36 2,78 -60,-12 -113,-56 -32,-17 -15,-47 17,-31 47,-10 21,11 38,20 17,9 41,15 z M 1756,234 q -1,0 2,54 3,54 3,118 1,125 0,258 -1,133 -36,267 -34,128 -75,218 -41,90 -89,157 -72,108 -196,183 -124,75 -259,98 4,-23 3,-47 -1,-24 0,-46 97,-33 183,-82 86,-49 126,-106 48,-66 89,-156 41,-90 75,-219 34,-133 35,-266 1,-133 1,-259 0,-63 -3,-117 -3,-54 0,-55 z m -677,1423 q 157,-10 291,-81 134,-71 228,-182 66,-78 124,-188 58,-110 94,-233 40,-143 50,-300 10,-157 11,-292 V 163 q 0,0 -155,0 -155,0 -404,0 H 647 q -9,0 -9,49 0,49 7,79 4,24 19,68 15,44 50,107 16,32 76,93 60,61 138,143 45,46 70,116 25,70 22,127 -37,-30 -81,-49 -212,-76 -307,-220 -7,-9 -45,-81 -20,-38 -34,-52 -19,-19 -55,-21 -56,-3 -87,54 -42,-12 -75,-10 -56,21 -81,45 -51,51 -66,102 -15,51 -16,110 0,84 104,222 122,159 130,242 0,36 7,81 6,31 25,60 13,20 17,27 4,7 17,23 9,12 15,18 6,6 15,18 11,13 28,30 -53,146 -43,301 199,-71 334,-223 33,113 130,183 80,-56 127,-148 z M 404,821 q 29,20 6,48 -24,23 -53,4 -61,-40 -65,-105 1,-33 39,-31 36,3 35,37 8,32 38,47 z m 252,498 q 22,11 22,11 30,12 19,44 -12,30 -46,20 -118,-43 -163,-158 -7,-33 24,-45 31,-10 42,22 8,17 12,22 11,-9 29,-12 61,-10 71,54 3,22 -10,42 z"
     fill-rule="nonzero"
     display="block"
     fill="#000000"
     id="path2" />
  <g
     fill-rule="nonzero"
     fill="#ffffff"
     id="g16"
     transform="matrix(1,0,0,-1,0,2008)">
    <path
       style="color:#000000"
       d="m 490,1365 q 4,-9 13,-27 17,-42 17,-50 -2,-28 -29,-28 -20,0 -47,57 -4,8 -12,14 -27,28 8,47 32,19 50,-13 z"
       display="block"
       id="path4" />
    <path
       style="color:#000000"
       d="m 1080,994 q 70,-92 69,-205 -4,-33 -38,-33 -46,0 -36,34 3,55 -11,91 -23,57 -51,85 -15,30 18,44 32,15 49,-16 z"
       display="block"
       id="path6" />
    <path
       style="color:#000000"
       d="m 819,506 q -5,-36 2,-78 -60,12 -113,56 -32,17 -15,47 17,31 47,10 21,-11 38,-20 17,-9 41,-15 z"
       display="block"
       id="path8" />
    <path
       style="color:#000000"
       d="m 1756,1774 q -1,0 2,-54 3,-54 3,-118 1,-125 0,-258 -1,-133 -36,-267 -34,-128 -75,-218 -41,-90 -89,-157 -72,-108 -196,-183 -124,-75 -259,-98 4,23 3,47 -1,24 0,46 97,33 183,82 86,49 126,106 48,66 89,156 41,90 75,219 34,133 35,266 1,133 1,259 0,63 -3,117 -3,54 0,55 z"
       display="block"
       id="path10" />
    <path
       style="color:#000000"
       d="m 404,1187 q 29,-20 6,-48 -24,-23 -53,-4 -61,40 -65,105 1,33 39,31 36,-3 35,-37 8,-32 38,-47 z"
       display="block"
       id="path12" />
    <path
       style="color:#000000"
       d="m 656,689 q 22,-11 22,-11 30,-12 19,-44 -12,-30 -46,-20 -118,43 -163,158 -7,33 24,45 31,10 42,-22 8,-17 12,-22 11,9 29,12 61,10 71,-54 3,-22 -10,-42 z"
       display="block"
       id="path14" />
  </g>
</svg>
