<?xml version="1.0" encoding="UTF-8" standalone="no"?>
<svg
   xmlns:dc="http://purl.org/dc/elements/1.1/"
   xmlns:cc="http://creativecommons.org/ns#"
   xmlns:rdf="http://www.w3.org/1999/02/22-rdf-syntax-ns#"
   xmlns:svg="http://www.w3.org/2000/svg"
   xmlns="http://www.w3.org/2000/svg"
   xmlns:sodipodi="http://sodipodi.sourceforge.net/DTD/sodipodi-0.dtd"
   xmlns:inkscape="http://www.inkscape.org/namespaces/inkscape"
   height="100%"
   width="100%"
   version="1.1"
   viewBox="0 0 2048 2048"
   id="svg12"
   sodipodi:docname="bo.svg"
   inkscape:version="1.0.2 (e86c870879, 2021-01-15)">
  <metadata
     id="metadata18">
    <rdf:RDF>
      <cc:Work
         rdf:about="">
        <dc:format>image/svg+xml</dc:format>
        <dc:type
           rdf:resource="http://purl.org/dc/dcmitype/StillImage" />
      </cc:Work>
    </rdf:RDF>
  </metadata>
  <defs
     id="defs16" />
  <sodipodi:namedview
     pagecolor="#ffffff"
     bordercolor="#666666"
     borderopacity="1"
     objecttolerance="10"
     gridtolerance="10"
     guidetolerance="10"
     inkscape:pageopacity="0"
     inkscape:pageshadow="2"
     inkscape:window-width="960"
     inkscape:window-height="1060"
     id="namedview14"
     showgrid="false"
     inkscape:zoom="0.43115234"
     inkscape:cx="1024"
     inkscape:cy="1024"
     inkscape:window-x="0"
     inkscape:window-y="20"
     inkscape:window-maximized="0"
     inkscape:current-layer="svg12"
     inkscape:document-rotation="0" />
  <path
     style="color:#000000"
     d="m 1588,765 q -83,30 -233,49 -150,19 -333,20 -178,0 -326,-18 -148,-18 -233,-49 l 50,-91 q 84,25 218,36 134,11 293,11 159,0 294,-11 135,-11 219,-37 z m 226,668 q -57,0 -97,39 -40,39 -40,97 0,56 40,96 40,40 97,41 56,0 96,-40 40,-40 40,-97 0,-57 -40,-96 -40,-39 -96,-40 z m -1578,0 q -57,0 -96,39 -39,39 -40,97 0,56 39,96 39,40 97,41 57,0 97,-40 40,-40 40,-97 0,-57 -40,-96 -40,-39 -97,-40 z m 1208,110 q -57,0 -96,39 -39,39 -40,97 0,56 39,96 39,40 97,40 57,0 97,-40 40,-40 40,-96 0,-57 -40,-96 -40,-39 -97,-40 z m -840,0 q -57,0 -97,39 -40,39 -40,97 0,56 40,96 40,40 97,40 56,0 96,-40 40,-40 40,-96 0,-57 -40,-96 -40,-39 -96,-40 z M 1640,255 q -49,-43 -220,-72 -171,-29 -394,-29 -227,0 -399,30 -172,30 -217,75 l 63,240 -28,157 -88,153 -85,622 49,19 274,-462 6,550 68,12 209,-553 112,595 h 69 l 112,-593 207,551 69,-12 6,-550 275,463 47,-22 -83,-619 -89,-153 -28,-159 z m -96,32 -30,118 q -195,45 -490,45 -292,0 -488,-45 L 504,286 q 190,58 521,58 159,0 295,-16 136,-16 224,-41 z m -26,299 q -184,51 -490,51 -308,0 -496,-52 l 15,-101 q 189,49 481,49 291,0 474,-48 z m -494,1007 q -57,0 -96,40 -39,40 -40,97 0,56 39,96 39,40 97,40 56,0 96,-40 40,-40 41,-96 0,-57 -40,-97 -40,-40 -97,-40 z"
     fill-rule="nonzero"
     display="block"
     fill="#000000"
     id="path2" />
  <g
     fill-rule="nonzero"
     fill="#ffffff"
     id="g10"
     transform="matrix(1,0,0,-1,0,2020)">
    <path
       style="color:#000000"
       d="m 1588,1255 q -83,-30 -233,-49 -150,-19 -333,-20 -178,0 -326,18 -148,18 -233,49 l 50,91 q 84,-25 218,-36 134,-11 293,-11 159,0 294,11 135,11 219,37 z"
       display="block"
       id="path4" />
    <path
       style="color:#000000"
       d="m 1544,1733 -30,-118 q -195,-45 -490,-45 -292,0 -488,45 l -32,119 q 190,-58 521,-58 159,0 295,16 136,16 224,41 z"
       display="block"
       id="path6" />
    <path
       style="color:#000000"
       d="m 1518,1434 q -184,-51 -490,-51 -308,0 -496,52 l 15,101 q 189,-49 481,-49 291,0 474,48 z"
       display="block"
       id="path8" />
  </g>
  <path
     style="fill:#b22222;stroke:#000000;stroke-width:2.31937"
     d="m 990.63576,1587.0261 c -1.5896,-5.3512 -110.43644,-584.203 -110.43644,-587.30536 0,-1.3164 -0.8462,-2.39345 -1.88045,-2.39345 -1.03425,0 -48.74402,124.01991 -106.02169,275.59971 l -104.14124,275.5997 -32.56042,-5.6873 c -17.90822,-3.128 -32.71901,-5.8161 -32.91287,-5.9734 -0.67271,-0.5461 -5.47764,-432.0051 -5.46185,-490.4455 0.009,-37.9684 -0.80094,-58.48369 -2.29276,-57.9841 -1.26978,0.42521 -62.94003,103.0571 -137.04501,228.071 -74.10499,125.0138 -135.61488,228.2153 -136.68866,229.3366 -1.10856,1.1576 -11.87421,-1.8495 -24.91029,-6.9581 l -22.95798,-8.9969 42.39325,-310.0446 42.39325,-310.04454 43.89892,-76.18875 43.89892,-76.18876 14.20485,-79.28631 14.20485,-79.28632 -31.42828,-119.65781 -31.42829,-119.65781 5.3305,-4.52944 c 51.45416,-43.72167 205.12172,-78.05612 421.65666,-94.21214 77.94429,-5.81555 297.79297,-5.81555 375.73727,0 154.5719,11.53286 277.9724,32.20091 356.0227,59.62934 22.9502,8.06519 52.1299,22.48687 61.9913,30.63844 l 6.3266,5.22961 -32.3908,120.60703 -32.3909,120.60702 14.0146,80.01812 14.0145,80.01812 44.1964,76.1054 c 24.308,41.85794 44.6061,77.86609 45.1069,80.01812 1.0163,4.36695 82.0759,609.23218 82.0759,612.44878 0,2.2786 -38.2075,21.1718 -42.8155,21.1718 -1.6175,0 -64.2874,-103.3278 -139.2664,-229.6173 -74.9791,-126.2894 -137.0559,-229.61717 -137.9484,-229.61717 -0.8925,0 -2.3172,76.45207 -3.1661,169.89357 -0.8488,93.4414 -2.2224,216.9801 -3.0522,274.5304 l -1.5088,104.637 -32.6876,5.7309 -32.6875,5.731 -3.7723,-8.3158 c -2.0748,-4.5737 -48.9352,-128.6237 -104.1343,-275.6666 -55.1991,-147.043 -100.8315,-266.88131 -101.4054,-266.30743 -1.0856,1.08563 -111.7829,584.80223 -111.8704,589.90283 -0.038,2.1832 -8.3175,2.8992 -33.5243,2.8992 -29.87493,0 -33.60419,-0.4364 -34.68024,-4.0588 z M 1131.8505,832.67036 c 134.0802,-5.47702 245.2875,-17.4699 344.4258,-37.14371 40.2293,-7.98342 88.9165,-20.50535 107.4526,-27.63587 l 6.5602,-2.52356 -4.5377,-7.52621 c -2.4957,-4.13939 -14.1187,-24.48654 -25.8288,-45.21587 -11.7102,-20.72933 -22.7212,-37.6897 -24.469,-37.6897 -1.7477,0 -12.9074,2.61333 -24.7993,5.80739 -100.6107,27.02335 -263.0027,40.55474 -486.6543,40.55066 -162.82711,-0.002 -295.31158,-7.43739 -395.45187,-22.19097 -28.27908,-4.16633 -86.29041,-15.95538 -101.84087,-20.69608 -6.26208,-1.90904 -12.17542,-3.471 -13.14076,-3.471 -3.14998,0 -51.53898,90.70268 -49.42306,92.64095 3.24039,2.9683 36.609,13.31427 66.99132,20.77069 96.01038,23.56285 232.15372,39.64556 381.53568,45.07112 46.73281,1.69733 169.58256,1.27818 219.18006,-0.74784 z m 25.513,-197.18399 c 125.5572,-5.64749 232.6364,-18.01713 309.6354,-35.76861 46.2573,-10.66426 49.2066,-11.52238 50.4138,-14.66822 0.6666,-1.73712 -2.248,-25.01571 -6.4769,-51.73024 -5.7588,-36.37962 -8.5025,-48.57185 -10.9304,-48.57185 -1.7829,0 -11.2433,2.02068 -21.0233,4.49041 -73.4766,18.55504 -193.9285,33.8093 -312.2342,39.54194 -62.5147,3.02923 -216.6094,3.03085 -277.51092,0.002 -120.12046,-5.9722 -220.04315,-18.37399 -310.24867,-38.50618 -14.50139,-3.23644 -27.70967,-6.39998 -29.35169,-7.03009 -3.63667,-1.39554 -4.05418,0.50247 -11.55427,52.52703 -3.2183,22.32389 -6.33994,42.78202 -6.93696,45.46249 -0.99086,4.44864 1.08483,5.40716 23.80527,10.99296 98.63593,24.2495 218.79436,38.94969 360.03915,44.04715 47.73823,1.72287 197.35109,1.23538 242.37369,-0.78972 z m 82.3375,-191.0884 c 83.6212,-6.47782 140.8414,-13.16794 200.4465,-23.43587 34.3455,-5.91658 72.8761,-13.91723 74.3565,-15.43969 1.0899,-1.12093 31.3132,-118.73431 30.6752,-119.37226 -0.2886,-0.28858 -10.4303,2.00509 -22.5371,5.09705 -148.5852,37.94708 -370.9623,56.93092 -587.36888,50.1424 -174.3584,-5.46951 -295.66816,-20.10664 -400.21474,-48.28956 -16.97671,-4.57646 -31.20396,-7.94678 -31.61609,-7.48961 -0.90367,1.00247 30.42113,117.98206 32.02191,119.58282 1.88718,1.88719 38.68044,9.5931 74.93574,15.6944 83.87231,14.11462 144.87678,20.28692 273.27833,27.64967 7.65391,0.4389 80.19207,0.51583 161.19593,0.17094 107.9142,-0.45942 159.9883,-1.6115 194.8267,-4.31031 z"
     id="path254" />
  <path
     style="fill:#b22222;stroke:#000000;stroke-width:2.31937"
     d="m 211.06228,1702.3635 c -40.19618,-8.0682 -77.21899,-36.4428 -95.26113,-73.009 -19.222869,-38.9592 -19.222869,-81.6479 0,-120.607 35.35448,-71.6533 125.71589,-96.2252 193.01271,-52.4858 73.64181,47.8633 84.60195,146.5692 23.07511,207.8121 -32.72531,32.5743 -77.93061,46.8997 -120.82669,38.2897 z"
     id="path256" />
  <path
     style="fill:#b22222;stroke:#000000;stroke-width:2.31937"
     d="m 575.3614,1811.0409 c -31.01786,-5.9234 -64.95729,-29.5146 -84.50304,-58.738 -16.19805,-24.2181 -21.59757,-42.3652 -21.74497,-73.0821 -0.0983,-20.4875 0.86416,-27.2353 6.06328,-42.5089 7.76499,-22.8115 17.88033,-38.5781 35.32897,-55.0668 25.28745,-23.8962 49.38911,-34.2328 84.41168,-36.202 39.16039,-2.2018 71.1528,9.2226 99.61183,35.5713 28.12836,26.0426 41.35164,53.4444 43.47407,90.0887 2.35815,40.7137 -9.92257,72.1979 -39.82546,102.1007 -33.8572,33.8572 -75.87378,46.8017 -122.81636,37.8371 z"
     id="path258" />
  <path
     style="fill:#b22222;stroke:#000000;stroke-width:2.31937"
     d="m 995.00793,1862.0717 c -20.59625,-3.871 -48.05656,-18.9318 -64.24114,-35.2336 -26.19284,-26.3825 -38.55801,-53.2916 -40.65729,-88.4785 -2.37601,-39.8254 12.07207,-77.0793 40.92585,-105.5261 26.45983,-26.0866 55.43969,-37.9016 92.96465,-37.9016 36.8754,0 65.5048,11.3374 92.1774,36.5027 28.1356,26.5457 42.4131,58.0565 42.7759,94.4066 0.3935,39.4434 -11.6724,69.0896 -39.5196,97.1007 -9.7542,9.8117 -23.6292,21.1647 -30.8332,25.2291 -25.3581,14.3063 -62.2673,19.7882 -93.59257,13.9007 z"
     id="path260" />
  <path
     style="fill:#b22222;stroke:#000000;stroke-width:2.31937"
     d="m 1414.8131,1811.0457 c -30.9757,-5.8218 -65.4095,-30.4265 -85.0001,-60.737 -37.3987,-57.863 -20.9334,-141.0418 35.79,-180.8029 27.2093,-19.0727 53.44,-26.3528 87.0587,-24.1622 35.0115,2.2814 63.4058,15.399 88.5569,40.9116 26.5722,26.9541 38.0652,55.6325 37.7212,94.1253 -0.2637,29.5108 -5.9249,48.1899 -21.7982,71.9224 -31.479,47.065 -85.6041,69.4039 -142.3285,58.7428 z"
     id="path262" />
  <path
     style="fill:#b22222;stroke:#000000;stroke-width:2.31937"
     d="m 1784.752,1701.1003 c -37.4639,-8.1129 -74.7598,-37.5935 -93.1408,-73.6232 -6.8569,-13.4406 -13.5551,-42.3052 -13.5098,-58.2173 0.1051,-36.8676 13.0288,-67.8094 39.4013,-94.3351 54.6279,-54.945 139.4617,-54.0241 193.5594,2.1012 26.1486,27.1288 37.0562,54.2562 37.0018,92.0251 -0.056,39.05 -12.5551,68.9908 -40.1827,96.2562 -33.314,32.8772 -77.4062,45.6946 -123.1292,35.7931 z"
     id="path264" />
</svg>
