<?xml version="1.0" encoding="UTF-8" standalone="no"?>
<svg
   xmlns:dc="http://purl.org/dc/elements/1.1/"
   xmlns:cc="http://creativecommons.org/ns#"
   xmlns:rdf="http://www.w3.org/1999/02/22-rdf-syntax-ns#"
   xmlns:svg="http://www.w3.org/2000/svg"
   xmlns="http://www.w3.org/2000/svg"
   xmlns:sodipodi="http://sodipodi.sourceforge.net/DTD/sodipodi-0.dtd"
   xmlns:inkscape="http://www.inkscape.org/namespaces/inkscape"
   height="100%"
   width="100%"
   version="1.1"
   viewBox="0 0 2048 2048"
   id="svg16"
   sodipodi:docname="bs.svg"
   inkscape:version="1.0.2 (e86c870879, 2021-01-15)">
  <metadata
     id="metadata22">
    <rdf:RDF>
      <cc:Work
         rdf:about="">
        <dc:format>image/svg+xml</dc:format>
        <dc:type
           rdf:resource="http://purl.org/dc/dcmitype/StillImage" />
      </cc:Work>
    </rdf:RDF>
  </metadata>
  <defs
     id="defs20" />
  <sodipodi:namedview
     pagecolor="#ffffff"
     bordercolor="#666666"
     borderopacity="1"
     objecttolerance="10"
     gridtolerance="10"
     guidetolerance="10"
     inkscape:pageopacity="0"
     inkscape:pageshadow="2"
     inkscape:window-width="960"
     inkscape:window-height="1060"
     id="namedview18"
     showgrid="false"
     inkscape:zoom="0.43115234"
     inkscape:cx="1024"
     inkscape:cy="1024"
     inkscape:window-x="0"
     inkscape:window-y="20"
     inkscape:window-maximized="0"
     inkscape:current-layer="svg16"
     inkscape:document-rotation="0" />
  <path
     style="color:#000000"
     d="m 1161,1706 h 170 v 137 h 274 V 1468 L 1383,1297 V 819 L 1553,649 V 444 h 153 V 205 H 341 v 239 h 153 v 205 l 171,170 v 478 l -222,171 v 375 h 273 v -137 h 171 v 137 h 274 z M 564,460 V 358 h 920 v 102 z m 460,1092 H 512 v -46 l 73,-55 h 879 l 71,55 v 46 z m 0,-169 H 674 l 60,-47 v -57 h 580 v 57 l 60,47 z m 0,-546 H 734 v -46 l -60,-58 h 700 l -60,58 v 46 z m 0,-172 H 610 l -46,-43 v -58 h 920 v 58 l -46,43 z"
     fill-rule="nonzero"
     display="block"
     fill="#000000"
     id="path2" />
  <g
     fill-rule="nonzero"
     fill="#ffffff"
     id="g14"
     transform="matrix(1,0,0,-1,0,2048)">
    <path
       style="color:#000000"
       d="m 564,1588 v 102 h 920 v -102 z"
       display="block"
       id="path4" />
    <path
       style="color:#000000"
       d="M 1024,496 H 512 v 46 l 73,55 h 879 l 71,-55 v -46 z"
       display="block"
       id="path6" />
    <path
       style="color:#000000"
       d="M 1024,665 H 674 l 60,47 v 57 h 580 v -57 l 60,-47 z"
       display="block"
       id="path8" />
    <path
       style="color:#000000"
       d="M 1024,1211 H 734 v 46 l -60,58 h 700 l -60,-58 v -46 z"
       display="block"
       id="path10" />
    <path
       style="color:#000000"
       d="M 1024,1383 H 610 l -46,43 v 58 h 920 v -58 l -46,-43 z"
       display="block"
       id="path12" />
  </g>
  <path
     style="fill:#b22222;stroke:#000000;stroke-width:2.31937"
     d="m 444.15855,1655.2535 v -186.3229 l 111.31279,-85.6227 111.31279,-85.6227 0.0168,-239.0875 0.0168,-239.08758 -85.81653,-85.52471 -85.81654,-85.52474 V 545.72977 442.99886 H 418.64552 342.10645 V 324.71121 206.42355 H 1024 1705.8936 v 118.28766 118.28765 h -76.5391 -76.5391 v 102.6437 102.6437 l -85.8165,85.79301 -85.8166,85.79302 0.048,238.90641 0.048,238.9065 111.2815,85.5664 111.2816,85.5664 v 186.3792 186.3793 h -135.6829 -135.6829 v -68.4213 -68.4213 h -85.8165 -85.8166 v 68.4213 68.4213 H 1024 887.15746 v -68.4213 -68.4213 h -85.81653 -85.81654 v 68.4213 68.4213 h -135.6829 -135.6829 v -186.323 z m 1092.42125,-125.504 v -24.2255 l -35.7866,-27.9602 -35.7866,-27.9602 H 1024.538 584.0693 l -36.19752,27.2526 -36.19753,27.2525 -0.12705,24.9332 -0.12705,24.9332 H 1024 1536.5798 Z m -162.7421,-147.2188 c -0.4252,-1.1719 -13.5586,-12.1936 -29.1854,-24.4926 l -28.4122,-22.3619 v -28.8528 -28.8528 H 1024 731.75991 v 28.8528 28.8528 l -28.41223,22.3619 c -15.62673,12.299 -28.76014,23.3207 -29.18535,24.4926 -0.46761,1.2887 137.77662,2.1307 349.83767,2.1307 212.0611,0 350.3053,-0.842 349.8377,-2.1307 z m -57.5976,-567.82123 v -22.58155 l 29.5384,-29.60418 29.5385,-29.60415 H 1024 672.68302 l 29.53844,29.60415 29.53845,29.60418 v 22.58155 22.58158 H 1024 1316.2401 Z m 146.2939,-170.43138 23.0198,-21.37991 V 593.25204 563.60589 H 1024 562.4462 l -9.7e-4,29.57191 -9.8e-4,29.57191 22.61479,21.33972 22.6148,21.33972 415.92016,0.11435 415.9202,0.11434 23.0198,-21.37989 z m 23.0198,-234.91003 V 357.18233 H 1024 562.4462 v 52.18573 52.18573 H 1024 1485.5538 Z"
     id="path13" />
</svg>
