<?xml version="1.0" encoding="UTF-8" standalone="no"?>
<svg
   xmlns:dc="http://purl.org/dc/elements/1.1/"
   xmlns:cc="http://creativecommons.org/ns#"
   xmlns:rdf="http://www.w3.org/1999/02/22-rdf-syntax-ns#"
   xmlns:svg="http://www.w3.org/2000/svg"
   xmlns="http://www.w3.org/2000/svg"
   xmlns:sodipodi="http://sodipodi.sourceforge.net/DTD/sodipodi-0.dtd"
   xmlns:inkscape="http://www.inkscape.org/namespaces/inkscape"
   width="177.17"
   height="177.17"
   shape-rendering="geometricPrecision"
   image-rendering="optimizeQuality"
   fill-rule="evenodd"
   clip-rule="evenodd"
   viewBox="0 0 50 50"
   version="1.1"
   id="svg895"
   sodipodi:docname="bs.svg"
   inkscape:version="1.0.2 (e86c870879, 2021-01-15)">
  <metadata
     id="metadata899">
    <rdf:RDF>
      <cc:Work
         rdf:about="">
        <dc:format>image/svg+xml</dc:format>
        <dc:type
           rdf:resource="http://purl.org/dc/dcmitype/StillImage" />
        <dc:title />
      </cc:Work>
    </rdf:RDF>
  </metadata>
  <sodipodi:namedview
     pagecolor="#ffffff"
     bordercolor="#666666"
     borderopacity="1"
     objecttolerance="10"
     gridtolerance="10"
     guidetolerance="10"
     inkscape:pageopacity="0"
     inkscape:pageshadow="2"
     inkscape:window-width="960"
     inkscape:window-height="1060"
     id="namedview897"
     showgrid="false"
     inkscape:zoom="2.8447254"
     inkscape:cx="103.34574"
     inkscape:cy="101.3181"
     inkscape:window-x="0"
     inkscape:window-y="20"
     inkscape:window-maximized="0"
     inkscape:current-layer="svg895"
     inkscape:document-rotation="0" />
  <defs
     id="defs889">
    <linearGradient
       id="0"
       x1="21.19"
       y1="37.552"
       x2="77.74"
       y2="37.429"
       gradientUnits="userSpaceOnUse">
      <stop
         stop-color="#fff"
         id="stop884" />
      <stop
         offset="1"
         stop-color="#fff"
         stop-opacity="0"
         id="stop886" />
    </linearGradient>
  </defs>
  <path
     fill="#1f1a17"
     d="m 28.408,15.271587 h 4.216 v -3.395 h 6.796 v 9.295 l -5.5,4.243 0,5.805413 4.22,4.221 v 5.08 h 3.789 V 46.45 H 8.07 v -5.929 h 3.794 v -5.08 l 4.246,-4.221 0,-5.805413 -5.508,-4.243 v -9.295 h 6.774 v 3.395 h 4.242 v -3.395 h 6.79 z"
     id="path891"
     sodipodi:nodetypes="ccccccccccccccccccccccccc" />
  <path
     fill="url(#0)"
     d="M 25.01,35.04 H 14.74 l -1.143,1.067 v 1.439 H 36.423 V 36.107 L 35.28,35.04 H 25.01 m -11.413,5.08 v 2.532 H 36.423 V 40.12 H 13.597 M 25.01,19.091587 h -12.7 v 1.143 l 1.812,1.363 h 21.802 l 1.761,-1.363 v -1.143 H 25.01 M 25.011,30.778 h -7.197 v 1.143 L 16.332,33.36 H 33.689 L 32.207,31.921 V 30.778 H 25.01"
     id="path893"
     sodipodi:nodetypes="ccccccccccccccccccccccccccccc"
     style="fill:#ffffff" />
  <path
     style="fill:#000080;stroke:#000000;stroke-width:0.351528"
     d="m 28.821851,154.22303 v -10.37007 h 6.679028 6.679028 v -9.0549 -9.05491 l 7.557847,-7.55171 7.557847,-7.55172 -0.0059,-10.37314 -0.0059,-10.373131 -9.835503,-7.557847 -9.835502,-7.557847 -0.0014,-16.25816 -0.0014,-16.25816 H 49.56199 61.513934 v 5.975973 5.975972 h 7.557848 7.557847 v -5.975972 -5.975973 h 11.951944 11.951947 v 5.975973 5.975972 h 7.55785 7.55784 v -5.975972 -5.975973 h 11.95195 11.95194 V 58.560818 74.8602 l -9.75489,7.526922 -9.7549,7.526927 -0.0923,10.359771 -0.0923,10.35977 7.56227,7.55478 7.56227,7.55478 v 9.05491 9.0549 h 6.67903 6.67903 v 10.37007 10.37007 H 88.581573 28.821851 Z M 129.3588,146.66519 v -4.56987 H 88.757337 48.155879 v 4.56987 4.56986 H 88.757337 129.3588 Z m 0,-16.11756 v -2.75951 l -2.08141,-1.81035 -2.08142,-1.81036 H 88.5325 51.869028 l -1.856575,1.83351 -1.856574,1.83351 v 2.73635 2.73635 H 88.757337 129.3588 Z m -9.84278,-12.27711 c 0,-0.14984 -1.18641,-1.45093 -2.63646,-2.89131 -2.61675,-2.59928 -2.63646,-2.63272 -2.63646,-4.47318 v -1.85432 H 88.581573 62.920045 v 2.07757 2.07757 l -2.636458,2.35961 c -1.450052,1.29779 -2.636458,2.49842 -2.636458,2.66806 0,0.17457 13.42667,0.30844 30.934444,0.30844 17.013947,0 30.934447,-0.1226 30.934447,-0.27244 z m 10.95578,-43.927575 3.10533,-2.368213 V 69.773084 67.571435 H 88.581573 43.586018 v 2.203824 2.203824 l 3.075868,2.342096 3.075868,2.342095 38.814361,0.02394 38.814365,0.02394 z"
     id="path208"
     transform="scale(0.28221482)" />
</svg>
