<?xml version="1.0" encoding="UTF-8" standalone="no"?>
<svg
   xmlns:dc="http://purl.org/dc/elements/1.1/"
   xmlns:cc="http://creativecommons.org/ns#"
   xmlns:rdf="http://www.w3.org/1999/02/22-rdf-syntax-ns#"
   xmlns:svg="http://www.w3.org/2000/svg"
   xmlns="http://www.w3.org/2000/svg"
   xmlns:sodipodi="http://sodipodi.sourceforge.net/DTD/sodipodi-0.dtd"
   xmlns:inkscape="http://www.inkscape.org/namespaces/inkscape"
   width="177.17"
   height="177.17"
   shape-rendering="geometricPrecision"
   image-rendering="optimizeQuality"
   fill-rule="evenodd"
   clip-rule="evenodd"
   viewBox="0 0 50 50"
   version="1.1"
   id="svg895"
   sodipodi:docname="bs.svg"
   inkscape:version="1.0.2 (e86c870879, 2021-01-15)">
  <metadata
     id="metadata899">
    <rdf:RDF>
      <cc:Work
         rdf:about="">
        <dc:format>image/svg+xml</dc:format>
        <dc:type
           rdf:resource="http://purl.org/dc/dcmitype/StillImage" />
        <dc:title />
      </cc:Work>
    </rdf:RDF>
  </metadata>
  <sodipodi:namedview
     pagecolor="#ffffff"
     bordercolor="#666666"
     borderopacity="1"
     objecttolerance="10"
     gridtolerance="10"
     guidetolerance="10"
     inkscape:pageopacity="0"
     inkscape:pageshadow="2"
     inkscape:window-width="960"
     inkscape:window-height="1060"
     id="namedview897"
     showgrid="false"
     inkscape:zoom="2.8447254"
     inkscape:cx="103.34574"
     inkscape:cy="101.3181"
     inkscape:window-x="960"
     inkscape:window-y="20"
     inkscape:window-maximized="0"
     inkscape:current-layer="svg895"
     inkscape:document-rotation="0" />
  <defs
     id="defs889">
    <linearGradient
       id="0"
       x1="21.19"
       y1="37.552"
       x2="77.74"
       y2="37.429"
       gradientUnits="userSpaceOnUse">
      <stop
         stop-color="#fff"
         id="stop884" />
      <stop
         offset="1"
         stop-color="#fff"
         stop-opacity="0"
         id="stop886" />
    </linearGradient>
  </defs>
  <path
     fill="#1f1a17"
     d="m 28.672968,11.58622 h 4.6376 V 8.0215903 h 7.4756 v 9.7594207 l -6.05,4.455 v 6.095478 l 4.642,4.4319 v 5.33382 h 4.1679 v 6.22524 H 6.3011678 v -6.22524 h 4.1734002 v -5.33382 l 4.6706,-4.4319 v -6.095478 l -6.0588002,-4.455 V 8.0215903 H 16.537768 V 11.58622 h 4.6662 V 8.0215903 h 7.469 z"
     id="path891"
     sodipodi:nodetypes="ccccccccccccccccccccccccc"
     style="stroke-width:1.07469" />
  <path
     fill="url(#0)"
     d="m 24.935168,32.342353 h -11.297 l -1.2573,1.120313 v 1.510899 h 25.1086 v -1.510899 l -1.2573,-1.120313 h -11.297 m -12.5543,5.33382 v 2.658511 h 25.1086 v -2.658511 h -25.1086 m 12.5543,-22.079088 h -13.97 v 1.200109 l 1.9932,1.431102 h 23.9822 l 1.9371,-1.431102 v -1.200109 h -13.9425 m 0.0011,12.270319 h -7.9167 v 1.20011 l -1.6302,1.510899 h 19.0927 l -1.6302,-1.510899 v -1.20011 h -7.9167"
     id="path893"
     sodipodi:nodetypes="ccccccccccccccccccccccccccccc"
     style="fill:#ffffff;stroke-width:1.07469" />
  <path
     style="fill:#000080;stroke:#000000;stroke-width:0.106616"
     d="m 6.3715166,41.250279 v -3.072813 h 2.0734128 2.0734126 v -2.683108 -2.683111 l 2.34623,-2.237689 2.34623,-2.237692 -0.0018,-3.073723 -0.0018,-3.07372 -3.053297,-2.239508 -3.0532969,-2.239508 -4.346e-4,-4.817546 -4.346e-4,-4.8175447 h 3.7103331 3.710317 v 1.770773 1.7707737 h 2.346231 2.34623 V 9.8450893 8.0743163 h 3.710317 3.710318 v 1.770773 1.7707737 h 2.346231 2.346228 V 9.8450893 8.0743163 h 3.710319 3.710316 v 4.8297597 4.829761 l -3.028272,2.230344 -3.028275,2.230346 -0.02865,3.069761 -0.02865,3.069761 2.347603,2.238599 2.347603,2.238599 v 2.683111 2.683108 h 2.073413 2.073414 v 3.072813 3.072813 H 24.923104 6.3715166 Z M 37.581836,39.010773 V 37.65665 H 24.977667 12.373501 v 1.354123 1.354121 h 12.604166 12.604169 z m 0,-4.775884 V 33.417203 L 36.93569,32.880769 36.289542,32.344331 H 24.90787 13.526197 l -0.576348,0.543297 -0.576348,0.543298 v 0.810823 0.810823 H 24.977667 37.581836 Z M 34.526279,30.59699 c 0,-0.0444 -0.368304,-0.429933 -0.818453,-0.85674 -0.812334,-0.770207 -0.818453,-0.780116 -0.818453,-1.325473 v -0.549463 h -7.966269 -7.96627 v 0.615616 0.615616 l -0.818452,0.699189 c -0.450149,0.384556 -0.818452,0.740321 -0.818452,0.790588 0,0.05173 4.168125,0.0914 9.603174,0.0914 5.281747,0 9.603175,-0.03633 9.603175,-0.08073 z m 3.401072,-13.016424 0.964007,-0.701738 V 16.226445 15.574063 H 24.923104 10.95485 v 0.653027 0.653027 l 0.954861,0.694 0.954861,0.693999 12.049387,0.0071 12.049388,0.0071 z"
     id="path208" />
</svg>
