<?xml version="1.0" encoding="UTF-8" standalone="no"?>
<svg
   xmlns:dc="http://purl.org/dc/elements/1.1/"
   xmlns:cc="http://creativecommons.org/ns#"
   xmlns:rdf="http://www.w3.org/1999/02/22-rdf-syntax-ns#"
   xmlns:svg="http://www.w3.org/2000/svg"
   xmlns="http://www.w3.org/2000/svg"
   xmlns:sodipodi="http://sodipodi.sourceforge.net/DTD/sodipodi-0.dtd"
   xmlns:inkscape="http://www.inkscape.org/namespaces/inkscape"
   height="100%"
   width="100%"
   version="1.1"
   viewBox="0 0 2048 2048"
   id="svg16"
   sodipodi:docname="bb.svg"
   inkscape:version="1.0.2 (e86c870879, 2021-01-15)">
  <metadata
     id="metadata22">
    <rdf:RDF>
      <cc:Work
         rdf:about="">
        <dc:format>image/svg+xml</dc:format>
        <dc:type
           rdf:resource="http://purl.org/dc/dcmitype/StillImage" />
      </cc:Work>
    </rdf:RDF>
  </metadata>
  <defs
     id="defs20" />
  <sodipodi:namedview
     pagecolor="#ffffff"
     bordercolor="#666666"
     borderopacity="1"
     objecttolerance="10"
     gridtolerance="10"
     guidetolerance="10"
     inkscape:pageopacity="0"
     inkscape:pageshadow="2"
     inkscape:window-width="960"
     inkscape:window-height="1060"
     id="namedview18"
     showgrid="false"
     inkscape:zoom="0.43115234"
     inkscape:cx="1024"
     inkscape:cy="1024"
     inkscape:window-x="0"
     inkscape:window-y="20"
     inkscape:window-maximized="0"
     inkscape:current-layer="svg16" />
  <path
     style="color:#000000"
     d="m 1290,564.11538 -42,102 q -102,22 -224,22 -121,0 -222,-22 l -42,-101 q 124,31 264,31 138,0 266,-32 z m -84,206 -29,70 v 27 q -76,11 -153,11 -75,0 -152,-11 l -1,-27 -27,-70 q 85,15 180,15 96,0 182,-15 z m -35,-378 q -40,30 -80,95 h -32 q 0,-49 23,-95 z m -206,0 q 23,49 23,95 h -32 q -39,-64 -81,-95 z m 59,-18 q -14,-57 -34,-79 -20,-22 -53,-46 -36,-25 -85,-42 -49,-17 -109,-9 l -281,39 q -17,2 -30,0 -13,-2 -26,-2 -21,0 -53,-9 -32,-9 -51,-28 l -97,159 q 18,20 32,28 14,8 33,17 58,27 124,33 28,2 55,1 27,-1 56,2 54,-9 108,-16 54,-7 110,-16 60,0 81,12 11,6 35,22 24,16 48,47 -53,6 -108,20 -55,14 -97,31 l 104,258 q -78,45 -109,72 -31,27 -49,64 -26,46 -33,89.00002 -7,43 -7,77 1,60 28,132 27,72 104,130 63,48 123,99 60,51 119,119 -74,38 -74,121 0,56 39,96 39,40 97,40 56,0 96,-40 40,-40 40,-96 0,-82 -74,-121 58,-68 117,-119 59,-51 125,-99 75,-57 102,-129 27,-72 29,-133 0,-34 -7,-77 -7,-43.00002 -32,-89.00002 -20,-36 -50,-63 -30,-27 -108,-73 l 104,-258 q -44,-16 -99,-30 -55,-14 -106,-21 23,-31 47,-47 24,-16 36,-22 21,-12 81,-12 54,8 108,15 54,7 110,17 27,-3 54,-2 27,1 57,-1 64,-6 124,-33 18,-9 32,-17 14,-8 33,-28 l -98,-159 q -18,18 -50,27 -32,9 -53,10 -13,0 -26,2 -13,2 -31,0 l -280,-39 q -60,-9 -111,8 -51,17 -85,45 -33,27 -52,46 -19,19 -33,77 z m -37,744.00002 v -85 q 0,-37.00002 37,-37.00002 37,0 37,37.00002 v 86 h 90 q 35,0 35,36 0,36 -35,36 h -90 v 90 q 0,37 -37,37 -37,0 -37,-37 v -90 h -88 q -35,0 -35,-36 0,-36 35,-36 z"
     fill-rule="nonzero"
     display="block"
     fill="#000000"
     id="path2" />
  <g
     fill-rule="nonzero"
     fill="#ffffff"
     id="g14"
     transform="matrix(1,0,0,-1,0,2030.1154)">
    <path
       style="color:#000000"
       d="m 1290,1466 -42,-102 q -102,-22 -224,-22 -121,0 -222,22 l -42,101 q 124,-31 264,-31 138,0 266,32 z"
       display="block"
       id="path4" />
    <path
       style="color:#000000"
       d="m 1206,1260 -29,-70 v -27 q -76,-11 -153,-11 -75,0 -152,11 l -1,27 -27,70 q 85,-15 180,-15 96,0 182,15 z"
       display="block"
       id="path6" />
    <path
       style="color:#000000"
       d="m 1171,1638 q -40,-30 -80,-95 h -32 q 0,49 23,95 z"
       display="block"
       id="path8" />
    <path
       style="color:#000000"
       d="m 965,1638 q 23,-49 23,-95 h -32 q -39,64 -81,95 z"
       display="block"
       id="path10" />
    <path
       style="color:#000000"
       d="m 987,912 v 85 q 0,37 37,37 37,0 37,-37 v -86 h 90 q 35,0 35,-36 0,-36 -35,-36 h -90 v -90 q 0,-37 -37,-37 -37,0 -37,37 v 90 h -88 q -35,0 -35,36 0,36 35,36 z"
       display="block"
       id="path12" />
  </g>
</svg>
