<?xml version="1.0" encoding="UTF-8" standalone="no"?>
<svg
   xmlns:dc="http://purl.org/dc/elements/1.1/"
   xmlns:cc="http://creativecommons.org/ns#"
   xmlns:rdf="http://www.w3.org/1999/02/22-rdf-syntax-ns#"
   xmlns:svg="http://www.w3.org/2000/svg"
   xmlns="http://www.w3.org/2000/svg"
   xmlns:sodipodi="http://sodipodi.sourceforge.net/DTD/sodipodi-0.dtd"
   xmlns:inkscape="http://www.inkscape.org/namespaces/inkscape"
   height="100%"
   width="100%"
   version="1.1"
   viewBox="0 0 2048 2048"
   id="svg18"
   sodipodi:docname="by.svg"
   inkscape:version="1.0.2 (e86c870879, 2021-01-15)">
  <metadata
     id="metadata24">
    <rdf:RDF>
      <cc:Work
         rdf:about="">
        <dc:format>image/svg+xml</dc:format>
        <dc:type
           rdf:resource="http://purl.org/dc/dcmitype/StillImage" />
      </cc:Work>
    </rdf:RDF>
  </metadata>
  <defs
     id="defs22" />
  <sodipodi:namedview
     pagecolor="#ffffff"
     bordercolor="#666666"
     borderopacity="1"
     objecttolerance="10"
     gridtolerance="10"
     guidetolerance="10"
     inkscape:pageopacity="0"
     inkscape:pageshadow="2"
     inkscape:window-width="960"
     inkscape:window-height="1060"
     id="namedview20"
     showgrid="false"
     inkscape:zoom="0.43115234"
     inkscape:cx="1024"
     inkscape:cy="467.3522"
     inkscape:window-x="0"
     inkscape:window-y="20"
     inkscape:window-maximized="0"
     inkscape:current-layer="svg18"
     inkscape:document-rotation="0" />
  <path
     style="color:#000000"
     d="m 490,643 q 4,9 13,27 17,42 17,50 -2,28 -29,28 -20,0 -47,-57 -4,-8 -12,-14 -27,-28 8,-47 32,-19 50,13 z m 590,371 q 70,92 69,205 -4,33 -38,33 -46,0 -36,-34 3,-55 -11,-91 -23,-57 -51,-85 -15,-30 18,-44 32,-15 49,16 z m -261,488 q -5,36 2,78 -60,-12 -113,-56 -32,-17 -15,-47 17,-31 47,-10 21,11 38,20 17,9 41,15 z M 1756,234 q -1,0 2,54 3,54 3,118 1,125 0,258 -1,133 -36,267 -34,128 -75,218 -41,90 -89,157 -72,108 -196,183 -124,75 -259,98 4,-23 3,-47 -1,-24 0,-46 97,-33 183,-82 86,-49 126,-106 48,-66 89,-156 41,-90 75,-219 34,-133 35,-266 1,-133 1,-259 0,-63 -3,-117 -3,-54 0,-55 z m -677,1423 q 157,-10 291,-81 134,-71 228,-182 66,-78 124,-188 58,-110 94,-233 40,-143 50,-300 10,-157 11,-292 V 163 q 0,0 -155,0 -155,0 -404,0 H 647 q -9,0 -9,49 0,49 7,79 4,24 19,68 15,44 50,107 16,32 76,93 60,61 138,143 45,46 70,116 25,70 22,127 -37,-30 -81,-49 -212,-76 -307,-220 -7,-9 -45,-81 -20,-38 -34,-52 -19,-19 -55,-21 -56,-3 -87,54 -42,-12 -75,-10 -56,21 -81,45 -51,51 -66,102 -15,51 -16,110 0,84 104,222 122,159 130,242 0,36 7,81 6,31 25,60 13,20 17,27 4,7 17,23 9,12 15,18 6,6 15,18 11,13 28,30 -53,146 -43,301 199,-71 334,-223 33,113 130,183 80,-56 127,-148 z M 404,821 q 29,20 6,48 -24,23 -53,4 -61,-40 -65,-105 1,-33 39,-31 36,3 35,37 8,32 38,47 z m 252,498 q 22,11 22,11 30,12 19,44 -12,30 -46,20 -118,-43 -163,-158 -7,-33 24,-45 31,-10 42,22 8,17 12,22 11,-9 29,-12 61,-10 71,54 3,22 -10,42 z"
     fill-rule="nonzero"
     display="block"
     fill="#000000"
     id="path2" />
  <g
     fill-rule="nonzero"
     fill="#ffffff"
     id="g16"
     transform="matrix(1,0,0,-1,0,2008)">
    <path
       style="color:#000000"
       d="m 490,1365 q 4,-9 13,-27 17,-42 17,-50 -2,-28 -29,-28 -20,0 -47,57 -4,8 -12,14 -27,28 8,47 32,19 50,-13 z"
       display="block"
       id="path4" />
    <path
       style="color:#000000"
       d="m 1080,994 q 70,-92 69,-205 -4,-33 -38,-33 -46,0 -36,34 3,55 -11,91 -23,57 -51,85 -15,30 18,44 32,15 49,-16 z"
       display="block"
       id="path6" />
    <path
       style="color:#000000"
       d="m 819,506 q -5,-36 2,-78 -60,12 -113,56 -32,17 -15,47 17,31 47,10 21,-11 38,-20 17,-9 41,-15 z"
       display="block"
       id="path8" />
    <path
       style="color:#000000"
       d="m 1756,1774 q -1,0 2,-54 3,-54 3,-118 1,-125 0,-258 -1,-133 -36,-267 -34,-128 -75,-218 -41,-90 -89,-157 -72,-108 -196,-183 -124,-75 -259,-98 4,23 3,47 -1,24 0,46 97,33 183,82 86,49 126,106 48,66 89,156 41,90 75,219 34,133 35,266 1,133 1,259 0,63 -3,117 -3,54 0,55 z"
       display="block"
       id="path10" />
    <path
       style="color:#000000"
       d="m 404,1187 q 29,-20 6,-48 -24,-23 -53,-4 -61,40 -65,105 1,33 39,31 36,-3 35,-37 8,-32 38,-47 z"
       display="block"
       id="path12" />
    <path
       style="color:#000000"
       d="m 656,689 q 22,-11 22,-11 30,-12 19,-44 -12,-30 -46,-20 -118,43 -163,158 -7,33 24,45 31,10 42,-22 8,-17 12,-22 11,9 29,12 61,10 71,-54 3,-22 -10,-42 z"
       display="block"
       id="path14" />
  </g>
  <path
     style="fill:#b22222;stroke:#000000;stroke-width:2.31937"
     d="m 488.87142,1784.2552 c 0.91197,-44.0642 2.53785,-68.3539 6.17677,-92.2778 5.5848,-36.7173 19.78055,-96.6332 30.12165,-127.1342 l 6.93115,-20.4434 -25.36948,-28.8543 c -31.8104,-36.1799 -46.57815,-55.8293 -65.66083,-87.3658 -23.12294,-38.2135 -27.40416,-54.2783 -31.68599,-118.8977 -1.34561,-20.3074 -4.18061,-41.5493 -6.8101,-51.0261 -13.81504,-49.7898 -51.8304,-116.8503 -111.75841,-197.146 -70.1169,-93.94758 -100.08176,-148.34791 -112.29242,-203.86358 -8.02004,-36.4631 -0.77459,-108.92027 15.29449,-152.95063 8.98275,-24.61329 21.905,-45.95684 43.1669,-71.29828 23.67791,-28.221 49.83164,-46.12553 91.18962,-62.42733 11.83618,-4.66538 14.2155,-4.83179 34.82529,-2.43577 12.16663,1.41444 27.83761,4.10307 34.82441,5.97473 12.36675,3.31287 12.79544,3.26727 16.18232,-1.72139 23.59996,-34.76126 45.64157,-48.431 78.13206,-48.45591 36.76503,-0.0283 57.49392,11.78041 77.78712,44.31288 4.37653,7.01608 18.68776,32.65913 31.80277,56.98457 31.45779,58.34719 47.95753,81.21716 87.1229,120.75926 60.07668,60.65455 128.38859,103.75776 223.86871,141.25585 41.15738,16.16385 65.07742,28.65931 90.82625,47.44629 8.7523,6.38587 16.572,11.61066 17.3771,11.61066 2.763,0 -1.6128,-52.19003 -6.189,-73.81577 C 1003.9542,821.54061 980.08332,766.12857 953.612,730.60022 945.53312,719.75719 910.3155,681.32936 875.35057,645.20505 737.28907,502.56553 730.40445,494.46376 703.11996,442.52509 c -29.513,-56.18087 -49.3902,-110.71452 -58.58231,-160.72215 -5.28883,-28.77268 -6.23125,-103.47202 -1.41189,-111.9094 l 2.98083,-5.21858 h 614.55031 614.5504 l -0.012,142.06116 c -0.025,321.51381 -13.6167,484.29854 -53.2956,638.29636 -48.531,188.35642 -152.3293,379.21502 -269.5877,495.70422 -108.1591,107.4496 -249.9584,181.2957 -395.1856,205.8043 -22.5484,3.8053 -69.061,9.4862 -77.6687,9.4862 -1.119,0 -4.6173,5.0967 -7.7739,11.3261 -11.8389,23.3628 -39.0232,60.7684 -60.9525,83.8704 -21.245,22.381 -54.10744,50.9235 -58.63095,50.9235 -1.10789,0 -10.95158,-7.3655 -21.87482,-16.3679 -45.28972,-37.3254 -83.59368,-93.1185 -101.38451,-147.6755 -3.0066,-9.22 -6.1704,-16.7869 -7.03065,-16.8154 -0.86025,-0.028 -8.01448,7.2061 -15.89826,16.0768 -7.8838,8.8707 -27.33994,27.9185 -43.23585,42.3284 -76.48028,69.3309 -156.55186,117.9659 -262.56995,159.4836 l -12.47311,4.8846 z M 1127.2118,1584.09 c 131.2364,-25.2329 270.496,-98.3698 363.4054,-190.8548 79.914,-79.549 152.0267,-203.9073 200.2111,-345.2641 35.732,-104.82526 55.6682,-191.50035 66.597,-289.53849 3.4897,-31.30459 4.2932,-429.13083 0.9896,-489.96603 l -1.9837,-36.53001 h -71.9119 -71.9119 l 1.9953,70.16082 c 2.5506,89.68944 1.4075,381.75875 -1.6725,427.34315 -7.6018,112.50508 -35.7937,236.19195 -81.2582,356.50546 -34.913,92.391 -87.9388,188.7798 -132.4478,240.7604 -23.1879,27.0804 -65.8116,59.9005 -111.9762,86.2215 -42.2507,24.0895 -107.7844,54.2113 -155.3975,71.4267 -11.4809,4.1511 -21.555,8.2066 -22.387,9.0121 -0.832,0.8055 -1.9037,22.5962 -2.3815,48.4237 -0.7634,41.2634 -0.4393,46.8388 2.6724,45.9672 1.9476,-0.5456 9.8035,-2.196 17.4574,-3.6676 z m -306.62097,-16.7786 c -1.02008,-7.9728 -1.70541,-26.1428 -1.52292,-40.3778 l 0.33179,-25.8818 -15.56385,-5.0044 c -8.56011,-2.7524 -28.01815,-11.7541 -43.24006,-20.0037 -36.62939,-19.8516 -42.15408,-21.4507 -53.59495,-15.5134 -17.24701,8.9504 -26.89987,38.5711 -16.61819,50.9945 7.73047,9.3407 51.66947,39.2722 72.6887,49.516 18.8954,9.2088 48.4573,19.797 57.51948,20.6019 1.02008,0.091 1.02008,-6.3584 0,-14.3313 z M 684.90348,1392.3705 c 13.60192,-8.4799 20.0642,-31.7604 12.89184,-46.4433 -3.42909,-7.0198 -7.88716,-10.7004 -21.9119,-18.0903 l -17.60698,-9.2774 4.35129,-9.2775 c 5.80164,-12.3698 4.76725,-41.761 -1.99985,-56.8245 -13.30776,-29.6228 -49.49033,-40.5435 -83.98048,-25.3473 -5.58366,2.4602 -10.56793,4.473 -11.07613,4.473 -0.50817,0 -4.76078,-7.9711 -9.45021,-17.7137 -9.45051,-19.6338 -17.33067,-26.3646 -30.78471,-26.2946 -10.31867,0.054 -24.99713,6.7879 -32.47112,14.8972 -4.9772,5.4002 -5.79842,8.4833 -5.79842,21.7687 0,13.88 1.15635,17.7765 11.20314,37.7516 27.82038,55.3127 68.61489,94.7912 126.08008,122.0127 30.40955,14.4051 47.15493,16.7185 60.55345,8.3654 z m 447.96372,-144.1511 c 14.4938,-7.7731 16.8959,-15.6846 15.6143,-51.4266 -1.6669,-46.4892 -11.9358,-86.4692 -32.9035,-128.1039 -14.2014,-28.1988 -41.8592,-68.3998 -49.9297,-72.57315 -10.173,-5.26065 -25.1583,-4.2559 -38.9378,2.61072 -13.649,6.80163 -18.9461,14.66393 -18.9461,28.12133 0,9.3315 2.0045,13.0136 17.4802,32.1103 11.2219,13.8477 33.4279,56.3747 40.1061,76.8078 6.6141,20.2369 10.4544,55.9952 8.5928,80.0108 -1.7889,23.0773 0.012,28.4664 11.1225,33.2998 11.0176,4.7925 38.1747,4.3056 47.8012,-0.8571 z M 398.93091,878.42895 c 25.99794,-12.82517 29.41972,-43.50381 6.43448,-57.68945 -22.60666,-13.95201 -35.71601,-32.19711 -38.53157,-53.62682 -2.88685,-21.97231 -13.94417,-30.40731 -40.00358,-30.51639 -18.76357,-0.0786 -26.40212,3.52948 -32.5203,15.36072 -8.55931,16.55188 1.33173,56.55934 20.69009,83.68766 9.9967,14.00911 32.15581,33.98885 45.66135,41.17049 12.15398,6.46296 27.1573,7.09563 38.26953,1.61379 z M 506.85734,745.63683 c 8.00679,-4.14046 13.84028,-14.3058 13.84028,-24.11783 0,-15.43612 -24.87066,-75.14627 -36.92247,-88.64451 -10.51923,-11.78173 -22.26464,-14.05728 -37.5356,-7.27214 -30.79584,13.68307 -34.9755,31.19844 -12.95415,54.28608 4.42343,4.63762 12.58298,17.16219 18.13234,27.83239 5.54936,10.67019 14.86593,24.358 20.7035,30.41734 8.94092,9.28062 11.97855,11.01699 19.27309,11.01699 4.76266,0 11.72101,-1.58324 15.46301,-3.51832 z"
     id="path119" />
</svg>
