<?xml version="1.0" encoding="UTF-8" standalone="no"?>
<svg
   xmlns:dc="http://purl.org/dc/elements/1.1/"
   xmlns:cc="http://creativecommons.org/ns#"
   xmlns:rdf="http://www.w3.org/1999/02/22-rdf-syntax-ns#"
   xmlns:svg="http://www.w3.org/2000/svg"
   xmlns="http://www.w3.org/2000/svg"
   xmlns:sodipodi="http://sodipodi.sourceforge.net/DTD/sodipodi-0.dtd"
   xmlns:inkscape="http://www.inkscape.org/namespaces/inkscape"
   width="177.17"
   height="177.17"
   shape-rendering="geometricPrecision"
   image-rendering="optimizeQuality"
   fill-rule="evenodd"
   clip-rule="evenodd"
   viewBox="0 0 50 50"
   version="1.1"
   id="svg10137"
   sodipodi:docname="by.svg"
   inkscape:version="1.0.2 (e86c870879, 2021-01-15)"
   inkscape:export-filename="D:\Pictures\Chess Variants\Chess\pieces\Shogun\BlackMortar.png"
   inkscape:export-xdpi="198.53"
   inkscape:export-ydpi="198.53">
  <metadata
     id="metadata10141">
    <rdf:RDF>
      <cc:Work
         rdf:about="">
        <dc:format>image/svg+xml</dc:format>
        <dc:type
           rdf:resource="http://purl.org/dc/dcmitype/StillImage" />
        <dc:title />
      </cc:Work>
    </rdf:RDF>
  </metadata>
  <sodipodi:namedview
     pagecolor="#ffffff"
     bordercolor="#666666"
     borderopacity="1"
     objecttolerance="10"
     gridtolerance="10"
     guidetolerance="10"
     inkscape:pageopacity="0"
     inkscape:pageshadow="2"
     inkscape:window-width="960"
     inkscape:window-height="1060"
     id="namedview10139"
     showgrid="false"
     inkscape:zoom="2.6641079"
     inkscape:cx="80.690541"
     inkscape:cy="120.19692"
     inkscape:window-x="960"
     inkscape:window-y="20"
     inkscape:window-maximized="1"
     inkscape:current-layer="svg10137"
     inkscape:document-rotation="0" />
  <defs
     id="defs10131">
    <linearGradient
       id="0"
       x1="21.376"
       x2="77.64"
       gradientUnits="userSpaceOnUse"
       gradientTransform="translate(5.0935658,27.115748)">
      <stop
         stop-color="#fff"
         id="stop10126" />
      <stop
         offset="1"
         stop-color="#fff"
         stop-opacity="0"
         id="stop10128" />
    </linearGradient>
    <linearGradient
       gradientTransform="translate(17.679678,31.473797)"
       id="0-2"
       x1="21.190001"
       y1="37.551998"
       x2="77.739998"
       y2="37.429001"
       gradientUnits="userSpaceOnUse">
      <stop
         stop-color="#fff"
         id="stop15856" />
      <stop
         offset="1"
         stop-color="#fff"
         stop-opacity="0"
         id="stop15858" />
    </linearGradient>
  </defs>
  <g
     id="g10710"
     transform="matrix(0.97860225,-0.17858613,0.17858613,0.97860225,-6.3740971,1.8381536)">
    <path
       sodipodi:nodetypes="cccsssc"
       inkscape:connector-curvature="0"
       id="path10688"
       d="m 20.598979,27.528386 -5.346162,-4.421678 9.423667,-11.909954 11.427908,7.193176 c 3.355257,2.111931 5.245889,8.165002 3.071121,11.01109 -2.01284,2.634176 -6.336052,4.927633 -9.812605,2.996215 z"
       style="fill:#000080;fill-opacity:1;stroke:#000080;stroke-width:1.87242;stroke-linecap:butt;stroke-linejoin:miter;stroke-miterlimit:4;stroke-dasharray:none;stroke-opacity:1" />
    <path
       sodipodi:nodetypes="ccsccsc"
       inkscape:connector-curvature="0"
       id="path10690"
       d="M 12.658898,22.245762 22.82839,9.5868642 c 0,0 1.215432,-0.7616529 1.747881,-0.4766949 0.639924,0.342477 0.688559,2.0656777 0.688559,2.0656777 l -10.169491,12.76483 c 0,0 -1.726503,0.81767 -2.330509,0.317797 -0.517574,-0.428342 -0.105932,-2.012712 -0.105932,-2.012712 z"
       style="fill:#ffffff;stroke:#000080;stroke-width:1.56035;stroke-linecap:butt;stroke-linejoin:miter;stroke-miterlimit:4;stroke-dasharray:none;stroke-opacity:1" />
  </g>
  <path
     style="fill:#000080;fill-opacity:1;stroke:#000080;stroke-width:1.86262;stroke-linecap:butt;stroke-linejoin:round;stroke-miterlimit:4;stroke-dasharray:none;stroke-opacity:1"
     d="m 16.679898,31.416202 2.423093,-9.515542 c 1.094969,-4.299972 12.613189,-4.120168 13.717185,0 l 2.573926,9.606016 v 4.354418 H 16.616604 Z"
     id="path10686"
     inkscape:connector-curvature="0"
     sodipodi:nodetypes="csscccc" />
  <g
     id="g16445"
     transform="matrix(1.1,0,0,1.1,-20.914593,-10.493432)">
    <path
       sodipodi:nodetypes="ccccccccccccccc"
       style="fill:#000080;stroke-width:1"
       inkscape:connector-curvature="0"
       id="path15863"
       d="m 46.087678,40.693797 h 4.216 v -3.395 h 6.796 v 9.295 l -5.5,4.243 h -17.81 l -5.508,-4.243 v -9.295 h 6.774 v 3.395 h 4.242 v -3.395 h 6.79 z" />
    <path
       sodipodi:nodetypes="cccccccc"
       style="fill:#ffffff;stroke-width:1"
       inkscape:connector-curvature="0"
       id="path15865"
       d="m 42.689678,44.513797 h -12.7 v 1.143 l 1.812,1.363 h 21.802 l 1.761,-1.363 v -1.143 h -12.675" />
  </g>
  <path
     style="fill:#ffffff;fill-opacity:1;stroke:none;stroke-width:1.7132;stroke-linecap:butt;stroke-linejoin:round;stroke-miterlimit:4;stroke-dasharray:none;stroke-opacity:1"
     d="m 25.961888,19.008605 c -2.901369,-0.02067 -5.801568,0.926769 -6.305132,2.904278 l -2.228836,8.75224 -0.05821,4.088424 h 4.893365 l 0.04978,-4.218301 7.35609,-0.01121 -0.01078,4.229511 h 1.050548 3.932107 v -4.005361 l -2.367077,-8.835307 c -0.507715,-1.894819 -3.410434,-2.883605 -6.3118,-2.904277 z m 0.0085,1.544299 c 2.332351,0.01662 4.66555,0.811129 5.073692,2.334335 l 1.553666,5.820664 -13.25421,-0.06669 1.558021,-5.753969 c 0.404805,-1.589679 2.736492,-2.350953 5.068843,-2.334336 z"
     id="path16460"
     inkscape:connector-curvature="0"
     sodipodi:nodetypes="scccccccccccscccccsc" />
</svg>
