<?xml version="1.0" encoding="UTF-8" standalone="no"?>
<svg
   xmlns:dc="http://purl.org/dc/elements/1.1/"
   xmlns:cc="http://creativecommons.org/ns#"
   xmlns:rdf="http://www.w3.org/1999/02/22-rdf-syntax-ns#"
   xmlns:svg="http://www.w3.org/2000/svg"
   xmlns="http://www.w3.org/2000/svg"
   xmlns:sodipodi="http://sodipodi.sourceforge.net/DTD/sodipodi-0.dtd"
   xmlns:inkscape="http://www.inkscape.org/namespaces/inkscape"
   height="100%"
   width="100%"
   version="1.1"
   viewBox="0 0 2048 2048"
   id="svg18"
   sodipodi:docname="wh.svg"
   inkscape:version="1.0.2 (e86c870879, 2021-01-15)">
  <metadata
     id="metadata24">
    <rdf:RDF>
      <cc:Work
         rdf:about="">
        <dc:format>image/svg+xml</dc:format>
        <dc:type
           rdf:resource="http://purl.org/dc/dcmitype/StillImage" />
      </cc:Work>
    </rdf:RDF>
  </metadata>
  <defs
     id="defs22" />
  <sodipodi:namedview
     pagecolor="#ffffff"
     bordercolor="#666666"
     borderopacity="1"
     objecttolerance="10"
     gridtolerance="10"
     guidetolerance="10"
     inkscape:pageopacity="0"
     inkscape:pageshadow="2"
     inkscape:window-width="960"
     inkscape:window-height="1060"
     id="namedview20"
     showgrid="false"
     inkscape:zoom="0.43115234"
     inkscape:cx="1024"
     inkscape:cy="1021.6806"
     inkscape:window-x="0"
     inkscape:window-y="20"
     inkscape:window-maximized="0"
     inkscape:current-layer="svg18"
     inkscape:document-rotation="0" />
  <path
     style="color:#000000"
     d="m 1024,864.11538 q 97,0 186,-15 98,35 142,109 38,64.00002 38,141.00002 0,46 -23,101 -23,55 -75,101 -59,49 -129,107 -70,58 -139,137 -70,-78 -140,-136 -70,-58 -128,-108 -53,-45 -75,-100 -22,-55 -23,-102 0,-77 37,-141.00002 43,-74 143,-109 88,15 186,15 z"
     fill-rule="nonzero"
     display="block"
     fill="#ffffff"
     id="path2" />
  <path
     style="color:#000000"
     d="m 988,1120.1154 -83,1 q -34,0 -34,34 0,34 34,34 h 83 v 86 q 0,35 36,35 35,0 35,-35 v -86 h 86 q 33,0 33,-34 0,-34 -33,-34 h -86 v -82 q 0,-36 -35,-36 -36,0 -36,36 z m 36,-578.00002 q 68,0 132,11 64,11 125,28 -117,31 -257,31 -142,0 -257,-31 58,-16 123,-27 65,-11 134,-12 z m 0,1089.00002 q 68,0 68,68 0,68 -68,68 -68,0 -68,-68 0,-68 68,-68 z m 0,-949.00002 q 117,0 225,-23 l -48,123 q -88,14 -177,14 -91,0 -178,-14 l -48,-123 q 107,23 226,23 z m 0,182 q 97,0 186,-15 98,35 142,109 38,64.00002 38,141.00002 0,46 -23,101 -23,55 -75,101 -59,49 -129,107 -70,58 -139,137 -70,-78 -140,-136 -70,-58 -128,-108 -53,-45 -75,-100 -22,-55 -23,-102 0,-77 37,-141.00002 43,-74 143,-109 88,15 186,15 z m -36,-377 h -32 q -56,-90 -107,-113 -24,-12 -53,-22 -29,-10 -67,-10 -7,0 -107,16 -48,7 -76,15 -28,8 -44,10 -57,7 -133,-6 -46,-8 -86,-29 l 48,-78 q 12,12 31,15 19,3 36,8 42,7 80,2 13,-3 51,-7 38,-4 101,-15 75,-11 102,-11 105,0 161,40 34,26 64,72 30,46 31,113 z m 36,-113 q -14,-57 -34,-79 -20,-22 -53,-46 -36,-25 -85,-42 -49,-17 -109,-9 l -281,39 q -17,2 -30,0 -13,-2 -26,-2 -21,0 -53,-9 -32,-9 -51,-28 l -97,159 q 18,20 32,28 14,8 33,17 58,27 124,33 28,2 55,1 27,-1 56,2 54,-9 108,-16 54,-7 110,-16 60,0 81,12 11,6 35,22 24,16 48,47 -53,6 -108,20 -55,14 -97,31 l 104,258 q -78,45 -109,72 -31,27 -49,64 -26,46 -33,89.00002 -7,43 -7,77 1,60 28,132 27,72 104,130 63,48 123,99 60,51 119,119 -74,38 -74,121 0,56 39,96 39,40 97,40 56,0 96,-40 40,-40 40,-96 0,-82 -74,-121 58,-68 117,-119 59,-51 125,-99 75,-57 102,-129 27,-72 29,-133 0,-34 -7,-77 -7,-43.00002 -32,-89.00002 -20,-36 -50,-63 -30,-27 -108,-73 l 104,-258 q -44,-16 -99,-30 -55,-14 -106,-21 23,-31 47,-47 24,-16 36,-22 21,-12 81,-12 54,8 108,15 54,7 110,17 27,-3 54,-2 27,1 57,-1 64,-6 124,-33 18,-9 32,-17 14,-8 33,-28 l -98,-159 q -18,18 -50,27 -32,9 -53,10 -13,0 -26,2 -13,2 -31,0 l -280,-39 q -60,-9 -111,8 -51,17 -85,45 -33,27 -52,46 -19,19 -33,77 z m 35,113 q 0,-66 30,-112 30,-46 66,-73 55,-40 161,-40 26,0 102,11 62,10 100,14 38,4 51,8 38,5 80,-2 16,-4 35,-7 19,-3 33,-16 l 48,78 q -41,21 -87,29 -76,13 -133,6 -17,-2 -44,-10 -27,-8 -75,-15 -101,-16 -107,-16 -39,0 -68,10 -29,10 -52,22 -53,24 -108,113 z"
     fill-rule="nonzero"
     display="block"
     fill="#000000"
     id="path4" />
  <g
     fill-rule="nonzero"
     fill="#ffffff"
     id="g16"
     transform="matrix(1,0,0,-1,0,2030.1154)">
    <path
       style="color:#000000"
       d="m 1024,1488 q 68,0 132,-11 64,-11 125,-28 -117,-31 -257,-31 -142,0 -257,31 58,16 123,27 65,11 134,12 z"
       display="block"
       id="path6" />
    <path
       style="color:#000000"
       d="m 1024,399 q 68,0 68,-68 0,-68 -68,-68 -68,0 -68,68 0,68 68,68 z"
       display="block"
       id="path8" />
    <path
       style="color:#000000"
       d="m 1024,1348 q 117,0 225,23 l -48,-123 q -88,-14 -177,-14 -91,0 -178,14 l -48,123 q 107,-23 226,-23 z"
       display="block"
       id="path10" />
    <path
       style="color:#000000"
       d="m 988,1543 h -32 q -56,90 -107,113 -24,12 -53,22 -29,10 -67,10 -7,0 -107,-16 -48,-7 -76,-15 -28,-8 -44,-10 -57,-7 -133,6 -46,8 -86,29 l 48,78 q 12,-12 31,-15 19,-3 36,-8 42,-7 80,-2 13,3 51,7 38,4 101,15 75,11 102,11 105,0 161,-40 34,-26 64,-72 30,-46 31,-113 z"
       display="block"
       id="path12" />
    <path
       style="color:#000000"
       d="m 1059,1543 q 0,66 30,112 30,46 66,73 55,40 161,40 26,0 102,-11 62,-10 100,-14 38,-4 51,-8 38,-5 80,2 16,4 35,7 19,3 33,16 l 48,-78 q -41,-21 -87,-29 -76,-13 -133,-6 -17,2 -44,10 -27,8 -75,15 -101,16 -107,16 -39,0 -68,-10 -29,-10 -52,-22 -53,-24 -108,-113 z"
       display="block"
       id="path14" />
  </g>
  <path
     style="fill:#ffd700;stroke:#000000;stroke-width:2.31937"
     d="m 947.17182,471.41109 c -30.45334,-45.32634 -64.86074,-80.9966 -91.76761,-95.13576 -22.95398,-12.06198 -61.45362,-26.6333 -81.08074,-30.68739 -26.67391,-5.50965 -51.01232,-4.28682 -116.05835,5.8311 -72.89746,11.33921 -76.88494,12.10192 -119.01258,22.76439 -33.45007,8.46618 -33.89255,8.5119 -82.33748,8.50794 -66.52062,-0.005 -108.55722,-7.30624 -155.48269,-27.00384 l -17.29486,-7.25975 5.09615,-8.37924 c 2.80289,-4.60858 13.30666,-21.68954 23.34173,-37.95769 l 18.24557,-29.57846 9.70164,5.52032 c 5.33589,3.03617 22.74806,8.43988 38.6937,12.00823 40.29849,9.0181 76.74353,9.11601 142.641,0.38322 26.78868,-3.55006 60.80841,-8.50481 75.5994,-11.01056 85.2588,-14.44374 136.26154,-18.40583 179.53084,-13.94666 71.73861,7.39311 116.60421,29.22282 153.48533,74.67949 36.13568,44.53787 51.19578,79.03611 55.36431,126.823 l 1.65194,18.9377 h -15.28893 -15.28896 z"
     id="path98" />
  <path
     style="fill:#ffd700;stroke:#000000;stroke-width:2.31937"
     d="m 960.21744,609.71854 c -30.46594,-1.92131 -88.37044,-8.34131 -113.06287,-12.53553 -34.16061,-5.80248 -71.32671,-14.1993 -71.32671,-16.11462 0,-3.20983 87.1612,-22.0073 134.42087,-28.98966 62.98166,-9.30519 159.43327,-10.45377 215.80337,-2.56986 47.4172,6.63175 146.12,27.88938 146.12,31.46988 0,4.28726 -90.4772,20.37707 -143.8006,25.57245 -26.8902,2.61996 -142.34881,4.79472 -168.15406,3.16734 z"
     id="path100" />
  <path
     style="fill:#ffd700;stroke:#000000;stroke-width:2.31937"
     d="m 1061.8034,464.453 c 3.254,-50.76824 23.7655,-92.95822 66.2041,-136.17488 32.4584,-33.05348 60.9141,-48.19648 108.9705,-57.98975 48.4347,-9.87036 92.2077,-8.96955 177.8351,3.6597 21.6861,3.1985 59.2598,8.3515 83.4972,11.45111 24.2374,3.09962 53.8564,7.35888 65.8201,9.46503 39.7549,6.99867 118.5147,-2.11356 143.1736,-16.56469 l 9.875,-5.78713 18.2456,29.57846 c 10.0351,16.26815 20.5389,33.34911 23.3417,37.95769 l 5.0962,8.37924 -17.2949,7.25975 c -46.8542,19.66769 -89.5876,26.97583 -157.802,26.98684 l -48.7067,0.008 -38.2695,-9.86495 c -45.6661,-11.77155 -163.9011,-30.71085 -191.723,-30.71085 -34.8132,0 -72.4411,10.70844 -114.0588,32.45977 -31.5375,16.48291 -63.3679,48.11742 -92.5737,92.00384 l -12.8686,19.33707 h -15.0685 -15.0685 z"
     id="path102" />
  <path
     style="fill:#ffd700;stroke:#000000;stroke-width:2.31937"
     d="m 926.58664,790.93079 c -48.45784,-4.4723 -76.71362,-8.51955 -79.27829,-11.35554 -1.96603,-2.17401 -48.13304,-117.97896 -47.38055,-118.84898 0.13937,-0.16115 13.29983,2.13616 29.24547,5.10512 122.21863,22.7562 264.35173,22.78487 389.07363,0.0785 15.6267,-2.84494 28.4122,-4.79397 28.4122,-4.33117 0,3.21136 -45.0594,115.95904 -47.1855,118.06753 -2.8563,2.83272 -47.2869,8.7649 -93.1361,12.43514 -37.9794,3.04026 -141.52393,2.37747 -179.75086,-1.15058 z"
     id="path104" />
  <path
     style="fill:#ffd700;stroke:#000000;stroke-width:2.31937"
     d="m 971.81427,1489.269 c -33.7343,-34.0367 -67.92481,-65.5709 -100.89241,-93.0538 C 727.7932,1276.898 712.94334,1262.0988 689.43513,1215.3477 c -35.64978,-70.8972 -38.89555,-152.0899 -8.95504,-224.01025 17.47633,-41.98002 48.40993,-80.56982 83.42688,-104.0754 20.8143,-13.97185 67.23106,-35.85433 75.65918,-35.66836 3.8513,0.085 19.52694,1.82817 34.83475,3.87375 49.50664,6.61557 86.90237,8.81829 149.5991,8.81183 64.5397,-0.007 103.5443,-2.40639 155.2128,-9.54937 35.4041,-4.89449 34.5399,-5.05898 71.4319,13.59618 49.5753,25.06869 85.7117,60.84318 109.4786,108.38215 49.3986,98.80777 32.1307,215.45167 -44.2309,298.77907 -8.1005,8.8394 -51.2582,46.4757 -95.906,83.6361 -92.232,76.7649 -127.2998,108.6652 -166.9212,151.8437 -15.2675,16.6383 -28.314,30.1466 -28.992,30.0184 -0.6781,-0.1281 -24.1946,-23.4006 -52.25893,-51.7165 z m 74.36703,-183.3493 c 12.8571,-8.4243 13.7046,-12.2248 14.5769,-65.3684 l 0.808,-49.2261 47.8987,-0.7453 c 55.0636,-0.8567 59.784,-2.1479 66.1661,-18.0983 4.7794,-11.9451 4.7794,-22.9297 0,-34.8748 -6.3581,-15.8903 -11.0983,-17.1878 -66.1595,-18.1099 l -47.892,-0.8019 -0.8887,-46.7677 c -0.9815,-51.6509 -2.6343,-58.5058 -15.7406,-65.2833 -10.1912,-5.27 -34.187,-4.6222 -43.7036,1.1799 -12.77518,7.7888 -14.35645,15.0548 -14.35645,65.968 v 45.3021 l -41.16875,0.1009 c -48.20479,0.1183 -59.1611,1.7612 -67.52557,10.1257 -5.64188,5.642 -6.11429,7.6295 -6.11429,25.7236 0,18.0106 0.49019,20.0993 6.013,25.6222 8.62666,8.6266 18.87421,10.2104 66.46718,10.2726 l 42.32843,0.055 v 44.9378 c 0,48.9596 0.71455,55.7952 6.65597,63.6719 8.67818,11.505 39.13738,15.1598 52.63518,6.3157 z"
     id="path106" />
  <path
     style="fill:#ffd700;stroke:#000000;stroke-width:2.31937"
     d="m 997.32729,1762.3466 c -16.51064,-5.022 -26.29282,-13.3548 -33.30723,-28.3726 -5.20533,-11.1445 -6.07755,-16.1561 -6.09806,-35.0385 -0.0216,-19.8695 0.65961,-23.4011 6.93417,-35.9502 5.32746,-10.6549 9.47402,-15.4484 17.69378,-20.4544 22.68075,-13.8128 60.21935,-13.8128 82.90005,0 8.2198,5.006 12.3664,9.7995 17.6938,20.4544 6.2664,12.5327 6.9581,16.1067 6.9581,35.9502 0,19.8434 -0.6917,23.4174 -6.9581,35.9501 -4.307,8.6142 -9.9728,15.9127 -14.8709,19.1563 -17.8607,11.8278 -47.8295,15.3358 -70.94561,8.3047 z"
     id="path108" />
</svg>
