<?xml version="1.0" encoding="UTF-8" standalone="no"?>
<svg
   xmlns:dc="http://purl.org/dc/elements/1.1/"
   xmlns:cc="http://creativecommons.org/ns#"
   xmlns:rdf="http://www.w3.org/1999/02/22-rdf-syntax-ns#"
   xmlns:svg="http://www.w3.org/2000/svg"
   xmlns="http://www.w3.org/2000/svg"
   xmlns:sodipodi="http://sodipodi.sourceforge.net/DTD/sodipodi-0.dtd"
   xmlns:inkscape="http://www.inkscape.org/namespaces/inkscape"
   height="100%"
   width="100%"
   version="1.1"
   viewBox="0 0 2048 2048"
   id="svg34"
   sodipodi:docname="wl.svg"
   inkscape:version="1.0.2 (e86c870879, 2021-01-15)">
  <metadata
     id="metadata40">
    <rdf:RDF>
      <cc:Work
         rdf:about="">
        <dc:format>image/svg+xml</dc:format>
        <dc:type
           rdf:resource="http://purl.org/dc/dcmitype/StillImage" />
      </cc:Work>
    </rdf:RDF>
  </metadata>
  <defs
     id="defs38" />
  <sodipodi:namedview
     pagecolor="#ffffff"
     bordercolor="#666666"
     borderopacity="1"
     objecttolerance="10"
     gridtolerance="10"
     guidetolerance="10"
     inkscape:pageopacity="0"
     inkscape:pageshadow="2"
     inkscape:window-width="960"
     inkscape:window-height="1060"
     id="namedview36"
     showgrid="false"
     inkscape:zoom="0.43115234"
     inkscape:cx="1024"
     inkscape:cy="1024"
     inkscape:window-x="0"
     inkscape:window-y="20"
     inkscape:window-maximized="0"
     inkscape:current-layer="svg34" />
  <path
     style="color:#000000"
     d="m 1024,1593 q -57,0 -96,40 -39,40 -40,97 0,56 39,96 39,40 97,40 56,0 96,-40 40,-40 41,-96 0,-57 -40,-97 -40,-40 -97,-40 z m 0,70 q 67,0 67,67 0,66 -67,66 -66,0 -66,-66 0,-67 66,-67 z M 1533,656 q -193,49 -505,49 -320,0 -511,-50 l 15,-96 q 195,46 496,46 299,0 488,-45 z m 25,60 65,115 q -48,-19 -98,-19 -134,0 -214,109 -60,-50 -134,-50 -96,0 -153,75 -64,-70 -153,-70 -72,0 -132,49 -84,-107 -217,-107 -51,0 -101,19 l 70,-120 q 194,56 533,56 345,0 534,-57 z m -448,239 -85,489 -85,-483 q 3,2 14,10 23,45 70,45 51,0 66,-45 6,-6 20,-16 z m 277,-19 v 463 L 1222,945 q 19,7 32,18 20,25 54,25 40,0 64,-35 3,-4 7,-8 4,-4 8,-9 z M 825,950 661,1399 V 942 q 3,4 9,10 20,42 66,42 38,0 62,-32 27,-12 27,-12 z M 571,894 356,1265 411,927 q 57,-40 111,-40 21,0 49,7 z m 903,-5 q 23,-7 51,-7 61,0 114,38 l 55,346 z m 60,-506 -30,113 q -196,43 -480,43 -281,0 -479,-43 L 514,382 q 186,56 511,56 317,0 509,-55 z m 106,-128 q -49,-43 -220,-72 -171,-29 -394,-29 -227,0 -399,30 -172,30 -217,75 l 63,240 -28,157 -88,153 -85,622 49,19 274,-462 6,550 68,12 209,-553 112,595 h 69 l 112,-593 207,551 69,-12 6,-550 275,463 47,-22 -83,-619 -89,-153 -28,-159 z m -81,36 q -183,76 -531,76 -355,0 -537,-78 175,-69 534,-69 172,0 314,19 142,19 220,52 z M 604,1543 q -57,0 -97,39 -40,39 -40,97 0,56 40,96 40,40 97,40 56,0 96,-40 40,-40 40,-96 0,-57 -40,-96 -40,-39 -96,-40 z m 0,70 q 66,0 66,66 0,66 -66,66 -67,0 -67,-66 0,-66 67,-66 z m 840,0 q 67,0 67,66 0,66 -67,66 -66,0 -66,-66 0,-66 66,-66 z m 0,-70 q -57,0 -96,39 -39,39 -40,97 0,56 39,96 39,40 97,40 57,0 97,-40 40,-40 40,-96 0,-57 -40,-96 -40,-39 -97,-40 z M 236,1433 q -57,0 -96,39 -39,39 -40,97 0,56 39,96 39,40 97,41 57,0 97,-40 40,-40 40,-97 0,-57 -40,-96 -40,-39 -97,-40 z m 0,70 q 67,0 67,66 0,67 -67,67 -66,0 -66,-67 0,-66 66,-66 z m 1578,0 q 66,0 66,66 0,67 -66,67 -67,0 -67,-67 0,-66 67,-66 z m 0,-70 q -57,0 -97,39 -40,39 -40,97 0,56 40,96 40,40 97,41 56,0 96,-40 40,-40 40,-97 0,-57 -40,-96 -40,-39 -96,-40 z"
     fill-rule="nonzero"
     display="block"
     fill="#000000"
     id="path2" />
  <g
     fill-rule="nonzero"
     fill="#ffffff"
     id="g32"
     transform="matrix(1,0,0,-1,0,2020)">
    <path
       style="color:#000000"
       d="m 1024,357 q 67,0 67,-67 0,-66 -67,-66 -66,0 -66,66 0,67 66,67 z"
       display="block"
       id="path4" />
    <path
       style="color:#000000"
       d="m 1533,1364 q -193,-49 -505,-49 -320,0 -511,50 l 15,96 q 195,-46 496,-46 299,0 488,45 z"
       display="block"
       id="path6" />
    <path
       style="color:#000000"
       d="m 1558,1304 65,-115 q -48,19 -98,19 -134,0 -214,-109 -60,50 -134,50 -96,0 -153,-75 -64,70 -153,70 -72,0 -132,-49 -84,107 -217,107 -51,0 -101,-19 l 70,120 q 194,-56 533,-56 345,0 534,57 z"
       display="block"
       id="path8" />
    <path
       style="color:#000000"
       d="m 1110,1065 -85,-489 -85,483 q 3,-2 14,-10 23,-45 70,-45 51,0 66,45 6,6 20,16 z"
       display="block"
       id="path10" />
    <path
       style="color:#000000"
       d="M 1387,1084 V 621 l -165,454 q 19,-7 32,-18 20,-25 54,-25 40,0 64,35 3,4 7,8 4,4 8,9 z"
       display="block"
       id="path12" />
    <path
       style="color:#000000"
       d="M 825,1070 661,621 v 457 q 3,-4 9,-10 20,-42 66,-42 38,0 62,32 27,12 27,12 z"
       display="block"
       id="path14" />
    <path
       style="color:#000000"
       d="m 571,1126 -215,-371 55,338 q 57,40 111,40 21,0 49,-7 z"
       display="block"
       id="path16" />
    <path
       style="color:#000000"
       d="m 1474,1131 q 23,7 51,7 61,0 114,-38 l 55,-346 z"
       display="block"
       id="path18" />
    <path
       style="color:#000000"
       d="m 1534,1637 -30,-113 q -196,-43 -480,-43 -281,0 -479,43 l -31,114 q 186,-56 511,-56 317,0 509,55 z"
       display="block"
       id="path20" />
    <path
       style="color:#000000"
       d="m 1559,1729 q -183,-76 -531,-76 -355,0 -537,78 175,69 534,69 172,0 314,-19 142,-19 220,-52 z"
       display="block"
       id="path22" />
    <path
       style="color:#000000"
       d="m 604,407 q 66,0 66,-66 0,-66 -66,-66 -67,0 -67,66 0,66 67,66 z"
       display="block"
       id="path24" />
    <path
       style="color:#000000"
       d="m 1444,407 q 67,0 67,-66 0,-66 -67,-66 -66,0 -66,66 0,66 66,66 z"
       display="block"
       id="path26" />
    <path
       style="color:#000000"
       d="m 236,517 q 67,0 67,-66 0,-67 -67,-67 -66,0 -66,67 0,66 66,66 z"
       display="block"
       id="path28" />
    <path
       style="color:#000000"
       d="m 1814,517 q 66,0 66,-66 0,-67 -66,-67 -67,0 -67,67 0,66 67,66 z"
       display="block"
       id="path30" />
  </g>
</svg>
