<?xml version="1.0" encoding="UTF-8" standalone="no"?>
<svg
   xmlns:dc="http://purl.org/dc/elements/1.1/"
   xmlns:cc="http://creativecommons.org/ns#"
   xmlns:rdf="http://www.w3.org/1999/02/22-rdf-syntax-ns#"
   xmlns:svg="http://www.w3.org/2000/svg"
   xmlns="http://www.w3.org/2000/svg"
   xmlns:sodipodi="http://sodipodi.sourceforge.net/DTD/sodipodi-0.dtd"
   xmlns:inkscape="http://www.inkscape.org/namespaces/inkscape"
   height="100%"
   width="100%"
   version="1.1"
   viewBox="0 0 2048 2048"
   id="svg34"
   sodipodi:docname="wo.svg"
   inkscape:version="1.0.2 (e86c870879, 2021-01-15)">
  <metadata
     id="metadata40">
    <rdf:RDF>
      <cc:Work
         rdf:about="">
        <dc:format>image/svg+xml</dc:format>
        <dc:type
           rdf:resource="http://purl.org/dc/dcmitype/StillImage" />
      </cc:Work>
    </rdf:RDF>
  </metadata>
  <defs
     id="defs38" />
  <sodipodi:namedview
     pagecolor="#ffffff"
     bordercolor="#666666"
     borderopacity="1"
     objecttolerance="10"
     gridtolerance="10"
     guidetolerance="10"
     inkscape:pageopacity="0"
     inkscape:pageshadow="2"
     inkscape:window-width="960"
     inkscape:window-height="1060"
     id="namedview36"
     showgrid="false"
     inkscape:zoom="0.43115234"
     inkscape:cx="1024"
     inkscape:cy="1021.6806"
     inkscape:window-x="0"
     inkscape:window-y="20"
     inkscape:window-maximized="0"
     inkscape:current-layer="svg34"
     inkscape:document-rotation="0" />
  <path
     style="color:#000000"
     d="m 1024,1593 q -57,0 -96,40 -39,40 -40,97 0,56 39,96 39,40 97,40 56,0 96,-40 40,-40 41,-96 0,-57 -40,-97 -40,-40 -97,-40 z m 0,70 q 67,0 67,67 0,66 -67,66 -66,0 -66,-66 0,-67 66,-67 z M 1533,656 q -193,49 -505,49 -320,0 -511,-50 l 15,-96 q 195,46 496,46 299,0 488,-45 z m 25,60 65,115 q -48,-19 -98,-19 -134,0 -214,109 -60,-50 -134,-50 -96,0 -153,75 -64,-70 -153,-70 -72,0 -132,49 -84,-107 -217,-107 -51,0 -101,19 l 70,-120 q 194,56 533,56 345,0 534,-57 z m -448,239 -85,489 -85,-483 q 3,2 14,10 23,45 70,45 51,0 66,-45 6,-6 20,-16 z m 277,-19 v 463 L 1222,945 q 19,7 32,18 20,25 54,25 40,0 64,-35 3,-4 7,-8 4,-4 8,-9 z M 825,950 661,1399 V 942 q 3,4 9,10 20,42 66,42 38,0 62,-32 27,-12 27,-12 z M 571,894 356,1265 411,927 q 57,-40 111,-40 21,0 49,7 z m 903,-5 q 23,-7 51,-7 61,0 114,38 l 55,346 z m 60,-506 -30,113 q -196,43 -480,43 -281,0 -479,-43 L 514,382 q 186,56 511,56 317,0 509,-55 z m 106,-128 q -49,-43 -220,-72 -171,-29 -394,-29 -227,0 -399,30 -172,30 -217,75 l 63,240 -28,157 -88,153 -85,622 49,19 274,-462 6,550 68,12 209,-553 112,595 h 69 l 112,-593 207,551 69,-12 6,-550 275,463 47,-22 -83,-619 -89,-153 -28,-159 z m -81,36 q -183,76 -531,76 -355,0 -537,-78 175,-69 534,-69 172,0 314,19 142,19 220,52 z M 604,1543 q -57,0 -97,39 -40,39 -40,97 0,56 40,96 40,40 97,40 56,0 96,-40 40,-40 40,-96 0,-57 -40,-96 -40,-39 -96,-40 z m 0,70 q 66,0 66,66 0,66 -66,66 -67,0 -67,-66 0,-66 67,-66 z m 840,0 q 67,0 67,66 0,66 -67,66 -66,0 -66,-66 0,-66 66,-66 z m 0,-70 q -57,0 -96,39 -39,39 -40,97 0,56 39,96 39,40 97,40 57,0 97,-40 40,-40 40,-96 0,-57 -40,-96 -40,-39 -97,-40 z M 236,1433 q -57,0 -96,39 -39,39 -40,97 0,56 39,96 39,40 97,41 57,0 97,-40 40,-40 40,-97 0,-57 -40,-96 -40,-39 -97,-40 z m 0,70 q 67,0 67,66 0,67 -67,67 -66,0 -66,-67 0,-66 66,-66 z m 1578,0 q 66,0 66,66 0,67 -66,67 -67,0 -67,-67 0,-66 67,-66 z m 0,-70 q -57,0 -97,39 -40,39 -40,97 0,56 40,96 40,40 97,41 56,0 96,-40 40,-40 40,-97 0,-57 -40,-96 -40,-39 -96,-40 z"
     fill-rule="nonzero"
     display="block"
     fill="#000000"
     id="path2" />
  <g
     fill-rule="nonzero"
     fill="#ffffff"
     id="g32"
     transform="matrix(1,0,0,-1,0,2020)">
    <path
       style="color:#000000"
       d="m 1024,357 q 67,0 67,-67 0,-66 -67,-66 -66,0 -66,66 0,67 66,67 z"
       display="block"
       id="path4" />
    <path
       style="color:#000000"
       d="m 1533,1364 q -193,-49 -505,-49 -320,0 -511,50 l 15,96 q 195,-46 496,-46 299,0 488,45 z"
       display="block"
       id="path6" />
    <path
       style="color:#000000"
       d="m 1558,1304 65,-115 q -48,19 -98,19 -134,0 -214,-109 -60,50 -134,50 -96,0 -153,-75 -64,70 -153,70 -72,0 -132,-49 -84,107 -217,107 -51,0 -101,-19 l 70,120 q 194,-56 533,-56 345,0 534,57 z"
       display="block"
       id="path8" />
    <path
       style="color:#000000"
       d="m 1110,1065 -85,-489 -85,483 q 3,-2 14,-10 23,-45 70,-45 51,0 66,45 6,6 20,16 z"
       display="block"
       id="path10" />
    <path
       style="color:#000000"
       d="M 1387,1084 V 621 l -165,454 q 19,-7 32,-18 20,-25 54,-25 40,0 64,35 3,4 7,8 4,4 8,9 z"
       display="block"
       id="path12" />
    <path
       style="color:#000000"
       d="M 825,1070 661,621 v 457 q 3,-4 9,-10 20,-42 66,-42 38,0 62,32 27,12 27,12 z"
       display="block"
       id="path14" />
    <path
       style="color:#000000"
       d="m 571,1126 -215,-371 55,338 q 57,40 111,40 21,0 49,-7 z"
       display="block"
       id="path16" />
    <path
       style="color:#000000"
       d="m 1474,1131 q 23,7 51,7 61,0 114,-38 l 55,-346 z"
       display="block"
       id="path18" />
    <path
       style="color:#000000"
       d="m 1534,1637 -30,-113 q -196,-43 -480,-43 -281,0 -479,43 l -31,114 q 186,-56 511,-56 317,0 509,55 z"
       display="block"
       id="path20" />
    <path
       style="color:#000000"
       d="m 1559,1729 q -183,-76 -531,-76 -355,0 -537,78 175,69 534,69 172,0 314,-19 142,-19 220,-52 z"
       display="block"
       id="path22" />
    <path
       style="color:#000000"
       d="m 604,407 q 66,0 66,-66 0,-66 -66,-66 -67,0 -67,66 0,66 67,66 z"
       display="block"
       id="path24" />
    <path
       style="color:#000000"
       d="m 1444,407 q 67,0 67,-66 0,-66 -67,-66 -66,0 -66,66 0,66 66,66 z"
       display="block"
       id="path26" />
    <path
       style="color:#000000"
       d="m 236,517 q 67,0 67,-66 0,-67 -67,-67 -66,0 -66,67 0,66 66,66 z"
       display="block"
       id="path28" />
    <path
       style="color:#000000"
       d="m 1814,517 q 66,0 66,-66 0,-67 -66,-67 -67,0 -67,67 0,66 67,66 z"
       display="block"
       id="path30" />
  </g>
  <path
     style="fill:#ffd700;stroke:#000000;stroke-width:2.31937"
     d="M 889.47678,362.90619 C 730.17696,354.10255 593.79445,329.77628 507.96343,294.85644 l -13.79035,-5.61052 9.20338,-3.86817 c 30.41234,-12.78231 109.73294,-32.12785 171.17501,-41.74798 88.42775,-13.84533 173.4185,-19.73686 308.85963,-21.41004 180.2871,-2.22719 318.2009,7.74617 441.8392,31.95199 52.992,10.37474 127.5651,31.89837 127.5651,36.81841 0,2.61331 -35.7458,15.254 -72.9319,25.79067 -75.5906,21.41861 -154.9807,33.99216 -278.452,44.10033 -38.6307,3.16256 -264.80493,4.63078 -311.95472,2.02506 z"
     id="path70" />
  <path
     style="fill:#ffd700;stroke:#000000;stroke-width:2.31937"
     d="m 866.28312,534.5427 c -88.18293,-4.755 -182.28514,-14.66593 -253.197,-26.66694 -45.53136,-7.70566 -64.62258,-11.76771 -66.71693,-14.19539 -2.01445,-2.33506 -30.76576,-107.82364 -29.68288,-108.90651 0.40788,-0.40789 10.08794,1.84517 21.51122,5.00679 78.12793,21.62346 189.71561,37.19241 325.76623,45.45161 59.06158,3.58544 259.07664,3.5748 321.23214,-0.0172 128.3292,-7.41589 247.134,-23.8579 326.4508,-45.17911 11.1619,-3.00046 20.2944,-4.90317 20.2944,-4.22825 0,1.93989 -28.242,108.13763 -28.9644,108.91412 -1.3501,1.45121 -57.3734,11.93946 -94.0462,17.60662 -49.7773,7.69223 -109.3579,14.25153 -172.7085,19.01367 -58.2448,4.37833 -308.02102,6.53929 -369.93888,3.20056 z"
     id="path72" />
  <path
     style="fill:#ffd700;stroke:#000000;stroke-width:2.31937"
     d="M 888.3171,701.59761 C 777.74593,696.7451 681.16019,686.89563 601.87542,672.38728 c -28.37286,-5.19195 -81.33543,-16.88631 -83.01873,-18.33087 -0.658,-0.56468 13.39491,-92.31459 14.27719,-93.2142 0.23966,-0.24438 9.5828,1.59384 20.76253,4.08493 139.09659,30.99373 365.96638,46.54415 575.51679,39.44785 147.0785,-4.98072 241.5785,-14.38137 341.8322,-34.00468 23.3838,-4.57707 42.9629,-7.87516 43.5089,-7.32909 0.5461,0.54607 4.5855,21.21889 8.9764,45.9396 5.4341,30.59313 7.1951,45.43407 5.5145,46.47274 -3.5622,2.20157 -65.5875,15.20633 -98.1965,20.58874 -60.277,9.94925 -133.5157,17.73831 -219.1801,23.31015 -49.6787,3.23123 -266.75837,4.73757 -323.5515,2.24516 z"
     id="path74" />
  <path
     style="fill:#ffd700;stroke:#000000;stroke-width:2.31937"
     d="m 1017.9812,937.83079 c -10.6763,-12.06104 -40.20143,-33.05464 -59.72727,-42.46868 -28.52808,-13.7543 -43.90956,-17.57057 -76.89493,-19.07823 -46.35255,-2.11863 -83.99585,8.05785 -121.79479,32.92599 -10.64881,7.00592 -19.67205,12.73803 -20.05161,12.73803 -0.37957,0 -9.32427,-9.03704 -19.87713,-20.08231 -43.14904,-45.16246 -89.89235,-70.42527 -149.55868,-80.83021 -38.09475,-6.64317 -92.13637,-3.27697 -128.35323,7.99498 -8.11863,2.5268 -15.1596,4.19574 -15.64659,3.70875 -0.63937,-0.63937 62.69896,-111.36656 65.27493,-114.11273 0.1945,-0.20735 9.74708,2.14989 21.22794,5.23832 32.87062,8.84242 95.92719,21.08624 141.48131,27.4717 103.85554,14.55775 182.67803,19.74622 325.8709,21.45036 231.10985,2.75044 401.53895,-11.39853 534.46105,-44.37082 22.8777,-5.67497 42.3314,-9.86347 43.2306,-9.30776 2.8275,1.7475 60.7508,105.58261 59.5616,106.77188 -0.6225,0.62249 -9.9939,-1.43632 -20.8253,-4.57514 -100.838,-29.2217 -214.059,5.9525 -275.4977,85.58851 l -9.3672,12.14171 -20.2413,-13.46339 c -36.5341,-24.30042 -70.7114,-34.64989 -114.4251,-34.64989 -56.423,0 -97.4043,16.34243 -134.9942,53.8327 -9.9636,9.9372 -18.4125,18.06764 -18.7753,18.06764 -0.3628,0 -2.6479,-2.24614 -5.078,-4.99141 z"
     id="path76" />
  <path
     style="fill:#ffd700;stroke:#000000;stroke-width:2.31937"
     d="m 359.23528,1250.1382 c 0.78932,-3.827 12.94057,-77.8704 27.00276,-164.5408 14.0622,-86.67054 25.87784,-157.89297 26.25698,-158.27212 0.37914,-0.37914 9.27789,-5.85121 19.77499,-12.16015 34.86477,-20.95435 73.20082,-30.03033 108.38013,-25.65878 10.66961,1.32585 21.45035,3.16938 23.9572,4.09672 4.0864,1.51166 -6.1819,20.21547 -99.25956,180.80223 -57.09962,98.5139 -104.65677,179.9205 -105.68257,180.9035 -1.02579,0.9831 -1.21926,-1.3437 -0.42993,-5.1706 z"
     id="path78" />
  <path
     style="fill:#ffd700;stroke:#000000;stroke-width:2.31937"
     d="m 662.41565,1168.9604 -0.0901,-222.65915 5.14528,6.24058 c 2.8299,3.43232 8.4919,10.89508 12.58221,16.5839 5.16924,7.18939 11.82408,12.5356 21.82459,17.53292 12.33224,6.16249 16.92646,7.18959 32.15896,7.18959 23.95519,0 36.84679,-4.78311 52.97173,-19.65385 11.20019,-10.32905 35.20688,-24.40108 35.20688,-20.63727 0,0.92209 -142.61927,392.28598 -156.6787,429.94458 -2.53101,6.7794 -3.04554,-28.5927 -3.12082,-214.5413 z"
     id="path80" />
  <path
     style="fill:#ffd700;stroke:#000000;stroke-width:2.31937"
     d="m 1024.2976,1435.6874 c -0.1322,-1.2756 -18.6519,-106.9921 -41.15468,-234.9256 -22.50283,-127.9334 -40.36048,-233.15995 -39.68366,-233.83677 2.09904,-2.09903 10.50234,4.35981 13.1054,10.07289 4.7092,10.33557 23.49428,27.92978 35.6281,33.36948 9.59164,4.3 16.17004,5.4254 31.80724,5.4417 10.843,0.011 23.8017,-1.4104 28.7969,-3.1592 12.0351,-4.2135 28.8568,-19.92521 34.2127,-31.95506 4.3705,-9.81656 18.5355,-24.01416 19.8937,-19.93951 0.6118,1.83513 -78.6411,462.67967 -81.4761,473.77237 -0.489,1.9135 -0.9973,2.4354 -1.1296,1.1597 z"
     id="path82" />
  <path
     style="fill:#ffd700;stroke:#000000;stroke-width:2.31937"
     d="m 1304.404,1169.4977 c -44.1415,-121.4824 -79.9899,-221.21083 -79.663,-221.61873 1.6178,-2.01887 22.063,10.66248 31.8514,19.75614 16.5379,15.36411 29.1817,20.35028 51.5299,20.32123 26.6439,-0.0346 38.3653,-5.8132 60.4288,-29.79101 l 17.27,-18.76831 v 225.53138 c 0,124.0423 -0.261,225.5123 -0.5799,225.4889 -0.3189,-0.023 -36.6956,-99.4371 -80.8372,-220.9196 z"
     id="path84" />
  <path
     style="fill:#ffd700;stroke:#000000;stroke-width:2.31937"
     d="m 1584.1944,1075.5446 c -58.4976,-100.42384 -106.7415,-183.32285 -107.2087,-184.22005 -3.9048,-7.49958 63.9484,-10.02487 90.7716,-3.37824 25.7576,6.3826 70.7828,28.69932 70.9264,35.15469 0.028,1.27927 11.9597,76.9361 26.5138,168.1262 14.5542,91.1901 26.2133,166.0491 25.9092,166.3532 -0.3041,0.3041 -48.4146,-81.612 -106.9123,-182.0358 z"
     id="path86" />
  <path
     style="fill:#ffd700;stroke:#000000;stroke-width:2.31937"
     d="m 1783.3806,1630.2605 c -12.07,-4.2822 -23.5325,-15.3987 -29.6328,-28.7384 -6.4346,-14.0707 -6.8306,-47.3018 -0.7516,-63.0553 8.3498,-21.6378 30.8402,-34.3581 60.7479,-34.3581 43.0628,0 65.2513,22.6607 64.7244,66.102 -0.1083,8.9295 -1.4739,20.7659 -3.0347,26.303 -3.8641,13.708 -18.5861,29.2285 -32.0888,33.8293 -13.4702,4.5898 -46.9244,4.5437 -59.9644,-0.082 z"
     id="path88" />
  <path
     style="fill:#ffd700;stroke:#000000;stroke-width:2.31937"
     d="m 1415.3883,1739.6942 c -21.6129,-7.7128 -33.5513,-25.0784 -35.8136,-52.0944 -3.5131,-41.9512 13.7421,-66.4513 51.0304,-72.4564 36.4408,-5.8686 67.565,9.5473 75.9954,37.6405 3.8123,12.7043 3.1662,41.886 -1.2199,55.0911 -4.6392,13.9675 -19.2604,28.1959 -33.295,32.4008 -12.1449,3.6387 -45.8399,3.2931 -56.6973,-0.5816 z"
     id="path90" />
  <path
     style="fill:#ffd700;stroke:#000000;stroke-width:2.31937"
     d="m 998.47196,1791.9871 c -26.32252,-8.5718 -39.4142,-29.0618 -39.4142,-61.6879 0,-39.9455 19.67585,-62.6986 56.63604,-65.4939 31.8922,-2.412 53.768,6.4143 65.4954,26.4256 5.4743,9.3411 6.5591,14.1418 7.3663,32.5996 1.115,25.4926 -1.8883,38.442 -11.6668,50.3052 -11.6137,14.0893 -22.7259,18.388 -49.4097,19.1137 -12.7565,0.347 -25.8097,-0.2211 -29.00704,-1.2623 z"
     id="path92" />
  <path
     style="fill:#ffd700;stroke:#000000;stroke-width:2.31937"
     d="m 570.56398,1737.4757 c -22.88704,-10.8199 -31.68544,-27.0374 -31.60473,-58.2549 0.0264,-10.2052 1.11843,-22.1018 2.42676,-26.4369 6.14979,-20.3769 22.07991,-33.2143 46.28194,-37.2965 29.29527,-4.9413 56.99662,3.419 69.77411,21.0578 18.36862,25.3571 13.77794,77.2331 -8.32662,94.0931 -11.99243,9.1471 -23.31337,12.1543 -46.08034,12.2406 -17.23538,0.065 -22.8959,-0.8765 -32.47112,-5.4032 z"
     id="path94" />
  <path
     style="fill:#ffd700;stroke:#000000;stroke-width:2.31937"
     d="m 206.21183,1630.2605 c -12.09745,-4.2919 -23.56007,-15.4279 -29.58126,-28.7384 -6.40416,-14.1571 -6.82809,-47.4419 -0.8031,-63.0553 8.34974,-21.6378 30.84019,-34.3581 60.74783,-34.3581 43.06283,0 65.25134,22.6607 64.72448,66.102 -0.29462,24.292 -4.20952,35.3624 -16.82976,47.5907 -6.25786,6.0636 -14.83371,11.6844 -20.34741,13.3364 -12.73523,3.8156 -46.10806,3.31 -57.91078,-0.8773 z"
     id="path96" />
</svg>
