<?xml version="1.0" encoding="UTF-8" standalone="no"?>
<svg
   xmlns:dc="http://purl.org/dc/elements/1.1/"
   xmlns:cc="http://creativecommons.org/ns#"
   xmlns:rdf="http://www.w3.org/1999/02/22-rdf-syntax-ns#"
   xmlns:svg="http://www.w3.org/2000/svg"
   xmlns="http://www.w3.org/2000/svg"
   xmlns:sodipodi="http://sodipodi.sourceforge.net/DTD/sodipodi-0.dtd"
   xmlns:inkscape="http://www.inkscape.org/namespaces/inkscape"
   height="100%"
   width="100%"
   version="1.1"
   viewBox="0 0 2048 2048"
   id="svg18"
   sodipodi:docname="ws.svg"
   inkscape:version="1.0.2 (e86c870879, 2021-01-15)">
  <metadata
     id="metadata24">
    <rdf:RDF>
      <cc:Work
         rdf:about="">
        <dc:format>image/svg+xml</dc:format>
        <dc:type
           rdf:resource="http://purl.org/dc/dcmitype/StillImage" />
      </cc:Work>
    </rdf:RDF>
  </metadata>
  <defs
     id="defs22" />
  <sodipodi:namedview
     pagecolor="#ffffff"
     bordercolor="#666666"
     borderopacity="1"
     objecttolerance="10"
     gridtolerance="10"
     guidetolerance="10"
     inkscape:pageopacity="0"
     inkscape:pageshadow="2"
     inkscape:window-width="960"
     inkscape:window-height="1060"
     id="namedview20"
     showgrid="false"
     inkscape:zoom="0.43115234"
     inkscape:cx="1024"
     inkscape:cy="1021.6806"
     inkscape:window-x="0"
     inkscape:window-y="20"
     inkscape:window-maximized="0"
     inkscape:current-layer="svg18"
     inkscape:document-rotation="0" />
  <path
     style="color:#000000"
     d="m 1161,1706 h 170 v 137 h 274 V 1468 L 1383,1297 V 819 L 1553,649 V 444 h 153 V 205 H 341 v 239 h 153 v 205 l 171,170 v 478 l -222,171 v 375 h 273 v -137 h 171 v 137 h 274 z M 1639,376 H 409 V 273 H 1639 Z M 1484,580 H 564 V 444 h 920 z m -170,717 H 734 V 819 h 580 z m 222,239 v 239 h -137 v -137 h -308 v 137 H 956 V 1638 H 649 v 137 H 512 V 1536 Z M 1459,649 1356,751 H 693 L 588,649 Z m -110,716 127,103 H 572 l 128,-103 z"
     fill-rule="nonzero"
     display="block"
     fill="#000000"
     id="path2" />
  <g
     fill-rule="nonzero"
     fill="#ffffff"
     id="g12"
     transform="matrix(1,0,0,-1,0,2048)">
    <path
       style="color:#000000"
       d="M 1639,1672 H 409 v 103 h 1230 z"
       display="block"
       id="path4" />
    <path
       style="color:#000000"
       d="M 1484,1468 H 564 v 136 h 920 z"
       display="block"
       id="path6" />
    <path
       style="color:#000000"
       d="M 1314,751 H 734 v 478 h 580 z"
       display="block"
       id="path8" />
    <path
       style="color:#000000"
       d="M 1536,512 V 273 H 1399 V 410 H 1091 V 273 H 956 V 410 H 649 V 273 H 512 v 239 z"
       display="block"
       id="path10" />
  </g>
  <path
     style="color:#000000"
     d="M 1459,649 1356,751 H 693 L 588,649 Z"
     fill-rule="nonzero"
     display="block"
     fill="#ffffff"
     id="path14" />
  <path
     style="color:#000000"
     d="m 1349,1365 127,103 H 572 l 128,-103 z"
     fill-rule="nonzero"
     display="block"
     fill="#ffffff"
     id="path16" />
  <path
     style="fill:#ffd700;stroke:#000000;stroke-width:2.31937"
     d="M 734.07927,1057.6308 V 819.89581 H 1024 1313.9207 v 237.73499 237.735 H 1024 734.07927 Z"
     id="path56" />
  <path
     style="fill:#ffd700;stroke:#000000;stroke-width:2.31937"
     d="m 642.46432,700.4574 -51.02605,-49.68534 432.56173,0.0234 432.5617,0.0234 -51.026,49.71003 -51.0261,49.71003 -330.5096,-0.0481 -330.50963,-0.0481 z"
     id="path60" />
  <path
     style="fill:#ffd700;stroke:#000000;stroke-width:2.31937"
     d="m 564.76557,511.42015 v -67.2616 H 1024 1483.2344 v 67.2616 67.26161 H 1024 564.76557 Z"
     id="path62" />
  <path
     style="fill:#ffd700;stroke:#000000;stroke-width:2.31937"
     d="M 409.36806,324.71121 V 274.84484 H 1024 1638.6319 v 49.86637 49.86636 H 1024 409.36806 Z"
     id="path64" />
  <path
     style="fill:#ffd700;stroke:#000000;stroke-width:2.31937"
     d="M 513.73952,1654.8675 V 1536.5798 H 1024 1534.2605 v 118.2877 118.2877 h -67.2616 -67.2616 v -68.4378 -68.4377 l -154.8177,0.5963 -154.8177,0.5963 -0.6148,67.8414 -0.6149,67.8415 h -66.0669 -66.06691 v -68.4213 -68.4213 H 802.50056 648.26274 v 68.4213 68.4213 h -67.26161 -67.26161 z"
     id="path66" />
  <path
     style="fill:#ffd700;stroke:#000000;stroke-width:2.31937"
     d="m 578.7646,1463.8788 c 1.86792,-1.716 30.26808,-24.6778 63.11148,-51.026 l 59.71527,-47.906 322.98005,0.02 322.9801,0.02 60.3035,48.8812 c 33.167,26.8847 61.2951,49.8374 62.507,51.006 1.3347,1.2872 -174.6518,2.1249 -446.3951,2.1249 -375.95171,0 -448.04853,-0.5053 -445.2023,-3.1201 z"
     id="path68" />
</svg>
