<?xml version="1.0" encoding="UTF-8" standalone="no"?>
<svg
   xmlns:dc="http://purl.org/dc/elements/1.1/"
   xmlns:cc="http://creativecommons.org/ns#"
   xmlns:rdf="http://www.w3.org/1999/02/22-rdf-syntax-ns#"
   xmlns:svg="http://www.w3.org/2000/svg"
   xmlns="http://www.w3.org/2000/svg"
   xmlns:sodipodi="http://sodipodi.sourceforge.net/DTD/sodipodi-0.dtd"
   xmlns:inkscape="http://www.inkscape.org/namespaces/inkscape"
   height="100%"
   width="100%"
   version="1.1"
   viewBox="0 0 2048 2048"
   id="svg18"
   sodipodi:docname="wt.svg"
   inkscape:version="1.0.2 (e86c870879, 2021-01-15)">
  <metadata
     id="metadata24">
    <rdf:RDF>
      <cc:Work
         rdf:about="">
        <dc:format>image/svg+xml</dc:format>
        <dc:type
           rdf:resource="http://purl.org/dc/dcmitype/StillImage" />
      </cc:Work>
    </rdf:RDF>
  </metadata>
  <defs
     id="defs22" />
  <sodipodi:namedview
     pagecolor="#ffffff"
     bordercolor="#666666"
     borderopacity="1"
     objecttolerance="10"
     gridtolerance="10"
     guidetolerance="10"
     inkscape:pageopacity="0"
     inkscape:pageshadow="2"
     inkscape:window-width="960"
     inkscape:window-height="1060"
     id="namedview20"
     showgrid="false"
     inkscape:zoom="0.43115234"
     inkscape:cx="1024"
     inkscape:cy="1024"
     inkscape:window-x="0"
     inkscape:window-y="20"
     inkscape:window-maximized="0"
     inkscape:current-layer="svg18" />
  <path
     style="color:#000000"
     d="m 1024,864.11538 q 97,0 186,-15 98,35 142,109 38,64.00002 38,141.00002 0,46 -23,101 -23,55 -75,101 -59,49 -129,107 -70,58 -139,137 -70,-78 -140,-136 -70,-58 -128,-108 -53,-45 -75,-100 -22,-55 -23,-102 0,-77 37,-141.00002 43,-74 143,-109 88,15 186,15 z"
     fill-rule="nonzero"
     display="block"
     fill="#ffffff"
     id="path2" />
  <path
     style="color:#000000"
     d="m 988,1120.1154 -83,1 q -34,0 -34,34 0,34 34,34 h 83 v 86 q 0,35 36,35 35,0 35,-35 v -86 h 86 q 33,0 33,-34 0,-34 -33,-34 h -86 v -82 q 0,-36 -35,-36 -36,0 -36,36 z m 36,-578.00002 q 68,0 132,11 64,11 125,28 -117,31 -257,31 -142,0 -257,-31 58,-16 123,-27 65,-11 134,-12 z m 0,1089.00002 q 68,0 68,68 0,68 -68,68 -68,0 -68,-68 0,-68 68,-68 z m 0,-949.00002 q 117,0 225,-23 l -48,123 q -88,14 -177,14 -91,0 -178,-14 l -48,-123 q 107,23 226,23 z m 0,182 q 97,0 186,-15 98,35 142,109 38,64.00002 38,141.00002 0,46 -23,101 -23,55 -75,101 -59,49 -129,107 -70,58 -139,137 -70,-78 -140,-136 -70,-58 -128,-108 -53,-45 -75,-100 -22,-55 -23,-102 0,-77 37,-141.00002 43,-74 143,-109 88,15 186,15 z m -36,-377 h -32 q -56,-90 -107,-113 -24,-12 -53,-22 -29,-10 -67,-10 -7,0 -107,16 -48,7 -76,15 -28,8 -44,10 -57,7 -133,-6 -46,-8 -86,-29 l 48,-78 q 12,12 31,15 19,3 36,8 42,7 80,2 13,-3 51,-7 38,-4 101,-15 75,-11 102,-11 105,0 161,40 34,26 64,72 30,46 31,113 z m 36,-113 q -14,-57 -34,-79 -20,-22 -53,-46 -36,-25 -85,-42 -49,-17 -109,-9 l -281,39 q -17,2 -30,0 -13,-2 -26,-2 -21,0 -53,-9 -32,-9 -51,-28 l -97,159 q 18,20 32,28 14,8 33,17 58,27 124,33 28,2 55,1 27,-1 56,2 54,-9 108,-16 54,-7 110,-16 60,0 81,12 11,6 35,22 24,16 48,47 -53,6 -108,20 -55,14 -97,31 l 104,258 q -78,45 -109,72 -31,27 -49,64 -26,46 -33,89.00002 -7,43 -7,77 1,60 28,132 27,72 104,130 63,48 123,99 60,51 119,119 -74,38 -74,121 0,56 39,96 39,40 97,40 56,0 96,-40 40,-40 40,-96 0,-82 -74,-121 58,-68 117,-119 59,-51 125,-99 75,-57 102,-129 27,-72 29,-133 0,-34 -7,-77 -7,-43.00002 -32,-89.00002 -20,-36 -50,-63 -30,-27 -108,-73 l 104,-258 q -44,-16 -99,-30 -55,-14 -106,-21 23,-31 47,-47 24,-16 36,-22 21,-12 81,-12 54,8 108,15 54,7 110,17 27,-3 54,-2 27,1 57,-1 64,-6 124,-33 18,-9 32,-17 14,-8 33,-28 l -98,-159 q -18,18 -50,27 -32,9 -53,10 -13,0 -26,2 -13,2 -31,0 l -280,-39 q -60,-9 -111,8 -51,17 -85,45 -33,27 -52,46 -19,19 -33,77 z m 35,113 q 0,-66 30,-112 30,-46 66,-73 55,-40 161,-40 26,0 102,11 62,10 100,14 38,4 51,8 38,5 80,-2 16,-4 35,-7 19,-3 33,-16 l 48,78 q -41,21 -87,29 -76,13 -133,6 -17,-2 -44,-10 -27,-8 -75,-15 -101,-16 -107,-16 -39,0 -68,10 -29,10 -52,22 -53,24 -108,113 z"
     fill-rule="nonzero"
     display="block"
     fill="#000000"
     id="path4" />
  <g
     fill-rule="nonzero"
     fill="#ffffff"
     id="g16"
     transform="matrix(1,0,0,-1,0,2030.1154)">
    <path
       style="color:#000000"
       d="m 1024,1488 q 68,0 132,-11 64,-11 125,-28 -117,-31 -257,-31 -142,0 -257,31 58,16 123,27 65,11 134,12 z"
       display="block"
       id="path6" />
    <path
       style="color:#000000"
       d="m 1024,399 q 68,0 68,-68 0,-68 -68,-68 -68,0 -68,68 0,68 68,68 z"
       display="block"
       id="path8" />
    <path
       style="color:#000000"
       d="m 1024,1348 q 117,0 225,23 l -48,-123 q -88,-14 -177,-14 -91,0 -178,14 l -48,123 q 107,-23 226,-23 z"
       display="block"
       id="path10" />
    <path
       style="color:#000000"
       d="m 988,1543 h -32 q -56,90 -107,113 -24,12 -53,22 -29,10 -67,10 -7,0 -107,-16 -48,-7 -76,-15 -28,-8 -44,-10 -57,-7 -133,6 -46,8 -86,29 l 48,78 q 12,-12 31,-15 19,-3 36,-8 42,-7 80,-2 13,3 51,7 38,4 101,15 75,11 102,11 105,0 161,-40 34,-26 64,-72 30,-46 31,-113 z"
       display="block"
       id="path12" />
    <path
       style="color:#000000"
       d="m 1059,1543 q 0,66 30,112 30,46 66,73 55,40 161,40 26,0 102,-11 62,-10 100,-14 38,-4 51,-8 38,-5 80,2 16,4 35,7 19,3 33,16 l 48,-78 q -41,-21 -87,-29 -76,-13 -133,-6 -17,2 -44,10 -27,8 -75,15 -101,16 -107,16 -39,0 -68,-10 -29,-10 -52,-22 -53,-24 -108,-113 z"
       display="block"
       id="path14" />
  </g>
</svg>
