<?xml version="1.0" encoding="UTF-8" standalone="no"?>
<svg
   xmlns:dc="http://purl.org/dc/elements/1.1/"
   xmlns:cc="http://creativecommons.org/ns#"
   xmlns:rdf="http://www.w3.org/1999/02/22-rdf-syntax-ns#"
   xmlns:svg="http://www.w3.org/2000/svg"
   xmlns="http://www.w3.org/2000/svg"
   xmlns:sodipodi="http://sodipodi.sourceforge.net/DTD/sodipodi-0.dtd"
   xmlns:inkscape="http://www.inkscape.org/namespaces/inkscape"
   height="100%"
   width="100%"
   version="1.1"
   viewBox="0 0 2048 2048"
   id="svg6"
   sodipodi:docname="wy.svg"
   inkscape:version="1.0.2 (e86c870879, 2021-01-15)">
  <metadata
     id="metadata12">
    <rdf:RDF>
      <cc:Work
         rdf:about="">
        <dc:format>image/svg+xml</dc:format>
        <dc:type
           rdf:resource="http://purl.org/dc/dcmitype/StillImage" />
      </cc:Work>
    </rdf:RDF>
  </metadata>
  <defs
     id="defs10" />
  <sodipodi:namedview
     pagecolor="#ffffff"
     bordercolor="#666666"
     borderopacity="1"
     objecttolerance="10"
     gridtolerance="10"
     guidetolerance="10"
     inkscape:pageopacity="0"
     inkscape:pageshadow="2"
     inkscape:window-width="960"
     inkscape:window-height="1060"
     id="namedview8"
     showgrid="false"
     inkscape:zoom="0.43115234"
     inkscape:cx="1024"
     inkscape:cy="1024"
     inkscape:window-x="0"
     inkscape:window-y="20"
     inkscape:window-maximized="0"
     inkscape:current-layer="svg6"
     inkscape:document-rotation="0" />
  <path
     style="color:#000000"
     d="m 1756,234 q -1,0 2,54 3,54 3,118 1,125 0,258 -1,133 -36,267 -34,128 -75,218 -41,90 -89,157 -72,108 -196,183 -124,75 -259,98 9,-49 8,-96 -2,-36 -34,-36 -37,0 -33,36 3,132 -94,226 -76,-80 -82,-186 -2,-35 -36,-31 -32,1 -32,37 0,0 2,8 -41,-13 -86,-37 -29,-20 -47,10 -18,30 16,47 43,22 65,33 -86,88 -196,142 12,-139 76,-263 17,-26 -8,-46 -28,-22 -47,7 -7,10 -20,36 -21,-21 -28,-31 -7,-9 -24,-40 -17,-31 -26,-51 -9,-25 -8,-40 1,-15 3,-35 -9,-59 -40,-111 -31,-52 -81,-127 -47,-72 -72,-108 -25,-36 -38,-92 -9,-34 0,-82 9,-48 39,-76 46,-47 89,-43 14,0 37,11 23,11 37,42 26,57 43,57 25,0 27,-28 0,-6 -16,-50 -9,-20 -24,-42 -19,-26 -17,-22 16,-57 53,-20 11,11 25,41 14,30 44,81 35,59 75,96 40,37 71,60 18,13 44,30 26,17 70,35 35,14 77,34 42,20 76,53 46,45 71,111 13,37 10,91 -9,34 34,34 32,0 36,-33 0,-113 -64,-206 21,-64 11,-140 -9,-61 -42,-130 Q 1017,674 914,588 707,416 718,234 q 0,0 170,0 170,0 321,0 z"
     fill-rule="nonzero"
     display="block"
     fill="#ffffff"
     id="path2" />
  <path
     style="color:#000000"
     d="m 697,1319 q 13,-20 10,-42 -10,-64 -71,-54 -18,3 -29,12 -4,-5 -12,-22 -11,-32 -42,-22 -31,12 -24,45 45,115 163,158 34,10 45,-20 12,-32 -18,-44 -6,-3 -11,-5 -5,-2 -11,-6 z M 400,842 q -29,-18 -35,-48 1,-33 -31,-36 -35,-4 -36,30 4,66 59,105 26,21 48,-4 22,-27 -5,-47 z m 679,815 q 157,-10 291,-81 134,-71 228,-182 66,-78 124,-188 58,-110 94,-233 40,-143 50,-300 10,-157 11,-292 V 163 q 0,0 -155,0 -155,0 -404,0 H 647 q -9,0 -9,49 0,49 7,79 4,24 19,68 15,44 50,107 16,32 76,93 60,61 138,143 45,46 70,116 25,70 22,127 -37,-30 -81,-49 -212,-76 -307,-220 -7,-9 -45,-81 -20,-38 -34,-52 -19,-19 -55,-21 -56,-3 -87,54 -42,-12 -75,-10 -56,21 -81,45 -51,51 -66,102 -15,51 -16,110 0,84 104,222 122,159 130,242 0,36 7,81 6,31 25,60 13,20 17,27 4,7 17,23 9,12 15,18 6,6 15,18 11,13 28,30 -53,146 -43,301 199,-71 334,-223 33,113 130,183 80,-56 127,-148 z M 1756,234 q -1,0 2,54 3,54 3,118 1,125 0,258 -1,133 -36,267 -34,128 -75,218 -41,90 -89,157 -72,108 -196,183 -124,75 -259,98 9,-49 8,-96 -2,-36 -34,-36 -37,0 -33,36 3,132 -94,226 -76,-80 -82,-186 -2,-35 -36,-31 -32,1 -32,37 0,0 2,8 -41,-13 -86,-37 -29,-20 -47,10 -18,30 16,47 43,22 65,33 -86,88 -196,142 12,-139 76,-263 17,-26 -8,-46 -28,-22 -47,7 -7,10 -20,36 -21,-21 -28,-31 -7,-9 -24,-40 -17,-31 -26,-51 -9,-25 -8,-40 1,-15 3,-35 -9,-59 -40,-111 -31,-52 -81,-127 -47,-72 -72,-108 -25,-36 -38,-92 -9,-34 0,-82 9,-48 39,-76 46,-47 89,-43 14,0 37,11 23,11 37,42 26,57 43,57 25,0 27,-28 0,-6 -16,-50 -9,-20 -24,-42 -19,-26 -17,-22 16,-57 53,-20 11,11 25,41 14,30 44,81 35,59 75,96 40,37 71,60 18,13 44,30 26,17 70,35 35,14 77,34 42,20 76,53 46,45 71,111 13,37 10,91 -9,34 34,34 32,0 36,-33 0,-113 -64,-206 21,-64 11,-140 -9,-61 -42,-130 Q 1017,674 914,588 707,416 718,234 q 0,0 170,0 170,0 321,0 z"
     fill-rule="nonzero"
     display="block"
     fill="#000000"
     id="path4" />
  <path
     style="fill:#ffd700;stroke:#000000;stroke-width:2.31937"
     d="m 559.35852,1727.3477 c 9.06079,-80.4896 30.96157,-157.3391 65.9241,-231.3268 8.81211,-18.6482 16.01812,-36.4599 16.01335,-39.5817 -0.009,-6.148 -7.56023,-19.954 -13.62127,-24.9052 -8.50845,-6.9505 -23.01163,-12.0598 -30.16906,-10.6283 -8.56681,1.7133 -20.95447,14.6818 -28.99474,30.3542 -11.17391,21.7805 -10.49513,21.6397 -25.12557,5.2152 -14.15657,-15.8925 -26.48303,-35.5961 -47.82811,-76.4524 -19.22248,-36.7935 -21.55403,-46.1127 -20.98117,-83.8616 0.38977,-25.6833 -0.41451,-34.3003 -4.7286,-50.6617 -13.29917,-50.4375 -27.44043,-75.3004 -137.29082,-241.3821 -34.23287,-51.75629 -64.74473,-99.76717 -67.80412,-106.69082 -9.22738,-20.8822 -19.48412,-55.50166 -22.42987,-75.70726 -2.14635,-14.72236 -2.15475,-24.40668 -0.037,-42.62319 5.61799,-48.32424 16.73199,-71.93954 47.86344,-101.70141 41.34398,-39.5251 74.63083,-47.59174 115.63441,-28.02255 18.60917,8.88134 26.34854,18.17612 44.4146,53.34084 7.61093,14.8143 18.00494,31.15426 23.43933,36.84788 9.25706,9.69866 10.28119,10.16077 19.71461,8.89574 7.1632,-0.96058 11.73687,-3.33369 16.32857,-8.47222 8.70609,-9.74298 8.36187,-21.13743 -1.52556,-50.49735 -8.76528,-26.02778 -19.17411,-45.98108 -36.09186,-69.18668 -10.41734,-14.28915 -11.07455,-15.98236 -8.82277,-22.73046 3.60827,-10.81319 12.81838,-22.13545 19.33696,-23.77151 15.18744,-3.8118 32.37427,13.1965 51.06156,50.53117 18.53973,37.03983 50.25277,92.51769 65.38842,114.38852 36.55075,52.81542 95.54087,107.26047 165.20365,152.47502 24.75204,16.0653 37.70913,22.55546 88.21239,44.1854 58.99105,25.26516 78.72856,35.05207 101.76285,50.45945 49.28186,32.96403 91.78326,89.24783 111.13396,147.17233 6.6134,19.7965 10.4761,56.2908 8.6435,81.6618 -1.0359,14.3399 -0.6757,22.9786 1.0961,26.2892 3.8315,7.1592 16.265,11.4976 32.9227,11.4877 22.1985,-0.014 33.1486,-8.5653 37.6311,-29.3901 1.9376,-9.0013 -2.201,-55.6108 -7.0588,-79.4971 -7.742,-38.0692 -29.4755,-91.1989 -49.2332,-120.3556 -6.7301,-9.9317 -6.7799,-10.2371 -3.597,-22.0339 9.5875,-35.53484 12.734,-85.89565 7.7754,-124.45193 -5.2969,-41.18663 -23.4931,-96.93472 -45.6636,-139.9006 C 1025.2237,692.95819 984.67798,647.11052 916.14949,587.89016 851.8942,532.36257 814.3378,491.95926 782.03207,443.60623 741.91135,383.55625 720.72249,321.8015 719.52085,261.41783 l -0.51746,-26.00221 517.55701,-0.58494 517.5571,-0.58494 1.9809,34.21574 c 1.0895,18.81866 1.9809,131.28121 1.9809,249.91677 0,193.87563 -0.4252,219.22124 -4.2018,250.49151 -10.8217,89.60167 -30.343,173.95021 -62.2673,269.04644 -45.0901,134.3148 -110.1475,251.4853 -187.0231,336.8343 -73.5943,81.7062 -200.2441,157.846 -320.5509,192.71 -33.8937,9.8221 -73.2746,18.3845 -75.2894,16.3698 -0.6893,-0.6893 -0.1797,-6.3841 1.1325,-12.6551 1.3122,-6.2709 2.9624,-29.6667 3.6671,-51.9906 1.4545,-46.0731 -0.3387,-53.1058 -15.5234,-60.8798 -15.5306,-7.951 -40.8939,-3.6978 -48.3834,8.1136 -2.303,3.6319 -3.8322,16.8579 -5.028,43.4887 -1.9626,43.7034 -8.2256,73.0955 -22.7735,106.8751 -10.7052,24.857 -34.37011,61.0095 -53.4711,81.6869 l -14.56699,15.7693 -5.74662,-5.3321 c -9.19944,-8.5359 -25.33717,-30.322 -36.71183,-49.5614 -21.28951,-36.0097 -33.19532,-72.7737 -38.21605,-118.0074 -1.40865,-12.691 -4.06397,-25.9807 -5.90072,-29.5326 -5.19195,-10.0401 -15.63422,-14.2788 -31.60834,-12.8303 -22.19056,2.0122 -32.48959,12.0087 -32.88717,31.9213 -0.12571,6.2996 -0.42744,11.4602 -0.67032,11.4681 -3.8867,0.1259 -41.82513,-15.7572 -67.0746,-28.081 -17.99914,-8.785 -34.54083,-15.9727 -36.75933,-15.9727 -9.38427,0 -20.22603,7.8489 -26.88957,19.4667 -15.16798,26.4454 -8.99737,35.5152 41.84115,61.5003 l 38.15823,19.5037 -18.48509,17.1559 c -25.83771,23.9798 -63.0302,53.783 -90.40551,72.444 -19.66855,13.4075 -80.00822,48.8241 -83.1822,48.8241 -0.55725,0 -0.51381,-4.4358 0.0965,-9.8573 z M 715.6562,1396.26 c 14.68098,-4.0784 25.38117,-20.4073 25.38117,-38.7326 0,-13.4536 -5.34152,-20.1561 -23.65129,-29.6775 -9.31569,-4.8443 -17.2112,-9.016 -17.54559,-9.2705 -0.33438,-0.2545 1.62715,-5.5157 4.359,-11.6914 9.68991,-21.9057 1.30153,-58.3631 -17.0411,-74.0637 -16.67578,-14.2739 -47.44194,-16.3617 -70.33264,-4.773 l -10.41544,5.273 -8.17114,-16.9885 c -12.887,-26.7932 -25.488,-33.798 -46.31289,-25.7448 -26.6886,10.3206 -31.5787,31.9237 -14.99085,66.2253 19.88534,41.1203 45.45806,72.5797 80.01587,98.4351 19.34135,14.4707 69.13285,40.0363 81.1778,41.6811 3.82696,0.5225 7.47996,1.1006 8.11778,1.2846 0.63783,0.184 4.87202,-0.6967 9.40932,-1.9571 z M 391.0026,900.72719 c 10.89621,-4.3598 22.12955,-18.14574 24.32597,-29.85367 2.01293,-10.72983 -4.48453,-23.06665 -16.50389,-31.33619 -19.75275,-13.59025 -33.52457,-35.69146 -33.52457,-53.80068 0,-9.65039 -5.96597,-19.71377 -14.21643,-23.98025 -11.35557,-5.87219 -29.57001,-6.67655 -39.09672,-1.72655 -10.52292,5.46764 -13.87238,12.64274 -13.91427,29.80675 -0.0792,32.43354 14.48454,64.13742 41.058,89.37961 15.63834,14.85489 31.6994,25.14693 39.45884,25.28552 1.56875,0.0281 7.15463,-1.67053 12.41307,-3.77454 z"
     id="path52" />
</svg>
