<?xml version="1.0" encoding="UTF-8" standalone="no"?>
<svg
   xmlns:dc="http://purl.org/dc/elements/1.1/"
   xmlns:cc="http://creativecommons.org/ns#"
   xmlns:rdf="http://www.w3.org/1999/02/22-rdf-syntax-ns#"
   xmlns:svg="http://www.w3.org/2000/svg"
   xmlns="http://www.w3.org/2000/svg"
   xmlns:sodipodi="http://sodipodi.sourceforge.net/DTD/sodipodi-0.dtd"
   xmlns:inkscape="http://www.inkscape.org/namespaces/inkscape"
   width="177.17"
   height="177.17"
   shape-rendering="geometricPrecision"
   image-rendering="optimizeQuality"
   fill-rule="evenodd"
   clip-rule="evenodd"
   viewBox="0 0 50 50"
   version="1.1"
   id="svg10137"
   sodipodi:docname="wy.svg"
   inkscape:version="1.0.2 (e86c870879, 2021-01-15)"
   inkscape:export-filename="D:\Pictures\Chess Variants\Chess\pieces\Shogun\WhiteMortar.png"
   inkscape:export-xdpi="198.53"
   inkscape:export-ydpi="198.53">
  <metadata
     id="metadata10141">
    <rdf:RDF>
      <cc:Work
         rdf:about="">
        <dc:format>image/svg+xml</dc:format>
        <dc:type
           rdf:resource="http://purl.org/dc/dcmitype/StillImage" />
        <dc:title />
      </cc:Work>
    </rdf:RDF>
  </metadata>
  <sodipodi:namedview
     pagecolor="#ffffff"
     bordercolor="#666666"
     borderopacity="1"
     objecttolerance="10"
     gridtolerance="10"
     guidetolerance="10"
     inkscape:pageopacity="0"
     inkscape:pageshadow="2"
     inkscape:window-width="960"
     inkscape:window-height="1060"
     id="namedview10139"
     showgrid="false"
     inkscape:zoom="2.6641079"
     inkscape:cx="61.078655"
     inkscape:cy="61.369678"
     inkscape:window-x="0"
     inkscape:window-y="20"
     inkscape:window-maximized="1"
     inkscape:current-layer="svg10137"
     inkscape:document-rotation="0" />
  <defs
     id="defs10131">
    <linearGradient
       id="0"
       x1="21.376"
       x2="77.64"
       gradientUnits="userSpaceOnUse"
       gradientTransform="translate(5.0935658,27.115748)">
      <stop
         stop-color="#fff"
         id="stop10126" />
      <stop
         offset="1"
         stop-color="#fff"
         stop-opacity="0"
         id="stop10128" />
    </linearGradient>
  </defs>
  <g
     id="g10710"
     transform="matrix(0.97860225,-0.17858613,0.17858613,0.97860225,-6.6501131,1.4752142)">
    <path
       sodipodi:nodetypes="cccsssc"
       inkscape:connector-curvature="0"
       id="path10688"
       d="m 20.598979,27.528386 -5.320088,-4.238309 9.423666,-11.909955 11.401835,7.009808 c 3.377366,2.076393 5.245889,8.165002 3.071121,11.01109 -2.01284,2.634176 -6.336052,4.927633 -9.812605,2.996215 z"
       style="fill:#ffff80;fill-opacity:1;stroke:#000000;stroke-width:1.87242;stroke-linecap:butt;stroke-linejoin:miter;stroke-miterlimit:4;stroke-dasharray:none;stroke-opacity:1" />
    <path
       sodipodi:nodetypes="ccsccsc"
       inkscape:connector-curvature="0"
       id="path10690"
       d="M 12.658898,22.245762 22.82839,9.5868642 c 0,0 1.215432,-0.7616529 1.747881,-0.4766949 0.639924,0.342477 0.688559,2.0656777 0.688559,2.0656777 l -10.169491,12.76483 c 0,0 -1.726503,0.81767 -2.330509,0.317797 -0.517574,-0.428342 -0.105932,-2.012712 -0.105932,-2.012712 z"
       style="fill:#ffff80;fill-opacity:1;stroke:#000000;stroke-width:1.56035;stroke-linecap:butt;stroke-linejoin:miter;stroke-miterlimit:4;stroke-dasharray:none;stroke-opacity:1" />
  </g>
  <path
     style="fill:#ffff80;fill-opacity:1;stroke:#000000;stroke-width:1.86262;stroke-linecap:butt;stroke-linejoin:round;stroke-miterlimit:4;stroke-dasharray:none;stroke-opacity:1"
     d="m 16.403882,31.053262 2.423093,-9.515542 c 1.094969,-4.299972 12.613189,-4.120168 13.717185,0 l 2.573926,9.606016 v 4.354418 H 16.340588 Z"
     id="path10686"
     inkscape:connector-curvature="0"
     sodipodi:nodetypes="csscccc" />
  <path
     d="m 29.505837,33.906805 h 4.6376 v -3.7345 h 7.4756 v 10.2245 l -6.05,4.6673 h -19.591 l -6.0588,-4.6673 v -10.2245 h 7.4514 v 3.7345 h 4.6662 v -3.7345 h 7.469 z"
     id="path10133"
     inkscape:connector-curvature="0"
     style="fill:#000000;stroke-width:1.1"
     sodipodi:nodetypes="ccccccccccccccc" />
  <path
     d="m 34.634037,43.210605 3.465,-2.8127 h -24.662 l 3.4925,2.8127 h 17.71 m 5.104,-4.6607 v -6.5197 h -3.7345 v 3.7345 h -8.4095 v -3.7345 h -3.6784 v 3.7345 h -8.382 v -3.7345 h -3.7345 v 6.5197 h 27.94"
     id="path10135"
     inkscape:connector-curvature="0"
     style="fill:#ffff80;fill-opacity:1;stroke-width:1.1"
     sodipodi:nodetypes="cccccccccccccccccc" />
</svg>
