<svg width="2048" height="2048" xmlns="http://www.w3.org/2000/svg" xmlns:svg="http://www.w3.org/2000/svg">
 <g class="layer">
  <title>Layer 1</title>
  <g fill-rule="nonzero" fill="#fff" id="svg_1">
   <path d="m1060,1261q172,3 282,17t198,33q55,-54 122,-103t94,-84q48,-65 48,-162q0,-89 -43,-149q-77,-113 -235,-113q-92,0 -192,40q-91,36 -132,78q-85,82 -124,216q-15,46 -16,117t-2,110z" id="svg_2"/>
   <path d="m988,1260q0,-40 -2,-110t-15,-118q-41,-134 -124,-216q-43,-42 -132,-78q-102,-40 -193,-40q-158,0 -234,113q-43,60 -43,150q0,98 48,161q25,36 96,89t120,98q87,-19 196,-33t283,-16z" id="svg_3"/>
   <path d="m1024,1009q7,-28 12,-39q10,-39 23,-66q6,-17 17,-39t25,-52q8,-17 17,-41t18,-49q8,-20 8,-43q0,-49 -35,-83t-85,-35q-119,0 -119,119q0,23 8,43q22,65 34,90q13,29 24,51t19,40q13,33 22,66q2,6 12,38z" id="svg_4"/>
  </g>
  <g fill-rule="nonzero" id="svg_5">
   <path d="m1133,865q0,29 6,82t21,84q37,81 106,150q20,20 86,54q65,32 139,32q56,0 111,-19t84,-60q25,-34 25,-110q0,-60 -49,-112q-32,-33 -69,-66t-71,-79q-58,20 -161,31t-228,13zm-73,-78q172,-3 282,-17t198,-33q55,54 122,103t94,84q48,65 48,162q0,89 -43,149q-77,113 -235,113q-92,0 -192,-40q-91,-36 -132,-78q-85,-82 -124,-216q-15,-46 -16,-117t-2,-110zm458,-173q-184,51 -490,51q-308,0 -496,-52l15,-101q189,49 481,49q291,0 474,-48l16,101zm26,-299l-30,118q-195,45 -490,45q-292,0 -488,-45l-32,-119q190,58 521,58q159,0 295,-16t224,-41zm-1081,207l-33,187q-1,0 -3,4q-5,7 -28,18t-55,40q-44,37 -68,60t-45,50q-61,84 -68,203q-10,115 93,229q104,114 281,107q66,-4 155,-32q29,-12 59,-23t61,-24q16,-8 28,-16q-5,21 -5,42q0,78 55,133t134,56q78,0 133,-55t55,-133q0,-16 -4,-42q14,9 27,15q46,20 121,47q86,29 155,33q177,8 280,-107q101,-114 94,-229q-8,-119 -69,-203q-20,-27 -45,-50t-67,-60q-33,-28 -56,-39t-27,-19q-1,-2 -2,-3t-1,-2l-32,-188l66,-247q-50,-45 -224,-74t-402,-29q-232,0 -408,30t-221,77l66,244zm525,266q0,40 -2,110t-15,118q-41,134 -124,216q-43,42 -132,78q-102,40 -193,40q-158,0 -234,-113q-43,-60 -43,-150q0,-98 48,-161q25,-36 96,-89t120,-98q87,19 196,33t283,16zm36,251q7,28 12,39q10,39 23,66q6,17 17,39t25,52q8,17 17,41t18,49q8,20 8,43q0,49 -35,83t-85,35q-119,0 -119,-119q0,-23 8,-43q22,-65 34,-90q13,-29 24,-51t19,-40q13,-33 22,-66q2,-6 12,-38zm35,520l-71,0l0,131l-83,0q-34,0 -34,33l0,1q0,33 34,33l83,0l0,85q0,35 36,35q35,0 35,-35l0,-85l86,0q33,0 33,-33l0,-1q0,-33 -33,-33l-85,-1l-1,-130zm-147,-694q-125,-2 -228,-13t-161,-31q-30,37 -69,74t-70,71q-50,51 -50,112q0,75 25,110q27,40 83,59t113,20q72,0 138,-32q65,-34 86,-54q68,-69 106,-150q13,-30 19,-83t8,-83zm112,345q-2,10 -5,17q-6,20 -10,29q-3,7 -8,17t-10,23q-3,7 -7,18t-8,22q-3,9 -3,19q0,53 51,53q53,0 53,-52q0,-13 -4,-19q-14,-38 -15,-41q-15,-30 -19,-39q-7,-16 -9,-29q-3,-6 -4,-10t-2,-8z" transform="translate(0,2048) scale(1,-1)" fill="#000" id="svg_6"/>
   <path d="m1518,1434q-184,-51 -490,-51q-308,0 -496,52l15,101q189,-49 481,-49q291,0 474,48l16,-101z" fill="#fff" id="svg_7"/>
   <path d="m1544,1733l-30,-118q-195,-45 -490,-45q-292,0 -488,45l-32,119q190,-58 521,-58q159,0 295,16t224,41z" fill="#fff" id="svg_8"/>
  </g>
  <path fill="none" stroke-width="65" id="svg_9" d="m699.49994,1026.35294c3.45908,-0.60726 4.35567,-0.98848 4.8331,-1.25194c1.06278,-0.5864 1.61926,-0.97511 2.19841,-1.40893c1.27837,-0.9576 1.92998,-1.55697 2.6207,-2.19363c0.73436,-0.6769 1.49364,-1.41969 2.28869,-2.21743c0.8417,-0.84458 1.71944,-1.75025 2.64204,-2.71013c1.99618,-2.07681 3.06407,-3.2055 4.19797,-4.38005c1.19179,-1.23456 2.45125,-2.52453 3.7923,-3.85994c1.40846,-1.40245 2.90005,-2.86097 4.49899,-4.35265c3.43614,-3.2057 5.34076,-4.85083 7.3246,-6.57375c2.0648,-1.79323 4.22162,-3.63565 6.4422,-5.5558c2.29163,-1.98157 4.64966,-4.02369 7.03106,-6.17181c4.94038,-4.45637 7.42077,-6.84677 9.93137,-9.30393c2.55572,-2.50127 5.11501,-5.08502 7.68274,-7.73626c2.60051,-2.68507 5.20293,-5.42888 7.8005,-8.22903c5.25379,-5.66353 7.85104,-8.57149 10.46874,-11.48299c2.62805,-2.92299 5.25533,-5.86537 7.90261,-8.80394c2.65341,-2.94532 5.3145,-5.89351 8.02037,-8.80387c5.41737,-5.82674 8.19889,-8.6676 10.99218,-11.49763c2.79622,-2.83297 5.62561,-5.63907 8.4679,-8.44257c2.84919,-2.81025 5.72004,-5.61367 8.58566,-8.4425c5.76432,-5.69027 8.63652,-8.58172 11.49817,-11.48673c2.85079,-2.89406 5.66324,-5.78196 8.43256,-8.64374c2.72319,-2.81406 5.37903,-5.57832 7.96146,-8.27414c4.90946,-5.12512 7.21189,-7.53489 9.40442,-9.84054c2.08819,-2.19591 4.06622,-4.28815 5.91614,-6.29492c1.74743,-1.89562 3.38298,-3.69105 4.85623,-5.43262c2.65642,-3.14021 3.7454,-4.63007 4.72135,-6.02624c0.90023,-1.2879 1.679,-2.5113 2.36333,-3.65463c0.62688,-1.04736 1.16444,-2.02641 1.6567,-2.91544c0.84956,-1.53418 1.22182,-2.18555 1.59472,-2.75217c0.34261,-0.52064 0.69116,-0.98781 1.05607,-1.40432c0.35782,-0.40849 0.74797,-0.79152 1.17377,-1.15797c0.9348,-0.80442 1.499,-1.20683 2.0903,-1.6498c0.61954,-0.4641 1.26323,-0.93448 1.91573,-1.41261c0.65257,-0.4782 1.29747,-0.94664 1.9158,-1.41254c1.14285,-0.86109 1.64124,-1.25896 2.08327,-1.64252c0.40644,-0.35262 0.76822,-0.69742 1.07173,-1.05124c0.28594,-0.33337 0.53686,-0.67837 0.71845,-1.05117c0.36549,-0.75035 0.44516,-1.1952 0.53392,-1.64252c0.09124,-0.45982 0.15348,-0.93441 0.2198,-1.41261c0.06626,-0.47813 0.12223,-0.95413 0.21987,-1.41254c0.18664,-0.8762 0.34708,-1.27266 0.52695,-1.63884c0.17571,-0.35776 0.38695,-0.68839 0.61634,-0.99784c0.22792,-0.30757 0.4773,-0.59556 0.7341,-0.87466c0.51328,-0.55793 0.78254,-0.82353 1.03991,-1.09869c0.25475,-0.27235 0.50273,-0.54403 0.7341,-0.82126c0.22574,-0.27041 0.43999,-0.53915 0.61634,-0.82126c0.33315,-0.5328 0.43628,-0.81859 0.52695,-1.09501c0.08901,-0.27135 0.15354,-0.54751 0.2198,-0.82126c0.06632,-0.27375 0.12639,-0.55158 0.21987,-0.82126c0.19303,-0.557 0.35392,-0.82574 0.52695,-1.09862c0.18185,-0.28679 0.39341,-0.57384 0.61634,-0.87466c0.23418,-0.31599 0.48612,-0.64274 0.7341,-0.99784c0.53168,-0.76131 0.78586,-1.19206 1.04687,-1.64619c0.27399,-0.47659 0.54848,-0.98507 0.83621,-1.51928c0.30204,-0.56081 0.61487,-1.15202 0.95397,-1.76576c0.72854,-1.31871 1.1378,-2.01285 1.5668,-2.72657c0.43814,-0.72903 0.89026,-1.45846 1.35044,-2.1804c0.45417,-0.71252 0.90355,-1.40298 1.35051,-2.05729c0.82049,-1.20108 1.20649,-1.71864 1.57031,-2.19002c0.33967,-0.44004 0.67366,-0.84625 1.00496,-1.22774c0.32478,-0.374 0.65966,-0.73818 1.00502,-1.10464c0.73621,-0.78116 1.14579,-1.20001 1.57031,-1.6498c0.44274,-0.46904 0.89653,-0.9568 1.35044,-1.46594c0.46044,-0.51649 0.91844,-1.04201 1.35051,-1.58912c0.84931,-1.0755 1.21505,-1.63543 1.57031,-2.18274c0.34785,-0.53588 0.67391,-1.07162 1.00496,-1.58912c0.32504,-0.50814 0.64516,-1.009 1.00502,-1.46594c0.70886,-0.90006 1.13582,-1.28168 1.57383,-1.64252c0.44076,-0.36311 0.91308,-0.69053 1.4015,-0.99784c0.49226,-0.30971 1.00208,-0.59629 1.51926,-0.87466c1.03933,-0.5594 1.56801,-0.82206 2.08678,-1.1023c0.51679,-0.2791 1.027,-0.56495 1.51926,-0.87466c0.48842,-0.30724 0.96598,-0.62791 1.4015,-0.99784c0.86362,-0.73357 1.22284,-1.18617 1.57383,-1.63884c0.35239,-0.45454 0.67692,-0.93441 1.00496,-1.41261c0.32798,-0.47813 0.64688,-0.96295 1.00502,-1.41254c0.71193,-0.89384 1.13582,-1.278 1.57383,-1.63884c0.44076,-0.36311 0.91308,-0.69053 1.4015,-0.99784c0.49226,-0.30971 1.00208,-0.59629 1.51926,-0.87466c1.03933,-0.5594 1.56801,-0.82206 2.08678,-1.1023c0.51679,-0.2791 1.027,-0.56495 1.51926,-0.87466c0.48842,-0.30724 0.96598,-0.62791 1.4015,-0.99784c0.86362,-0.73357 1.22284,-1.18617 1.57383,-1.63884c0.35239,-0.45454 0.67692,-0.93441 1.00496,-1.41261c0.32798,-0.47813 0.64688,-0.96288 1.00502,-1.41254c0.71193,-0.89377 1.13582,-1.278 1.57383,-1.63884c0.44076,-0.36311 0.91308,-0.69053 1.4015,-0.99784c0.49226,-0.30971 1.00208,-0.59629 1.51926,-0.87466c1.03933,-0.5594 1.56788,-0.8232 2.09023,-1.1023c0.52452,-0.28024 1.04962,-0.56789 1.57031,-0.87466c0.52625,-0.31004 1.05422,-0.63526 1.57031,-0.99784c1.06246,-0.7464 1.57478,-1.18731 2.0903,-1.63884c0.52018,-0.45554 1.02547,-0.931 1.51926,-1.41261c0.48676,-0.47479 0.95339,-0.94911 1.4015,-1.41254c0.83698,-0.86557 1.21294,-1.26758 1.57383,-1.63884c0.34242,-0.35228 0.67366,-0.68639 1.00496,-0.99784c0.32485,-0.30537 0.655,-0.60071 1.00502,-0.87466c0.7272,-0.56916 1.14361,-0.82701 1.57031,-1.1023c0.44044,-0.28411 0.89627,-0.56829 1.35044,-0.87466c0.46018,-0.31044 0.92202,-0.62978 1.35051,-0.99784c0.85774,-0.73678 1.22054,-1.18484 1.5668,-1.63884c0.34574,-0.45334 0.65717,-0.93127 0.95397,-1.41261c0.2929,-0.47506 0.56261,-0.95312 0.83621,-1.41254c0.52005,-0.87319 0.78343,-1.27012 1.05032,-1.63884c0.2568,-0.35482 0.52011,-0.68559 0.78516,-0.99784c0.25852,-0.30463 0.52178,-0.59389 0.78516,-0.87466c0.52018,-0.55452 0.78516,-0.82493 1.04687,-1.09869c0.26172,-0.27375 0.52344,-0.54751 0.78516,-0.82126c0.26172,-0.27375 0.52344,-0.54751 0.78516,-0.82126c0.52344,-0.54751 0.78381,-0.82219 1.04687,-1.09134c0.26044,-0.26647 0.52011,-0.52585 0.78516,-0.76786c0.25852,-0.23613 0.51545,-0.46022 0.78516,-0.64468c0.50938,-0.34847 0.7826,-0.45641 1.04687,-0.55118c0.25942,-0.0931 0.52344,-0.1606 0.78516,-0.22998c0.26172,-0.06931 0.52733,-0.13213 0.78516,-0.22991c0.53251,-0.20191 0.79027,-0.36772 1.04342,-0.55118c0.25935,-0.18794 0.50542,-0.40548 0.7341,-0.64468c0.22868,-0.2392 0.4412,-0.4933 0.61634,-0.76786c0.33616,-0.52699 0.43628,-0.81498 0.52695,-1.0914c0.08901,-0.27135 0.15354,-0.54751 0.2198,-0.82126c0.06632,-0.27375 0.12639,-0.55158 0.21987,-0.82126c0.19309,-0.55693 0.35162,-0.82741 0.5304,-1.09501c0.18741,-0.2805 0.41232,-0.55412 0.66739,-0.82126c0.26817,-0.28084 0.56874,-0.55693 0.90292,-0.82126c0.71832,-0.56816 1.13537,-0.82594 1.56686,-1.09501c0.44695,-0.27863 0.91627,-0.55031 1.4015,-0.82126c0.49532,-0.27663 1.00349,-0.54891 1.51926,-0.82126c1.04202,-0.55025 1.56686,-0.82012 2.08678,-1.09501c0.51564,-0.27262 1.02387,-0.54463 1.51926,-0.82126c0.48523,-0.27095 0.95621,-0.53969 1.4015,-0.82126c0.84266,-0.53287 1.21716,-0.81725 1.57383,-1.09501c0.34651,-0.26988 0.67698,-0.54751 1.00496,-0.82126c0.32804,-0.27375 0.65672,-0.55386 1.00502,-0.82126c0.73052,-0.56094 1.14361,-0.82333 1.57031,-1.09862c0.44044,-0.28411 0.89627,-0.56829 1.35044,-0.87466c0.46018,-0.31044 0.92202,-0.62978 1.35051,-0.99784c0.85774,-0.73678 1.22054,-1.18484 1.5668,-1.63884c0.34574,-0.45334 0.65717,-0.93127 0.95397,-1.41261c0.2929,-0.47506 0.56261,-0.95312 0.83621,-1.41254c0.52005,-0.87319 0.78343,-1.27012 1.05032,-1.63884c0.2568,-0.35482 0.52011,-0.68559 0.78516,-0.99784c0.25852,-0.30463 0.52178,-0.59389 0.78516,-0.87466c0.52018,-0.55452 0.78381,-0.82587 1.04687,-1.09501c0.26044,-0.26647 0.52011,-0.52585 0.78516,-0.76786c0.25852,-0.23613 0.51545,-0.46022 0.78516,-0.64468c0.50938,-0.34847 0.7826,-0.45641 1.04687,-0.55118c0.25942,-0.0931 0.52344,-0.1606 0.78516,-0.22998c0.26172,-0.06931 0.52733,-0.13213 0.78516,-0.22991c0.53251,-0.20191 0.79027,-0.36772 1.04342,-0.55118c0.25935,-0.18794 0.50542,-0.40548 0.7341,-0.64468c0.22868,-0.2392 0.4412,-0.4933 0.61634,-0.76786c0.33616,-0.52699 0.43552,-0.81478 0.52695,-1.08773c0.08811,-0.26293 0.15169,-0.52251 0.2198,-0.76786c0.0646,-0.23278 0.11974,-0.45741 0.21987,-0.64468c0.18479,-0.34553 0.3543,-0.45848 0.52344,-0.55118c0.17495,-0.09584 0.36989,-0.16067 0.56529,-0.22998c0.19546,-0.06937 0.39398,-0.12712 0.56535,-0.22991c0.32581,-0.19549 0.43481,-0.3706 0.52344,-0.54751c0.09169,-0.18306 0.15348,-0.3869 0.2198,-0.59135c0.06626,-0.20438 0.12153,-0.41203 0.21987,-0.59128c0.18696,-0.34079 0.35437,-0.45581 0.52695,-0.54751c0.18281,-0.09718 0.39379,-0.16241 0.61634,-0.22998c0.23456,-0.07125 0.48427,-0.13347 0.7341,-0.22991c0.52829,-0.20398 0.78631,-0.36899 1.04336,-0.55118c0.26677,-0.18907 0.52663,-0.40856 0.78516,-0.64468c0.26504,-0.24201 0.52516,-0.50092 0.78516,-0.76786c0.79001,-0.8111 1.20342,-1.47189 1.99956,-1.98932c0.75551,-0.49103 1.12444,0.507 1.13761,1.13886c0.02473,1.18644 0.00345,2.10561 0.00345,3.10117c0,1.0503 0,1.58912 0,3.22936c0,0.55706 0,1.72873 0,2.35972c0,0.67208 0,1.39343 0,3.9352c0,1.00245 0,2.10608 0,3.33022c0,1.36375 0,2.8863 0,4.58677c0,1.89756 0,4.01139 0,8.96447c0,2.86893 0,5.97879 0,9.29664c0,3.49309 0,7.12854 0,10.87346c0,3.82158 0,7.68701 0,15.41779c0,3.80608 0,7.56289 0,11.27587c0,3.67468 0,7.31654 0,10.93101c0,3.59254 0,7.16864 0,14.2935c0,3.55926 0,7.12125 0,10.68873c0,3.57563 0,7.16229 0,10.76258c0,3.61673 0,7.25265 0,14.59285c0,3.71164 0,7.46431 0,11.27179c0,3.87585 0,7.83391 0,11.88774c0,4.1633 0,8.44978 0,17.44714c0,4.73414 0,9.62152 0,14.65127c0,5.16114 0,10.44278 0,15.8339c0,5.48963 0,11.06688 0,22.44046c0,5.77434 0,11.59253 0,17.44353c0,5.87292 0,11.75674 0,17.64063c0,5.87292 0,11.72393 0,23.31646c0,5.72188 0,11.39176 0,17.01239c0,5.57404 0,11.10431 0,16.59354c0,5.45087 0,10.86618 0,21.60096c0,5.32174 0,10.59971 0,15.81739c0,5.14109 0,10.18908 0,15.12759c0,4.8126 0,9.48284 0,18.33049c0,4.15014 0,8.12504 0,11.94114c0,3.67374 0,7.22157 0,10.65993c0,3.34532 0,6.61392 0,12.98683c0,3.13546 0,6.24887 0,9.34596c0,3.08614 0,6.16679 0,9.24732c0,3.08614 0,6.18324 0,12.4321c0,3.16326 0,6.36195 0,9.60461c0,3.29466 0,6.64947 0,10.07272c0,3.49997 0,7.0847 0,14.54179c0,3.88133 0,7.83658 0,11.83019c0,3.99642 0,7.95982 0,11.85492c0,3.79097 0.00089,7.44239 0,14.18409c-0.00045,3.02813 0.00217,5.82915 -0.02351,8.42191c-0.02383,2.40416 -0.06613,4.63923 -0.16492,6.72205c-0.09265,1.95343 -0.17067,3.80567 -0.68394,7.21248c-0.24459,1.62354 -0.59973,3.18652 -0.97359,4.7058c-0.36625,1.48853 -0.77327,2.93576 -1.16201,4.36093c-0.38242,1.40191 -0.8072,2.77309 -1.35396,5.53347c-0.26983,1.36235 -0.44427,2.73913 -0.57321,4.11859c-0.12939,1.38387 -0.20083,2.78177 -0.24338,4.19251c-0.04307,1.42638 -0.05233,2.87254 -0.05585,5.83276c-0.00179,1.52021 0,3.07331 0,4.66476c0,1.63517 0,3.31966 0,5.05895c0,1.79944 0.00045,3.66465 0,7.61402c-0.00026,2.09231 0.00032,4.25587 -0.01176,6.47971c-0.01233,2.27303 -0.03508,4.58456 -0.08243,6.92322c-0.04767,2.35524 -0.09054,4.71796 -0.34197,9.40972c-0.12409,2.3154 -0.30146,4.60688 -0.48682,6.88219c-0.18453,2.26541 -0.38842,4.52401 -0.58101,6.78354c-0.19303,2.26461 -0.406,4.53818 -0.67698,9.14707c-0.13744,2.33719 -0.22089,4.69029 -0.31015,7.04232c-0.08869,2.33826 -0.16856,4.64992 -0.28657,6.91908c-0.11527,2.21582 -0.18945,4.37377 -0.71187,8.39505c-0.24293,1.87002 -0.59564,3.63257 -0.97359,5.3053c-0.36267,1.60509 -0.77065,3.13559 -1.16201,4.61557c-0.37986,1.4364 -0.80586,2.82441 -1.35396,5.59189c-0.27002,1.36342 -0.44427,2.74702 -0.59673,4.14319c-0.15482,1.41809 -0.27277,2.872 -0.4083,4.36494c-0.14006,1.54293 -0.25667,3.15016 -0.73979,6.54828c-0.25916,1.82297 -0.60861,3.70943 -0.97359,5.65845c-0.37462,2.00048 -0.77768,4.03558 -1.16201,6.10196c-0.38689,2.08001 -0.80528,4.15829 -1.35396,8.31471c-0.26856,2.03417 -0.44274,4.04294 -0.57321,6.01161c-0.12741,1.92255 -0.20006,3.79765 -0.24338,5.61742c-0.04185,1.75908 -0.05233,3.45292 -0.05585,6.62127c-0.0016,1.46541 0,2.85422 0,4.17193c0,1.25194 0,2.44373 0,3.58071c0,1.08766 0,2.13161 0,4.1099c0,0.9445 0,1.8616 0,2.7513c0,0.8623 0,1.69719 0,2.50481c0,0.78022 0,1.53304 0,2.95648c0,0.67168 0,1.32131 0,1.95463c0,0.62236 0,1.23924 0,1.85599c0,0.62236 0,1.25568 0,2.57699c0,0.69708 0,1.41622 0,2.15166c0,0.7464 0,1.49842 0,2.25031c0,0.7464 0.00045,1.48185 0,2.89807c-0.00026,0.67168 0.00064,1.32145 -0.01176,1.95463c-0.01214,0.62249 -0.03521,1.23977 -0.08243,1.85599c-0.04779,0.62303 -0.10102,1.26103 -0.34197,2.57699c-0.12824,0.70029 -0.30351,1.41715 -0.48682,2.15166c-0.18651,0.74734 -0.3874,1.49789 -0.58101,2.25031c-0.19194,0.74587 -0.39763,1.47557 -0.67698,2.89807c-0.13131,0.66848 -0.22102,1.31677 -0.28657,1.94234c-0.06332,0.60458 -0.10019,1.19419 -0.12172,1.76977c-0.02109,0.56421 -0.02613,1.12054 -0.02792,2.2193c-0.00089,0.54751 0,1.09501 0,1.64252c0,0.54751 0,1.09501 0,1.64252c0,0.54751 0,1.09501 0,2.19002c0,0.54791 0,1.09862 0,1.65482c0,0.56435 0,1.13966 0,1.72873c0,0.60538 0,1.23002 0,2.54772c0,0.69762 0,1.41983 0,2.16396c0,0.76338 0,1.54307 0,2.33652c0,0.80442 0,1.61699 0,3.2559c0,0.82166 0,1.64613 0,2.47607c0,0.8381 0,1.68716 0,2.54999c0,0.87914 0,1.77752 0,3.64273c0,0.97043 0,1.96011 0,2.96062c0,1.00332 0,2.00115 0,2.98522c0,0.96228 -0.00051,1.89448 0,3.63551c0.00026,0.79439 -0.00096,1.53679 0.01182,2.22972c0.01195,0.64669 0.03297,1.25007 0.08243,1.81081c0.04626,0.52425 0.08249,1.02484 0.34197,1.89074c0.12159,0.40568 0.30076,0.77728 0.48676,1.13337c0.18402,0.35222 0.38874,0.68986 0.58107,1.03473c0.19335,0.34674 0.41092,0.69173 0.67698,1.48198c0.14025,0.41651 0.22293,0.87072 0.28657,1.3427c0.06588,0.48816 0.10044,0.9953 0.12166,1.51527c0.02166,0.5304 0.0262,1.06948 0.02792,2.16088c0.00089,0.54751 0,1.09501 0,1.64252c0,0.54751 0,1.09501 0,1.64252c0,0.54751 0,1.09501 0,2.19002c0,0.54751 0,1.09501 0,1.64252c0,0.54751 0,1.09501 0,1.64252c0,0.54751 0,1.09501 0,2.19002c0,0.54791 0,1.09862 0,1.65482c0,0.56435 0,1.13966 0,1.72873c0,0.60538 0,1.23002 0,2.54772c0,0.69708 0,1.41622 0,2.15166c0,0.7464 0,1.49842 0,2.25031c0,0.7464 0,1.48185 0,2.89807c0,0.67115 0,1.3177 0,1.94234c0,0.60538 0,1.19446 0,1.76977c0,0.56435 -0.00045,1.12054 0,2.2193c0.00026,0.54697 -0.00051,1.0914 0.01182,1.63009c0.01214,0.5308 0.03406,1.05117 0.08243,1.5563c0.04696,0.49056 0.08383,0.97351 0.34197,1.83233c0.12204,0.40595 0.30242,0.78009 0.48676,1.14567c0.18555,0.36812 0.39181,0.73304 0.58107,1.12108c0.19661,0.40314 0.41756,0.82848 0.67698,1.83955c0.14524,0.56622 0.22281,1.18871 0.28657,1.83968c0.06569,0.67048 0.10013,1.35406 0.12166,2.03671c0.02115,0.67142 0.0262,1.32131 0.02792,2.51123c0.00077,0.52144 0,0.9965 0,1.43306c0,0.40649 0,0.79118 0,1.16211c0,0.36545 0,0.73371 0,1.51112c0,0.42386 0,0.87232 0,1.3427c0,0.48963 0,0.99556 0,1.51527c0,0.53066 0,1.06948 0,2.16088c0,0.54751 0,1.09501 0,1.64252c0,0.54751 0,1.09501 0,1.64252c0,0.54751 0,1.09501 0,2.19002c0,0.54751 0,1.09501 0,1.64252c0,0.54751 0,1.09501 0,1.64252c0,0.54751 0,1.09501 0,2.19002c0,0.54697 0,1.09127 0,1.63009c0,0.53066 0,1.05037 0,1.5563c0,0.48963 -0.00051,0.96001 0,1.83233c0.00026,0.3974 -0.00083,0.77033 0.01182,1.12108c0.01201,0.33177 0.03412,0.64829 0.08243,0.94851c0.04703,0.2922 0.09917,0.5868 0.34197,1.12429c0.12773,0.28271 0.30696,0.55486 0.48676,0.84585c0.19003,0.30757 0.39392,0.63212 0.58107,0.99369c0.1991,0.3847 0.41807,0.80268 0.67698,1.81041c0.14568,0.56702 0.22344,1.19607 0.28657,1.86427c0.06658,0.7043 0.10051,1.44349 0.12166,2.20914c0.02172,0.78744 0.02575,1.59146 0.02792,3.22676c0.00109,0.823 -0.00006,1.65709 0.01182,2.51297c0.0124,0.88876 0.03661,1.82163 0.08243,2.80878c0.04888,1.05344 0.10818,2.18468 0.34197,4.71582c0.13131,1.42156 0.30485,2.93122 0.48676,4.51278c0.18792,1.6341 0.38791,3.30027 0.58107,4.98102c0.19246,1.6746 0.39616,3.32246 0.67698,6.47517c0.13041,1.46394 0.22031,2.85021 0.28657,4.15963c0.06249,1.2347 0.09974,2.39881 0.12166,3.49449c0.02057,1.02965 0.0262,1.99647 0.02792,3.75221c0.00077,0.79519 0,1.544 0,2.25432c0,0.68024 0,1.33869 0,1.98337c0,0.6392 0,1.28121 0,2.60613c0,0.69708 0,1.41622 0,2.15166c0,0.7464 0,1.49842 0,2.25031c0,0.7464 0,1.48185 0,2.89807c0,0.67115 0,1.3177 0,1.94234c0,0.60538 0,1.19446 0,1.76977c0,0.56435 0,1.12054 0,2.2193c0,0.54697 0,1.09127 0,1.63009c0,0.53066 0,1.05037 0,1.5563c0,0.48963 0,0.96001 0,1.83233c0,0.3974 0,0.7702 0,1.12108c0,0.33163 0,0.64696 0,0.94851c0,0.2906 -0.00045,0.57304 0,1.12429c0.00026,0.27375 -0.00038,0.54764 0.01182,0.82126c0.0122,0.27402 0.03514,0.54884 0.08243,0.82126c0.04779,0.27536 0.09981,0.56101 0.34197,1.09501c0.12798,0.28217 0.3053,0.55232 0.48676,0.83356c0.18837,0.29193 0.39092,0.58868 0.58107,0.90748c0.19565,0.32816 0.41117,0.66594 0.67698,1.45271c0.14044,0.41584 0.22249,0.86711 0.28657,1.3304c0.06524,0.47131 0.10019,0.95065 0.12166,1.42905c0.02121,0.47238 0.0262,0.93434 0.02792,1.80305c0.00077,0.3974 0,0.7702 0,1.12108c0,0.33163 0,0.64696 0,0.94851l0,0.2906l0,0.28244" stroke="#bf0000"/>
 </g>
</svg>
