<svg width="2048" height="2048" xmlns="http://www.w3.org/2000/svg" xmlns:svg="http://www.w3.org/2000/svg">
 <g class="layer">
  <title>Layer 1</title>
  <g id="svg_1" fill="#fff" fill-rule="nonzero">
   <path id="svg_2" d="m1060,1261q172,3 282,17t198,33q55,-54 122,-103t94,-84q48,-65 48,-162q0,-89 -43,-149q-77,-113 -235,-113q-92,0 -192,40q-91,36 -132,78q-85,82 -124,216q-15,46 -16,117t-2,110z"/>
   <path id="svg_3" d="m988,1260q0,-40 -2,-110t-15,-118q-41,-134 -124,-216q-43,-42 -132,-78q-102,-40 -193,-40q-158,0 -234,113q-43,60 -43,150q0,98 48,161q25,36 96,89t120,98q87,-19 196,-33t283,-16z"/>
   <path id="svg_4" d="m1024,1009q7,-28 12,-39q10,-39 23,-66q6,-17 17,-39t25,-52q8,-17 17,-41t18,-49q8,-20 8,-43q0,-49 -35,-83t-85,-35q-119,0 -119,119q0,23 8,43q22,65 34,90q13,29 24,51t19,40q13,33 22,66q2,6 12,38z"/>
  </g>
  <g id="svg_5" fill-rule="nonzero">
   <path id="svg_6" fill="#000" transform="translate(0,2048) scale(1,-1)" d="m1133,865q0,29 6,82t21,84q37,81 106,150q20,20 86,54q65,32 139,32q56,0 111,-19t84,-60q25,-34 25,-110q0,-60 -49,-112q-32,-33 -69,-66t-71,-79q-58,20 -161,31t-228,13zm-73,-78q172,-3 282,-17t198,-33q55,54 122,103t94,84q48,65 48,162q0,89 -43,149q-77,113 -235,113q-92,0 -192,-40q-91,-36 -132,-78q-85,-82 -124,-216q-15,-46 -16,-117t-2,-110zm458,-173q-184,51 -490,51q-308,0 -496,-52l15,-101q189,49 481,49q291,0 474,-48l16,101zm26,-299l-30,118q-195,45 -490,45q-292,0 -488,-45l-32,-119q190,58 521,58q159,0 295,-16t224,-41zm-1081,207l-33,187q-1,0 -3,4q-5,7 -28,18t-55,40q-44,37 -68,60t-45,50q-61,84 -68,203q-10,115 93,229q104,114 281,107q66,-4 155,-32q29,-12 59,-23t61,-24q16,-8 28,-16q-5,21 -5,42q0,78 55,133t134,56q78,0 133,-55t55,-133q0,-16 -4,-42q14,9 27,15q46,20 121,47q86,29 155,33q177,8 280,-107q101,-114 94,-229q-8,-119 -69,-203q-20,-27 -45,-50t-67,-60q-33,-28 -56,-39t-27,-19q-1,-2 -2,-3t-1,-2l-32,-188l66,-247q-50,-45 -224,-74t-402,-29q-232,0 -408,30t-221,77l66,244zm525,266q0,40 -2,110t-15,118q-41,134 -124,216q-43,42 -132,78q-102,40 -193,40q-158,0 -234,-113q-43,-60 -43,-150q0,-98 48,-161q25,-36 96,-89t120,-98q87,19 196,33t283,16zm36,251q7,28 12,39q10,39 23,66q6,17 17,39t25,52q8,17 17,41t18,49q8,20 8,43q0,49 -35,83t-85,35q-119,0 -119,-119q0,-23 8,-43q22,-65 34,-90q13,-29 24,-51t19,-40q13,-33 22,-66q2,-6 12,-38zm35,520l-71,0l0,131l-83,0q-34,0 -34,33l0,1q0,33 34,33l83,0l0,85q0,35 36,35q35,0 35,-35l0,-85l86,0q33,0 33,-33l0,-1q0,-33 -33,-33l-85,-1l-1,-130zm-147,-694q-125,-2 -228,-13t-161,-31q-30,37 -69,74t-70,71q-50,51 -50,112q0,75 25,110q27,40 83,59t113,20q72,0 138,-32q65,-34 86,-54q68,-69 106,-150q13,-30 19,-83t8,-83zm112,345q-2,10 -5,17q-6,20 -10,29q-3,7 -8,17t-10,23q-3,7 -7,18t-8,22q-3,9 -3,19q0,53 51,53q53,0 53,-52q0,-13 -4,-19q-14,-38 -15,-41q-15,-30 -19,-39q-7,-16 -9,-29q-3,-6 -4,-10t-2,-8z"/>
   <path id="svg_7" fill="#fff" d="m1518,1434q-184,-51 -490,-51q-308,0 -496,52l15,101q189,-49 481,-49q291,0 474,48l16,-101z"/>
   <path id="svg_8" fill="#fff" d="m1544,1733l-30,-118q-195,-45 -490,-45q-292,0 -488,45l-32,119q190,-58 521,-58q159,0 295,16t224,41z"/>
  </g>
  <path stroke="#bf0000" d="m669.49994,1071.16373c1.18472,-2.51598 1.97721,-2.74289 2.44744,-3.6842c0.31967,-0.63997 0.30363,-1.48141 0.48465,-2.32098c0.26725,-1.23941 0.62779,-1.97114 1.09741,-2.66609c0.53055,-0.78509 0.91271,-1.18243 2.00543,-2.81894c0.44534,-0.66702 0.8898,-1.41346 1.3537,-2.21389c0.48709,-0.84045 0.97296,-1.72017 1.45394,-2.62731c0.48655,-0.91762 0.97045,-1.83736 1.83461,-3.67011c0.41386,-0.8776 0.78888,-1.73787 1.14059,-2.57769c0.34266,-0.81825 0.66145,-1.62379 0.96508,-2.41673c0.29893,-0.78073 0.58366,-1.55572 1.14385,-3.09124c0.27928,-0.76552 0.55578,-1.53028 0.84818,-2.28657c0.29071,-0.75193 0.59243,-1.49425 0.92332,-2.21763c0.32749,-0.71589 0.64758,-1.43029 1.47808,-2.73042c0.40814,-0.63897 0.87763,-1.23667 1.3537,-1.82315c0.47472,-0.58473 0.97052,-1.15351 1.45394,-1.73114c0.48403,-0.57825 0.99404,-1.14603 1.83461,-2.40364c0.42678,-0.63859 0.79528,-1.31933 1.14059,-2.01839c0.34939,-0.70717 0.66492,-1.43702 0.96508,-2.17935c0.30247,-0.74806 0.58508,-1.50759 1.14385,-3.03675c0.27955,-0.76502 0.55448,-1.52617 0.8356,-2.2751c0.27602,-0.73522 0.55142,-1.45061 0.8356,-2.13721c0.27309,-0.65979 0.51096,-1.30038 1.11414,-2.39679c0.52171,-0.94829 1.12393,-1.73114 1.7715,-2.4206c0.32763,-0.34885 1.48066,-1.4071 1.90839,-1.80476c0.91646,-0.85204 1.38655,-1.30418 1.83277,-1.78568c0.89068,-0.96107 1.33929,-1.44145 1.91492,-2.50021c0.53558,-0.98513 0.64418,-1.51613 0.87042,-2.50014c0.21264,-0.92485 0.45792,-2.20915 0.85648,-2.89936c0.38604,-0.66858 0.97147,-1.24677 1.6712,-1.74653c1.16235,-0.83016 1.67045,-1.0183 2.61452,-1.5627c0.9801,-0.56516 1.52255,-0.81433 2.80764,-1.93031c0.42963,-0.3731 1.16779,-1.25094 1.53751,-1.70907c0.37965,-0.47047 1.16636,-1.46383 1.62659,-1.95418c0.98072,-1.04492 1.58926,-1.53726 2.22827,-2.03934c0.66152,-0.51972 1.36785,-1.02441 2.09322,-1.53203c0.73414,-0.51379 1.48284,-1.01668 2.21848,-1.53203c1.44496,-1.01225 2.12559,-1.52717 2.78167,-2.04607c0.64928,-0.51354 1.28094,-1.04186 1.90513,-1.58184c0.63112,-0.54602 1.26265,-1.11249 1.9052,-1.69673c1.34806,-1.22564 2.05289,-1.8805 2.78908,-2.54995c0.75577,-0.68728 1.53044,-1.38541 2.32714,-2.0836c0.80391,-0.70455 1.61714,-1.40629 2.45247,-2.08354c1.6508,-1.33841 2.49762,-1.95337 3.33867,-2.54995c0.8303,-0.58897 1.66794,-1.15158 2.5068,-1.69673c0.83234,-0.54091 1.66957,-1.06524 2.5068,-1.58184c1.66801,-1.02914 2.50721,-1.53427 3.33873,-2.04613c0.82765,-0.50949 1.64747,-1.01836 2.45247,-1.53203c0.79562,-0.50768 1.57634,-1.01356 2.32714,-1.53203c1.4572,-1.00633 2.13157,-1.52823 2.78908,-2.0427c0.64785,-0.50694 1.27754,-1.02135 1.90513,-1.53203c0.62765,-0.51068 1.2551,-1.02752 1.9052,-1.53203c1.33269,-1.03419 2.05106,-1.53689 2.79275,-2.04607c0.7623,-0.52333 1.55846,-1.04697 2.38148,-1.58184c0.84818,-0.5512 1.72812,-1.11249 2.63213,-1.69673c1.89663,-1.22564 2.8838,-1.87788 3.8958,-2.55338c1.03709,-0.69227 2.09172,-1.40498 3.16275,-2.13334c1.08666,-0.73902 2.18319,-1.48983 3.28807,-2.24823c2.22541,-1.5276 3.33785,-2.29461 4.44913,-3.05726c1.10495,-0.75828 2.20134,-1.50927 3.28807,-2.24823c1.07109,-0.72836 2.12477,-1.4422 3.16275,-2.13334c1.99734,-1.32999 2.96241,-1.95231 3.90321,-2.55681c0.92169,-0.59221 1.83461,-1.17121 2.74073,-1.74653c0.90619,-0.57538 1.81985,-1.15332 2.7408,-1.74647c1.9054,-1.22726 2.89122,-1.88131 3.90321,-2.55681c1.03709,-0.69227 2.09172,-1.40498 3.16275,-2.13334c1.08666,-0.73902 2.18319,-1.48983 3.28807,-2.24823c2.22541,-1.5276 3.33812,-2.29592 4.45654,-3.06069c1.12196,-0.76726 2.25187,-1.53502 3.39674,-2.29804c1.15398,-0.76907 2.32388,-1.53938 3.52207,-2.29804c2.44349,-1.54711 3.7175,-2.3029 5.00987,-3.06063c1.30175,-0.76321 2.6188,-1.51289 3.94401,-2.24823c1.31909,-0.73198 2.63451,-1.44581 3.94408,-2.13334c2.54713,-1.33722 3.794,-1.9525 5.00987,-2.55681c1.19166,-0.59228 2.36727,-1.16847 3.52207,-1.74653c1.14399,-0.57264 2.2807,-1.14491 3.39674,-1.74647c2.24609,-1.21061 3.34825,-1.87994 4.46395,-2.55001c1.12468,-0.6755 2.24908,-1.36571 3.39674,-2.03373c1.15126,-0.67008 2.31232,-1.33367 3.52207,-1.9189c2.42214,-1.17177 3.71458,-1.61525 5.00613,-2.04607c1.29067,-0.43057 2.59663,-0.8084 3.88975,-1.19503c1.28053,-0.38282 2.55121,-0.74706 3.76435,-1.19496c2.3572,-0.87031 3.42795,-1.44949 4.45654,-2.03928c1.01322,-0.58093 1.97109,-1.20986 2.92046,-1.81928c0.93352,-0.5992 1.84025,-1.20581 2.79506,-1.70439c1.86324,-0.97304 2.88557,-1.27576 3.91063,-1.53203c1.03682,-0.2592 2.11546,-0.43369 3.21708,-0.59365c1.12672,-0.16364 2.28723,-0.29255 3.46773,-0.47876c2.45852,-0.38787 3.72185,-0.69083 5.0062,-1.02821c1.31005,-0.34411 2.62404,-0.73983 3.94401,-1.15282c1.32433,-0.4143 2.63689,-0.8498 3.94408,-1.26778c2.55169,-0.81588 3.79359,-1.18206 5.00987,-1.5286c1.19125,-0.33937 2.36631,-0.65873 3.52207,-0.98052c1.14297,-0.31824 2.27825,-0.63267 3.39674,-0.98046c2.24133,-0.69688 3.34805,-1.11193 4.46021,-1.52866c1.11611,-0.41823 2.22582,-0.85316 3.34241,-1.26771c1.11176,-0.4128 2.21868,-0.82025 3.34241,-1.15289c2.21079,-0.65437 3.33867,-0.85073 4.45287,-1.02135c1.10237,-0.16881 2.20161,-0.28152 3.28807,-0.37914c1.07129,-0.09625 2.12831,-0.16495 3.16275,-0.26431c2.00441,-0.19256 2.96581,-0.34567 3.90689,-0.51404c0.93352,-0.167 1.86031,-0.36225 2.79513,-0.55157c0.94801,-0.192 1.91574,-0.39286 2.92039,-0.55151c2.12171,-0.33501 3.26767,-0.42621 4.45654,-0.50725c1.22607,-0.0836 2.4843,-0.13247 3.76442,-0.1647c1.29359,-0.03254 2.5931,-0.04488 3.88968,-0.04981c2.55141,-0.00966 3.79087,-0.00343 5.00246,-0.00343c1.18377,0 2.33972,0 3.4678,0c1.10019,0 2.17251,0 3.21701,0c2.0055,0 2.96779,0 3.91063,0c0.93169,0 1.86065,0 2.79513,0c0.94835,0 1.91907,0 2.92039,0c2.12804,0 3.27046,-0.00193 4.47143,0.00343c1.26217,0.00561 2.58861,0.01839 3.98162,0.04981c1.46291,0.03298 2.99866,0.08042 4.60832,0.1647c3.4593,0.18116 5.30941,0.33862 7.23447,0.51404c1.99401,0.18172 4.04574,0.39859 6.14583,0.65112c2.14483,0.25789 4.32305,0.54471 6.52188,0.8809c4.45178,0.68061 6.67529,1.10252 8.90193,1.52523c2.22997,0.42334 4.45654,0.87155 6.68481,1.31752c2.22827,0.44603 4.45375,0.89917 6.68481,1.31758c4.45117,0.83477 6.68229,1.18755 8.90193,1.53203c2.20066,0.34149 4.37915,0.65736 6.52188,0.98046c2.10213,0.31699 4.15754,0.62332 6.14583,0.98052c3.78611,0.68017 5.55313,1.09728 7.24188,1.53882c1.63428,0.42733 3.2047,0.90154 4.71705,1.41714c1.48474,0.50619 2.9314,1.0529 4.34094,1.64692c2.81635,1.18686 4.1927,1.86884 5.57802,2.54659c1.38791,0.67899 2.76113,1.37942 4.12374,2.08354c1.352,0.69863 2.68238,1.40043 3.99835,2.0836c2.55536,1.32656 3.79557,1.95119 5.00994,2.54652c1.18118,0.57906 2.3368,1.12876 3.46766,1.64698c1.09754,0.50295 2.16816,0.97902 3.21715,1.41708c1.99707,0.83396 2.96745,1.18755 3.90315,1.54568c0.91476,0.35009 1.81523,0.6952 2.68646,1.08007c0.87083,0.38469 1.73907,0.79893 2.56107,1.30985c1.7252,1.07228 2.52489,1.79983 3.35356,2.55681c0.8677,0.79257 1.72588,1.66263 2.61547,2.56996c0.92278,0.94125 1.86038,1.92875 2.86612,2.91469c2.09716,2.05598 3.25659,3.06138 4.44906,4.07519c1.21043,1.02908 2.45852,2.0427 3.71016,3.06406c1.2515,1.02135 2.5049,2.02974 3.71002,3.06406c2.35067,2.01764 3.42142,3.05527 4.44906,4.07861c1.0018,0.99754 1.94702,1.99421 2.86612,2.9645c0.89327,0.94312 1.74818,1.86872 2.61547,2.73466c1.65243,1.64979 2.50585,2.37808 3.34989,3.07085c0.82744,0.67918 1.6712,1.32095 2.5068,1.96098c0.8356,0.64009 1.68467,1.2765 2.5068,1.96104c1.69963,1.41533 2.51768,2.22517 3.34241,3.07085c0.84689,0.86837 1.67787,1.78575 2.5068,2.73466c0.8424,0.96444 1.6746,1.95699 2.5068,2.96444c1.678,2.03123 2.50803,3.05601 3.3386,4.07861c0.82853,1.02011 1.64985,2.03965 2.45254,3.06406c0.79793,1.0183 1.58212,2.03522 2.32714,3.06406c1.46869,2.02824 2.13334,3.06007 2.78534,4.07861c0.64139,1.00209 1.25082,1.99539 1.85086,2.9645c0.58468,0.94424 1.1461,1.86448 1.72547,2.73466c1.09292,1.64156 1.66671,2.37428 2.22827,3.06742c0.54088,0.66764 1.08911,1.29645 1.61694,1.91123c0.51572,0.60063 1.02941,1.18674 1.49154,1.79628c0.92101,1.2151 1.30345,1.88143 1.67487,2.56024c0.377,0.68903 0.72313,1.40498 1.06966,2.13334c0.35157,0.73896 0.69361,1.4945 1.06953,2.24823c0.76678,1.53733 1.21342,2.29673 1.66753,3.06063c0.4567,0.76813 0.93012,1.52935 1.38288,2.29804c0.44963,0.7634 0.89286,1.52106 1.25762,2.29804c0.70993,1.5122 0.92754,2.29368 1.11414,3.06069c0.1836,0.75442 0.30682,1.5074 0.41358,2.24823c0.10472,0.72662 0.17925,1.44089 0.28833,2.13334c0.20917,1.32787 0.37319,1.95387 0.56441,2.55338c0.187,0.58623 0.41114,1.15045 0.65594,1.69673c0.24181,0.53985 0.50743,1.06493 0.78134,1.58184c0.54496,1.02846 0.83683,1.53433 1.10665,2.05629c0.27527,0.53256 0.5436,1.08849 0.78134,1.68139c0.24957,0.62251 0.48172,1.29408 0.65594,2.02612c0.3887,1.63364 0.46717,2.57339 0.56074,3.56794c0.09819,1.04392 0.16388,2.12786 0.23406,3.23636c0.07086,1.12134 0.13043,2.24393 0.23392,3.35131c0.19911,2.13048 0.36979,3.12615 0.55707,4.07182c0.17898,0.90391 0.38883,1.76118 0.60168,2.57769c0.20332,0.7801 0.41834,1.52093 0.60154,2.23284c0.34178,1.32806 0.46051,1.95705 0.55707,2.56709c0.09452,0.59783 0.16429,1.19478 0.23406,1.79622c0.07127,0.61403 0.1375,1.24976 0.23392,1.9113c0.2104,1.44264 0.37836,2.23109 0.55707,3.06406c0.18673,0.87024 0.39509,1.76667 0.60168,2.68479c0.20944,0.93046 0.42215,1.86454 0.60154,2.79987c0.34994,1.82452 0.46268,2.70848 0.5534,3.56788c0.08827,0.83708 0.14416,1.6577 0.17966,2.46274c0.03495,0.7917 0.04883,1.57367 0.05427,2.34779c0.01061,1.53552 0.00381,2.30153 0.00381,3.06755c0,0.76601 0,1.53203 0,2.29804c0,0.76601 0,1.53203 0,2.29804c0,1.53203 0,2.29804 0,3.06406c0,0.76601 0,1.53203 0,2.29804c0,0.76601 0,1.53203 0,2.29804c0,1.53203 0,2.29754 0,3.06057c0,0.75791 0,1.50821 0,2.2483c0,0.72724 0,1.43927 0,2.13334c0,1.32432 0.00231,1.95082 -0.00381,2.55675c-0.00598,0.59072 -0.01904,1.17159 -0.05427,1.7466c-0.03536,0.57563 -0.0865,1.1575 -0.17966,1.74647c-0.19571,1.23692 -0.37156,1.88486 -0.55707,2.55675c-0.19204,0.69595 -0.41522,1.40735 -0.65594,2.13334c-0.24576,0.74133 -0.5096,1.49101 -0.78134,2.2483c-0.54904,1.52991 -0.83179,2.29468 -1.11033,3.06069c-0.27853,0.76601 -0.55707,1.53203 -0.8356,2.29804c-0.27853,0.76601 -0.55707,1.53203 -0.8356,2.29804c-0.55707,1.53203 -0.83451,2.29892 -1.11794,3.06742c-0.28574,0.77462 -0.5791,1.55709 -0.88987,2.34779c-0.31689,0.80616 -0.64941,1.62803 -1.01526,2.46274c-0.76529,1.7466 -1.2107,2.64689 -1.66753,3.57137c-0.46595,0.94293 -0.95052,1.89284 -1.43714,2.84961c-0.48648,0.95664 -0.97392,1.90544 -1.43728,2.84949c-0.89639,1.82651 -1.29298,2.71184 -1.6712,3.57473c-0.3702,0.84444 -0.72041,1.68189 -1.06953,2.51261c-0.34898,0.8306 -0.69688,1.66905 -1.06966,2.51249c-0.7729,1.74847 -1.21179,2.65212 -1.67855,3.5781c-0.48009,0.95253 -0.99472,1.92052 -1.54594,2.89936c-0.56278,0.99928 -1.15575,2.00842 -1.79646,3.01431c-1.30876,2.05467 -2.03923,3.06543 -2.78167,4.08204c-0.74938,1.02609 -1.52922,2.0457 -2.32714,3.06406c-0.80269,1.02447 -1.6236,2.0442 -2.45254,3.06406c-1.66291,2.04582 -2.50585,3.06156 -3.33125,4.08541c-0.82146,1.01886 -1.62863,2.03672 -2.39814,3.06406c-0.76053,1.01549 -1.49508,2.02837 -2.14748,3.06406c-1.26999,2.01602 -1.76532,3.05757 -2.23194,4.08541c-0.46091,1.01512 -0.86416,2.04071 -1.24932,3.06406c-0.38366,1.01936 -0.73986,2.04557 -1.12379,3.06406c-0.77236,2.04869 -1.21097,3.06854 -1.68235,4.08541c-0.4756,1.02609 -0.99173,2.04769 -1.54594,3.06406c-0.55979,1.02646 -1.15426,2.05081 -1.79646,3.06406c-1.30563,2.05966 -2.04072,3.06667 -2.77419,4.08192c-0.73442,1.01637 -1.48352,2.01789 -2.21861,3.01431c-0.72422,0.98158 -1.43823,1.94122 -2.09308,2.89936c-1.24307,1.81878 -1.75457,2.71209 -2.23208,3.57473c-0.46173,0.83396 -0.88103,1.6592 -1.30345,2.46274c-0.41698,0.79319 -0.82812,1.58502 -1.30359,2.34779c-0.97242,1.55996 -1.58892,2.30926 -2.22827,3.06406c-0.64928,0.76639 -1.34085,1.51096 -2.03882,2.2483c-0.69103,0.72998 -1.3856,1.43316 -2.03895,2.13334c-1.22525,1.31297 -1.75036,1.94558 -2.22827,2.56024c-0.46132,0.59334 -0.88701,1.19316 -1.30345,1.79622c-0.42283,0.61229 -0.84512,1.25175 -1.30359,1.9113c-1.00574,1.447 -1.59722,2.23284 -2.23194,3.06406c-0.66587,0.87199 -1.36914,1.76767 -2.09322,2.68479c-0.7355,0.93158 -1.48093,1.86529 -2.21848,2.79987c-1.44095,1.82577 -2.12396,2.70673 -2.77419,3.56788c-0.63078,0.83533 -1.23246,1.65396 -1.7966,2.46274c-0.54986,0.78808 -1.07306,1.56607 -1.54581,2.34779c-0.92006,1.52118 -1.30332,2.29954 -1.68235,3.07428c-0.38135,0.77948 -0.7457,1.58015 -1.12393,2.39766c-0.39046,0.84381 -0.7929,1.72266 -1.24919,2.62744c-0.98779,1.95855 -1.59232,2.99698 -2.23208,4.09214c-0.67281,1.15189 -1.39743,2.34866 -2.14748,3.60029c-0.77998,1.30163 -1.59164,2.65 -2.39814,4.05985c-1.6878,2.95048 -2.50368,4.51517 -3.33493,6.10779c-0.83995,1.60933 -1.66576,3.22975 -2.5068,4.83347c-0.83016,1.5829 -1.64414,3.13338 -2.5068,4.60381c-1.62075,2.76259 -2.48654,3.97918 -3.34989,5.11013c-0.83302,1.09117 -1.7116,2.11626 -2.61547,3.1062c-0.9085,0.99505 -1.8733,1.97725 -2.86612,2.99125c-2.12382,2.16913 -3.2691,3.35181 -4.45654,4.60967c-1.23967,1.31322 -2.51265,2.68454 -3.81869,4.10212c-1.33813,1.45236 -2.6953,2.93813 -4.06934,4.44672c-2.7799,3.05234 -4.17189,4.58524 -5.5632,6.12126c-1.39403,1.53913 -2.78874,3.08525 -4.17807,4.64583c-1.39614,1.56818 -2.7937,3.15071 -4.17801,4.76078c-2.80241,3.25955 -4.18195,4.9377 -5.55578,6.62183c-1.36316,1.67104 -2.6866,3.32613 -3.96074,4.94842c-1.22879,1.56444 -2.3893,3.06368 -3.45944,4.48886c-1.89459,2.52321 -2.66504,3.62336 -3.37212,4.6199c-0.66322,0.9347 -1.30576,1.84746 -1.9887,2.75386c-0.72047,0.95627 -1.53228,1.98373 -2.49008,3.09847c-2.34455,2.7288 -3.87635,4.33239 -5.56326,6.12475c-1.82033,1.93424 -3.75742,3.95674 -5.75727,6.04383c-2.0259,2.11414 -4.04833,4.21183 -6.00799,6.27361c-3.63549,3.82496 -5.21904,5.54375 -6.65883,7.11892c-1.31834,1.44226 -2.51796,2.77742 -3.63903,4.00237c-1.0443,1.14104 -2.02767,2.21476 -3.01233,3.19808c-1.88663,1.88399 -2.89917,2.7465 -3.92178,3.59855c-1.02655,0.85541 -2.08792,1.68501 -3.16275,2.51261c-1.08292,0.83384 -2.18808,1.66057 -3.28807,2.51249c-2.23555,1.73139 -3.34506,2.6424 -4.44913,3.5781c-1.11216,0.94268 -2.20923,1.91042 -3.28807,2.89936c-1.07891,0.98906 -2.1383,1.99159 -3.16275,3.01431c-2.02406,2.02076 -2.96853,3.05695 -3.90321,4.08204c-0.92781,1.01761 -1.83461,2.0427 -2.7408,3.06406c-0.90612,1.02135 -1.80972,2.04894 -2.74073,3.06406c-1.88507,2.05542 -2.88482,3.06792 -3.89947,4.08541c-1.02233,1.02522 -2.06486,2.0427 -3.10848,3.06406c-1.04355,1.02135 -2.08921,2.03635 -3.10841,3.06406c-2.01318,2.03011 -2.96479,3.06032 -3.89947,4.08541c-0.92781,1.01761 -1.83461,2.0427 -2.7408,3.06406c-0.90612,1.02135 -1.80972,2.04894 -2.74073,3.06406c-1.88507,2.05542 -2.88482,3.06792 -3.89947,4.08541c-1.02233,1.02522 -2.06486,2.0427 -3.10848,3.06406c-1.04355,1.02135 -2.08921,2.03622 -3.10841,3.06406c-2.01325,2.03011 -2.96466,3.05957 -3.89573,4.08192c-0.91924,1.00926 -1.80938,2.01827 -2.68646,3.01431c-0.86471,0.98195 -1.7101,1.95493 -2.56114,2.89936c-1.66216,1.84472 -2.50497,2.72095 -3.34615,3.57473c-0.83009,0.84257 -1.66767,1.66107 -2.5068,2.46274c-0.83213,0.79506 -1.66943,1.57529 -2.5068,2.34779c-1.66773,1.53864 -2.50776,2.30029 -3.33867,3.06755c-0.82819,0.76477 -1.64883,1.52879 -2.45247,2.29804c-0.79698,0.7629 -1.57981,1.52392 -2.32714,2.29804c-1.46407,1.51644 -2.13314,2.29355 -2.78534,3.06057c-0.64105,0.75405 -1.25272,1.50747 -1.85086,2.2483c-0.58651,0.72649 -1.1533,1.44363 -1.72554,2.13334c-1.10577,1.33279 -1.66794,1.95543 -2.23201,2.55001c-0.55027,0.58 -1.10706,1.12982 -1.6712,1.64686c-0.55027,0.50432 -1.10353,0.9817 -1.6712,1.4172c-1.09421,0.83932 -1.66773,1.19216 -2.22453,1.53876c-0.5453,0.33937 -1.09027,0.65767 -1.61687,0.98058c-0.51695,0.31705 -1.02662,0.62937 -1.49154,0.98046c-0.91571,0.69158 -1.30148,1.10975 -1.67494,1.53203c-0.37496,0.4239 -0.72047,0.87149 -1.06959,1.31758c-0.34905,0.44597 -0.68845,0.89817 -1.06953,1.31746c-0.75767,0.83371 -1.21015,1.19091 -1.67494,1.53203c-0.4703,0.34511 -0.97453,0.66353 -1.49154,0.98058c-0.5266,0.32291 -1.07388,0.63797 -1.61687,0.98046c-1.12148,0.70729 -1.6729,1.11112 -2.2246,1.53539c-0.56264,0.43275 -1.1176,0.89206 -1.6712,1.36733c-0.5606,0.48125 -1.1159,0.97809 -1.6712,1.48228c-1.11767,1.01474 -1.6712,1.52866 -2.22827,2.03934c-0.55707,0.51068 -1.11414,1.02135 -1.6712,1.53203c-0.55707,0.51068 -1.11414,1.02135 -1.6712,1.53203c-1.11414,1.02135 -1.6712,1.53203 -2.22827,2.0427c-0.55707,0.51068 -1.11414,1.02135 -1.6712,1.53203c-0.55707,0.51068 -1.11414,1.02135 -1.6712,1.53203c-1.11414,1.02135 -1.66889,1.53415 -2.23194,2.03921c-0.56312,0.50519 -1.13365,1.00427 -1.72554,1.48228c-0.59284,0.47876 -1.20111,0.94642 -1.85086,1.36733c-1.31311,0.85054 -2.04494,1.1939 -2.7816,1.53539c-0.74332,0.34461 -1.5078,0.66054 -2.27288,0.98058c-0.76502,0.31992 -1.53296,0.62962 -2.27281,0.98046c-1.45843,0.69158 -2.13144,1.10663 -2.7816,1.53203c-0.64329,0.42091 -1.25435,0.86837 -1.85086,1.31758c-0.58814,0.44298 -1.15405,0.89306 -1.72554,1.31746c-1.10727,0.82237 -1.67229,1.1853 -2.23201,1.53552c-0.55448,0.34685 -1.1174,0.67986 -1.6712,1.0302c-0.5604,0.35446 -1.12889,0.72163 -1.6712,1.14528c-1.1465,0.89568 -1.68059,1.45685 -2.22827,2.0427c-0.56693,0.60643 -1.11747,1.25387 -1.6712,1.91878c-0.56047,0.67301 -1.10904,1.35948 -1.6712,2.03385c-1.10414,1.32457 -1.66535,1.94733 -2.22453,2.54316c-0.54306,0.57862 -1.08483,1.12633 -1.61687,1.64686c-0.51171,0.5007 -1.01125,0.97198 -1.49154,1.4172c-0.88443,0.81987 -1.29094,1.18904 -1.67494,1.53539c-0.36435,0.32865 -0.71694,0.64022 -1.06959,0.93071c-0.34565,0.28476 -0.69708,0.5603 -1.06953,0.81576c-0.77392,0.531 -1.21709,0.7715 -1.6712,1.02821c-0.46873,0.26506 -0.95386,0.53 -1.43728,0.81576c-0.48975,0.2895 -0.98119,0.58735 -1.43721,0.93071c-0.91285,0.68722 -1.30032,1.10476 -1.66746,1.53203c-0.36945,0.43001 -0.70259,0.89082 -1.01526,1.36733c-0.31512,0.48025 -0.60671,0.97772 -0.88993,1.48228c-0.56917,1.01412 -0.83819,1.52866 -1.11788,2.03585c-0.27745,0.50307 -0.55414,0.99891 -0.8356,1.48228c-0.27568,0.47327 -0.54911,0.93296 -0.8356,1.36733c-0.54218,0.82212 -0.83152,1.18755 -1.11414,1.53539c-0.27466,0.33812 -0.55707,0.66054 -0.8356,0.98058c-0.27853,0.31992 -0.56353,0.64071 -0.8356,0.98046c-0.57074,0.71278 -0.83921,1.11461 -1.11414,1.53203c-0.28227,0.42864 -0.55707,0.87149 -0.8356,1.31758c-0.27853,0.44597 -0.55074,0.89032 -0.8356,1.31746c-0.54503,0.81713 -0.83009,1.18468 -1.11414,1.52866c-0.2733,0.33102 -0.55353,0.63947 -0.8356,0.93071c-0.27513,0.28414 -0.5553,0.55394 -0.8356,0.81576c-0.5536,0.51728 -0.8356,0.76951 -1.11414,1.02484c-0.27853,0.25534 -0.55707,0.51068 -0.8356,0.76601c-0.27853,0.25534 -0.55707,0.51068 -0.8356,0.76601c-0.55707,0.51068 -0.8356,0.76601 -1.11414,1.02135c-0.27853,0.25534 -0.55707,0.51068 -0.8356,0.76601c-0.27853,0.25534 -0.55707,0.51068 -0.8356,0.76601c-0.55707,0.51068 -0.8356,0.76601 -1.11414,1.02135c-0.27853,0.25534 -0.55707,0.51068 -0.8356,0.76601c-0.27853,0.25534 -0.55707,0.51068 -0.8356,0.76601c-0.55707,0.51068 -0.83655,0.76477 -1.1104,1.02135c-0.27112,0.25409 -0.53504,0.50743 -0.78127,0.76601c-0.24025,0.25222 -0.46826,0.50295 -0.65594,0.76601c-0.35456,0.49696 -0.4635,0.76327 -0.56081,1.01786c-0.09371,0.24524 -0.1615,0.48736 -0.23399,0.71627c-0.06875,0.21706 -0.12743,0.42664 -0.23392,0.60132c-0.19659,0.32229 -0.3772,0.42764 -0.55707,0.51404c-0.18626,0.08952 -0.39366,0.14986 -0.60168,0.21457c-0.20795,0.06458 -0.41923,0.11844 -0.60161,0.21444c-0.34674,0.1824 -0.46275,0.3456 -0.55707,0.51068c-0.09751,0.17068 -0.16341,0.36081 -0.23399,0.55157c-0.07052,0.19063 -0.12934,0.38438 -0.23392,0.55145c-0.19897,0.31793 -0.3772,0.42515 -0.56081,0.51068c-0.19462,0.09064 -0.41909,0.15161 -0.65594,0.21457c-0.2497,0.06645 -0.51531,0.12443 -0.78127,0.21444c-0.5623,0.19026 -0.83737,0.34299 -1.10672,0.51404c-0.27602,0.1753 -0.53796,0.37827 -0.78127,0.60132c-0.24338,0.22305 -0.46955,0.46018 -0.65594,0.71627c-0.35776,0.4916 -0.46438,0.76015 -0.56081,1.01799c-0.09473,0.25309 -0.16341,0.51068 -0.23399,0.76601c-0.07052,0.25534 -0.13444,0.51442 -0.23392,0.76601c-0.20543,0.51953 -0.37544,0.77063 -0.56081,1.02135c-0.19238,0.2602 -0.41569,0.51379 -0.65594,0.76601c-0.24623,0.25858 -0.50981,0.5123 -0.78127,0.76601c-0.54979,0.51392 -0.83193,0.76601 -1.11046,1.02135c-0.27853,0.25534 -0.55707,0.51068 -0.8356,0.76601c-0.27853,0.25534 -0.55707,0.51068 -0.8356,0.76601c-0.55707,0.51068 -0.83417,0.76689 -1.11414,1.01786c-0.27717,0.24848 -0.55353,0.49048 -0.8356,0.71627c-0.27513,0.22018 -0.54857,0.42926 -0.8356,0.60132c-0.54211,0.32503 -0.83275,0.4249 -1.1104,0.51404c-0.26752,0.0859 -0.53164,0.14812 -0.78127,0.21457c-0.23685,0.06296 -0.4654,0.11682 -0.65594,0.21444c-0.35157,0.18028 -0.46921,0.34498 -0.55707,0.51404c-0.09241,0.17779 -0.14505,0.38363 -0.17966,0.60132c-0.03638,0.22841 -0.04903,0.46891 -0.05433,0.71627c-0.01095,0.50719 -0.00129,0.76215 -0.00741,1.01449c-0.00598,0.24736 -0.01802,0.48786 -0.05433,0.71627c-0.03461,0.21769 -0.07902,0.42727 -0.17966,0.60132c-0.18762,0.32453 -0.37346,0.42764 -0.55333,0.51404c-0.18626,0.08952 -0.39366,0.14986 -0.60168,0.21457c-0.20795,0.06458 -0.41923,0.11844 -0.60161,0.21444c-0.34674,0.1824 -0.46377,0.34573 -0.55707,0.51404c-0.09887,0.17841 -0.16524,0.38425 -0.23399,0.60132c-0.07249,0.22891 -0.1358,0.47252 -0.23392,0.71627c-0.20754,0.51554 -0.37299,0.76876 -0.56455,1.01449c-0.19836,0.25447 -0.43603,0.49646 -0.71021,0.71627c-0.28302,0.22691 -0.6014,0.43749 -0.961,0.60132c-0.75849,0.34548 -1.20941,0.42602 -1.66746,0.51753c-0.47696,0.09525 -0.97772,0.16869 -1.49154,0.26419c-0.52994,0.09849 -1.07728,0.20322 -1.61687,0.37927c-1.1312,0.36904 -1.67834,0.68261 -2.21712,1.02472c-0.5521,0.35059 -1.07585,0.75641 -1.5626,1.20263c-0.48669,0.44609 -0.93917,0.92024 -1.31188,1.43241c-0.71544,0.98308 -0.92863,1.52031 -1.12155,2.03597c-0.18945,0.50619 -0.32681,1.02135 -0.46799,1.53203c-0.1411,0.51068 -0.26895,1.02896 -0.46792,1.53203c-0.41086,1.03893 -0.74958,1.5415 -1.12155,2.03921c-0.3836,0.51329 -0.82833,1.00676 -1.31188,1.48228c-0.48954,0.48138 -1.01139,0.94106 -1.5626,1.36733c-1.08428,0.83858 -1.65842,1.18929 -2.20971,1.52866c-0.52687,0.32428 -1.03566,0.61341 -1.50827,0.88084c-0.4299,0.24324 -0.81908,0.44809 -1.13222,0.65119c-0.44752,0.29025 -0.57114,0.42004 -0.55707,0.51404c0.01217,0.08129 0.14246,0.13478 0.29662,0.1647c0.19142,0.03715 0.42052,0.04488 0.67267,0.04975c0.54578,0.01047 0.82493,0.00349 1.10672,0.00349c0.28737,0 0.58304,0 0.88993,0c0.32076,0 0.65825,0 1.01526,0c0.78358,0 1.21485,0 1.6712,0c0.47859,0 0.9767,0 1.49154,0c0.52871,0 1.06864,0 1.61687,0c1.1104,0 1.66794,0 2.22827,0c0.56591,0 1.14011,0 1.72554,0c0.5993,0 1.21532,0 1.85086,0c1.34065,0 2.05092,0 2.78901,0c0.76597,0 1.55982,0 2.38148,0c0.84954,0 1.7269,0 2.63213,0c1.89404,0 2.88333,0 3.90321,0c1.05327,0 2.14286,0 3.27134,0c1.1703,0 2.38522,0 3.64739,0c2.67769,0 4.09865,0 5.57816,0c1.54071,0 3.14554,0 4.81722,0c1.74131,0 3.55505,0 5.44392,0c4.0146,0 6.144,0 8.3486,0c2.27145,0 4.60138,0 6.98143,0c2.42187,0 4.87713,0 7.35748,0c5.00246,0 7.50878,0 10.01239,0c2.49796,0 4.98756,0 7.46608,0c2.46458,0 4.91242,0 7.34075,0c4.7871,0 7.14069,0 9.46641,0c2.2979,0 4.56799,0 6.81021,0c2.21433,0 4.40078,0 6.55942,0c4.23377,0 6.30836,0 8.35234,0c2.01053,0 3.98488,0 5.9202,0c1.89357,0 3.74259,0 5.54422,0c3.45012,0 5.09535,0 6.69596,0c1.56723,0 3.11215,0 4.64592,0c1.53384,0 3.07876,0 4.64599,0c3.24584,0 4.94302,0 6.68481,0c1.77518,0 3.57266,0 5.38122,0c1.80863,0 3.60611,0 5.38129,0c3.43897,0 5.08372,0 6.68107,0c1.55846,0 3.08618,0 4.59166,0c1.49154,0 2.97751,0 4.46626,0c3.01933,0 4.56378,0 6.12774,0c1.57512,0 3.15302,0 4.72535,0c1.55839,0 3.09447,0 4.59996,0c2.88564,0 4.25138,0 5.567,0c1.27101,0 2.50306,0 3.70172,0c1.17071,0 2.31926,0 3.451,0c2.23568,0 3.34982,0 4.46395,0c1.11414,0 2.22827,0 3.34241,0c1.11414,0 2.22827,0 3.34241,0c2.22827,0 3.34288,0 4.46028,0c1.12298,0 2.25425,0 3.39674,0c1.15636,0 2.32946,0 3.52207,0c2.45478,0 3.72301,0 5.02469,0c1.34072,0 2.72597,0 4.16135,0c1.49107,0 3.0434,0 4.66265,0c3.4612,0 5.31207,0 7.23814,0c1.99292,0 4.04432,0 6.14583,0c2.14334,0 4.32006,0 6.52188,0c4.44539,0 6.67413,-0.00212 8.90567,0.00337c2.23711,0.00561 4.48259,0.01745 6.73914,0.04975c2.27064,0.03242 4.55834,0.07755 6.86447,0.1647c4.68455,0.17692 7.06419,0.34024 9.46641,0.50731c2.42003,0.16831 4.85013,0.36081 7.28649,0.55157c2.43622,0.19063 4.86591,0.38799 7.28635,0.55145c4.78159,0.32291 7.13661,0.42465 9.4628,0.50731c2.2975,0.08154 4.56779,0.13216 6.81007,0.1647c2.21426,0.03217 4.40092,0.04476 6.55955,0.04975c4.23363,0.00972 6.30781,0.00349 8.34853,0.00349c2.00169,0 3.95891,0 5.86594,0c1.85127,0 3.64134,0 5.3645,0c3.22367,0 4.71467,0 6.12774,0c1.34072,0 2.61452,0 3.82712,0c1.15684,0 2.2635,0 3.32568,0c2.01284,0 2.97384,0 3.90695,0c0.90523,0 1.78259,0 2.63206,0c0.82173,0 1.61558,0 2.38155,0c1.44829,0 2.13116,0.00224 2.78901,-0.00349c0.63554,-0.00549 1.25191,-0.01696 1.85086,-0.04975c0.5859,-0.03204 1.16228,-0.07668 1.72547,-0.1647c1.12447,-0.17579 1.67759,-0.34112 2.23575,-0.50731c0.56808,-0.16919 1.13943,-0.36268 1.72547,-0.55145c0.59855,-0.19275 1.21043,-0.39186 1.85086,-0.55157c1.3316,-0.33214 2.04888,-0.42378 2.78167,-0.51068c0.7472,-0.08865 1.50773,-0.14974 2.27288,-0.21444c0.76502,-0.06458 1.5265,-0.12006 2.27274,-0.21457c1.44544,-0.18315 2.12681,-0.34074 2.78167,-0.51068c0.63853,-0.1657 1.25231,-0.3587 1.85086,-0.55145c0.58617,-0.18876 1.15575,-0.38712 1.72547,-0.55157c1.11087,-0.32079 1.67351,-0.42527 2.23575,-0.50731c0.56428,-0.08229 1.13957,-0.13266 1.72547,-0.1647c0.59896,-0.03279 1.21532,-0.04488 1.85086,-0.04975c1.34072,-0.01022 2.05051,-0.00137 2.78534,-0.00686c0.75713,-0.00561 1.53411,-0.0177 2.32714,-0.04975c0.80758,-0.03254 1.62755,-0.07742 2.45254,-0.1647c1.67175,-0.17679 2.50476,-0.33999 3.33873,-0.50731c0.83737,-0.16806 1.6712,-0.36081 2.5068,-0.55145c0.8356,-0.19076 1.66821,-0.38849 2.5068,-0.55157c1.66576,-0.32391 2.50504,-0.42477 3.3386,-0.50731c0.82567,-0.08179 1.64495,-0.13216 2.45254,-0.1647c0.79303,-0.03204 1.57002,-0.04476 2.32714,-0.04975c1.44462,-0.00948 2.12708,-0.00112 2.78167,-0.00686c0.6267,-0.00549 1.22593,-0.01646 1.79646,-0.04975c0.54374,-0.03179 1.06245,-0.07294 1.54594,-0.1647c0.90047,-0.17106 1.301,-0.33688 1.67487,-0.50731c0.36258,-0.16532 0.69661,-0.3577 1.01526,-0.55145c0.309,-0.18776 0.59692,-0.38425 0.88987,-0.55157c0.55095,-0.31481 0.83587,-0.42428 1.11794,-0.50731c0.27554,-0.08116 0.55612,-0.13228 0.8356,-0.1647c0.27772,-0.03229 0.55693,-0.04488 0.8356,-0.04975c0.55693,-0.00972 0.83601,-0.00337 1.11781,-0.00337c0.28737,0 0.58304,0 0.88987,0c0.32083,0 0.65825,0 1.01526,0c0.78365,0 1.21532,0.00187 1.67501,-0.00349c0.48743,-0.00561 1.00302,-0.01833 1.54581,-0.04975c0.57135,-0.03304 1.1718,-0.08029 1.7966,-0.1647c1.34153,-0.18116 2.0482,-0.34299 2.78534,-0.50731c0.76719,-0.17093 1.55886,-0.36368 2.38141,-0.55145c0.84866,-0.19375 1.72356,-0.39173 2.6322,-0.55157c1.88758,-0.33189 2.88027,-0.42552 3.88832,-0.50731c1.01703,-0.08254 2.03855,-0.13216 3.05408,-0.1647c1.00098,-0.03204 1.98034,-0.04476 2.92882,-0.04975c1.77144,-0.00923 2.58011,-0.001 3.3386,-0.00686c0.71401,-0.00549 1.3894,-0.01658 2.03052,-0.04975c0.61432,-0.03179 1.20784,-0.07605 1.77987,-0.1647c1.12828,-0.17492 1.68127,-0.34112 2.23942,-0.50731c0.56808,-0.16919 1.13943,-0.36268 1.72547,-0.55145c0.59855,-0.19275 1.21043,-0.39186 1.85086,-0.55157c1.3316,-0.33214 2.04861,-0.42577 2.78167,-0.50731c0.74693,-0.08303 1.50732,-0.13228 2.27288,-0.1647c0.76474,-0.03229 1.52446,-0.04476 2.27274,-0.04975c1.44095,-0.00948 2.12382,-0.00337 2.78167,-0.00337c0.63554,0 1.2515,0 1.85086,0c0.58536,0 1.15956,0 1.72547,0c1.11794,0 1.67501,0.00199 2.23208,-0.00349c0.55707,-0.00561 1.11454,-0.01745 1.6712,-0.04975c0.55761,-0.03242 1.11672,-0.0773 1.6712,-0.1647c1.12053,-0.17667 1.67338,-0.33962 2.22446,-0.50731c0.55108,-0.16769 1.08911,-0.35857 1.61694,-0.55145c0.51572,-0.18851 1.01036,-0.38226 1.49154,-0.55157c0.88307,-0.31069 1.28985,-0.42253 1.6712,-0.50731c0.35524,-0.07905 0.69361,-0.13166 1.01526,-0.1647c0.30614,-0.03142 0.60236,-0.04488 0.88987,-0.04975c0.56074,-0.0096 0.83941,-0.00337 1.11794,-0.00337c0.27853,0 0.55707,0 0.8356,0c0.27853,0 0.55707,0 0.8356,0c0.55707,0 0.83601,0 1.11781,0c0.28737,0 0.58304,0 0.88987,0c0.32083,0 0.65825,0 1.01526,0c0.78365,0 1.21451,0 1.66753,0c0.46975,0 0.95066,0 1.43728,0c0.48648,0 0.96739,0 1.43714,0c0.88388,0 1.28822,0 1.66753,0c0.35701,0 0.69443,0 1.01526,0c0.30682,0 0.60249,0 0.88987,0c0.56088,0 0.83941,0 1.11794,0c0.27853,0 0.55707,0 0.8356,0c0.27853,0 0.55707,0 0.8356,0c0.55707,0 0.8356,0 1.11414,0c0.27853,0 0.55707,0 0.8356,0c0.27853,0 0.55707,0 0.8356,0c0.55707,0 0.8356,0 1.11414,0c0.27853,0 0.55707,0 0.8356,0l0.27853,0l0.27853,0l0.27853,0" id="svg_10" stroke-linecap="null" stroke-linejoin="null" stroke-dasharray="null" stroke-width="65" fill="none"/>
 </g>
</svg>
