<svg width="2048" height="2048" xmlns="http://www.w3.org/2000/svg" xmlns:svg="http://www.w3.org/2000/svg">
 <g class="layer">
  <title>Layer 1</title>
  <g id="svg_1" fill="#fff" fill-rule="nonzero">
   <path id="svg_2" d="m1060,1261q172,3 282,17t198,33q55,-54 122,-103t94,-84q48,-65 48,-162q0,-89 -43,-149q-77,-113 -235,-113q-92,0 -192,40q-91,36 -132,78q-85,82 -124,216q-15,46 -16,117t-2,110z"/>
   <path id="svg_3" d="m988,1260q0,-40 -2,-110t-15,-118q-41,-134 -124,-216q-43,-42 -132,-78q-102,-40 -193,-40q-158,0 -234,113q-43,60 -43,150q0,98 48,161q25,36 96,89t120,98q87,-19 196,-33t283,-16z"/>
   <path id="svg_4" d="m1024,1009q7,-28 12,-39q10,-39 23,-66q6,-17 17,-39t25,-52q8,-17 17,-41t18,-49q8,-20 8,-43q0,-49 -35,-83t-85,-35q-119,0 -119,119q0,23 8,43q22,65 34,90q13,29 24,51t19,40q13,33 22,66q2,6 12,38z"/>
  </g>
  <g id="svg_5" fill-rule="nonzero">
   <path id="svg_6" fill="#000" transform="translate(0,2048) scale(1,-1)" d="m1133,865q0,29 6,82t21,84q37,81 106,150q20,20 86,54q65,32 139,32q56,0 111,-19t84,-60q25,-34 25,-110q0,-60 -49,-112q-32,-33 -69,-66t-71,-79q-58,20 -161,31t-228,13zm-73,-78q172,-3 282,-17t198,-33q55,54 122,103t94,84q48,65 48,162q0,89 -43,149q-77,113 -235,113q-92,0 -192,-40q-91,-36 -132,-78q-85,-82 -124,-216q-15,-46 -16,-117t-2,-110zm458,-173q-184,51 -490,51q-308,0 -496,-52l15,-101q189,49 481,49q291,0 474,-48l16,101zm26,-299l-30,118q-195,45 -490,45q-292,0 -488,-45l-32,-119q190,58 521,58q159,0 295,-16t224,-41zm-1081,207l-33,187q-1,0 -3,4q-5,7 -28,18t-55,40q-44,37 -68,60t-45,50q-61,84 -68,203q-10,115 93,229q104,114 281,107q66,-4 155,-32q29,-12 59,-23t61,-24q16,-8 28,-16q-5,21 -5,42q0,78 55,133t134,56q78,0 133,-55t55,-133q0,-16 -4,-42q14,9 27,15q46,20 121,47q86,29 155,33q177,8 280,-107q101,-114 94,-229q-8,-119 -69,-203q-20,-27 -45,-50t-67,-60q-33,-28 -56,-39t-27,-19q-1,-2 -2,-3t-1,-2l-32,-188l66,-247q-50,-45 -224,-74t-402,-29q-232,0 -408,30t-221,77l66,244zm525,266q0,40 -2,110t-15,118q-41,134 -124,216q-43,42 -132,78q-102,40 -193,40q-158,0 -234,-113q-43,-60 -43,-150q0,-98 48,-161q25,-36 96,-89t120,-98q87,19 196,33t283,16zm36,251q7,28 12,39q10,39 23,66q6,17 17,39t25,52q8,17 17,41t18,49q8,20 8,43q0,49 -35,83t-85,35q-119,0 -119,-119q0,-23 8,-43q22,-65 34,-90q13,-29 24,-51t19,-40q13,-33 22,-66q2,-6 12,-38zm35,520l-71,0l0,131l-83,0q-34,0 -34,33l0,1q0,33 34,33l83,0l0,85q0,35 36,35q35,0 35,-35l0,-85l86,0q33,0 33,-33l0,-1q0,-33 -33,-33l-85,-1l-1,-130zm-147,-694q-125,-2 -228,-13t-161,-31q-30,37 -69,74t-70,71q-50,51 -50,112q0,75 25,110q27,40 83,59t113,20q72,0 138,-32q65,-34 86,-54q68,-69 106,-150q13,-30 19,-83t8,-83zm112,345q-2,10 -5,17q-6,20 -10,29q-3,7 -8,17t-10,23q-3,7 -7,18t-8,22q-3,9 -3,19q0,53 51,53q53,0 53,-52q0,-13 -4,-19q-14,-38 -15,-41q-15,-30 -19,-39q-7,-16 -9,-29q-3,-6 -4,-10t-2,-8z"/>
   <path id="svg_7" fill="#fff" d="m1518,1434q-184,-51 -490,-51q-308,0 -496,52l15,101q189,-49 481,-49q291,0 474,48l16,-101z"/>
   <path id="svg_8" fill="#fff" d="m1544,1733l-30,-118q-195,-45 -490,-45q-292,0 -488,45l-32,119q190,-58 521,-58q159,0 295,16t224,41z"/>
  </g>
  <path d="m714.49994,969.49994c5.50085,-2.75079 6.01178,-2.99701 7.05334,-3.55334c0.55359,-0.29572 1.12964,-0.62164 1.73248,-0.98248c0.6441,-0.3855 2.04974,-1.29419 2.82336,-1.82208c0.83325,-0.56854 1.71985,-1.19177 2.67749,-1.84875c1.02386,-0.70239 2.1217,-1.44427 3.3075,-2.20874c1.26068,-0.81274 4.06659,-2.51166 5.62085,-3.38831c1.63214,-0.92059 3.35333,-1.84552 5.14502,-2.78625c1.84491,-0.96869 3.74512,-1.93976 5.685,-2.92126c1.9668,-0.99512 5.95349,-2.99176 7.95581,-3.98792c2.00439,-0.99719 4.01599,-1.99036 6.05249,-2.94751c2.04523,-0.96124 4.11786,-1.89435 6.23248,-2.76752c2.1322,-0.88043 6.53986,-2.47705 8.82336,-3.17957c2.32324,-0.71472 4.71948,-1.36261 7.17749,-2.00623c2.52356,-0.66077 5.12848,-1.30963 7.8075,-2.00629c2.76776,-0.71973 8.57666,-2.32996 11.62335,-3.25415c3.16022,-0.95862 6.41986,-2.0014 9.80249,-3.05627c3.49908,-1.09119 7.11993,-2.20654 10.88251,-3.28125c3.88403,-1.10944 12.08868,-3.20862 16.42249,-4.14331c4.46631,-0.96326 9.09332,-1.82959 13.875,-2.59875c4.91846,-0.7912 9.9953,-1.4776 15.22498,-2.05872c5.37048,-0.59674 16.573,-1.48804 22.39752,-1.79004c5.95569,-0.30884 12.03448,-0.5058 18.21753,-0.64124c6.27197,-0.13739 12.61993,-0.20135 19.02747,-0.23627c6.45245,-0.03516 19.4325,-0.03375 25.93127,-0.03375c6.49121,0 12.96747,0 19.42126,0c6.42371,0 12.81,0 19.15125,0c6.2887,0 18.67871,-0.00378 24.76788,0.00128c6.02417,0.005 11.99341,0.01727 17.91748,0.07874c5.88928,0.0611 11.75415,0.1637 17.60254,0.34875c5.84497,0.18494 17.55981,0.78851 23.43921,1.23206c5.87415,0.44318 11.70068,0.98322 17.44495,1.58252c5.63416,0.58783 11.11536,1.23022 16.41003,1.89752c5.07861,0.64008 14.43225,1.92719 18.64624,2.55664c3.91589,0.58496 7.55286,1.16388 10.92371,1.79248c3.14648,0.58673 6.08093,1.21057 8.80872,1.92755c2.58228,0.67877 7.32068,2.28693 9.5022,3.24329c2.12549,0.93182 4.13916,1.97571 6.05249,3.08252c1.86853,1.08087 3.63831,2.22955 5.3324,3.39752c1.65247,1.13922 4.74976,3.43958 6.22339,4.55499c1.43298,1.08459 2.82117,2.15063 4.17749,3.1875c1.32532,1.01318 2.62341,2.00446 3.90747,2.96246c1.26257,0.94189 3.76807,2.74408 5.02295,3.60126c1.24854,0.85278 2.5105,1.68304 3.77625,2.5163c1.27502,0.83929 2.56689,1.68463 3.86621,2.56122c1.3241,0.89331 4.03003,2.80048 5.41125,3.83295c1.41895,1.06067 2.85254,2.17511 4.3125,3.32245c1.49011,1.17102 2.9989,2.37482 4.5376,3.59253c1.56128,1.2356 4.76038,3.7301 6.40039,4.97955c1.66333,1.26727 3.36633,2.54712 5.08875,3.88129c1.76855,1.36987 3.57581,2.80164 5.40369,4.33124c1.896,1.58661 5.80188,5.10254 7.81091,7.05377c2.08838,2.02826 4.19495,4.17932 6.34875,6.40497c2.20557,2.27924 4.43323,4.62329 6.70874,6.98999c2.30115,2.39331 6.99255,7.17883 9.38708,9.53333c2.39209,2.35217 4.80908,4.66919 7.20752,6.99005c2.38818,2.31085 4.7605,4.61285 7.07239,6.94495c2.29468,2.31476 6.69409,7.01208 8.75549,9.42212c2.04187,2.38708 3.98523,4.82056 5.83875,7.28625c1.83716,2.44397 3.58508,4.922 5.25378,7.42126c1.65442,2.47778 4.75366,7.47852 6.21204,9.98914c1.44812,2.49292 2.83545,5.00354 4.17749,7.52625c1.3396,2.51807 2.63611,5.05859 3.90747,7.61621c1.27539,2.5658 3.77881,7.77087 5.02209,10.41174c1.25342,2.66248 2.49976,5.35608 3.72375,8.08875c1.23535,2.75818 2.45154,5.55713 3.63379,8.40369c1.1947,2.87671 3.49414,8.77966 4.58752,11.80676c1.0968,3.03638 2.13367,6.07544 3.10864,9.08618c0.95215,2.94031 1.82739,5.79834 2.61377,8.54626c0.7428,2.59583 1.93982,7.25867 2.36792,9.27954c0.38281,1.80652 0.66455,3.43372 0.85498,4.89758c0.1709,1.31348 0.26709,2.50586 0.31506,3.59241c0.04419,1.00037 0.04626,2.82751 0.04456,3.69043c-0.00171,0.84045 -0.00562,1.66101 -0.02625,2.46375c-0.02026,0.78809 -0.05432,1.56409 -0.11621,2.32874c-0.0614,0.75867 -0.26184,2.26367 -0.41125,3.01135c-0.15039,0.75256 -0.3385,1.5033 -0.5625,2.25c-0.22607,0.75354 -0.48926,1.50427 -0.78748,2.25c-0.30164,0.75439 -1.00208,2.25549 -1.40088,3.00073c-0.40771,0.76172 -0.8606,1.52881 -1.36499,2.30261c-0.52686,0.80835 -1.11658,1.63428 -1.77002,2.48242c-0.69275,0.89917 -2.302,2.80457 -3.22253,3.82251c-0.979,1.08264 -2.04346,2.2063 -3.1875,3.375c-1.20557,1.23169 -2.49451,2.50562 -3.86243,3.82495c-1.43176,1.38098 -4.53418,4.27869 -6.19958,5.80042c-1.7312,1.58179 -3.53943,3.21057 -5.41125,4.90137c-1.93738,1.75 -3.94031,3.55933 -5.99622,5.44116c-2.12097,1.94141 -6.51746,6.04492 -8.78967,8.21008c-2.33459,2.22461 -4.71643,4.52295 -7.17749,6.85864c-2.52039,2.39197 -5.11316,4.82483 -7.8075,7.26379c-2.7522,2.49146 -8.5531,7.49011 -11.62122,9.96545c-3.1217,2.51855 -6.35046,5.00134 -9.67126,7.44751c-3.35669,2.47253 -6.79431,4.89624 -10.30127,7.26746c-3.52319,2.3822 -10.71375,6.97729 -14.36621,9.17712c-3.64758,2.1969 -7.33435,4.3175 -11.0625,6.34875c-3.72217,2.02795 -7.48425,3.96887 -11.28748,5.80872c-3.797,1.83691 -11.50012,5.23206 -15.39758,6.79004c-3.88269,1.552 -7.77966,2.99683 -11.65491,4.39124c-3.82996,1.37805 -7.62085,2.6875 -11.34009,3.98621c-3.64087,1.27136 -10.62488,3.771 -13.9375,5.03247c-3.22717,1.22888 -6.37524,2.47974 -9.50244,3.67126c-3.11292,1.18604 -6.24805,2.34583 -9.45752,3.40125c-3.27063,1.07544 -10.21204,2.97644 -13.92834,3.76672c-3.83069,0.81458 -7.77161,1.49365 -11.76746,2.08875c-4.0011,0.59583 -7.98413,1.08667 -11.90259,1.50378c-3.80847,0.4054 -10.95618,1.00549 -14.22498,1.21118c-3.07141,0.19324 -5.97937,0.32446 -8.75244,0.375c-2.66711,0.04858 -5.26086,0.02539 -7.8075,-0.07495c-2.53369,-0.09973 -7.67468,-0.50439 -10.34082,-0.8009c-2.78076,-0.30933 -5.70435,-0.7041 -8.80505,-1.17749c-3.32129,-0.50696 -6.88892,-1.11389 -10.73999,-1.8075c-4.1759,-0.75208 -13.62158,-2.5647 -18.94623,-3.62036c-5.68542,-1.1272 -11.6593,-2.3374 -17.85376,-3.61877c-6.35303,-1.31421 -12.79242,-2.67236 -19.24878,-4.06873c-6.41364,-1.38708 -18.82465,-4.16663 -24.69501,-5.54297c-5.61951,-1.31763 -10.97046,-2.61621 -16.0462,-3.88501c-4.80164,-1.20032 -9.31256,-2.36353 -13.52625,-3.47998c-3.91614,-1.0376 -10.80621,-2.9314 -13.77087,-3.77869c-2.67175,-0.76367 -5.07233,-1.47217 -7.22626,-2.14136c-1.94501,-0.60425 -3.7005,-1.17883 -5.2912,-1.73621c-1.4657,-0.51355 -4.10175,-1.52649 -5.32336,-2.03296c-1.17499,-0.48718 -2.29047,-0.97534 -3.34875,-1.44739c-1.00079,-0.44641 -1.93573,-0.87549 -2.80872,-1.26758c-0.80377,-0.36108 -2.19818,-0.96082 -2.79004,-1.17871c-0.51862,-0.19104 -0.98151,-0.33594 -1.39124,-0.45374c-0.36292,-0.10437 -0.69128,-0.18567 -0.98627,-0.2738c-0.27496,-0.08215 -0.78864,-0.28772 -1.0329,-0.43286c-0.24939,-0.14819 -0.48395,-0.32178 -0.69751,-0.51001c-0.20477,-0.18054 -0.38306,-0.36609 -0.51752,-0.55505c-0.11792,-0.16565 -0.22589,-0.47266 -0.17828,-0.57825c0.04779,-0.10596 0.17523,-0.17859 0.32245,-0.24011c0.17102,-0.07141 0.37408,-0.12439 0.59253,-0.19495c0.23499,-0.07593 0.73102,-0.27869 0.97833,-0.42163c0.25977,-0.15015 0.51996,-0.33105 0.80249,-0.51001c0.29907,-0.18945 0.62152,-0.38379 0.98248,-0.55505c0.38568,-0.18298 1.29504,-0.47717 1.82172,-0.57874c0.56677,-0.10938 1.17834,-0.18201 1.82245,-0.26624c0.67426,-0.08826 1.37543,-0.17822 2.09253,-0.31128c0.73651,-0.1366 2.23297,-0.54407 2.97998,-0.83203c0.7735,-0.29822 1.56232,-0.66296 2.40753,-1.02002c0.89966,-0.38 1.87244,-0.76978 2.94751,-1.10999c1.16479,-0.36853 3.88849,-0.95984 5.46704,-1.15588c1.71838,-0.21338 3.58832,-0.33911 5.59875,-0.42749c2.14886,-0.09448 4.43665,-0.13452 6.85876,-0.15747c2.5545,-0.02417 8.05127,-0.0249 10.98584,-0.02173c3.04205,0.0033 6.17426,0.01221 9.37872,0.05261c3.2597,0.04114 6.55731,0.10913 9.87378,0.23242c3.32025,0.12341 9.89868,0.52026 13.12122,0.82251c3.17767,0.2981 6.30408,0.67175 9.375,1.125c3.02924,0.44714 6.00586,0.97083 8.92505,1.57495c2.8811,0.59631 8.48279,1.99805 11.20081,2.79919c2.68884,0.7926 5.32794,1.66016 7.92749,2.57251c2.58221,0.90625 5.13013,1.86438 7.65753,2.84253c2.51935,0.9751 7.52246,2.97754 10.02246,3.97754c2.5,1 5,2 7.50006,3c2.5,1 5,2 7.5,3c2.5,1 7.50049,2.9989 10,4.00037c2.50049,1.00183 5.00171,2.00659 7.5,3.02625c2.50171,1.02112 5.00317,2.05591 7.5,3.11621c2.50317,1.06299 7.50403,3.26501 10.00037,4.41089c2.50696,1.15076 5.01282,2.33496 7.52625,3.53625c2.52734,1.20789 5.06311,2.43701 7.61621,3.67126c2.57019,1.24255 7.77148,3.74353 10.41052,4.98828c2.6543,1.25195 5.32593,2.49426 8.00989,3.72375c2.68445,1.22974 5.37097,2.44214 8.05505,3.63379c2.66919,1.18506 7.96338,3.47998 10.57837,4.58997c2.59167,1.1001 5.17285,2.17944 7.73999,3.26624c2.56458,1.08569 5.13086,2.18042 7.69495,3.31128c2.58264,1.13904 7.79089,3.54651 10.42175,4.83203c2.66272,1.30103 5.32971,2.65381 8.00989,4.02002c2.68823,1.37048 5.37036,2.75269 8.05505,4.10999c2.6687,1.34924 7.95862,3.94373 10.57837,5.15625c2.58704,1.19739 5.16833,2.33997 7.73999,3.45374c2.56018,1.10876 5.12634,2.1908 7.69495,3.2738c2.57813,1.08704 7.78687,3.29187 10.42212,4.43286c2.6615,1.15234 5.33887,2.32898 8.03625,3.51001c2.71179,1.18738 5.4342,2.37903 8.17126,3.55505c2.73962,1.17725 8.23633,3.47107 10.98828,4.57922c2.74463,1.10522 5.49243,2.18506 8.22375,3.29248c2.72791,1.10596 5.44629,2.2312 8.13379,3.42749c2.68945,1.19714 7.99329,3.80139 10.58667,5.24243c2.59021,1.43921 5.11023,2.96228 7.55627,4.53003c2.39966,1.53796 4.69531,3.10291 6.88123,4.66504c2.09717,1.49878 5.88074,4.38025 7.54626,5.7345c1.55371,1.26343 2.97974,2.48816 4.28247,3.69385c1.24182,1.14929 2.39526,2.30237 3.47253,3.46875c1.06274,1.15063 3.07629,3.57434 4.06787,4.85449c1.01196,1.3064 2.01013,2.65735 3.02625,4.02002c1.02466,1.37402 2.05298,2.75476 3.11621,4.10999c1.06018,1.35144 3.25842,3.94446 4.41003,5.15625c1.13879,1.19824 2.31372,2.33655 3.48376,3.45374c1.15747,1.10522 2.31726,2.1825 3.43872,3.2738c1.10864,1.07886 3.20923,3.28113 4.16748,4.43335c0.9519,1.14478 1.84265,2.33179 2.70374,3.53625c0.86145,1.20483 1.69092,2.43604 2.5238,3.67126c0.83716,1.24146 2.54077,3.74268 3.43213,4.98828c0.89526,1.25098 1.8092,2.4873 2.70752,3.72375c0.88831,1.22278 1.75806,2.42883 2.57239,3.63379c0.79211,1.17212 2.18933,3.46497 2.75671,4.58911c0.54517,1.08008 1.0061,2.15576 1.41748,3.21375c0.40173,1.0332 0.75452,2.06299 1.10254,3.07874c0.34521,1.00757 1.04785,3.01514 1.44458,4.01135c0.39978,1.00391 0.83301,2.00281 1.28625,3c0.45581,1.00281 0.93359,2.00146 1.42126,3c0.48901,1.00146 1.49133,2.99878 1.98792,4.00037c0.4967,1.00171 0.98853,2.00623 1.44751,3.02625c0.45935,1.02087 0.89148,2.05676 1.26746,3.11621c0.37756,1.06409 0.97595,3.26941 1.17834,4.4104c0.20447,1.15283 0.33679,2.32715 0.42749,3.51001c0.09094,1.18567 0.13403,2.37329 0.15747,3.55505c0.02319,1.17151 0.02515,3.46497 0.02173,4.57959c-0.0033,1.10205 -0.01221,2.20435 -0.05249,3.31873c-0.04114,1.14001 -0.11279,2.31799 -0.23254,3.54382c-0.12622,1.29102 -0.53394,4.10864 -0.82202,5.65613c-0.30774,1.65283 -0.68115,3.40186 -1.09875,5.25c-0.44104,1.95203 -0.93311,4.00085 -1.45886,6.15002c-0.55066,2.25098 -1.74927,7.05054 -2.38867,9.59717c-0.6604,2.63 -1.34204,5.32617 -2.0625,8.06616c-0.72949,2.77417 -1.48535,5.56091 -2.28748,8.3363c-0.79797,2.76135 -2.48926,8.14185 -3.39966,10.71997c-0.88696,2.51184 -1.81348,4.9281 -2.78625,7.23376c-0.93738,2.2218 -1.90686,4.3252 -2.92126,6.2887c-0.96399,1.86609 -2.95667,5.16431 -3.98828,6.56921c-0.96753,1.31763 -1.97131,2.49231 -2.97375,3.55872c-0.95789,1.01892 -1.93384,1.94629 -2.88379,2.83875c-0.92688,0.87085 -2.73706,2.58093 -3.5896,3.47839c-0.85425,0.89929 -1.67676,1.83472 -2.48999,2.78625c-0.81836,0.95764 -1.62549,1.93762 -2.44495,2.92126c-0.82727,0.99304 -2.52881,2.99426 -3.42212,3.98877c-0.90332,1.00562 -1.83521,2.00366 -2.78625,3c-0.95813,1.00378 -1.93481,2.00183 -2.92126,3c-0.99023,1.00183 -2.98743,3.00122 -3.98914,3.99951c-1.00171,0.99829 -2.00598,1.99426 -3.02625,2.97375c-1.02051,0.97974 -2.05505,1.94592 -3.11621,2.88379c-1.06226,0.93884 -3.2644,2.73877 -4.41089,3.58911c-1.15027,0.85315 -2.33337,1.66943 -3.53625,2.46375c-1.20642,0.79663 -2.43396,1.56775 -3.67126,2.32874c-1.23938,0.76233 -3.73816,2.26221 -4.98865,3.01086c-1.24951,0.74792 -2.4978,1.49292 -3.75,2.22375c-1.2478,0.72839 -2.49622,1.44336 -3.75,2.13379c-1.24634,0.68628 -3.74512,1.98633 -5.00171,2.5896c-1.25684,0.60339 -2.53943,1.18079 -3.85498,1.73999c-1.34766,0.57275 -2.75061,1.13379 -4.21497,1.69495c-1.52893,0.58594 -4.84351,1.78943 -6.64502,2.42249c-1.89844,0.66711 -3.89868,1.35376 -6,2.0625c-2.19873,0.74158 -4.4989,1.50342 -6.90002,2.28748c-2.4989,0.81604 -7.79858,2.51733 -10.60083,3.39966c-2.9043,0.91443 -5.91882,1.84863 -9.05249,2.78625c-3.24792,0.9718 -6.62292,1.95032 -10.13257,2.92126c-3.63684,1.00623 -11.34326,3.00586 -15.41577,3.98706c-4.17419,1.00574 -8.42273,1.97473 -12.70508,2.89502c-4.26453,0.91638 -8.4823,1.76904 -12.61499,2.53491c-3.99426,0.74011 -11.4408,1.93677 -14.82458,2.35669c-3.15344,0.39136 -6.11731,0.66919 -8.9137,0.85498c-2.65308,0.17627 -5.19629,0.26807 -7.65381,0.31506c-2.39929,0.0459 -7.13623,0.04504 -9.52332,0.04504c-2.40955,0 -4.83911,0 -7.28625,0c-2.46204,0 -4.93665,0 -7.42126,0c-2.49207,0 -7.48865,0 -9.98865,0c-2.5,0 -5,0 -7.5,0c-2.5,0 -5,0 -7.5,0c-2.5,0 -7.5,0 -10,0c-2.5,0 -5,0 -7.5,0c-2.5,0 -5,0 -7.5,0c-2.5,0 -7.5,0 -9.99963,0c-2.49707,0 -4.98914,0 -7.47375,0c-2.47461,0 -4.93665,0 -7.38373,0c-2.42957,0 -7.22626,0 -9.5896,0c-2.34332,0 -4.67169,0 -6.98999,0c-2.31335,0 -4.62665,0 -6.94501,0c-2.32831,0 -7.03497,0 -9.42169,0c-2.40662,0 -4.82831,0 -7.25995,0c-2.43671,0 -4.87335,0 -7.30505,0c-2.42163,0 -7.21497,0.00256 -9.57788,-0.00085c-2.34039,-0.0033 -4.66101,-0.01147 -6.96375,-0.05249c-2.28809,-0.04077 -4.56427,-0.10901 -6.82874,-0.23254c-2.25897,-0.12317 -6.7644,-0.52295 -9.01129,-0.82251c-2.25342,-0.30042 -4.50464,-0.67603 -6.75,-1.125c-2.25494,-0.45093 -4.5061,-0.97668 -6.75,-1.57495c-2.25635,-0.60156 -6.75562,-2.00879 -9.00165,-2.79834c-2.26746,-0.797 -4.54254,-1.65881 -6.85498,-2.52002c-2.35089,-0.87549 -4.74664,-1.76611 -7.21503,-2.60999c-2.52496,-0.86328 -7.83704,-2.4613 -10.64166,-3.1554c-2.8689,-0.70996 -5.80927,-1.33191 -8.78998,-1.90125c-2.99274,-0.57153 -5.99133,-1.07629 -8.97003,-1.54126c-2.93469,-0.45813 -8.60944,-1.25281 -11.31165,-1.61218c-2.61115,-0.34717 -5.14355,-0.67029 -7.60498,-0.98999c-2.40186,-0.31189 -4.75433,-0.61951 -7.065,-0.94495c-2.28265,-0.32141 -6.79706,-1.02344 -9.04376,-1.42212c-2.24335,-0.39807 -4.4696,-0.82898 -6.67126,-1.28625c-2.1759,-0.45203 -4.31226,-0.92712 -6.40125,-1.42126c-2.04095,-0.48279 -5.9306,-1.48193 -7.76709,-1.98792c-1.77008,-0.48767 -3.47107,-0.98035 -5.11499,-1.44751c-1.58771,-0.45117 -3.1236,-0.88513 -4.62,-1.26746c-1.4505,-0.37061 -4.25696,-0.97168 -5.62292,-1.17871c-1.33765,-0.20264 -2.65997,-0.3418 -3.96375,-0.45374c-1.28717,-0.11047 -2.56348,-0.1886 -3.82874,-0.2738c-1.25806,-0.08472 -3.76233,-0.28699 -5.01294,-0.43286c-1.26282,-0.14734 -2.54327,-0.32861 -3.85498,-0.51001c-1.35162,-0.18689 -2.75232,-0.3822 -4.21503,-0.55505c-1.53064,-0.18091 -4.8443,-0.47595 -6.64288,-0.57874c-1.88483,-0.10767 -3.84595,-0.18103 -5.86877,-0.26624c-2.073,-0.08728 -4.18414,-0.17688 -6.31873,-0.31128c-2.1488,-0.13538 -6.43408,-0.5376 -8.54462,-0.83203c-2.09637,-0.29248 -4.17255,-0.65149 -6.23999,-1.02002c-2.06433,-0.36804 -4.12482,-0.7572 -6.19501,-1.10999c-2.07654,-0.35388 -6.28265,-0.953 -8.42084,-1.15588c-2.14874,-0.20386 -4.30597,-0.33643 -6.45752,-0.42749c-2.13525,-0.09045 -4.24652,-0.13403 -6.32245,-0.15747c-2.03082,-0.02295 -5.91754,-0.02246 -7.75543,-0.02246c-1.76544,0 -3.46082,0 -5.08875,0c-1.56293,0 -3.06335,0 -4.50378,0c-1.38287,0 -3.98621,0.00256 -5.21246,-0.00085c-1.18378,-0.0033 -2.33289,-0.01123 -3.45374,-0.05249c-1.10168,-0.04053 -2.19183,-0.10962 -3.2738,-0.23254c-1.08832,-0.12366 -3.30029,-0.53101 -4.4325,-0.8208c-1.1582,-0.29651 -2.31915,-0.65149 -3.4837,-1.02002c-1.1629,-0.36804 -2.30835,-0.75183 -3.43878,-1.10999c-1.09967,-0.34839 -3.18781,-0.94531 -4.16583,-1.15625c-0.91907,-0.19812 -1.78833,-0.33826 -2.59875,-0.45374c-0.74884,-0.10669 -1.43665,-0.19006 -2.05872,-0.2738l-0.55463,-0.08618" id="svg_14" stroke-linecap="null" stroke-linejoin="null" stroke-dasharray="null" stroke-width="65" stroke="#bf0000" fill="none"/>
 </g>
</svg>
