<?xml version="1.0" encoding="UTF-8" standalone="no"?>
<svg
   xmlns:dc="http://purl.org/dc/elements/1.1/"
   xmlns:cc="http://creativecommons.org/ns#"
   xmlns:rdf="http://www.w3.org/1999/02/22-rdf-syntax-ns#"
   xmlns:svg="http://www.w3.org/2000/svg"
   xmlns="http://www.w3.org/2000/svg"
   xmlns:sodipodi="http://sodipodi.sourceforge.net/DTD/sodipodi-0.dtd"
   xmlns:inkscape="http://www.inkscape.org/namespaces/inkscape"
   height="100%"
   width="100%"
   version="1.1"
   viewBox="0 0 2048 2048"
   id="svg18"
   sodipodi:docname="bk_3.svg"
   inkscape:version="0.92.4 5da689c313, 2019-01-14">
  <metadata
     id="metadata24">
    <rdf:RDF>
      <cc:Work
         rdf:about="">
        <dc:format>image/svg+xml</dc:format>
        <dc:type
           rdf:resource="http://purl.org/dc/dcmitype/StillImage" />
        <dc:title></dc:title>
      </cc:Work>
    </rdf:RDF>
  </metadata>
  <defs
     id="defs22" />
  <sodipodi:namedview
     pagecolor="#ffffff"
     bordercolor="#666666"
     borderopacity="1"
     objecttolerance="10"
     gridtolerance="10"
     guidetolerance="10"
     inkscape:pageopacity="0"
     inkscape:pageshadow="2"
     inkscape:window-width="960"
     inkscape:window-height="1060"
     id="namedview20"
     showgrid="false"
     inkscape:zoom="0.4609375"
     inkscape:cx="1041.3559"
     inkscape:cy="1024"
     inkscape:window-x="960"
     inkscape:window-y="20"
     inkscape:window-maximized="0"
     inkscape:current-layer="svg18" />
  <g
     fill-rule="nonzero"
     fill="#fff"
     id="g8">
    <path
       style="color:black;"
       d="m1060 1261q172 3 282 17t198 33q55-54 122-103t94-84q48-65 48-162 0-89-43-149-77-113-235-113-92 0-192 40-91 36-132 78-85 82-124 216-15 46-16 117t-2 110z"
       display="block"
       id="path2" />
    <path
       style="color:black;"
       d="m988 1260q0-40-2-110t-15-118q-41-134-124-216-43-42-132-78-102-40-193-40-158 0-234 113-43 60-43 150 0 98 48 161 25 36 96 89t120 98q87-19 196-33t283-16z"
       display="block"
       id="path4" />
    <path
       style="color:black;"
       d="m1024 1009q7-28 12-39 10-39 23-66 6-17 17-39t25-52q8-17 17-41t18-49q8-20 8-43 0-49-35-83t-85-35q-119 0-119 119 0 23 8 43 22 65 34 90 13 29 24 51t19 40q13 33 22 66 2 6 12 38z"
       display="block"
       id="path6" />
  </g>
  <g
     fill-rule="nonzero"
     id="g16">
    <path
       style="color:black;"
       d="m1133 865q0 29 6 82t21 84q37 81 106 150 20 20 86 54 65 32 139 32 56 0 111-19t84-60q25-34 25-110 0-60-49-112-32-33-69-66t-71-79q-58 20-161 31t-228 13zm-73-78q172-3 282-17t198-33q55 54 122 103t94 84q48 65 48 162 0 89-43 149-77 113-235 113-92 0-192-40-91-36-132-78-85-82-124-216-15-46-16-117t-2-110zm458-173q-184 51-490 51-308 0-496-52l15-101q189 49 481 49 291 0 474-48l16 101zm26-299l-30 118q-195 45-490 45-292 0-488-45l-32-119q190 58 521 58 159 0 295-16t224-41zm-1081 207l-33 187q-1 0-3 4-5 7-28 18t-55 40q-44 37-68 60t-45 50q-61 84-68 203-10 115 93 229 104 114 281 107 66-4 155-32 29-12 59-23t61-24q16-8 28-16-5 21-5 42 0 78 55 133t134 56q78 0 133-55t55-133q0-16-4-42 14 9 27 15 46 20 121 47 86 29 155 33 177 8 280-107 101-114 94-229-8-119-69-203-20-27-45-50t-67-60q-33-28-56-39t-27-19q-1-2-2-3t-1-2l-32-188 66-247q-50-45-224-74t-402-29q-232 0-408 30t-221 77l66 244zm525 266q0 40-2 110t-15 118q-41 134-124 216-43 42-132 78-102 40-193 40-158 0-234-113-43-60-43-150 0-98 48-161 25-36 96-89t120-98q87 19 196 33t283 16zm36 251q7 28 12 39 10 39 23 66 6 17 17 39t25 52q8 17 17 41t18 49q8 20 8 43 0 49-35 83t-85 35q-119 0-119-119 0-23 8-43 22-65 34-90 13-29 24-51t19-40q13-33 22-66 2-6 12-38zm35 520h-71v131h-83q-34 0-34 33v1q0 33 34 33h83v85q0 35 36 35 35 0 35-35v-85h86q33 0 33-33v-1q0-33-33-33l-85-1-1-130zm-147-694q-125-2-228-13t-161-31q-30 37-69 74t-70 71q-50 51-50 112 0 75 25 110 27 40 83 59t113 20q72 0 138-32 65-34 86-54 68-69 106-150 13-30 19-83t8-83zm112 345q-2 10-5 17-6 20-10 29-3 7-8 17t-10 23q-3 7-7 18t-8 22q-3 9-3 19 0 53 51 53 53 0 53-52 0-13-4-19-14-38-15-41-15-30-19-39-7-16-9-29-3-6-4-10t-2-8z"
       transform="translate(0,2048) scale(1,-1)"
       display="block"
       fill="#000"
       id="path10" />
    <path
       style="color:black;"
       d="m1518 1434q-184-51-490-51-308 0-496 52l15 101q189-49 481-49 291 0 474 48l16-101z"
       display="block"
       fill="#fff"
       id="path12" />
    <path
       style="color:black;"
       d="m1544 1733-30-118q-195-45-490-45-292 0-488 45l-32 119q190-58 521-58 159 0 295 16t224 41z"
       display="block"
       fill="#fff"
       id="path14" />
  </g>
  <path
     style="fill:#d40000;stroke-width:2.16949153"
     d="m 514.61021,1215.0237 c -4.57933,-5.6678 -37.69684,-40.0813 -73.59447,-76.4745 -35.89764,-36.3933 -69.2994,-71.539 -74.22613,-78.1017 -10.90686,-14.5286 -23.14597,-39.9574 -27.62955,-57.405 -4.21549,-16.40434 -4.36334,-58.70372 -0.29226,-83.61199 5.21291,-31.8943 14.17758,-52.3114 31.69898,-72.19463 53.4905,-60.70083 194.16473,-83.06333 291.33912,-46.31318 20.02762,7.57419 54.28512,25.07334 80.61845,41.18086 45.78348,28.00475 101.02795,94.63707 135.24923,163.12884 15.61706,31.2566 21.3228,56.7914 28.68786,128.3859 2.3601,22.9423 4.2911,43.0812 4.2911,44.7532 0,2.4386 -7.61765,3.3255 -38.50847,4.483 -156.75807,5.874 -262.60053,17.7738 -328.71075,36.9566 -10.45871,3.0348 -19.37161,5.5177 -19.80646,5.5177 -0.43484,0 -4.53733,-4.6373 -9.11665,-10.3051 z"
     id="path169"
     inkscape:connector-curvature="0" />
  <path
     style="fill:#d40000;stroke-width:2.16949153"
     d="m 504.78089,1304.18 c -6.13784,-7.3994 -56.56774,-49.0014 -99.51987,-82.0987 -86.65066,-66.7698 -110.36686,-90.9656 -132.13283,-134.8048 -20.1504,-40.5853 -27.29475,-78.6049 -25.59913,-136.22956 1.30315,-44.28693 5.18012,-65.41198 17.59189,-95.85566 15.51782,-38.06225 54.44143,-86.60305 87.23061,-108.78344 73.4396,-49.67855 173.28476,-60.27728 290.07471,-30.79191 54.88651,13.85692 123.7829,43.54178 166.36017,71.67832 60.02851,39.66893 114.85789,117.2285 150.3805,212.72255 19.91035,53.5242 27.27454,114.0917 27.46083,225.8544 l 0.057,34.1695 -36.33899,0.015 c -75.42094,0.029 -179.31433,6.7045 -254.37288,16.3431 -48.44997,6.2216 -135.43875,20.4742 -164.58246,26.9659 -23.80837,5.3032 -22.91025,5.2757 -26.60953,0.8161 z m 50.17504,-85.1044 c 62.25493,-16.7899 160.17441,-27.8764 291.79661,-33.0372 35.79661,-1.4036 65.42347,-2.8321 65.83745,-3.1744 1.20503,-0.9966 -8.32991,-91.3162 -11.77821,-111.5691 -4.65102,-27.3169 -10.7937,-45.8895 -23.63396,-71.4582 -21.19335,-42.20212 -58.8567,-94.28775 -92.65499,-128.13501 -25.34437,-25.38109 -87.60201,-61.3818 -131.16798,-75.84838 -73.92497,-24.54763 -167.32173,-18.45637 -237.24638,15.47301 -19.42387,9.42501 -25.41971,13.68974 -40.7008,28.94979 -29.28735,29.24699 -39.34111,57.16968 -41.2266,114.50019 -1.22498,37.24687 1.67753,53.7778 13.79232,78.5525 12.25771,25.067 27.24209,42.5895 91.99949,107.5829 34.00678,34.1306 66.22373,67.5736 71.59322,74.3178 7.15197,8.9829 10.92304,12.0364 14.1017,11.4184 2.38644,-0.4639 15.5661,-3.8714 29.28813,-7.5723 z"
     id="path173"
     inkscape:connector-curvature="0" />
  <path
     style="fill:#d40000;stroke-width:2.16949153"
     d="m 1021.4651,996.62757 c -1.2223,-3.21497 -6.1174,-18.72664 -10.8778,-34.47038 -11.84638,-39.17811 -18.57688,-55.9905 -42.3009,-105.66517 -24.00022,-50.253 -31.1203,-67.20089 -47.84069,-113.87507 -11.44876,-31.95868 -12.51428,-36.51864 -13.43395,-57.49153 -2.28144,-52.02805 15.88543,-90.69229 50.74887,-108.0079 20.46069,-10.1622 31.74452,-12.39888 62.55127,-12.39888 25.44,0 29.7976,0.58803 44.4745,6.00148 49.5427,18.27337 80.5548,64.49434 77.5124,115.52608 -1.6044,26.91321 -23.4507,86.81431 -58.5374,160.50634 -25.6223,53.81385 -35.1513,77.54934 -48.3396,120.40678 -5.6914,18.49492 -10.6599,34.00658 -11.0411,34.47038 -0.3813,0.4638 -1.6933,-1.78716 -2.9156,-5.00213 z m 12.5691,-189.02431 c 1.3514,-4.82701 7.4171,-18.91928 13.4795,-31.31615 16.7186,-34.1878 30.2897,-72.55413 30.2897,-85.63085 0,-31.88359 -15.9212,-48.80962 -47.6228,-50.62825 -36.68732,-2.10465 -54.27005,12.15595 -57.90855,46.9672 -1.51788,14.52237 4.86467,35.40915 24.62075,80.57089 9.8318,22.47526 16.5431,40.45453 25.9144,69.42373 0.9785,3.0246 5.3754,-8.48423 11.227,-29.38657 z"
     id="path223"
     inkscape:connector-curvature="0" />
  <path
     style="fill:#d40000;stroke-width:2.16949153"
     d="m 1517.1254,1305.3221 c -32.0476,-6.8654 -104.358,-18.7013 -156.8742,-25.6774 -75.3996,-10.0159 -145.51,-15.1683 -254.577,-18.709 l -44.8071,-1.4546 0.9756,-56.6694 c 1.7986,-104.4772 5.5168,-134.1013 23.7231,-189.0118 25.0977,-75.6951 58.8049,-133.60964 107.0345,-183.90334 32.1498,-33.52572 60.2615,-52.62829 111.6987,-75.90199 138.3308,-62.59022 275.4598,-69.72019 369.1339,-19.19298 59.6603,32.18033 104.975,90.81094 121.8371,157.63941 5.6289,22.30862 5.9858,26.5389 5.9381,70.37934 -0.043,39.86506 -0.7207,49.48176 -4.6604,66.16946 -10.106,42.8075 -27.0332,78.085 -50.422,105.0831 -14.4584,16.6895 -45.7227,43.6436 -83.6443,72.1127 -38.5509,28.9414 -71.9187,56.3487 -100.8814,82.8606 -12.5288,11.4687 -23.2678,20.7636 -23.8644,20.6554 -0.5966,-0.1082 -9.8712,-2.0789 -20.6102,-4.3795 z m 21.6949,-97.7236 c 8.3526,-10.7807 35.1671,-38.7814 59.5878,-62.2236 74.7737,-71.7779 88.0843,-87.0607 100.7086,-115.6305 10.3656,-23.4581 12.8721,-40.001 11.5352,-76.13377 -0.6735,-18.20245 -2.7511,-39.90127 -4.6169,-48.21958 -12.529,-55.858 -57.5941,-95.66555 -128.9158,-113.87559 -70.6868,-18.04794 -143.6547,-13.75283 -206.1991,12.13751 -21.0046,8.69486 -58.8043,29.06448 -81.5913,43.96807 -37.7495,24.6897 -92.5732,93.45379 -122.6077,153.78396 -14.8684,29.8662 -22.353,53.9851 -26.925,86.7648 -3.7408,26.8199 -9.1109,93.2021 -7.6429,94.4769 0.5347,0.4643 30.4798,2.0036 66.5447,3.4205 98.6711,3.8768 172.0321,10.4133 234.0312,20.8524 29.4699,4.962 68.5281,13.9526 79.2394,18.2397 2.8363,1.1352 6.6213,2.0587 8.4112,2.0523 1.7898,-0.01 10.0881,-8.8323 18.4406,-19.6131 z"
     id="path225"
     inkscape:connector-curvature="0" />
  <path
     style="fill:#d40000;stroke-width:2.16949153"
     d="m 1515.704,1224.269 c -0.5829,-0.5829 -12.2168,-3.9926 -25.8531,-7.577 -60.7323,-15.9643 -160.161,-27.328 -284.506,-32.5161 -29.486,-1.2303 -57.7006,-2.2369 -62.699,-2.2369 h -9.0881 l 1.4529,-24.4068 c 2.3379,-39.2732 7.6921,-80.5969 13.3701,-103.1894 13.4471,-53.5064 67.6544,-138.43533 118.7676,-186.07847 22.2597,-20.74858 77.3763,-52.76917 115.9247,-67.34775 40.5458,-15.33402 102.2184,-22.02405 148.8832,-16.15033 78.3806,9.86582 137.2085,42.65329 160.8327,89.63954 12.0333,23.93292 15.2506,42.38968 15.2229,87.3298 -0.023,37.66413 -0.2431,39.62191 -6.1917,55.13171 -14.23,37.1018 -25.7837,50.7403 -118.7026,140.1225 -17.3661,16.7051 -38.2949,38.9153 -46.5085,49.356 -13.614,17.3054 -17.8721,20.9562 -20.9051,17.9232 z"
     id="path227"
     inkscape:connector-curvature="0" />
  <path
     style="fill:#d40000;stroke-width:2.16949153"
     d="m 547.28369,1532.527 c -2.68852,-8.257 -13.99067,-95.4611 -12.54456,-96.7902 1.85755,-1.7072 46.48307,-12.6043 74.45409,-18.1808 111.37894,-22.2056 255.01737,-33.7996 418.71188,-33.7972 186.4365,0 338.2732,14.1647 456.1356,42.544 25.2057,6.0691 32.0041,8.4679 32.0193,11.2977 0.038,7.0789 -13.6932,92.5767 -15.1312,94.2152 -0.8077,0.9203 -11.6498,-0.7311 -24.0936,-3.6698 -119.7933,-28.2898 -259.0148,-41.0025 -448.9301,-40.9932 -187.32854,0.01 -330.32128,12.9466 -449.32324,40.6528 -20.38841,4.7469 -30.77951,6.3144 -31.29817,4.7215 z"
     id="path269"
     inkscape:connector-curvature="0" />
  <path
     style="fill:#d40000;stroke-width:2.16949153"
     d="m 505.78458,1729.5214 c 0.67522,-2.2686 7.77629,-28.5316 15.78017,-58.3621 8.00387,-29.8305 15.45199,-54.8311 16.55138,-55.5568 7.10221,-4.6885 117.47251,-22.7256 183.89065,-30.052 177.97957,-19.6325 424.15062,-19.6475 606.37292,-0.037 63.6202,6.8468 175.0203,25.1929 183.0288,30.1424 2.5718,1.5894 31.7411,112.6429 30.0349,114.3491 -0.4729,0.4729 -14.9244,-2.5071 -32.1144,-6.6223 -91.2292,-21.8399 -209.6439,-37.2537 -344.7459,-44.8748 -56.86,-3.2075 -230.37037,-3.1835 -289.62717,0.04 -121.87166,6.6298 -214.5499,17.7099 -293.9661,35.1449 -27.70683,6.0827 -65.25172,15.6626 -72.92703,18.6079 -2.67242,1.0255 -3.21403,0.3647 -2.27822,-2.7795 z"
     id="path271"
     inkscape:connector-curvature="0" />
</svg>
