<?xml version="1.0" encoding="UTF-8" standalone="no"?>
<svg
   xmlns:dc="http://purl.org/dc/elements/1.1/"
   xmlns:cc="http://creativecommons.org/ns#"
   xmlns:rdf="http://www.w3.org/1999/02/22-rdf-syntax-ns#"
   xmlns:svg="http://www.w3.org/2000/svg"
   xmlns="http://www.w3.org/2000/svg"
   xmlns:sodipodi="http://sodipodi.sourceforge.net/DTD/sodipodi-0.dtd"
   xmlns:inkscape="http://www.inkscape.org/namespaces/inkscape"
   height="100%"
   width="100%"
   version="1.1"
   viewBox="0 0 2048 2048"
   id="svg18"
   sodipodi:docname="wk_1.svg"
   inkscape:version="0.92.4 5da689c313, 2019-01-14">
  <metadata
     id="metadata24">
    <rdf:RDF>
      <cc:Work
         rdf:about="">
        <dc:format>image/svg+xml</dc:format>
        <dc:type
           rdf:resource="http://purl.org/dc/dcmitype/StillImage" />
        <dc:title></dc:title>
      </cc:Work>
    </rdf:RDF>
  </metadata>
  <defs
     id="defs22" />
  <sodipodi:namedview
     pagecolor="#ffffff"
     bordercolor="#666666"
     borderopacity="1"
     objecttolerance="10"
     gridtolerance="10"
     guidetolerance="10"
     inkscape:pageopacity="0"
     inkscape:pageshadow="2"
     inkscape:window-width="960"
     inkscape:window-height="1060"
     id="namedview20"
     showgrid="false"
     inkscape:zoom="0.23046875"
     inkscape:cx="1041.3559"
     inkscape:cy="1024"
     inkscape:window-x="0"
     inkscape:window-y="20"
     inkscape:window-maximized="0"
     inkscape:current-layer="svg18" />
  <path
     style="color:black;"
     d="m524 583q190 48 504 48 308 0 497-46l25 147q-201 53-526 53-327 0-525-54l25-148zm-61-61l-33 187q-1 0-3 4-5 7-28 18t-55 40q-44 37-68 60t-45 50q-61 84-68 203-10 115 93 229 104 114 281 107 66-4 155-32 29-12 59-23t61-24q16-8 28-16-5 21-5 42 0 78 55 133t134 56q78 0 133-55t55-133q0-16-4-42 14 9 27 15 46 20 121 47 86 29 155 33 177 8 280-107 101-114 94-229-8-119-69-203-20-27-45-50t-67-60q-33-28-56-39t-27-19q-1-2-2-3t-1-2l-32-188 66-247q-50-45-224-74t-402-29q-232 0-408 30t-221 77l66 244zm1081-117l-30 115q-198 44-490 44-291 0-489-44l-32-116q191 56 522 56 329 0 519-55zm26-94q-193 78-542 78-362 0-548-80 176-70 545-70 176 0 321 19t224 53zm-581 542q-1 39-3 77t-15 86q-41 134-124 216-43 42-132 78-102 40-193 40-158 0-234-113-43-60-43-150 0-98 48-161 29-37 74-74t84-67q175 63 538 68zm35 186q7 28 12 39 10 39 23 66 6 17 17 39t25 52q8 17 17 41t18 49q8 20 8 43 0 49-35 83t-85 35q-119 0-119-119 0-23 8-43 22-65 34-90 13-29 24-51t19-40q13-33 22-66 2-6 12-38zm34-186q172-2 315-20t224-47q38 30 83 66t75 75q48 61 48 161 0 90-43 150-77 112-234 112-94 0-193-39-87-35-132-78-84-84-124-216-14-47-16-85t-3-79zm1 706h-71v131h-83q-34 0-34 33v1q0 33 34 33h83v85q0 35 36 35 35 0 35-35v-85h86q33 0 33-33v-1q0-33-33-33l-85-1-1-130z"
     fill-rule="nonzero"
     transform="translate(0,2048) scale(1,-1)"
     display="block"
     fill="#000"
     id="path2" />
  <g
     fill-rule="nonzero"
     fill="#fff"
     id="g16">
    <path
       style="color:black;"
       d="m524 1465q190-48 504-48 308 0 497 46l25-147q-201-53-526-53-327 0-525 54l25 148z"
       display="block"
       id="path4" />
    <path
       style="color:black;"
       d="m1544 1643-30-115q-198-44-490-44-291 0-489 44l-32 116q191-56 522-56 329 0 519 55z"
       display="block"
       id="path6" />
    <path
       style="color:black;"
       d="m1570 1737q-193-78-542-78-362 0-548 80 176 70 545 70 176 0 321-19t224-53z"
       display="block"
       id="path8" />
    <path
       style="color:black;"
       d="m989 1195q-1-39-3-77t-15-86q-41-134-124-216-43-42-132-78-102-40-193-40-158 0-234 113-43 60-43 150 0 98 48 161 29 37 74 74t84 67q175-63 538-68z"
       display="block"
       id="path10" />
    <path
       style="color:black;"
       d="m1024 1009q7-28 12-39 10-39 23-66 6-17 17-39t25-52q8-17 17-41t18-49q8-20 8-43 0-49-35-83t-85-35q-119 0-119 119 0 23 8 43 22 65 34 90 13 29 24 51t19 40q13 33 22 66 2 6 12 38z"
       display="block"
       id="path12" />
    <path
       style="color:black;"
       d="m1058 1195q172 2 315 20t224 47q38-30 83-66t75-75q48-61 48-161 0-90-43-150-77-112-234-112-94 0-193 39-87 35-132 78-84 84-124 216-14 47-16 85t-3 79z"
       display="block"
       id="path14" />
  </g>
  <path
     style="fill:#d40000;stroke-width:8.67796612"
     d="m 383.03567,1205.1689 c -105.99809,-88.475 -133.59261,-139.9162 -132.45004,-246.9108 0.7615,-71.31086 10.26284,-101.85753 48.49408,-155.90774 90.63834,-128.14186 326.68084,-133.11317 511.16521,-10.7657 87.7216,58.17575 161.45674,201.26075 173.65637,336.98484 l 6.04518,67.2542 h -77.79149 c -137.59645,0 -267.76383,16.5969 -449.61939,57.3285 -11.93079,2.6722 -36.78099,-12.3265 -79.49992,-47.9833 z"
     id="path26"
     inkscape:connector-curvature="0" />
  <path
     style="fill:none;stroke:#000000;stroke-width:1px;stroke-linecap:butt;stroke-linejoin:miter;stroke-opacity:1"
     d="m 1024,538.0339 -4.339,559.7288"
     id="path28"
     inkscape:connector-curvature="0" />
  <path
     style="fill:#d40000;stroke-width:4.33898306"
     d="m 1000.9721,935.25129 c -8.60841,-24.45194 -27.44407,-69.84112 -41.85702,-100.86485 -14.41295,-31.02373 -32.50953,-74.92464 -40.2146,-97.55758 -12.30355,-36.14054 -13.70165,-44.8195 -11.48304,-71.28304 4.78314,-57.05328 32.12851,-89.13995 84.22488,-98.82829 14.89338,-2.76972 27.61938,-4.20609 28.27998,-3.19194 0.6605,1.01414 0.1886,95.07037 -1.0488,209.01383 l -2.2498,207.16993 z"
     id="path30"
     inkscape:connector-curvature="0" />
</svg>
