<svg width="2048" height="2048" xmlns="http://www.w3.org/2000/svg" xmlns:svg="http://www.w3.org/2000/svg">
 <g class="layer">
  <title>Layer 1</title>
  <path id="svg_1" fill="#000" transform="translate(0,2048) scale(1,-1) " fill-rule="nonzero" d="m524,583q190,48 504,48q308,0 497,-46l25,147q-201,53 -526,53q-327,0 -525,-54l25,-148zm-61,-61l-33,187q-1,0 -3,4q-5,7 -28,18t-55,40q-44,37 -68,60t-45,50q-61,84 -68,203q-10,115 93,229q104,114 281,107q66,-4 155,-32q29,-12 59,-23t61,-24q16,-8 28,-16q-5,21 -5,42q0,78 55,133t134,56q78,0 133,-55t55,-133q0,-16 -4,-42q14,9 27,15q46,20 121,47q86,29 155,33q177,8 280,-107q101,-114 94,-229q-8,-119 -69,-203q-20,-27 -45,-50t-67,-60q-33,-28 -56,-39t-27,-19q-1,-2 -2,-3t-1,-2l-32,-188l66,-247q-50,-45 -224,-74t-402,-29q-232,0 -408,30t-221,77l66,244zm1081,-117l-30,115q-198,44 -490,44q-291,0 -489,-44l-32,-116q191,56 522,56q329,0 519,-55zm26,-94q-193,78 -542,78q-362,0 -548,-80q176,-70 545,-70q176,0 321,19t224,53zm-581,542q-1,39 -3,77t-15,86q-41,134 -124,216q-43,42 -132,78q-102,40 -193,40q-158,0 -234,-113q-43,-60 -43,-150q0,-98 48,-161q29,-37 74,-74t84,-67q175,63 538,68zm35,186q7,28 12,39q10,39 23,66q6,17 17,39t25,52q8,17 17,41t18,49q8,20 8,43q0,49 -35,83t-85,35q-119,0 -119,-119q0,-23 8,-43q22,-65 34,-90q13,-29 24,-51t19,-40q13,-33 22,-66q2,-6 12,-38zm34,-186q172,-2 315,-20t224,-47q38,30 83,66t75,75q48,61 48,161q0,90 -43,150q-77,112 -234,112q-94,0 -193,-39q-87,-35 -132,-78q-84,-84 -124,-216q-14,-47 -16,-85t-3,-79zm1,706l-71,0l0,131l-83,0q-34,0 -34,33l0,1q0,33 34,33l83,0l0,85q0,35 36,35q35,0 35,-35l0,-85l86,0q33,0 33,-33l0,-1q0,-33 -33,-33l-85,-1l-1,-130z"/>
  <g id="svg_2" fill="#fff" fill-rule="nonzero">
   <path id="svg_3" d="m524,1465q190,-48 504,-48q308,0 497,46l25,-147q-201,-53 -526,-53q-327,0 -525,54l25,148z"/>
   <path id="svg_4" d="m1544,1643l-30,-115q-198,-44 -490,-44q-291,0 -489,44l-32,116q191,-56 522,-56q329,0 519,55z"/>
   <path id="svg_5" d="m1570,1737q-193,-78 -542,-78q-362,0 -548,80q176,70 545,70q176,0 321,-19t224,-53z"/>
   <path id="svg_6" d="m989,1195q-1,-39 -3,-77t-15,-86q-41,-134 -124,-216q-43,-42 -132,-78q-102,-40 -193,-40q-158,0 -234,113q-43,60 -43,150q0,98 48,161q29,37 74,74t84,67q175,-63 538,-68z"/>
   <path id="svg_7" d="m1024,1009q7,-28 12,-39q10,-39 23,-66q6,-17 17,-39t25,-52q8,-17 17,-41t18,-49q8,-20 8,-43q0,-49 -35,-83t-85,-35q-119,0 -119,119q0,23 8,43q22,65 34,90q13,29 24,51t19,40q13,33 22,66q2,6 12,38z"/>
   <path id="svg_8" d="m1058,1195q172,2 315,20t224,47q38,-30 83,-66t75,-75q48,-61 48,-161q0,-90 -43,-150q-77,-112 -234,-112q-94,0 -193,39q-87,35 -132,78q-84,84 -124,216q-14,47 -16,85t-3,79z"/>
  </g>
  <path d="m759.49994,1024.5c3.30499,0 4.1767,0 5.20837,0c0.58832,0 1.23163,0 1.935,0c1.60663,0 2.51788,0.00183 3.49664,-0.00342c1.03876,-0.00549 2.13013,-0.0177 3.26624,-0.04871c1.17395,-0.0321 2.37842,-0.07605 3.60376,-0.16125c2.49225,-0.17334 3.74316,-0.32538 4.9967,-0.51001c1.26837,-0.18683 2.55139,-0.42609 3.84747,-0.73499c1.33099,-0.31726 2.69312,-0.69794 4.07251,-1.185c2.9328,-1.03552 4.44025,-1.75232 6.01331,-2.50336c1.64917,-0.78741 3.35126,-1.66809 5.1225,-2.61371c1.85565,-0.99066 3.78271,-2.05737 5.79755,-3.17627c4.30884,-2.39276 6.61017,-3.66412 8.99329,-5.01001c2.47375,-1.39709 5.02179,-2.86865 7.60504,-4.46997c2.66412,-1.65143 5.37848,-3.40509 8.05499,-5.37c5.57642,-4.09381 8.26465,-6.5058 10.99335,-8.99335c2.79395,-2.547 5.55902,-5.24756 8.34747,-8.03253c2.83844,-2.8349 5.67517,-5.76135 8.57251,-8.70746c5.89362,-5.99292 8.92316,-8.98792 11.99664,-11.98334c3.09399,-3.01544 6.23016,-6.02325 9.37878,-9.04877c3.16138,-3.03778 6.33978,-6.07813 9.49121,-9.16125c6.31488,-6.17804 9.41321,-9.33533 12.51666,-12.51666c3.1333,-3.21191 6.28595,-6.49402 9.5025,-9.83252c3.2901,-3.41486 6.66351,-6.92627 10.17749,-10.50751c7.39899,-7.54059 11.37524,-11.45447 15.48004,-15.47662c4.19336,-4.10895 8.47021,-8.24658 12.77997,-12.40125c4.30359,-4.14868 8.58148,-8.24762 12.78003,-12.28876c8.05933,-7.75714 11.849,-11.42877 15.4433,-14.96338c3.42273,-3.36591 6.64789,-6.58258 9.6413,-9.67499c2.81561,-2.90869 5.42633,-5.65704 7.7287,-8.32501c4.07794,-4.72552 5.66949,-6.95166 7.04669,-9.06665c1.30518,-2.00439 2.43085,-4.04968 3.45374,-6.14996c1.05511,-2.16638 2.04895,-4.51465 3.11627,-7.05005c2.46771,-5.862 3.90637,-9.28424 5.51666,-12.97998c1.70917,-3.92279 3.51428,-7.99591 5.3775,-12.15747c1.87677,-4.19177 3.75183,-8.3421 5.60254,-12.38251c3.4447,-7.52039 5.01904,-10.86829 6.46667,-13.93671c1.32434,-2.80725 2.54578,-5.36365 3.65991,-7.69122c1.0127,-2.11578 1.93884,-4.03247 2.76001,-5.77875c1.41895,-3.01758 1.99902,-4.33569 2.52002,-5.53333c0.47205,-1.08502 0.88708,-2.07275 1.28247,-2.95874c0.35864,-0.80377 0.68665,-1.53748 1.0575,-2.17126c0.66638,-1.13879 1.08594,-1.59961 1.50671,-2.01666c0.40833,-0.40472 0.84717,-0.75494 1.29004,-1.07251c0.43091,-0.30902 0.86902,-0.58044 1.28992,-0.84747c0.7948,-0.50439 1.15869,-0.75305 1.4967,-1.00336c0.32275,-0.23895 0.62256,-0.47754 0.91125,-0.70123c0.27478,-0.21295 0.53418,-0.41907 0.79871,-0.58875c0.49182,-0.31549 0.75098,-0.41681 1.00342,-0.50336c0.2478,-0.08502 0.5,-0.14667 0.75,-0.21002c0.25,-0.06329 0.50366,-0.12067 0.75,-0.20996c0.50867,-0.18439 0.75452,-0.33698 1,-0.50336c0.25476,-0.17267 0.50305,-0.37311 0.75,-0.58875c0.25317,-0.22101 0.50159,-0.45758 0.75,-0.70123c0.50317,-0.49347 0.75,-0.7467 1,-0.9967c0.25,-0.25 0.5,-0.5 0.75,-0.75c0.25,-0.25 0.5,-0.5 0.75,-0.75c0.5,-0.5 0.74878,-0.75085 1,-0.99664c0.24878,-0.24335 0.49683,-0.48022 0.75,-0.70123c0.24695,-0.21564 0.49243,-0.42029 0.75,-0.58875c0.48657,-0.31824 0.74585,-0.4201 0.99658,-0.4967c0.23914,-0.07306 0.47632,-0.11285 0.70129,-0.11249c0.2124,0.00037 0.4187,0.0274 0.58875,0.11249c0.31995,0.16016 0.422,0.33014 0.4967,0.49335c0.07605,0.16614 0.11243,0.35291 0.11243,0.53998c0,0.18713 -0.02905,0.37744 -0.11243,0.54004c-0.16199,0.31592 -0.33276,0.41382 -0.49341,0.5033c-0.16785,0.09344 -0.35571,0.16516 -0.53992,0.25879c-0.18933,0.09625 -0.38708,0.20331 -0.54004,0.37122c-0.33948,0.37268 -0.41675,0.68188 -0.5033,1.00665c-0.09717,0.36438 -0.16785,0.7771 -0.25879,1.22626c-0.09875,0.48761 -0.20374,1.01459 -0.37122,1.56378c-0.36902,1.20996 -0.67358,1.83942 -1.00342,2.49664c-0.3479,0.69324 -0.74951,1.40222 -1.17749,2.13751c-0.44519,0.76483 -0.92188,1.54791 -1.40247,2.36249c-1.00061,1.69574 -1.50256,2.58264 -1.98669,3.50336c-0.49438,0.94012 -0.97034,1.91595 -1.40247,2.93622c-0.44177,1.04315 -0.85535,2.12982 -1.17749,3.27374c-0.67114,2.38287 -0.84192,3.67633 -1,5.01001c-0.16455,1.38824 -0.26038,2.84607 -0.32251,4.3725c-0.06519,1.60028 -0.08801,3.28162 -0.09753,5.04755c-0.02039,3.80658 -0.00659,5.85413 -0.00659,7.98663c0,2.20251 0,4.46002 0,6.75751c0,2.32251 0,4.65497 0,6.98248c0,4.58002 0,6.80585 0,8.98669c0,2.14081 0,4.24664 0,6.32251c0,2.05078 0,4.08167 0,6.09747c0,4.00665 0,6.01123 0,8.04333c0,2.0871 0,4.25665 0,6.53625c0,2.41705 0,4.99915 0,7.77374c0,6.23669 0,9.745 0,13.50336c0,3.98334 0,8.16663 0,12.52496c0,4.50836 0,9.14166 0,13.875c0,9.66669 0,14.55627 0,19.48334c0,4.97711 0,10.01666 0,15.13129c0,5.20209 0,10.50415 0,15.9187c0,11.21667 0,17.03668 0,22.97668c0,6.03003 0,12.12 0,18.23999c0,6.12 0,12.21002 0,18.23999c0,11.76001 0,17.43713 0,22.97668c0,5.41461 0,10.71667 0,15.91876c0,5.11456 0,10.15417 0,15.13123c0,9.81665 0,14.67957 0,19.52002c0,4.82043 0,9.62329 0,14.41125c0,4.77539 0,9.54077 0,14.29871c0,9.50342 0,14.25378 0,19.00671c0,4.75793 0,9.52332 0,14.29871c0,4.78796 0,9.59082 0,14.41125c0,9.70337 0,14.59082 0,19.50342c0,4.9375 0,9.8999 0,14.88745c0,5.01245 0,10.05005 0,15.11255c0,10.19995 0,15.33667 0,20.49329c0,5.17163 0,10.35327 0,15.54004c0,5.18665 0,10.36829 0,15.53992c0,10.29333 0,15.4071 0,20.50342c0,5.08618 0,10.16992 0,15.25867c0,5.10132 0,10.22253 0,15.37134c0,10.40991 0,15.67615 0,20.93994c0,5.20874 0,10.31006 0,15.25122c0,4.72876 0,9.1925 0,13.33875c0,7.13 0,10.02625 0,12.5c0,2.10376 0,3.89001 0,5.41125c0,1.30884 0,2.45752 0,3.49878c0,1.96997 0.00183,2.99414 -0.00342,4.06335c-0.00549,1.10913 -0.01746,2.25342 -0.04871,3.42749c-0.03198,1.19922 -0.07581,2.41931 -0.16125,3.65247c-0.17297,2.49573 -0.33264,3.74438 -0.4967,4.99341c-0.16431,1.25098 -0.35327,2.5 -0.53992,3.75c-0.18677,1.25 -0.38074,2.49841 -0.54004,3.75c-0.31787,2.49695 -0.41626,3.74927 -0.4967,5c-0.08044,1.24939 -0.12952,2.49988 -0.16125,3.75c-0.03162,1.24988 -0.04395,2.5 -0.04871,3.75c-0.00952,2.5 0.00085,3.75 -0.01001,5c-0.01086,1.25 -0.03418,2.50061 -0.09753,3.75c-0.06335,1.25073 -0.151,2.50378 -0.32251,3.75c-0.34521,2.50916 -0.66162,3.75464 -1,4.99658c-0.33997,1.24744 -0.74023,2.48132 -1.17749,3.70129c-0.43616,1.2168 -0.90735,2.41382 -1.40247,3.58875c-0.97168,2.30579 -1.49292,3.40942 -1.98669,4.5c-0.4845,1.07031 -0.96167,2.11963 -1.40247,3.16125c-0.4325,1.02197 -0.84583,2.03137 -1.17749,3.04871c-0.64758,1.98657 -0.83875,3.00012 -1,4.00342c-0.16028,0.99707 -0.25916,1.99915 -0.32251,3c-0.06323,0.99927 -0.08789,1.99988 -0.09753,3c-0.01917,1.99988 -0.00464,3.00037 -0.01001,4.0033c-0.00549,1.00793 -0.01721,2.02344 -0.04871,3.04871c-0.03186,1.03821 -0.07678,2.0918 -0.16125,3.16125c-0.17432,2.20581 -0.33472,3.34204 -0.4967,4.50671c-0.16626,1.19617 -0.35583,2.42297 -0.53992,3.68628c-0.18945,1.30005 -0.38416,2.63892 -0.54004,4.02368c-0.32642,2.89978 -0.41675,4.42566 -0.4967,5.98669c-0.08118,1.58496 -0.12952,3.18323 -0.16125,4.78125c-0.03149,1.58533 -0.04382,3.14587 -0.04871,4.6687c-0.00916,2.88342 0.00122,4.22217 -0.01001,5.49341c-0.01074,1.21118 -0.03296,2.37073 -0.09753,3.48376c-0.0625,1.07703 -0.14954,2.12732 -0.32251,3.14624c-0.34326,2.02185 -0.66638,3.0144 -0.99329,4.01001c-0.32983,1.00452 -0.70667,2 -1.07996,3c-0.37341,1 -0.75952,1.99243 -1.08008,3c-0.63196,1.98621 -0.83203,2.9967 -0.99329,4c-0.16028,0.99707 -0.25916,1.99915 -0.32251,3c-0.06323,0.99927 -0.08789,1.99988 -0.09753,3c-0.01917,1.99988 -0.00659,3 -0.00659,4c0,1 0,2 0,3c0,1 0,2 0,3c0,2 0,2.99915 0,3.99329c0,0.98413 0,1.95337 0,2.90247c0,0.92419 0,1.81836 0,2.67749c0,1.59338 0,2.31921 0,3c0,0.64087 0,1.2467 0,1.82251c0,0.5509 0,1.08167 0,1.59753c0,1.00671 0,1.50671 0,2.00671c0,0.5 0,1 0,1.5c0,0.5 0,1 0,1.5c0,1 0,1.49951 0,1.99658c0,0.49207 0,0.97668 0,1.45129c0,0.46204 0,0.90918 0,1.33875c0,0.79663 0,1.15955 0,1.5c0,0.32043 0,0.62329 0,0.91125c0,0.27539 0,0.54077 0,0.79871c0,0.50342 0,0.75342 0,1.00342c0,0.25 0,0.5 0,0.75c0,0.25 0,0.5 0,0.75c0,0.5 0,0.75037 0,1.0033c0,0.25793 0,0.52332 0,0.79871c0,0.28796 0,0.59082 0,0.91125c0,0.70337 0,1.08997 0,1.4967c0,0.42163 0,0.85327 0,1.29004c0,0.43665 0,0.86829 0,1.28992c0,0.79333 0.00232,1.15588 -0.00342,1.49341c-0.00537,0.3125 -0.01514,0.60083 -0.04871,0.86243c-0.03064,0.23865 -0.06921,0.45972 -0.16125,0.63757c-0.1665,0.32178 -0.33508,0.422 -0.4967,0.50659c-0.16711,0.08752 -0.35327,0.14685 -0.53992,0.21008c-0.18677,0.06335 -0.37634,0.11609 -0.54004,0.20996c-0.31116,0.17859 -0.41858,0.33789 -0.4967,0.50659c-0.08411,0.18176 -0.13062,0.39893 -0.16125,0.63757c-0.03357,0.2616 -0.04395,0.5498 -0.04871,0.86243c-0.0105,0.69995 -0.0033,1.08716 -0.0033,1.4967c0,0.42957 0,0.87671 0,1.33875c0,0.47461 0,0.95923 0,1.45129c0,0.9967 0,1.49744 0,2.0033c0,0.51587 0,1.04663 0,1.59753c0,0.57581 0,1.18164 0,1.82251c0,1.40662 0,2.17993 0,2.99329c0,0.84338 0,1.70667 0,2.58008c0,0.87329 0,1.73657 0,2.57996c0,1.58667 0,2.31213 0,2.98999c0,0.63293 0,1.22339 0,1.7738c0,0.51282 0,0.99072 0,1.43616c0,0.80334 -0.00244,1.16626 0.0033,1.50671c0.00537,0.32043 0.01624,0.62402 0.04871,0.91125c0.03125,0.27625 0.07581,0.54529 0.16125,0.79871c0.17346,0.51453 0.33594,0.75635 0.4967,1.00671c0.16736,0.26074 0.3562,0.52136 0.54004,0.79871c0.1897,0.28601 0.38391,0.58289 0.53992,0.91125c0.3269,0.68835 0.41711,1.08765 0.4967,1.4967c0.08167,0.41956 0.12952,0.85278 0.16125,1.29004c0.03162,0.43628 0.04382,0.86829 0.04871,1.28992c0.00916,0.79333 0.00342,1.15625 0.00342,1.4967c0,0.32043 0,0.62329 0,0.91125c0,0.27539 0,0.54077 0,0.79871c0,0.50342 0,0.75342 0,1.00342c0,0.25 0,0.5 0,0.75c0,0.25 0,0.5 0,0.75c0,0.5 0,0.75 0,1c0,0.25 0,0.5 0,0.75c0,0.25 0,0.5 0,0.75c0,0.5 0,0.75 0,1c0,0.25 0,0.5 0,0.75c0,0.25 0,0.5 0,0.75c0,0.5 0,0.75 0,1c0,0.25 0,0.5 0,0.75c0,0.25 0,0.5 0,0.75c0,0.5 0,0.75 0,1c0,0.25 0,0.5 0,0.75c0,0.25 0,0.5 0,0.75c0,0.5 0,0.75 0,1c0,0.25 0,0.5 0,0.75c0,0.25 0,0.5 0,0.75c0,0.5 0,0.75 0,1c0,0.25 0,0.5 0,0.75c0,0.25 0,0.5 0,0.75c0,0.5 0,0.75 0,1c0,0.25 0,0.5 0,0.75c0,0.25 0,0.5 0,0.75c0,0.5 0,0.75 0,1c0,0.25 0,0.5 0,0.75c0,0.25 0,0.5 0,0.75c0,0.5 0,0.75 0,1c0,0.25 0,0.5 0,0.75c0,0.25 0,0.5 0,0.75c0,0.5 0,0.75 0,1c0,0.25 0,0.5 0,0.75c0,0.25 0,0.5 0,0.75c0,0.5 0,0.75 0,1c0,0.25 0,0.5 0,0.75c0,0.25 0,0.5 0,0.75c0,0.5 0,0.75 0,1c0,0.25 0,0.5 0,0.75c0,0.25 0,0.5 0,0.75c0,0.5 0,0.75 0,1c0,0.25 0,0.5 0,0.75c0,0.25 0,0.5 0,0.75c0,0.5 0,0.75 0,1c0,0.25 0,0.5 0,0.75c0,0.25 0,0.5 0,0.75c0,0.5 0,0.75 0,1c0,0.25 0,0.5 0,0.75c0,0.25 0,0.5 0,0.75c0,0.5 0,0.75 0,1c0,0.25 0,0.5 0,0.75c0,0.25 0,0.5 0,0.75c0,0.5 0,0.75 0,1c0,0.25 0,0.5 0,0.75c0,0.25 0,0.5 0,0.75c0,0.5 0,0.75 0,1c0,0.25 0,0.5 0,0.75l0,0.25l0,0.25l0,0.25" id="svg_10" stroke-linecap="null" stroke-linejoin="null" stroke-dasharray="null" stroke-width="65" stroke="#bf0000" fill="none"/>
 </g>
</svg>
