<svg width="2048" height="2048" xmlns="http://www.w3.org/2000/svg" xmlns:svg="http://www.w3.org/2000/svg">
 <g class="layer">
  <title>Layer 1</title>
  <path id="svg_1" fill="#000" transform="translate(0,2048) scale(1,-1) " fill-rule="nonzero" d="m524,583q190,48 504,48q308,0 497,-46l25,147q-201,53 -526,53q-327,0 -525,-54l25,-148zm-61,-61l-33,187q-1,0 -3,4q-5,7 -28,18t-55,40q-44,37 -68,60t-45,50q-61,84 -68,203q-10,115 93,229q104,114 281,107q66,-4 155,-32q29,-12 59,-23t61,-24q16,-8 28,-16q-5,21 -5,42q0,78 55,133t134,56q78,0 133,-55t55,-133q0,-16 -4,-42q14,9 27,15q46,20 121,47q86,29 155,33q177,8 280,-107q101,-114 94,-229q-8,-119 -69,-203q-20,-27 -45,-50t-67,-60q-33,-28 -56,-39t-27,-19q-1,-2 -2,-3t-1,-2l-32,-188l66,-247q-50,-45 -224,-74t-402,-29q-232,0 -408,30t-221,77l66,244zm1081,-117l-30,115q-198,44 -490,44q-291,0 -489,-44l-32,-116q191,56 522,56q329,0 519,-55zm26,-94q-193,78 -542,78q-362,0 -548,-80q176,-70 545,-70q176,0 321,19t224,53zm-581,542q-1,39 -3,77t-15,86q-41,134 -124,216q-43,42 -132,78q-102,40 -193,40q-158,0 -234,-113q-43,-60 -43,-150q0,-98 48,-161q29,-37 74,-74t84,-67q175,63 538,68zm35,186q7,28 12,39q10,39 23,66q6,17 17,39t25,52q8,17 17,41t18,49q8,20 8,43q0,49 -35,83t-85,35q-119,0 -119,-119q0,-23 8,-43q22,-65 34,-90q13,-29 24,-51t19,-40q13,-33 22,-66q2,-6 12,-38zm34,-186q172,-2 315,-20t224,-47q38,30 83,66t75,75q48,61 48,161q0,90 -43,150q-77,112 -234,112q-94,0 -193,-39q-87,-35 -132,-78q-84,-84 -124,-216q-14,-47 -16,-85t-3,-79zm1,706l-71,0l0,131l-83,0q-34,0 -34,33l0,1q0,33 34,33l83,0l0,85q0,35 36,35q35,0 35,-35l0,-85l86,0q33,0 33,-33l0,-1q0,-33 -33,-33l-85,-1l-1,-130z"/>
  <g id="svg_2" fill="#fff" fill-rule="nonzero">
   <path id="svg_3" d="m524,1465q190,-48 504,-48q308,0 497,46l25,-147q-201,-53 -526,-53q-327,0 -525,54l25,148z"/>
   <path id="svg_4" d="m1544,1643l-30,-115q-198,-44 -490,-44q-291,0 -489,44l-32,116q191,-56 522,-56q329,0 519,55z"/>
   <path id="svg_5" d="m1570,1737q-193,-78 -542,-78q-362,0 -548,80q176,70 545,70q176,0 321,-19t224,-53z"/>
   <path id="svg_6" d="m989,1195q-1,-39 -3,-77t-15,-86q-41,-134 -124,-216q-43,-42 -132,-78q-102,-40 -193,-40q-158,0 -234,113q-43,60 -43,150q0,98 48,161q29,37 74,74t84,67q175,-63 538,-68z"/>
   <path id="svg_7" d="m1024,1009q7,-28 12,-39q10,-39 23,-66q6,-17 17,-39t25,-52q8,-17 17,-41t18,-49q8,-20 8,-43q0,-49 -35,-83t-85,-35q-119,0 -119,119q0,23 8,43q22,65 34,90q13,29 24,51t19,40q13,33 22,66q2,6 12,38z"/>
   <path id="svg_8" d="m1058,1195q172,2 315,20t224,47q38,-30 83,-66t75,-75q48,-61 48,-161q0,-90 -43,-150q-77,-112 -234,-112q-94,0 -193,39q-87,35 -132,78q-84,84 -124,216q-14,47 -16,85t-3,79z"/>
  </g>
  <path stroke="#bf0000" d="m691.99994,1008.16716c1.14669,-2.61829 1.922,-2.86664 2.62996,-3.54302c0.59476,-0.56818 1.081,-1.43076 1.36981,-1.88222c0.62359,-0.97475 0.93018,-1.51172 1.69849,-2.54661c0.80876,-1.08932 1.28814,-1.60793 1.76032,-2.15418c0.48419,-0.56013 0.98765,-1.12818 1.49515,-1.71789c0.52002,-0.60425 1.57117,-1.88131 2.09343,-2.56386c0.54044,-0.7063 1.08717,-1.45722 1.6608,-2.24805c0.60721,-0.83715 1.24923,-1.73093 1.94486,-2.67856c0.74539,-1.01543 2.43759,-3.25595 3.40007,-4.48637c1.022,-1.30658 2.10897,-2.66604 3.24276,-4.07364c1.16647,-1.44814 2.36317,-2.91964 3.57413,-4.40839c1.21565,-1.49446 3.62197,-4.45582 4.79267,-5.90493c1.15067,-1.42427 2.28221,-2.83011 3.40841,-4.21312c1.11632,-1.37081 2.23225,-2.72891 3.36109,-4.06962c1.12942,-1.34136 3.44938,-4.00383 4.65148,-5.32612c1.21045,-1.3315 2.44536,-2.64963 3.69247,-3.95803c1.24435,-1.30548 2.49473,-2.59189 3.73979,-3.86234c1.23067,-1.25572 3.64451,-3.69561 4.81636,-4.87789c1.14951,-1.15964 2.28189,-2.2995 3.40841,-3.41593c1.11593,-1.10593 2.23277,-2.1979 3.36109,-3.27243c1.12993,-1.07608 3.45073,-3.20652 4.65238,-4.26411c1.21783,-1.07187 2.46937,-2.14068 3.74769,-3.21664c1.29899,-1.09334 2.62919,-2.19401 3.98436,-3.31226c1.37996,-1.13869 4.22199,-3.4786 5.67983,-4.68794c1.4807,-1.22828 2.97565,-2.47447 4.48146,-3.73077c1.51158,-1.26104 3.02227,-2.52325 4.52878,-3.77865c1.49515,-1.24593 4.43369,-3.68354 5.8679,-4.86641c1.40962,-1.16263 2.80107,-2.30592 4.16979,-3.44383c1.35671,-1.12792 2.70078,-2.25538 4.02776,-3.39602c1.32756,-1.14109 3.96131,-3.48658 5.27218,-4.69988c1.32268,-1.22426 2.64023,-2.47602 3.97254,-3.73077c1.3406,-1.2626 2.68986,-2.53019 4.06725,-3.77865c1.3824,-1.253 4.22295,-3.69568 5.6912,-4.8655c1.46683,-1.16866 2.95857,-2.29275 4.45385,-3.38804c1.47935,-1.08361 2.95459,-2.1279 4.40653,-3.14891c1.42002,-0.99856 4.14693,-2.90855 5.43655,-3.82646c1.2491,-0.88911 2.46064,-1.76045 3.66088,-2.59085c1.18085,-0.81697 2.3617,-1.60871 3.56624,-2.35172c1.20814,-0.74522 3.74807,-2.12855 5.09638,-2.76537c1.3833,-0.65336 2.82862,-1.26928 4.31182,-1.90525c1.52455,-0.65368 3.09521,-1.31898 4.69052,-2.04876c1.64154,-0.75093 5.00937,-2.45942 6.71955,-3.44649c1.75127,-1.01082 3.49426,-2.10299 5.24283,-3.22066c1.75191,-1.11981 3.47904,-2.25811 5.19551,-3.3641c1.68154,-1.08348 4.925,-3.09539 6.48808,-3.96867c1.49874,-0.83734 2.97238,-1.59145 4.42226,-2.27595c1.4145,-0.66776 2.82553,-1.27564 4.23291,-1.8455c1.40147,-0.56746 4.25538,-1.63368 5.71669,-2.16216c1.48776,-0.53801 3.0091,-1.07543 4.56428,-1.62227c1.59114,-0.55948 3.22298,-1.12889 4.89566,-1.71789c1.7182,-0.60503 5.2985,-1.88404 7.16483,-2.56211c1.91725,-0.69656 3.87951,-1.41616 5.88979,-2.1364c2.04939,-0.73426 4.13807,-1.46962 6.26849,-2.18428c2.15816,-0.72394 6.57162,-2.1052 8.82442,-2.73922c2.26731,-0.63811 4.5603,-1.23023 6.87603,-1.76577c2.32279,-0.53717 4.66329,-1.01815 7.01805,-1.43095c2.35483,-0.4128 7.08701,-1.04546 9.45596,-1.26532c2.36516,-0.21947 4.7336,-0.37018 7.10088,-0.51018c2.36664,-0.13994 4.73456,-0.25872 7.10088,-0.41455c2.36767,-0.15596 7.10345,-0.58511 9.46829,-0.89638c2.3728,-0.31231 4.74606,-0.69364 7.12849,-1.08419c2.39444,-0.39249 4.79877,-0.80536 7.2232,-1.17982c2.43932,-0.37673 7.38667,-1.01302 9.89958,-1.22854c2.52986,-0.21694 5.07865,-0.35798 7.6374,-0.45445c2.56279,-0.0966 5.12662,-0.14253 7.68472,-0.16738c2.54751,-0.02472 7.59008,-0.02394 10.07583,-0.02394c2.46205,0 4.90311,0 7.32574,0c2.40683,0 4.8005,0 7.18371,0c2.37531,0 7.11276,0 9.47831,0c2.35784,0 4.69976,0 7.01805,0c2.28683,0 4.53411,0 6.734,0c2.1448,0 6.23703,0 8.17084,0c1.86023,0 3.65215,0 5.38088,0c1.67095,0 3.28924,0 4.86015,0c1.52892,0 4.48146,0 5.91573,0c1.41309,0 2.81051,0 4.1974,0c1.38163,0 2.76312,0 4.15001,0c1.39742,0 4.24479,0 5.70308,0c1.47678,0 2.96397,0 4.45385,0c1.48462,0 2.95613,0 4.40646,0c1.42156,0 4.14616,0 5.43571,0c1.24217,0 2.44234,0 3.60566,0c1.13173,0 2.23726,0 3.3216,0c1.06868,0 3.1797,0 4.23169,0c1.05198,0 2.10397,0 3.15595,0c1.05198,0 2.10397,0 3.15595,0c1.05198,0 3.15595,-0.00136 4.20742,0.00045c1.0489,0.00175 2.09266,0.00603 3.12834,0.0279c1.0254,0.0216 2.03796,0.05735 3.0337,0.12359c0.97853,0.06507 2.87022,0.27715 3.77568,0.43667c0.88658,0.15615 1.74954,0.35104 2.59182,0.56999c0.83136,0.2161 1.64603,0.45938 2.44979,0.7135c0.79875,0.25256 2.3789,0.78518 3.16789,1.05091c0.78899,0.26573 1.57797,0.53146 2.36696,0.79719c0.78899,0.26573 1.57797,0.53146 2.36696,0.79719c0.78899,0.26573 2.36722,0.79641 3.15633,1.06337c0.79233,0.26806 1.59043,0.53996 2.39457,0.82508c0.81685,0.28967 1.64642,0.59387 2.48921,0.92077c0.86501,0.33553 2.65744,1.08264 3.5882,1.49959c0.95927,0.42973 1.93625,0.88859 2.93109,1.36718c1.01371,0.48773 2.03809,0.99395 3.07312,1.51068c1.04441,0.5214 3.14465,1.58133 4.19612,2.11428c1.0525,0.53353 2.10615,1.07024 3.15595,1.62227c1.05417,0.55429 2.10782,1.12318 3.15595,1.71796c1.05596,0.59925 3.16134,1.8769 4.20793,2.5625c1.0575,0.69267 2.10769,1.4181 3.15595,2.16436c1.05571,0.75158 2.10589,1.5245 3.15595,2.30787c1.05391,0.78616 3.15646,2.37891 4.20742,3.17674c1.04941,0.79654 2.09446,1.59178 3.12834,2.39156c1.0272,0.79466 2.04091,1.58976 3.0337,2.39156c0.98148,0.79264 2.87266,2.38604 3.77709,3.18965c0.89801,0.79796 1.78293,1.61565 2.67465,2.44735c0.91073,0.84941 1.84277,1.7308 2.81667,2.63867c1.01782,0.9488 3.24006,2.9766 4.46296,4.0617c1.28069,1.13648 2.61596,2.30177 3.97652,3.50365c1.37996,1.21894 2.76274,2.448 4.11855,3.6949c1.33732,1.22984 3.84657,3.65928 4.98022,4.85402c1.08909,1.14777 2.10358,2.29087 3.06914,3.41593c0.94193,1.09749 1.84418,2.19343 2.73783,3.27243c0.88761,1.07167 2.68466,3.20587 3.62325,4.26359c0.94797,1.06823 1.92187,2.12719 2.90335,3.18874c0.98405,1.06428 1.97362,2.12317 2.95087,3.18874c0.97236,1.06025 2.8629,3.18284 3.76438,4.25211c0.8939,1.06025 1.76276,2.134 2.61943,3.21664c0.85987,1.08659 1.7123,2.19226 2.57204,3.31233c0.87259,1.13687 2.66643,3.48003 3.59873,4.68742c0.9472,1.22666 1.90428,2.46039 2.84826,3.70294c0.93551,1.23146 1.84623,2.44884 2.70611,3.65513c0.83008,1.16431 2.29864,3.38103 2.89912,4.42967c0.56259,0.98253 1.04325,1.93847 1.43595,2.87384c0.37639,0.89638 0.67919,1.79068 0.91522,2.68252c0.23385,0.88373 0.54679,2.70516 0.6562,3.64935c0.11185,0.96567 0.19006,1.95508 0.28007,2.96155c0.09143,1.02282 0.18633,2.0603 0.32746,3.10505c0.1428,1.05649 0.56837,3.18225 0.87528,4.23965c0.31025,1.06888 0.68613,2.12758 1.07304,3.18874c0.38807,1.06467 0.79489,2.12245 1.16769,3.18874c0.37048,1.05967 1.00139,3.18375 1.21597,4.25211c0.21317,1.06155 0.35443,2.13582 0.44971,3.21664c0.09593,1.0886 0.14126,2.19297 0.16566,3.31233c0.02478,1.13765 0.02376,3.47971 0.02376,4.68788c0,1.22945 0,2.47479 0,3.73084c0,1.2613 0,2.52267 0,3.77865c0,1.24541 0,3.68302 0,4.86726c0,1.16834 0,2.33135 0,3.49962c0,1.1843 0,2.39512 0,3.64319c0,1.29582 0.00257,4.07357 -0.0009,5.57232c-0.0036,1.56245 -0.01258,3.17304 -0.05522,4.81497c-0.04315,1.65847 -0.11352,3.31778 -0.24463,4.95853c-0.1288,1.61195 -0.54641,4.67788 -0.86398,6.09443c-0.30447,1.35797 -0.68523,2.64444 -1.10065,3.87038c-0.4031,1.18955 -0.84909,2.32895 -1.28994,3.43981c-0.43225,1.08932 -1.27568,3.22124 -1.64847,4.28753c-0.37048,1.05967 -0.70911,2.12505 -1.04158,3.18874c-0.33195,1.06214 -0.65441,2.12738 -0.99407,3.18874c-0.34069,1.06447 -1.07754,3.19322 -1.49643,4.25166c-0.42249,1.06758 -0.8835,2.13089 -1.38073,3.18874c-0.50211,1.06817 -1.04197,2.13134 -1.6174,3.18874c-0.5816,1.06862 -1.84649,3.19374 -2.5244,4.25211c-0.68613,1.07109 -1.4059,2.13932 -2.1421,3.21664c-0.74622,1.09185 -1.513,2.192 -2.28413,3.31226c-0.78231,1.13661 -2.36015,3.4764 -3.14452,4.68878c-0.79733,1.23237 -1.59159,2.49652 -2.39457,3.78663c-0.81788,1.31398 -1.64385,2.6578 -2.48921,4.02589c-0.86231,1.39559 -2.65384,4.26567 -3.5882,5.74054c-0.95554,1.50835 -1.93972,3.04913 -2.93109,4.63961c-1.01718,1.63187 -2.0481,3.31693 -3.07312,5.07012c-1.05468,1.80392 -3.15877,5.63635 -4.1956,7.67511c-1.06405,2.09235 -2.10384,4.25334 -3.12834,6.46519c-1.0367,2.23819 -2.04605,4.50999 -3.0337,6.79995c-0.98662,2.28763 -2.87151,6.8464 -3.77787,9.09679c-0.90302,2.24221 -1.79859,4.50558 -2.72986,6.80008c-0.95695,2.35756 -1.96502,4.7957 -3.06131,7.32609c-1.15433,2.66416 -3.80316,8.43389 -5.32695,11.56762c-1.59993,3.29034 -3.30311,6.66696 -5.07718,10.08834c-1.78421,3.44085 -3.59372,6.83563 -5.40849,10.13622c-1.75198,3.18641 -5.07975,8.97742 -6.62921,11.49457c-1.42259,2.31111 -2.79523,4.41514 -4.13833,6.34154c-1.27311,1.8261 -2.55714,3.54283 -3.85414,5.19364c-1.29456,1.64783 -4.06462,4.98072 -5.55013,6.74247c-1.54073,1.82727 -3.12847,3.69295 -4.73777,5.58432c-1.61419,1.89708 -3.21784,3.77859 -4.78529,5.63207c-1.52173,1.79938 -4.33968,5.17418 -5.60047,6.72119c-1.17937,1.4471 -2.27745,2.82129 -3.3216,4.12541c-1.0019,1.25131 -1.97285,2.46642 -2.94291,3.64715c-0.96569,1.17541 -2.984,3.53323 -4.06731,4.73614c-1.11516,1.23834 -2.27848,2.48783 -3.46748,3.75873c-1.20685,1.28985 -2.43284,2.58735 -3.65703,3.90224c-1.22688,1.31761 -3.6393,3.96854 -4.80404,5.30211c-1.15317,1.32021 -2.27514,2.64405 -3.3808,3.95803c-1.09385,1.29997 -2.1683,2.59189 -3.23878,3.8624c-1.05802,1.25572 -3.1625,3.6997 -4.21974,4.87835c-1.04672,1.16684 -2.10268,2.30955 -3.15595,3.44383c-1.0507,1.13155 -2.10653,2.25791 -3.15595,3.39595c-1.05468,1.14375 -3.16108,3.48717 -4.20844,4.70033c-1.0602,1.22796 -2.11616,2.48562 -3.18356,3.75873c-1.07946,1.28764 -2.16727,2.59293 -3.2782,3.90224c-1.12261,1.32319 -3.43692,3.98061 -4.64056,5.30263c-1.21571,1.33526 -2.46546,2.6639 -3.74769,3.98593c-1.2952,1.33539 -2.62366,2.6639 -3.98436,3.98593c-1.37443,1.33539 -4.21769,3.98982 -5.67945,5.31496c-1.47319,1.33565 -2.96769,2.66455 -4.45385,4.01382c-1.48847,1.35135 -2.96756,2.71243 -4.40646,4.10945c-1.43299,1.39144 -4.16273,4.26229 -5.43661,5.7504c-1.26502,1.47773 -2.467,2.99321 -3.66088,4.50013c-1.18708,1.49849 -2.35707,2.99788 -3.56624,4.45225c-1.20351,1.44762 -3.73446,4.21169 -5.09503,5.49259c-1.36095,1.28115 -2.78765,2.48822 -4.22899,3.67102c-1.43749,1.17956 -2.89424,2.32188 -4.32363,3.47977c-1.41797,1.14868 -4.15156,3.48522 -5.42428,4.71266c-1.26258,1.21771 -2.46597,2.48666 -3.63327,3.78663c-1.17102,1.30412 -2.30956,2.65248 -3.44398,4.02589c-1.14842,1.39027 -3.46594,4.26632 -4.66509,5.74054c-1.2274,1.509 -2.49268,3.05432 -3.80291,4.63961c-1.35299,1.63706 -2.76056,3.32576 -4.22899,5.07012c-1.52609,1.81287 -4.79659,5.64452 -6.54375,7.67602c-1.81195,2.10675 -3.68419,4.27605 -5.58211,6.52099c-1.93754,2.29178 -3.88895,4.63675 -5.81878,7.04712c-1.94518,2.42944 -5.72343,7.41302 -7.51509,9.96702c-1.78517,2.54479 -3.49387,5.12916 -5.12841,7.74466c-1.62658,2.60279 -3.17759,5.23477 -4.65501,7.88816c-1.46811,2.63665 -4.19669,7.95252 -5.47161,10.61448c-1.26027,2.63146 -2.4503,5.24723 -3.63333,7.80448c-1.15504,2.49678 -2.27989,4.92285 -3.44392,7.23046c-1.11985,2.22016 -3.42639,6.255 -4.66336,8.00948c-1.17815,1.67105 -2.42642,3.18394 -3.6924,4.57979c-1.2265,1.35239 -2.49197,2.60201 -3.73985,3.81453c-1.22791,1.19318 -3.65709,3.53972 -4.81585,4.76015c-1.15921,1.22082 -2.2815,2.47888 -3.3808,3.75873c-1.10027,1.28102 -2.17485,2.58644 -3.23878,3.90224c-1.06463,1.31671 -3.16763,3.97412 -4.21846,5.30082c-1.04261,1.31632 -2.0691,2.61174 -3.07312,3.87434c-0.97108,1.22108 -1.90267,2.38909 -2.78906,3.49158c-0.82841,1.03035 -2.28895,2.82466 -2.91221,3.56878c-0.5518,0.65874 -1.05307,1.24132 -1.51884,1.76175c-0.43302,0.48384 -0.85711,0.93732 -1.2821,1.37912c-0.43405,0.45114 -1.39986,1.42764 -1.95231,1.98414c-0.60118,0.60567 -1.24872,1.25481 -1.94486,1.93717c-0.73358,0.71908 -1.50741,1.46397 -2.32356,2.22418c-0.84241,0.78473 -2.62694,2.37287 -3.56405,3.16487c-0.94944,0.80238 -1.92232,1.59567 -2.90342,2.39156c-0.98437,0.79848 -1.97279,1.59178 -2.9508,2.39156c-0.97166,0.79459 -2.86143,2.38546 -3.76438,3.18913c-0.89243,0.79433 -1.76238,1.60177 -2.61943,2.41945c-0.85949,0.82002 -1.71326,1.65964 -2.5721,2.51508c-0.87342,0.86998 -2.66611,2.68323 -3.60039,3.62548c-0.95933,0.96742 -1.9437,1.95741 -2.9587,2.96155c-1.03625,1.02516 -2.09979,2.06303 -3.19544,3.10505c-1.11349,1.05902 -3.42678,3.1829 -4.6274,4.23881c-1.20846,1.06278 -2.4338,2.10779 -3.6648,3.13295c-1.21751,1.01387 -2.42667,1.99556 -3.61754,2.94157c-1.1551,0.91759 -3.35403,2.61096 -4.38367,3.37831c-0.97635,0.72764 -1.91417,1.40805 -2.81674,2.04876c-0.86655,0.61515 -1.71005,1.19928 -2.53262,1.76175c-0.80446,0.55001 -2.3913,1.61747 -3.17964,2.15022c-0.78963,0.53366 -1.58041,1.07083 -2.36696,1.62227c-0.79149,0.55481 -1.58234,1.12429 -2.36696,1.71789c-0.79348,0.60035 -2.37274,1.87865 -3.15595,2.56257c-0.79489,0.69416 -1.58183,1.41921 -2.36696,2.16436c-0.7929,0.75268 -1.5799,1.52508 -2.36696,2.30787c-0.79098,0.78668 -2.36632,2.38027 -3.1555,3.1759c-0.78526,0.79161 -1.56378,1.57413 -2.33935,2.33576c-0.75952,0.74593 -1.50619,1.46527 -2.24464,2.14438c-0.71001,0.6529 -2.07212,1.81871 -2.72331,2.31539c-0.61171,0.46658 -1.20634,0.87867 -1.77522,1.25157c-0.53594,0.35136 -1.05205,0.66601 -1.53855,0.96456c-0.46031,0.28247 -1.30586,0.81535 -1.6836,1.08692c-0.362,0.26028 -0.69852,0.52743 -1.01384,0.79719c-0.30614,0.26184 -0.5945,0.52951 -0.87182,0.79719c-0.2732,0.26378 -0.80087,0.79719 -1.06386,1.06291c-0.263,0.26573 -0.52599,0.53146 -0.78899,0.79719c-0.263,0.26573 -0.52599,0.53146 -0.78899,0.79719c-0.263,0.26573 -0.7877,0.79848 -1.05243,1.06239c-0.26473,0.26391 -0.53254,0.52549 -0.8166,0.76929c-0.28495,0.24445 -0.5859,0.47489 -0.91124,0.67366c-0.33067,0.20202 -1.07362,0.51822 -1.48333,0.62669c-0.42165,0.11159 -0.85968,0.18463 -1.29783,0.25509c-0.43231,0.06955 -0.85364,0.12638 -1.25058,0.20721c-0.37112,0.07564 -1.00325,0.28311 -1.22817,0.44868c-0.20688,0.15233 -0.36091,0.35396 -0.47732,0.56999c-0.11814,0.21941 -0.20001,0.46412 -0.28804,0.7135c-0.09085,0.25729 -0.30146,0.79122 -0.45626,1.05046c-0.16071,0.2691 -0.35886,0.52886 -0.59174,0.76929c-0.24052,0.24834 -0.51797,0.47644 -0.82847,0.67366c-0.32098,0.20397 -1.06168,0.51848 -1.4719,0.62669c-0.42461,0.11197 -0.87092,0.18541 -1.32544,0.25509c-0.45896,0.07032 -0.91978,0.12845 -1.37283,0.20721c-0.4447,0.07733 -1.28377,0.28869 -1.66042,0.44868c-0.36714,0.15596 -0.71078,0.3537 -1.04145,0.56999c-0.33407,0.21863 -0.65922,0.46412 -0.99413,0.7135c-0.34537,0.25729 -1.08543,0.79057 -1.49598,1.05098c-0.4275,0.27131 -0.881,0.53483 -1.35312,0.79719c-0.48426,0.2691 -0.98456,0.53301 -1.49515,0.79719c-0.51681,0.26742 -1.56642,0.79667 -2.0917,1.06291c-0.52317,0.26521 -1.04171,0.52925 -1.55036,0.79719c-0.50037,0.26352 -0.98765,0.52743 -1.45566,0.79719c-0.45414,0.26184 -1.29469,0.79044 -1.67178,1.0633c-0.36271,0.26248 -0.70134,0.536 -1.01384,0.82508c-0.30916,0.28597 -0.59938,0.59296 -0.87182,0.92071c-0.27834,0.33476 -0.80517,1.08549 -1.06431,1.49965c-0.27057,0.43246 -0.53697,0.89216 -0.8166,1.36718c-0.28926,0.49136 -0.58782,0.99856 -0.91124,1.51068c-0.33228,0.52614 -1.07054,1.58749 -1.48378,2.11389c-0.42127,0.53665 -0.86982,1.06421 -1.32544,1.59437c-0.45787,0.53275 -0.92177,1.06032 -1.37283,1.59437c-0.44663,0.52886 -1.28557,1.58905 -1.65997,2.12531c-0.36534,0.52328 -0.69858,1.04916 -1.01384,1.56647c-0.30621,0.50239 -0.59142,0.99635 -0.87182,1.47085c-0.27019,0.45724 -0.79515,1.30736 -1.06386,1.68909c-0.25754,0.3659 -0.52207,0.70584 -0.78899,1.02438c-0.25921,0.30932 -0.524,0.60074 -0.78899,0.88087c-0.26107,0.27611 -0.78963,0.8086 -1.05153,1.07498c-0.26056,0.26508 -0.51745,0.52873 -0.76138,0.79719c-0.23911,0.26313 -0.46525,0.52679 -0.66667,0.79719c-0.19474,0.26145 -0.50962,0.79342 -0.62025,1.06239c-0.10659,0.25924 -0.18164,0.51965 -0.25247,0.76929c-0.06768,0.23848 -0.12527,0.4671 -0.20514,0.67366c-0.07499,0.19398 -0.29099,0.51783 -0.44361,0.62669c-0.15667,0.11171 -0.34422,0.18554 -0.53646,0.25509c-0.19532,0.07058 -0.39533,0.12806 -0.58384,0.20721c-0.18331,0.07707 -0.50121,0.29375 -0.60843,0.44868c-0.1114,0.16102 -0.18505,0.35889 -0.25247,0.56999c-0.07146,0.22382 -0.12964,0.46515 -0.20514,0.7135c-0.07865,0.25846 -0.29208,0.78966 -0.44361,1.05098c-0.15692,0.27053 -0.34364,0.53275 -0.53646,0.79719c-0.19468,0.26703 -0.39629,0.52886 -0.58384,0.79719c-0.18408,0.26326 -0.4978,0.79342 -0.60843,1.06239c-0.10659,0.25924 -0.18164,0.51965 -0.25247,0.76929c-0.06768,0.23848 -0.12527,0.4671 -0.20514,0.67366c-0.07499,0.19398 -0.29125,0.51744 -0.444,0.62708c-0.15988,0.11483 -0.35655,0.1945 -0.56413,0.28299c-0.22287,0.09498 -0.46429,0.19281 -0.70616,0.33086c-0.2603,0.14856 -0.78828,0.58401 -1.03972,0.8849c-0.27237,0.32593 -0.52291,0.70441 -0.76138,1.11209c-0.24489,0.4187 -0.46653,0.85752 -0.66667,1.30334c-0.19603,0.43661 -0.50737,1.27752 -0.62025,1.66483c-0.10408,0.35707 -0.18004,0.69105 -0.25247,0.99648c-0.0662,0.27909 -0.12386,0.5347 -0.20514,0.75735c-0.07397,0.20267 -0.29099,0.52977 -0.44361,0.63863c-0.15667,0.11171 -0.34422,0.18554 -0.53646,0.25509c-0.19532,0.07058 -0.39533,0.12806 -0.58384,0.20721c-0.18331,0.07707 -0.50076,0.29401 -0.60843,0.44816c-0.11069,0.15843 -0.1837,0.34786 -0.25247,0.5421c-0.06986,0.19735 -0.12675,0.3995 -0.20514,0.58997c-0.07621,0.18515 -0.29099,0.5059 -0.44361,0.61476c-0.15667,0.11171 -0.34422,0.18554 -0.53646,0.25509c-0.19532,0.07058 -0.39533,0.12806 -0.58384,0.20721c-0.18331,0.07707 -0.50256,0.29285 -0.60754,0.44816c-0.10652,0.15765 -0.17092,0.34682 -0.19725,0.5421c-0.02652,0.19709 -0.0138,0.40028 0.03942,0.58997c0.05246,0.18684 0.2664,0.50732 0.42037,0.61424c0.15904,0.11042 0.35462,0.17996 0.56413,0.22719c0.2212,0.04982 0.45909,0.07136 0.70616,0.08369c0.25446,0.01259 0.77711,0.01207 1.0401,0.01207c0.263,0 0.52599,0 0.78899,0c0.263,0 0.52599,0 0.78899,0c0.263,0 0.78899,0 1.05243,0c0.26608,0 0.53742,0 0.8166,0c0.28977,0 0.59264,0 0.9113,0c0.33709,0 1.07696,-0.0013 1.48462,0.00039c0.43392,0.00182 0.89435,0.00688 1.38073,0.0279c0.51309,0.02206 1.05275,0.05981 1.6174,0.12352c0.5927,0.06695 1.85574,0.2835 2.52433,0.43622c0.69569,0.15881 1.40891,0.34838 2.1421,0.5421c0.74924,0.19787 1.50991,0.40274 2.28413,0.58997c0.77923,0.1884 2.35341,0.50629 3.14497,0.61424c0.79361,0.10821 1.60025,0.17944 2.42218,0.22719c0.84202,0.04892 1.71114,0.07149 2.61153,0.08369c0.93711,0.01272 2.94297,0.01207 4.02166,0.01207c1.13398,0 2.32574,0 3.57805,0c1.31543,0 2.6966,0 4.14616,0c1.52051,0 4.78516,0 6.53277,0c1.81863,0 3.70037,0 5.63733,0c1.98428,0 4.00805,0 6.06335,0c2.07899,0 6.27639,-0.0013 8.3808,0.00039c2.10705,0.00182 4.21942,0.00636 6.3395,0.0279c2.1308,0.02167 4.27483,0.05839 6.43421,0.12352c2.17832,0.06578 6.60051,0.2813 8.84804,0.43622c2.27258,0.15674 4.56493,0.34695 6.87603,0.5421c2.32728,0.19644 4.66682,0.40249 7.01805,0.58997c2.35816,0.18801 7.08843,0.50616 9.45596,0.61424c2.36645,0.10808 4.73373,0.17893 7.10088,0.22719c2.36683,0.04827 4.73392,0.07123 7.10088,0.08369c2.36696,0.01233 7.10088,0.00934 9.46656,0.01285c2.35771,0.0035 4.69989,0.01207 7.01805,0.05579c2.28696,0.04321 4.53513,0.11418 6.734,0.24717c2.14602,0.12975 6.24107,0.55481 8.17084,0.87244c1.86466,0.30686 3.65465,0.68638 5.38088,1.08419c1.67345,0.38562 3.28789,0.79887 4.86015,1.17982c1.52763,0.37005 4.47805,1.01036 5.91522,1.2286c1.40705,0.21357 2.79799,0.35733 4.16979,0.45439c1.35389,0.09576 2.69635,0.1426 4.02776,0.16738c1.3232,0.02465 3.95675,0.024 5.27263,0.024c1.32108,0 2.65275,0 4.00015,0c1.36846,0 2.76319,0 4.1895,0c1.46317,0 4.52094,0 6.12698,0c1.66908,0 3.41188,0 5.23885,0c1.92161,0 3.9484,0 6.09096,0c2.26879,0 7.22711,0 9.93117,0c2.83292,0 5.76574,0 8.76958,0c3.04596,0 6.10502,0 9.14828,0c2.99864,0 8.74595,0 11.44423,0c2.5827,0 5.06536,0 7.46391,0c2.33011,0 4.60769,0 6.84842,0c2.21967,0 6.659,-0.00272 8.9059,0.00078c2.26256,0.0035 4.53064,0.0122 6.7932,0.05579c2.24702,0.04334 4.46849,0.11444 6.65104,0.24717c2.13774,0.13001 6.22945,0.55481 8.15903,0.87244c1.8646,0.30699 3.65471,0.68638 5.38088,1.08419c1.67352,0.38562 3.28796,0.799 4.86015,1.17982c1.52776,0.37005 4.47799,1.01062 5.91573,1.2286c1.41001,0.21383 2.80935,0.35759 4.1974,0.45439c1.3806,0.09627 2.763,0.1426 4.15001,0.16738c1.39729,0.02491 4.24479,0.024 5.70308,0.024c1.47678,0 2.96397,0 4.45385,0c1.48462,0 2.95613,0 4.40646,0c1.42156,0 4.14616,0 5.43571,0c1.24217,0 2.44234,0 3.60566,0c1.13173,0 2.23726,0 3.3216,0c1.06868,0 3.1797,-0.00272 4.23246,0.00078c1.05815,0.0035 2.12721,0.01298 3.21129,0.05579c1.10592,0.04373 2.2388,0.11859 3.40045,0.24717c1.2021,0.13312 3.7351,0.5674 5.07281,0.87244c1.39421,0.31789 2.82887,0.69819 4.31182,1.08419c1.52494,0.39704 3.08609,0.80731 4.69052,1.17982c1.63229,0.37887 4.99499,1.01361 6.72077,1.2286c1.74607,0.21759 3.52335,0.35837 5.32566,0.45439c1.8271,0.09731 3.68181,0.14273 5.56246,0.16738c1.90659,0.02504 5.799,0.02271 7.78418,0.02439c2.00881,0.00182 4.03868,0.00636 6.08704,0.0279c2.06403,0.02167 4.14154,0.05813 6.22907,0.12352c2.09587,0.06565 6.30085,0.28013 8.40315,0.43622c2.09857,0.15583 4.18546,0.34527 6.25668,0.5421c2.0508,0.19488 4.07425,0.40054 6.06726,0.58997c1.95539,0.18593 5.73531,0.50486 7.55149,0.61424c1.76752,0.10652 3.49407,0.17854 5.18363,0.22719c1.65759,0.04775 3.28924,0.07123 4.89958,0.08369c1.59467,0.01233 4.75768,0.01207 6.33565,0.01207c1.57797,0 3.15595,0 4.73392,0c1.57797,0 3.15595,0 4.73392,0c1.57797,0 4.73392,0 6.31048,0c1.56886,0 3.12179,0 4.65109,0c1.49784,0 2.95613,0 4.36704,0c1.35581,0 3.87007,0 5.01541,0c1.07433,0 2.08547,0 3.04153,0c0.90867,0 1.77779,0 2.61545,0c0.81403,0 2.40253,0 3.19152,0c0.78899,0 1.57797,0 2.36696,0c0.78899,0 1.57797,0 2.36696,0c0.78899,0 2.36696,0 3.15595,0c0.78899,0 1.57797,0 2.36696,0c0.78899,0 1.57797,0 2.36696,0c0.78899,0 2.36696,0 3.15543,0c0.7859,0 1.56654,0 2.33935,0c0.76228,0 1.51133,0 2.24471,0c0.71489,0 2.07892,0.0013 2.7237,-0.00052c0.62115,-0.00182 1.22136,-0.00584 1.80283,-0.0279c0.56619,-0.02141 1.11966,-0.05761 1.6608,-0.12352c0.53562,-0.06526 1.59313,-0.27974 2.11539,-0.43674c0.52638,-0.1583 1.04415,-0.35175 1.55036,-0.56999c0.503,-0.21681 0.98906,-0.45698 1.45572,-0.7135c0.45562,-0.25042 1.29289,-0.78084 1.67223,-1.05046c0.36393,-0.25859 0.70487,-0.52211 1.04145,-0.76929c0.3281,-0.24095 0.65364,-0.47333 0.99407,-0.67366c0.34017,-0.2002 1.08511,-0.51965 1.49553,-0.62617c0.42454,-0.11016 0.87053,-0.17906 1.32551,-0.22719c0.4587,-0.04853 0.91869,-0.07123 1.37289,-0.08369c0.44342,-0.0122 1.27812,-0.01051 1.6599,-0.01246c0.35815,-0.00182 0.69563,-0.00558 1.01384,-0.0279c0.30332,-0.02128 0.59469,-0.05748 0.87182,-0.12352c0.27378,-0.06526 0.8053,-0.28311 1.06393,-0.43622c0.26788,-0.15855 0.52728,-0.34734 0.78899,-0.5421c0.26428,-0.1967 0.52342,-0.40041 0.78899,-0.58997c0.26056,-0.18593 0.78526,-0.50304 1.05147,-0.61476c0.25657,-0.10769 0.51418,-0.1836 0.76138,-0.25509c0.23603,-0.06825 0.4623,-0.12651 0.66674,-0.20721c0.19198,-0.07577 0.51251,-0.29401 0.62025,-0.44816c0.11069,-0.15843 0.18363,-0.34786 0.25247,-0.5421c0.06986,-0.19722 0.12662,-0.3995 0.20508,-0.58997c0.07628,-0.18515 0.29009,-0.50732 0.44406,-0.61424c0.15898,-0.11042 0.35456,-0.17996 0.56413,-0.22719c0.22113,-0.04982 0.45909,-0.07136 0.70616,-0.08369c0.25452,-0.01259 0.77717,-0.01194 1.04017,-0.01194c0.263,0 0.52599,0 0.78899,0c0.263,0 0.52599,0 0.78899,0c0.263,0 0.78899,0 1.05198,0c0.263,0 0.52599,0 0.78899,0c0.263,0 0.52599,0 0.78899,0c0.263,0 0.78899,0.0013 1.05147,-0.00052c0.25991,-0.00182 0.51508,-0.00571 0.76138,-0.0279c0.2368,-0.02141 0.46281,-0.05566 0.66674,-0.12352c0.19275,-0.0641 0.51251,-0.28208 0.62025,-0.43622c0.11069,-0.15843 0.18363,-0.34786 0.25247,-0.5421c0.06986,-0.19722 0.13317,-0.39691 0.20508,-0.58997l0.08244,-0.18243" id="svg_12" stroke-linecap="null" stroke-linejoin="null" stroke-dasharray="null" stroke-width="65" fill="none"/>
 </g>
</svg>
