<svg width="2048" height="2048" xmlns="http://www.w3.org/2000/svg" xmlns:svg="http://www.w3.org/2000/svg">
 <g class="layer">
  <title>Layer 1</title>
  <path id="svg_1" fill="#000" transform="translate(0,2048) scale(1,-1) " fill-rule="nonzero" d="m524,583q190,48 504,48q308,0 497,-46l25,147q-201,53 -526,53q-327,0 -525,-54l25,-148zm-61,-61l-33,187q-1,0 -3,4q-5,7 -28,18t-55,40q-44,37 -68,60t-45,50q-61,84 -68,203q-10,115 93,229q104,114 281,107q66,-4 155,-32q29,-12 59,-23t61,-24q16,-8 28,-16q-5,21 -5,42q0,78 55,133t134,56q78,0 133,-55t55,-133q0,-16 -4,-42q14,9 27,15q46,20 121,47q86,29 155,33q177,8 280,-107q101,-114 94,-229q-8,-119 -69,-203q-20,-27 -45,-50t-67,-60q-33,-28 -56,-39t-27,-19q-1,-2 -2,-3t-1,-2l-32,-188l66,-247q-50,-45 -224,-74t-402,-29q-232,0 -408,30t-221,77l66,244zm1081,-117l-30,115q-198,44 -490,44q-291,0 -489,-44l-32,-116q191,56 522,56q329,0 519,-55zm26,-94q-193,78 -542,78q-362,0 -548,-80q176,-70 545,-70q176,0 321,19t224,53zm-581,542q-1,39 -3,77t-15,86q-41,134 -124,216q-43,42 -132,78q-102,40 -193,40q-158,0 -234,-113q-43,-60 -43,-150q0,-98 48,-161q29,-37 74,-74t84,-67q175,63 538,68zm35,186q7,28 12,39q10,39 23,66q6,17 17,39t25,52q8,17 17,41t18,49q8,20 8,43q0,49 -35,83t-85,35q-119,0 -119,-119q0,-23 8,-43q22,-65 34,-90q13,-29 24,-51t19,-40q13,-33 22,-66q2,-6 12,-38zm34,-186q172,-2 315,-20t224,-47q38,30 83,66t75,75q48,61 48,161q0,90 -43,150q-77,112 -234,112q-94,0 -193,-39q-87,-35 -132,-78q-84,-84 -124,-216q-14,-47 -16,-85t-3,-79zm1,706l-71,0l0,131l-83,0q-34,0 -34,33l0,1q0,33 34,33l83,0l0,85q0,35 36,35q35,0 35,-35l0,-85l86,0q33,0 33,-33l0,-1q0,-33 -33,-33l-85,-1l-1,-130z"/>
  <g id="svg_2" fill="#fff" fill-rule="nonzero">
   <path id="svg_3" d="m524,1465q190,-48 504,-48q308,0 497,46l25,-147q-201,-53 -526,-53q-327,0 -525,54l25,148z"/>
   <path id="svg_4" d="m1544,1643l-30,-115q-198,-44 -490,-44q-291,0 -489,44l-32,116q191,-56 522,-56q329,0 519,55z"/>
   <path id="svg_5" d="m1570,1737q-193,-78 -542,-78q-362,0 -548,80q176,70 545,70q176,0 321,-19t224,-53z"/>
   <path id="svg_6" d="m989,1195q-1,-39 -3,-77t-15,-86q-41,-134 -124,-216q-43,-42 -132,-78q-102,-40 -193,-40q-158,0 -234,113q-43,60 -43,150q0,98 48,161q29,37 74,74t84,67q175,-63 538,-68z"/>
   <path id="svg_7" d="m1024,1009q7,-28 12,-39q10,-39 23,-66q6,-17 17,-39t25,-52q8,-17 17,-41t18,-49q8,-20 8,-43q0,-49 -35,-83t-85,-35q-119,0 -119,119q0,23 8,43q22,65 34,90q13,29 24,51t19,40q13,33 22,66q2,6 12,38z"/>
   <path id="svg_8" d="m1058,1195q172,2 315,20t224,47q38,-30 83,-66t75,-75q48,-61 48,-161q0,-90 -43,-150q-77,-112 -234,-112q-94,0 -193,39q-87,35 -132,78q-84,84 -124,216q-14,47 -16,85t-3,79z"/>
  </g>
  <path d="m706.99994,1034.49994c3,-3.00665 3.52655,-3.53302 4,-4.17999c0.5307,-0.72516 1.0094,-1.64893 1.25085,-2.17834c0.54297,-1.19049 0.80084,-1.87567 1.10333,-2.59998c0.32404,-0.77576 0.67065,-1.60498 1.07251,-2.47498c0.88275,-1.91125 1.42535,-2.92853 2.0033,-4.00336c0.61096,-1.13629 1.27576,-2.32385 1.97626,-3.57373c0.73615,-1.31348 1.51471,-2.68781 2.31378,-4.13629c1.70844,-3.09686 2.58765,-4.76312 3.49664,-6.49664c0.9411,-1.7948 1.90033,-3.65314 2.88751,-5.565c1.01282,-1.96149 2.04553,-3.97064 3.11249,-6.01501c2.19092,-4.19806 3.33307,-6.33319 4.5,-8.49335c1.18298,-2.18994 2.39581,-4.40228 3.63751,-6.63745c1.25824,-2.26489 2.54395,-4.55347 3.86249,-6.86255c2.68774,-4.70697 4.07739,-7.09344 5.51001,-9.49329c1.44977,-2.42859 2.94818,-4.86749 4.53375,-7.29004c1.60425,-2.45117 3.27515,-4.90375 5.09625,-7.28998c3.71478,-4.86749 5.83325,-7.17987 7.99664,-9.5c2.19318,-2.35205 4.49457,-4.65906 6.85504,-6.96002c2.38611,-2.32593 4.83704,-4.63129 7.30499,-6.95996c4.98737,-4.70587 7.49207,-7.08899 9.98999,-9.50671c2.513,-2.43231 5.02649,-4.89673 7.54877,-7.38745c2.54108,-2.50928 5.09241,-5.04846 7.66125,-7.61255c5.20648,-5.19678 7.8371,-7.83997 10.5033,-10.48999c2.68378,-2.66748 5.39087,-5.33942 8.13751,-7.99121c2.75336,-2.65826 5.52734,-5.30219 8.36249,-7.87878c5.65533,-5.13959 8.56757,-7.58691 11.49335,-9.97998c2.90289,-2.37439 5.83215,-4.65857 8.78998,-6.82874c2.91614,-2.13959 5.83276,-4.18292 8.79004,-6.04126c5.7265,-3.59857 8.63684,-5.09369 11.5,-6.50336c2.80945,-1.38318 5.63348,-2.62573 8.45996,-3.75751c2.80066,-1.12146 5.62103,-2.14514 8.46002,-3.08246c5.68597,-1.87726 8.5882,-2.69324 11.5,-3.50671c2.91669,-0.81488 5.84766,-1.57703 8.78998,-2.26495c2.93127,-0.68536 5.85999,-1.31512 8.79004,-1.815c5.77832,-0.98584 8.6532,-1.26099 11.49329,-1.50336c2.81018,-0.23981 5.59937,-0.38837 8.36255,-0.48376c2.73694,-0.09448 5.44989,-0.13184 8.13745,-0.14624c5.29999,-0.02844 7.91553,-0.01825 10.52338,0.00336c2.61804,0.02167 5.26428,0.07013 7.95374,0.19501c2.75415,0.12793 5.59106,0.31329 8.51624,0.64496c6.23633,0.70703 9.55072,1.33197 12.9967,2.00336c3.56787,0.69513 7.21893,1.50635 10.935,2.40375c3.77753,0.91223 7.58142,1.89813 11.38495,2.96625c7.59003,2.13153 11.30487,3.31104 14.98334,4.48999c3.65405,1.17114 7.27454,2.3869 10.87128,3.63751c3.59332,1.24945 7.17743,2.53662 10.75873,3.86249c7.22003,2.67303 10.84833,4.08264 14.50336,5.49335c3.67322,1.41766 7.35327,2.85327 11.04004,4.28998c3.68665,1.43665 7.36572,2.87506 11.03992,4.29004c7.28821,2.8067 10.90918,4.15106 14.4967,5.51666c3.57336,1.36023 7.13513,2.73444 10.66125,4.20374c3.5376,1.47406 7.07678,3.0127 10.54871,4.76624c7.07983,3.57581 10.5332,5.74896 13.9967,8.01001c3.51599,2.29529 6.98169,4.76904 10.40247,7.38c3.45325,2.63574 6.8562,5.39252 10.17749,8.27997c6.67053,5.79913 9.84009,8.8877 12.98999,11.97668c3.1394,3.07874 6.19641,6.21143 9.17627,9.37878c2.95679,3.14288 5.83484,6.30487 8.61377,9.49121c5.44739,6.24615 8.0022,9.38837 10.4967,12.49335c2.45532,3.05621 4.82129,6.10742 7.08752,9.16125c2.23352,3.00983 4.38757,6.01538 6.41248,9.04877c3.97449,5.95422 5.76306,8.98816 7.5033,12c1.72046,2.97772 3.34558,5.96509 4.88623,8.95123c1.52246,2.95087 2.96863,5.89624 4.32373,8.83875c2.65808,5.77185 3.84729,8.65222 5.00342,11.50336c1.1438,2.82074 2.22217,5.63867 3.22498,8.45996c0.99719,2.80554 1.93787,5.62024 2.77502,8.46002c1.6759,5.68481 2.34985,8.58722 3,11.49664c0.6499,2.90833 1.22327,5.82593 1.72498,8.74127c0.49817,2.89484 0.93408,5.77319 1.27502,8.62872c0.66663,5.58246 0.84375,8.31219 1.00659,10.97668c0.15833,2.59229 0.25806,5.10638 0.32251,7.53003c0.06177,2.32306 0.08777,4.53656 0.09753,6.62994c0.0177,3.78674 0.01379,5.46594 -0.0033,7.02002c-0.01599,1.45435 -0.05029,2.83459 -0.14624,4.16248c-0.09436,1.30579 -0.23645,2.61462 -0.48376,3.9375c-0.53259,2.84888 -1.00256,4.38562 -1.5,6.00671c-0.51941,1.69275 -1.11353,3.41943 -1.76624,5.16003c-0.65735,1.75293 -1.35034,3.48523 -2.10376,5.15991c-1.43835,3.19702 -2.22205,4.63586 -2.99341,5.98999c-0.74036,1.2998 -1.51013,2.52551 -2.29871,3.69385c-0.77515,1.14832 -1.5824,2.2605 -2.41125,3.3562c-1.6864,2.22961 -2.58801,3.35596 -3.5033,4.51331c-0.93469,1.18188 -1.89575,2.38025 -2.88757,3.58875c-1.00806,1.22827 -2.04089,2.46704 -3.11243,3.70129c-2.18164,2.51282 -3.33093,3.75293 -4.5,4.9967c-1.18079,1.25635 -2.3938,2.50623 -3.63757,3.75c-1.25623,1.25623 -2.54114,2.50928 -3.86243,3.75c-2.68237,2.51892 -4.07959,3.75952 -5.50671,4.99658c-1.44458,1.2522 -2.9342,2.49255 -4.48499,3.70129c-1.57581,1.22827 -3.20923,2.44226 -4.93506,3.58875c-3.56152,2.36584 -5.50684,3.43054 -7.5,4.5c-2.03516,1.09204 -4.14636,2.13794 -6.31494,3.16125c-2.20471,1.04028 -4.46326,2.05237 -6.76501,3.04871c-4.68311,2.0271 -7.07886,3.0061 -9.48669,4.00342c-2.42053,1.00269 -4.85327,2 -7.28992,3c-2.43677,1 -4.87024,1.99561 -7.29004,3c-4.797,1.99121 -7.15686,2.99805 -9.4967,3.99658c-2.32104,0.9906 -4.62195,1.97974 -6.91125,2.95129c-2.27405,0.96509 -4.53577,1.92151 -6.79871,2.83875c-4.49341,1.82117 -6.75085,2.66663 -9.0033,3.5033c-2.24756,0.83496 -4.5,1.64673 -6.75,2.46008c-2.25,0.81323 -4.50403,1.62061 -6.75,2.45996c-4.5083,1.68469 -6.75183,2.58948 -9.00342,3.4967c-2.25928,0.91028 -4.52026,1.83752 -6.79871,2.74121c-2.28503,0.90637 -4.58008,1.80725 -6.91125,2.62878c-4.68262,1.65015 -7.08533,2.33862 -9.51001,2.99658c-2.44714,0.66406 -4.94287,1.26367 -7.48499,1.82251c-2.58459,0.56824 -5.22888,1.09644 -7.93506,1.59753c-5.60107,1.03723 -8.51599,1.51038 -11.48663,2.00671c-3.01434,0.50366 -6.06,1 -9.12,1.5c-3.06,0.5 -6.10602,0.99377 -9.12,1.5c-5.88208,0.98792 -8.71936,1.49414 -11.48663,2c-2.70441,0.49438 -5.3476,0.99524 -7.935,1.5c-2.53925,0.49536 -5.03271,0.995 -7.48505,1.5c-4.80865,0.99023 -7.16949,1.49988 -9.50995,1.99658c-2.32037,0.49243 -4.62238,0.98145 -6.91125,1.45129c-2.27448,0.4668 -4.53809,0.92383 -6.79877,1.33875c-4.49811,0.82568 -6.75262,1.16772 -9.00665,1.5033c-2.25684,0.33606 -4.52325,0.64758 -6.79877,0.96008c-2.28778,0.31409 -4.59222,0.6217 -6.91125,0.95996c-4.7063,0.68652 -7.09149,1.08533 -9.49664,1.5033c-2.42316,0.42114 -4.85449,0.87061 -7.29004,1.33875c-2.43781,0.46851 -4.86938,0.95374 -7.28998,1.45129c-4.79559,0.98584 -7.15521,1.49194 -9.47998,1.9967c-2.28186,0.49536 -4.50873,0.99146 -6.66754,1.5c-2.08777,0.49182 -4.09247,0.97839 -5.99249,1.5c-3.4978,0.96033 -5.05499,1.48584 -6.49664,1.99329c-1.34064,0.4718 -2.57178,0.94885 -3.70874,1.40247c-1.05292,0.42004 -2.01776,0.83057 -2.92126,1.17749c-1.60181,0.61511 -2.33215,0.83057 -3.01001,1.00342c-0.6225,0.15881 -1.19971,0.27148 -1.72498,0.37122c-0.47479,0.09021 -0.90533,0.15198 -1.27502,0.25879c-0.61066,0.17651 -0.84113,0.33044 -1.00336,0.5033c-0.14856,0.1582 -0.2417,0.34924 -0.27374,0.54004c-0.03094,0.18445 -0.01447,0.37769 0.06378,0.53992c0.15338,0.31812 0.32776,0.41772 0.49335,0.4967c0.17413,0.08301 0.37555,0.13013 0.58875,0.16125c0.22363,0.03259 0.45911,0.04395 0.70123,0.04871c0.49658,0.00989 0.7475,0.00342 1.00336,0.00342c0.26581,0 0.54663,0 0.84747,0c0.32581,0 0.68164,0 1.07251,0c0.90668,0 1.43335,0 2.01996,0c0.65668,0 1.39337,0 2.22003,0c0.92664,0 1.96332,0 3.12,0c2.71332,0 4.2879,0 6.01001,0c1.86707,0 3.87665,0 6.02625,0c2.28711,0 4.70917,0 7.26373,0c5.4967,0 8.44,0 11.54333,0c3.29834,0 6.82666,0 10.62,0c4.09332,0 8.52167,0 13.32001,0c10.84668,0 16.94666,-0.00562 23.44666,0.01001c6.82501,0.01648 13.90021,0.052 21.15002,0.14624c7.35022,0.09546 14.72662,0.22083 22.04999,0.48364c14.20398,0.50989 20.94635,0.97815 27.44336,1.50671c6.29401,0.51208 12.40778,1.13879 18.37128,1.86377c5.85999,0.7124 11.63696,1.51904 17.35876,2.42627c11.4563,1.81641 17.21631,2.90747 23.00989,3.97998c5.7981,1.07336 11.56702,2.18237 17.2876,3.28125c5.64587,1.08447 11.18823,2.16418 16.61243,3.1687c10.36023,1.91858 15.26624,2.73547 19.97998,3.4967c4.52979,0.73157 8.89331,1.39441 13.09509,2.03247c4.05151,0.61523 7.96655,1.19287 11.745,1.8075c7.21973,1.17432 10.66772,1.82874 14.01331,2.51343c3.25452,0.66602 6.40588,1.3761 9.44995,2.13745c2.95593,0.73938 5.81201,1.51074 8.55005,2.36255c5.22375,1.62524 7.65857,2.56433 10,3.48999c2.25842,0.8927 4.40625,1.81604 6.44995,2.74121c1.95605,0.8855 3.80359,1.77014 5.55005,2.62878c3.20654,1.57654 4.65491,2.31165 6.0166,3.00659c1.29236,0.65955 2.52405,1.30371 3.69385,1.96875c1.14685,0.65198 2.27148,1.32861 3.3562,2.0813c2.25403,1.56421 3.36353,2.51697 4.51672,3.50659c1.19727,1.02747 2.40344,2.12622 3.63745,3.26636c1.26611,1.1698 2.54602,2.38171 3.86255,3.60376c2.69189,2.49878 4.0835,3.74219 5.48657,4.98657c1.40356,1.24475 2.80908,2.474 4.1925,3.70129c1.36316,1.20935 2.69971,2.39526 3.96753,3.58875c2.41174,2.27039 3.48718,3.39954 4.5,4.5033c0.98022,1.06824 1.90076,2.14063 2.78247,3.21008c0.87158,1.05725 1.71545,2.12988 2.5575,3.20996c1.71765,2.20325 2.60388,3.34351 3.51343,4.52002c0.94067,1.21667 1.9093,2.48645 2.88745,3.83252c1.02234,1.40698 2.07288,2.89844 3.11255,4.50745c2.24976,3.48169 3.35205,5.43787 4.48328,7.48328c1.16528,2.10681 2.3009,4.28125 3.3938,6.49878c1.09045,2.21277 2.13025,4.4176 3.05615,6.61133c1.74878,4.14294 2.41125,6.11218 2.99341,7.97656c0.54895,1.75818 0.99243,3.44165 1.34619,5.04761c0.33508,1.52124 0.59509,2.97827 0.78381,4.37244c0.35217,2.60132 0.43396,3.83203 0.51001,5.01672c0.07361,1.14807 0.11255,2.26978 0.11243,3.37122c-0.00012,1.08887 -0.0321,2.17371 -0.11243,3.25879c-0.16382,2.21289 -0.32532,3.34924 -0.50342,4.51001c-0.1825,1.18958 -0.40833,2.4032 -0.68616,3.63745c-0.28503,1.26599 -0.61536,2.55774 -1.0238,3.86255c-0.85059,2.71704 -1.41748,4.0918 -1.99329,5.5033c-0.59143,1.44958 -1.23157,2.92273 -1.87878,4.43628c-0.66272,1.5498 -1.34692,3.13293 -1.99121,4.77368c-1.33032,3.38782 -1.91577,5.17346 -2.4967,6.9967c-0.59106,1.8551 -1.15002,3.75232 -1.70996,5.67749c-0.56665,1.94812 -1.12195,3.92114 -1.71008,5.90247c-1.18713,3.99927 -1.83362,5.99731 -2.50659,7.9967c-0.677,2.01147 -1.39111,4.02661 -2.13757,6.04871c-0.75354,2.04126 -1.53918,4.09509 -2.36243,6.16125c-1.67822,4.21216 -2.58398,6.34155 -3.49341,8.5c-0.91882,2.18079 -1.85547,4.37573 -2.78992,6.58875c-0.93896,2.22363 -1.88025,4.45447 -2.79004,6.70129c-1.81702,4.48718 -2.66321,6.74426 -3.5,8.9967c-0.83496,2.24756 -1.64673,4.5 -2.45996,6.75c-0.81335,2.25 -1.62073,4.50403 -2.46008,6.75c-1.68469,4.5083 -2.58521,6.75354 -3.5033,9c-0.92102,2.25354 -1.87146,4.50232 -2.83875,6.75c-0.96936,2.25232 -1.95667,4.5011 -2.95129,6.75c-1.99133,4.50232 -2.99512,6.75171 -4.0033,9.00659c-1.01355,2.26685 -2.04114,4.54919 -3.09753,6.84753c-1.07019,2.32837 -2.16882,4.68787 -3.32251,7.07251c-2.38013,4.91956 -3.66968,7.4342 -4.99658,9.98328c-1.34058,2.5752 -2.71729,5.1438 -4.12878,7.68384c-1.39856,2.5166 -2.80176,4.97961 -4.24121,7.34619c-2.74121,4.50671 -4.1333,6.55347 -5.48999,8.4834c-1.29431,1.84119 -2.58289,3.5603 -3.86255,5.15991c-1.22119,1.52649 -2.42798,2.95154 -3.63745,4.26001c-2.25964,2.4447 -3.40417,3.5061 -4.50671,4.52332c-1.06958,0.98682 -2.14355,1.92041 -3.20996,2.8313c-1.0603,0.90576 -2.13708,1.79785 -3.21008,2.71875c-2.2179,1.90356 -3.34387,2.94165 -4.5166,4.0033c-1.20972,1.09509 -2.45715,2.2218 -3.78381,3.33008c-1.36328,1.13892 -2.79041,2.28271 -4.34619,3.32996c-3.24597,2.18494 -5.09412,3.09216 -6.9967,3.9967c-1.9541,0.92908 -4.0011,1.78381 -6.10498,2.62122c-2.1427,0.85291 -4.33813,1.66846 -6.55505,2.50879c-4.48962,1.70178 -6.74121,2.59106 -9.0033,3.50989c-2.29224,0.93103 -4.61646,1.90051 -6.99377,2.88757c-2.43933,1.01294 -4.94983,2.06055 -7.55627,3.11243c-5.50757,2.22266 -8.44678,3.34985 -11.5,4.48669c-3.14258,1.17017 -6.37634,2.32715 -9.69373,3.4425c-3.36597,1.13171 -6.78284,2.23108 -10.25623,3.21753c-6.9585,1.9762 -10.47681,2.75916 -13.98999,3.48999c-3.50891,0.72998 -7.04163,1.35559 -10.59753,1.88623c-3.57117,0.53296 -7.17737,0.98364 -10.82251,1.32373c-7.39905,0.69031 -11.18042,0.84595 -15.0033,1.01672c-3.86633,0.17273 -7.77661,0.29395 -11.7262,0.42004c-3.98718,0.1272 -8.01013,0.23938 -12.06384,0.41992c-8.19891,0.36511 -12.33441,0.67236 -16.48993,1c-4.17285,0.32898 -8.35333,0.70667 -12.54004,1.08008c-4.18665,0.37329 -8.36646,0.76062 -12.53998,1.07996c-8.28979,0.6344 -12.40546,0.83203 -16.49664,0.99329c-4.0697,0.1604 -8.12317,0.25903 -12.16125,0.32251c-4.02527,0.06323 -8.04083,0.08789 -12.04877,0.09753c-8.00336,0.01917 -12.00708,0.00671 -16.03333,0.00671c-4.07129,0 -8.21002,0 -12.43878,0c-4.34125,0 -8.8175,0 -13.45123,0c-9.83002,0 -15.05957,0 -20.46667,0c-5.53705,0 -11.15668,0 -16.81122,0c-5.64209,0 -11.22418,0 -16.69879,0c-10.43665,0 -15.31079,0 -19.92999,0c-4.35913,0 -8.45331,0 -12.27747,0c-3.54919,0 -6.81836,0 -9.80255,0c-5.09332,0 -7.1983,0 -9.03333,0c-1.59497,0 -2.97998,0 -4.185,0c-1.05499,0 -1.98999,0 -2.83496,0c-1.54004,0 -2.28961,0 -3.03668,0c-0.74207,0 -1.47668,0 -2.20123,0c-0.7121,0 -1.40918,0 -2.08875,0c-1.29669,0 -1.90918,0 -2.4967,0c-0.5625,0 -1.09998,0 -1.61249,0c-0.48749,0 -0.95001,0 -1.38751,0c-0.79999,0 -1.16333,0 -1.50665,0c-0.32831,0 -0.64667,0 -0.96002,0c-0.31329,0 -0.63165,0 -0.95996,0c-0.70667,0 -1.09375,0 -1.50336,0c-0.42957,0 -0.87665,0 -1.33875,0c-0.47461,0 -0.95917,0 -1.45123,0c-0.9967,0 -1.4967,0 -1.9967,0c-0.5,0 -1,0 -1.5,0c-0.5,0 -1,0 -1.5,0c-1,0 -1.5,0 -2,0c-0.5,0 -1,0 -1.5,0c-0.5,0 -1,0 -1.5,0c-1,0 -1.5,0 -2,0c-0.5,0 -1,0 -1.5,0c-0.5,0 -1,0 -1.5,0c-1,0 -1.50043,0 -2.0033,0c-0.50793,0 -1.02338,0 -1.54877,0c-0.5379,0 -1.09082,0 -1.66125,0c-1.20331,0 -1.8396,0 -2.49335,0c-0.66376,0 -1.32996,0 -1.99121,0l-0.64874,0l-0.62878,0l-0.60126,0" id="svg_14" stroke-linecap="null" stroke-linejoin="null" stroke-dasharray="null" stroke-width="65" stroke="#bf0000" fill="none"/>
 </g>
</svg>
