<?xml version="1.0" encoding="UTF-8" standalone="no"?>
<svg
   xmlns:dc="http://purl.org/dc/elements/1.1/"
   xmlns:cc="http://creativecommons.org/ns#"
   xmlns:rdf="http://www.w3.org/1999/02/22-rdf-syntax-ns#"
   xmlns:svg="http://www.w3.org/2000/svg"
   xmlns="http://www.w3.org/2000/svg"
   xmlns:sodipodi="http://sodipodi.sourceforge.net/DTD/sodipodi-0.dtd"
   xmlns:inkscape="http://www.inkscape.org/namespaces/inkscape"
   height="100%"
   width="100%"
   version="1.1"
   viewBox="0 0 2048 2048"
   id="svg18"
   sodipodi:docname="wk_3.svg"
   inkscape:version="0.92.4 5da689c313, 2019-01-14">
  <metadata
     id="metadata24">
    <rdf:RDF>
      <cc:Work
         rdf:about="">
        <dc:format>image/svg+xml</dc:format>
        <dc:type
           rdf:resource="http://purl.org/dc/dcmitype/StillImage" />
        <dc:title></dc:title>
      </cc:Work>
    </rdf:RDF>
  </metadata>
  <defs
     id="defs22" />
  <sodipodi:namedview
     pagecolor="#ffffff"
     bordercolor="#666666"
     borderopacity="1"
     objecttolerance="10"
     gridtolerance="10"
     guidetolerance="10"
     inkscape:pageopacity="0"
     inkscape:pageshadow="2"
     inkscape:window-width="960"
     inkscape:window-height="1060"
     id="namedview20"
     showgrid="false"
     inkscape:zoom="0.4609375"
     inkscape:cx="1041.3559"
     inkscape:cy="1024"
     inkscape:window-x="0"
     inkscape:window-y="20"
     inkscape:window-maximized="0"
     inkscape:current-layer="svg18" />
  <path
     style="color:black;"
     d="m524 583q190 48 504 48 308 0 497-46l25 147q-201 53-526 53-327 0-525-54l25-148zm-61-61l-33 187q-1 0-3 4-5 7-28 18t-55 40q-44 37-68 60t-45 50q-61 84-68 203-10 115 93 229 104 114 281 107 66-4 155-32 29-12 59-23t61-24q16-8 28-16-5 21-5 42 0 78 55 133t134 56q78 0 133-55t55-133q0-16-4-42 14 9 27 15 46 20 121 47 86 29 155 33 177 8 280-107 101-114 94-229-8-119-69-203-20-27-45-50t-67-60q-33-28-56-39t-27-19q-1-2-2-3t-1-2l-32-188 66-247q-50-45-224-74t-402-29q-232 0-408 30t-221 77l66 244zm1081-117l-30 115q-198 44-490 44-291 0-489-44l-32-116q191 56 522 56 329 0 519-55zm26-94q-193 78-542 78-362 0-548-80 176-70 545-70 176 0 321 19t224 53zm-581 542q-1 39-3 77t-15 86q-41 134-124 216-43 42-132 78-102 40-193 40-158 0-234-113-43-60-43-150 0-98 48-161 29-37 74-74t84-67q175 63 538 68zm35 186q7 28 12 39 10 39 23 66 6 17 17 39t25 52q8 17 17 41t18 49q8 20 8 43 0 49-35 83t-85 35q-119 0-119-119 0-23 8-43 22-65 34-90 13-29 24-51t19-40q13-33 22-66 2-6 12-38zm34-186q172-2 315-20t224-47q38 30 83 66t75 75q48 61 48 161 0 90-43 150-77 112-234 112-94 0-193-39-87-35-132-78-84-84-124-216-14-47-16-85t-3-79zm1 706h-71v131h-83q-34 0-34 33v1q0 33 34 33h83v85q0 35 36 35 35 0 35-35v-85h86q33 0 33-33v-1q0-33-33-33l-85-1-1-130z"
     fill-rule="nonzero"
     transform="translate(0,2048) scale(1,-1)"
     display="block"
     fill="#000"
     id="path2" />
  <g
     fill-rule="nonzero"
     fill="#fff"
     id="g16">
    <path
       style="color:black;"
       d="m524 1465q190-48 504-48 308 0 497 46l25-147q-201-53-526-53-327 0-525 54l25 148z"
       display="block"
       id="path4" />
    <path
       style="color:black;"
       d="m1544 1643-30-115q-198-44-490-44-291 0-489 44l-32 116q191-56 522-56 329 0 519 55z"
       display="block"
       id="path6" />
    <path
       style="color:black;"
       d="m1570 1737q-193-78-542-78-362 0-548 80 176 70 545 70 176 0 321-19t224-53z"
       display="block"
       id="path8" />
    <path
       style="color:black;"
       d="m989 1195q-1-39-3-77t-15-86q-41-134-124-216-43-42-132-78-102-40-193-40-158 0-234 113-43 60-43 150 0 98 48 161 29 37 74 74t84 67q175-63 538-68z"
       display="block"
       id="path10" />
    <path
       style="color:black;"
       d="m1024 1009q7-28 12-39 10-39 23-66 6-17 17-39t25-52q8-17 17-41t18-49q8-20 8-43 0-49-35-83t-85-35q-119 0-119 119 0 23 8 43 22 65 34 90 13 29 24 51t19 40q13 33 22 66 2 6 12 38z"
       display="block"
       id="path12" />
    <path
       style="color:black;"
       d="m1058 1195q172 2 315 20t224 47q38-30 83-66t75-75q48-61 48-161 0-90-43-150-77-112-234-112-94 0-193 39-87 35-132 78-84 84-124 216-14 47-16 85t-3 79z"
       display="block"
       id="path14" />
  </g>
  <path
     style="fill:#d40000;stroke-width:8.67796612"
     d="m 383.03567,1205.1689 c -105.99809,-88.475 -133.59261,-139.9162 -132.45004,-246.9108 0.7615,-71.31086 10.26284,-101.85753 48.49408,-155.90774 90.63834,-128.14186 326.68084,-133.11317 511.16521,-10.7657 87.7216,58.17575 161.45674,201.26075 173.65637,336.98484 l 6.04518,67.2542 h -77.79149 c -137.59645,0 -267.76383,16.5969 -449.61939,57.3285 -11.93079,2.6722 -36.78099,-12.3265 -79.49992,-47.9833 z"
     id="path26"
     inkscape:connector-curvature="0" />
  <path
     style="fill:#d40000;stroke-width:2.16949153"
     d="m 1023.098,1002.8244 c -0.6775,-1.1209 -6.2361,-18.40831 -12.3523,-38.41654 -13.5295,-44.25981 -18.81578,-57.60776 -41.01101,-103.55362 -24.33058,-50.3662 -35.75157,-77.84691 -50.49194,-121.49153 -12.45091,-36.86578 -12.82262,-38.63195 -12.82586,-60.9411 -0.008,-58.03461 20.95278,-92.31699 66.33952,-108.49934 18.35289,-6.54361 61.59379,-8.18771 81.18259,-3.08672 42.3667,11.03247 78.1519,47.20205 86.5517,87.4814 3.0793,14.76649 3.0602,36.18274 -0.045,50.66341 -4.2899,20.00332 -31.4912,89.35794 -51.9743,132.51796 -32.8133,69.14108 -42.0349,92.75637 -60.3231,154.47857 -2.0999,7.08697 -4.3723,11.96831 -5.0499,10.84751 z"
     id="path80"
     inkscape:connector-curvature="0" />
  <path
     style="fill:#d40000;stroke-width:2.16949153"
     d="m 1582.2102,1256.5102 c -16.3805,-6.0871 -73.7866,-20.1735 -108.5261,-26.6302 -99.4707,-18.4879 -230.5638,-30.9936 -358.4489,-34.1945 l -56.941,-1.4252 1.2075,-31.6522 c 1.6137,-42.3002 4.7741,-76.0986 8.8425,-94.5674 25.871,-117.4415 93.4663,-230.03568 168.4956,-280.66494 58.8124,-39.68618 147.2369,-72.8644 222.7941,-83.59571 99.9596,-14.19717 183.3851,2.31878 244.5612,48.4164 73.0539,55.04772 107.6219,143.81261 95.9646,246.4205 -7.5264,66.24675 -27.6711,106.98275 -77.9199,157.56735 -29.2775,29.4731 -120.8793,103.9682 -127.5176,103.7035 -2.1087,-0.084 -7.7391,-1.604 -12.512,-3.3776 z"
     id="path82"
     inkscape:connector-curvature="0" />
  <path
     style="fill:#d40000;stroke-width:2.16949153"
     d="m 523.71649,1458.2034 c -2.72413,-12.9368 -22.98234,-134.3369 -22.9899,-137.7701 -0.006,-2.7963 5.23562,-4.8582 23.31409,-9.1708 103.76361,-24.7526 214.20574,-38.3875 363.9322,-44.93 64.65922,-2.8253 271.14642,-1.4239 325.42372,2.2087 55.9198,3.7426 112.5185,8.8365 148.6102,13.3752 82.0004,10.3118 186.5763,30.9559 186.5763,36.8316 0,2.1857 -20.8237,126.1816 -23.0531,137.2712 -1.0859,5.4011 -1.935,5.9718 -6.9898,4.6979 -18.3608,-4.6275 -71.4044,-14.6907 -102.2961,-19.4072 -219.1793,-33.4637 -557.65457,-33.412 -776.678,0.1186 -29.93191,4.5823 -92.58594,16.9336 -109.88612,21.6624 -3.81306,1.0422 -4.90296,0.149 -5.96349,-4.8875 z"
     id="path124"
     inkscape:connector-curvature="0" />
  <path
     style="fill:#d40000;stroke-width:2.16949153"
     d="m 505.05763,1640.4568 c 0,-2.85 28.7634,-106.0808 30.4604,-109.3213 2.91844,-5.5729 86.78436,-20.4362 170.21756,-30.1671 93.98556,-10.9617 184.0627,-15.2765 318.91521,-15.2765 154.3218,0 262.08,6.322 370.9831,21.7649 38.9791,5.5274 114.4694,19.4237 116.6893,21.4802 1.9339,1.7915 30.5796,110.6645 29.4188,111.8115 -0.4137,0.4088 -9.5386,-1.6223 -20.2776,-4.5135 -91.8527,-24.729 -216.1881,-40.353 -370.983,-46.618 -69.6677,-2.8196 -248.40426,-1.5074 -305.89835,2.2458 -132.63985,8.6587 -218.79153,20.581 -307.70382,42.5826 -33.34666,8.2517 -31.8216,7.9636 -31.8216,6.0114 z"
     id="path126"
     inkscape:connector-curvature="0" />
  <path
     style="fill:#d40000;stroke-width:2.16949153"
     d="m 944.37966,1807.6245 c -162.11927,-4.3896 -293.97163,-19.7018 -390.14394,-45.308 -24.66634,-6.5675 -67.00325,-20.4318 -69.40358,-22.7279 -4.2441,-4.0599 79.66133,-30.935 135.20854,-43.3076 166.5121,-37.0889 431.70582,-47.2746 651.93222,-25.0399 100.314,10.128 197.9216,30.2857 269.2934,55.6139 30.4753,10.815 30.6878,10.4163 -13.0351,24.4615 -82.7736,26.5897 -207.0855,45.3782 -351.7159,53.1585 -43.8655,2.3597 -188.7201,4.325 -232.13564,3.1495 z"
     id="path128"
     inkscape:connector-curvature="0" />
</svg>
