<?xml version="1.0" encoding="UTF-8" standalone="no"?>
<!-- Created with Inkscape (http://www.inkscape.org/) -->

<svg
   xmlns:dc="http://purl.org/dc/elements/1.1/"
   xmlns:cc="http://creativecommons.org/ns#"
   xmlns:rdf="http://www.w3.org/1999/02/22-rdf-syntax-ns#"
   xmlns:svg="http://www.w3.org/2000/svg"
   xmlns="http://www.w3.org/2000/svg"
   xmlns:sodipodi="http://sodipodi.sourceforge.net/DTD/sodipodi-0.dtd"
   xmlns:inkscape="http://www.inkscape.org/namespaces/inkscape"
   width="210mm"
   height="297mm"
   viewBox="0 0 210 297"
   version="1.1"
   id="svg160"
   inkscape:version="0.92.4 5da689c313, 2019-01-14"
   sodipodi:docname="shift_3.svg">
  <defs
     id="defs154" />
  <sodipodi:namedview
     id="base"
     pagecolor="#ffffff"
     bordercolor="#666666"
     borderopacity="1.0"
     inkscape:pageopacity="0.0"
     inkscape:pageshadow="2"
     inkscape:zoom="0.35"
     inkscape:cx="405.71429"
     inkscape:cy="560"
     inkscape:document-units="mm"
     inkscape:current-layer="layer1"
     showgrid="false"
     inkscape:window-width="960"
     inkscape:window-height="1060"
     inkscape:window-x="0"
     inkscape:window-y="20"
     inkscape:window-maximized="0" />
  <metadata
     id="metadata157">
    <rdf:RDF>
      <cc:Work
         rdf:about="">
        <dc:format>image/svg+xml</dc:format>
        <dc:type
           rdf:resource="http://purl.org/dc/dcmitype/StillImage" />
        <dc:title />
      </cc:Work>
    </rdf:RDF>
  </metadata>
  <g
     inkscape:label="Layer 1"
     inkscape:groupmode="layer"
     id="layer1">
    <path
       style="fill:#000000;stroke:none;stroke-width:0.07761112"
       d="M 92.521149,10.397783 C 63.416988,12.726116 37.10682,20.952895 15.22049,34.612449 c -4.191,2.638779 -7.838723,5.122334 -8.071556,5.510388 -0.232833,0.310446 -0.388056,7.295446 -0.310444,15.367 0,11.408835 -0.155232,14.590891 -0.931335,14.202833 -0.6985,-0.388052 -0.6985,-0.310442 0.07762,0.543281 0.620891,0.6985 0.931335,3.725335 0.931335,9.0805 0,6.208886 -0.232835,7.838719 -0.931335,7.450661 -0.776109,-0.465666 -0.776109,-0.388052 -0.07762,0.543281 0.620891,0.776109 0.931335,4.113386 0.853723,9.701386 v 8.459611 l 40.823442,0.23284 40.823444,0.15521 V 95.61477 c 0,-20.101276 3.880555,-27.319109 14.668506,-27.163886 4.65667,0 10.63273,1.940277 9.85661,3.182058 -0.23285,0.388052 0.0777,1.086552 0.6985,1.629835 0.62089,0.543275 1.16415,0.6985 1.16415,0.388051 0,-0.310444 0.54329,-0.15521 1.16418,0.388056 0.6985,0.543277 1.08656,1.47461 0.85373,2.0955 -0.23285,0.620893 -0.15532,0.931335 0.23283,0.6985 0.62088,-0.465665 1.70744,1.707444 2.87161,5.665609 0.77612,2.949226 0.54327,17.074445 -0.38806,21.265447 -2.01788,8.69244 -5.82082,12.65061 -14.43567,14.90133 -3.4925,0.85372 -8.925271,1.16417 -23.050502,1.16417 H 63.572209 v 15.67744 c 0,8.69245 -0.07762,20.79978 -0.232833,27.00867 l -0.155232,11.25361 16.686388,-0.15523 c 22.740058,-0.15523 29.492238,1.16417 35.545888,6.90739 2.40594,2.40595 3.4149,4.42384 1.55223,3.25967 -0.54329,-0.31045 -0.62088,-0.23283 -0.31044,0.38805 0.31044,0.46567 0.85371,0.6985 1.16415,0.46567 1.16417,-0.6985 3.33729,6.44172 2.794,9.0805 -0.38804,2.01789 -0.31044,2.32833 0.38806,1.397 1.47461,-1.94028 0.46567,20.48934 -1.08656,25.45646 -1.62983,4.96709 -5.74321,9.85659 -9.54615,11.09836 -4.03579,1.31938 -12.184941,0.54329 -14.746121,-1.31938 -2.94923,-2.25071 -5.43277,-6.82977 -6.208883,-11.48645 -0.310442,-2.17309 -0.620884,-4.34621 -0.6985,-4.73426 -0.07766,-0.46568 -0.1551,-6.59695 -0.232848,-13.73718 l -0.07766,-12.96105 -40.512995,0.15523 -40.59061,0.15523 -0.465665,8.92528 c -0.232835,4.88951 -0.465667,8.4596 -0.543279,7.83872 -0.07762,-0.62089 -0.388056,-0.85371 -0.620888,-0.62089 -0.310444,0.31045 -0.15521,0.93133 0.310444,1.47462 1.241779,1.55221 1.241779,33.45038 0,32.75188 -0.776112,-0.46567 -0.853721,-0.31044 0,0.54327 0.620888,0.6985 0.931335,3.72533 0.931335,9.0805 0,6.20889 -0.232835,7.83873 -0.931335,7.45068 -0.776112,-0.46568 -0.6985,-0.23285 0,0.62088 0.620888,0.85373 0.931335,2.63877 0.6985,4.81188 -0.15521,1.94029 -0.07762,3.41489 0.155232,3.33729 0.931333,-0.23284 3.958165,1.86266 3.570112,2.56116 -0.232835,0.38805 0,0.93134 0.465665,1.24179 0.620888,0.31044 0.6985,0.23282 0.388056,-0.31045 -0.853721,-1.397 -0.310445,-1.16417 5.976055,2.63877 3.259666,1.94029 9.468556,5.12233 13.892387,7.06262 4.423834,1.94027 8.149167,3.88056 8.226779,4.26861 0.155232,0.31045 0.620888,0.46566 1.008944,0.1551 0.388056,-0.23282 3.570111,0.46568 7.140221,1.55224 16.143111,5.04471 35.545899,7.52826 58.751614,7.60588 18.08338,0.0777 30.34594,-1.00894 41.52194,-3.64773 18.47144,-4.34621 29.80267,-10.16704 39.96973,-20.48933 9.70138,-9.85661 14.6685,-19.63561 18.23862,-35.77871 1.70744,-7.91632 2.40594,-30.19073 1.24176,-39.19362 -3.10444,-23.28333 -15.83267,-40.51299 -34.925,-47.34278 -2.40594,-0.85371 -2.56117,-1.08655 -1.24176,-1.55221 7.37303,-2.71639 13.65953,-6.67456 19.09232,-12.02973 10.16706,-10.01183 14.35806,-20.955 15.21177,-39.581665 C 207.30794,45.710837 183.63656,18.779783 135.44006,11.561951 125.273,10.087339 104.08517,9.4664512 92.521109,10.397783 Z M 114.79553,72.48667 c 0,0.388058 -0.1551,0.776116 -0.31044,0.776116 -0.23282,0 -0.62088,-0.388058 -0.85371,-0.776116 -0.23285,-0.465668 -0.0777,-0.77611 0.31044,-0.77611 0.46568,0 0.85371,0.310442 0.85371,0.77611 z"
       id="path6"
       inkscape:connector-curvature="0" />
  </g>
</svg>
