<?xml version="1.0" encoding="UTF-8" standalone="no"?>
<!-- Created with Inkscape (http://www.inkscape.org/) -->

<svg
   xmlns:dc="http://purl.org/dc/elements/1.1/"
   xmlns:cc="http://creativecommons.org/ns#"
   xmlns:rdf="http://www.w3.org/1999/02/22-rdf-syntax-ns#"
   xmlns:svg="http://www.w3.org/2000/svg"
   xmlns="http://www.w3.org/2000/svg"
   xmlns:sodipodi="http://sodipodi.sourceforge.net/DTD/sodipodi-0.dtd"
   xmlns:inkscape="http://www.inkscape.org/namespaces/inkscape"
   width="210mm"
   height="297mm"
   viewBox="0 0 210 297"
   version="1.1"
   id="svg42"
   inkscape:version="0.92.4 5da689c313, 2019-01-14"
   sodipodi:docname="shift_1.svg">
  <defs
     id="defs36" />
  <sodipodi:namedview
     id="base"
     pagecolor="#ffffff"
     bordercolor="#666666"
     borderopacity="1.0"
     inkscape:pageopacity="0.0"
     inkscape:pageshadow="2"
     inkscape:zoom="0.35"
     inkscape:cx="405.71429"
     inkscape:cy="560"
     inkscape:document-units="mm"
     inkscape:current-layer="layer1"
     showgrid="false"
     inkscape:window-width="960"
     inkscape:window-height="1060"
     inkscape:window-x="0"
     inkscape:window-y="20"
     inkscape:window-maximized="0" />
  <metadata
     id="metadata39">
    <rdf:RDF>
      <cc:Work
         rdf:about="">
        <dc:format>image/svg+xml</dc:format>
        <dc:type
           rdf:resource="http://purl.org/dc/dcmitype/StillImage" />
        <dc:title />
      </cc:Work>
    </rdf:RDF>
  </metadata>
  <g
     inkscape:label="Layer 1"
     inkscape:groupmode="layer"
     id="layer1">
    <path
       style="fill:#000000;stroke:none;stroke-width:0.07761112"
       d="M 58.349428,36.064396 V 59.96862 l 2.716384,1.785055 c 2.483558,1.552221 4.03579,4.113389 1.785058,2.794 -0.620884,-0.310446 -0.776094,-0.232834 -0.388058,0.155232 0.388058,0.388056 1.086558,0.6985 1.552232,0.6985 0.543268,0 0.853732,0.620889 0.853732,1.397 -0.07766,0.6985 0.1551,1.164168 0.465652,0.931333 0.853732,-0.543277 1.707442,3.337277 1.086558,4.423835 -0.388058,0.543274 -0.15532,0.62089 0.465674,0.232832 0.6985,-0.465667 0.931326,0.07762 0.620884,2.17311 -0.15532,1.552223 0,2.561165 0.310442,2.405948 0.388058,-0.232834 0.620884,31.975775 0.620884,71.635055 0,75.12756 -0.07766,75.90365 -3.337268,82.19015 -0.6985,1.31941 -2.483558,3.18208 -3.958174,4.26864 l -2.794,1.86263 v 24.21467 24.29227 h 52.309882 52.30991 l 0.38806,-1.62982 c 0.23282,-0.93133 0.46565,-11.8745 0.46565,-24.29227 l 0.0777,-22.58485 -3.18206,-2.17309 c -2.01788,-1.397 -3.80294,-3.4925 -4.81188,-5.82085 L 154.19925,225.28029 153.9664,118.72023 153.8113,12.237787 H 106.08028 58.349428 Z"
       id="path8"
       inkscape:connector-curvature="0" />
  </g>
</svg>
