<?xml version="1.0" encoding="UTF-8" standalone="no"?>
<!-- Created with Inkscape (http://www.inkscape.org/) -->

<svg
   xmlns:dc="http://purl.org/dc/elements/1.1/"
   xmlns:cc="http://creativecommons.org/ns#"
   xmlns:rdf="http://www.w3.org/1999/02/22-rdf-syntax-ns#"
   xmlns:svg="http://www.w3.org/2000/svg"
   xmlns="http://www.w3.org/2000/svg"
   xmlns:sodipodi="http://sodipodi.sourceforge.net/DTD/sodipodi-0.dtd"
   xmlns:inkscape="http://www.inkscape.org/namespaces/inkscape"
   width="210mm"
   height="297mm"
   viewBox="0 0 210 297"
   version="1.1"
   id="svg294"
   inkscape:version="0.92.4 5da689c313, 2019-01-14"
   sodipodi:docname="shift_5.svg">
  <defs
     id="defs288" />
  <sodipodi:namedview
     id="base"
     pagecolor="#ffffff"
     bordercolor="#666666"
     borderopacity="1.0"
     inkscape:pageopacity="0.0"
     inkscape:pageshadow="2"
     inkscape:zoom="0.35"
     inkscape:cx="405.71429"
     inkscape:cy="560"
     inkscape:document-units="mm"
     inkscape:current-layer="layer1"
     showgrid="false"
     inkscape:window-width="960"
     inkscape:window-height="1060"
     inkscape:window-x="0"
     inkscape:window-y="20"
     inkscape:window-maximized="0" />
  <metadata
     id="metadata291">
    <rdf:RDF>
      <cc:Work
         rdf:about="">
        <dc:format>image/svg+xml</dc:format>
        <dc:type
           rdf:resource="http://purl.org/dc/dcmitype/StillImage" />
        <dc:title />
      </cc:Work>
    </rdf:RDF>
  </metadata>
  <g
     inkscape:label="Layer 1"
     inkscape:groupmode="layer"
     id="layer1">
    <path
       style="fill:#000000;stroke:none;stroke-width:0.07761112"
       d="m 8.8831786,16.031897 c -0.388056,1.862668 -0.465667,3.414889 -0.232832,3.570112 0.543276,0.232833 0.310444,7.062609 -0.310445,7.6835 -0.232834,0.232833 -0.07762,1.008944 0.310445,1.707444 0.388055,0.77611 0.388055,1.785056 0,2.328333 -0.310445,0.620888 -0.310445,2.0955 0,3.337277 0.465665,1.474612 0.388055,2.017888 -0.155232,1.707444 -0.543277,-0.310444 -0.543277,0 -0.07762,0.931333 0.388055,0.853723 0.62089,3.725335 0.465667,6.519335 -0.232833,5.588 -0.232833,7.295444 0.07762,12.417776 0.155232,1.940277 -0.155232,3.958167 -0.620888,4.579056 -0.620889,0.853721 -0.620889,1.008944 0.07762,0.620888 0.6985,-0.465667 0.853721,0.388056 0.543276,3.4925 -0.232832,2.250723 -0.620888,4.346223 -0.853723,4.656668 -0.15521,0.388055 0,0.620888 0.310447,0.620888 0.388053,0 0.543276,1.62983 0.465665,3.647721 -0.15521,2.0955 -0.310444,4.191 -0.232833,4.656667 0,1.164168 0,2.0955 0,6.208891 0,1.629833 0.07762,4.268609 0.232833,5.898442 0.07762,1.629835 -0.07762,3.337277 -0.388056,3.880558 -0.310444,0.465667 -0.15521,1.319384 0.232835,1.862667 0.543277,0.620884 0.543277,1.397 0,2.405942 -0.465668,0.853724 -0.620891,1.707441 -0.388056,1.940271 0.776112,0.77612 0.776112,9.46856 -0.07762,10.55512 -0.543277,0.85372 -0.543277,1.00894 0.15521,0.62088 0.620891,-0.38805 0.853723,0.0776 0.6985,1.55223 -0.15521,1.24177 -0.310444,3.18206 -0.388054,4.34622 -0.07762,1.47461 -0.388055,2.01789 -1.008946,1.70745 -0.543277,-0.31045 -0.465665,-0.0776 0.155232,0.54327 0.853723,0.6985 1.164167,2.0955 1.008944,4.50145 -0.15521,1.94028 -0.232832,3.95817 -0.232832,4.42383 0,2.48355 0,3.4925 0,6.20889 0,1.62983 0.07762,4.26861 0.15521,5.89843 0.155232,1.62985 0,3.33729 -0.310445,3.88056 -0.310444,0.46567 -0.15521,1.31941 0.232835,1.86267 0.543277,0.62089 0.543277,1.397 0,2.40595 -0.465667,0.85373 -0.62089,1.70744 -0.388056,1.94029 0.77611,0.77609 0.77611,9.46853 -0.07762,10.55509 -0.620888,0.93135 -0.543279,1.00894 0.310445,0.46567 0.853723,-0.46567 1.008944,-0.31044 0.620888,0.62089 -0.232833,0.77611 -0.232833,1.31938 0.07762,1.31938 1.2417774,0.0777 66.3575004,0.0777 73.2648754,0 h 7.528268 l 2.328348,-3.41488 c 5.432765,-7.83871 15.134156,-9.54615 22.817656,-4.11339 1.3194,0.85374 2.0179,1.94027 1.78506,2.63877 -0.23283,0.62091 -0.15532,0.85373 0.31044,0.62091 1.00896,-0.62091 2.7164,3.02682 3.80296,7.99394 0.54327,2.48356 0.85371,12.80583 0.85371,25.92212 0,24.91315 -0.62088,29.18176 -5.12232,33.60561 -5.27756,5.27754 -15.13418,5.12233 -20.644561,-0.31046 -4.501445,-4.57904 -5.976061,-12.34015 -6.053677,-32.131 V 182.74056 H 49.784235 c -35.313056,0 -40.3577774,0.15532 -40.4353884,1.16417 -0.07762,1.16415 -0.310445,2.17312 -0.6985,3.25965 -0.07762,0.38806 -0.07762,0.93135 0,1.397 0.465665,2.01791 0.388055,5.97606 -0.155232,6.82979 -0.310445,0.46568 -0.15521,1.31939 0.232834,1.86268 0.543277,0.62088 0.543277,1.397 0,2.40594 -0.465667,0.85371 -0.62089,1.70744 -0.388055,1.94027 0.776109,0.77611 0.776109,9.46855 -0.07762,10.55511 -0.543279,0.85373 -0.543279,1.00894 0.15521,0.62089 0.62089,-0.38806 0.853723,0.0777 0.6985,1.55223 -0.15521,1.24177 -0.310445,3.18206 -0.388054,4.34621 -0.07762,1.47461 -0.388056,2.0179 -1.008946,1.70746 -0.543277,-0.31046 -0.465666,-0.0777 0.155232,0.54327 1.319388,1.08656 1.552221,6.51933 0.388055,8.382 -0.388055,0.62088 -0.310444,0.85373 0.232833,0.46567 0.543279,-0.31044 0.776112,0.23283 0.620888,1.62983 -0.15521,1.24177 -0.388055,2.17309 -0.465665,2.17309 -0.07762,0 -0.155232,1.16418 -0.232835,2.56118 -0.07762,1.31938 0,2.48356 0.310445,2.48356 0.232834,0 0.232834,1.62982 0.155232,3.64773 -0.155232,2.0955 -0.310445,4.191 -0.232833,4.65665 0,2.01788 0,3.02685 -0.07762,5.66562 -0.155232,4.8895 0,5.19994 4.3462214,8.14917 2.328335,1.62983 4.035779,3.25965 3.802944,3.57009 -0.232832,0.38806 0.232835,0.46568 0.931335,0.15532 0.931333,-0.31044 1.164165,-0.23282 0.776112,0.46568 -0.310447,0.46565 -0.310447,0.77609 0.07762,0.6985 1.164165,-0.31044 4.113388,1.00894 3.725332,1.70744 -0.232832,0.38806 0,0.93133 0.465668,1.24177 0.620888,0.38806 0.6985,0.23285 0.310444,-0.46565 -0.6985,-1.16418 -1.319391,-1.47462 10.167053,4.42382 16.143112,8.22677 32.519047,13.03865 55.414335,16.14312 6.131269,0.85371 30.34595,1.00894 38.80554,0.31044 20.79979,-1.78506 38.02947,-7.14023 49.90397,-15.367 9.15809,-6.2865 18.00576,-17.77294 22.19676,-28.71612 5.74324,-14.82371 7.83874,-29.25938 7.83874,-53.47405 0,-17.77295 -0.62091,-24.91316 -3.18206,-38.10706 -5.89844,-30.34602 -20.87741,-46.33392 -49.36068,-52.62042 -4.73426,-1.086547 -9.85661,-1.396996 -23.12811,-1.396996 -15.13415,0 -18.00577,0.232835 -25.2236,1.785056 -4.50146,1.00894 -9.856611,2.56117 -12.029731,3.33728 -2.095503,0.77611 -3.958177,1.47461 -4.035771,1.47461 -0.15532,0 -0.232848,-8.381997 -0.232848,-18.549053 V 68.729839 l 8.692449,0.388056 c 15.987901,0.543277 19.325171,2.949219 21.886351,15.910277 l 0.46565,2.017891 38.57273,-0.155232 c 21.26544,-0.07759 39.27121,-0.232824 40.04733,-0.310434 1.24179,-0.07762 1.31938,-2.405948 1.31938,-36.94289 V 12.77223 H 105.35379 9.5040676 Z"
       id="path14"
       inkscape:connector-curvature="0" />
  </g>
</svg>
