<?xml version="1.0" encoding="UTF-8" standalone="no"?>
<!-- Created with Inkscape (http://www.inkscape.org/) -->

<svg
   xmlns:dc="http://purl.org/dc/elements/1.1/"
   xmlns:cc="http://creativecommons.org/ns#"
   xmlns:rdf="http://www.w3.org/1999/02/22-rdf-syntax-ns#"
   xmlns:svg="http://www.w3.org/2000/svg"
   xmlns="http://www.w3.org/2000/svg"
   xmlns:sodipodi="http://sodipodi.sourceforge.net/DTD/sodipodi-0.dtd"
   xmlns:inkscape="http://www.inkscape.org/namespaces/inkscape"
   width="210mm"
   height="297mm"
   viewBox="0 0 210 297"
   version="1.1"
   id="svg227"
   inkscape:version="0.92.4 5da689c313, 2019-01-14"
   sodipodi:docname="shift_4.svg">
  <defs
     id="defs221" />
  <sodipodi:namedview
     id="base"
     pagecolor="#ffffff"
     bordercolor="#666666"
     borderopacity="1.0"
     inkscape:pageopacity="0.0"
     inkscape:pageshadow="2"
     inkscape:zoom="0.35"
     inkscape:cx="405.71429"
     inkscape:cy="560"
     inkscape:document-units="mm"
     inkscape:current-layer="layer1"
     showgrid="false"
     inkscape:window-width="960"
     inkscape:window-height="1060"
     inkscape:window-x="0"
     inkscape:window-y="20"
     inkscape:window-maximized="0" />
  <metadata
     id="metadata224">
    <rdf:RDF>
      <cc:Work
         rdf:about="">
        <dc:format>image/svg+xml</dc:format>
        <dc:type
           rdf:resource="http://purl.org/dc/dcmitype/StillImage" />
        <dc:title />
      </cc:Work>
    </rdf:RDF>
  </metadata>
  <g
     inkscape:label="Layer 1"
     inkscape:groupmode="layer"
     id="layer1">
    <path
       style="fill:#000000;stroke:none;stroke-width:0.07761112"
       d="M 143.99778,12.324748 95.646069,12.47998 69.180681,52.29448 C 54.589797,74.103201 33.401955,105.76853 22.070732,122.61014 L 1.50379,153.18891 1.58141,183.53488 c 0,16.68638 0.07762,31.51009 0.07762,32.82948 l 0.07762,2.56117 h 55.103884 55.103886 v 2.01788 c 0,1.08656 -0.31045,1.78506 -0.62089,1.55224 -0.38806,-0.23283 -0.54327,0.62088 -0.31044,1.78505 0.15532,1.24177 -0.38806,3.57012 -1.31938,5.35516 -1.31939,2.56117 -2.56118,3.64773 -6.59695,5.588 l -5.044731,2.40594 0.15532,23.82661 0.15532,23.82662 51.378561,0.1551 c 28.32806,0.0777 52.15465,-0.0777 53.00838,-0.31044 1.55221,-0.38806 1.55221,-1.00894 1.55221,-24.36989 v -23.98182 l -2.09549,-0.85373 c -4.57906,-1.70745 -7.52827,-6.3641 -8.4596,-13.03866 l -0.54329,-3.95806 h 9.00289 8.92526 l 0.23283,-2.17312 c 0.15532,-1.16415 0.31046,-13.65953 0.31046,-27.70715 l -0.0777,-25.61167 -9.0805,-0.23283 -9.0805,-0.23285 V 87.76275 c 0,-41.366723 -0.23282,-75.282779 -0.54329,-75.438002 -0.38803,-0.15521 -22.352,-0.15521 -48.895,0 z m -30.1131,116.571882 v 34.14889 H 91.144619 68.482181 l 1.707442,-2.71638 c 9.778996,-15.21178 42.996557,-65.50378 43.306997,-65.58139 0.23283,0 0.38806,15.367 0.38806,34.14888 z"
       id="path12"
       inkscape:connector-curvature="0" />
  </g>
</svg>
