<?xml version="1.0" encoding="UTF-8" standalone="no"?>
<!-- Created with Inkscape (http://www.inkscape.org/) -->

<svg
   xmlns:dc="http://purl.org/dc/elements/1.1/"
   xmlns:cc="http://creativecommons.org/ns#"
   xmlns:rdf="http://www.w3.org/1999/02/22-rdf-syntax-ns#"
   xmlns:svg="http://www.w3.org/2000/svg"
   xmlns="http://www.w3.org/2000/svg"
   xmlns:sodipodi="http://sodipodi.sourceforge.net/DTD/sodipodi-0.dtd"
   xmlns:inkscape="http://www.inkscape.org/namespaces/inkscape"
   width="210mm"
   height="297mm"
   viewBox="0 0 210 297"
   version="1.1"
   id="svg361"
   inkscape:version="0.92.4 5da689c313, 2019-01-14"
   sodipodi:docname="shift_6.svg">
  <defs
     id="defs355" />
  <sodipodi:namedview
     id="base"
     pagecolor="#ffffff"
     bordercolor="#666666"
     borderopacity="1.0"
     inkscape:pageopacity="0.0"
     inkscape:pageshadow="2"
     inkscape:zoom="0.35"
     inkscape:cx="405.71429"
     inkscape:cy="560"
     inkscape:document-units="mm"
     inkscape:current-layer="layer1"
     showgrid="false"
     inkscape:window-width="960"
     inkscape:window-height="1060"
     inkscape:window-x="0"
     inkscape:window-y="20"
     inkscape:window-maximized="0" />
  <metadata
     id="metadata358">
    <rdf:RDF>
      <cc:Work
         rdf:about="">
        <dc:format>image/svg+xml</dc:format>
        <dc:type
           rdf:resource="http://purl.org/dc/dcmitype/StillImage" />
        <dc:title />
      </cc:Work>
    </rdf:RDF>
  </metadata>
  <g
     inkscape:label="Layer 1"
     inkscape:groupmode="layer"
     id="layer1">
    <path
       style="fill:#000000;stroke:none;stroke-width:0.07761112"
       d="M 87.003221,9.4227343 C 38.108221,12.139123 14.048779,31.619511 7.0637789,73.995176 c -1.241768,7.605893 -2.794,27.707174 -2.173116,28.638494 0.15532,0.38806 0,0.62091 -0.310442,0.62091 -0.388058,0 -0.620884,1.16415 -0.465674,2.48353 0.15532,1.397 0.388058,25.92212 0.54329,54.56062 0.232826,28.56088 0.543268,53.24123 0.776116,54.71582 1.086558,7.14023 2.328326,16.14312 2.328326,18.00577 0.07766,1.08656 0.232826,1.86267 0.465674,1.70746 0.5432683,-0.6209 3.0268261,9.31333 2.7163841,10.94316 -0.232826,0.85373 -0.15532,1.08655 0.07766,0.46567 0.620884,-1.24179 5.976058,9.62377 5.898442,11.79688 0,0.6985 0.232826,1.16418 0.543268,1.00895 0.853732,-0.54327 4.113384,4.03579 3.570116,4.96711 -0.310442,0.46568 -0.07766,0.6985 0.543268,0.62089 0.54329,-0.15532 0.931348,0.23282 0.776116,0.77611 -0.07766,0.62089 0.15532,0.85371 0.465674,0.62089 0.931326,-0.54327 3.414884,2.17311 2.716384,3.02682 -0.388058,0.31047 -0.232826,0.38806 0.232826,0.15532 1.086558,-0.62088 4.423848,2.794 3.647732,3.72533 -0.388058,0.31044 -0.232826,0.38806 0.232826,0.15532 1.164174,-0.62089 4.346232,1.70744 3.725348,2.71638 -0.310442,0.54329 -0.15532,0.62089 0.388058,0.31044 0.543268,-0.38805 2.173094,0.23285 3.802942,1.24179 1.55221,1.08656 4.8895,2.71639 7.295442,3.72533 2.405942,1.00894 4.191,2.17312 3.958152,2.56117 -0.232826,0.46566 -0.07766,0.54327 0.388058,0.23283 0.465674,-0.23283 3.414906,0.23283 6.519348,1.08656 12.72821,3.57011 22.662442,4.73427 43.617438,5.19994 36.244395,0.77612 58.984445,-3.25967 75.981275,-13.50433 17.69533,-10.71034 27.31912,-27.62955 31.12206,-54.94867 1.31938,-9.31333 1.55223,-35.46827 0.46567,-44.62638 -5.35517,-43.69524 -27.39673,-65.03827 -68.84106,-66.51289 -16.60879,-0.62088 -31.35488,1.24177 -45.868175,5.89845 l -2.638766,0.77611 0.388056,-18.781883 c 0.388058,-20.877401 0.776094,-23.128124 5.199942,-27.784792 2.0955,-2.250716 3.570118,-3.026832 6.441713,-3.414886 6.2865,-0.931333 11.09841,-0.155232 14.35806,2.483554 4.191,3.41489 5.66562,8.071558 6.2865,19.247566 l 0.46567,9.313326 39.42645,0.232826 39.34882,0.15532 V 68.562401 38.44929 l -5.66561,-3.570112 C 165.39046,15.39879 129.61172,7.0167903 87.003221,9.4227343 Z M 115.25367,165.57628 c 2.17311,1.47462 3.18205,2.56118 2.87161,3.33727 -0.23282,0.62091 -0.15532,1.00897 0.23283,0.77612 0.93135,-0.62089 2.7164,3.88056 1.94029,5.04473 -0.31044,0.54327 -0.23285,0.77612 0.23282,0.46565 1.31939,-0.85371 1.78506,4.50147 1.78506,21.73112 0.0777,21.18782 -0.46567,24.91317 -4.34623,30.26832 -3.72533,5.04474 -14.59088,6.44174 -20.722157,2.63879 -6.053674,-3.72532 -7.52829,-10.32229 -7.52829,-32.98473 0,-22.66244 1.552232,-28.56088 8.537232,-32.131 4.967125,-2.56115 12.417775,-2.17309 16.996835,0.85373 z"
       id="path10"
       inkscape:connector-curvature="0" />
  </g>
</svg>
