<?xml version="1.0" encoding="UTF-8" standalone="no"?>
<!-- Created with Inkscape (http://www.inkscape.org/) -->

<svg
   xmlns:dc="http://purl.org/dc/elements/1.1/"
   xmlns:cc="http://creativecommons.org/ns#"
   xmlns:rdf="http://www.w3.org/1999/02/22-rdf-syntax-ns#"
   xmlns:svg="http://www.w3.org/2000/svg"
   xmlns="http://www.w3.org/2000/svg"
   xmlns:sodipodi="http://sodipodi.sourceforge.net/DTD/sodipodi-0.dtd"
   xmlns:inkscape="http://www.inkscape.org/namespaces/inkscape"
   width="210mm"
   height="297mm"
   viewBox="0 0 210 297"
   version="1.1"
   id="svg428"
   inkscape:version="0.92.4 5da689c313, 2019-01-14"
   sodipodi:docname="shift_7.svg">
  <defs
     id="defs422" />
  <sodipodi:namedview
     id="base"
     pagecolor="#ffffff"
     bordercolor="#666666"
     borderopacity="1.0"
     inkscape:pageopacity="0.0"
     inkscape:pageshadow="2"
     inkscape:zoom="0.35"
     inkscape:cx="405.71429"
     inkscape:cy="560"
     inkscape:document-units="mm"
     inkscape:current-layer="layer1"
     showgrid="false"
     inkscape:window-width="960"
     inkscape:window-height="1060"
     inkscape:window-x="0"
     inkscape:window-y="20"
     inkscape:window-maximized="0" />
  <metadata
     id="metadata425">
    <rdf:RDF>
      <cc:Work
         rdf:about="">
        <dc:format>image/svg+xml</dc:format>
        <dc:type
           rdf:resource="http://purl.org/dc/dcmitype/StillImage" />
        <dc:title />
      </cc:Work>
    </rdf:RDF>
  </metadata>
  <g
     inkscape:label="Layer 1"
     inkscape:groupmode="layer"
     id="layer1">
    <path
       style="fill:#000000;stroke:none;stroke-width:0.07761112"
       d="m 9.1638318,16.179728 c -0.155232,3.337268 -0.155232,101.981002 0.07762,106.404822 0.07762,1.31939 2.2507212,1.397 35.0026002,1.397 h 34.924993 v -14.6685 c 0,-32.829496 3.41491,-38.107054 24.369905,-38.107054 h 6.51933 l -2.94924,7.916326 c -1.62982,4.423848 -5.82082,15.832678 -9.313315,25.456438 -3.4925,9.62379 -7.60589,20.79979 -9.0805,24.83556 -1.47462,4.03579 -3.02683,8.22679 -3.33727,9.31335 -3.18206,9.779 -10.71035,28.6385 -11.25362,28.17283 -0.31044,-0.38806 -0.38805,-0.23283 -0.0777,0.31044 0.54327,1.00894 0.23283,2.0955 -8.226761,25.06838 -3.259674,8.77006 -9.468558,25.68929 -13.81479,37.64139 -4.34621,11.95211 -9.623768,26.4654 -11.796884,32.20861 -2.0955,5.74323 -4.8895,13.2715 -6.13129,16.60879 -1.241768,3.33727 -2.173094,6.28648 -2.017884,6.3641 0.620884,0.62088 89.330374,0.31044 89.873664,-0.23283 0.31044,-0.31044 2.0955,-4.96712 4.03577,-10.32227 4.11341,-11.33123 11.64167,-31.82056 29.64744,-80.71556 7.14023,-19.40279 14.74612,-40.04734 16.84162,-45.79055 7.83873,-21.42068 26.23256,-71.247004 28.87135,-78.387214 l 2.794,-7.373058 V 37.212322 12.221556 H 106.7986 9.4742758 Z"
       id="path26"
       inkscape:connector-curvature="0" />
  </g>
</svg>
