<?xml version="1.0" encoding="UTF-8" standalone="no"?>
<!-- Created with Inkscape (http://www.inkscape.org/) -->

<svg
   xmlns:dc="http://purl.org/dc/elements/1.1/"
   xmlns:cc="http://creativecommons.org/ns#"
   xmlns:rdf="http://www.w3.org/1999/02/22-rdf-syntax-ns#"
   xmlns:svg="http://www.w3.org/2000/svg"
   xmlns="http://www.w3.org/2000/svg"
   xmlns:sodipodi="http://sodipodi.sourceforge.net/DTD/sodipodi-0.dtd"
   xmlns:inkscape="http://www.inkscape.org/namespaces/inkscape"
   width="210mm"
   height="297mm"
   viewBox="0 0 210 297"
   version="1.1"
   id="svg93"
   inkscape:version="0.92.4 5da689c313, 2019-01-14"
   sodipodi:docname="shift_2.svg">
  <defs
     id="defs87" />
  <sodipodi:namedview
     id="base"
     pagecolor="#ffffff"
     bordercolor="#666666"
     borderopacity="1.0"
     inkscape:pageopacity="0.0"
     inkscape:pageshadow="2"
     inkscape:zoom="0.35"
     inkscape:cx="405.71429"
     inkscape:cy="560"
     inkscape:document-units="mm"
     inkscape:current-layer="layer1"
     showgrid="false"
     inkscape:window-width="960"
     inkscape:window-height="1060"
     inkscape:window-x="0"
     inkscape:window-y="20"
     inkscape:window-maximized="0" />
  <metadata
     id="metadata90">
    <rdf:RDF>
      <cc:Work
         rdf:about="">
        <dc:format>image/svg+xml</dc:format>
        <dc:type
           rdf:resource="http://purl.org/dc/dcmitype/StillImage" />
        <dc:title />
      </cc:Work>
    </rdf:RDF>
  </metadata>
  <g
     inkscape:label="Layer 1"
     inkscape:groupmode="layer"
     id="layer1">
    <path
       style="fill:#000000;stroke:none;stroke-width:0.07761112"
       d="M 96.39771,9.1620063 C 64.809974,11.257506 37.878916,19.329059 14.362751,33.687116 l -5.2775555,3.259665 -0.07762,5.044723 c -0.07762,5.898444 -0.07762,62.942606 0,66.357496 l 0.07762,2.32834 38.1846625,-0.15523 c 21.032612,-0.0776 39.038382,-0.15524 39.892112,-0.15524 1.62983,-0.0776 1.70745,-0.38805 2.01789,-14.280438 0.31044,-12.107334 0.62088,-14.746109 2.01788,-18.471444 2.71641,-6.829781 8.07156,-10.787944 14.74612,-10.787944 3.88056,0 8.07156,1.474612 7.37306,2.561163 -0.31045,0.465667 -0.0777,0.543281 0.46567,0.232833 1.16415,-0.776108 4.11338,1.785058 3.41488,2.871616 -0.23282,0.465667 -0.0777,0.543276 0.38806,0.232832 1.08656,-0.62089 2.794,2.328335 2.01789,3.57011 -0.38806,0.543276 -0.23283,0.62089 0.46567,0.232834 0.77612,-0.465667 0.93133,-0.310444 0.54327,0.6985 -0.31044,0.6985 -0.23283,1.086556 0.15532,0.853724 1.16417,-0.6985 2.63879,8.071551 2.17311,13.116276 -1.47461,15.134168 -7.06261,20.256498 -38.10705,34.769768 -33.838446,15.83269 -49.28304,24.83558 -59.993388,35.08025 -12.107324,11.48644 -18.1609905,24.13704 -20.4117135,42.76371 -0.931333,7.29544 -1.629833,74.58427 -0.931333,79.70662 l 0.310444,2.17311 h 99.6526605 99.65267 v -42.68611 -42.68612 h -39.96973 -39.89209 l -0.38806,2.48356 c -0.23285,1.397 -0.62088,4.81188 -0.85373,7.60588 -0.6985,7.6835 -2.94921,11.56406 -8.382,14.28044 -4.26862,2.0955 -5.27756,2.25074 -16.14312,2.63879 l -11.56403,0.38806 v -4.1134 c 0,-6.05366 1.397,-9.779 5.35515,-14.20283 5.12235,-5.66562 11.8745,-9.779 36.71006,-22.27438 34.14888,-17.22968 44.93682,-23.20574 53.31882,-29.56983 6.20891,-4.65667 12.72823,-11.95212 17.07444,-19.09235 12.88347,-21.0326 13.50435,-62.709762 1.31941,-88.321431 C 189.2207,28.099116 168.57614,15.06045 136.52276,10.481394 128.68403,9.3948383 104.85741,8.5411153 96.39782,9.1620063 Z"
       id="path4"
       inkscape:connector-curvature="0" />
  </g>
</svg>
