<?xml version="1.0" encoding="UTF-8" standalone="no"?>
<svg
   xmlns:dc="http://purl.org/dc/elements/1.1/"
   xmlns:cc="http://creativecommons.org/ns#"
   xmlns:rdf="http://www.w3.org/1999/02/22-rdf-syntax-ns#"
   xmlns:svg="http://www.w3.org/2000/svg"
   xmlns="http://www.w3.org/2000/svg"
   xmlns:sodipodi="http://sodipodi.sourceforge.net/DTD/sodipodi-0.dtd"
   xmlns:inkscape="http://www.inkscape.org/namespaces/inkscape"
   height="100%"
   width="100%"
   version="1.1"
   viewBox="0 0 2048 2048"
   id="svg187"
   sodipodi:docname="baa.svg"
   inkscape:version="1.0.2 (e86c870879, 2021-01-15)">
  <metadata
     id="metadata193">
    <rdf:RDF>
      <cc:Work
         rdf:about="">
        <dc:format>image/svg+xml</dc:format>
        <dc:type
           rdf:resource="http://purl.org/dc/dcmitype/StillImage" />
        <dc:title></dc:title>
      </cc:Work>
    </rdf:RDF>
  </metadata>
  <defs
     id="defs191" />
  <sodipodi:namedview
     pagecolor="#ffffff"
     bordercolor="#666666"
     borderopacity="1"
     objecttolerance="10"
     gridtolerance="10"
     guidetolerance="10"
     inkscape:pageopacity="0"
     inkscape:pageshadow="2"
     inkscape:window-width="960"
     inkscape:window-height="1060"
     id="namedview189"
     showgrid="false"
     inkscape:zoom="0.43115234"
     inkscape:cx="1024"
     inkscape:cy="1030.6187"
     inkscape:window-x="0"
     inkscape:window-y="20"
     inkscape:window-maximized="0"
     inkscape:current-layer="svg187" />
  <path
     style="color:black;"
     d="m1588 793q-83 30-233 49t-333 20q-178 0-326-18t-233-49l50-91q84 25 218 36t293 11q159 0 294-11t219-37l51 90zm226 668q-57 0-97 39t-40 97q0 56 40 96t97 41q56 0 96-40t40-97q0-57-40-96t-96-40zm-1578 0q-57 0-96 39t-40 97q0 56 39 96t97 41q57 0 97-40t40-97q0-57-40-96t-97-40zm1208 110q-57 0-96 39t-40 97q0 56 39 96t97 40q57 0 97-40t40-96q0-57-40-96t-97-40zm-840 0q-57 0-97 39t-40 97q0 56 40 96t97 40q56 0 96-40t40-96q0-57-40-96t-96-40zm1036-1288q-49-43-220-72t-394-29q-227 0-399 30t-217 75l63 240-28 157-88 153-85 622 49 19 274-462 6 550 68 12 209-553 112 595h69l112-593 207 551 69-12 6-550 275 463 47-22-83-619-89-153-28-159 65-243zm-96 32l-30 118q-195 45-490 45-292 0-488-45l-32-119q190 58 521 58 159 0 295-16t224-41zm-26 299q-184 51-490 51-308 0-496-52l15-101q189 49 481 49 291 0 474-48l16 101zm-494 1007q-57 0-96 40t-40 97q0 56 39 96t97 40q56 0 96-40t41-96q0-57-40-97t-97-40z"
     fill-rule="nonzero"
     transform="translate(0,2048) scale(1,-1)"
     display="block"
     fill="#000"
     id="path177" />
  <g
     fill-rule="nonzero"
     fill="#fff"
     id="g185">
    <path
       style="color:black;"
       d="m1588 1255q-83-30-233-49t-333-20q-178 0-326 18t-233 49l50 91q84-25 218-36t293-11 294 11 219 37l51-90z"
       display="block"
       id="path179" />
    <path
       style="color:black;"
       d="m1544 1733-30-118q-195-45-490-45-292 0-488 45l-32 119q190-58 521-58 159 0 295 16t224 41z"
       display="block"
       id="path181" />
    <path
       style="color:black;"
       d="m1518 1434q-184-51-490-51-308 0-496 52l15 101q189-49 481-49 291 0 474 48l16-101z"
       display="block"
       id="path183" />
  </g>
  <path
     style="color:#000000;stroke-width:0.5"
     d="m 1100.5,1023 h 85 v -68.5 h 137 V 1142 l -111,85.5 v 239 l 85,85 V 1654 h 76.5 v 119.5 H 690.5 V 1654 H 767 v -102.5 l 85.5,-85 v -239 L 741.5,1142 V 954.5 H 878 v 68.5 h 85.5 v -68.5 h 137 z m 239,665 h -615 v 51.5 h 615 z M 1262,1586 H 802 v 68 h 460 z m -85,-358.5 H 887 v 239 h 290 z M 1288,1108 V 988.5 h -68.5 v 68.5 h -154 V 988.5 H 998 V 1057 H 844.5 V 988.5 H 776 V 1108 Z m -38.5,443.5 -51.5,-51 H 866.5 l -52.5,51 z m -55,-358 63.5,-51.5 H 806 l 64,51.5 z"
     fill-rule="nonzero"
     display="block"
     fill="#000000"
     id="path411" />
  <g
     fill-rule="nonzero"
     fill="#ffffff"
     id="g421"
     transform="matrix(0.5,0,0,0.5,520,852)">
    <path
       style="color:#000000"
       d="M 1639,1672 H 409 v 103 h 1230 z"
       display="block"
       id="path413" />
    <path
       style="color:#000000"
       d="M 1484,1468 H 564 v 136 h 920 z"
       display="block"
       id="path415" />
    <path
       style="color:#000000"
       d="M 1314,751 H 734 v 478 h 580 z"
       display="block"
       id="path417" />
    <path
       style="color:#000000"
       d="M 1536,512 V 273 H 1399 V 410 H 1091 V 273 H 956 V 410 H 649 V 273 H 512 v 239 z"
       display="block"
       id="path419" />
  </g>
  <path
     style="color:#000000;stroke-width:0.5"
     d="m 1249.5,1551.5 -51.5,-51 H 866.5 l -52.5,51 z"
     fill-rule="nonzero"
     display="block"
     fill="#ffffff"
     id="path423" />
  <path
     style="color:#000000;stroke-width:0.5"
     d="M 1194.5,1193.5 1258,1142 H 806 l 64,51.5 z"
     fill-rule="nonzero"
     display="block"
     fill="#ffffff"
     id="path425" />
  <path
     style="fill:#ff4500;stroke:#000000;stroke-width:1.15969"
     d="M 887.0397,1347.1846 V 1228.3171 H 1032 1176.9603 v 118.8675 118.8675 H 1032 887.0397 Z"
     id="path435" />
  <path
     style="fill:#ff4500;stroke:#000000;stroke-width:1.15969"
     d="m 841.2322,1525.7713 25.513,-24.8427 165.2548,-0.032 165.2548,-0.031 25.5131,24.8613 25.513,24.8611 -216.2809,0.013 -216.2808,0.013 z"
     id="path437" />
  <path
     style="fill:#ff4500;stroke:#000000;stroke-width:1.15969"
     d="m 802.3828,1620.0584 v -33.051 H 1032 1261.6172 v 33.051 33.051 H 1032 802.3828 Z"
     id="path439" />
  <path
     style="fill:#ff4500;stroke:#000000;stroke-width:1.15969"
     d="m 724.684,1713.4129 v -25.5131 H 1032 1339.316 v 25.5131 25.513 H 1032 724.684 Z"
     id="path441" />
  <path
     style="fill:#ff4500;stroke:#000000;stroke-width:1.15969"
     d="m 776.8698,1047.9118 v -59.14385 h 33.6308 33.6308 v 34.21065 34.2106 h 77.1189 77.1189 v -34.2106 -34.21065 h 33.0509 33.051 v 34.21065 34.2106 h 77.6988 77.6987 v -34.2106 -34.21065 h 33.6309 33.6308 v 59.14385 59.1438 H 1032 776.8698 Z"
     id="path443" />
  <path
     style="fill:#ff4500;stroke:#000000;stroke-width:1.15969"
     d="m 841.7615,1170.1694 c -15.5989,-12.4865 -29.3909,-23.7064 -30.6489,-24.9332 -2.2569,-2.201 0.664,-2.2304 221.3161,-2.2304 h 223.6032 l -30.5482,24.8656 -30.5482,24.8657 -162.4062,0.068 -162.406,0.068 z"
     id="path445" />
</svg>
