<?xml version="1.0" encoding="UTF-8" standalone="no"?>
<svg
   xmlns:dc="http://purl.org/dc/elements/1.1/"
   xmlns:cc="http://creativecommons.org/ns#"
   xmlns:rdf="http://www.w3.org/1999/02/22-rdf-syntax-ns#"
   xmlns:svg="http://www.w3.org/2000/svg"
   xmlns="http://www.w3.org/2000/svg"
   xmlns:sodipodi="http://sodipodi.sourceforge.net/DTD/sodipodi-0.dtd"
   xmlns:inkscape="http://www.inkscape.org/namespaces/inkscape"
   height="100%"
   width="100%"
   version="1.1"
   viewBox="0 0 2048 2048"
   id="svg187"
   sodipodi:docname="bgg.svg"
   inkscape:version="1.0.2 (e86c870879, 2021-01-15)">
  <metadata
     id="metadata193">
    <rdf:RDF>
      <cc:Work
         rdf:about="">
        <dc:format>image/svg+xml</dc:format>
        <dc:type
           rdf:resource="http://purl.org/dc/dcmitype/StillImage" />
        <dc:title></dc:title>
      </cc:Work>
    </rdf:RDF>
  </metadata>
  <defs
     id="defs191" />
  <sodipodi:namedview
     pagecolor="#ffffff"
     bordercolor="#666666"
     borderopacity="1"
     objecttolerance="10"
     gridtolerance="10"
     guidetolerance="10"
     inkscape:pageopacity="0"
     inkscape:pageshadow="2"
     inkscape:window-width="960"
     inkscape:window-height="1060"
     id="namedview189"
     showgrid="false"
     inkscape:zoom="0.43115234"
     inkscape:cx="1024"
     inkscape:cy="1030.6187"
     inkscape:window-x="0"
     inkscape:window-y="20"
     inkscape:window-maximized="0"
     inkscape:current-layer="svg187" />
  <path
     style="color:black;"
     d="m1588 793q-83 30-233 49t-333 20q-178 0-326-18t-233-49l50-91q84 25 218 36t293 11q159 0 294-11t219-37l51 90zm226 668q-57 0-97 39t-40 97q0 56 40 96t97 41q56 0 96-40t40-97q0-57-40-96t-96-40zm-1578 0q-57 0-96 39t-40 97q0 56 39 96t97 41q57 0 97-40t40-97q0-57-40-96t-97-40zm1208 110q-57 0-96 39t-40 97q0 56 39 96t97 40q57 0 97-40t40-96q0-57-40-96t-97-40zm-840 0q-57 0-97 39t-40 97q0 56 40 96t97 40q56 0 96-40t40-96q0-57-40-96t-96-40zm1036-1288q-49-43-220-72t-394-29q-227 0-399 30t-217 75l63 240-28 157-88 153-85 622 49 19 274-462 6 550 68 12 209-553 112 595h69l112-593 207 551 69-12 6-550 275 463 47-22-83-619-89-153-28-159 65-243zm-96 32l-30 118q-195 45-490 45-292 0-488-45l-32-119q190 58 521 58 159 0 295-16t224-41zm-26 299q-184 51-490 51-308 0-496-52l15-101q189 49 481 49 291 0 474-48l16 101zm-494 1007q-57 0-96 40t-40 97q0 56 39 96t97 40q56 0 96-40t41-96q0-57-40-97t-97-40z"
     fill-rule="nonzero"
     transform="translate(0,2048) scale(1,-1)"
     display="block"
     fill="#000"
     id="path177" />
  <g
     fill-rule="nonzero"
     fill="#fff"
     id="g185">
    <path
       style="color:black;"
       d="m1588 1255q-83-30-233-49t-333-20q-178 0-326 18t-233 49l50 91q84-25 218-36t293-11 294 11 219 37l51-90z"
       display="block"
       id="path179" />
    <path
       style="color:black;"
       d="m1544 1733-30-118q-195-45-490-45-292 0-488 45l-32 119q190-58 521-58 159 0 295 16t224 41z"
       display="block"
       id="path181" />
    <path
       style="color:black;"
       d="m1518 1434q-184-51-490-51-308 0-496 52l15 101q189-49 481-49 291 0 474 48l16-101z"
       display="block"
       id="path183" />
  </g>
  <path
     style="color:#000000;stroke-width:0.5"
     d="m 1002.4172,1780.0851 h 245.5 q 10.5,-36 10.5,-70.5 0,-78 -43,-141.5 -43,-63.5 -111.5,-93.5 -33,-2.5 -33,-36 0,-26.5 33.5,-39 46.5,-32.5 46.5,-86 0,-38.5 -26,-67.5 -26,-29 -63,-33.5 -30,-2.5 -30,-34 0,-14 11,-26 27,-21 27,-55 0,-28 -20,-48 -20,-20 -47.5,-20 -28.50004,0 -48.00004,20 -19.5,20 -20,48 0,33.5 27,55 11,11 11,26 0,31.5 -29.5,34 -37.5,4.5 -63,33.5 -25.5,29 -26,67.5 0,53.5 46.5,86 33.5,13 33.5,39 0,33.5 -33.5,36 -68,30 -111,93.5 -43,63.5 -43,141.5 0,37 10.5,70.5 z m 0,34 H 732.41716 q -20,-50 -20,-104.5 0,-92.5 52.5,-166 52.5,-73.5 135,-105 -35.5,-16.5 -57.5,-49.5 -22,-33 -22.5,-75.5 0,-52.5 35,-91 35,-38.5 86,-44.5 -40.5,-30.5 -40.5,-80.5 0,-42 29.5,-72 29.5,-30.00002 72.50004,-30.00002 42,0 72,30.00002 30,30 30,72 0,50 -40.5,80.5 51,6 86,44.5 35,38.5 35,91 0,42 -22.5,75 -22.5,33 -58,50 82.5,31.5 135,105 52.5,73.5 52.5,166 0,54 -19.5,104.5 z"
     fill-rule="nonzero"
     display="block"
     fill="#000000"
     id="path1195" />
  <path
     style="color:#000000;stroke-width:0.5"
     d="m 1002.4172,1780.0851 h 245.5 q 10.5,-36 10.5,-70.5 0,-78 -43,-141.5 -43,-63.5 -111.5,-93.5 -33,-2.5 -33,-36 0,-26.5 33.5,-39 46.5,-32.5 46.5,-86 0,-38.5 -26,-67.5 -26,-29 -63,-33.5 -30,-2.5 -30,-34 0,-14 11,-26 27,-21 27,-55 0,-28 -20,-48 -20,-20 -47.5,-20 -28.50004,0 -48.00004,20 -19.5,20 -20,48 0,33.5 27,55 11,11 11,26 0,31.5 -29.5,34 -37.5,4.5 -63,33.5 -25.5,29 -26,67.5 0,53.5 46.5,86 33.5,13 33.5,39 0,33.5 -33.5,36 -68,30 -111,93.5 -43,63.5 -43,141.5 0,37 10.5,70.5 z"
     fill-rule="nonzero"
     display="block"
     fill="#ffffff"
     id="path1197" />
  <path
     style="fill:#ff4500;stroke:#000000;stroke-width:1.15969"
     d="m 753.69956,1766.3352 c -4.531,-18.9495 -6.3646,-35.2873 -6.39,-56.937 -0.07,-59.8674 17.9754,-111.0742 56.1273,-159.2696 27.3805,-34.5885 73.4334,-68.6941 102.3999,-75.8348 11.856,-2.9227 15.062,-4.5641 20.353,-10.4207 5.1151,-5.6618 7.8061,-14.1082 7.8061,-24.5014 0,-16.5967 -7.4306,-26.9896 -26.4437,-36.9855 -41.5287,-21.8334 -61.5699,-68.4097 -49.4917,-115.0207 4.1129,-15.8723 12.6877,-30.6829 25.3663,-43.813 17.3396,-17.9573 34.8146,-26.9929 58.6528,-30.3272 21.221,-2.9682 30.2577,-13.0092 30.4059,-33.7849 0.09,-12.5954 -3.1674,-19.1918 -15.6865,-31.7674 -15.1935,-15.2621 -21.6091,-29.8823 -21.6091,-49.2442 0,-19.2505 6.2132,-34.0543 20.2471,-48.2414 13.4456,-13.5924 28.7184,-20.1396 46.98024,-20.1396 37.7434,0 69.8044,34.5019 66.7762,71.86 -1.5761,19.4454 -6.3727,29.6685 -21.3492,45.5021 -13.7473,14.5341 -15.86,18.9058 -15.8402,32.7765 0.012,8.552 0.5019,11.4316 2.7112,15.9426 5.1294,10.4731 14.2137,15.5916 31.2989,17.635 9.2033,1.1007 24.4746,6.5996 33.9326,12.2185 15.3814,9.138 32.0093,27.1293 40.2029,43.4995 13.6236,27.2189 13.501,62.4271 -0.3128,89.876 -8.8226,17.531 -24.976,34.0918 -40.9538,41.9864 -11.0834,5.4764 -19.7947,12.8003 -24.2329,20.3735 -2.4746,4.2226 -3.1858,7.1499 -3.5851,14.7576 -1.127,21.4727 7.6409,33.7021 27.026,37.696 3.827,0.7885 13.0025,4.4621 20.3901,8.1636 63.2094,31.6705 114.1443,94.8309 131.396,162.934 5.9555,23.51 6.9843,32.7748 7.0129,63.1529 0.028,29.6988 -0.6417,35.8777 -6.5677,60.5935 l -2.4329,10.1472 H 1002.3281 756.76676 Z"
     id="path1207" />
</svg>
