<?xml version="1.0" encoding="UTF-8" standalone="no"?>
<svg
   xmlns:dc="http://purl.org/dc/elements/1.1/"
   xmlns:cc="http://creativecommons.org/ns#"
   xmlns:rdf="http://www.w3.org/1999/02/22-rdf-syntax-ns#"
   xmlns:svg="http://www.w3.org/2000/svg"
   xmlns="http://www.w3.org/2000/svg"
   xmlns:sodipodi="http://sodipodi.sourceforge.net/DTD/sodipodi-0.dtd"
   xmlns:inkscape="http://www.inkscape.org/namespaces/inkscape"
   height="100%"
   width="100%"
   version="1.1"
   viewBox="0 0 2048 2048"
   id="svg227"
   sodipodi:docname="wgg.svg"
   inkscape:version="1.0.2 (e86c870879, 2021-01-15)">
  <metadata
     id="metadata233">
    <rdf:RDF>
      <cc:Work
         rdf:about="">
        <dc:format>image/svg+xml</dc:format>
        <dc:type
           rdf:resource="http://purl.org/dc/dcmitype/StillImage" />
        <dc:title></dc:title>
      </cc:Work>
    </rdf:RDF>
  </metadata>
  <defs
     id="defs231" />
  <sodipodi:namedview
     pagecolor="#ffffff"
     bordercolor="#666666"
     borderopacity="1"
     objecttolerance="10"
     gridtolerance="10"
     guidetolerance="10"
     inkscape:pageopacity="0"
     inkscape:pageshadow="2"
     inkscape:window-width="960"
     inkscape:window-height="1060"
     id="namedview229"
     showgrid="false"
     inkscape:zoom="0.43115234"
     inkscape:cx="1024"
     inkscape:cy="1024"
     inkscape:window-x="0"
     inkscape:window-y="20"
     inkscape:window-maximized="0"
     inkscape:current-layer="svg227" />
  <path
     style="color:black;"
     d="m1024 1621q-57 0-96 40t-40 97q0 56 39 96t97 40q56 0 96-40t41-96q0-57-40-97t-97-40zm0 70q67 0 67 67 0 66-67 66-66 0-66-66 0-67 66-67zm509-1007q-193 49-505 49-320 0-511-50l15-96q195 46 496 46 299 0 488-45l17 96zm25 60 65 115q-48-19-98-19-134 0-214 109-60-50-134-50-96 0-153 75-64-70-153-70-72 0-132 49-84-107-217-107-51 0-101 19l70-120q194 56 533 56 345 0 534-57zm-448 239-85 489-85-483q3 2 14 10 23 45 70 45 51 0 66-45 6-6 20-16zm277-19v463l-165-454q19 7 32 18 20 25 54 25 40 0 64-35 3-4 7-8t8-9zm-562 14-164 449v-457q3 4 9 10 20 42 66 42 38 0 62-32 27-12 27-12zm-254-56-215 371 55-338q57-40 111-40 21 0 49 7zm903-5q23-7 51-7 61 0 114 38l55 346-220-377zm60-506-30 113q-196 43-480 43-281 0-479-43l-31-114q186 56 511 56 317 0 509-55zm106-128q-49-43-220-72t-394-29q-227 0-399 30t-217 75l63 240-28 157-88 153-85 622 49 19 274-462 6 550 68 12 209-553 112 595h69l112-593 207 551 69-12 6-550 275 463 47-22-83-619-89-153-28-159 65-243zm-81 36q-183 76-531 76-355 0-537-78 175-69 534-69 172 0 314 19t220 52zm-955 1252q-57 0-97 39t-40 97q0 56 40 96t97 40q56 0 96-40t40-96q0-57-40-96t-96-40zm0 70q66 0 66 66t-66 66q-67 0-67-66t67-66zm840 0q67 0 67 66t-67 66q-66 0-66-66t66-66zm0-70q-57 0-96 39t-40 97q0 56 39 96t97 40q57 0 97-40t40-96q0-57-40-96t-97-40zm-1208-110q-57 0-96 39t-40 97q0 56 39 96t97 41q57 0 97-40t40-97-40-96-97-40zm0 70q67 0 67 66 0 67-67 67-66 0-66-67 0-66 66-66zm1578 0q66 0 66 66 0 67-66 67-67 0-67-67 0-66 67-66zm0-70q-57 0-97 39t-40 97q0 56 40 96t97 41q56 0 96-40t40-97-40-96-96-40z"
     fill-rule="nonzero"
     transform="translate(0,2048) scale(1,-1)"
     display="block"
     fill="#000"
     id="path195" />
  <g
     fill-rule="nonzero"
     fill="#fff"
     id="g225">
    <path
       style="color:black;"
       d="m1024 357q67 0 67-67 0-66-67-66-66 0-66 66 0 67 66 67z"
       display="block"
       id="path197" />
    <path
       style="color:black;"
       d="m1533 1364q-193-49-505-49-320 0-511 50l15 96q195-46 496-46 299 0 488 45l17-96z"
       display="block"
       id="path199" />
    <path
       style="color:black;"
       d="m1558 1304 65-115q-48 19-98 19-134 0-214-109-60 50-134 50-96 0-153-75-64 70-153 70-72 0-132-49-84 107-217 107-51 0-101-19l70 120q194-56 533-56 345 0 534 57z"
       display="block"
       id="path201" />
    <path
       style="color:black;"
       d="m1110 1065-85-489-85 483q3-2 14-10 23-45 70-45 51 0 66 45 6 6 20 16z"
       display="block"
       id="path203" />
    <path
       style="color:black;"
       d="m1387 1084v-463l-165 454q19-7 32-18 20-25 54-25 40 0 64 35 3 4 7 8t8 9z"
       display="block"
       id="path205" />
    <path
       style="color:black;"
       d="m825 1070-164-449v457q3-4 9-10 20-42 66-42 38 0 62 32 27 12 27 12z"
       display="block"
       id="path207" />
    <path
       style="color:black;"
       d="m571 1126-215-371 55 338q57 40 111 40 21 0 49-7z"
       display="block"
       id="path209" />
    <path
       style="color:black;"
       d="m1474 1131q23 7 51 7 61 0 114-38l55-346-220 377z"
       display="block"
       id="path211" />
    <path
       style="color:black;"
       d="m1534 1637-30-113q-196-43-480-43-281 0-479 43l-31 114q186-56 511-56 317 0 509 55z"
       display="block"
       id="path213" />
    <path
       style="color:black;"
       d="m1559 1729q-183-76-531-76-355 0-537 78 175 69 534 69 172 0 314-19t220-52z"
       display="block"
       id="path215" />
    <path
       style="color:black;"
       d="m604 407q66 0 66-66t-66-66q-67 0-67 66t67 66z"
       display="block"
       id="path217" />
    <path
       style="color:black;"
       d="m1444 407q67 0 67-66t-67-66q-66 0-66 66t66 66z"
       display="block"
       id="path219" />
    <path
       style="color:black;"
       d="m236 517q67 0 67-66 0-67-67-67-66 0-66 67 0 66 66 66z"
       display="block"
       id="path221" />
    <path
       style="color:black;"
       d="m1814 517q66 0 66-66 0-67-66-67-67 0-67 67 0 66 67 66z"
       display="block"
       id="path223" />
  </g>
  <path
     style="color:#000000;stroke-width:0.5"
     d="m 1012.1021,1732.3002 h 245.5 q 10.5,-36 10.5,-70.5 0,-78 -43,-141.5 -43,-63.5 -111.5,-93.5 -33,-2.5 -33,-36 0,-26.5 33.5,-39 46.5,-32.5 46.5,-86 0,-38.5 -26,-67.5 -26,-29 -63,-33.5 -30,-2.5 -30,-34 0,-14 11,-26 27,-21 27,-55 0,-28 -20,-48 -20,-20.00002 -47.5,-20.00002 -28.5,0 -48,20.00002 -19.5,20 -20,48 0,33.5 27,55 11,11 11,26 0,31.5 -29.5,34 -37.5,4.5 -63,33.5 -25.5,29 -26,67.5 0,53.5 46.5,86 33.5,13 33.5,39 0,33.5 -33.5,36 -68,30 -111,93.5 -43.00003,63.5 -43.00003,141.5 0,37 10.5,70.5 z m 0,34 H 742.10207 q -20,-50 -20,-104.5 0,-92.5 52.50003,-166 52.5,-73.5 135,-105 -35.5,-16.5 -57.5,-49.5 -22,-33 -22.5,-75.5 0,-52.5 35,-91 35,-38.5 86,-44.5 -40.5,-30.5 -40.5,-80.5 0,-42 29.5,-72.00002 29.5,-30 72.5,-30 42,0 72,30 30,30.00002 30,72.00002 0,50 -40.5,80.5 51,6 86,44.5 35,38.5 35,91 0,42 -22.5,75 -22.5,33 -58,50 82.5,31.5 135,105 52.5,73.5 52.5,166 0,54 -19.5,104.5 z"
     fill-rule="nonzero"
     display="block"
     fill="#000000"
     id="path1195" />
  <path
     style="color:#000000;stroke-width:0.5"
     d="m 1012.1021,1732.3002 h 245.5 q 10.5,-36 10.5,-70.5 0,-78 -43,-141.5 -43,-63.5 -111.5,-93.5 -33,-2.5 -33,-36 0,-26.5 33.5,-39 46.5,-32.5 46.5,-86 0,-38.5 -26,-67.5 -26,-29 -63,-33.5 -30,-2.5 -30,-34 0,-14 11,-26 27,-21 27,-55 0,-28 -20,-48 -20,-20.00002 -47.5,-20.00002 -28.5,0 -48,20.00002 -19.5,20 -20,48 0,33.5 27,55 11,11 11,26 0,31.5 -29.5,34 -37.5,4.5 -63,33.5 -25.5,29 -26,67.5 0,53.5 46.5,86 33.5,13 33.5,39 0,33.5 -33.5,36 -68,30 -111,93.5 -43.00003,63.5 -43.00003,141.5 0,37 10.5,70.5 z"
     fill-rule="nonzero"
     display="block"
     fill="#ffffff"
     id="path1197" />
  <path
     style="fill:#ff4500;stroke:#000000;stroke-width:1.15969"
     d="m 763.38445,1718.5503 c -4.53103,-18.9495 -6.36461,-35.2873 -6.38998,-56.937 -0.0702,-59.8674 17.97533,-111.0742 56.12723,-159.2696 27.3805,-34.5885 73.4334,-68.6941 102.4,-75.8348 11.8559,-2.9227 15.0619,-4.5641 20.3529,-10.4207 5.1151,-5.6618 7.8062,-14.1082 7.8062,-24.5014 0,-16.5967 -7.4307,-26.9896 -26.4437,-36.9855 -41.5288,-21.8334 -61.5699,-68.4097 -49.4918,-115.0207 4.1129,-15.8723 12.6878,-30.6829 25.3663,-43.813 17.3397,-17.9573 34.8146,-26.9929 58.6528,-30.3272 21.221,-2.9682 30.2578,-13.0092 30.406,-33.7849 0.09,-12.5954 -3.1674,-19.1918 -15.6866,-31.7674 -15.1935,-15.2621 -21.6091,-29.8823 -21.6091,-49.2442 0,-19.2505 6.2132,-34.0543 20.2471,-48.2414 13.4457,-13.59244 28.7185,-20.13962 46.9803,-20.13962 37.7434,0 69.8044,34.50192 66.7762,71.86012 -1.5761,19.4453 -6.3727,29.6684 -21.3492,45.502 -13.7473,14.5341 -15.86,18.9058 -15.8402,32.7765 0.012,8.552 0.5019,11.4316 2.7112,15.9426 5.1294,10.4731 14.2137,15.5916 31.2989,17.635 9.2033,1.1007 24.4746,6.5996 33.9326,12.2185 15.3814,9.138 32.0093,27.1293 40.2029,43.4995 13.6236,27.2189 13.501,62.4272 -0.3128,89.876 -8.8226,17.531 -24.976,34.0918 -40.9538,41.9864 -11.0834,5.4764 -19.7947,12.8003 -24.2329,20.3735 -2.4746,4.2226 -3.1858,7.1499 -3.5851,14.7576 -1.127,21.4727 7.6409,33.7021 27.026,37.696 3.827,0.7885 13.0025,4.4621 20.3901,8.1636 63.2094,31.6705 114.1443,94.8309 131.396,162.934 5.9555,23.51 6.9843,32.7748 7.0129,63.1529 0.028,29.6988 -0.6417,35.8777 -6.5677,60.5935 l -2.4329,10.1472 H 1012.013 766.45162 Z"
     id="path1207" />
</svg>
