<?xml version="1.0" encoding="UTF-8" standalone="no"?>
<svg
   xmlns:dc="http://purl.org/dc/elements/1.1/"
   xmlns:cc="http://creativecommons.org/ns#"
   xmlns:rdf="http://www.w3.org/1999/02/22-rdf-syntax-ns#"
   xmlns:svg="http://www.w3.org/2000/svg"
   xmlns="http://www.w3.org/2000/svg"
   xmlns:sodipodi="http://sodipodi.sourceforge.net/DTD/sodipodi-0.dtd"
   xmlns:inkscape="http://www.inkscape.org/namespaces/inkscape"
   height="100%"
   width="100%"
   version="1.1"
   viewBox="0 0 2048 2048"
   id="svg227"
   sodipodi:docname="www.svg"
   inkscape:version="1.0.2 (e86c870879, 2021-01-15)">
  <metadata
     id="metadata233">
    <rdf:RDF>
      <cc:Work
         rdf:about="">
        <dc:format>image/svg+xml</dc:format>
        <dc:type
           rdf:resource="http://purl.org/dc/dcmitype/StillImage" />
        <dc:title></dc:title>
      </cc:Work>
    </rdf:RDF>
  </metadata>
  <defs
     id="defs231" />
  <sodipodi:namedview
     pagecolor="#ffffff"
     bordercolor="#666666"
     borderopacity="1"
     objecttolerance="10"
     gridtolerance="10"
     guidetolerance="10"
     inkscape:pageopacity="0"
     inkscape:pageshadow="2"
     inkscape:window-width="960"
     inkscape:window-height="1060"
     id="namedview229"
     showgrid="false"
     inkscape:zoom="0.43115234"
     inkscape:cx="1024"
     inkscape:cy="1024"
     inkscape:window-x="0"
     inkscape:window-y="20"
     inkscape:window-maximized="0"
     inkscape:current-layer="svg227" />
  <path
     style="color:black;"
     d="m1024 1621q-57 0-96 40t-40 97q0 56 39 96t97 40q56 0 96-40t41-96q0-57-40-97t-97-40zm0 70q67 0 67 67 0 66-67 66-66 0-66-66 0-67 66-67zm509-1007q-193 49-505 49-320 0-511-50l15-96q195 46 496 46 299 0 488-45l17 96zm25 60 65 115q-48-19-98-19-134 0-214 109-60-50-134-50-96 0-153 75-64-70-153-70-72 0-132 49-84-107-217-107-51 0-101 19l70-120q194 56 533 56 345 0 534-57zm-448 239-85 489-85-483q3 2 14 10 23 45 70 45 51 0 66-45 6-6 20-16zm277-19v463l-165-454q19 7 32 18 20 25 54 25 40 0 64-35 3-4 7-8t8-9zm-562 14-164 449v-457q3 4 9 10 20 42 66 42 38 0 62-32 27-12 27-12zm-254-56-215 371 55-338q57-40 111-40 21 0 49 7zm903-5q23-7 51-7 61 0 114 38l55 346-220-377zm60-506-30 113q-196 43-480 43-281 0-479-43l-31-114q186 56 511 56 317 0 509-55zm106-128q-49-43-220-72t-394-29q-227 0-399 30t-217 75l63 240-28 157-88 153-85 622 49 19 274-462 6 550 68 12 209-553 112 595h69l112-593 207 551 69-12 6-550 275 463 47-22-83-619-89-153-28-159 65-243zm-81 36q-183 76-531 76-355 0-537-78 175-69 534-69 172 0 314 19t220 52zm-955 1252q-57 0-97 39t-40 97q0 56 40 96t97 40q56 0 96-40t40-96q0-57-40-96t-96-40zm0 70q66 0 66 66t-66 66q-67 0-67-66t67-66zm840 0q67 0 67 66t-67 66q-66 0-66-66t66-66zm0-70q-57 0-96 39t-40 97q0 56 39 96t97 40q57 0 97-40t40-96q0-57-40-96t-97-40zm-1208-110q-57 0-96 39t-40 97q0 56 39 96t97 41q57 0 97-40t40-97-40-96-97-40zm0 70q67 0 67 66 0 67-67 67-66 0-66-67 0-66 66-66zm1578 0q66 0 66 66 0 67-66 67-67 0-67-67 0-66 67-66zm0-70q-57 0-97 39t-40 97q0 56 40 96t97 41q56 0 96-40t40-97-40-96-96-40z"
     fill-rule="nonzero"
     transform="translate(0,2048) scale(1,-1)"
     display="block"
     fill="#000"
     id="path195" />
  <g
     fill-rule="nonzero"
     fill="#fff"
     id="g225">
    <path
       style="color:black;"
       d="m1024 357q67 0 67-67 0-66-67-66-66 0-66 66 0 67 66 67z"
       display="block"
       id="path197" />
    <path
       style="color:black;"
       d="m1533 1364q-193-49-505-49-320 0-511 50l15 96q195-46 496-46 299 0 488 45l17-96z"
       display="block"
       id="path199" />
    <path
       style="color:black;"
       d="m1558 1304 65-115q-48 19-98 19-134 0-214-109-60 50-134 50-96 0-153-75-64 70-153 70-72 0-132-49-84 107-217 107-51 0-101-19l70 120q194-56 533-56 345 0 534 57z"
       display="block"
       id="path201" />
    <path
       style="color:black;"
       d="m1110 1065-85-489-85 483q3-2 14-10 23-45 70-45 51 0 66 45 6 6 20 16z"
       display="block"
       id="path203" />
    <path
       style="color:black;"
       d="m1387 1084v-463l-165 454q19-7 32-18 20-25 54-25 40 0 64 35 3 4 7 8t8 9z"
       display="block"
       id="path205" />
    <path
       style="color:black;"
       d="m825 1070-164-449v457q3-4 9-10 20-42 66-42 38 0 62 32 27 12 27 12z"
       display="block"
       id="path207" />
    <path
       style="color:black;"
       d="m571 1126-215-371 55 338q57 40 111 40 21 0 49-7z"
       display="block"
       id="path209" />
    <path
       style="color:black;"
       d="m1474 1131q23 7 51 7 61 0 114-38l55-346-220 377z"
       display="block"
       id="path211" />
    <path
       style="color:black;"
       d="m1534 1637-30-113q-196-43-480-43-281 0-479 43l-31 114q186-56 511-56 317 0 509 55z"
       display="block"
       id="path213" />
    <path
       style="color:black;"
       d="m1559 1729q-183-76-531-76-355 0-537 78 175 69 534 69 172 0 314-19t220-52z"
       display="block"
       id="path215" />
    <path
       style="color:black;"
       d="m604 407q66 0 66-66t-66-66q-67 0-67 66t67 66z"
       display="block"
       id="path217" />
    <path
       style="color:black;"
       d="m1444 407q67 0 67-66t-67-66q-66 0-66 66t66 66z"
       display="block"
       id="path219" />
    <path
       style="color:black;"
       d="m236 517q67 0 67-66 0-67-67-67-66 0-66 67 0 66 66 66z"
       display="block"
       id="path221" />
    <path
       style="color:black;"
       d="m1814 517q66 0 66-66 0-67-66-67-67 0-67 67 0 66 67 66z"
       display="block"
       id="path223" />
  </g>
  <path
     style="color:#000000;stroke-width:0.5"
     d="m 1024,1414.4999 q 48.5,0 93,7.5 49,-17.5 71,-54.5 19,-32 19,-70.4999 0,-23 -11.5,-50.5 -11.5,-27.5 -37.5,-50.5 -29.5,-24.5 -64.5,-53.5 -35,-29 -69.5,-68.5 -35,39 -70,68 -35,29 -64,54 -26.5,22.5 -37.5,50 -11,27.5 -11.5,51 0,38.4999 18.5,70.4999 21.5,37 71.5,54.5 44,-7.5 93,-7.5 z"
     fill-rule="nonzero"
     display="block"
     fill="#ffffff"
     id="path735" />
  <path
     style="color:#000000;stroke-width:0.5"
     d="m 1006,1286.5 -41.5,-0.5 q -17,0 -17,-17 0,-17 17,-17 h 41.5 v -43 q 0,-17.5 18,-17.5 17.5,0 17.5,17.5 v 43 h 43 q 16.5,0 16.5,17 0,17 -16.5,17 h -43 v 40.9999 q 0,18 -17.5,18 -18,0 -18,-18 z m 18,288.9999 q 34,0 66,-5.5 32,-5.5 62.5,-14 -58.5,-15.5 -128.5,-15.5 -71,0 -128.5,15.5 29,8 61.5,13.5 32.5,5.5 67,6 z M 1024,1031 q 34,0 34,-34 0,-34 -34,-34 -34,0 -34,34 0,34 34,34 z m 0,474.4999 q 58.5,0 112.5,11.5 l -24,-61.5 q -44,-7 -88.5,-7 -45.5,0 -89,7 l -24,61.5 q 53.5,-11.5 113,-11.5 z m 0,-91 q 48.5,0 93,7.5 49,-17.5 71,-54.5 19,-32 19,-70.4999 0,-23 -11.5,-50.5 -11.5,-27.5 -37.5,-50.5 -29.5,-24.5 -64.5,-53.5 -35,-29 -69.5,-68.5 -35,39 -70,68 -35,29 -64,54 -26.5,22.5 -37.5,50 -11,27.5 -11.5,51 0,38.4999 18.5,70.4999 21.5,37 71.5,54.5 44,-7.5 93,-7.5 z m -18,188.5 h -16 q -28,45 -53.5,56.5 -12,6 -26.5,11 -14.5,5 -33.5,5 -3.5,0 -53.5,-8 -24,-3.5 -38,-7.5 -14,-4 -22,-5 -28.5,-3.5 -66.5,3 -23,4 -43,14.5 l 24,39 q 6,-6 15.5,-7.5 9.5,-1.5 18,-4 21,-3.5 40,-1 6.5,1.5 25.5,3.5 19,2 50.5,7.5 37.5,5.5 51,5.5 52.5,0 80.5,-20 17,-13 32,-36 15,-23 15.5,-56.5 z m 18,56.5 q -7,28.5 -17,39.5 -10,11 -26.5,23 -18,12.5 -42.5,21 -24.5,8.5 -54.5,4.5 l -140.5,-19.5 q -8.5,-1 -15,0 -6.5,1 -13,1 -10.5,0 -26.5,4.5 -16,4.5 -25.5,14 l -48.5,-79.5 q 9,-10 16,-14 7,-4 16.5,-8.5 29,-13.5 62,-16.5 14,-1 27.5,-0.5 13.5,0.5 28,-1 27,4.5 54,8 27,3.5 55,8 30,0 40.5,-6 5.5,-3 17.5,-11 12,-8 24,-23.5 -26.5,-3 -54,-10 -27.5,-7 -48.5,-15.5 l 52,-129 q -39,-22.5 -54.5,-36 -15.5,-13.5 -24.5,-32 -13,-23 -16.5,-44.5 Q 806,1314.5 806,1297.5 q 0.5,-30 14,-66 13.5,-36 52,-65 31.5,-24 61.5,-49.5 30,-25.5 59.5,-59.5 -37,-19 -37,-60.5 0,-28 19.5,-48 19.5,-20 48.5,-20 28,0 48,20 20,20 20,48 0,41 -37,60.5 29,34 58.5,59.5 29.5,25.5 62.5,49.5 37.5,28.5 51,64.5 13.5,36 14.5,66.5 0,17 -3.5,38.4999 -3.5,21.5 -16,44.5 -10,18 -25,31.5 -15,13.5 -54,36.5 l 52,129 q -22,8 -49.5,15 -27.5,7 -53,10.5 11.5,15.5 23.5,23.5 12,8 18,11 10.5,6 40.5,6 27,-4 54,-7.5 27,-3.5 55,-8.5 13.5,1.5 27,1 13.5,-0.5 28.5,0.5 32,3 62,16.5 9,4.5 16,8.5 7,4 16.5,14 l -49,79.5 q -9,-9 -25,-13.5 -16,-4.5 -26.5,-5 -6.5,0 -13,-1 -6.5,-1 -15.5,0 l -140,19.5 q -30,4.5 -55.5,-4 -25.5,-8.5 -42.5,-22.5 -16.5,-13.5 -26,-23 -9.5,-9.5 -16.5,-38.5 z m 17.5,-56.5 q 0,33 15,56 15,23 33,36.5 27.5,20 80.5,20 13,0 51,-5.5 31,-5 50,-7 19,-2 25.5,-4 19,-2.5 40,1 8,2 17.5,3.5 9.5,1.5 16.5,8 l 24,-39 q -20.5,-10.5 -43.5,-14.5 -38,-6.5 -66.5,-3 -8.5,1 -22,5 -13.5,4 -37.5,7.5 -50.5,8 -53.5,8 -19.5,0 -34,-5 -14.5,-5 -26,-11 -26.5,-12 -54,-56.5 z"
     fill-rule="nonzero"
     display="block"
     fill="#000000"
     id="path737" />
  <g
     fill-rule="nonzero"
     fill="#ffffff"
     id="g749"
     transform="matrix(0.5,0,0,0.5,512.00003,831.5)">
    <path
       style="color:#000000"
       d="m 1024,1488 q 68,0 132,-11 64,-11 125,-28 -117,-31 -257,-31 -142,0 -257,31 58,16 123,27 65,11 134,12 z"
       display="block"
       id="path739" />
    <path
       style="color:#000000"
       d="m 1024,399 q 68,0 68,-68 0,-68 -68,-68 -68,0 -68,68 0,68 68,68 z"
       display="block"
       id="path741" />
    <path
       style="color:#000000"
       d="m 1024,1348 q 117,0 225,23 l -48,-123 q -88,-14 -177,-14 -91,0 -178,14 l -48,123 q 107,-23 226,-23 z"
       display="block"
       id="path743" />
    <path
       style="color:#000000"
       d="m 988,1543 h -32 q -56,90 -107,113 -24,12 -53,22 -29,10 -67,10 -7,0 -107,-16 -48,-7 -76,-15 -28,-8 -44,-10 -57,-7 -133,6 -46,8 -86,29 l 48,78 q 12,-12 31,-15 19,-3 36,-8 42,-7 80,-2 13,3 51,7 38,4 101,15 75,11 102,11 105,0 161,-40 34,-26 64,-72 30,-46 31,-113 z"
       display="block"
       id="path745" />
    <path
       style="color:#000000"
       d="m 1059,1543 q 0,66 30,112 30,46 66,73 55,40 161,40 26,0 102,-11 62,-10 100,-14 38,-4 51,-8 38,-5 80,2 16,4 35,7 19,3 33,16 l 48,-78 q -41,-21 -87,-29 -76,-13 -133,-6 -17,2 -44,10 -27,8 -75,15 -101,16 -107,16 -39,0 -68,-10 -29,-10 -52,-22 -53,-24 -108,-113 z"
       display="block"
       id="path747" />
  </g>
  <path
     style="fill:#ff4500;stroke:#000000;stroke-width:1.15969"
     d="m 1009.7013,1028.5032 c -13.0618,-4.013 -20.4464,-17.8305 -18.9661,-35.48792 0.9594,-11.44296 5.3201,-19.94952 12.5035,-24.39067 7.2221,-4.46512 18.2688,-6.13057 28.8383,-4.3478 17.0618,2.87784 24.9074,12.71851 24.9509,31.29557 0.013,5.43402 -0.7288,12.47212 -1.6477,15.64022 -2.2833,7.8718 -9.4406,14.9434 -17.5672,17.3567 -7.5734,2.2491 -20.6765,2.2183 -28.1117,-0.066 z"
     id="path759" />
  <path
     style="fill:#ff4500;stroke:#000000;stroke-width:1.15969"
     d="m 919.1798,1416.6223 c -22.4679,-9.9733 -41.9761,-24.999 -53.4381,-41.1593 -35.3416,-49.8279 -30.4511,-120.4695 11.519,-166.3857 5.1407,-5.624 29.4602,-26.626 67.8809,-58.6209 15.9626,-13.2929 34.7012,-30.5059 52.0829,-47.8425 l 27.1497,-27.0793 7.5062,8.447 c 18.8754,21.241 46.3787,46.6376 88.72,81.9241 24.3656,20.306 46.9832,40.0229 50.2612,43.8154 32.5428,37.6501 43.024,83.5765 29.3521,128.6138 -3.7975,12.5094 -13.2451,30.5447 -21.4091,40.8692 -12.3822,15.6589 -30.2626,28.7996 -51.6735,37.9756 l -9.7766,4.19 -12.7565,-1.793 c -30.5114,-4.2884 -38.6528,-4.7557 -81.7577,-4.6929 -37.5996,0.055 -46.236,0.4083 -63.7825,2.6111 -11.162,1.4012 -22.3819,2.8074 -24.9332,3.1249 -3.6847,0.4586 -6.7583,-0.3636 -14.9448,-3.9975 z m 115.9029,-73.6386 c 6.0003,-3.9316 6.7828,-7.4672 7.2644,-32.8246 l 0.446,-23.4836 h 23.1118 c 30.4208,0 33.8123,-1.4152 35.3939,-14.7695 0.8699,-7.3445 -1.0708,-13.3023 -5.5648,-17.0838 l -3.4906,-2.9371 h -24.7289 -24.7289 l -0.4366,-24.6433 c -0.485,-27.3701 -1.2207,-30.4606 -8.0981,-34.0171 -4.4438,-2.2979 -15.7717,-2.4717 -20.1839,-0.3095 -1.7571,0.861 -4.2854,3.0374 -5.6184,4.8363 -2.2564,3.045 -2.448,5.0265 -2.7764,28.7022 l -0.3527,25.4313 h -23.7683 c -26.2066,0 -29.0694,0.6128 -32.3311,6.9202 -2.7739,5.3642 -2.3461,17.5339 0.7549,21.4762 4.4764,5.6908 8.0863,6.3941 32.819,6.3941 h 22.6511 v 22.6511 c 0,23.8402 0.6991,27.9246 5.5137,32.2109 1.2952,1.153 3.846,2.5736 5.6686,3.1569 4.581,1.4662 15.094,0.4917 18.4553,-1.7107 z"
     id="path761" />
  <path
     style="fill:#ff4500;stroke:#000000;stroke-width:1.15969"
     d="m 923.5018,1486.3103 11.7825,-30.1815 6.9581,-1.1963 c 3.8269,-0.6579 15.0469,-2.1003 24.9332,-3.2054 25.1185,-2.8075 88.443,-2.8149 113.069,-0.013 21.5186,2.4483 30.9024,3.9519 31.9367,5.1174 1.0028,1.1302 23.2991,58.551 22.8784,58.9199 -0.1705,0.1494 -5.7895,-0.7232 -12.4866,-1.9391 -49.0078,-8.8979 -100.2635,-10.9561 -152.6565,-6.1301 -16.4876,1.5187 -46.7505,5.9368 -55.211,8.0602 -2.8961,0.7269 -2.6306,-0.1617 8.7962,-29.432 z"
     id="path763" />
  <path
     style="fill:#ff4500;stroke:#000000;stroke-width:1.15969"
     d="m 1004.2522,1574.1913 c -8.6289,-0.4958 -22.4581,-1.7642 -30.7316,-2.8188 -26.5312,-3.3817 -76.3816,-14.093 -73.3413,-15.7587 2.1006,-1.1509 27.2966,-6.4924 40.3236,-8.5486 34.9546,-5.5173 95.9646,-7.4969 131.0441,-4.252 25.8195,2.3883 57.5662,7.5291 73.6399,11.9246 l 4.6387,1.2685 -5.2186,1.5822 c -10.4445,3.1665 -47.3683,10.8426 -63.2227,13.1434 -15.0254,2.1804 -49.863,4.8984 -57.9642,4.5224 -1.9134,-0.089 -10.539,-0.5672 -19.1679,-1.063 z"
     id="path765" />
  <path
     style="fill:#ff4500;stroke:#000000;stroke-width:1.15969"
     d="m 843.6693,1711.7129 c -10.843,-1.4703 -26.2378,-3.7506 -34.2106,-5.0674 -7.9728,-1.3167 -22.8458,-3.4359 -33.051,-4.7092 -10.2052,-1.2734 -22.9907,-2.9066 -28.4122,-3.6294 -11.7912,-1.572 -28.2803,-0.652 -41.1688,2.297 -5.1025,1.1675 -11.3648,2.4849 -13.9161,2.9276 -2.5513,0.4427 -6.952,2.0866 -9.7792,3.6533 -4.1419,2.2951 -5.4057,2.5596 -6.5058,1.362 -2.2528,-2.4524 -21.4047,-34.0948 -21.4047,-35.3643 0,-1.2489 9.8351,-5.9149 18.621,-8.8343 20.3835,-6.773 39.3382,-9.3894 67.7753,-9.3552 22.2509,0.027 23.7358,0.1741 36.53,3.6229 19.828,5.3448 46.3481,10.137 91.593,16.5508 16.7497,2.3744 37.3555,-1.7463 59.7457,-11.9478 22.3632,-10.1893 36.5492,-23.3338 55.0003,-50.9625 l 6.0021,-8.9875 h 7.6384 7.6383 l -0.7904,8.9875 c -1.0259,11.6655 -4.4319,26.0301 -8.1835,34.5131 -4.9527,11.1989 -15.6489,26.0123 -27.2962,37.803 -9.8247,9.9456 -12.3347,11.7939 -23.1936,17.0787 -26.1331,12.7185 -59.1601,15.9564 -102.632,10.0617 z"
     id="path767" />
  <path
     style="fill:#ff4500;stroke:#000000;stroke-width:1.15969"
     d="m 1140.7044,1713.2826 c -28.2421,-3.6268 -47.4466,-12.8838 -65.2922,-31.4721 -20.9443,-21.8161 -31.0281,-42.6694 -32.5117,-67.2347 l -0.6828,-11.3069 h 7.4307 7.4306 l 6.2335,9.4247 c 15.49,23.4202 31.3658,38.8451 48.8992,47.5105 34.2661,16.9352 46.8901,18.3298 95.598,10.5603 38.1731,-6.0891 39.0054,-6.252 58.2126,-11.3936 15.8393,-4.24 16.2503,-4.2858 39.2008,-4.3725 25.5302,-0.096 43.1762,1.9434 60.8186,7.0305 12.435,3.5856 26.7374,9.5141 26.7374,11.0831 0,0.6629 -5.0639,9.4312 -11.2532,19.4852 l -11.2533,18.2799 -3.5326,-2.6065 c -4.7008,-3.4684 -5.841,-3.8281 -22.4972,-7.0987 -17.5992,-3.4557 -34.2544,-4.5507 -44.2382,-2.9084 -4.1459,0.682 -17.4533,2.5415 -29.572,4.1321 -12.1186,1.5906 -28.8181,3.9435 -37.1099,5.2287 -43.7017,6.7736 -70.9647,8.4392 -92.6183,5.6584 z"
     id="path769" />
</svg>
